<?xml version="1.0" encoding="utf-8"?>
<!-- Generator: Adobe Illustrator 22.0.1, SVG Export Plug-In . SVG Version: 6.00 Build 0)  -->
<svg version="1.1" xmlns="http://www.w3.org/2000/svg" xmlns:xlink="http://www.w3.org/1999/xlink" x="0px" y="0px" width="532.9px"
	 height="364.4px" viewBox="0 0 532.9 364.4" style="enable-background:new 0 0 532.9 364.4;" xml:space="preserve">
<style type="text/css">
	.st0{fill:#EDA58A;}
	.st1{fill:#FFFFFF;}
	.st2{fill:#48484B;}
	.st3{fill:#9898EA;}
	.st4{fill:#272728;}
	.st5{fill:none;stroke:#272728;stroke-width:1.2;stroke-linecap:round;stroke-linejoin:round;stroke-miterlimit:10;}
</style>
<g id="Слой_9">
	<path class="st0" d="M161.2,342.8c191.9,57.3,280.3-9.8,330.6-84c71.3-105.3,45.1-236.1-41.5-207c-48.9,16.4-19,78.6-75.2,96.2
		c-64.9,20.4-78.4-103.6-154.4-77.5c-29.7,10.2-24,53-108.1,29.7C-17.8,64.1-23.9,287.6,161.2,342.8z"/>
</g>
<g id="Слой_3">
	<path class="st1" d="M509.7,124.6H468l-19,12V92.2c0-5.9,4.7-10.6,10.6-10.6h50.1c5.9,0,10.6,4.7,10.6,10.6V114
		C520.3,119.9,515.6,124.6,509.7,124.6z"/>
	<path class="st1" d="M486.6,294.6c0,0,5.4,6.5,12.4,7.6c6.9,1.1,15.3,2.3,16.4,6l-0.3,1.6h-48.1c0,0-2.6-0.5-3.7-3.7
		C462.3,303,484.7,291.3,486.6,294.6z"/>
	<g>
		<path class="st1" d="M373.9,105.3c0,0,2.3,5.8,2.3,7.8c0,2-0.1,17.5-0.1,17.5s1.1,9.4,7.4,9.5c0,0,1.5,0.3,1.5,1
			c0.1,0.8,0.7,3.6-1.6,4.9c-2.3,1.3-4.2,7.2-4.2,7.2l-4.8,33.3l-1,34.9l-5,23.5l50,0.5l10.5-21.9l-9.8-72.5c0,0-2.8-0.3-5.2-3.1
			c-2.4-2.8-4.5-1.9-4.9-9.1c-0.4-7.2-0.7-11.8-0.7-11.8s-0.3-1.7,2.6-0.8c2.9,0.9,8-2.6,8.1-7.5c0.1-4.9-5.2-8.1-5.2-8.1l-7.6-12.5
			l-12.4-7.1C393.9,91.2,373.1,98,373.9,105.3z"/>
		<g>
			<path class="st1" d="M190.7,252.9h-123c-13.2,0-23.9-10.8-23.9-23.9v-80.3c0-13.2,10.8-23.9,23.9-23.9h123
				c13.2,0,23.9,10.8,23.9,23.9V229C214.6,242.2,203.8,252.9,190.7,252.9z"/>
			<path class="st2" d="M205.7,251.3c0,0-27.2,1.7-44.3,8.6c-17.1,7-32.2,10.2-44.6,21.2c-12.4,10.9-14.1,20.6-15.2,26.7
				c-1,6.2,0.9,16.7,14.3,19.6c13.3,2.9,20.7,3.3,34.9,2.5c14.2-0.8,28.9-1.9,28.9-1.9s1.8-12.6,0.3-20.3l30,2.1l38.4,1.3
				c0,0,6.2,17.1,11.1,17.1c4.9,0,30-0.6,30-0.6l31-29.9l-16.1-20.3c0,0-12-8.8-37-16.7c-25-7.9-37.5-8.9-37.5-8.9L205.7,251.3z"/>
			<path class="st1" d="M263.7,322.7c0,0-10.3,1.7-15-4.7l-1.4,2.4l-5.6,10.4c0,0-2.1,2.8-5.6,1.8c-3.5-1-1.6-6.7-1.6-6.7l1.8-5.5
				l-5.4,6.8c0,0-3.4,4.9-6.7,3.1c-3.3-1.8,0.5-7.4,0.5-7.4s-5.2,3.1-7.3,1.7c-2-1.5,0.2-6.8,1.8-8.8c1.6-2,8.1-10.7,11.6-12.5
				c3.6-1.8,15.1-0.8,17.4-0.5c2.3,0.2,14,1.5,14,1.5S265.7,319.5,263.7,322.7z"/>
			<path class="st1" d="M213.4,311.2c0,0-1.9-9.2-4.4-11.5c-2.5-2.3-5-3.4-5-3.4l4.4,12.9l-9.5-5.7l-4.4-9.4c0,0-5.2,0.1-8.5,0.5
				c-3.3,0.4-8.8,3.1-8.8,3.1s2.8,8.6,3.1,12.2s0.3,10.1,0.3,10.1s7.7,2.5,10.5,3.1c2.8,0.6,10.4,2.2,12.9,0.8c0,0,4.6-0.5,6.4-1.6
				c2.2-1.4,2.7-3,2.7-3s1,0.3,2-1.8C216.3,315,213.4,311.2,213.4,311.2z"/>
			<path class="st1" d="M246.9,193.5c-3.1-1.6-6.6-3-11-2.2c-4.4,0.8-8.3,3.9-8.3,3.9s-3.6-2.9-10.3-2.1c-6.6,0.8-9.2,5-9.8,7.6
				c-0.5,2.6-1.4,8.9,0.1,13.8c-2.8,1.7-3.6,4.9-3.6,5.9c0,1.4,0,7.1,6.9,8l-0.4,1.4l-6.5,21.4c0,0,4.2,19.2,15.6,20.4
				c9.1,1,10.1-11,10.1-11l4.2-12.3c0,0,5.8,0.6,7.8-4.7c2-5.3,6.2-22.1,6.2-22.1s6.9-3.7,7.9-11.7C256.8,202,250,195.1,246.9,193.5
				z"/>
			<polygon class="st3" points="199.9,305.1 193.2,288.8 199.3,286.4 208.7,309.3 			"/>
			<polygon class="st1" points="198.9,285.9 197.8,283.3 192,285.5 193.1,288.2 			"/>
			<path class="st1" d="M294.6,338.5l-4.4-5.6c0,0-1-2.9-0.5-6.4c0.5-3.5,25.8-74.8,25.8-74.8s3.3-7,11-8.5h107.7l3.1,0.7l5.6,3.6
				l0.7,1.4l-111.3-1.3l-7.2,2.7l-4.5,4.9l-26.1,74.7l-0.2,4.1L294.6,338.5z"/>
			<path class="st4" d="M224.1,229.9c0,0,2.5,1.9,2.4,4.2c-0.1,2.3-1.4,4.2-1.4,4.2s2,2,5,1.8c2.9-0.2,3-3.2,2.5-3.9
				c-0.6-0.7-3.2-0.3-3.9-1.3s-0.6-1.8-0.7-3.2C227.7,230.4,226.8,228.2,224.1,229.9z"/>
			<path class="st3" d="M383.6,173.8l0.7,8.4l-6,11.6v27.8l3-0.8l0.3-5.1c0,0,4.9-2,6.9-1.9l4.2-15.2l-1.2-15.3l5.5-8.2l-6.7-11.1
				L383.6,173.8z"/>
			<path class="st3" d="M417.2,113.1c0,0,3.7-8.3,3.2-14.5c-0.6-6.1-5.5-11.4-18.3-9.6c0,0-4.2-13-18.1-11.3
				c-13.9,1.7-12.3,15.5-10,19.5c0,0-8.5,2.7,1.6,13.5l0.6-7.9c0,0,13.7,3.1,21.7-6c0,0,1.2,14.5,7.4,16.8
				C405.4,113.8,410.2,108.5,417.2,113.1z"/>
			<path class="st2" d="M380,149.8v1.3v27.4l0.9-1.2c0,0-1.7,7.6-2.5,23.4c-0.8,15.8,0,20.9,0,20.9s-8.8,5.4-7,20.9l-1.1,0.7h-43.7
				c0,0-10.1,2.6-11.8,10.1c0,0-8.7-6-7.8-18.1c0.9-12.1,11.5-28.7,15.6-38.8C326.7,186.3,341,151.2,380,149.8z"/>
			<path class="st2" d="M416.7,151.1l-15.2,31.6l-2.1-2.5c0,0-9.2,25.2-10.9,33.7c0,0,26.4-1.6,26.4,2.6V243l18.5,0.2l3.9,0.4
				l6.9,5.5c0,0,8.6,3.7,8.6,11.1c0,7.4-15.3,49.6-15.3,49.6h10.2l1-19.7l11.3,17.2c0,0,10.6-1.8,17-5.6c6.4-3.8,11.6-7.5,11.6-7.5
				s-8.8-32.8-10.5-39.1c-1.7-6.2-15.5-62.3-16.3-65.4c-0.7-3.1-4.3-15.8-8.9-21.1C448.4,163.3,435.5,151.6,416.7,151.1z"/>
			<path class="st3" d="M381.7,216.4c0,0,7.8,3.3,17.2,2.8c9.4-0.6,16.1-2.8,16.1-2.8V243l-13.1,0.2c0,0,2-2.7,1.6-5.7
				c-0.4-3-2.4-3.9-2.4-3.9s1.4-2.7,0.4-5.7c-1-3-5.2-2.6-5.2-2.6s-10.8,0.9-13.9,0l-0.6-0.7V216.4z"/>
			<path class="st3" d="M309.9,348.1h102.9c6.8,0,12.8-4.2,14.9-10.3l24.4-70.5c3.4-9.7-4.2-19.8-14.9-19.8H334.4
				c-6.8,0-12.8,4.2-14.9,10.3L295,328.3C291.6,338,299.2,348.1,309.9,348.1z"/>
			<path class="st1" d="M374.7,297.7c-3.1,5.4-2.8,11.5,0.8,13.6c3.6,2.1,9-0.7,12.1-6.1c3.1-5.4,2.8-11.5-0.8-13.6
				C383.2,289.6,377.8,292.3,374.7,297.7z"/>
			<polygon class="st1" points="392.5,167.5 386.7,173.8 387.7,183.3 378.4,204.2 379.3,192.9 384.4,182.8 383.1,173.6 390.4,164 
							"/>
			<g>
				<g>
					<path class="st4" d="M515.8,310.4c-0.3,0-0.6-0.3-0.6-0.6c-0.1-3.1-3.7-4.4-3.8-4.4c-1.9-0.8-3.9-1.2-6.9-1.5
						c-11.5-1-17.6-7.8-17.9-8.1c-0.2-0.3-0.2-0.7,0.1-0.9c0.3-0.2,0.7-0.2,0.9,0.1c0.1,0.1,6.1,6.8,17,7.7c3.1,0.3,5.3,0.7,7.3,1.6
						c0.2,0.1,4.4,1.6,4.5,5.6C516.4,310.1,516.1,310.3,515.8,310.4C515.8,310.4,515.8,310.4,515.8,310.4z"/>
				</g>
				<g>
					<path class="st4" d="M509.2,310.2c-0.1,0-0.3,0-0.4-0.1c-0.3-0.2-0.3-0.6-0.1-0.9c0,0,1.1-1.5,0.6-2.7
						c-0.3-0.9-1.3-1.5-2.9-1.9c-5.8-1.4-11.8-3.4-11.9-3.4c-0.3-0.1-0.5-0.5-0.4-0.8c0.1-0.3,0.5-0.5,0.8-0.4c0.1,0,6,2,11.8,3.4
						c2.1,0.5,3.4,1.4,3.8,2.7c0.7,1.9-0.8,3.8-0.8,3.9C509.6,310.2,509.4,310.2,509.2,310.2z"/>
				</g>
				<g>
					<path class="st4" d="M484.8,310.5c-7.9-1.6-7.4-6-7.4-6.2c0-0.3,0.3-0.6,0.7-0.5c0.3,0,0.6,0.4,0.5,0.7c0,0.1-0.3,3.5,6.3,4.9
						c0.3,0.1,0.6,0.4,0.5,0.7C485.3,310.3,485.1,310.5,484.8,310.5z"/>
				</g>
				<g>
					<path class="st4" d="M466.2,310.4c-0.2,0-0.3-0.1-0.4-0.2c-1.6-1.6-2.1-3.2-2.2-3.2c-0.1-0.3,0.1-0.7,0.4-0.8
						c0.3-0.1,0.7,0.1,0.8,0.4c0,0,0.5,1.4,1.9,2.7c0.2,0.2,0.2,0.6,0,0.9C466.5,310.3,466.4,310.4,466.2,310.4z"/>
				</g>
			</g>
			<g>
				<path class="st4" d="M142.2,331c-16.3,0-32.3-2.1-37.8-10c-3.2-4.6-4-11.4-2.2-18.5c3-12.1,12.8-23.1,26.8-30.2
					c7.9-4,16.6-7.6,25.8-10.9c7.8-2.7,17-5.8,26.4-7.7c8.4-1.7,15-2.3,22.8-2.9c0.3,0,0.6,0.2,0.7,0.6c0,0.3-0.2,0.6-0.6,0.7
					c-7.8,0.6-14.4,1.2-22.7,2.9c-9.4,1.9-18.5,5-26.3,7.7c-9.2,3.2-17.8,6.9-25.6,10.8c-13.6,6.9-23.2,17.6-26.1,29.3
					c-1.7,6.8-1,13.2,2,17.5c9.1,13,50.6,9.2,68.4,7.6c2.4-0.2,4.4-0.4,5.9-0.5c0.3,0,0.6,0.2,0.7,0.6c0,0.3-0.2,0.6-0.6,0.7
					c-1.6,0.1-3.6,0.3-5.9,0.5C165.7,329.9,153.9,331,142.2,331z"/>
			</g>
			<g>
				<path class="st4" d="M306.1,279.3c-0.1,0-0.3,0-0.4-0.1c-2.3-1.8-4.5-3.2-7.3-4.8c-13.4-7.5-28.6-12.4-41.8-16.2
					c-6-1.7-15.1-4.1-24.1-4.8c-0.3,0-0.6-0.3-0.6-0.7c0-0.3,0.3-0.6,0.6-0.6c9.2,0.7,18.3,3.2,24.4,4.9
					c13.3,3.8,28.6,8.7,42.1,16.3c2.9,1.7,5.1,3.1,7.5,4.9c0.3,0.2,0.3,0.6,0.1,0.9C306.5,279.2,306.3,279.3,306.1,279.3z"/>
			</g>
			<g>
				<path class="st4" d="M269.4,328.8c-3.4,0-6.5-0.1-9.4-0.2c-0.3,0-0.6-0.3-0.6-0.6c0-0.3,0.3-0.6,0.6-0.6
					c8.3,0.3,19.3,0.2,29.5-0.4c0.3,0,0.6,0.2,0.7,0.6c0,0.3-0.2,0.6-0.6,0.7C282.9,328.6,275.8,328.8,269.4,328.8z"/>
			</g>
			<g>
				<g>
					<path class="st4" d="M208.7,309.9c-0.2,0-0.5-0.1-0.6-0.4l-9.2-22.7l-5.2,2.1l6.2,15.4c0.1,0.3,0,0.7-0.3,0.8
						c-0.3,0.1-0.7,0-0.8-0.3l-6.5-16c-0.1-0.2-0.1-0.3,0-0.5c0.1-0.2,0.2-0.3,0.3-0.3l6.4-2.6c0.3-0.1,0.7,0,0.8,0.3l9.5,23.3
						c0.1,0.3,0,0.7-0.3,0.8C208.9,309.9,208.8,309.9,208.7,309.9z"/>
				</g>
				<g>
					<path class="st4" d="M192.9,289.2c-0.2,0-0.5-0.1-0.6-0.4l-1.3-3.1c-0.1-0.3,0-0.7,0.3-0.8l6.4-2.6c0.1-0.1,0.3-0.1,0.5,0
						c0.2,0.1,0.3,0.2,0.3,0.3l1.3,3.1c0.1,0.3,0,0.7-0.3,0.8c-0.3,0.1-0.7,0-0.8-0.3l-1-2.5l-5.2,2.1l1,2.5c0.1,0.3,0,0.7-0.3,0.8
						C193,289.2,193,289.2,192.9,289.2z"/>
				</g>
				<g>
					<path class="st4" d="M213,329.6c-0.2,0-0.3-0.1-0.4-0.2l-6-5.7c-0.2-0.2-0.3-0.6,0-0.9c0.2-0.2,0.6-0.3,0.9,0l5,4.8l0.3-7.7
						c0-0.3,0.3-0.6,0.6-0.6c0.3,0,0.6,0.3,0.6,0.6l-0.4,9.1c0,0.2-0.2,0.5-0.4,0.6C213.2,329.6,213.1,329.6,213,329.6z"/>
				</g>
			</g>
			<g>
				<g>
					<path class="st4" d="M237.8,333.6c-0.7,0-1.3-0.1-2-0.5c-0.9-0.4-1.6-1-2.1-1.8c-0.5-0.8-0.7-1.7-0.6-2.7
						c0.1-1.1,0.5-2.2,0.9-3.2c0.4-1.1,0.9-2.2,1.6-3.6c1.5-3.1,3.2-6.2,5.1-9.4c0.2-0.3,0.6-0.4,0.9-0.2c0.3,0.2,0.4,0.6,0.2,0.9
						c-1.9,3.1-3.6,6.2-5,9.3c-0.7,1.4-1.2,2.5-1.6,3.6c-0.4,0.9-0.7,1.9-0.8,2.8c0,0.5,0,1.3,0.4,2c0.3,0.5,0.8,1,1.5,1.3
						c1.4,0.7,2.9,0.3,4.1-1c0.7-0.8,1.2-1.7,1.7-2.6c0.2-0.3,0.3-0.6,0.5-0.9c0.7-1.2,1.4-2.4,2-3.6l0.4-0.7
						c0.2-0.4,0.5-0.9,0.7-1.4c1-1.9,2-3.9,3.4-5.6c0.2-0.3,0.6-0.3,0.9-0.1c0.3,0.2,0.3,0.6,0.1,0.9c-1.3,1.6-2.3,3.5-3.2,5.4
						c-0.2,0.5-0.5,0.9-0.7,1.4l-0.4,0.7c-0.7,1.2-1.3,2.5-2,3.7c-0.2,0.3-0.3,0.6-0.5,0.8c-0.5,1-1.1,2-1.9,2.9
						C240.4,333,239.1,333.6,237.8,333.6z"/>
				</g>
				<g>
					<path class="st4" d="M226.2,331.4c-0.5,0-0.9-0.1-1.3-0.2c-1.6-0.5-2.7-2-2.8-3c-0.7-5.2,10.1-17.4,10.6-17.9
						c0.2-0.3,0.6-0.3,0.9,0c0.3,0.2,0.3,0.6,0,0.9c-3,3.4-10.8,13-10.3,16.9c0.1,0.6,0.8,1.6,2,2c1.2,0.4,2.6-0.1,3.9-1.4
						c5-5.2,11.5-16.1,11.6-16.2c0.2-0.3,0.6-0.4,0.9-0.2c0.3,0.2,0.4,0.6,0.2,0.9c-0.3,0.5-6.6,11.1-11.7,16.4
						C228.6,331,227.2,331.4,226.2,331.4z"/>
				</g>
				<g>
					<path class="st4" d="M219.5,325.6c-1.1,0-2.1-0.4-3-1.2c-3.1-2.8,3.4-10.2,4.2-11.1c2.3-3.3,8.4-11.3,12.8-12
						c6.5-1,28,1.9,28.9,2.1c0.3,0,0.6,0.4,0.5,0.7c0,0.3-0.4,0.6-0.7,0.5c-0.2,0-22.2-3-28.6-2.1c-2.7,0.4-7.2,4.7-12,11.5
						c-2.6,2.9-6,7.9-4.3,9.4c0.8,0.7,1.6,1,2.4,0.9c2.4-0.2,4.7-3.2,4.7-3.2c0.2-0.3,0.6-0.3,0.9-0.1c0.3,0.2,0.3,0.6,0.1,0.9
						c-0.1,0.1-2.6,3.4-5.6,3.7C219.8,325.6,219.6,325.6,219.5,325.6z"/>
				</g>
				<g>
					<path class="st4" d="M260.7,323.9c-8.1,0-12.2-4.7-12.4-5c-0.2-0.3-0.2-0.7,0.1-0.9c0.3-0.2,0.7-0.2,0.9,0.1
						c0,0.1,5,5.6,14.4,4.3c0.3-0.1,0.7,0.2,0.7,0.5c0,0.3-0.2,0.7-0.5,0.7C262.7,323.8,261.6,323.9,260.7,323.9z"/>
				</g>
			</g>
			<g>
				<path class="st4" d="M212.5,343.7c-0.2,0-0.3-0.1-0.4-0.2l-22.5-20.4c-0.3-0.2-0.3-0.6,0-0.9c0.2-0.3,0.6-0.3,0.9,0l22.3,20.2
					l54.7-4.8L244.8,325c-0.3-0.2-0.4-0.6-0.2-0.9c0.2-0.3,0.6-0.4,0.9-0.2l24.4,13.6c0.2,0.1,0.4,0.4,0.3,0.7
					c-0.1,0.3-0.3,0.5-0.6,0.5L212.5,343.7C212.5,343.7,212.5,343.7,212.5,343.7z"/>
			</g>
			<g>
				<path class="st4" d="M282.7,295.3c-11.2,0-25-0.8-25.9-0.9c-0.3,0-0.6-0.3-0.6-0.7c0-0.3,0.3-0.6,0.6-0.6c0.4,0,33,2,38.7,0
					c0.3-0.1,0.7,0.1,0.8,0.4c0.1,0.3-0.1,0.7-0.4,0.8C293.9,295,288.6,295.3,282.7,295.3z"/>
			</g>
			<g>
				<path class="st4" d="M210.9,320.2c-3.2,0-8.9-1.4-18.1-8.5c-0.3-0.2-0.3-0.6-0.1-0.9c0.2-0.3,0.6-0.3,0.9-0.1
					c10.8,8.4,16.6,8.5,18.6,8.2c1.2-0.2,2.1-0.7,2.5-1.5c1.5-2.3-1.8-5-2.3-5.4c-1.3-0.5-14.2-5.7-17.8-10.3
					c-0.2-0.3-0.2-0.7,0.1-0.9c0.3-0.2,0.7-0.2,0.9,0.1c3.5,4.5,17.2,9.9,17.4,10c0.3,0.2,5,3.7,2.8,7.2c-0.7,1.1-1.8,1.8-3.4,2
					C212,320.1,211.5,320.2,210.9,320.2z"/>
			</g>
			<g>
				<path class="st4" d="M205.8,323.9c-7.6,0-17-5.7-17.5-5.9c-0.3-0.2-0.4-0.6-0.2-0.9c0.2-0.3,0.6-0.4,0.9-0.2
					c0.1,0.1,12.5,7.5,19.7,5.4c1.9-0.5,3.2-1.7,4.1-3.4c0.1-0.3,0.5-0.4,0.8-0.3c0.3,0.2,0.4,0.5,0.3,0.8c-1,2.1-2.7,3.4-4.9,4.1
					C208,323.8,206.9,323.9,205.8,323.9z"/>
			</g>
			<g>
				<path class="st4" d="M213.5,312.7c-0.3,0-0.6-0.2-0.6-0.5c0-0.1-1.2-7-3.1-10.3c-1.9-3.2-6.7-5.3-6.7-5.3
					c-0.3-0.1-0.5-0.5-0.3-0.8c0.1-0.3,0.5-0.5,0.8-0.3c0.2,0.1,5.1,2.3,7.3,5.8c2.1,3.5,3.3,10.4,3.3,10.7c0.1,0.3-0.2,0.7-0.5,0.7
					C213.6,312.7,213.6,312.7,213.5,312.7z"/>
			</g>
			<g>
				<path class="st4" d="M176.9,297.7c-0.3,0-0.6-0.3-0.6-0.6c0-0.3,0.2-0.6,0.6-0.7c0,0,1.7-0.1,5.1-1.5c6.3-2.6,13.1-1.2,13.4-1.1
					c0.3,0.1,0.6,0.4,0.5,0.7c-0.1,0.3-0.4,0.5-0.7,0.5c-0.1,0-6.7-1.4-12.6,1.1C178.8,297.6,177,297.7,176.9,297.7
					C176.9,297.7,176.9,297.7,176.9,297.7z"/>
			</g>
			<g>
				<path class="st4" d="M199.8,325.2c-5,0-10.8-2.2-13.3-3.1c-0.4-0.1-0.7-0.3-0.9-0.3c-1.7-0.6-5.4-1.3-5.4-1.3
					c-0.3-0.1-0.6-0.4-0.5-0.7c0.1-0.3,0.4-0.6,0.7-0.5c0.2,0,3.8,0.7,5.6,1.3c0.2,0.1,0.5,0.2,0.9,0.3c3.3,1.2,13.3,4.9,17.6,1.8
					c0.3-0.2,0.7-0.1,0.9,0.1c0.2,0.3,0.1,0.7-0.1,0.9C203.9,324.8,201.9,325.2,199.8,325.2z"/>
			</g>
			<g>
				<path class="st4" d="M129.2,298.6c-0.3,0-0.6-0.3-0.6-0.6c0-0.3,0.2-0.6,0.6-0.7c33.5-2,45.3-3.3,45.4-3.3
					c0.4,0,0.7,0.2,0.7,0.6c0,0.3-0.2,0.7-0.6,0.7C174.6,295.3,162.8,296.6,129.2,298.6C129.2,298.6,129.2,298.6,129.2,298.6z"/>
			</g>
			<g>
				<path class="st4" d="M179.8,328.7c-0.4,0-0.7-0.4-0.6-0.7c2.9-22.8-4.9-32.8-5-33c-0.2-0.3-0.2-0.7,0.1-0.9
					c0.3-0.2,0.7-0.2,0.9,0.1c0.3,0.4,8.2,10.5,5.3,33.9C180.3,328.5,180.1,328.7,179.8,328.7z"/>
			</g>
			<g>
				<path class="st4" d="M259.8,328.7c-1.6,0-3.3-1.4-4.8-4l-1.3-2.3c-0.2-0.3-0.1-0.7,0.2-0.9c0.3-0.2,0.7-0.1,0.9,0.2l1.3,2.3
					c1.3,2.3,2.6,3.5,3.9,3.4c2.5-0.3,4.5-6.7,3.5-15.5c-0.5-4.4-1.5-8.9-2.8-12.3c-1.3-3.5-2.6-5.4-3.8-5.3c-1,0.1-2.6,3.9-3.6,8.3
					c-0.1,0.3-0.4,0.6-0.7,0.5c-0.3-0.1-0.5-0.4-0.5-0.7c0.3-1.5,2.1-9,4.7-9.3c1.8-0.2,3.6,1.8,5.1,6.1c1.3,3.5,2.3,8,2.8,12.5
					c1.1,9-1,16.4-4.6,16.9C260,328.7,259.9,328.7,259.8,328.7z"/>
			</g>
			<g>
				<path class="st4" d="M220.6,314.3h-5.5c-0.3,0-0.6-0.3-0.6-0.6c0-0.3,0.3-0.6,0.6-0.6h5.5c0.3,0,0.6,0.3,0.6,0.6
					C221.3,314,221,314.3,220.6,314.3z"/>
			</g>
			<g>
				<path class="st4" d="M206,330.2c-0.3,0-0.6-0.3-0.6-0.6c0-0.3,0.2-0.6,0.6-0.7l10.7-0.6c0.4,0,0.6,0.2,0.7,0.6
					c0,0.3-0.2,0.6-0.6,0.7L206,330.2C206,330.2,206,330.2,206,330.2z"/>
			</g>
			<g>
				<path class="st4" d="M241.7,331.9c-0.3,0-0.6-0.3-0.6-0.6c0-0.3,0.3-0.6,0.6-0.6l5.4-0.1c0.4-0.1,0.6,0.3,0.6,0.6
					c0,0.3-0.3,0.6-0.6,0.6L241.7,331.9C241.8,331.9,241.8,331.9,241.7,331.9z"/>
			</g>
			<g>
				<path class="st4" d="M214.7,337.1c-0.3,0-0.6-0.2-0.6-0.6c0-0.3,0.2-0.6,0.6-0.7l10.9-0.9c0.3,0,0.6,0.2,0.7,0.6
					c0,0.3-0.2,0.6-0.6,0.7L214.7,337.1C214.7,337.1,214.7,337.1,214.7,337.1z"/>
			</g>
			<g>
				<g>
					<path class="st4" d="M449.2,137.2c-0.1,0-0.2,0-0.3-0.1c-0.2-0.1-0.3-0.3-0.3-0.5V115c0-0.1,0-0.1,0-0.2c0-0.3,0-0.6,0-0.9
						V92.9c0-6.5,5.3-11.7,11.7-11.7h49c6.5,0,11.7,5.3,11.7,11.7v2.7c0,0.3-0.3,0.6-0.6,0.6c-0.3,0-0.6-0.3-0.6-0.6v-2.7
						c0-5.8-4.7-10.5-10.5-10.5h-49c-5.8,0-10.5,4.7-10.5,10.5v20.9c0,0.4,0,0.8,0.1,1.1c0,0.1,0,0.2-0.1,0.3v20.1l17.2-11
						c0.1-0.1,0.2-0.1,0.3-0.1h41.9c5.8,0,10.5-4.7,10.5-10.5v-8.8c0-0.3,0.3-0.6,0.6-0.6c0.3,0,0.6,0.3,0.6,0.6v8.8
						c0,6.5-5.3,11.7-11.7,11.7h-41.7l-18,11.6C449.4,137.2,449.3,137.2,449.2,137.2z"/>
				</g>
				<g>
					<path class="st4" d="M506.4,98.1H495c-0.3,0-0.6-0.3-0.6-0.6s0.3-0.6,0.6-0.6h11.4c0.3,0,0.6,0.3,0.6,0.6
						S506.8,98.1,506.4,98.1z"/>
				</g>
				<g>
					<path class="st4" d="M481.3,98.1h-18.5c-0.3,0-0.6-0.3-0.6-0.6s0.3-0.6,0.6-0.6h18.5c0.3,0,0.6,0.3,0.6,0.6
						S481.6,98.1,481.3,98.1z"/>
				</g>
				<g>
					<path class="st4" d="M506.4,109.8h-43.6c-0.3,0-0.6-0.3-0.6-0.6s0.3-0.6,0.6-0.6h43.6c0.3,0,0.6,0.3,0.6,0.6
						S506.8,109.8,506.4,109.8z"/>
				</g>
			</g>
			<path class="st4" d="M230.9,218.1c0.5,0.1,0.8,0.3,0.5,2.1c-0.4,2-1,2.2-1.4,2.1c-0.4-0.1-0.7-0.8-0.3-2.2
				C230,218.7,230.2,218.1,230.9,218.1z"/>
			<path class="st4" d="M243.6,221.6c0.5,0.1,0.8,0.4,0.4,2.1c-0.4,2-1,2.2-1.4,2c-0.4-0.1-0.7-0.9-0.3-2.2
				C242.7,222.2,242.9,221.6,243.6,221.6z"/>
			<g>
				<path class="st4" d="M221.6,272.4c-10.4,0-16.7-10.5-18.3-20.8c0-0.1,0-0.2,0-0.3l7-22.9c0.1-0.3,0.4-0.5,0.8-0.4
					c0.3,0.1,0.5,0.4,0.4,0.8l-6.9,22.8c1.2,7.4,6,19.6,17,19.6c5.5,0,7.7-11.1,7.7-11.2l4-11.7c0.1-0.3,0.5-0.5,0.8-0.4
					c0.3,0.1,0.5,0.5,0.4,0.8l-4,11.6C230.5,260.7,228.2,272.3,221.6,272.4C221.7,272.4,221.7,272.4,221.6,272.4z"/>
			</g>
			<g>
				<path class="st4" d="M234.6,249.1c-1.9,0-3.9-0.5-5.8-1c-0.4-0.1-0.9-0.2-1.3-0.3c-3.1-0.8-5.6-1.7-7.8-2.8
					c-2.1-1-4.4-2.2-5.4-4.8c-1-2.6-0.6-5.5-0.1-7.8c0.3-1.6,0.7-3,1.2-4.3c1.1-2.9,2.7-7.2,3-8.1c-0.2-1.1-0.6-2.2-1.3-3.2
					c-2.3-3.1-6.6-3.7-9.7-1.4c-3.1,2.3-3.7,6.6-1.4,9.7c1.9,2.6,5.4,3.5,8.3,2.2c0.3-0.1,0.7,0,0.8,0.3c0.1,0.3,0,0.7-0.3,0.8
					c-3.5,1.5-7.5,0.5-9.8-2.6c-2.7-3.6-2-8.7,1.7-11.4c3.6-2.7,8.8-2,11.5,1.7c0.9,1.1,1.4,2.5,1.6,3.9c0,0.1,0,0.2,0,0.3
					c0,0-1.8,5-3.1,8.2c-0.4,1.2-0.8,2.6-1.1,4.1c-0.4,2.1-0.8,4.9,0.1,7.1c0.8,2.1,2.8,3.1,4.7,4.1c2.1,1.1,4.5,1.9,7.5,2.7
					c0.4,0.1,0.9,0.2,1.3,0.4c3.5,0.9,7.2,1.9,10-0.7c2.7-2.5,3.7-6.4,4.6-10.1c0.2-0.8,0.4-1.7,0.6-2.4c0.7-2.5,4.5-19.6,4.5-19.7
					c0.1-0.3,0.4-0.5,0.7-0.5c0.3,0.1,0.6,0.4,0.5,0.7c-0.2,0.7-3.8,17.3-4.5,19.8c-0.2,0.8-0.4,1.6-0.6,2.4c-0.9,3.8-2,8-5,10.8
					C238.3,248.6,236.5,249.1,234.6,249.1z"/>
			</g>
			<g>
				<path class="st4" d="M247.9,220.3c-0.3,0-0.6-0.2-0.6-0.5c0-0.1-0.6-2.4-4-2.4c-0.5,0-0.7-0.3-0.7-0.6c0-0.4,0.3-0.6,0.7-0.6
					c4.5,0,5.2,3.3,5.2,3.4c0.1,0.3-0.2,0.7-0.5,0.7C248,220.3,248,220.3,247.9,220.3z"/>
			</g>
			<g>
				<path class="st4" d="M227.8,215.6c-0.2,0-0.4-0.1-0.5-0.2c-0.2-0.3-0.2-0.7,0.1-0.9c4.6-3.6,7.9-0.3,7.9-0.3
					c0.2,0.2,0.2,0.6,0,0.9c-0.2,0.2-0.6,0.2-0.9,0c-0.1-0.1-2.5-2.5-6.2,0.4C228.1,215.6,228,215.6,227.8,215.6z"/>
			</g>
			<g>
				<path class="st4" d="M247.8,222.6c-0.2,0-0.4-0.1-0.5-0.3c-0.2-0.3-0.1-0.7,0.2-0.9c0.1,0,6.9-4.8,7.8-11.8
					c0.5-3.8-0.9-7.7-4.1-11.4c-3.5-4-7.3-6.2-11.5-6.5c-6.6-0.5-11.7,4-11.7,4c-0.2,0.2-0.6,0.2-0.8,0c-0.2-0.2-4.9-4.3-13.9-0.8
					c-8.9,3.4-5,19.3-4.9,19.4c0.1,0.3-0.1,0.7-0.5,0.8c-0.3,0.1-0.7-0.1-0.8-0.5c-0.2-0.7-4.2-17.1,5.7-20.9
					c8.3-3.2,13.3-0.3,14.8,0.7c1.4-1.1,6.2-4.4,12.2-4c4.5,0.3,8.7,2.6,12.3,6.9c3.4,4,4.9,8.2,4.4,12.4c-1,7.6-8.1,12.5-8.4,12.7
					C248,222.5,247.9,222.6,247.8,222.6z"/>
			</g>
			<g>
				<g>
					<path class="st4" d="M229.4,240.7c-2.1,0-4.1-0.9-5.5-2.6c-1.4-1.7-1.9-4-1.3-6.3c0.4-1.5,1.1-2.7,2.1-3.1
						c0.9-0.4,1.7-0.3,2.5,0.2c0.9,0.6,1.4,1.8,1.3,3.2c-0.1,1.7,0,1.8,0.3,2.2c0.3,0.3,0.4,0.5,2.1,0.7c1.3,0.2,2.4,0.9,2.9,1.9
						c0.4,0.8,0.3,1.7-0.3,2.4c-0.6,0.9-2,1.5-3.6,1.6C229.7,240.7,229.6,240.7,229.4,240.7z M225.8,229.7c-0.2,0-0.4,0-0.6,0.1
						c-0.5,0.2-1,1-1.3,2.3c-0.5,1.9-0.1,3.9,1.1,5.3c1.7,2.1,3.9,2.2,4.8,2.2c1.4-0.1,2.3-0.6,2.6-1c0.3-0.4,0.3-0.8,0.2-1.2
						c-0.3-0.6-1-1-1.9-1.1c-1.9-0.2-2.3-0.5-2.9-1.1c-0.5-0.6-0.7-1-0.6-3c0.1-0.9-0.2-1.7-0.8-2
						C226.2,229.7,226,229.7,225.8,229.7z"/>
				</g>
			</g>
			<g>
				<path class="st4" d="M225,239c-0.2,0-0.3-0.1-0.4-0.2c-0.3-0.2-0.3-0.6,0-0.9c3.3-3.5-0.8-7.4-0.9-7.5c-0.3-0.2-0.3-0.6,0-0.9
					c0.2-0.2,0.6-0.3,0.9,0c1.8,1.7,4.3,5.8,1,9.3C225.4,238.9,225.2,239,225,239z"/>
			</g>
			<g>
				<path class="st4" d="M208.3,224.9c-0.3,0-0.5-0.2-0.6-0.5c-0.1-0.3,0.1-0.7,0.5-0.7l5.6-1.2l-3.4-5.8c-0.2-0.3-0.1-0.7,0.2-0.9
					c0.3-0.2,0.7-0.1,0.9,0.2l3.9,6.6c0.1,0.2,0.1,0.4,0,0.6c-0.1,0.2-0.2,0.3-0.4,0.4l-6.4,1.4
					C208.4,224.9,208.3,224.9,208.3,224.9z"/>
			</g>
			<g>
				<path class="st4" d="M229.6,200.5c-0.2,0-0.5-0.1-0.6-0.4l-2.1-4.4c-0.1-0.3,0-0.7,0.3-0.8c0.3-0.1,0.7,0,0.8,0.3l2.1,4.4
					c0.1,0.3,0,0.7-0.3,0.8C229.8,200.5,229.7,200.5,229.6,200.5z"/>
			</g>
			<g>
				<path class="st4" d="M231.6,231c-0.2,0-0.4-0.1-0.5-0.3c-1.1-1.7-4.2-2.8-6.5-3.6c-0.9-0.3-1.8-0.6-2.3-0.9
					c-1.8-1-1.2-7.9-0.8-10.8c0-0.2,0.1-0.4,0.3-0.5c6.9-4.4,9.1-12,9.1-12c0.1-0.2,0.3-0.4,0.5-0.5c0.3-0.1,0.5,0.1,0.6,0.3
					c0.1,0.1,5.4,10.4,18.5,10.4c0.1,0,0.3,0,0.4,0c0.3,0,0.6,0.3,0.6,0.6c0,0.3-0.3,0.6-0.6,0.6c-0.1,0-0.3,0-0.4,0
					c-11.2,0-17-7.1-18.9-9.9c-0.9,2.4-3.5,7.7-8.9,11.3c-0.5,4.6-0.5,8.9,0.2,9.3c0.4,0.2,1.2,0.5,2.1,0.8c2.5,0.9,5.8,2.1,7.1,4.1
					c0.2,0.3,0.1,0.7-0.2,0.9C231.8,231,231.7,231,231.6,231z"/>
			</g>
			<g>
				<path class="st4" d="M244.5,236c-0.2,0-0.3-0.1-0.5-0.2c-1.5-1.6-4.2-1.6-4.2-1.6c-0.3,0-0.6-0.3-0.6-0.6c0-0.3,0.3-0.6,0.6-0.6
					c0.2,0,3.3,0,5.1,2c0.2,0.2,0.2,0.6,0,0.9C244.8,235.9,244.7,236,244.5,236z"/>
			</g>
			<g>
				<path class="st4" d="M298.5,344c-0.2,0-0.4-0.1-0.5-0.2l-8.2-10c0-0.1-0.1-0.1-0.1-0.2c-1.1-3.2-1-6.5,0.1-9.7l24.4-70.5
					c2.2-6.4,8.5-10.7,15.5-10.7h102.9c1.8,0,3.6,0.3,5.3,0.8c0.2,0.1,9.6,6.9,9.6,6.9c0.3,0.2,0.3,0.6,0.1,0.9
					c-0.2,0.3-0.6,0.3-0.9,0.1l-9.3-6.7c-1.5-0.5-3.1-0.7-4.8-0.7H329.7c-6.5,0-12.3,4-14.3,9.9L291,324.2c-1,2.9-1,5.9-0.1,8.8
					l8.1,9.9c0.2,0.3,0.2,0.7-0.1,0.9C298.8,343.9,298.6,344,298.5,344z"/>
			</g>
			<g>
				<path class="st4" d="M412.9,348.7H309.9c-5.4,0-10.5-2.6-13.5-6.8c-2.9-4.1-3.6-9.1-2-13.8l24.4-70.5
					c2.2-6.4,8.5-10.7,15.5-10.7h102.9c5.4,0,10.5,2.6,13.5,6.8c2.9,4.1,3.6,9.1,2,13.8l-24.4,70.5
					C426.2,344.4,419.9,348.7,412.9,348.7z M334.4,248.1c-6.5,0-12.3,4-14.3,9.9l-24.4,70.5c-1.5,4.3-0.8,8.9,1.8,12.6
					c2.8,4,7.5,6.3,12.5,6.3h102.9c6.5,0,12.3-4,14.3-9.9l24.4-70.5c1.5-4.3,0.8-8.9-1.8-12.6c-2.8-4-7.5-6.3-12.5-6.3H334.4z"/>
			</g>
			<g>
				<path class="st4" d="M526.3,310.5h-88.8c-0.3,0-0.6-0.3-0.6-0.6s0.3-0.6,0.6-0.6h88.8c0.3,0,0.6,0.3,0.6,0.6
					S526.7,310.5,526.3,310.5z"/>
			</g>
			<g>
				<path class="st4" d="M101.6,310.5H0.6c-0.3,0-0.6-0.3-0.6-0.6s0.3-0.6,0.6-0.6h101c0.3,0,0.6,0.3,0.6,0.6S102,310.5,101.6,310.5
					z"/>
			</g>
			<g>
				<path class="st4" d="M224.1,310.5h-11c-0.3,0-0.6-0.3-0.6-0.6s0.3-0.6,0.6-0.6h11c0.3,0,0.6,0.3,0.6,0.6
					S224.4,310.5,224.1,310.5z"/>
			</g>
			<g>
				<g>
					<path class="st4" d="M3.5,232.5c1.5,0,2.7-1.2,2.7-2.7c0-1.5-1.2-2.7-2.7-2.7c-1.5,0-2.7,1.2-2.7,2.7
						C0.8,231.2,2,232.5,3.5,232.5z"/>
					<path class="st4" d="M24.7,232.6c1.6,0,2.9-1.3,2.9-2.9c0-1.6-1.3-2.9-2.9-2.9s-2.9,1.3-2.9,2.9
						C21.8,231.3,23.1,232.6,24.7,232.6z"/>
					<path class="st4" d="M45.9,232.4c1.5,0,2.7-1.2,2.7-2.7c0-1.5-1.2-2.7-2.7-2.7c-1.5,0-2.7,1.2-2.7,2.7
						C43.2,231.2,44.4,232.4,45.9,232.4z"/>
					<path class="st4" d="M3.5,253.8c1.6,0,2.9-1.3,2.9-2.9c0-1.6-1.3-2.9-2.9-2.9c-1.6,0-2.9,1.3-2.9,2.9
						C0.6,252.5,1.9,253.8,3.5,253.8z"/>
					<path class="st4" d="M24.7,253.9c1.7,0,3-1.3,3-3c0-1.7-1.3-3-3-3s-3,1.3-3,3C21.7,252.6,23,253.9,24.7,253.9z"/>
					<path class="st4" d="M45.9,253.7c1.5,0,2.8-1.3,2.8-2.8c0-1.5-1.3-2.8-2.8-2.8c-1.5,0-2.8,1.3-2.8,2.8
						C43.1,252.5,44.3,253.7,45.9,253.7z"/>
					<path class="st4" d="M3.5,274.8c1.5,0,2.7-1.2,2.7-2.7c0-1.5-1.2-2.7-2.7-2.7c-1.5,0-2.7,1.2-2.7,2.7
						C0.8,273.6,2,274.8,3.5,274.8z"/>
					<path class="st4" d="M24.7,274.9c1.5,0,2.8-1.3,2.8-2.8c0-1.5-1.3-2.8-2.8-2.8s-2.8,1.3-2.8,2.8
						C21.9,273.7,23.1,274.9,24.7,274.9z"/>
					<path class="st4" d="M45.9,274.7c1.4,0,2.6-1.2,2.6-2.6s-1.2-2.6-2.6-2.6s-2.6,1.2-2.6,2.6S44.4,274.7,45.9,274.7z"/>
				</g>
			</g>
			<g>
				<path class="st4" d="M478,74.6c-0.4,0-0.6-0.3-0.6-0.7c0,0,0-0.8,0-2.2c0-0.4,0-0.9,0-1.4c0-0.3,0.3-0.6,0.6-0.6
					c0.4,0,0.6,0.3,0.6,0.6c0,0.5,0,1,0,1.4c0,1.5,0,2.3,0,2.3C478.6,74.3,478.3,74.6,478,74.6z M477.5,63.7c-0.3,0-0.6-0.2-0.6-0.6
					c-0.3-2.4-0.6-4.7-1.1-7.1c-0.1-0.3,0.2-0.7,0.5-0.7c0.3-0.1,0.7,0.2,0.7,0.5c0.5,2.4,0.8,4.8,1.1,7.2
					C478.2,63.4,477.9,63.7,477.5,63.7C477.6,63.7,477.5,63.7,477.5,63.7z M474.8,49.6c-0.3,0-0.5-0.2-0.6-0.5
					c-0.7-2.3-1.4-4.6-2.3-6.8c-0.1-0.3,0-0.7,0.4-0.8c0.3-0.1,0.7,0,0.8,0.4c0.9,2.2,1.6,4.5,2.3,6.9c0.1,0.3-0.1,0.7-0.4,0.8
					C474.9,49.6,474.9,49.6,474.8,49.6z M328.8,39.7c-0.1,0-0.3,0-0.4-0.1c-0.3-0.2-0.3-0.6-0.1-0.9c0.1-0.1,1.7-2.2,4.8-5.5
					c0.2-0.2,0.6-0.3,0.9,0c0.2,0.2,0.3,0.6,0,0.9c-3,3.2-4.7,5.4-4.7,5.4C329.2,39.6,329,39.7,328.8,39.7z M469.6,36.2
					c-0.2,0-0.4-0.1-0.6-0.3c-1.1-2.1-2.3-4.2-3.6-6.2c-0.2-0.3-0.1-0.7,0.2-0.9c0.3-0.2,0.7-0.1,0.9,0.2c1.3,2,2.5,4.1,3.6,6.3
					c0.2,0.3,0,0.7-0.3,0.8C469.8,36.1,469.7,36.2,469.6,36.2z M338.7,29.1c-0.2,0-0.3-0.1-0.5-0.2c-0.2-0.3-0.2-0.6,0-0.9
					c1.8-1.6,3.6-3.2,5.5-4.8c0.3-0.2,0.7-0.2,0.9,0.1c0.2,0.3,0.2,0.7-0.1,0.9c-1.8,1.5-3.7,3.1-5.4,4.7
					C339,29.1,338.8,29.1,338.7,29.1z M461.7,24.2c-0.2,0-0.4-0.1-0.5-0.2c-1.5-1.8-3.2-3.5-4.9-5.2c-0.3-0.2-0.3-0.6,0-0.9
					c0.2-0.3,0.6-0.3,0.9,0c1.8,1.6,3.5,3.4,5,5.3c0.2,0.3,0.2,0.7-0.1,0.9C462,24.1,461.8,24.2,461.7,24.2z M349.8,20
					c-0.2,0-0.4-0.1-0.5-0.3c-0.2-0.3-0.1-0.7,0.1-0.9c2-1.4,4-2.8,6-4c0.3-0.2,0.7-0.1,0.9,0.2c0.2,0.3,0.1,0.7-0.2,0.9
					c-2,1.2-4,2.6-6,4C350.1,20,350,20,349.8,20z M451.2,14.4c-0.1,0-0.3,0-0.4-0.1c-1.9-1.4-3.9-2.6-6-3.8
					c-0.3-0.2-0.4-0.5-0.2-0.9c0.2-0.3,0.5-0.4,0.9-0.2c2.1,1.2,4.2,2.5,6.1,3.9c0.3,0.2,0.3,0.6,0.1,0.9
					C451.6,14.3,451.4,14.4,451.2,14.4z M362.1,12.4c-0.2,0-0.4-0.1-0.6-0.3c-0.2-0.3,0-0.7,0.3-0.8c2.2-1.1,4.4-2.2,6.5-3.2
					c0.3-0.1,0.7,0,0.8,0.3c0.1,0.3,0,0.7-0.3,0.8c-2.1,0.9-4.3,2-6.4,3.1C362.3,12.4,362.2,12.4,362.1,12.4z M438.6,7.4
					c-0.1,0-0.2,0-0.2,0c-2.1-0.9-4.4-1.7-6.7-2.4c-0.3-0.1-0.5-0.5-0.4-0.8c0.1-0.3,0.5-0.5,0.8-0.4c2.4,0.7,4.7,1.5,6.8,2.4
					c0.3,0.1,0.5,0.5,0.3,0.8C439.1,7.3,438.9,7.4,438.6,7.4z M375.2,6.6c-0.3,0-0.5-0.2-0.6-0.4c-0.1-0.3,0.1-0.7,0.4-0.8
					c2.3-0.8,4.6-1.6,6.9-2.2c0.3-0.1,0.7,0.1,0.8,0.4c0.1,0.3-0.1,0.7-0.4,0.8c-2.3,0.6-4.6,1.3-6.8,2.1
					C375.4,6.5,375.3,6.6,375.2,6.6z M424.9,3.3c-2.5-0.5-4.8-0.9-7.2-1.2c-0.3,0-0.6-0.4-0.5-0.7c0-0.3,0.4-0.6,0.7-0.5
					c2.4,0.3,4.8,0.7,7.1,1.2c0.3,0.1,0.6,0.4,0.5,0.7C425.4,3.1,425.2,3.3,424.9,3.3z M389.1,2.8c-0.3,0-0.6-0.2-0.6-0.5
					c-0.1-0.3,0.2-0.7,0.5-0.7c2.4-0.4,4.8-0.8,7.2-1c0.4-0.1,0.7,0.2,0.7,0.6c0,0.3-0.2,0.6-0.6,0.7c-2.4,0.3-4.7,0.6-7.1,1
					C389.2,2.8,389.1,2.8,389.1,2.8z M410.6,1.4c-2.4-0.1-4.8-0.2-7.2-0.1c-0.4,0-0.6-0.3-0.6-0.6c0-0.3,0.3-0.6,0.6-0.6
					c2.4-0.1,4.9,0,7.3,0.1c0.3,0,0.6,0.3,0.6,0.7C411.2,1.1,410.9,1.4,410.6,1.4z"/>
			</g>
			<g>
				<g>
					<path class="st4" d="M122.9,265.9H85.3c-14.1,0-25.5-11.5-25.5-25.5V162c0-14.1,11.5-25.5,25.5-25.5h38.5
						c0.3,0,0.6,0.3,0.6,0.6c0,0.3-0.3,0.6-0.6,0.6H85.3C71.9,137.7,61,148.6,61,162v78.3c0,13.4,10.9,24.3,24.3,24.3h37.6
						c0.3,0,0.6,0.3,0.6,0.6S123.2,265.9,122.9,265.9z M231.2,182c-0.3,0-0.6-0.3-0.6-0.6V162c0-13.4-10.9-24.3-24.3-24.3h-42
						c-0.3,0-0.6-0.3-0.6-0.6c0-0.3,0.3-0.6,0.6-0.6h42c14.1,0,25.5,11.5,25.5,25.5v19.4C231.8,181.8,231.5,182,231.2,182z"/>
				</g>
			</g>
			<g>
				<path class="st4" d="M236.6,234.2c-0.3,0-0.5-0.2-0.6-0.4c-0.1-0.3,0-0.7,0.4-0.8c2.9-1.1,2.7-1.6,2-3.8
					c-0.1-0.4-0.2-0.7-0.4-1.2c-0.9-3.1,0.6-8.6,0.6-8.9c0.1-0.3,0.4-0.5,0.8-0.4c0.3,0.1,0.5,0.4,0.4,0.8c0,0.1-1.4,5.4-0.6,8.2
					c0.1,0.4,0.2,0.8,0.4,1.1c0.8,2.4,1.1,3.9-2.8,5.3C236.8,234.2,236.7,234.2,236.6,234.2z"/>
			</g>
			<g>
				<path class="st4" d="M375.7,307.9c-1,0-2.1-0.2-2.9-0.8c-3.9-2.2-4.3-8.7-1-14.4c1.6-2.7,3.8-4.9,6.2-6.1
					c2.5-1.2,4.9-1.3,6.8-0.2c1.9,1.1,3.1,3.2,3.2,6c0.2,2.7-0.6,5.7-2.2,8.4C383.2,305.2,379.2,307.9,375.7,307.9z M372.8,293.4
					c-3,5.1-2.7,10.8,0.6,12.7c3.3,1.9,8.3-0.8,11.3-5.9c1.5-2.5,2.2-5.3,2-7.7c-0.1-2.3-1.1-4.1-2.6-5c-1.5-0.9-3.5-0.8-5.6,0.3
					C376.3,288.8,374.3,290.8,372.8,293.4z"/>
			</g>
			<g>
				<path class="st4" d="M88.7,138.6c-0.3,0-0.5-0.2-0.6-0.5c0-0.1-0.6-2.8-1.1-7.2c0-0.3,0.2-0.6,0.6-0.7c0.3,0,0.7,0.2,0.7,0.6
					c0.4,4.3,1,7,1,7c0.1,0.3-0.1,0.7-0.5,0.8C88.8,138.6,88.8,138.6,88.7,138.6z M87.3,124.2c-0.3,0-0.6-0.3-0.6-0.6l0-1.1
					c0-2.1,0.1-4.2,0.2-6.2c0-0.3,0.3-0.6,0.7-0.6c0.3,0,0.6,0.3,0.6,0.7c-0.1,2-0.2,4.1-0.2,6.1l0,1
					C87.9,124,87.7,124.2,87.3,124.2C87.3,124.2,87.3,124.2,87.3,124.2z M88.4,109.9c-0.4-0.1-0.7-0.4-0.6-0.7
					c0.4-2.4,0.9-4.8,1.5-7.1c0.1-0.3,0.4-0.5,0.8-0.4c0.3,0.1,0.5,0.4,0.4,0.8c-0.6,2.3-1.1,4.6-1.5,7
					C88.9,109.7,88.7,109.9,88.4,109.9z M92.1,96c-0.1,0-0.1,0-0.2,0c-0.3-0.1-0.5-0.5-0.4-0.8c0.9-2.3,1.9-4.5,3-6.6
					c0.2-0.3,0.5-0.4,0.8-0.3c0.3,0.2,0.4,0.5,0.3,0.8c-1.1,2.1-2.1,4.2-2.9,6.5C92.6,95.8,92.3,96,92.1,96z M98.7,83.3
					c-0.1,0-0.2,0-0.4-0.1c-0.3-0.2-0.4-0.6-0.2-0.9c1.4-2,2.9-3.9,4.5-5.7c0.2-0.2,0.6-0.3,0.9-0.1c0.3,0.2,0.3,0.6,0.1,0.9
					c-1.6,1.8-3,3.7-4.4,5.6C99.1,83.2,98.9,83.3,98.7,83.3z M108.2,72.5c-0.2,0-0.3-0.1-0.5-0.2c-0.2-0.3-0.2-0.7,0.1-0.9
					c0.8-0.8,1.7-1.5,2.6-2.2c1-0.8,2-1.6,3-2.3c0.3-0.2,0.7-0.1,0.9,0.1c0.2,0.3,0.1,0.7-0.1,0.9c-1,0.7-2,1.5-3,2.3
					c-0.9,0.7-1.8,1.4-2.6,2.2C108.5,72.4,108.4,72.5,108.2,72.5z M119.9,64.1c-0.2,0-0.4-0.1-0.5-0.3c-0.2-0.3-0.1-0.7,0.2-0.9
					c2.1-1.2,4.3-2.3,6.5-3.3c0.3-0.1,0.7,0,0.8,0.3c0.1,0.3,0,0.7-0.3,0.8c-2.2,1-4.3,2.1-6.3,3.2C120.1,64,120,64.1,119.9,64.1z
					 M182.5,59.7c-0.1,0-0.1,0-0.2,0c-1.4-0.5-3.8-1.3-6.8-2.2c-0.3-0.1-0.5-0.4-0.4-0.8c0.1-0.3,0.4-0.5,0.8-0.4
					c3.1,0.8,5.5,1.6,6.9,2.2c0.3,0.1,0.5,0.5,0.4,0.8C183,59.5,182.8,59.7,182.5,59.7z M133,58.2c-0.3,0-0.5-0.2-0.6-0.4
					c-0.1-0.3,0.1-0.7,0.4-0.8c2.3-0.7,4.7-1.4,7-1.9c0.3-0.1,0.7,0.1,0.7,0.5c0.1,0.3-0.1,0.7-0.5,0.7c-2.3,0.5-4.6,1.1-6.9,1.9
					C133.1,58.2,133.1,58.2,133,58.2z M168.6,56c-2.4-0.4-4.8-0.7-7.2-0.9c-0.3,0-0.6-0.3-0.6-0.7c0-0.3,0.3-0.6,0.6-0.6
					c2.5,0.2,4.9,0.5,7.2,0.9c0.3,0.1,0.6,0.4,0.5,0.7C169.2,55.7,168.9,56,168.6,56z M147.1,55.2c-0.3,0-0.6-0.2-0.6-0.6
					c0-0.3,0.2-0.7,0.6-0.7c2.4-0.3,4.8-0.4,7.3-0.4c0.3,0,0.6,0.3,0.6,0.6c0,0.3-0.3,0.6-0.6,0.6C151.9,54.8,149.5,54.9,147.1,55.2
					C147.1,55.2,147.1,55.2,147.1,55.2z"/>
			</g>
			<g>
				<path class="st4" d="M415,243.1c-0.3,0-0.6-0.3-0.6-0.6v-26.3c0-0.3,0.3-0.6,0.6-0.6c0.3,0,0.6,0.3,0.6,0.6v26.3
					C415.6,242.8,415.3,243.1,415,243.1z"/>
			</g>
			<g>
				<path class="st4" d="M381.7,223.1c-0.3,0-0.6-0.3-0.6-0.6v-6.2c0-0.3,0.3-0.6,0.6-0.6c0.3,0,0.6,0.3,0.6,0.6v6.2
					C382.3,222.8,382,223.1,381.7,223.1z"/>
			</g>
			<g>
				<path class="st4" d="M381.7,225.5c-0.3,0-0.6-0.3-0.6-0.6v-2.5c0-0.3,0.3-0.6,0.6-0.6c0.3,0,0.6,0.3,0.6,0.6v2.5
					C382.3,225.3,382,225.5,381.7,225.5z"/>
			</g>
			<g>
				<path class="st4" d="M398.3,219.8c-0.7,0-17.3,0-17.3-3.4s16.6-3.4,17.3-3.4c0.7,0,17.3,0,17.3,3.4S399,219.8,398.3,219.8z
					 M382.3,216.5c0.6,0.8,6.2,2.1,16,2.1c10,0,15.6-1.4,16-2.2c-0.4-0.7-6.1-2.1-16-2.1C388.5,214.3,382.9,215.7,382.3,216.5z"/>
			</g>
			<g>
				<path class="st4" d="M400.7,234.6c-0.3,0-0.5-0.2-0.6-0.4c-0.1-0.3,0.1-0.7,0.4-0.8c0.2-0.1,0.4-0.4,0.5-1
					c0.5-2,0.3-5.4-2.4-6.3c-1-0.4-2.3-0.3-3.4-0.1c-3,0.3-5.9,0.4-8.8,0.3l-0.4,0c-1.7-0.1-3.5-0.1-5.2-0.7
					c-0.3-0.1-0.5-0.5-0.4-0.8c0.1-0.3,0.5-0.5,0.8-0.4c1.5,0.5,3.1,0.6,4.8,0.7l0.4,0c2.8,0.1,5.7,0,8.4-0.3
					c1.5-0.2,2.8-0.3,4.2,0.2c3,1.1,3.9,4.8,3.2,7.8c-0.1,0.4-0.4,1.5-1.3,1.8C400.8,234.6,400.7,234.6,400.7,234.6z"/>
			</g>
			<g>
				<path class="st4" d="M401.5,243.6c-0.2,0-0.4-0.1-0.5-0.3c-0.2-0.3-0.2-0.7,0.1-0.9c0.2-0.2,0.5-0.4,0.6-0.6
					c1.1-1.5,1.5-3.5,1-5.2c-0.3-0.8-0.7-1.5-1.3-1.8c-0.4-0.2-0.6-0.2-1.2,0l-0.2,0.1c-1.2,0.4-2.6,0.7-4.3,0.9
					c-4.8,0.6-9.5,0.4-15.3-0.5c-0.3-0.1-0.6-0.4-0.5-0.7c0.1-0.3,0.4-0.6,0.7-0.5c5.6,0.9,10.3,1.1,14.9,0.5
					c1.6-0.2,2.9-0.5,4.1-0.9l0.2-0.1c0.6-0.2,1.3-0.5,2.2,0.1c1.1,0.6,1.7,1.9,1.9,2.5c0.6,2.1,0.2,4.5-1.2,6.3
					c-0.3,0.3-0.6,0.6-0.9,0.9C401.7,243.6,401.6,243.6,401.5,243.6z"/>
			</g>
			<g>
				<path class="st4" d="M378.4,222.2c-0.4-0.1-29.2-6-54.3-0.4c-0.4,0.1-0.7-0.1-0.7-0.5c-0.1-0.3,0.1-0.7,0.5-0.7
					c25.3-5.7,54.4,0.3,54.7,0.3c0.3,0.1,0.6,0.4,0.5,0.7C379,222,378.7,222.2,378.4,222.2z"/>
			</g>
			<g>
				<path class="st4" d="M371.4,243.1c-0.3,0-0.6-0.3-0.6-0.6c0-10.4,2.4-18.1,6.7-21c1.3-0.9,3.9-1.8,4-1.8
					c0.3-0.1,0.7,0.1,0.8,0.4c0.1,0.3-0.1,0.7-0.4,0.8c0,0-2.6,0.9-3.7,1.7c-3.9,2.7-6.2,10-6.2,20
					C372,242.8,371.7,243.1,371.4,243.1z"/>
			</g>
			<g>
				<path class="st4" d="M431.8,243.8c-0.3,0-0.5-0.2-0.6-0.5c-11.7-42.5-7.4-64.9-7.4-65.1c0.1-0.3,0.4-0.5,0.7-0.5
					c0.3,0.1,0.6,0.4,0.5,0.7c0,0.2-4.3,22.3,7.3,64.5c0.1,0.3-0.1,0.7-0.4,0.8C431.9,243.8,431.9,243.8,431.8,243.8z"/>
			</g>
			<path class="st4" d="M394.9,111.6c-0.5-0.1-0.8,0.1-1,1.9c-0.2,2,0.4,2.4,0.8,2.3c0.5,0,0.9-0.6,0.9-2.1
				C395.6,112.4,395.5,111.7,394.9,111.6z"/>
			<path class="st4" d="M380.3,111.8c-0.5-0.1-0.8,0.2-0.9,2c-0.1,2,0.4,2.4,0.9,2.3c0.4,0,0.9-0.7,0.8-2.1
				C381,112.6,380.9,111.9,380.3,111.8z"/>
			<g>
				<path class="st4" d="M409.3,144.4c-0.3,0-0.6-0.3-0.6-0.6l-0.9-18c0-0.3,0.3-0.6,0.6-0.7c0.4,0,0.6,0.2,0.7,0.6l0.9,18
					C409.9,144,409.6,144.3,409.3,144.4C409.3,144.4,409.3,144.4,409.3,144.4z"/>
			</g>
			<g>
				<path class="st4" d="M386.7,141c-3.3,0-6.8-0.4-9-3.7c-2.2-3.4-2.2-7.8-2.2-11.6c0-0.9,0-1.7,0-2.5c-0.1-2.6,0.3-19.6,0.4-20.3
					c0-0.3,0.2-0.7,0.6-0.6c0.3,0,0.6,0.3,0.6,0.6c0,0.2-0.4,17.6-0.4,20.2c0,0.8,0,1.7,0,2.5c0,3.9,0,7.9,2,10.9
					c2.1,3.2,5.9,3.2,9.5,3.1c0.5,0,0.9,0,1.4,0c3.1,0,5.6-0.3,7.9-0.8c0.3-0.1,0.7,0.1,0.7,0.5c0.1,0.3-0.1,0.7-0.5,0.7
					c-2.4,0.5-5,0.8-8.2,0.8c-0.5,0-0.9,0-1.4,0C387.7,141,387.2,141,386.7,141z"/>
			</g>
			<g>
				<path class="st4" d="M411.5,127c-1.8,0-3.5-0.6-5-1.7c-0.3-0.2-0.3-0.6-0.1-0.9c0.2-0.3,0.6-0.3,0.9-0.1c2.6,2,6.1,1.9,8.6-0.1
					c2.9-2.4,3.4-6.8,1-9.8c-2.4-2.9-6.8-3.4-9.7-1c-0.9,0.8-1.7,1.8-2.1,2.9c-0.1,0.3-0.5,0.5-0.8,0.4c-0.3-0.1-0.5-0.5-0.4-0.8
					c0.5-1.3,1.4-2.5,2.5-3.4c3.5-2.9,8.6-2.4,11.5,1.1c2.9,3.5,2.4,8.7-1.1,11.5C415.2,126.4,413.3,127,411.5,127z"/>
			</g>
			<g>
				<path class="st4" d="M376.5,109.5c-0.1,0-0.2,0-0.3-0.1c-0.3-0.1-0.5-0.5-0.3-0.8c0,0,1.5-3.2,6-2c0.3,0.1,0.5,0.4,0.4,0.8
					c-0.1,0.3-0.4,0.6-0.8,0.4c-3.5-0.9-4.5,1.3-4.5,1.3C377,109.4,376.7,109.5,376.5,109.5z"/>
			</g>
			<g>
				<path class="st4" d="M398.1,109.8c-0.2,0-0.4-0.1-0.5-0.2c-2.9-3.7-5.8-2-5.9-1.9c-0.3,0.2-0.7,0.1-0.9-0.2
					c-0.2-0.3-0.1-0.7,0.2-0.9c0,0,4-2.5,7.6,2.2c0.2,0.3,0.2,0.7-0.1,0.9C398.3,109.8,398.2,109.8,398.1,109.8z"/>
			</g>
			<g>
				<path class="st4" d="M385,144.2c-0.3,0-0.6-0.3-0.6-0.6v-3.3c0-0.3,0.3-0.6,0.6-0.6c0.3,0,0.6,0.3,0.6,0.6v3.3
					C385.7,144,385.4,144.2,385,144.2z"/>
			</g>
			<g>
				<path class="st4" d="M416.9,113.7c-0.2,0-0.5-0.1-0.6-0.4c-0.1-0.3,0-0.7,0.4-0.8c0,0,1.9-1.3,3-11.4c0.7-6.2-3.1-9.8-5.7-10.6
					c-5.2-1.6-11.7-0.9-11.8-0.9c-0.3,0-0.5-0.1-0.6-0.3c-3.5-7-8.1-9.6-11.4-10.6c-3.6-1.1-7.4-0.6-10.7,1.3
					c-3.4,2-5.5,4.6-6.3,7.6c-1.2,4.9,1.5,9.4,1.5,9.5c0.1,0.2,0.1,0.5-0.1,0.7c-0.2,0.2-0.5,0.3-0.7,0.2c-0.9-0.4-1.6,0.8-1.8,1.2
					c-1.4,2.8-1,8.3,4.3,11.2c0.3,0.2,0.4,0.5,0.2,0.9c-0.2,0.3-0.6,0.4-0.9,0.2c-6-3.4-6.4-9.7-4.8-12.9c0.5-1.1,1.3-1.8,2.1-1.9
					c-0.8-1.7-2.1-5.4-1.1-9.4c0.8-3.4,3.2-6.2,6.9-8.4c3.6-2.1,7.7-2.6,11.7-1.5c3.4,1,8.2,3.7,11.9,10.8c1.6-0.1,7.2-0.5,11.9,1
					c3.8,1.2,7.3,5.7,6.6,11.9c-1.2,10.9-3.4,12.2-3.8,12.4C417,113.7,417,113.7,416.9,113.7z"/>
			</g>
			<g>
				<path class="st4" d="M386.8,124.8c-0.4,0-4,0-5.3-1.3c-0.3-0.3-0.5-0.8-0.5-1.2c0-0.7,0.4-1.6,0.8-2.8c1-2.6,2.3-6,1.5-9.4
					c-0.1-0.3,0.1-0.7,0.5-0.8c0.3-0.1,0.7,0.1,0.8,0.5c0.9,3.7-0.6,7.6-1.5,10.1c-0.4,1-0.7,1.9-0.8,2.4c0,0.1,0,0.2,0.1,0.3
					c0.6,0.7,2.9,1,4.4,1c0.3,0,0.6,0.3,0.6,0.6C387.5,124.5,387.2,124.8,386.8,124.8z"/>
			</g>
			<g>
				<path class="st4" d="M413.9,123.4c-0.1,0-0.2,0-0.3-0.1l-5.9-2.9c-0.2-0.1-0.3-0.3-0.3-0.5c0-0.2,0-0.4,0.2-0.5l5.3-5.5
					c0.2-0.2,0.6-0.2,0.9,0c0.2,0.2,0.2,0.6,0,0.9l-4.7,4.8l5.1,2.5c0.3,0.2,0.4,0.5,0.3,0.8C414.3,123.3,414.1,123.4,413.9,123.4z"
					/>
			</g>
			<g>
				<path class="st4" d="M400,94c-0.1,0-0.2,0-0.3-0.1c-0.3-0.1-0.4-0.5-0.3-0.8l2.1-4.3c0.2-0.3,0.5-0.4,0.8-0.3
					c0.3,0.1,0.4,0.5,0.3,0.8l-2.1,4.3C400.4,93.8,400.2,94,400,94z"/>
			</g>
			<g>
				<path class="st4" d="M460,308c-0.2,0-0.4-0.1-0.5-0.2c-0.1-0.1-6.5-8.4-14.1-21.9c-0.2-0.3-0.1-0.7,0.2-0.9
					c0.3-0.2,0.7-0.1,0.9,0.2c6.8,12.1,12.7,20,13.8,21.5c11.5-0.7,25.5-11.1,27.8-12.9c-2.3-8.1-4.5-16.2-6.7-24.3
					c-7-25.4-12.9-48.3-18-69.8c-0.5-2-0.9-4.1-1.4-6.2c-1.7-8.1-3.4-16.5-8.4-23.1c-8-10.5-23.2-18.2-36.8-18.6
					c-0.3,0-0.6-0.3-0.6-0.6c0-0.3,0.3-0.6,0.6-0.6c14,0.4,29.5,8.3,37.8,19.1c5.2,6.8,7,15.3,8.7,23.6c0.4,2.1,0.9,4.2,1.4,6.2
					c5.1,21.5,11,44.4,18,69.8c2.3,8.2,4.5,16.5,6.8,24.7c0.1,0.2,0,0.5-0.2,0.7C488.5,295.1,473,307.3,460,308
					C460,308,460,308,460,308z"/>
			</g>
			<g>
				<path class="st4" d="M314.8,254.1c-0.1,0-0.3,0-0.4-0.1c-14.1-11.8-6.9-30,1-44.5c1.1-2.1,2.4-4.9,3.9-8.1
					c8.3-18.3,23.7-52.3,61.6-52.3c0.3,0,0.6,0.3,0.6,0.6s-0.3,0.6-0.6,0.6c-37.1,0-51.7,32.3-60.5,51.5c-1.5,3.2-2.7,6-3.9,8.2
					c-7.7,14.1-14.7,31.7-1.3,42.9c0.3,0.2,0.3,0.6,0.1,0.9C315.1,254.1,315,254.1,314.8,254.1z"/>
			</g>
			<g>
				<path class="st4" d="M405.8,114.6c-0.1,0-0.2,0-0.2,0c-5.9-2.3-7.6-12.7-8-16.5c-2.6,2.3-10.4,8-21.3,5.4
					c-0.3-0.1-0.5-0.4-0.5-0.7c0.1-0.3,0.4-0.5,0.8-0.5c12.8,3,21-5.9,21.1-6c0.2-0.2,0.4-0.2,0.7-0.2c0.2,0.1,0.4,0.3,0.4,0.6
					c0,0.1,1,14.2,7.3,16.7c0.3,0.1,0.5,0.5,0.4,0.8C406.3,114.4,406,114.6,405.8,114.6z"/>
			</g>
			<g>
				<path class="st4" d="M447.6,309.5c-0.4,0-0.6-0.3-0.6-0.7c0.7-11.2,0.9-15.8,1-17.7c-0.1-0.1-0.1-0.3-0.1-0.4
					c0.1-1,0.1-1.5,0.8-1.5c0.3,0,0.4,0,0.5,0.8c0,0.1,0,0.2,0,0.3c0.1,1.7-0.2,6.3-0.9,18.6C448.2,309.3,447.9,309.5,447.6,309.5z"
					/>
			</g>
			<g>
				<path class="st4" d="M401.9,184c-0.2,0-0.4-0.1-0.5-0.3l-11-18.5l-9.8,13.7c-0.2,0.2-0.4,0.3-0.7,0.2c-0.3-0.1-0.4-0.3-0.4-0.6
					v-27.4c0-0.1,0-0.2,0.1-0.4l5-7.5c0.1-0.2,0.4-0.3,0.6-0.3c0.2,0,0.4,0.2,0.5,0.5l5.1,19.3l18.4-19.8c0.2-0.2,0.7-0.2,0.9,0
					l7.1,7.7c0.2,0.2,0.2,0.5,0.1,0.7l-14.8,32.3C402.4,183.8,402.2,183.9,401.9,184C401.9,184,401.9,184,401.9,184z M391.2,164.1
					l10.7,17.9l14.1-30.8l-6.4-6.9L391.2,164.1z M380.6,151.3v25.3l9.1-12.6l-4.9-18.8L380.6,151.3z"/>
			</g>
			<g>
				<path class="st4" d="M388.4,214.8c-0.5-0.1-0.7-0.4-0.6-0.8c3.6-16.5,11.1-34.6,11.2-34.8c0.1-0.3,0.5-0.5,0.8-0.3
					c0.3,0.1,0.5,0.5,0.3,0.8c-0.1,0.2-7.6,18.2-11.2,34.6C389,214.7,388.7,214.8,388.4,214.8z"/>
			</g>
			<g>
				<path class="st4" d="M378.4,222.2c-0.3,0-0.6-0.3-0.6-0.6c-1.2-26,2.4-44.3,2.5-44.5c0.1-0.3,0.4-0.6,0.7-0.5
					c0.3,0.1,0.6,0.4,0.5,0.7c0,0.2-3.6,18.4-2.5,44.2C379,221.9,378.8,222.2,378.4,222.2C378.4,222.2,378.4,222.2,378.4,222.2z"/>
			</g>
			<g>
				<path class="st4" d="M391.5,184c-0.1,0-7.2-0.7-7.2-0.7c-0.3,0-0.5-0.3-0.6-0.6l-0.7-9.2c0-0.3,0.2-0.6,0.6-0.7
					c0.4,0,0.6,0.2,0.7,0.6l0.7,8.7l6.2,0.6l5.5-7.6c0.2-0.3,0.6-0.3,0.9-0.1c0.3,0.2,0.3,0.6,0.1,0.9l-5.7,7.9
					C391.9,183.9,391.7,184,391.5,184z"/>
			</g>
			<g>
				<path class="st4" d="M392.7,199.3c-0.3,0-0.6-0.2-0.6-0.6l-1.2-15.3c0-0.3,0.2-0.6,0.6-0.7c0.3,0,0.6,0.2,0.7,0.6l1.2,15.3
					C393.3,199,393.1,199.3,392.7,199.3C392.7,199.3,392.7,199.3,392.7,199.3z"/>
			</g>
			<g>
				<path class="st4" d="M379.3,193.5c-0.1,0-0.2,0-0.3-0.1c-0.3-0.2-0.4-0.5-0.3-0.8l5.1-10.2c0.1-0.3,0.5-0.4,0.8-0.3
					c0.3,0.2,0.4,0.5,0.3,0.8l-5.1,10.2C379.7,193.4,379.5,193.5,379.3,193.5z"/>
			</g>
			<g>
				<path class="st4" d="M351.2,218.8c-0.3,0-0.6-0.3-0.6-0.6c0-25.1,9.5-45.3,9.6-45.5c0.1-0.3,0.5-0.4,0.8-0.3
					c0.3,0.1,0.4,0.5,0.3,0.8c-0.1,0.2-9.5,20.1-9.5,44.9C351.8,218.5,351.5,218.8,351.2,218.8z"/>
			</g>
			<g>
				<path class="st4" d="M390.5,131.5c-0.7,0-1.4-0.1-2.2-0.4c-0.3-0.1-0.5-0.5-0.4-0.8c0.1-0.3,0.5-0.5,0.8-0.4
					c1.5,0.5,2.6,0.4,3.3-0.2c1.4-1.1,1.3-4,1.2-5c0-0.3,0.2-0.7,0.5-0.7c0.3-0.1,0.7,0.2,0.7,0.5c0,0.2,0.5,4.4-1.6,6.2
					C392.2,131.2,391.4,131.5,390.5,131.5z"/>
			</g>
		</g>
	</g>
	<circle class="st3" cx="259.4" cy="60.2" r="58.6"/>
	<path class="st1" d="M240,61.4c-2.4-2.4-6.3-2.4-8.8,0l-2.4,2.4c-2.4,2.4-2.4,6.3,0,8.8L246.3,90c2.4,2.4,6.3,2.4,8.8,0l36-35.1
		c2.4-2.4,2.4-6.3,0-8.8l-2.4-2.4c-2.4-2.4-6.3-2.4-8.8,0l-29.2,28.3L240,61.4z"/>
	<g>
		<g>
			<g>
				<g>
					<path class="st4" d="M258.8,113.8c24.5,0,46.1-17.3,51.5-41.1c0.1-0.3-0.1-0.6-0.4-0.7c-0.3-0.1-0.6,0.1-0.7,0.4
						c-5.2,23.3-26.4,40.2-50.4,40.2c-28.5,0-51.6-23.2-51.6-51.6s23.2-51.6,51.6-51.6c18.2,0,34.8,9.3,44.2,25
						c0.2,0.3,0.5,0.4,0.8,0.2c0.3-0.2,0.4-0.5,0.2-0.8c-9.6-16-26.5-25.5-45.2-25.5c-29.1,0-52.7,23.7-52.7,52.7
						C206.1,90.1,229.7,113.8,258.8,113.8z"/>
				</g>
			</g>
		</g>
	</g>
	<g>
		<path class="st4" d="M249.5,85.7c-1.8,0-3.5-0.7-4.8-2l-17.5-17.5c-1.3-1.3-2-3-2-4.8c0-1.8,0.7-3.5,2-4.8l2.4-2.4
			c1.3-1.3,3-2,4.8-2c1.8,0,3.5,0.7,4.8,2l10.3,10.3l28.8-27.9c1.3-1.3,3-2,4.8-2c1.8,0,3.5,0.7,4.8,2l2.4,2.4
			c2.6,2.6,2.6,6.9,0,9.6l-36,35.1C253,85,251.3,85.7,249.5,85.7z M234.4,53.5c-1.5,0-2.9,0.6-4,1.6l-2.4,2.4
			c-1.1,1.1-1.7,2.5-1.7,4c0,1.5,0.6,2.9,1.7,4l17.5,17.5c1.1,1.1,2.5,1.6,4,1.6c1.5,0,2.9-0.6,4-1.6l36-35.1c2.2-2.2,2.2-5.8,0-8
			l-2.4-2.4c-1.1-1.1-2.5-1.6-4-1.6c-1.5,0-2.9,0.6-4,1.6l-29.2,28.3c-0.2,0.2-0.6,0.2-0.8,0l-10.7-10.7
			C237.4,54,235.9,53.5,234.4,53.5z"/>
	</g>
	<line class="st5" x1="98.2" y1="177.6" x2="191.2" y2="177.6"/>
	<line class="st5" x1="98.2" y1="190.6" x2="191.2" y2="190.6"/>
	<path class="st5" d="M98.2,203.6h93H98.2z"/>
	<path class="st5" d="M98.2,216.6h93H98.2z"/>
</g>
</svg>
