<?xml version="1.0" encoding="utf-8"?>
<!-- Generator: Adobe Illustrator 22.0.1, SVG Export Plug-In . SVG Version: 6.00 Build 0)  -->
<svg version="1.1" xmlns="http://www.w3.org/2000/svg" xmlns:xlink="http://www.w3.org/1999/xlink" x="0px" y="0px" width="622.8px"
	 height="419.5px" viewBox="0 0 622.8 419.5" style="enable-background:new 0 0 622.8 419.5;" xml:space="preserve">
<style type="text/css">
	.st0{fill:#EDA58A;}
	.st1{fill:#48484B;}
	.st2{fill:#9898EA;}
	.st3{fill:#FFFFFF;}
	.st4{fill:#272728;}
	.st5{fill:#202020;}
</style>
<g id="Слой_9">
	<path class="st0" d="M434.3,388.5c-211.1,63-342.6,23.1-397.9-58.5C-42.1,214.2,16.6,55.4,116.2,68.4c32.7,4.3,33.7,36,95.5,55.4
		c71.4,22.4,73.4-63.5,157.1-34.8c32.7,11.2,26.3,58.3,118.9,32.7C631.1,81.9,637.8,327.8,434.3,388.5z"/>
</g>
<g id="Слой_5">
	<path class="st1" d="M325.9,229.7c0,0-19.8,3.9-30.2,6.5c-10.4,2.6-23.2,6.8-35.8,2.6c-12.6-4.3-19.4-12.8-21.9-17.9
		c-2.5-5.1-5.7-13.4-6.4-20.1c0,0-7.8,5.7-18.3,6.6c-10.4,0.9-16.4,1.3-18.9-1.7c0,0,5.2,19.4,8.9,27.4c3.7,8,15.4,33.7,40.9,43.2
		s26.7,8.9,34.4,9.4c7.7,0.5,19,0,19,0s-6.2,57.3-6.6,60.9c-0.4,3.6-4.3,39.8-4.3,39.8l122.4,1.2l36.1-3l9.9-18.3l-9.9-45.3
		l-11.5-13.2c0,0-0.9-11-2.5-17c-1.5-6-6.9-24.1-12.1-32.6c-5.2-8.5-6.8-14.6-21.9-22.1s-27.2-7.3-27.2-7.3L325.9,229.7z"/>
	<path class="st2" d="M95.7,386.4h135.9c0,0,18.8-0.7,20.1-21.2c1.3-20.6-4.2-40.9-9.7-55.7c-5.5-14.8-11.5-28.4-25.2-35.6
		c-13.7-7.2-31.4-9-31.4-9l-42.9,0.4c0,0-30.9,1.2-42.6,18.8c-11.7,17.6-21.5,46.9-22.4,63.1C76.5,363.3,75.9,382.3,95.7,386.4z"/>
	<path class="st3" d="M148.4,219c0,0-8.3-2.9-9.8,5.9c0,0,0.4,6.6,5.2,7c4.8,0.4,5.3-0.8,5.3-0.8l0.2,8.3c0,0,0.6,5.4,4.4,7.1
		l-0.9,11.1l11.7,17l11.6-17l-0.8-11.3c0,0,4-1.9,4.2-8.1c0.2-6.2,0.5-6.8,0.5-6.8s8.3,4,10.5-5.3c0,0,0.6-4.8-2.8-6.4
		c-3.4-1.6-7.1-0.9-7.1-0.9l-2.1-2.9l0.5-6.3c0,0-4.9-3.4-15.5-3.3c-10.5,0.2-14.5,4.5-14.5,4.5l-0.2,6.8L148.4,219z"/>
	<path class="st1" d="M219.6,386.8H109.9c-4.2,0-7.6-3.4-7.6-7.6v-68.5c0-4.2,3.4-7.6,7.6-7.6h109.7c4.2,0,7.6,3.4,7.6,7.6v68.5
		C227.2,383.4,223.8,386.8,219.6,386.8z"/>
	<path class="st2" d="M488,209c0,0,16.9-1.1,26.7,6.3c9.8,7.4,13.9,22,15.1,26.2c1.2,4.2,8.1,29.4,9.2,33.7
		c1.1,4.3,8.2,34.9,9.6,41.5c1.4,6.5,10.6,51.1,10.6,51.1s-11.2,5.3-22.3,6.3c-11.2,1-21,1.6-23.9,0.2l-3.5-12.7
		c0,0-22.2,7.8-42.6,3.5c-20.4-4.3-29.6-7.6-37.1-12.2c-7.5-4.6-7.9-4.9-7.9-4.9s5.9-5.7,8.4-9.2c2.5-3.4,7-12.2,6.7-24.5
		c0,0-9.6,16.6-21.3,14c-11.7-2.6-18.9-11.7-17.9-20.5c1-8.8,5.6-21.1,12.7-39c7.1-17.9,14.1-35.5,14.1-35.5s6.7,0.7,14.6,3
		c7.8,2.3,10.8,3.2,10.8,3.2l13.8-30.4l5.5-0.2c0,0-5.1,16.4,1.7,16c6.8-0.4,9.8-4.4,12.2-7.4C485.6,214.6,488,209,488,209z"/>
	<path class="st4" d="M168.1,242.5c0,0-0.3-4.2,4.4-5.5c0,0,0-1.9-1.4-1.9c-1.4,0-1.8,1-2.2,1.7c-0.4,0.7-1,1.8-2.1,1.7
		c-1.1-0.1-3.3-1.5-4.4-0.1c-1.1,1.4-0.8,3.1,1.5,4.1C166,243.4,168.1,242.5,168.1,242.5z"/>
	<path class="st1" d="M149,217.5v-6.3c0,0,4.9-4.4,12.9-4.8c8-0.4,15,1.6,17.4,3.1v6.3l1.6,2.9l2.3-0.5l2.4-17.7l-3.1,3.6l-1.4-6.9
		l-1.1,2.1c0,0-7.6-7.6-17.9-6.8c-10.3,0.8-18.6,7.5-20.9,14.7l5.7-1.8l-1.6,9.1l1.4-1.2l0.2,5.2l1.7,0.9L149,217.5z"/>
	<path class="st1" d="M488.3,194.8c0,0,6.9-0.4,8.8-3.7l-1.1,15.4l11.7,0.4l0.2,2L518,209c0,0-0.1-34.7-0.9-41.4
		c-0.8-6.8-1.3-17.2-10.5-20c-9.2-2.8-15.3-0.7-17.7,2.4c-2.5,3.2-2.5,3.7-2.5,3.7s-7.8-5.1-15.8-1.8c-4.7,1.9-8.4,6.7-10.9,14.4
		l7.5,1.7l4-4.2l-0.4,5.2l17,3.4l2.8-5.7c0,0-1.8,6.8-1.2,12.1c0,0,6.7-0.3,7.4,5.4c0.7,5.7-5.2,8-7.3,7c-2.2-1-0.9-0.3-0.9-0.3
		L488.3,194.8z"/>
	<path class="st3" d="M432.3,233.9c0,0,4.8-4.6,5.6-7.9c0.9-3.4,2.5-10.4,5.8-14.5c3.3-4.1,5.7-6.9,9.9-7.1c4.2-0.2,10.7,3.1,13.2,6
		c2.5,2.8,4.3,6.1,3.6,8.5c-0.7,2.5-3.1,3.8-3.1,3.8s1.9,6.8-5.4,7c0,0-0.7,8.1-9.6,4l-2.4,5.9C449.9,239.5,436,234.7,432.3,233.9z"
		/>
	<path class="st3" d="M488.3,209.1l0.2-17.8c0,0,7.6,1.5,8.3-6c0,0,1.5-6.6-7.4-6.6l0.7-9.4l-2.2,3l-17-3.4l0.4-5.1l-3.9,4.1
		l-3.4-0.8c0,0-2.4,11.9-3.1,16.2c-0.7,4.3-1,13.5,1.7,14.7l6,2.3l0.2,0.4l1.1,0.1l-0.6,7.9L468,213c0,0,4.3,7.2-0.7,9.5
		c0,0,1.1,3.6,7,2S487.5,212.2,488.3,209.1z"/>
	<path class="st3" d="M528,375l-0.2,2.4c0,0-1.8,4.2-6,8.8c-4.3,4.6-4.3,9.5-0.7,10.9c5.5,2.2,7.8-7,13.5-9.4
		c3.6-1.5,15.1,0.8,17.8,2.1c2.7,1.3,8.5,5.7,11.7,5.8c3.2,0.1,7.1,0.2,7.4-2.5c0,0,3.3,0.5,5.4-1.5c2.1-2,0.5-4.2,0.5-4.2
		s1.8-0.9,0.1-3.5c-1.7-2.6-4.5-4.3-8.9-5.8c-4.4-1.5-10.5-3.5-12.6-5.3c-2.1-1.8-2.4-2.9-2.4-2.9S535.8,375.5,528,375z"/>
	<path class="st3" d="M422.6,349c0,0-14.8-0.5-21.5,0c-6.7,0.5-18.9,1.7-27.1,9.6c-8.2,7.9-8.2,15.5-9.4,28.2H433
		c0,0,15.4,3.5,34.5,3c19.1-0.6,27.3-2.5,31.4-4.8c4.1-2.3,6.6-2.9,8.4-6.8c1.8-3.9,3.3-10.4,3.3-10.4l-1.3-6.2
		c0,0-15.1,6.6-39.1,3.8C442.8,362.1,422.6,349,422.6,349z"/>
	<polygon class="st4" points="459.4,205.8 463.1,197.9 468.9,200.4 464.5,208.6 	"/>
	<path class="st3" d="M176.8,348.2c0,4.9-3.9,8.8-8.8,8.8c-4.9,0-8.8-3.9-8.8-8.8c0-4.9,3.9-8.8,8.8-8.8
		C172.9,339.4,176.8,343.3,176.8,348.2z"/>
	<polygon class="st3" points="152.9,257.5 142.5,265.3 150,303 179.2,302.9 186.5,264.9 176.2,257.5 	"/>
	<polygon class="st5" points="157.7,290.5 160.1,295.4 158.7,303 171.8,303 169.4,295.7 171.5,289.9 164.4,275.2 	"/>
	<path class="st3" d="M111.7,205.9l17.5,11.2l0-42.8c0,0,0.2-7.5-9.5-9.8H71.5c0,0-10.1,0.2-10.7,10.7v21.3c0,0,1.1,9.5,10.7,9.5
		H111.7z"/>
	<path class="st3" d="M359.8,220.9l-1.2-22.9c0,0,9.8,2.9,10.2-7.7c0,0-0.5-6.7-7.7-6.4c0,0-4.6,0.8-5.7,3.6c0,0-2.2-1.8-1.3-10.8
		l0-1.1c0,0-2.9,3.5-7.1,1.4c-4.2-2.1-5.4-2.2-6.1-5.1c0,0-3.7,5.8-12.8,4.4l-0.5,22.6c0,0-1.5,11.2,8.7,12.3l0,9.4l11.7,17.6
		L359.8,220.9z"/>
	<path class="st3" d="M226.9,203c0,0-1.4-3.8-1.7-10.6c-0.2-6.8,1.8-13.2,2.3-15.8c0.5-2.6,2.2-11.3-2.8-11.8
		c-5-0.5-6.4,2.7-6.9,6.4c-0.5,3.7-1.8,7.6-1.8,7.6s-7.7-12-10.8-15.6c-3.1-3.7-5.1-4.7-7.9-3.5c-2.8,1.2-2.3,4.6-2.3,4.6
		s-3.1-1.4-5.1,0.4c-1.9,1.8-2.6,3.3-1.7,5.1c0,0-2.6-0.6-4.4,0.9c-1.8,1.5-2.1,4.1,1.1,8.8c3.2,4.7,9.5,12.2,11.8,15.1
		c2.3,2.9,4.2,5.4,5.1,8c0.9,2.6,1.3,5.4,1.3,5.4s7.2,0.3,13.5-1.4S226.9,203,226.9,203z"/>
	<polygon class="st3" points="336,220.6 325.8,229.7 333,264.5 335.2,261.3 348,322.8 360.5,261.3 362.5,264.9 370,228.7 
		359.6,220.9 	"/>
	<path class="st1" d="M330.5,163.3c0,0-6.7,0.6-7.8,5.7c-1,5.1,4.9,7.2,4.9,7.2s6.1,1.2,9.2-1.3c3.1-2.5,3.9-3.4,3.9-3.4
		s0.7,4.5,5.9,5.4c5.2,0.9,7.3-1.8,7.3-1.8s-2,8.5,0.9,12c0,0,1.8-3.5,5.9-3.3c4.1,0.2,5.2,1.6,5.2,1.6s3.3-5.5,4.1-9.4
		c0.8-3.9,0.9-8.5-1.7-10.9c-2.6-2.4-3.5-4.1-8.6-4.2c0,0-2.2-5.5-7.6-7.3c-5.4-1.8-8.9-0.2-11.5,3.4c0,0-2.9-2.2-6.7-1.7
		c-3.7,0.5-4.8,3.5-5.1,4.1C328.8,160,329.5,162.6,330.5,163.3z"/>
	<path class="st4" d="M344.8,204.4c0,0-1.2-2.5,0-4.5c1.2-2,3-3,3-3s-0.8-1.3-2.1-1.1c-1.4,0.2-1.7,1.2-1.9,2.5
		c-0.2,1.3-0.5,2.3-1.7,2.4c-1.1,0.1-3.4-0.3-4.2,0.3c-0.8,0.6-0.9,1.6,0.4,2.7C339.6,204.7,342.5,205.9,344.8,204.4z"/>
	<path class="st4" d="M203.1,208.1c0,0-1.3-6.9-2.4-7.3c-1.2-0.4-6.5,3.1-6.1,4.9C195.1,207.5,201.9,208.4,203.1,208.1z"/>
	<path class="st4" d="M225.2,196.3l1.4,7c0,0,5.3-2.6,4.8-4.5C230.9,197.1,226.4,196.1,225.2,196.3z"/>
	<polygon class="st2" points="340.7,252.2 344,259.9 340.2,285 348,322.2 356.2,282.8 352.9,259.9 355.6,251.9 348.2,238.8 	"/>
	<path class="st4" d="M358.7,339.9c0,1.4-1.1,2.5-2.5,2.5c-1.4,0-2.5-1.1-2.5-2.5s1.1-2.5,2.5-2.5
		C357.6,337.4,358.7,338.6,358.7,339.9z"/>
	<path class="st4" d="M358.7,367c0,1.4-1.1,2.5-2.5,2.5c-1.4,0-2.5-1.1-2.5-2.5s1.1-2.5,2.5-2.5C357.6,364.5,358.7,365.6,358.7,367z
		"/>
	<path class="st1" d="M542.2,288.5l8,35.9c0,0-16.8,0.9-19.7-14.5C527.6,294.6,538.2,288.9,542.2,288.5z"/>
	<path class="st4" d="M178.5,209.1c-16.1-9.5-30.8,0-30.8,0l-0.4-4.1l-2.1,9.1c0.1,0.2,1.3-0.9,1.3-0.9c0,0.2,2.5-2.2,2.5-2.2
		s4.9-4.4,12.9-4.8C169.2,206.1,175.6,207.7,178.5,209.1z"/>
	<path class="st3" d="M479.6,151.2c-2.7-0.6-5.8-0.7-9.1,0.7c-4.7,1.9-8.4,6.7-10.9,14.4l2.9,0.6l1.4-0.1
		C467.1,149.8,479.6,151.2,479.6,151.2z"/>
	<path class="st3" d="M506.6,147.5c-9.2-2.8-15.3-0.7-17.7,2.4c-1.3,1.7-1.9,2.6-2.2,3.1l1.8,2l3.7,0.3c0,0,3.9-11.7,17.6-6.3
		C508.9,148.5,507.8,147.9,506.6,147.5z"/>
	<polygon class="st3" points="350.5,242.9 344.8,251.5 348.1,259.9 342.1,296.6 340.2,284.3 344,259.9 340.7,252.2 348.2,238.8 	"/>
	<path class="st4" d="M167.1,280.8c0,0-5.4,8-5.4,8.3s2.7,7,2.7,7L164,303l-5.3,0l2.2-6.5l-3-6.5l6.7-15.5L167.1,280.8z"/>
	<g>
		<path class="st4" d="M113.3,387.4H28.2c-0.3,0-0.6-0.3-0.6-0.6c0-0.3,0.3-0.6,0.6-0.6h85.1c0.3,0,0.6,0.3,0.6,0.6
			C113.9,387.1,113.6,387.4,113.3,387.4z"/>
	</g>
	<g>
		<path class="st4" d="M521.8,387.4h-28.1c-0.3,0-0.6-0.3-0.6-0.6c0-0.3,0.3-0.6,0.6-0.6h28.1c0.3,0,0.6,0.3,0.6,0.6
			C522.4,387.1,522.1,387.4,521.8,387.4z"/>
	</g>
	<g>
		<path class="st4" d="M434.6,387.4H219.4c-0.3,0-0.6-0.3-0.6-0.6c0-0.3,0.3-0.6,0.6-0.6h215.2c0.3,0,0.6,0.3,0.6,0.6
			C435.2,387.1,435,387.4,434.6,387.4z"/>
	</g>
	<g>
		<path class="st4" d="M610.4,387.4h-32.1c-0.3,0-0.6-0.3-0.6-0.6c0-0.3,0.3-0.6,0.6-0.6h32.1c0.3,0,0.6,0.3,0.6,0.6
			C611,387.1,610.7,387.4,610.4,387.4z"/>
	</g>
	<g>
		<path class="st4" d="M219.6,387.4H109.9c-4.5,0-8.2-3.7-8.2-8.2v-68.5c0-4.5,3.7-8.2,8.2-8.2h109.7c4.5,0,8.2,3.7,8.2,8.2v68.5
			C227.8,383.7,224.1,387.4,219.6,387.4z M109.9,303.6c-3.9,0-7,3.1-7,7v68.5c0,3.9,3.1,7,7,7h109.7c3.9,0,7-3.1,7-7v-68.5
			c0-3.9-3.1-7-7-7H109.9z"/>
	</g>
	<g>
		<path class="st4" d="M164.9,354.9c-5.2,0-9.4-4.2-9.4-9.4c0-5.2,4.2-9.4,9.4-9.4c5.2,0,9.4,4.2,9.4,9.4
			C174.3,350.6,170.1,354.9,164.9,354.9z M164.9,337.2c-4.5,0-8.2,3.7-8.2,8.2c0,4.5,3.7,8.2,8.2,8.2c4.5,0,8.2-3.7,8.2-8.2
			C173.1,340.9,169.4,337.2,164.9,337.2z"/>
	</g>
	<g>
		<path class="st4" d="M464.7,209c-0.1,0-0.2,0-0.3-0.1c-0.3-0.1-0.4-0.5-0.3-0.8l3.5-7.4l-4.2-2l-3.5,7.3c-0.1,0.3-0.5,0.4-0.8,0.3
			c-0.3-0.1-0.4-0.5-0.3-0.8l3.8-7.9c0.1-0.3,0.5-0.4,0.8-0.3l5.3,2.5c0.1,0.1,0.3,0.2,0.3,0.3c0.1,0.2,0,0.3,0,0.5l-3.8,7.9
			C465.1,208.8,464.9,209,464.7,209z"/>
	</g>
	<g>
		<path class="st4" d="M468.4,201c-0.1,0-0.2,0-0.3-0.1c-0.3-0.1-0.4-0.5-0.3-0.8l1-2.1l-4.2-2l-1,2.1c-0.1,0.3-0.5,0.4-0.8,0.3
			c-0.3-0.1-0.4-0.5-0.3-0.8l1.2-2.6c0.1-0.1,0.2-0.3,0.3-0.3c0.2-0.1,0.3,0,0.5,0l5.3,2.5c0.1,0.1,0.3,0.2,0.3,0.3
			c0.1,0.1,0,0.3,0,0.5l-1.2,2.6C468.9,200.9,468.7,201,468.4,201z"/>
	</g>
	<g>
		<path class="st4" d="M448,237c-0.1,0-0.2,0-0.3-0.1c-0.2-0.1-0.3-0.3-0.3-0.6l0.1-7.9c0-0.3,0.3-0.6,0.6-0.6
			c0.3,0,0.6,0.3,0.6,0.6l-0.1,6.6l5-4.2c0.3-0.2,0.6-0.2,0.8,0.1c0.2,0.3,0.2,0.6-0.1,0.8l-6,5C448.3,236.9,448.2,237,448,237z"/>
	</g>
	<g>
		<g>
			<path class="st4" d="M299.1,215.5c-0.2,0-0.5-0.1-0.6-0.4c-0.1-0.3,0-0.7,0.3-0.8l16.3-6.5c0.3-0.1,0.7,0,0.8,0.3
				c0.1,0.3,0,0.7-0.3,0.8l-16.3,6.5C299.2,215.5,299.2,215.5,299.1,215.5z"/>
		</g>
		<g>
			<path class="st4" d="M313.8,201.9c0,0-27.5-0.7-27.5-0.7c-0.3,0-0.6-0.3-0.6-0.6c0-0.3,0.3-0.6,0.6-0.6c0,0,27.5,0.7,27.5,0.7
				c0.3,0,0.6,0.3,0.6,0.6C314.3,201.7,314.1,201.9,313.8,201.9z"/>
		</g>
		<g>
			<path class="st4" d="M314.8,195.2c-0.1,0-0.2,0-0.3-0.1l-14.2-6.6c-0.3-0.1-0.4-0.5-0.3-0.8c0.1-0.3,0.5-0.4,0.8-0.3l14.2,6.6
				c0.3,0.1,0.4,0.5,0.3,0.8C315.3,195,315.1,195.2,314.8,195.2z"/>
		</g>
	</g>
	<g>
		<path class="st4" d="M145.7,232.7c-1.3,0-2.7-0.4-4-1.2c-3.5-2.1-4.7-6.7-2.6-10.2c1.9-3.2,6-4.4,9.6-2.8c0.3,0.1,0.4,0.5,0.3,0.8
			c-0.1,0.3-0.5,0.5-0.8,0.3c-3.1-1.3-6.5-0.3-8.1,2.3c-1.8,2.9-0.8,6.8,2.1,8.5c2.2,1.3,4.4,1.4,6.3,0.2c0.3-0.2,0.6-0.1,0.8,0.2
			c0.2,0.3,0.1,0.7-0.2,0.8C148.1,232.4,146.9,232.7,145.7,232.7z"/>
	</g>
	<g>
		<path class="st4" d="M143.8,229.6c-0.2,0-0.4-0.1-0.5-0.2c-0.2-0.3-0.1-0.6,0.1-0.8l4-3c0.3-0.2,0.6-0.1,0.8,0.1
			c0.2,0.3,0.1,0.6-0.1,0.8l-4,3C144.1,229.5,144,229.6,143.8,229.6z"/>
	</g>
	<g>
		<path class="st4" d="M147.7,225.4c-0.1,0-0.3,0-0.4-0.1l-4.5-3.4c-0.3-0.2-0.3-0.6-0.1-0.8c0.2-0.3,0.6-0.3,0.8-0.1l4.5,3.4
			c0.3,0.2,0.3,0.6,0.1,0.8C148,225.3,147.8,225.4,147.7,225.4z"/>
	</g>
	<g>
		<path class="st4" d="M183.3,232.8c-1.3,0-2.5-0.3-3.5-1c-0.3-0.2-0.4-0.5-0.2-0.8c0.2-0.3,0.6-0.4,0.8-0.2
			c1.8,1.2,4.4,1.1,6.6-0.3c2.9-1.8,3.9-5.6,2.1-8.5c-1.4-2.4-4.1-3.5-6.8-2.9c-0.3,0.1-0.6-0.1-0.7-0.4c-0.1-0.3,0.1-0.7,0.4-0.7
			c3.2-0.8,6.4,0.6,8.1,3.4c2.1,3.5,1,8.1-2.6,10.2C186.3,232.3,184.8,232.8,183.3,232.8z"/>
	</g>
	<g>
		<path class="st4" d="M185.5,229.6c-0.1,0-0.2,0-0.3-0.1l-3.9-2.7c-0.3-0.2-0.3-0.6-0.2-0.8c0.2-0.3,0.6-0.3,0.8-0.2l3.9,2.7
			c0.3,0.2,0.3,0.6,0.2,0.8C185.8,229.5,185.6,229.6,185.5,229.6z"/>
	</g>
	<g>
		<path class="st4" d="M181.9,225.2c-0.2,0-0.4-0.1-0.5-0.2c-0.2-0.3-0.1-0.6,0.1-0.8l4.2-3.2c0.3-0.2,0.6-0.2,0.8,0.1
			c0.2,0.3,0.1,0.6-0.1,0.8l-4.2,3.2C182.1,225.2,182,225.2,181.9,225.2z"/>
	</g>
	<g>
		<g>
			<g>
				<path class="st4" d="M166.8,243.6c-1.2,0-2.4-0.4-3.5-1c-1.2-0.8-2-1.9-2.1-2.9c-0.1-0.9,0.3-1.6,0.9-2.1c0.8-0.6,2-0.6,3.1-0.1
					c1.4,0.6,1.5,0.5,1.9,0.4c0.3-0.1,0.5-0.2,1.2-1.5c0.5-1.1,1.5-1.8,2.5-1.9c0.8-0.1,1.5,0.3,2,1c0.5,0.7,0.6,2,0.2,3.4
					c-0.6,2.1-2.1,3.7-4,4.4C168.3,243.5,167.6,243.6,166.8,243.6z M162.4,239.6c0,0.5,0.5,1.3,1.5,2c0.7,0.4,2.4,1.3,4.7,0.5
					c1.5-0.5,2.7-1.9,3.2-3.6c0.3-1.1,0.2-2,0-2.3c-0.3-0.4-0.6-0.5-1-0.5c-0.6,0.1-1.2,0.5-1.5,1.2c-0.8,1.6-1.1,1.9-1.9,2.1
					c-0.7,0.3-1.2,0.3-2.8-0.4c-0.7-0.3-1.5-0.3-1.9,0C162.5,238.8,162.4,239.1,162.4,239.6L162.4,239.6z"/>
			</g>
		</g>
		<g>
			<path class="st4" d="M168.1,243.4c-0.3,0-0.5-0.2-0.6-0.5c-1-4.3,2.9-6.3,5-6.8c0.3-0.1,0.6,0.1,0.7,0.4c0.1,0.3-0.1,0.6-0.4,0.7
				c-0.2,0-5.1,1.2-4.1,5.4c0.1,0.3-0.1,0.6-0.5,0.7C168.2,243.4,168.2,243.4,168.1,243.4z"/>
		</g>
	</g>
	<g>
		<path class="st4" d="M271.2,241.1c-2.4,0-4.7-0.2-7.1-0.6c-18.5-3.3-30.9-18.7-33.2-41.3c0-0.3,0.2-0.6,0.5-0.7
			c0.3,0,0.6,0.2,0.7,0.5c2.2,22,14.3,37,32.3,40.2c10.1,1.8,20.4-0.9,30.4-3.5c3.2-0.8,6.5-1.7,9.7-2.4c6.3-1.3,13.7-2.9,21.4-4.3
			c0.3-0.1,0.6,0.2,0.7,0.5c0.1,0.3-0.2,0.6-0.5,0.7c-7.7,1.4-15.1,3-21.4,4.3c-3.2,0.7-6.5,1.5-9.7,2.4
			C287.2,239,279.2,241.1,271.2,241.1z"/>
	</g>
	<g>
		<path class="st4" d="M416.5,254.1c-0.2,0-0.4-0.1-0.5-0.3c-3.2-5.6-4.8-7.2-7.1-9.1c-13.1-11.3-25.4-13.2-36.2-14.9
			c-0.9-0.2-1.9-0.3-2.8-0.4c-0.3-0.1-0.6-0.4-0.5-0.7c0.1-0.3,0.4-0.6,0.7-0.5c0.9,0.2,1.9,0.3,2.8,0.4c11,1.7,23.4,3.6,36.8,15.1
			c2.4,2.1,4.1,3.7,7.3,9.5c0.2,0.3,0.1,0.7-0.2,0.8C416.7,254,416.6,254.1,416.5,254.1z"/>
	</g>
	<g>
		<path class="st4" d="M362.6,265.6c-0.2,0-0.4-0.1-0.5-0.3l-14-25.3l-14.4,25.3c-0.1,0.2-0.4,0.3-0.6,0.3c-0.2,0-0.4-0.2-0.5-0.5
			l-7.3-35.2c0-0.2,0-0.4,0.2-0.6l10.2-8.8c0.1-0.1,0.3-0.2,0.5-0.1c0.2,0,0.3,0.1,0.4,0.3l11.5,17l11.1-17c0.1-0.1,0.2-0.2,0.4-0.3
			c0.2,0,0.3,0,0.5,0.1l10.3,7.8c0.2,0.1,0.3,0.4,0.2,0.6l-7.4,36.2C363.1,265.3,362.9,265.5,362.6,265.6
			C362.7,265.5,362.6,265.6,362.6,265.6z M326.6,229.9l6.9,33.3l14-24.6L336,221.8L326.6,229.9z M348.8,238.7l13.5,24.5l7-34.3
			l-9.5-7.2L348.8,238.7z"/>
	</g>
	<g>
		<path class="st4" d="M343.9,260.5c-0.2,0-0.5-0.1-0.6-0.4l-3.3-8c-0.1-0.3,0-0.7,0.3-0.8c0.3-0.1,0.7,0,0.8,0.3l3.2,7.7l8.2,0
			l2.4-7.3c0.1-0.3,0.5-0.5,0.8-0.4c0.3,0.1,0.5,0.4,0.4,0.8l-2.6,7.7c-0.1,0.2-0.3,0.4-0.6,0.4L343.9,260.5L343.9,260.5z"/>
	</g>
	<g>
		<path class="st4" d="M341.5,212.5c-6.4,0-12.9-2.5-14.2-8.4c-0.3-1.3-0.3-4-0.4-6.7l-0.1-2c-0.1-2.5,0.3-18,0.3-18.7
			c0-0.3,0.3-0.6,0.6-0.6c0.3,0,0.6,0.3,0.6,0.6c0,0.2-0.4,16.1-0.3,18.6l0.1,2c0.1,2.6,0.1,5.3,0.4,6.5c1.3,6.2,9.2,8.1,15.9,7.3
			c2.3-0.3,4.1-0.7,5.6-1.2c0.3-0.1,0.7,0.1,0.8,0.4c0.1,0.3-0.1,0.7-0.4,0.8c-1.6,0.6-3.4,0.9-5.8,1.2
			C343.5,212.4,342.5,212.5,341.5,212.5z"/>
	</g>
	<g>
		<path class="st4" d="M359.7,221.5c-0.3,0-0.6-0.3-0.6-0.6l-1.2-23.1c0-0.3,0.2-0.6,0.6-0.6c0.3,0,0.6,0.2,0.6,0.6l1.2,23.1
			C360.3,221.2,360.1,221.5,359.7,221.5C359.7,221.5,359.7,221.5,359.7,221.5z"/>
	</g>
	<g>
		<path class="st4" d="M361.6,199.1c-1.7,0-3.4-0.5-4.8-1.6c-0.3-0.2-0.3-0.6-0.1-0.8c0.2-0.3,0.6-0.3,0.8-0.1
			c2.5,1.9,5.9,1.8,8.3-0.1c1.4-1.1,2.2-2.7,2.4-4.5c0.2-1.8-0.4-3.5-1.5-4.9c-2.3-2.8-6.5-3.3-9.4-0.9c-0.9,0.7-1.6,1.7-2,2.8
			c-0.1,0.3-0.4,0.5-0.8,0.3c-0.3-0.1-0.5-0.5-0.3-0.8c0.5-1.3,1.3-2.4,2.4-3.3c3.3-2.7,8.3-2.3,11.1,1.1c1.3,1.6,2,3.7,1.7,5.8
			c-0.2,2.1-1.2,4-2.8,5.3C365.1,198.5,363.3,199.1,361.6,199.1z"/>
	</g>
	<g>
		<path class="st4" d="M327.9,182.2c-0.1,0-0.2,0-0.3-0.1c-0.3-0.1-0.4-0.5-0.3-0.8c0,0,1.5-3.1,5.7-1.9c0.3,0.1,0.5,0.4,0.4,0.7
			c-0.1,0.3-0.4,0.5-0.7,0.4c-3.3-0.9-4.3,1.2-4.3,1.3C328.3,182.1,328.1,182.2,327.9,182.2z"/>
	</g>
	<g>
		<path class="st4" d="M348.6,182.5c-0.2,0-0.4-0.1-0.5-0.2c-2.8-3.6-5.6-1.9-5.7-1.8c-0.3,0.2-0.7,0.1-0.8-0.2
			c-0.2-0.3-0.1-0.7,0.2-0.8c0,0,3.8-2.4,7.3,2.1c0.2,0.3,0.2,0.6-0.1,0.8C348.9,182.5,348.8,182.5,348.6,182.5z"/>
	</g>
	<g>
		<path class="st4" d="M336.1,221.5c-0.3,0-0.6-0.3-0.6-0.6l0.1-9.7c0-0.3,0.3-0.5,0.6-0.6c0.3,0,0.6,0.3,0.6,0.6l-0.1,9.7
			C336.7,221.2,336.4,221.5,336.1,221.5z"/>
	</g>
	<g>
		<path class="st4" d="M340.3,284.9c-0.4-0.1-0.6-0.4-0.6-0.7l3.6-24.4c0.1-0.3,0.4-0.6,0.7-0.5c0.3,0,0.6,0.4,0.5,0.7l-3.6,24.4
			C340.9,284.7,340.6,284.9,340.3,284.9z"/>
	</g>
	<g>
		<path class="st4" d="M355.8,283.4c-0.3,0-0.6-0.2-0.6-0.5l-2.8-22.9c0-0.3,0.2-0.6,0.5-0.7c0.4,0,0.6,0.2,0.7,0.5l2.8,22.9
			C356.4,283.1,356.2,283.4,355.8,283.4C355.8,283.4,355.8,283.4,355.8,283.4z"/>
	</g>
	<g>
		<path class="st4" d="M288.4,286.9c-2.7,0-5.6-0.1-8.5-0.4c-33.9-3.3-62.7-21.8-75.1-48.4c-4.4-9.5-7.4-19.7-10.2-29.5l-0.8-2.7
			c-0.1-0.3,0.1-0.7,0.4-0.7c0.3-0.1,0.7,0.1,0.7,0.4l0.8,2.8c2.8,9.8,5.7,19.9,10.1,29.3c12.2,26.2,40.6,44.4,74.1,47.7
			c6.4,0.6,12.1,0.6,17.6-0.2c0.3-0.1,0.6,0.2,0.7,0.5c0,0.3-0.2,0.6-0.5,0.7C294.8,286.7,291.7,286.9,288.4,286.9z"/>
	</g>
	<g>
		<path class="st4" d="M203.7,208.9c-5.3,0-9.5-0.9-9.8-3.2c-0.3-2,1.7-3.8,6.4-5.6c0.3-0.1,0.7,0,0.8,0.3c0.1,0.3,0,0.7-0.3,0.8
			c-3.8,1.5-5.8,3.1-5.6,4.3c0.3,1.8,7.6,3.2,18.7,1.3c4.9-0.8,9.4-2.1,12.7-3.7c3.5-1.6,4.6-3,4.5-3.8c-0.2-1.4-2.8-1.9-4.9-2.1
			c-0.3,0-0.6-0.3-0.5-0.7c0-0.3,0.3-0.5,0.7-0.5c3.7,0.3,5.7,1.4,6,3.1c0.3,1.6-1.5,3.4-5.2,5.1c-3.4,1.6-8,2.9-13,3.8
			C210.4,208.6,206.8,208.9,203.7,208.9z"/>
	</g>
	<g>
		<g>
			<path class="st4" d="M341.9,205.7c-0.7,0-1.3-0.1-2-0.3c-1.5-0.4-2.6-1.3-3-2.3c-0.3-0.9-0.2-1.7,0.3-2.3
				c0.6-0.8,1.8-1.2,3.1-1.1c1.6,0.2,1.8,0.1,2.1-0.2c0.3-0.2,0.5-0.4,0.8-2c0.2-1.3,1-2.3,1.9-2.6c0.8-0.3,1.6-0.2,2.3,0.4
				c0.8,0.6,1.2,1.9,1.2,3.4c0,2.3-1,4.4-2.7,5.6C344.8,205.2,343.4,205.7,341.9,205.7z M339.9,200.8c-0.7,0-1.3,0.2-1.6,0.6
				c-0.3,0.3-0.3,0.7-0.1,1.2c0.2,0.5,0.9,1.2,2.2,1.6c0.8,0.2,2.9,0.6,5-0.9c1.4-1,2.2-2.8,2.2-4.7c0-1.3-0.4-2.1-0.7-2.4
				c-0.4-0.3-0.8-0.4-1.2-0.2c-0.6,0.2-1,0.9-1.2,1.7c-0.3,1.9-0.6,2.2-1.2,2.7c-0.7,0.5-1.1,0.6-3,0.4
				C340.2,200.8,340,200.8,339.9,200.8z"/>
		</g>
	</g>
	<g>
		<path class="st4" d="M345,204.9c-0.2,0-0.4-0.1-0.5-0.3c-2.3-4,1-7.3,3.1-8.4c0.3-0.2,0.7-0.1,0.8,0.2c0.2,0.3,0.1,0.7-0.2,0.8
			c-0.2,0.1-4.8,2.8-2.6,6.8c0.2,0.3,0.1,0.7-0.2,0.8C345.2,204.8,345.1,204.9,345,204.9z"/>
	</g>
	<g>
		<path class="st4" d="M363.9,195.6c-0.1,0-0.2,0-0.3-0.1l-5.6-2.8c-0.2-0.1-0.3-0.2-0.3-0.4c0-0.2,0-0.4,0.2-0.5l5.1-5.2
			c0.2-0.2,0.6-0.2,0.9,0c0.2,0.2,0.2,0.6,0,0.9l-4.5,4.6l4.9,2.4c0.3,0.1,0.4,0.5,0.3,0.8C364.3,195.4,364.1,195.6,363.9,195.6z"/>
	</g>
	<g>
		<path class="st4" d="M228.5,387.4c-0.3,0-0.6-0.3-0.6-0.6c0-0.3,0.3-0.6,0.6-0.6c10.4,0,17.3-4.6,20.7-13.8
			c9.6-25.9-12.9-82.2-23.9-91.6c-13.1-11.3-25.4-13.2-36.2-14.9c-0.9-0.1-1.9-0.3-2.8-0.4c-0.3-0.1-0.5-0.4-0.5-0.7
			c0.1-0.3,0.4-0.5,0.7-0.5c0.9,0.2,1.8,0.3,2.8,0.4c11,1.7,23.4,3.6,36.8,15.2c11.5,9.9,34.2,66.1,24.2,92.9
			C246.8,382.5,239.5,387.4,228.5,387.4z"/>
	</g>
	<g>
		<path class="st4" d="M100.4,387.4c-10.8,0-18.1-4.9-21.6-14.5c-10-26.9,12.6-83.2,24-93c13.4-11.5,25.8-13.4,36.8-15.2
			c0.9-0.1,1.9-0.3,2.8-0.4c0.3,0,0.6,0.2,0.7,0.5c0.1,0.3-0.2,0.6-0.5,0.7c-0.9,0.1-1.9,0.3-2.8,0.4c-10.8,1.7-23,3.6-36.2,14.9
			c-10.9,9.4-33.3,65.7-23.7,91.7c3.4,9.1,10.3,13.7,20.5,13.7c0.3,0,0.6,0.3,0.6,0.6C101,387.1,100.8,387.4,100.4,387.4z"/>
	</g>
	<g>
		<path class="st4" d="M150,303.6c-0.3,0-0.5-0.2-0.6-0.5l-7.5-38.1c0-0.2,0-0.5,0.2-0.6l10.1-7.8c0.1-0.1,0.3-0.1,0.5-0.1
			c0.2,0,0.3,0.1,0.4,0.3l11.5,17l11.1-17c0.1-0.1,0.2-0.2,0.4-0.3c0.2,0,0.3,0,0.5,0.1l10.3,7.8c0.2,0.1,0.3,0.4,0.2,0.6l-7.3,38.1
			c-0.1,0.3-0.4,0.6-0.7,0.5c-0.3-0.1-0.5-0.4-0.5-0.7l7.2-37.7l-9.5-7.2l-11.2,17.2c-0.1,0.2-0.3,0.3-0.5,0.3
			c-0.2,0-0.4-0.1-0.5-0.3L152.4,258l-9.3,7.2l7.5,37.7c0.1,0.3-0.1,0.6-0.5,0.7C150.1,303.6,150.1,303.6,150,303.6z"/>
	</g>
	<g>
		<path class="st4" d="M151.4,303.6c-0.1,0-0.2,0-0.3-0.1c-0.3-0.1-0.4-0.5-0.3-0.8l13.1-28.1c0.1-0.2,0.3-0.3,0.5-0.3
			c0.2,0,0.4,0.1,0.5,0.3l13,28.1c0.1,0.3,0,0.7-0.3,0.8c-0.3,0.1-0.7,0-0.8-0.3l-12.5-27l-12.6,27
			C151.9,303.5,151.7,303.6,151.4,303.6z"/>
	</g>
	<g>
		<path class="st4" d="M160.4,296.7c-0.2,0-0.5-0.1-0.6-0.4l-2.7-6.5c-0.1-0.3,0-0.7,0.3-0.8c0.3-0.1,0.7,0,0.8,0.3l2.6,6.1l8.2,0
			l2.2-5.3c0.1-0.3,0.5-0.4,0.8-0.3c0.3,0.1,0.5,0.5,0.3,0.8l-2.3,5.7c-0.1,0.2-0.3,0.4-0.6,0.4L160.4,296.7
			C160.4,296.7,160.4,296.7,160.4,296.7z"/>
	</g>
	<g>
		<path class="st4" d="M158.7,303.6c-0.5-0.1-0.7-0.4-0.6-0.7l1.7-6.9c0.1-0.3,0.4-0.5,0.7-0.4c0.3,0.1,0.5,0.4,0.4,0.7l-1.7,6.9
			C159.3,303.4,159,303.6,158.7,303.6z"/>
	</g>
	<g>
		<path class="st4" d="M171.5,303.6c-0.3,0-0.5-0.2-0.6-0.4l-2.1-6.9c-0.1-0.3,0.1-0.7,0.4-0.7c0.3-0.1,0.7,0.1,0.7,0.4l2.1,6.9
			c0.1,0.3-0.1,0.7-0.4,0.7C171.6,303.6,171.6,303.6,171.5,303.6z"/>
	</g>
	<g>
		<path class="st4" d="M481.4,366.7c-34.2,0-60-17.7-60.3-17.9c-0.3-0.2-0.3-0.6-0.1-0.8c0.2-0.3,0.6-0.3,0.8-0.1
			c0.4,0.3,40.7,27.9,87.2,13.6c0.3-0.1,0.7,0.1,0.7,0.4c0.1,0.3-0.1,0.7-0.4,0.7C499.6,365.5,490.2,366.7,481.4,366.7z"/>
	</g>
	<g>
		<path class="st4" d="M421.4,348.9c-0.2,0-0.3-0.1-0.5-0.2c-0.2-0.3-0.2-0.6,0.1-0.8c13.7-11.4,14.8-22.9,15.7-32.1
			c0.1-0.8,0.2-1.6,0.2-2.4c0-0.3,0.3-0.5,0.7-0.5c0.3,0,0.6,0.3,0.5,0.7c-0.1,0.8-0.2,1.6-0.2,2.4c-0.9,9-2.1,21.2-16.1,32.9
			C421.7,348.8,421.5,348.9,421.4,348.9z"/>
	</g>
	<g>
		<path class="st4" d="M462.8,199.2c-0.2,0-0.4-0.1-0.5-0.2c-0.9-1.2-1.8-3.3-2.1-4.8c-0.9-4.8-0.2-9.6,0.5-14.3l0.1-0.6
			c0.5-3.4,2.2-11.8,2.2-11.8c0.1-0.3,0.4-0.6,0.7-0.5c0.3,0.1,0.5,0.4,0.5,0.7c0,0.1-1.7,8.4-2.2,11.8l-0.1,0.6
			c-0.7,4.6-1.4,9.4-0.5,14c0.3,1.4,1.1,3.3,1.9,4.3c0.2,0.3,0.2,0.6-0.1,0.8C463.1,199.2,462.9,199.2,462.8,199.2z"/>
	</g>
	<g>
		<path class="st4" d="M473.3,201.6c-1.2,0-2.4,0-3.4-0.1c-0.4,0-0.9-0.1-1.3-0.1c-0.3,0-0.6-0.3-0.5-0.7c0-0.3,0.3-0.5,0.7-0.5
			c0.4,0,0.8,0.1,1.2,0.1c2,0.1,4.9,0.1,7,0c0.4-0.1,0.6,0.2,0.6,0.6c0,0.3-0.2,0.6-0.6,0.6C475.9,201.6,474.6,201.6,473.3,201.6z"
			/>
	</g>
	<path class="st4" d="M478.1,176c-0.5-0.1-0.8,0-1.2,1.7c-0.4,1.9,0.1,2.3,0.5,2.3c0.4,0,0.9-0.5,1.1-1.9
		C478.6,176.8,478.7,176.1,478.1,176z"/>
	<path class="st4" d="M465.4,173.9c-0.5-0.2-0.8,0-1.2,1.7c-0.5,1.9,0,2.3,0.4,2.3c0.4,0.1,1-0.5,1.2-1.8
		C465.9,174.8,466,174.1,465.4,173.9z"/>
	<path class="st4" d="M345.4,184.9c-0.5-0.1-0.8,0.1-0.9,1.9c-0.1,1.9,0.4,2.3,0.8,2.2c0.4,0,0.9-0.6,0.8-2
		C346.1,185.7,346,185,345.4,184.9z"/>
	<path class="st4" d="M331.4,184.8c-0.5-0.1-0.8,0.1-1,1.8c-0.2,1.9,0.3,2.3,0.7,2.3c0.4,0,0.9-0.6,0.9-2S332.1,184.9,331.4,184.8z"
		/>
	<g>
		<path class="st4" d="M463.2,170.9c-0.2,0-0.4-0.1-0.5-0.3c-0.2-0.3-0.1-0.7,0.2-0.8c1-0.6,2.2-1.1,4.5-0.2
			c0.3,0.1,0.5,0.5,0.3,0.8c-0.1,0.3-0.5,0.4-0.8,0.3c-1.9-0.8-2.7-0.4-3.4,0.1C463.4,170.8,463.3,170.9,463.2,170.9z"/>
	</g>
	<g>
		<path class="st4" d="M490.9,191.9c-0.2,0-0.3,0-0.5,0c-1.2-0.1-2.5-0.5-3.5-1.2c-0.3-0.2-0.3-0.6-0.2-0.8c0.2-0.3,0.6-0.3,0.8-0.2
			c0.8,0.6,1.8,0.9,2.9,1c1.5,0.1,3-0.4,4.1-1.4c1.1-1,1.8-2.4,1.9-3.9c0.1-1.5-0.4-3-1.4-4.1c-1-1.1-2.4-1.8-3.9-1.9
			c-1.1-0.1-2.2,0.2-3.2,0.8c-0.3,0.2-0.7,0.1-0.8-0.2c-0.2-0.3-0.1-0.7,0.2-0.8c1.2-0.7,2.5-1,3.9-0.9c1.8,0.1,3.5,0.9,4.7,2.3
			c1.2,1.4,1.8,3.1,1.7,5c-0.1,1.8-0.9,3.5-2.3,4.7C494.1,191.3,492.5,191.9,490.9,191.9z"/>
	</g>
	<g>
		<path class="st4" d="M492.4,188.7c-0.1,0-0.2,0-0.3-0.1l-4.4-3.1c-0.2-0.1-0.3-0.3-0.3-0.5c0-0.2,0.1-0.4,0.2-0.5l4.5-3.7
			c0.2-0.2,0.6-0.2,0.8,0.1c0.2,0.3,0.2,0.6-0.1,0.8L489,185l3.7,2.6c0.3,0.2,0.3,0.6,0.2,0.8C492.8,188.6,492.6,188.7,492.4,188.7z
			"/>
	</g>
	<g>
		<path class="st4" d="M468.4,212.4c-0.5-0.1-0.7-0.5-0.6-0.8l0.8-2.8l0.6-7.8c0-0.3,0.3-0.6,0.6-0.6c0.4,0,0.6,0.3,0.6,0.6
			l-0.6,7.9l-0.9,2.9C468.9,212.2,468.6,212.4,468.4,212.4z"/>
	</g>
	<g>
		<path class="st4" d="M471.5,225.6c-0.6,0-1.3-0.1-1.9-0.2c-1.1-0.2-2.1-1.6-2.2-1.9c-0.2-0.3-0.1-0.7,0.2-0.8
			c0.3-0.2,0.7-0.1,0.8,0.2c0.3,0.5,1,1.3,1.5,1.4c10.4,2,17.7-15.4,17.7-15.6c0.1-0.3,0.5-0.4,0.8-0.3c0.3,0.1,0.5,0.5,0.3,0.8
			C488.4,209.9,481.8,225.6,471.5,225.6z"/>
	</g>
	<g>
		<path class="st4" d="M471.7,191.9c-0.7,0-1.5-0.2-2.4-0.5c-0.3-0.1-0.5-0.5-0.3-0.8c0.1-0.3,0.5-0.4,0.8-0.3
			c1.3,0.5,2.4,0.6,3.3,0.1c1.5-0.8,2-2.7,2-2.7c0.1-0.3,0.4-0.5,0.7-0.5c0.3,0.1,0.5,0.4,0.5,0.7c0,0.1-0.6,2.5-2.6,3.5
			C473.1,191.8,472.4,191.9,471.7,191.9z"/>
	</g>
	<g>
		<path class="st4" d="M488.1,209.5c-0.3,0-0.6-0.3-0.6-0.6l0.4-17.4c0-0.3,0.3-0.6,0.6-0.6c0.3,0,0.6,0.3,0.6,0.6l-0.4,17.4
			C488.7,209.3,488.4,209.5,488.1,209.5z"/>
	</g>
	<g>
		<path class="st4" d="M465.6,209.8c-0.3,0-0.6-0.2-0.6-0.5c0-0.3,0.2-0.6,0.5-0.7c1.5-0.2,2.1-0.3,3.7-0.3c0.3,0,0.6,0.3,0.6,0.6
			c0,0.3-0.3,0.6-0.6,0.6C467.7,209.6,467.1,209.6,465.6,209.8C465.6,209.8,465.6,209.8,465.6,209.8z"/>
	</g>
	<g>
		<path class="st4" d="M465.5,186.6c-0.3,0-0.5-0.2-0.6-0.5c-0.3-1.4-1-4.8,0.2-5.7c0.7-0.6,2.3,0,3.4,0.5l1.4-7.5
			c0.1-0.3,0.4-0.6,0.7-0.5c0.3,0.1,0.5,0.4,0.5,0.7l-1.5,8.3c0,0.2-0.2,0.3-0.3,0.4c-0.2,0.1-0.4,0.1-0.5,0c-1.2-0.6-2.6-1.1-2.9-1
			c-0.3,0.3-0.2,2.4,0.2,4.5c0.1,0.3-0.1,0.6-0.4,0.7C465.6,186.6,465.6,186.6,465.5,186.6z"/>
	</g>
	<g>
		<g>
			<g>
				<path class="st4" d="M522.8,398.1c-2.2,0-4.3-1.5-4.9-3.6c-0.5-2.1,0.7-3.9,1.7-5.5c0.2-0.4,0.5-0.7,0.7-1
					c0.6-0.9,1.4-2.1,2.4-3.4c1.8-2.4,3.8-5,4.5-7.3l0.2-2.3c0-0.3,0.3-0.6,0.6-0.6c0.3,0,0.6,0.3,0.6,0.6l-0.2,2.4
					c-0.8,2.6-2.9,5.3-4.7,7.8c-0.9,1.2-1.8,2.4-2.3,3.2c-0.2,0.4-0.4,0.7-0.7,1.1c-1,1.5-2,3-1.6,4.6c0.5,1.8,2.6,3.1,4.5,2.6
					c0.9-0.2,1.8-0.8,2.8-1.8c0.8-0.8,1.5-1.8,2.2-2.7c0.5-0.8,1.1-1.5,1.7-2.3c1.6-1.8,3.5-3.6,6.6-3.4c6.3,0.5,11.5,1.6,16,3.3
					c1.4,0.5,2.9,1.3,4.5,2.1c4.1,2.1,8.3,4.3,12.3,2.4c0.5-0.2,0.9-0.5,1-0.8c0.4-0.6,0.1-1.5-0.2-2c-1.2-1.9-3.2-3.2-5.1-4.6
					l-0.4-0.3c-1.9-1.3-4-2.5-6.5-3.6c-2.3-1.1-5.1-2.3-8-2.9c-0.3-0.1-0.5-0.4-0.4-0.7c0.1-0.3,0.4-0.5,0.7-0.4
					c3,0.7,5.8,1.9,8.2,3c2.6,1.2,4.8,2.4,6.7,3.7l0.4,0.3c1.9,1.3,4.1,2.8,5.4,4.9c0.5,0.9,0.9,2.2,0.2,3.3
					c-0.3,0.5-0.8,0.9-1.6,1.3c-4.6,2.1-9.3-0.3-13.4-2.5c-1.5-0.8-2.9-1.5-4.3-2c-4.4-1.6-9.5-2.7-15.7-3.2c-2.5-0.2-4.1,1.3-5.6,3
					c-0.6,0.7-1.1,1.5-1.7,2.2c-0.7,1-1.4,2-2.3,2.9c-1.1,1.2-2.2,1.9-3.4,2.2C523.5,398.1,523.2,398.1,522.8,398.1z"/>
			</g>
		</g>
	</g>
	<g>
		<path class="st4" d="M154.6,232.7c-4.1,0-7.4-4.2-7.4-9.4c0-5.2,3.3-9.4,7.4-9.4c4.1,0,7.4,4.2,7.4,9.4
			C162,228.5,158.7,232.7,154.6,232.7z M154.6,215.2c-3.4,0-6.2,3.7-6.2,8.2c0,4.5,2.8,8.2,6.2,8.2c3.4,0,6.2-3.7,6.2-8.2
			C160.8,218.8,158,215.2,154.6,215.2z"/>
	</g>
	<g>
		<path class="st4" d="M174.9,232.7c-4.1,0-7.4-4.2-7.4-9.4c0-5.2,3.3-9.4,7.4-9.4c4.1,0,7.4,4.2,7.4,9.4
			C182.3,228.5,179,232.7,174.9,232.7z M174.9,215.2c-3.4,0-6.2,3.7-6.2,8.2c0,4.5,2.8,8.2,6.2,8.2c3.4,0,6.2-3.7,6.2-8.2
			C181.1,218.8,178.3,215.2,174.9,215.2z"/>
	</g>
	<g>
		<path class="st4" d="M167.8,223.9c-0.1,0-0.3-0.1-0.4-0.2c-1.1-1-2.1-1.5-3.1-1.4c-1.3,0.1-2.2,1.1-2.2,1.2
			c-0.2,0.3-0.6,0.3-0.8,0.1c-0.3-0.2-0.3-0.6-0.1-0.8c0-0.1,1.2-1.5,3.1-1.6c1.3-0.1,2.7,0.5,4,1.7c0.2,0.2,0.3,0.6,0,0.9
			C168.1,223.9,168,223.9,167.8,223.9z"/>
	</g>
	<g>
		<path class="st4" d="M152.9,258.1c-0.4,0-0.6-0.3-0.6-0.6l0.7-11.3c0-0.3,0.3-0.6,0.6-0.6c0.4,0,0.6,0.3,0.6,0.6l-0.7,11.3
			C153.4,257.9,153.2,258.1,152.9,258.1z"/>
	</g>
	<g>
		<path class="st4" d="M175.9,258.1c-0.3,0-0.6-0.3-0.6-0.6l-0.5-11.3c0-0.3,0.2-0.6,0.6-0.6c0.3,0,0.6,0.2,0.6,0.6l0.5,11.3
			C176.5,257.8,176.3,258.1,175.9,258.1C175.9,258.1,175.9,258.1,175.9,258.1z"/>
	</g>
	<g>
		<path class="st4" d="M164.4,234.9c-0.1,0-0.1,0-0.2,0c-0.4-0.2-3.8-1.5-4.5-3.2c-0.2-0.4-0.2-0.9,0-1.3c0.7-1.8,4-9.2,4.1-9.5
			c0.1-0.3,0.5-0.4,0.8-0.3c0.3,0.1,0.4,0.5,0.3,0.8c0,0.1-3.4,7.8-4.1,9.5c0,0.1,0,0.2,0,0.3c0.4,0.9,2.6,2.1,3.9,2.6
			c0.3,0.1,0.5,0.5,0.3,0.8C164.9,234.8,164.7,234.9,164.4,234.9z"/>
	</g>
	<g>
		<path class="st4" d="M183,218.9c-0.4-0.1-0.6-0.4-0.6-0.7l2.2-15.7l-1.6,2c-0.1,0.2-0.4,0.3-0.6,0.2c-0.2,0-0.4-0.2-0.5-0.5
			l-1.3-5.5l-0.6,1.2c-0.1,0.2-0.3,0.3-0.5,0.3c-0.2,0-0.4-0.1-0.5-0.2c-0.1-0.1-7.9-9.6-21.4-6c-10.4,2.7-14.7,9.7-16,12.4l4.9-1.6
			c0.2-0.1,0.4,0,0.6,0.1c0.2,0.1,0.2,0.3,0.2,0.6l-1.1,7.1c2.4-2.4,8-6.8,16.7-6.9c11.4-0.2,16.4,3.1,16.6,3.3
			c0.2,0.1,0.3,0.3,0.3,0.5v7c0,0.3-0.3,0.6-0.6,0.6s-0.6-0.3-0.6-0.6v-6.6c-1.1-0.6-6.1-3-15.6-2.9c-11.1,0.2-17.1,7.9-17.1,8
			c-0.2,0.2-0.5,0.3-0.7,0.2c-0.3-0.1-0.4-0.4-0.4-0.7l1.3-8.2l-5.2,1.7c-0.2,0.1-0.5,0-0.6-0.1c-0.2-0.2-0.2-0.4-0.1-0.6
			c0.1-0.4,3.6-10.7,17.3-14.3c12.1-3.2,19.9,3.6,22.1,5.8l1-1.9c0.1-0.2,0.3-0.3,0.6-0.3c0.3,0,0.5,0.2,0.5,0.5l1.3,5.9l2.2-2.8
			c0.2-0.2,0.5-0.3,0.7-0.2c0.2,0.1,0.4,0.4,0.4,0.6l-2.6,18C183.6,218.6,183.3,218.9,183,218.9z"/>
	</g>
	<g>
		<path class="st4" d="M148.9,218.9c-0.3,0-0.6-0.3-0.6-0.6v-7.1c0-0.3,0.3-0.6,0.6-0.6c0.3,0,0.6,0.3,0.6,0.6v7.1
			C149.6,218.6,149.3,218.9,148.9,218.9z"/>
	</g>
	<g>
		<path class="st4" d="M146.9,218.9c-0.3,0-0.6-0.2-0.6-0.6l-0.4-5c0-0.3,0.2-0.6,0.6-0.6c0.4-0.1,0.6,0.2,0.6,0.6l0.4,5
			C147.5,218.6,147.3,218.9,146.9,218.9C146.9,218.9,146.9,218.9,146.9,218.9z"/>
	</g>
	<g>
		<path class="st4" d="M164.6,249.8h-0.3c-14.6,0-15.5-10.2-15.6-11.4c-0.2-3.1-0.2-9.7-0.2-9.8c0-0.3,0.3-0.6,0.6-0.6
			c0.3,0,0.6,0.3,0.6,0.6c0,0.1,0,6.6,0.2,9.7c0.1,1.7,1.2,10.2,14.4,10.2h0.3c13.2,0,14.3-8.5,14.4-10.2c0.2-3.1,0.3-9,0.3-9.1
			c0-0.3,0.3-0.5,0.6-0.6c0.3,0,0.6,0.3,0.6,0.6c0,0.1-0.2,6-0.3,9.1C180.1,239.6,179.2,249.8,164.6,249.8z"/>
	</g>
	<g>
		<g>
			<path class="st4" d="M129.2,217.7c-0.1,0-0.2,0-0.3-0.1l-17.3-11.1H71.5c-6.2,0-11.3-5.1-11.3-11.3v-20.1
				c0-6.2,5.1-11.3,11.3-11.3h47.1c6.2,0,11.3,5.1,11.3,11.3v20.1c0,0.3,0,0.6,0,0.9c0,0.2,0,21,0,21c0,0.2-0.1,0.4-0.3,0.5
				C129.4,217.7,129.3,217.7,129.2,217.7z M71.5,165.1c-5.5,0-10.1,4.5-10.1,10.1v20.1c0,5.5,4.5,10.1,10.1,10.1h40.2
				c0.1,0,0.2,0,0.3,0.1l16.6,10.6v-19.4c0-0.1-0.1-0.2-0.1-0.3c0-0.3,0.1-0.7,0.1-1.1v-20.1c0-5.5-4.5-10.1-10.1-10.1H71.5z"/>
		</g>
		<g>
			<path class="st4" d="M85.2,180.1h-11c-0.3,0-0.6-0.3-0.6-0.6s0.3-0.6,0.6-0.6h11c0.3,0,0.6,0.3,0.6,0.6S85.5,180.1,85.2,180.1z"
				/>
		</g>
		<g>
			<path class="st4" d="M116.1,180.1H98.4c-0.3,0-0.6-0.3-0.6-0.6s0.3-0.6,0.6-0.6h17.7c0.3,0,0.6,0.3,0.6,0.6
				S116.4,180.1,116.1,180.1z"/>
		</g>
		<g>
			<path class="st4" d="M116.1,191.4H74.2c-0.3,0-0.6-0.3-0.6-0.6s0.3-0.6,0.6-0.6h41.9c0.3,0,0.6,0.3,0.6,0.6
				S116.4,191.4,116.1,191.4z"/>
		</g>
	</g>
	<g>
		<path class="st4" d="M573.1,393.8c-0.5,0-0.9,0-1.2-0.1c-0.3-0.1-0.5-0.4-0.5-0.7c0.1-0.3,0.4-0.5,0.7-0.5c0.1,0,3.7,0.7,5.2-2.3
			c0.3-0.6,0.3-1.2,0-1.8c-1.6-3.5-10.5-8-21.7-11c-0.3-0.1-0.5-0.4-0.4-0.7c0.1-0.3,0.4-0.5,0.7-0.4c9.7,2.6,20.4,7.2,22.4,11.6
			c0.5,1,0.5,2,0,2.9C577.1,393.1,574.8,393.8,573.1,393.8z"/>
	</g>
	<g>
		<path class="st4" d="M523.7,375.6c-6.6,0-10.8-0.7-10.9-0.7c-0.2,0-0.4-0.2-0.5-0.4c-14.1-45.3-17.2-114.7-17.3-115.4
			c0-0.3,0.2-0.6,0.6-0.6c0.3,0.1,0.6,0.2,0.6,0.6c0,0.7,3.1,69.6,17.1,114.8c3,0.4,24,3,45.1-6.3c-1.3-6.8-16.7-84.3-26.1-114.2
			c-0.2-0.5-0.4-1.5-0.7-2.7c-1.9-7.8-7.1-28.6-17.2-34.7c-6.3-3.8-12.8-6.2-25.6-6.2c-0.3,0-0.6-0.3-0.6-0.6c0-0.3,0.3-0.6,0.6-0.6
			c13.1,0,19.7,2.4,26.2,6.4c10.5,6.4,15.8,27.5,17.7,35.5c0.3,1.2,0.5,2.1,0.7,2.6c9.8,31.1,26.1,113.9,26.2,114.8
			c0.1,0.3-0.1,0.6-0.3,0.7C546,374.3,532.7,375.6,523.7,375.6z"/>
	</g>
	<g>
		<path class="st4" d="M577.6,388.3c-0.2,0-0.3-0.1-0.4-0.2c-0.2-0.2-0.2-0.6,0-0.8c0,0,0.6-0.7,0.5-1.7c-0.2-1.3-1.6-3.3-6.9-5.7
			c-2.4-1.1-4.6-1.8-6.8-2.5c-4.6-1.5-8.5-2.8-11-6.7c-0.2-0.3-0.1-0.7,0.2-0.8c0.3-0.2,0.7-0.1,0.8,0.2c2.2,3.5,5.8,4.7,10.4,6.2
			c2.2,0.7,4.5,1.5,7,2.6c4.7,2.1,7.2,4.4,7.6,6.6c0.3,1.7-0.8,2.7-0.8,2.7C577.9,388.2,577.7,388.3,577.6,388.3z"/>
	</g>
	<g>
		<path class="st4" d="M364.5,387.4c-0.3,0-0.6-0.3-0.6-0.6c0.3-10.5,1.5-21.2,8.3-27.4c12.7-11.7,26.3-11.4,39.4-11.1
			c3.5,0.1,7.1,0.2,10.6,0c0.3,0,0.6,0.2,0.6,0.6c0,0.3-0.2,0.6-0.6,0.6c-3.6,0.2-7.2,0.1-10.7,0c-12.9-0.3-26.3-0.6-38.6,10.8
			c-6.5,6-7.6,16.3-7.9,26.6C365.1,387.1,364.9,387.4,364.5,387.4z"/>
	</g>
	<g>
		<path class="st4" d="M416.8,328.6c-1.5,0-3-0.2-4.6-0.7c-6.7-2.1-11.3-5.6-13.6-10.4c-4.6-9.7,0.8-22.9,4.8-32.5
			c0.7-1.8,1.4-3.5,2-5.1c5-13.3,18.6-46.9,18.8-47.3c0.1-0.2,0.3-0.4,0.6-0.4c0.2,0,21.4,2.1,35.9,13.8c0.2,0.1,0.3,0.4,0.2,0.6
			c0,0.2-3.2,16-9.3,35.7C444.6,305.6,431.9,328.6,416.8,328.6z M425.2,233.6c-1.6,3.9-13.9,34.3-18.6,46.8c-0.6,1.5-1.3,3.3-2,5.1
			c-3.9,9.4-9.2,22.4-4.8,31.6c2.1,4.5,6.4,7.8,12.8,9.7c21,6.4,35.3-36.1,38-44.7c5.6-18,8.7-32.8,9.2-35.3
			C446.7,236.5,428.2,233.9,425.2,233.6z"/>
	</g>
	<g>
		<path class="st4" d="M454.5,232.2c-0.1,0-0.2,0-0.2,0c-3.2-1.3-6.2-2.9-8.8-4.6c-0.3-0.2-0.3-0.6-0.2-0.8c0.2-0.3,0.6-0.3,0.8-0.2
			c2.5,1.7,5.4,3.2,8.6,4.5c0.3,0.1,0.5,0.5,0.3,0.8C455,232,454.8,232.2,454.5,232.2z"/>
	</g>
	<g>
		<path class="st4" d="M463.3,230.2c-0.4,0-0.8-0.1-1.3-0.2c-0.3-0.1-0.5-0.4-0.4-0.7c0.1-0.3,0.4-0.5,0.7-0.4
			c2.5,0.7,3.6-1.4,4.5-3.7l0.2-0.4c1-2.5-0.5-4.3-5.4-8.4c-1.5-1.2-3.1-2-4.8-2.9c-0.6-0.3-1.2-0.6-1.9-1c-0.3-0.2-0.4-0.5-0.2-0.8
			c0.2-0.3,0.5-0.4,0.8-0.2c0.6,0.3,1.2,0.6,1.8,0.9c1.7,0.8,3.4,1.7,5,3c4.5,3.7,7.2,6.2,5.8,9.7l-0.2,0.4
			C467.2,227.2,466.1,230.2,463.3,230.2z"/>
	</g>
	<g>
		<path class="st4" d="M431.8,234.7c-0.2,0-0.3-0.1-0.4-0.2c-0.2-0.2-0.2-0.6,0-0.9c0.1-0.1,6-5.9,7.1-10.6
			c3.6-16.1,11.6-18.6,16.1-18.6c6.8,0,15,5.9,16.4,10.4c1.7,5.4-2.4,7.9-2.4,7.9c-0.3,0.2-0.7,0.1-0.8-0.2
			c-0.2-0.3-0.1-0.7,0.2-0.8c0.1-0.1,3.3-2,1.9-6.5c-1.3-4.1-9-9.6-15.3-9.6c-4.1,0-11.5,2.3-14.9,17.6c-1.1,5.1-7.1,11-7.4,11.3
			C432.1,234.6,432,234.7,431.8,234.7z"/>
	</g>
	<g>
		<path class="st4" d="M449.9,240.5c-0.5-0.1-0.7-0.5-0.6-0.8c0.7-2.2,2.8-5.5,2.9-5.6c0.2-0.3,0.5-0.4,0.8-0.2
			c0.3,0.2,0.4,0.6,0.2,0.8c0,0-2.1,3.2-2.7,5.3C450.4,240.4,450.2,240.5,449.9,240.5z"/>
	</g>
	<g>
		<path class="st4" d="M463,390.4c-36.5,0-47-11.4-47.4-11.9c-0.2-0.2-0.2-0.6,0-0.8c0.3-0.2,0.6-0.2,0.8,0
			c0.1,0.1,10.7,11.5,46.6,11.5c1,0,2,0,3.1,0c38.6-0.7,42.3-9,43.9-22.6c0-0.3,0.3-0.5,0.7-0.5c0.3,0,0.6,0.3,0.5,0.7
			c-1.6,13.9-5.6,23-45.1,23.7C465.1,390.4,464.1,390.4,463,390.4z"/>
	</g>
	<g>
		<path class="st4" d="M456.3,235.6c-2.7,0-4.9-1.7-5-1.8c-0.3-0.2-0.3-0.6-0.1-0.8c0.2-0.3,0.6-0.3,0.8-0.1c0,0,2.8,2.1,5.5,1.4
			c1.6-0.4,2.9-1.8,3.8-4c0.7-1.7-0.5-4-1.4-4.7c-2.4-2.1-5.4-3.6-9.2-5.4c-0.3-0.1-0.4-0.5-0.3-0.8c0.1-0.3,0.5-0.4,0.8-0.3
			c3.8,1.8,7,3.4,9.5,5.6c1,0.9,2.6,3.8,1.7,6.1c-1.1,2.6-2.7,4.2-4.7,4.7C457.3,235.5,456.8,235.6,456.3,235.6z"/>
	</g>
	<g>
		<path class="st4" d="M488.8,195.4c-0.3,0-0.6-0.2-0.6-0.5c0-0.3,0.2-0.6,0.5-0.7c9.4-0.9,15.9-11.2,15.4-24.5
			c-0.2-4.7-1.7-8.3-4.4-10.6c-4.5-3.8-10.8-3.1-10.9-3.1c-0.1,0-0.3,0-0.4-0.1c-0.5-0.4-12.9-9.8-22.9,0.2
			c-4.4,4.4-5.2,8.7-5.3,10.1l7,1.1l3.6-3.9c0.2-0.2,0.4-0.3,0.7-0.1c0.2,0.1,0.4,0.3,0.4,0.6l-0.3,4.6l16.1,3.4l2.3-5.4
			c0.1-0.3,0.4-0.4,0.7-0.3c0.3,0.1,0.5,0.4,0.4,0.7c0,0.1-1.8,8.8-1.2,11.9c0.1,0.3-0.1,0.6-0.5,0.7c-0.4,0.1-0.6-0.1-0.7-0.5
			c-0.4-1.7-0.1-4.7,0.3-7.4l-0.5,1.2c-0.1,0.3-0.4,0.4-0.7,0.4l-17.1-3.6c-0.3-0.1-0.5-0.3-0.5-0.6l0.3-3.4l-2.7,2.9
			c-0.1,0.1-0.3,0.2-0.5,0.2l-7.9-1.3c-0.3,0-0.5-0.3-0.5-0.6c0-0.2-0.1-5.7,5.7-11.5c10.1-10,22.6-1.6,24.3-0.4
			c1.3-0.1,7.2-0.4,11.6,3.4c3,2.6,4.6,6.4,4.8,11.5C505.9,183.6,499,194.4,488.8,195.4C488.9,195.4,488.8,195.4,488.8,195.4z"/>
	</g>
	<g>
		<path class="st4" d="M507.7,207.6c0,0-11.7-0.5-11.7-0.5c-0.2,0-0.3-0.1-0.4-0.2c-0.1-0.1-0.2-0.3-0.2-0.4l1.2-15.2
			c0-0.3,0.3-0.7,0.6-0.6c0.3,0,0.6,0.3,0.6,0.6l-1.1,14.6l11.1,0.5c0.3,0,0.6,0.3,0.6,0.6C508.3,207.4,508.1,207.6,507.7,207.6z"/>
	</g>
	<g>
		<path class="st4" d="M518,209.6c0,0-10.1-0.1-10.1-0.1c-0.3,0-0.6-0.3-0.6-0.6v-8.5c0-0.3,0.3-0.6,0.6-0.6c0.3,0,0.6,0.3,0.6,0.6
			v7.9l8.9,0.1l-0.3-10.5c-0.1-1.9,0-3.7,0-5.6l0-1.3c0-6.7,0.1-13.7-0.4-20.5l-0.1-1.3c-0.4-6.1-0.9-13.6-5.3-18.1
			c-1.9-1.9-4.6-3.3-8.2-4.2c-3-0.7-13.1-2.4-15.8,6.8c-0.1,0.3-0.4,0.5-0.7,0.4c-0.3-0.1-0.5-0.4-0.4-0.7
			c2.4-8.1,10.5-9.2,17.3-7.6c3.9,0.9,6.7,2.4,8.8,4.5c4.7,4.8,5.2,12.6,5.6,18.8l0.1,1.3c0.5,6.9,0.5,13.8,0.4,20.6l0,1.3
			c0,1.8,0,3.7,0,5.5l0.3,11.1c0,0.2-0.1,0.3-0.2,0.4C518.3,209.5,518.2,209.6,518,209.6z"/>
	</g>
	<g>
		<path class="st4" d="M226.6,203.9c-0.2,0-0.4-0.1-0.5-0.3c-1.7-3.6-2.9-14,0.1-25c1.6-6,1.8-9.8,0.4-11.6
			c-0.7-0.9-1.9-1.4-3.6-1.4c-4,0-4.5,3.5-5,7.6c-0.4,3.2-0.8,6.5-3.1,8.3c-4.6,3.6-3.1,9.5-3,9.7c0.1,0.3-0.1,0.7-0.4,0.7
			c-0.3,0.1-0.6-0.1-0.7-0.4c-0.1-0.3-1.8-6.9,3.4-11c1.9-1.5,2.3-4.6,2.7-7.5c0.5-4.1,1.1-8.7,6.2-8.7c2.1,0,3.6,0.6,4.6,1.8
			c1.6,2.1,1.6,6.2-0.2,12.7c-3.2,11.7-1.5,21.5-0.2,24.1c0.1,0.3,0,0.7-0.3,0.8C226.8,203.9,226.7,203.9,226.6,203.9z"/>
	</g>
	<g>
		<path class="st4" d="M208.1,184.2c-0.2,0-0.3-0.1-0.5-0.2c-4.8-5.6-9.6-12.9-12.8-17.9c-0.3-0.5-0.7-1.1-0.8-1.7
			c-0.3-1.3,0.2-2.9,1.5-4c1.5-1.4,3.7-1.8,5.7-1.1c1.8,0.6,3.2,2.4,4.1,3.7c1.6,2.3,3.1,4.2,4.4,5.8c2.5,3.2,4.6,6,6.7,9.7
			c0.2,0.3,0.1,0.7-0.2,0.8c-0.3,0.2-0.7,0.1-0.8-0.2c-2.1-3.7-4.1-6.3-6.6-9.6c-1.3-1.7-2.8-3.6-4.4-5.9c-0.8-1.1-2.1-2.7-3.5-3.2
			c-1.6-0.5-3.3-0.2-4.5,0.9c-0.9,0.8-1.3,1.9-1.1,2.8c0.1,0.5,0.4,0.9,0.7,1.4c2.6,4.1,7.6,12,12.7,17.8c0.2,0.2,0.2,0.6-0.1,0.8
			C208.3,184.1,208.2,184.2,208.1,184.2z"/>
	</g>
	<g>
		<path class="st4" d="M201,188.8c-0.2,0-0.3-0.1-0.5-0.2c-4.6-5.4-8.9-11.5-12.9-18.2c-0.4-0.8-0.8-1.5-0.9-2.4c0-1.4,1-2.7,2-3.4
			c1.9-1.4,4.3-1.5,6.4-0.2c0.3,0.2,0.4,0.6,0.2,0.8c-0.2,0.3-0.6,0.4-0.8,0.2c-2.4-1.5-4.3-0.4-5.1,0.1c-0.7,0.5-1.5,1.5-1.5,2.4
			c0,0.6,0.3,1.1,0.7,1.8c3.9,6.7,8.2,12.7,12.7,18c0.2,0.2,0.2,0.6-0.1,0.8C201.3,188.7,201.1,188.8,201,188.8z"/>
	</g>
	<g>
		<path class="st4" d="M202.9,208.5c-0.3,0-0.6-0.2-0.6-0.5c-0.6-4.8-3.2-9.3-5.5-11.9c-3.9-4.5-11.1-12.6-14.3-19
			c-0.6-1.1-1.2-2.4-0.9-3.8c0.2-1.3,1.1-2.4,2.4-3.1c1.2-0.6,2.6-1.1,4.2-0.6c0.3,0.1,0.5,0.4,0.4,0.8c-0.1,0.3-0.5,0.5-0.8,0.4
			c-1.1-0.4-2.1-0.1-3.3,0.5c-0.9,0.5-1.6,1.3-1.8,2.2c-0.2,1,0.3,2.1,0.8,3.1c3.2,6.3,10.3,14.4,14.1,18.7
			c2.5,2.8,5.3,7.6,5.9,12.6C203.6,208.2,203.3,208.5,202.9,208.5C203,208.5,202.9,208.5,202.9,208.5z"/>
	</g>
	<g>
		<path class="st4" d="M348.1,323.4c-0.3,0-0.5-0.2-0.6-0.5l-12.8-61.5c-0.1-0.3,0.1-0.6,0.5-0.7c0.3-0.1,0.6,0.1,0.7,0.5l12.2,58.6
			l11.9-58.6c0.1-0.3,0.3-0.5,0.7-0.5c0.3,0.1,0.5,0.4,0.5,0.7l-12.5,61.5C348.6,323.2,348.4,323.4,348.1,323.4L348.1,323.4z"/>
	</g>
	<g>
		<path class="st4" d="M399.4,298.2c-0.3,0-0.6-0.2-0.6-0.5l-3.3-30c0-0.3,0.2-0.6,0.5-0.7c0.3,0,0.6,0.2,0.7,0.5l3.3,30
			C400.1,297.9,399.8,298.2,399.4,298.2C399.5,298.2,399.4,298.2,399.4,298.2z"/>
	</g>
	<g>
		<path class="st4" d="M405,349.4c-0.3,0-0.6-0.2-0.6-0.5l-3-27.4c0-0.3,0.2-0.6,0.5-0.7c0.3,0,0.6,0.2,0.7,0.5l3,27.4
			C405.6,349,405.4,349.3,405,349.4C405,349.4,405,349.4,405,349.4z"/>
	</g>
	<g>
		<path class="st4" d="M286.7,387.4c-0.4,0-0.6-0.3-0.6-0.7L299,267.5c0-0.3,0.3-0.5,0.7-0.5c0.3,0,0.6,0.3,0.5,0.7l-12.9,119.2
			C287.3,387.2,287,387.4,286.7,387.4z"/>
	</g>
	<g>
		<path class="st4" d="M348.8,178.1c-0.8,0-1.7-0.1-2.5-0.3c-2.4-0.6-5-2.2-5.7-4.6c-1.1,1.2-3.3,3-6.6,3.7
			c-4.7,0.9-10.4-0.1-11.6-4.5c-0.2-0.8-0.2-1.7-0.1-2.7c0.3-1.7,1-3.2,2.1-4.4c2-2.1,5.1-2.7,9.1-1.9c0.3,0.1,0.5,0.4,0.5,0.7
			c-0.1,0.3-0.4,0.6-0.7,0.5c-3.6-0.8-6.3-0.3-8,1.5c-0.9,1-1.5,2.3-1.8,3.7c-0.1,0.8-0.1,1.6,0,2.2c1.2,4.3,7.2,4.3,10.2,3.7
			c4.6-0.9,6.7-4.4,6.7-4.4c0.1-0.2,0.4-0.4,0.7-0.3c0.3,0.1,0.4,0.3,0.4,0.6c-0.2,2.6,2.6,4.3,5,5c2.1,0.6,5.3,0.5,7.2-1.7
			c0.2-0.3,0.6-0.3,0.8,0c0.3,0.2,0.3,0.6,0,0.8C353.3,177.3,351.1,178.1,348.8,178.1z"/>
	</g>
	<g>
		<path class="st4" d="M355.1,188.5c-0.2,0-0.4-0.1-0.5-0.3c-2.9-4.3-0.9-13.6-0.8-13.7c0.1-0.3,0.4-0.5,0.7-0.4
			c0.3,0.1,0.5,0.4,0.4,0.7c0,0.1-2,8.8,0.7,12.7c0.2,0.3,0.1,0.7-0.2,0.8C355.3,188.4,355.2,188.5,355.1,188.5z"/>
	</g>
	<g>
		<path class="st4" d="M330.9,164.2c-0.1,0-0.1,0-0.2,0c-1.8-0.7-2.4-2.9-2-4.7c0.3-1.4,1.2-2.6,2.6-3.5c3.6-2.1,8.5-1.5,11.2,1.6
			c0.2,0.2,0.2,0.6,0,0.8c-0.3,0.2-0.6,0.2-0.8,0c-2.4-2.6-6.6-3.2-9.7-1.4c-1.1,0.7-1.8,1.6-2.1,2.7c-0.3,1.3,0.1,2.9,1.3,3.3
			c0.3,0.1,0.5,0.5,0.3,0.8C331.4,164.1,331.2,164.2,330.9,164.2z"/>
	</g>
	<g>
		<path class="st4" d="M366.1,186.1c-0.1,0-0.2,0-0.3-0.1c-0.3-0.2-0.4-0.6-0.2-0.8c3-4.7,7.4-13.5,2.7-19.6
			c-1.1-1.4-2.6-2.5-4.3-3.2c-0.8-0.3-1.7-0.5-2.6-0.7c0,0-0.2,0-0.4,0c-1.5-0.2-1.7-0.2-1.8-0.5l-0.2-0.4c-2-3.9-4.8-6.3-8.6-7.1
			c-2.9-0.7-6.7-0.1-8.5,3.4c-0.2,0.3-0.5,0.4-0.8,0.3c-0.3-0.2-0.4-0.5-0.3-0.8c1.7-3.4,5.6-5,9.8-4c4.1,0.9,7.2,3.5,9.4,7.7
			c0.4,0.2,0.9,0.3,1.1,0.3c0.2,0,0.4,0,0.5,0.1c0.9,0.2,1.9,0.3,2.8,0.7c1.9,0.8,3.6,2,4.8,3.6c5.2,6.7,0.6,16-2.6,21
			C366.5,186,366.3,186.1,366.1,186.1z"/>
	</g>
	<g>
		<path class="st4" d="M334.3,198.6c-0.1,0-0.3,0-0.4-0.1c-1.5-1.1-3.9-3-2.4-5.1c0.5-0.7,1.1-1.3,1.7-1.9c0.7-0.7,1.4-1.3,1.9-2.2
			c1.8-3.3-0.4-7-0.5-7.1c-0.2-0.3-0.1-0.7,0.2-0.8c0.3-0.2,0.7-0.1,0.8,0.2c0.1,0.2,2.6,4.4,0.5,8.3c-0.6,1-1.4,1.8-2.1,2.5
			c-0.6,0.5-1.1,1.1-1.6,1.7c-0.7,1,0.2,2,2,3.4l0.2,0.1c0.3,0.2,0.3,0.6,0.1,0.8C334.7,198.5,334.5,198.6,334.3,198.6z"/>
	</g>
	<g>
		<path class="st4" d="M348.4,387.4c-0.3,0-0.6-0.3-0.6-0.6l-0.4-64c0-0.3,0.3-0.6,0.6-0.6c0.3,0,0.6,0.3,0.6,0.6l0.4,64
			C349,387.1,348.8,387.4,348.4,387.4L348.4,387.4z"/>
	</g>
	<g>
		<path class="st4" d="M356.2,343c-1.8,0-3.3-1.5-3.3-3.3c0-1.8,1.5-3.3,3.3-3.3s3.3,1.5,3.3,3.3C359.5,341.5,358,343,356.2,343z
			 M356.2,337.6c-1.2,0-2.1,1-2.1,2.1c0,1.2,1,2.1,2.1,2.1s2.1-1,2.1-2.1C358.3,338.5,357.4,337.6,356.2,337.6z"/>
	</g>
	<g>
		<path class="st4" d="M356.2,370.1c-1.8,0-3.3-1.5-3.3-3.3c0-1.8,1.5-3.3,3.3-3.3s3.3,1.5,3.3,3.3
			C359.5,368.6,358,370.1,356.2,370.1z M356.2,364.6c-1.2,0-2.1,1-2.1,2.1s1,2.1,2.1,2.1s2.1-1,2.1-2.1S357.4,364.6,356.2,364.6z"/>
	</g>
	<g>
		<path class="st4" d="M507.7,197.4c-0.3,0-0.6-0.3-0.6-0.6v-7.2c0-0.3,0.3-0.6,0.6-0.6c0.3,0,0.6,0.3,0.6,0.6v7.2
			C508.3,197.1,508,197.4,507.7,197.4z"/>
	</g>
	<g>
		<path class="st4" d="M482.6,176.2c-0.2,0-0.4-0.1-0.6-0.4c-2-4.6-5.8-3.3-6-3.2c-0.3,0.1-0.7,0-0.8-0.4c-0.1-0.3,0-0.7,0.4-0.8
			c0,0,5-1.7,7.5,3.9c0.1,0.3,0,0.7-0.3,0.8C482.8,176.2,482.7,176.2,482.6,176.2z"/>
	</g>
	<g>
		<path class="st4" d="M547,325c-8,0-15.2-6.2-17-15.3c-2.1-10.4,3.2-20,12.1-21.8c0.3-0.1,0.6,0.1,0.7,0.5c0.1,0.3-0.1,0.6-0.5,0.7
			c-8.4,1.7-13.2,10.5-11.2,20.4c2,9.6,10.3,15.8,18.8,14c0.3-0.1,0.6,0.1,0.7,0.5c0.1,0.3-0.1,0.6-0.5,0.7
			C549.1,324.9,548.1,325,547,325z"/>
	</g>
	<g>
		<path class="st4" d="M62.9,338.7c-0.1,0-0.1,0-0.2,0c-1.1-0.4-2.1-0.9-3.1-1.3c-0.3-0.1-0.4-0.5-0.3-0.8c0.1-0.3,0.5-0.4,0.8-0.3
			c1,0.5,2,0.9,3.1,1.3c0.3,0.1,0.5,0.5,0.3,0.8C63.4,338.6,63.1,338.7,62.9,338.7z M53.7,334.2c-0.1,0-0.2,0-0.3-0.1
			c-2-1.2-4-2.5-5.8-3.9c-0.3-0.2-0.3-0.6-0.1-0.8c0.2-0.3,0.6-0.3,0.8-0.1c1.8,1.4,3.7,2.6,5.7,3.8c0.3,0.2,0.4,0.5,0.2,0.8
			C54.1,334.1,53.9,334.2,53.7,334.2z M42.7,325.8c-0.2,0-0.3-0.1-0.4-0.2c-1.7-1.6-3.2-3.4-4.7-5.2c-0.2-0.3-0.2-0.6,0.1-0.8
			c0.3-0.2,0.6-0.2,0.8,0.1c1.4,1.8,2.9,3.5,4.6,5.1c0.2,0.2,0.2,0.6,0,0.9C43,325.8,42.8,325.8,42.7,325.8z M34.2,314.9
			c-0.2,0-0.4-0.1-0.5-0.3c-0.7-1.3-1.4-2.6-2.1-3.9c-0.4-0.8-0.7-1.5-1.1-2.3c-0.1-0.3,0-0.7,0.3-0.8c0.3-0.1,0.7,0,0.8,0.3
			c0.3,0.8,0.7,1.5,1.1,2.3c0.6,1.3,1.3,2.6,2,3.8c0.2,0.3,0.1,0.7-0.2,0.8C34.4,314.9,34.3,314.9,34.2,314.9z M28.6,302.3
			c-0.3,0-0.5-0.2-0.6-0.4c-0.8-2.2-1.4-4.5-2-6.7c-0.1-0.3,0.1-0.6,0.4-0.7c0.3,0,0.7,0.1,0.7,0.4c0.5,2.2,1.2,4.4,1.9,6.6
			c0.1,0.3-0.1,0.7-0.4,0.8C28.7,302.3,28.6,302.3,28.6,302.3z M25.3,288.9c-0.3,0-0.6-0.2-0.6-0.5c-0.3-2.3-0.5-4.7-0.6-7
			c0-0.3,0.2-0.6,0.6-0.6c0.3,0,0.6,0.3,0.6,0.6c0.1,2.2,0.3,4.5,0.6,6.8C26,288.5,25.7,288.8,25.3,288.9
			C25.4,288.9,25.3,288.9,25.3,288.9z M24.9,275.1c-0.4,0-0.6-0.3-0.6-0.7c0.2-2.4,0.6-4.7,1.1-6.9c0.1-0.3,0.4-0.5,0.7-0.5
			c0.3,0.1,0.5,0.4,0.5,0.7c-0.5,2.2-0.8,4.5-1,6.8C25.5,274.8,25.2,275.1,24.9,275.1z M27.9,261.6c-0.5-0.2-0.7-0.5-0.6-0.8
			c0.7-1.8,1.5-3.6,2.4-5.4c0.2-0.3,0.4-0.7,0.5-1c0.2-0.3,0.5-0.4,0.8-0.2c0.3,0.2,0.4,0.5,0.2,0.8c-0.2,0.3-0.3,0.6-0.5,1
			c-0.9,1.7-1.7,3.4-2.4,5.2C28.4,261.4,28.2,261.6,27.9,261.6z M93.5,258.8c-0.3,0-0.7,0-1,0c-0.3,0-0.6-0.3-0.6-0.6
			c0-0.3,0.3-0.6,0.6-0.6c2.3,0.1,4.6-0.3,6.5-1.2c0.3-0.1,0.7,0,0.8,0.3c0.1,0.3,0,0.7-0.3,0.8C97.8,258.3,95.7,258.8,93.5,258.8z
			 M86.1,256.6c-0.1,0-0.2,0-0.3-0.1c-1.9-1.2-3.6-2.9-5.1-4.9c-0.2-0.3-0.1-0.6,0.1-0.8c0.3-0.2,0.6-0.1,0.8,0.1
			c1.4,1.9,3,3.5,4.8,4.6c0.3,0.2,0.4,0.6,0.2,0.8C86.5,256.5,86.3,256.6,86.1,256.6z M104.1,252.7c-0.1,0-0.2,0-0.2-0.1
			c-0.3-0.1-0.4-0.5-0.3-0.8c0.5-1.2,0.8-2.5,0.8-3.8c0-0.8-0.1-1.7-0.3-2.6c-0.1-0.3,0.1-0.6,0.5-0.7c0.3-0.1,0.6,0.1,0.7,0.5
			c0.2,1,0.3,1.9,0.3,2.9c0,1.5-0.3,3-0.9,4.3C104.5,252.5,104.3,252.7,104.1,252.7z M34.7,249.6c-0.1,0-0.3,0-0.4-0.1
			c-0.3-0.2-0.3-0.6-0.1-0.8c1.4-1.8,3-3.6,4.6-5.2c0.2-0.2,0.6-0.2,0.9,0c0.2,0.2,0.2,0.6,0,0.8c-1.6,1.6-3.2,3.3-4.5,5.1
			C35,249.5,34.8,249.6,34.7,249.6z M77.8,245.8c-0.2,0-0.5-0.1-0.6-0.4c-0.4-1-0.8-2.1-1.1-3.2c-0.3-1.1-0.7-2.3-1-3.5
			c-0.1-0.3,0.1-0.7,0.4-0.7c0.3-0.1,0.7,0.1,0.7,0.4c0.3,1.2,0.6,2.3,1,3.4c0.3,1,0.7,2.1,1.1,3.1c0.1,0.3,0,0.7-0.3,0.8
			C77.9,245.8,77.8,245.8,77.8,245.8z M44.5,239.8c-0.2,0-0.4-0.1-0.5-0.2c-0.2-0.3-0.2-0.6,0.1-0.8c1.8-1.4,3.8-2.7,5.8-3.9
			c0.3-0.2,0.7-0.1,0.8,0.2c0.2,0.3,0.1,0.7-0.2,0.8c-2,1.1-3.9,2.4-5.7,3.8C44.7,239.8,44.6,239.8,44.5,239.8z M101.4,239.8
			c-0.2,0-0.3-0.1-0.5-0.2c-1.3-1.6-3-3-5.1-4.4c-0.3-0.2-0.4-0.6-0.2-0.8c0.2-0.3,0.6-0.3,0.8-0.2c2.2,1.5,4,3,5.3,4.6
			c0.2,0.3,0.2,0.6-0.1,0.8C101.7,239.7,101.6,239.8,101.4,239.8z M56.4,232.9c-0.2,0-0.5-0.1-0.6-0.4c-0.1-0.3,0-0.7,0.3-0.8
			c2.2-0.9,4.4-1.7,6.6-2.3c0.3-0.1,0.7,0.1,0.7,0.4c0.1,0.3-0.1,0.7-0.4,0.7c-2.2,0.6-4.3,1.3-6.5,2.2
			C56.6,232.9,56.5,232.9,56.4,232.9z M74.2,232.4c-0.3,0-0.5-0.2-0.6-0.5c-0.2-0.9-0.3-1.9-0.5-2.8c-1.1,0-2.2,0.1-3.3,0.3
			c-0.3,0-0.6-0.2-0.7-0.5c0-0.3,0.2-0.6,0.5-0.7c1.1-0.1,2.1-0.2,3.2-0.3c-0.1-0.9-0.3-1.9-0.4-2.8c0-0.3,0.2-0.6,0.5-0.7
			c0.3-0.1,0.6,0.2,0.7,0.5c0.1,1,0.3,2,0.4,3c0.3,0,0.7,0,1,0c0.5,0,1,0,1.5,0c0.3,0,0.6,0.3,0.6,0.6c0,0.3-0.3,0.6-0.6,0.6
			c-0.6,0-1.2,0-1.7,0c-0.2,0-0.4,0-0.6,0c0.2,0.9,0.3,1.8,0.5,2.6c0.1,0.3-0.2,0.6-0.5,0.7C74.3,232.4,74.2,232.4,74.2,232.4z
			 M90.1,232c-0.1,0-0.2,0-0.2,0c-2.1-0.9-4.3-1.5-6.5-2c-0.3-0.1-0.5-0.4-0.5-0.7c0.1-0.3,0.4-0.5,0.7-0.5c2.3,0.5,4.6,1.2,6.7,2.1
			c0.3,0.1,0.5,0.5,0.3,0.8C90.6,231.9,90.4,232,90.1,232z M72.3,218.7c-0.3,0-0.6-0.2-0.6-0.5c-0.2-2.3-0.4-4.6-0.5-6.9
			c0-0.3,0.2-0.6,0.6-0.6c0.3,0,0.6,0.2,0.6,0.6c0.1,2.3,0.3,4.6,0.5,6.9C72.9,218.4,72.7,218.7,72.3,218.7
			C72.3,218.7,72.3,218.7,72.3,218.7z"/>
	</g>
	<g>
		<path class="st4" d="M137.4,161.5c-0.3-0.1-0.4-0.4-0.4-0.7c0.1-0.6,0.2-1.2,0.4-1.8c0.1-0.3,0.4-0.5,0.7-0.4
			c0.3,0.1,0.5,0.4,0.4,0.7c-0.1,0.6-0.3,1.2-0.4,1.7c-0.1,0.3-0.4,0.5-0.7,0.5C137.5,161.5,137.4,161.5,137.4,161.5z M140,153.2
			c-0.3-0.1-0.5-0.5-0.3-0.8c0.9-2.1,2-4.2,3.2-6.3c0.2-0.3,0.5-0.4,0.8-0.2c0.3,0.2,0.4,0.5,0.2,0.8c-1.2,2-2.2,4.1-3.1,6.1
			C140.6,153.1,140.3,153.3,140,153.2z M146.9,141.2c-0.4-0.3-0.5-0.7-0.3-0.9c1.4-1.9,2.9-3.7,4.5-5.4c0.2-0.2,0.6-0.3,0.9,0
			c0.2,0.2,0.3,0.6,0,0.8c-1.5,1.6-3,3.4-4.4,5.3C147.5,141.2,147.2,141.3,146.9,141.2z M156.4,131.1c-0.1,0-0.2-0.1-0.2-0.2
			c-0.2-0.3-0.2-0.6,0.1-0.8c1.8-1.5,3.8-2.9,5.7-4c0.3-0.2,0.7-0.1,0.8,0.2c0.2,0.3,0.1,0.7-0.2,0.8c-1.9,1.1-3.8,2.5-5.6,4
			C156.8,131.2,156.6,131.2,156.4,131.1z M168.2,124c-0.1-0.1-0.3-0.2-0.3-0.3c-0.1-0.3,0-0.7,0.3-0.8c2.2-0.9,4.4-1.6,6.7-2.1
			c0.3-0.1,0.6,0.1,0.7,0.5c0.1,0.3-0.1,0.6-0.5,0.7c-2.2,0.5-4.4,1.1-6.5,2C168.5,124.1,168.4,124.1,168.2,124z M181.7,121.2
			c-0.2-0.1-0.4-0.3-0.4-0.5c0-0.3,0.2-0.6,0.6-0.6c2.3-0.1,4.6,0,7,0.3c0.3,0.1,0.6,0.3,0.5,0.7c0,0.3-0.3,0.6-0.7,0.5
			c-2.3-0.3-4.6-0.4-6.8-0.3C181.9,121.2,181.8,121.2,181.7,121.2z M195.4,122.7c-0.3-0.1-0.4-0.4-0.4-0.7c0.1-0.3,0.4-0.5,0.7-0.4
			c2.2,0.6,4.4,1.3,6.6,2.2c0.3,0.1,0.5,0.5,0.3,0.8s-0.5,0.5-0.8,0.3C199.8,124.1,197.6,123.3,195.4,122.7
			C195.4,122.8,195.4,122.7,195.4,122.7z"/>
	</g>
	<g>
		<path class="st4" d="M355.1,165.1c-0.2,0-0.4-0.1-0.5-0.3c-0.2-0.3-0.1-0.7,0.2-0.8c0.5-0.3,2.7-1.9,3.5-2.5
			c0.3-0.2,0.6-0.2,0.8,0.1c0.2,0.3,0.2,0.6-0.1,0.8c-0.1,0.1-2.9,2.2-3.6,2.6C355.3,165,355.2,165.1,355.1,165.1z"/>
	</g>
	<path class="st3" d="M609.5,204.2H563l-20.6,12.9v-48.5c0-6.9,5.6-12.5,12.5-12.5h54.6c6.9,0,12.5,5.6,12.5,12.5v23
		C622.1,198.6,616.4,204.2,609.5,204.2z"/>
	<g>
		<g>
			<path class="st4" d="M542.7,217.8c-0.1,0-0.2,0-0.3-0.1c-0.2-0.1-0.4-0.4-0.4-0.6V193c0-0.1,0-0.2,0-0.2c0-0.3,0-0.7,0-1v-23.3
				c0-7.2,5.9-13.1,13.1-13.1h54.6c7.2,0,13.1,5.9,13.1,13.1v23.3c0,7.2-5.9,13.1-13.1,13.1c-0.4,0-0.7-0.3-0.7-0.7s0.3-0.7,0.7-0.7
				c6.4,0,11.7-5.2,11.7-11.7v-23.3c0-6.4-5.2-11.7-11.7-11.7h-54.6c-6.4,0-11.7,5.2-11.7,11.7v23.3c0,0.4,0,0.8,0.1,1.2
				c0,0.1,0,0.3-0.1,0.4v22.5l19.2-12.3c0.1-0.1,0.2-0.1,0.4-0.1h30.8c0.4,0,0.7,0.3,0.7,0.7s-0.3,0.7-0.7,0.7h-30.6l-20.1,12.9
				C543,217.8,542.9,217.8,542.7,217.8z"/>
		</g>
		<g>
			<path class="st4" d="M606.5,174.2h-12.7c-0.4,0-0.7-0.3-0.7-0.7s0.3-0.7,0.7-0.7h12.7c0.4,0,0.7,0.3,0.7,0.7
				S606.9,174.2,606.5,174.2z"/>
		</g>
		<g>
			<path class="st4" d="M578.5,174.2h-20.6c-0.4,0-0.7-0.3-0.7-0.7s0.3-0.7,0.7-0.7h20.6c0.4,0,0.7,0.3,0.7,0.7
				S578.9,174.2,578.5,174.2z"/>
		</g>
		<g>
			<path class="st4" d="M606.5,187.3h-48.7c-0.4,0-0.7-0.3-0.7-0.7s0.3-0.7,0.7-0.7h48.7c0.4,0,0.7,0.3,0.7,0.7
				S606.9,187.3,606.5,187.3z"/>
		</g>
	</g>
	<g>
		<path class="st4" d="M563.8,151.3c-0.3-0.1-0.5-0.4-0.5-0.8c0,0,0.7-2.7,0.9-7.1c0-0.3,0.3-0.6,0.7-0.6c0.3,0,0.6,0.3,0.6,0.7
			c-0.2,4.5-0.9,7.3-0.9,7.4c-0.1,0.3-0.3,0.5-0.6,0.5C563.9,151.3,563.9,151.3,563.8,151.3z M564.2,136.1c-0.2-2.4-0.5-4.8-0.9-7.2
			c-0.1-0.3,0.2-0.7,0.5-0.7c0.3,0,0.7,0.2,0.7,0.5c0.4,2.4,0.8,4.9,0.9,7.3c0,0.3-0.2,0.7-0.6,0.7
			C564.5,136.7,564.2,136.5,564.2,136.1z M561.6,121.9c-0.7-2.3-1.5-4.6-2.5-6.8c-0.1-0.3,0-0.7,0.3-0.8c0.3-0.1,0.7,0,0.8,0.3
			c1,2.3,1.8,4.6,2.5,6.9c0.1,0.3-0.1,0.7-0.6,0.8C561.9,122.4,561.6,122.2,561.6,121.9z M555.9,108.6c-1.2-2.1-2.4-4.1-3.8-6.1
			c-0.2-0.3-0.1-0.7,0.2-0.9c0.3-0.2,0.7-0.1,0.9,0.2c1.4,2,2.7,4.1,3.9,6.2c0.2,0.3,0.1,0.7-0.2,0.9c-0.1,0.1-0.2,0.1-0.3,0.1
			C556.3,108.9,556,108.8,555.9,108.6z M547.7,96.7c-1.5-1.8-3.2-3.6-4.9-5.3c-0.2-0.2-0.3-0.6,0-0.9c0.2-0.3,0.7-0.3,0.9,0
			c1.7,1.7,3.4,3.5,5,5.4c0.2,0.3,0.2,0.7-0.1,0.9c-0.1,0.1-0.3,0.2-0.4,0.2C548,97,547.8,96.9,547.7,96.7z M537.4,86.5
			c-1.8-1.5-3.8-3-5.7-4.5c-0.3-0.2-0.3-0.6-0.1-0.9c0.2-0.3,0.6-0.4,0.9-0.1c2,1.4,3.9,3,5.8,4.5c0.3,0.2,0.3,0.6,0.1,0.9
			c-0.1,0.1-0.3,0.2-0.5,0.2C537.6,86.7,537.5,86.6,537.4,86.5z M525.7,78c-2-1.3-4.1-2.5-6.2-3.7c-0.3-0.2-0.4-0.6-0.3-0.9
			c0.2-0.3,0.6-0.4,0.9-0.2c2.2,1.2,4.3,2.5,6.3,3.7c0.3,0.2,0.4,0.6,0.2,0.9c-0.1,0.2-0.3,0.3-0.5,0.3
			C525.9,78.1,525.8,78.1,525.7,78z M408.3,77c-0.2-0.3-0.1-0.7,0.2-0.9c1.9-1.3,4-2.6,6.2-3.9c0.3-0.2,0.7-0.1,0.9,0.2
			c0.2,0.3,0.1,0.7-0.2,0.9c-2.2,1.2-4.3,2.5-6.2,3.8c-0.1,0.1-0.2,0.1-0.4,0.1C408.6,77.3,408.4,77.2,408.3,77z M513,71
			c-2.2-1.1-4.4-2.1-6.6-3c-0.3-0.1-0.5-0.5-0.3-0.8c0.1-0.3,0.5-0.5,0.8-0.3c2.2,0.9,4.5,1.9,6.7,3c0.3,0.2,0.4,0.5,0.3,0.8
			c-0.1,0.2-0.3,0.4-0.6,0.4C513.1,71,513,71,513,71z M421,69.6c-0.2-0.3,0-0.7,0.3-0.8c2.2-1.1,4.5-2,6.7-3c0.3-0.1,0.7,0,0.8,0.4
			c0.1,0.3,0,0.7-0.4,0.8c-2.3,0.9-4.5,1.9-6.7,2.9c-0.1,0-0.2,0.1-0.3,0.1C421.3,70,421.1,69.9,421,69.6z M499.5,65.4
			c-2.3-0.8-4.7-1.5-6.9-2.1c-0.3-0.1-0.5-0.4-0.4-0.8c0.1-0.3,0.4-0.5,0.8-0.4c2.3,0.6,4.7,1.3,7,2.1c0.3,0.1,0.5,0.5,0.4,0.8
			c-0.1,0.3-0.3,0.4-0.6,0.4C499.7,65.4,499.6,65.4,499.5,65.4z M434.5,64.2c-0.1-0.3,0.1-0.7,0.4-0.8c2.3-0.7,4.7-1.4,7.1-2
			c0.4-0.1,0.7,0.1,0.8,0.5c0.1,0.3-0.1,0.7-0.5,0.8c-2.3,0.6-4.7,1.2-7.2,2C434.8,64.6,434.6,64.4,434.5,64.2z M485.5,61.6
			c-2.4-0.5-4.8-0.9-7.2-1.1c-0.3,0-0.6-0.4-0.6-0.7c0-0.3,0.4-0.6,0.7-0.6c2.4,0.3,4.9,0.7,7.3,1.2c0.3,0.1,0.6,0.4,0.5,0.7
			c-0.1,0.3-0.3,0.5-0.6,0.5C485.6,61.6,485.5,61.6,485.5,61.6z M448.7,60.6c-0.1-0.3,0.2-0.7,0.5-0.7c2.4-0.4,4.9-0.7,7.3-1
			c0.4,0,0.7,0.2,0.7,0.6c0,0.3-0.2,0.7-0.6,0.7c-2.4,0.2-4.8,0.6-7.3,1C449,61.1,448.7,60.9,448.7,60.6z M471.1,59.8
			c-2.4-0.1-4.9-0.2-7.3-0.1c-0.3,0-0.6-0.3-0.6-0.6c0-0.4,0.3-0.6,0.6-0.7c2.4-0.1,4.9,0,7.3,0.1c0.4,0,0.6,0.3,0.6,0.7
			C471.7,59.6,471.5,59.8,471.1,59.8C471.1,59.8,471.1,59.8,471.1,59.8z"/>
	</g>
	<rect x="244.8" y="79.2" class="st1" width="138.3" height="16.8"/>
	<rect x="351.5" y="30.1" class="st3" width="32.3" height="32.3"/>
	<rect x="294.2" y="20.3" class="st3" width="32.3" height="32.3"/>
	<rect x="236.9" y="29.1" class="st3" width="32.3" height="32.3"/>
	<g>
		<path class="st4" d="M342.5,0.9h-71.4c-0.3,0-0.5-0.2-0.5-0.5c0-0.3,0.2-0.5,0.5-0.5h71.4c0.3,0,0.5,0.2,0.5,0.5
			C343,0.7,342.8,0.9,342.5,0.9z"/>
	</g>
	<g>
		<path class="st4" d="M219.8,69.6c-0.3,0-0.5-0.2-0.5-0.5V0.5c0-0.3,0.2-0.5,0.5-0.5h63c0.3,0,0.5,0.2,0.5,0.5
			c0,0.3-0.2,0.5-0.5,0.5h-62.6v68.2C220.2,69.4,220,69.6,219.8,69.6z"/>
	</g>
	<g>
		<path class="st4" d="M219.8,113.5c-0.3,0-0.5-0.2-0.5-0.5V56.5c0-0.3,0.2-0.5,0.5-0.5c0.3,0,0.5,0.2,0.5,0.5V113
			C220.2,113.3,220,113.5,219.8,113.5z"/>
	</g>
	<g>
		<path class="st4" d="M389.6,128.5H219.8c-0.3,0-0.5-0.2-0.5-0.5v-16.9c0-0.3,0.2-0.5,0.5-0.5c0.3,0,0.5,0.2,0.5,0.5v16.4h168.9
			V70.8c0-0.3,0.2-0.5,0.5-0.5c0.3,0,0.5,0.2,0.5,0.5V128C390,128.3,389.8,128.5,389.6,128.5z"/>
	</g>
	<g>
		<path class="st4" d="M389.6,100.4c-0.3,0-0.5-0.2-0.5-0.5v-6c0-0.3,0.2-0.5,0.5-0.5c0.3,0,0.5,0.2,0.5,0.5v6
			C390,100.2,389.8,100.4,389.6,100.4z"/>
	</g>
	<g>
		<path class="st4" d="M389.6,81.7c-0.3,0-0.5-0.2-0.5-0.5V21.2c0-0.3,0.2-0.5,0.5-0.5c0.3,0,0.5,0.2,0.5,0.5v60.1
			C390,81.5,389.8,81.7,389.6,81.7z"/>
	</g>
	<g>
		<path class="st4" d="M389.6,29.6c-0.3,0-0.5-0.2-0.5-0.5V0.9H331c-0.3,0-0.5-0.2-0.5-0.5c0-0.3,0.2-0.5,0.5-0.5h58.6
			c0.3,0,0.5,0.2,0.5,0.5v28.7C390,29.4,389.8,29.6,389.6,29.6z"/>
	</g>
	<g>
		<path class="st4" d="M389.6,15.1H228.1c-0.3,0-0.5-0.2-0.5-0.5c0-0.3,0.2-0.5,0.5-0.5h161.4c0.3,0,0.5,0.2,0.5,0.5
			C390,14.9,389.8,15.1,389.6,15.1z"/>
	</g>
	<g>
		<path class="st4" d="M236.8,15.1h-17.1c-0.3,0-0.5-0.2-0.5-0.5c0-0.3,0.2-0.5,0.5-0.5h17.1c0.3,0,0.5,0.2,0.5,0.5
			C237.3,14.9,237.1,15.1,236.8,15.1z"/>
	</g>
	<g>
		<path class="st4" d="M375.5,92.9H240.1c-0.3,0-0.5-0.2-0.5-0.5V75.3c0-0.3,0.2-0.5,0.5-0.5H283c0.3,0,0.5,0.2,0.5,0.5
			c0,0.3-0.2,0.5-0.5,0.5h-42.4v16.2h134.9c0.3,0,0.5,0.2,0.5,0.5S375.7,92.9,375.5,92.9z"/>
	</g>
	<g>
		<path class="st4" d="M378.4,92.2c-0.3,0-0.5-0.2-0.5-0.5v-8.3c0-0.3,0.2-0.5,0.5-0.5c0.3,0,0.5,0.2,0.5,0.5v8.3
			C378.8,92,378.6,92.2,378.4,92.2z"/>
	</g>
	<g>
		<path class="st4" d="M373.9,75.7h-71.2c-0.3,0-0.5-0.2-0.5-0.5c0-0.3,0.2-0.5,0.5-0.5h71.2c0.3,0,0.5,0.2,0.5,0.5
			C374.3,75.5,374.1,75.7,373.9,75.7z"/>
	</g>
	<g>
		<path class="st4" d="M378.4,57.9h-32.1c-0.3,0-0.5-0.2-0.5-0.5V25.4c0-0.3,0.2-0.5,0.5-0.5h32.1c0.3,0,0.5,0.2,0.5,0.5v32.1
			C378.8,57.7,378.6,57.9,378.4,57.9z M346.8,57h31.2V25.9h-31.2V57z"/>
	</g>
	<g>
		<path class="st4" d="M321.2,57.9h-23.4c-0.3,0-0.5-0.2-0.5-0.5c0-0.3,0.2-0.5,0.5-0.5h22.9V25.9h-31.2v22.4c0,0.3-0.2,0.5-0.5,0.5
			c-0.3,0-0.5-0.2-0.5-0.5V25.4c0-0.3,0.2-0.5,0.5-0.5h32.1c0.3,0,0.5,0.2,0.5,0.5v32.1C321.6,57.7,321.4,57.9,321.2,57.9z"/>
	</g>
	<g>
		<path class="st4" d="M255.8,57.9h-24.4c-0.3,0-0.5-0.2-0.5-0.5V25.4c0-0.3,0.2-0.5,0.5-0.5h31c0.3,0,0.5,0.2,0.5,0.5
			s-0.2,0.5-0.5,0.5h-30.5V57h24c0.3,0,0.5,0.2,0.5,0.5C256.3,57.7,256,57.9,255.8,57.9z"/>
	</g>
	<g>
		<path class="st4" d="M270.5,105.5h-36.9c-0.3,0-0.5-0.2-0.5-0.5c0-0.3,0.2-0.5,0.5-0.5h36.9c0.3,0,0.5,0.2,0.5,0.5
			C271,105.3,270.8,105.5,270.5,105.5z"/>
	</g>
	<g>
		<path class="st4" d="M270.5,113.4h-36.9c-0.3,0-0.5-0.2-0.5-0.5c0-0.3,0.2-0.5,0.5-0.5h36.9c0.3,0,0.5,0.2,0.5,0.5
			C271,113.1,270.8,113.4,270.5,113.4z"/>
	</g>
	<g>
		<path class="st4" d="M376.6,105.5h-36.9c-0.3,0-0.5-0.2-0.5-0.5c0-0.3,0.2-0.5,0.5-0.5h36.9c0.3,0,0.5,0.2,0.5,0.5
			C377,105.3,376.8,105.5,376.6,105.5z"/>
	</g>
	<g>
		<path class="st4" d="M376.6,113.4h-36.9c-0.3,0-0.5-0.2-0.5-0.5c0-0.3,0.2-0.5,0.5-0.5h36.9c0.3,0,0.5,0.2,0.5,0.5
			C377,113.1,376.8,113.4,376.6,113.4z"/>
	</g>
	<g>
		<path class="st4" d="M323.2,105.5h-36.9c-0.3,0-0.5-0.2-0.5-0.5c0-0.3,0.2-0.5,0.5-0.5h36.9c0.3,0,0.5,0.2,0.5,0.5
			C323.6,105.3,323.4,105.5,323.2,105.5z"/>
	</g>
	<g>
		<path class="st4" d="M323.2,113.4h-36.9c-0.3,0-0.5-0.2-0.5-0.5c0-0.3,0.2-0.5,0.5-0.5h36.9c0.3,0,0.5,0.2,0.5,0.5
			C323.6,113.1,323.4,113.4,323.2,113.4z"/>
	</g>
</g>
</svg>
