<?xml version="1.0" encoding="utf-8"?>
<!-- Generator: Adobe Illustrator 22.0.1, SVG Export Plug-In . SVG Version: 6.00 Build 0)  -->
<svg version="1.1" xmlns="http://www.w3.org/2000/svg" xmlns:xlink="http://www.w3.org/1999/xlink" x="0px" y="0px" width="437.2px"
	 height="349.3px" viewBox="0 0 437.2 349.3" style="enable-background:new 0 0 437.2 349.3;" xml:space="preserve">
<style type="text/css">
	.st0{fill:#EDA58A;}
	.st1{fill:#9898EA;}
	.st2{font-family:'FiraSans-Bold';}
	.st3{font-size:79.5511px;}
	.st4{fill:none;stroke:#272728;stroke-miterlimit:10;}
	.st5{fill:#48484B;}
	.st6{fill:#3A3A3A;}
	.st7{fill:#FFFFFF;}
	.st8{fill:#272728;}
</style>
<g id="Слой_6">
	<path class="st0" d="M305,348.1C129.5,359.9,66.9,285.3,38.2,212C-2.4,108,49.7-9,118.2,32.7c38.7,23.6,5.3,56.7,50,82.7
		c51.6,30,112.7-74,138.7-12c10.7,25.4-31.2,68.3,45.3,64.7C470.9,162.3,474.2,336.7,305,348.1z"/>
	<g>
		<text transform="matrix(1 0 0 1 194.5139 70.8398)" class="st1 st2 st3">%</text>
	</g>
	<g>
		<text transform="matrix(1 0 0 1 198.5139 65.8398)" class="st4 st2 st3">%</text>
	</g>
</g>
<g id="Слой_8">
	<polygon class="st1" points="165.2,290.8 168,315.4 70.3,315.4 71.4,290.6 	"/>
	<path class="st1" d="M204.6,315.4h95.7l-0.5-6.2c0,0-2.1-3.6-1.8-6c0.2-1.6,1.7-6.4,1.7-6.4s9.7-37.5,13.5-45.7
		c3.9-8.2,10.5-7.2,10.5-7.2h27.4c0,0-0.5-5.9-6.7-18.7c-6.3-12.8-20.9-22.3-20.9-22.3s-18.3-14.2-46.4-8.6
		c-28.2,5.6-36.1,14.6-46.2,28.8c-10.1,14.3-14.9,32.8-22.2,56.5C201.2,303.4,204.6,315.4,204.6,315.4z"/>
	<path class="st5" d="M213.5,108.3c0,0-2.7,28.4-22.2,38.4c-18.2,9.3-27.6,4.5-32.2,3.3c-4.5-1.3-22.2-6.2-27.3-6.8l-10.3,46
		l-19.9-45.5c0,0-14.2,2.7-23,9c-8.8,6.2-19.7,12.8-25.4,30.5C47.6,200.7,41,225.7,41,225.7s-12.3,39.5,5.7,47.7
		c0,0,5.2,5.7,23.6,1.5v15.5c0,0,19.1,5.6,52.1,4.9c25.1-0.5,45.7-4.9,45.7-4.9s-3.7-37.6-4.1-41.8l19.7-64c0,0,24.5,0.3,42.3-22.6
		c17.8-22.9,16.8-48.2,16.8-48.2L213.5,108.3z"/>
	<path class="st6" d="M139.6,115.1c0,0,1.4,8.1,5.5,10.3c0,0-1.4,1-4.2,1.2c-2.8,0.3-3.7,0.2-3.7,0.2L139.6,115.1z"/>
	<path class="st5" d="M114.8,128.8c0,0-19,1.2-25-2c0,0-3.2-22.8-0.9-32.1c2.3-9.3,5.9-13.1,8.7-14c2.8-0.8,11.5-2.5,20.1-2
		c8.6,0.5,12.2,1.6,13,1.4c0.8-0.2,8.3,5.4,9.2,18.1l-0.6,7.8l-0.3-5.5c0,0-1.7-8-4.8-11.9c0,0-6.2,8.5-12.5,12.6
		c-6.3,4.1-11.5,5.3-14.1,4.8C104.8,105.6,114.8,128.8,114.8,128.8z"/>
	<path class="st7" d="M309.5,174.4c0,0,7.4,2.2,8.8-6.2c1.4-8.5-6.1-7.5-7.4-6.2c0,0-1.7-0.9-3.5-6.5c-1.8-5.6-3.4-11.4-3.4-11.4
		s-8.2,3.3-13.8,3.8c-5.7,0.5-11.4,0.2-11.4,0.2l-3,20.8c0,0-1.1,11.9,2.1,14.5c3.2,2.6,4.6,3.7,9,3.8v9.9c0,0,3.4,8.1,10.1,6.9
		c6.7-1.3,8.1-3.2,8.1-3.2s-1.4-4.5-0.2-10.9C306.1,183.4,309.5,174.4,309.5,174.4z"/>
	<path class="st7" d="M285.2,309.2c0,0-8.2-6.8-9.9-9.2c0,0-3.5,4.8-11.1,4.4c-7.6-0.4-11.1-1.8-11.1-1.8s0.9-9.7,7-13.8
		c0,0,13.9-2.3,19.6-2.7c5.7-0.4,8.9-0.5,9.9-0.1c1,0.5,5.3,2.8,10.1,10.9l-1.7,5.9l0.2,1.7l-5.4-5.5l4.7,8.6l0.6,1.8h-4.5
		l-9.8-11.3l5.2,9.7l0.3,1.6H285.2z"/>
	<path class="st7" d="M216.5,108.9c0,0,0.4-4.7,0-7.2c-0.4-2.5-1.6-4.3-4.2-5.9c-2.6-1.6-7.8-5.1-6.9-7.5c0.9-2.4,3.1-3,6.4-1.8
		c3.3,1.2,10.7,6.1,11.9,6.4c1.1,0.4,1.6,0.3,1.6,0.3s11.7-10.4,13.5-11.9c1.8-1.4,3.3-2.5,4.5-2.7c1.2-0.2,3,1.3,3.4,2.3l2.6-1.2
		c0,0,0.9-0.2,2.4,0.5c1.4,0.7,1.5,1.8,1.5,1.8s1.4-1.1,2.9-0.6c1.5,0.5,2.6,1.1,2.6,2c0,1-0.5,3.1-3.5,7.1c-3,4-8.2,7.6-9,8.8
		c-0.9,1.2-4.8,2.9-5.4,3.7c-0.6,0.9-2.9,4.8-2.5,9.8L216.5,108.9z"/>
	<path class="st7" d="M106,117.5c0,0-3.2,1.3-5.4-0.9c-2.2-2.2-2.7-5-2.3-6.7c0.5-1.8,1.6-5,4.5-5.4c2.9-0.4,4.7,1.6,4.7,1.6
		s7.2,0.9,15.5-5.7c8.3-6.6,11.1-11.7,11.1-11.7s4.3,7.3,4.8,11.9c0,0,0.5,11.6,0.6,14c0.1,2.4,0.6,13.3-6.2,16.5c0,0-3.5,2.1-5.4,2
		v6l-8.8,13.5l-13.6-14.7l-0.2-8.8l9.4-0.3c0,0-4.7-0.9-6.4-5.1c-1.8-4.2-2.4-6.4-2.4-6.4V117.5z"/>
	<path class="st5" d="M329.3,207.4l-5.9-4.4c0,0-3.8,5.7-10,4.5c-6.2-1.2-8.3-5.6-8.6-9c-0.3-3.4-0.5-9.6,1.8-15.9
		c2.3-6.3,3-8.2,3-8.2s6.5,3,8.7-6c2.2-8.9-6.8-7.8-7.6-6.3c0,0-2.8-2.9-6.6-18.1c0,0-7.6,3.1-13.4,3.7c-5.8,0.7-11.9,0.3-11.9,0.3
		l-2.2,13.5c0,0-3.4-15.6,0.6-22c3.5-5.6,8.1-13.2,21.9-10.9c2.1,0.4,4.1,1.3,6.8,1.9c0,0,4.6,0.8,9.7,2.2c4.9,1.4,9.8,1.9,12.7,8.1
		c0,0,2.6,6.4,0.1,17.8c-2.5,11.3-3.7,20.8-3.2,28.6C325.7,194.9,325.9,199.8,329.3,207.4z"/>
	<path class="st5" d="M287,197c0,0-8.2,3.3-11.6-2.3c-2.8-4.7-0.6-9.3,1.3-13.3c0,0,1.1,3.6,5.6,4.9c4.5,1.3,4.7,0.8,4.7,0.8V197z"
		/>
	<path class="st7" d="M189.5,162.5c0,0-12.1,32.5-12.7,86.1h-52.9c0,0-0.4-33.6,3.7-53.9c4.1-20.3,9-32,9-32L189.5,162.5z"/>
	<path class="st7" d="M109.9,215.4l6.9-4c0,0,2.8-2.5,3.2-7.3c0.4-4.8,0.2-5.2,0-7.2c-0.2-2.1-0.5-3.7,1.2-3.8
		c1.8-0.1,3.1,1.2,4.4,3.6c1.3,2.4,2.6,7,1.6,10.9c0,0,3.7,0.8,10.5-1.1c6.7-1.9,9.7-4.1,13.3-5.1c3.6-1,5.8,0.1,6.2,1.7
		c0.4,1.6-2.5,5.7-17.9,10.5c0,0,7.1-0.4,10.7-2.4c3.7-2.1,6.5-3.6,7.6-3.6c1.1,0,2.2,2.2,1.3,3.6c-0.9,1.4-2.9,3.6-2.9,3.6
		s2.1,1,1.1,3.4c-1,2.4-2.6,5.3-16.1,8.2c-13.5,2.9-21.4,6.4-21.4,6.4L109.9,215.4z"/>
	<path class="st7" d="M23,250.9c0,0,3.2-3.5,0.3-12.2c-2.9-8.7,0.3-18,11.3-19.1c11-1.2,16.5,9.3,15.1,16.2c-1.5,7-2,9,0,15.7
		c2,6.7,0.9,25.5-18.3,24.9C14.2,275.9,16.3,258.1,23,250.9z"/>
	<path class="st7" d="M52.9,207.8c0,4.4-2.3,8-5.2,8c-2.9,0-5.2-3.6-5.2-8c0-4.4,2.3-8,5.2-8C50.5,199.8,52.9,203.4,52.9,207.8z"/>
	<path class="st7" d="M424.3,280.4l5.5-19.6c0-7-5.7-12.7-12.7-12.7h-87.5c-7,0-10.5,5.5-12.7,12.7l-13,46.1c0,7,5.7,12.7,12.7,12.7
		h87.5c7,0,10.4-4.9,12.7-12.7l3.9-13.8L424.3,280.4z"/>
	<path class="st1" d="M359,281.5c-1.1,3.6,0.5,7.3,3.6,8.2c3.1,0.9,6.4-1.3,7.5-4.9c1.1-3.6-0.5-7.3-3.6-8.2
		C363.4,275.6,360.1,277.8,359,281.5z"/>
	<path class="st7" d="M301.2,309.2h-45.7c0,0-1.9,1.1-1.9,3.4s2.4,2.9,2.4,2.9h46.7L301.2,309.2z"/>
	<polygon class="st1" points="131.8,143.1 129.1,137.5 119.1,152.6 103.9,135.9 101.7,143.6 121.8,188.6 	"/>
	<path class="st5" d="M4,318.6c3.7,4.2,9,5.6,11.9,6v2.1c0,0.1,0.1,0.2,0.2,0.3c1.4,1.6,9.4,2.4,17.3,2.4c8.6,0,17.3-1,17.3-3v-34.4
		c0-2.3-9-3.5-17.4-3.5c-7.8,0-16,1-17.3,3c-0.1,0-0.2,0.1-0.2,0.2v1.5c-2.7-0.3-6.3-0.2-9.5,1.8c-3.5,2.2-5.5,6-6,11.3
		C0,311.3,1.2,315.4,4,318.6z M15.9,318.6c-2.4-0.5-5.5-1.6-7.6-3.9c-1.7-2-2.4-4.5-2.1-7.9c0.3-3.4,1.4-5.7,3.3-6.9
		c2-1.3,4.6-1.2,6.4-0.9V318.6z"/>
	<path class="st7" d="M50.5,292.1c0,1.8-7.7,3.2-17.2,3.2c-9.5,0-17.2-1.5-17.2-3.2c0-1.8,7.7-3.2,17.2-3.2
		C42.8,288.8,50.5,290.3,50.5,292.1z"/>
	<g>
		<path class="st8" d="M33.5,329.7c1.8,0,17.7-0.1,17.7-3.3c0-0.3-0.3-0.6-0.6-0.6c-0.3,0-0.6,0.3-0.6,0.6
			c-0.4,0.7-5.8,2.1-16.5,2.1c-10.1,0-16.2-1.3-16.7-2.2c0-0.3-0.3-0.6-0.6-0.6c-0.3,0-0.6,0.3-0.6,0.6
			C15.6,329.7,32.7,329.7,33.5,329.7z"/>
	</g>
	<g>
		<path class="st8" d="M33.9,275.4c-8.1-0.2-11.4-4.2-12.8-7.4c-2.7-6.3-0.1-14.7,4-19.1c0,0,2.9-3.4,0.2-11.6
			c-1.7-5.1-1.3-10.2,1.1-13.9c2.2-3.4,5.9-5.5,10.7-6c0.6-0.1,1.2-0.1,1.7-0.1c4.3,0,8.1,1.8,10.8,5.1c2.8,3.4,4,8.1,3.2,11.9
			l-0.2,0.9c-1.3,6.2-1.7,8.3,0.2,14.5c1.2,4,1.4,12.8-3.2,19c-3.3,4.4-8.3,6.7-14.8,6.7C34.4,275.4,34.2,275.4,33.9,275.4z
			 M37.1,218.6c-4.5,0.5-7.9,2.4-9.9,5.4c-2.2,3.4-2.6,8.1-1,12.9c3,8.9-0.3,12.6-0.4,12.8c-3.7,4-6.2,12-3.8,17.8
			c1.8,4.2,5.8,6.5,11.8,6.7c6.5,0.2,11.5-1.9,14.7-6.2c4.2-5.6,4.3-13.9,3-18c-2-6.5-1.5-8.9-0.2-15.1l0.2-0.9
			c0.7-3.5-0.4-7.8-3-11c-1.7-2.1-4.8-4.7-9.9-4.7C38.2,218.5,37.7,218.5,37.1,218.6z"/>
	</g>
	<g>
		<path class="st8" d="M44.3,206.2c0-4.7,2.6-8.6,5.8-8.6c3.2,0,5.8,3.8,5.8,8.6c0,4.7-2.6,8.6-5.8,8.6
			C46.9,214.8,44.3,211,44.3,206.2z M45.5,206.2c0,4.1,2.1,7.4,4.6,7.4c2.6,0,4.6-3.3,4.6-7.4c0-4.1-2.1-7.4-4.6-7.4
			C47.6,198.8,45.5,202.2,45.5,206.2z"/>
	</g>
	<g>
		<g>
			<path class="st8" d="M15.9,324.9c-2.9-0.4-8.3-1.8-12.2-6.1c-2.9-3.3-4.1-7.5-3.7-12.5c0.5-5.4,2.6-9.3,6.1-11.5
				c3.4-2.2,7.4-2.2,10.2-1.8c0.3,0,0.5,0.3,0.5,0.7c0,0.3-0.4,0.6-0.7,0.5c-2.6-0.4-6.3-0.4-9.4,1.6c-3.2,2-5.1,5.6-5.6,10.6
				C0.8,311.1,2,315,4.6,318c3.6,4,8.7,5.3,11.5,5.7c0.3,0,0.5,0.4,0.5,0.7C16.5,324.7,16.3,324.9,15.9,324.9
				C16,324.9,15.9,324.9,15.9,324.9z M16,319.5c-2.5-0.5-6-1.6-8.3-4.2c-1.9-2.2-2.7-4.9-2.3-8.5c0.4-3.7,1.6-6.2,3.7-7.6
				c1.8-1.2,4.3-1.5,7.2-0.9c0.3,0.1,0.5,0.4,0.5,0.7c-0.1,0.3-0.3,0.6-0.7,0.5c-1.8-0.4-4.4-0.5-6.4,0.8c-1.8,1.1-2.8,3.4-3.1,6.7
				c-0.3,3.2,0.4,5.7,2,7.6c2.1,2.3,5.3,3.4,7.6,3.8c0.3,0.1,0.5,0.4,0.5,0.7c-0.1,0.3-0.3,0.5-0.6,0.5C16,319.5,16,319.5,16,319.5z
				"/>
		</g>
	</g>
	<g>
		<path class="st8" d="M50.5,327c0.3,0,0.6-0.3,0.6-0.6v-34.4c0-0.3-0.3-0.6-0.6-0.6c-0.3,0-0.6,0.3-0.6,0.6v34.4
			C49.9,326.8,50.2,327,50.5,327z"/>
	</g>
	<g>
		<path class="st8" d="M16.2,327.3c0.3,0,0.6-0.3,0.6-0.6v-34.9c0-0.3-0.3-0.6-0.6-0.6c-0.3,0-0.6,0.3-0.6,0.6v34.9
			C15.6,327,15.8,327.3,16.2,327.3z"/>
	</g>
	<g>
		<path class="st8" d="M15.6,292.1c0-3,11.6-3.8,17.8-3.8c6.1,0,17.8,0.8,17.8,3.8c0,3-11.6,3.8-17.8,3.8
			C27.2,295.9,15.6,295.1,15.6,292.1z M16.8,292.1c0,0.9,5.9,2.6,16.6,2.6c10.7,0,16.6-1.7,16.6-2.6c0-0.9-5.9-2.7-16.6-2.7
			C22.6,289.4,16.8,291.2,16.8,292.1z"/>
	</g>
	<g>
		<g>
			<path class="st8" d="M310.7,316h87.5c8.2,0,11.3-6.6,13.3-13.1l3.9-13.8c0.1-0.3-0.1-0.6-0.4-0.7c-0.3-0.1-0.6,0.1-0.7,0.4
				l-3.9,13.8c-2.6,8.7-6.1,12.3-12.1,12.3h-87.5c-6.7,0-12.1-5.4-12.1-12l13-46.1c2.7-8.5,6.4-12.3,12.1-12.3h87.5
				c6.7,0,12.1,5.4,12.1,12l-5.5,19.6c-0.1,0.3,0.1,0.6,0.4,0.7c0.3,0.1,0.6-0.1,0.7-0.4l5.5-19.6c0-7.5-5.9-13.5-13.3-13.5h-87.5
				c-8.2,0-11.5,7.5-13.3,13.1l-13,46.1C297.4,310,303.4,316,310.7,316z"/>
		</g>
		<g>
			<path class="st8" d="M314.7,316c0.3,0,0.6-0.3,0.6-0.6c0-0.3-0.3-0.6-0.6-0.6c-6.7,0-12.1-5.2-12.1-11.6l13-44.5
				c2.6-8.2,6.4-11.8,12.1-11.8h91c0.3,0,0.6-0.3,0.6-0.6c0-0.3-0.3-0.6-0.6-0.6h-91c-8.2,0-11.5,7.2-13.3,12.7l-13,44.6
				c0,0.1,0,0.1,0,0.2C301.4,310.2,307.4,316,314.7,316z"/>
		</g>
		<g>
			<path class="st8" d="M256.5,316H310c0.3,0,0.6-0.3,0.6-0.6c0-0.3-0.3-0.6-0.6-0.6h-53.4c-1.4,0-2.5-1.1-2.5-2.5
				c0-1.4,1.1-2.5,2.5-2.5h43.3c0.3,0,0.6-0.3,0.6-0.6c0-0.3-0.3-0.6-0.6-0.6h-43.3c-2,0-3.7,1.7-3.7,3.7S254.5,316,256.5,316z"/>
		</g>
		<g>
			<path class="st8" d="M365,286.8c-3.4-1-5.2-5-4-8.9c1-3.3,3.7-5.6,6.6-5.6c0.5,0,1.1,0.1,1.6,0.2c1.6,0.5,3,1.7,3.7,3.4
				c0.7,1.7,0.8,3.6,0.3,5.5c-1,3.3-3.7,5.6-6.6,5.6C366,287,365.5,286.9,365,286.8z M362.1,278.2c-1,3.3,0.5,6.6,3.2,7.5
				c0.4,0.1,0.8,0.2,1.2,0.2c2.4,0,4.7-1.9,5.5-4.7c0.5-1.6,0.4-3.3-0.2-4.7c-0.6-1.4-1.7-2.4-3-2.7c-0.4-0.1-0.8-0.2-1.2-0.2
				C365.2,273.5,362.9,275.4,362.1,278.2z"/>
		</g>
	</g>
	<path class="st8" d="M279.5,162.6c-0.5-0.1-0.8-0.5-0.8-1l0.3-2.5c0.1-0.5,0.5-0.8,1-0.8c0.5,0.1,0.8,0.5,0.8,1l-0.3,2.5
		C280.4,162.3,279.9,162.7,279.5,162.6z"/>
	<path class="st8" d="M294.1,164.2c-0.5-0.1-0.8-0.5-0.8-1l0.3-2.5c0.1-0.5,0.5-0.8,1-0.8c0.5,0.1,0.8,0.5,0.8,1l-0.3,2.5
		C295,163.9,294.6,164.2,294.1,164.2z"/>
	<g>
		<path class="st8" d="M311.9,175.4c0.8,0,1.5-0.2,2.1-0.4c2.7-1,4.2-3.7,4.7-5.7c0.9-3.5,0.4-7.6-3.8-8.8c-3.3-0.9-5.6,2.2-5.7,2.3
			c-0.2,0.3-0.1,0.6,0.1,0.8c0.3,0.2,0.6,0.1,0.8-0.1c0.1-0.1,1.9-2.6,4.4-1.9c4.3,1.2,3.4,6,3,7.4c-0.5,1.9-1.9,4.1-4,4.9
			c-1.6,0.6-3.4,0.3-5.2-0.9c-0.3-0.2-0.6-0.1-0.8,0.2c-0.2,0.3-0.1,0.6,0.2,0.8C309.3,175.1,310.7,175.4,311.9,175.4z"/>
	</g>
	<g>
		<path class="st8" d="M312.9,172.1c0.2,0,0.3-0.1,0.4-0.2c0.2-0.2,0.2-0.6,0-0.8l-3.1-2.8l5.2-3.4c0.3-0.2,0.3-0.5,0.2-0.8
			c-0.2-0.3-0.5-0.3-0.8-0.2l-5.9,3.9c-0.2,0.1-0.2,0.3-0.3,0.4c0,0.2,0.1,0.4,0.2,0.5l3.7,3.3C312.6,172.1,312.7,172.1,312.9,172.1
			z"/>
	</g>
	<g>
		<g>
			<path class="st8" d="M282.9,176.7c0-0.7,0.2-1.2,0.6-1.7c0.8-0.8,2.2-0.9,3.4-0.3c0.8,0.4,1.2,0.5,1.5,0.5c0.1,0,0.2,0,0.3-0.1
				c0.3-0.1,0.5-0.2,1.2-1.4c0.6-1.1,1.6-1.8,2.6-1.8c0.7,0,1.4,0.4,1.8,1c0.5,0.7,0.5,2,0.1,3.3c-0.7,2-2.1,3.5-4,4.1
				c-0.7,0.2-1.4,0.3-2,0.3C285.4,180.7,282.9,178.5,282.9,176.7z M290.9,174.2c-0.8,1.5-1.1,1.8-1.9,2c-0.2,0.1-0.4,0.1-0.7,0.1
				c-0.5,0-1-0.2-2-0.6c-0.8-0.4-1.6-0.3-2,0.1c-0.2,0.2-0.3,0.5-0.3,0.8c0,1,1.8,2.8,4.3,2.8c0.6,0,1.1-0.1,1.7-0.3
				c1.5-0.5,2.7-1.7,3.2-3.4c0.4-1.1,0.3-1.9,0-2.3c-0.2-0.3-0.5-0.5-0.8-0.5C291.9,173.1,291.2,173.5,290.9,174.2z"/>
		</g>
	</g>
	<g>
		<path class="st8" d="M315.1,208c5.5,0,8.7-4.7,8.8-4.8c0.2-0.3,0.1-0.6-0.2-0.8c-0.3-0.2-0.6-0.1-0.8,0.2
			c-0.2,0.3-5.1,7.5-13.5,2.5c-10.1-6,0.5-30.3,0.6-30.5c0.1-0.3,0-0.6-0.3-0.8c-0.3-0.1-0.6,0-0.8,0.3c-0.5,1-11.1,25.4-0.2,32
			C311.2,207.5,313.3,208,315.1,208z"/>
	</g>
	<g>
		<path class="st8" d="M290.3,187.7c1.5,0,2.8,0,4-0.1c0.3,0,0.6-0.3,0.5-0.6c0-0.3-0.3-0.5-0.6-0.5c-2.1,0.2-4.4,0.2-7.2,0.1
			c-2.4-0.1-4.2-0.5-5.7-1.1c-2.4-1.1-3.9-3.3-4.6-6.5c-1.1-5.4-0.3-11,0.5-16.5l0.1-0.8c0.4-2.9,0.9-5.8,1.3-8.8l0.7-4.6
			c0.1-0.3,0-0.7-0.3-0.8c-0.3-0.1-0.6,0-0.8,0.3c0,0.1-0.1,0.2-0.1,0.3l-0.7,4.5c-0.5,2.9-0.9,5.8-1.3,8.8l-0.1,0.8
			c-0.8,5.5-1.6,11.3-0.5,16.9c0.7,3.7,2.4,6.1,5.3,7.4c2.1,1,4.5,1.2,6.1,1.2C288.2,187.7,289.3,187.7,290.3,187.7z"/>
	</g>
	<g>
		<path class="st8" d="M310.7,162.6c0.1,0,0.2,0,0.4-0.1c0.3-0.2,0.3-0.6,0.1-0.8c-2.9-3.9-5.4-13.6-6.2-16.8
			c-0.3-1.3-0.3-1.3-0.6-1.5c-0.2-0.1-0.3-0.1-0.5,0c-12.8,4.8-20.4,4.6-25,4c-0.3-0.1-0.6,0.2-0.7,0.5c0,0.3,0.2,0.6,0.5,0.7
			c4.6,0.6,12.3,0.8,24.9-3.8c0,0.1,0.1,0.3,0.1,0.5c0.8,3.2,3.4,13.1,6.4,17.2C310.3,162.6,310.5,162.6,310.7,162.6z"/>
	</g>
	<g>
		<path class="st8" d="M299.2,154.3c0.1,0,0.3-0.1,0.4-0.2c0.2-0.2,0.2-0.6,0-0.8c-0.1-0.1-3.2-3.2-8.3-2.8c-0.3,0-0.6,0.3-0.5,0.6
			c0,0.3,0.3,0.5,0.6,0.5c4.5-0.4,7.3,2.4,7.3,2.5C298.9,154.3,299,154.3,299.2,154.3z"/>
	</g>
	<g>
		<path class="st8" d="M278,151c0.2,0,0.3-0.1,0.4-0.2c0.1-0.1,1.5-1.4,4.9,0c0.3,0.1,0.6,0,0.8-0.3c0.1-0.3,0-0.6-0.3-0.8
			c-4.1-1.7-6.1,0.2-6.2,0.3c-0.2,0.2-0.2,0.6,0,0.8C277.7,150.9,277.8,151,278,151z"/>
	</g>
	<path class="st8" d="M135.1,107.5c0.4,0,0.8-0.4,0.7-0.9l-0.2-2.2c0-0.4-0.4-0.8-0.9-0.7c-0.4,0-0.8,0.4-0.7,0.9l0.2,2.2
		C134.3,107.2,134.7,107.5,135.1,107.5z"/>
	<path class="st8" d="M121,108.9c0.4,0,0.8-0.4,0.7-0.9l-0.2-2.2c0-0.4-0.4-0.8-0.9-0.7c-0.4,0-0.8,0.4-0.7,0.9l0.2,2.2
		C120.2,108.6,120.6,108.9,121,108.9z"/>
	<g>
		<path class="st8" d="M136.6,100.6c0.2,0,0.3-0.1,0.4-0.2c0.2-0.2,0.2-0.6,0-0.8c-0.1-0.1-1.9-1.9-5.6-0.3
			c-0.3,0.1-0.4,0.5-0.3,0.8c0.1,0.3,0.5,0.4,0.8,0.3c3-1.2,4.3,0,4.3,0C136.3,100.5,136.4,100.6,136.6,100.6z"/>
	</g>
	<g>
		<path class="st8" d="M329.4,208.1c0.1,0,0.2,0,0.2-0.1c0.3-0.1,0.4-0.5,0.3-0.8c-3.7-8.1-6.7-20.3-0.8-48.9
			c0.5-2.7,0.9-6.7,1-12.1c0.1-6.2-4.2-11.7-10.3-13.1l-13.7-3.2c-3.9-1.6-7.7-2.3-11.1-2.1c-7.5,0-17.7,2-20,18.6
			c-0.5,3.6,0.3,10.4,1.2,15.2c0.1,0.3,0.4,0.5,0.7,0.5c0.3-0.1,0.5-0.4,0.5-0.7c-0.9-4.7-1.6-11.3-1.2-14.8
			c2.1-15.6,11.1-17.6,18.7-17.6c3.4-0.2,7,0.5,10.8,2.1l13.8,3.2c5.5,1.3,9.4,6.3,9.3,12c-0.1,5.3-0.4,9.3-0.9,11.9
			c-5.9,28.9-2.9,41.3,0.9,49.6C329,207.9,329.2,208.1,329.4,208.1z"/>
	</g>
	<g>
		<path class="st8" d="M204.6,316c0.1,0,0.1,0,0.2,0c0.3-0.1,0.5-0.4,0.4-0.7c-0.1-0.2-5.1-16.3,15.4-70.1
			c16.2-42.6,40.7-47.1,55.3-49.8c0.3-0.1,0.5-0.4,0.5-0.7c-0.1-0.3-0.4-0.5-0.7-0.5c-14.8,2.7-39.7,7.3-56.2,50.5
			C198.7,299,203.8,315,204,315.6C204.1,315.8,204.3,316,204.6,316z"/>
	</g>
	<g>
		<path class="st8" d="M244,291.5c0.3,0,0.6-0.3,0.6-0.6c-0.2-19.5,15.3-54.7,15.4-55c0.1-0.3,0-0.6-0.3-0.8c-0.3-0.1-0.6,0-0.8,0.3
			c-0.2,0.4-15.8,35.8-15.5,55.5C243.4,291.2,243.7,291.5,244,291.5z"/>
	</g>
	<g>
		<path class="st8" d="M351.2,244.5c0.4-0.1,0.6-0.4,0.6-0.7c-4.7-22.8-19.6-35.7-28.1-41.3c-0.3-0.2-0.6-0.1-0.8,0.2
			c-0.2,0.3-0.1,0.6,0.2,0.8c8.3,5.5,22.9,18.1,27.5,40.6C350.7,244.3,350.9,244.5,351.2,244.5z"/>
	</g>
	<g>
		<path class="st8" d="M67,316h110.9c0.3,0,0.6-0.3,0.6-0.6c0-0.3-0.3-0.6-0.6-0.6H67c-0.3,0-0.6,0.3-0.6,0.6
			C66.4,315.7,66.6,316,67,316z"/>
	</g>
	<g>
		<path class="st8" d="M196.8,316h82.9c0.3,0,0.6-0.3,0.6-0.6c0-0.3-0.3-0.6-0.6-0.6h-82.9c-0.3,0-0.6,0.3-0.6,0.6
			C196.2,315.7,196.5,316,196.8,316z"/>
	</g>
	<g>
		<path class="st8" d="M285.2,309.8c0.2,0,0.4-0.1,0.5-0.2c0.2-0.3,0.1-0.6-0.1-0.8c-4.3-3.2-9.8-9.1-9.8-9.2
			c-0.2-0.2-0.6-0.2-0.8,0c-0.2,0.2-0.3,0.6,0,0.8c0.2,0.2,5.6,6,10,9.3C285,309.8,285.1,309.8,285.2,309.8z"/>
	</g>
	<g>
		<path class="st8" d="M289.6,309.8c0.1,0,0.1,0,0.2,0c0.3-0.1,0.5-0.4,0.4-0.7c-0.4-1.3-1.2-3-2.2-4.9c1.7,2,3.5,4,5.1,5.5
			c0.2,0.2,0.6,0.2,0.8,0c0.2-0.2,0.2-0.6,0-0.8c-4.8-4.3-11.6-13.8-11.7-13.9c-0.2-0.3-0.6-0.3-0.8-0.1c-0.3,0.2-0.3,0.5-0.2,0.8
			c0.1,0.1,6.5,9.6,7.7,13.9C289.2,309.7,289.4,309.8,289.6,309.8z"/>
	</g>
	<g>
		<path class="st8" d="M298.1,309.8c0.4-0.1,0.6-0.4,0.6-0.7c-0.3-1.6-1.4-3.8-2.7-6c0.6,0.6,1.3,1.3,1.9,1.9c0.2,0.2,0.6,0.2,0.8,0
			c0.2-0.2,0.2-0.6,0-0.8c-3.1-3-5.9-6.1-7.6-8.2c-0.6-0.7-0.9-1.2-1-1.3c-0.2-0.3-0.6-0.3-0.8-0.1c-0.3,0.2-0.3,0.6-0.1,0.8
			c0.3,0.4,0.6,0.8,1,1.3c2,2.8,6.7,9.4,7.4,12.7C297.5,309.6,297.8,309.8,298.1,309.8z"/>
	</g>
	<g>
		<path class="st8" d="M299.8,297.1c0.1,0,0.2,0,0.3-0.1c0.3-0.2,0.3-0.5,0.2-0.8c-2.1-3.1-7.3-10.3-11.2-11
			c-5.8-1-28.7,2.9-29.6,3.1c-0.3,0.1-0.5,0.4-0.5,0.7c0.1,0.3,0.4,0.5,0.7,0.5c0.2,0,23.6-4.1,29.2-3.1c2.4,0.4,6.3,4.4,10.4,10.5
			C299.4,297.1,299.6,297.1,299.8,297.1z"/>
	</g>
	<g>
		<path class="st8" d="M102.8,114.2c0.1,0,0.2,0,0.3-0.1l3.2-2.3c0.1-0.1,0.2-0.3,0.2-0.4c0-0.2,0-0.3-0.2-0.5l-3.3-3.4
			c-0.2-0.2-0.6-0.2-0.8,0c-0.2,0.2-0.2,0.6,0,0.8l2.9,2.9l-2.6,1.9c-0.3,0.2-0.3,0.6-0.1,0.8C102.4,114.1,102.6,114.2,102.8,114.2z
			"/>
	</g>
	<g>
		<path class="st8" d="M131.1,117.4c0.1,0,0.3-0.1,0.4-0.2c1.1-1,2.5-3.3,2.6-3.4c0.1-0.2,0.1-0.4,0-0.5c-0.1-0.2-0.2-0.3-0.4-0.3
			l-3-0.5c-0.4-1.1-1.5-5.1-1.5-10.7c0-0.3-0.3-0.6-0.6-0.6c-0.3,0-0.6,0.3-0.6,0.6c0,6.9,1.6,11.3,1.7,11.4
			c0.1,0.2,0.2,0.3,0.5,0.4l2.5,0.4c-0.5,0.7-1.3,1.8-1.9,2.4c-0.2,0.2-0.3,0.6,0,0.8C130.8,117.3,130.9,117.4,131.1,117.4z"/>
	</g>
	<g>
		<path class="st8" d="M124.8,133.8c4.6,0,8.3-1.3,10.9-4c4.6-4.7,4.7-12.2,4.3-16.2c-0.3-3.6-0.5-12.7-0.5-12.8
			c0-0.3-0.3-0.6-0.6-0.6c-0.3,0-0.6,0.3-0.6,0.6c0,0.4,0.1,9.2,0.5,12.9c0.4,3.8,0.3,10.9-4,15.3c-2.7,2.8-6.7,4-11.8,3.6
			c-0.3,0-0.6,0.2-0.6,0.5c0,0.3,0.2,0.6,0.5,0.6C123.5,133.8,124.2,133.8,124.8,133.8z"/>
	</g>
	<g>
		<path class="st8" d="M103.8,118.5c0.1,0,0.1,0,0.2,0c1.4-0.1,2.6-0.6,3.7-1.7c0.2-0.2,0.2-0.6,0-0.8c-0.2-0.2-0.6-0.2-0.8,0
			c-0.8,0.8-1.8,1.3-2.9,1.4c-1.3,0-2.6-0.6-3.6-1.7c-1-1.1-1.5-2.6-1.6-4.3c-0.1-1.8,0.5-3.6,1.6-4.8c0.8-1,1.9-1.5,3.1-1.6
			c1.9,0,3.4,0.9,4.3,2.7c0.1,0.3,0.5,0.4,0.8,0.3c0.3-0.1,0.4-0.5,0.3-0.8c-1-2.2-2.9-3.4-5.1-3.4c-0.1,0-0.2,0-0.3,0
			c-1.5,0.1-2.9,0.8-3.9,2c-1.3,1.4-2,3.5-1.9,5.6c0.1,1.9,0.7,3.7,1.9,5C100.7,117.7,102.2,118.5,103.8,118.5z"/>
	</g>
	<g>
		<g>
			<path class="st8" d="M121,189.4l-19.9-45.5c-0.1-0.1-0.1-0.3,0-0.4l2.3-7.6c0.1-0.2,0.2-0.4,0.4-0.4c0.2,0,0.4,0,0.6,0.2
				l14.7,16.3l9.5-14.7c0.1-0.2,0.3-0.3,0.5-0.3c0.2,0,0.4,0.1,0.5,0.3l2.7,5.6c0.1,0.1,0.1,0.3,0,0.4l-10.3,46
				c-0.1,0.3-0.3,0.4-0.6,0.5C121.3,189.7,121.1,189.6,121,189.4z M129,138.7l-9.4,14.4c-0.1,0.2-0.3,0.3-0.4,0.3
				c-0.2,0-0.4-0.1-0.5-0.2l-14.5-16.1l-1.9,6.4l19.1,43.7l9.9-44L129,138.7z"/>
		</g>
	</g>
	<g>
		<path class="st8" d="M127.8,139.9c0.3,0,0.6-0.3,0.6-0.6V133c0-0.3-0.3-0.6-0.6-0.6c-0.3,0-0.6,0.3-0.6,0.6v6.3
			C127.2,139.6,127.5,139.9,127.8,139.9z"/>
	</g>
	<g>
		<path class="st8" d="M127.8,125.9c0.3,0,0.6-0.3,0.6-0.6c0-0.3-0.2-0.6-0.6-0.6c-5.9-0.2-6.2-4.3-6.2-4.5c0-0.3-0.4-0.6-0.6-0.6
			c-0.3,0-0.6,0.3-0.6,0.6C120.5,120.3,120.9,125.7,127.8,125.9C127.8,125.9,127.8,125.9,127.8,125.9z"/>
	</g>
	<g>
		<g>
			<path class="st8" d="M225,163.3c0.2,0,0.3-0.1,0.5-0.2c18.3-21.5,17.9-49,17.9-49.3c0-0.3-0.2-0.5-0.5-0.6l-29.2-5.6
				c-0.2,0-0.3,0-0.5,0.1c-0.1,0.1-0.2,0.2-0.2,0.4c-1.6,16.1-8.7,29.1-20,36.7c-9.3,6.3-20.3,8.2-30.4,5.3
				c-25.7-7.4-30.5-7.7-30.7-7.8c-0.3,0-0.6,0.2-0.6,0.5c0,0.3,0.2,0.6,0.5,0.6c0,0,5,0.4,30.4,7.7c10.4,3,21.8,1,31.4-5.5
				c11.4-7.7,18.6-20.8,20.4-36.9l28.1,5.4c0,3.7-0.9,28.4-17.6,48c-0.2,0.2-0.2,0.6,0.1,0.8C224.7,163.3,224.8,163.3,225,163.3z"/>
		</g>
		<g>
			<path class="st8" d="M216.6,109.5c0.3,0,0.6-0.2,0.6-0.5c0.1-0.8,0.9-8.1-1.4-10.5c-2.8-3.1-5-4.7-6.9-6c-2.2-1.4-3.2-3-2.8-4.3
				c0.3-1,1.6-1.7,3.1-1.7c3.7,0,9.3,3.7,13.3,6.4l0.4,0.3c3.5,2.3,13.5-0.2,13.9-0.3c0.3-0.1,0.5-0.4,0.4-0.7
				c-0.1-0.3-0.4-0.5-0.7-0.4c-2.7,0.7-10.4,2.2-13,0.5l-0.4-0.3c-4.4-2.9-9.9-6.6-13.9-6.6c-2.2,0-3.9,1-4.3,2.5
				c-0.3,0.9-0.5,3.1,3.3,5.6c1.9,1.2,4,2.8,6.7,5.8c1.6,1.7,1.3,7.5,1.1,9.6C216,109.1,216.2,109.4,216.6,109.5
				C216.5,109.5,216.6,109.5,216.6,109.5z"/>
		</g>
		<g>
			<path class="st8" d="M238.2,113.6c0.3,0,0.6-0.3,0.6-0.6c0-0.1-0.2-9,3.7-10.8c4.3-1.9,16-12.8,16.6-17.8c0.2-1.2-0.3-2.3-1.3-3
				c-1.4-0.9-3.4-0.9-5.2,0c-2.6,1.4-10.9,8.5-12.1,9.5c-1.6,0.1-11.5,1.2-15.3,7.3c-0.2,0.3-0.1,0.6,0.2,0.8
				c0.3,0.2,0.6,0.1,0.8-0.2c3.7-6,14.4-6.7,14.6-6.7c0.1,0,0.3-0.1,0.3-0.1c0.1-0.1,9.4-8.1,12-9.5c1.4-0.7,2.9-0.7,3.9-0.1
				c0.4,0.3,0.9,0.9,0.8,1.8c-0.6,4.3-11.5,14.9-15.9,16.9c-4.7,2.1-4.5,11.5-4.4,11.9C237.7,113.4,237.9,113.6,238.2,113.6z"/>
		</g>
		<g>
			<path class="st8" d="M231.7,93.8c0.1,0,0.3-0.1,0.4-0.2c5.6-5.1,15.1-13.2,17.1-13.4c2.5-0.2,3.3,1.9,3.3,1.9
				c0.1,0.3,0.5,0.5,0.8,0.3c0.3-0.1,0.5-0.5,0.3-0.8c-0.4-1-1.8-2.9-4.5-2.7c-3.1,0.2-16.3,12.3-17.8,13.7c-0.2,0.2-0.3,0.6,0,0.8
				C231.4,93.7,231.5,93.8,231.7,93.8z"/>
		</g>
		<g>
			<path class="st8" d="M225.2,93.9c0.1,0,0.3-0.1,0.4-0.2c0.1-0.1,13.2-12.2,15.9-14c0.9-0.6,1.8-0.8,2.5-0.5c1.3,0.4,2,1.9,2,1.9
				c0.1,0.3,0.5,0.4,0.8,0.3c0.3-0.1,0.4-0.5,0.3-0.8c0-0.1-0.9-2-2.7-2.5c-1.1-0.3-2.3-0.1-3.5,0.7c-2.8,1.8-15.6,13.6-16.1,14.1
				c-0.2,0.2-0.3,0.6,0,0.8C224.9,93.9,225.1,93.9,225.2,93.9z"/>
		</g>
	</g>
	<g>
		<path class="st8" d="M73.7,232.5c0.3,0,0.5-0.2,0.6-0.5c4.2-18.4,11.9-42.5,12-42.8c0.1-0.3-0.1-0.6-0.4-0.7
			c-0.3-0.1-0.6,0.1-0.7,0.4c-0.1,0.2-7.8,24.4-12,42.9c-0.1,0.3,0.1,0.6,0.4,0.7C73.7,232.5,73.7,232.5,73.7,232.5z"/>
	</g>
	<g>
		<path class="st8" d="M59.3,277c23,0,52.4-23.5,65.5-35.2c0.2-0.2,0.3-0.5,0.1-0.7l-16.4-29.3c-0.2-0.3-0.5-0.4-0.8-0.2
			c-0.3,0.1-27.5,13.9-42.8,26c-0.3,0.2-0.3,0.6-0.1,0.8c0.2,0.3,0.6,0.3,0.8,0.1c14-11.2,38.3-23.7,42-25.6l15.9,28.4
			c-15.8,14-54.1,44.2-76.7,31.6c-0.3-0.2-0.6-0.1-0.8,0.2c-0.2,0.3-0.1,0.6,0.2,0.8C50.3,276.1,54.7,277,59.3,277z"/>
	</g>
	<g>
		<path class="st8" d="M43.4,217.2c0.3,0,0.5-0.2,0.6-0.4l1.6-5.3c0.1-0.3-0.1-0.6-0.4-0.7c-0.3-0.1-0.6,0.1-0.7,0.4l-1.6,5.3
			c-0.1,0.3,0.1,0.6,0.4,0.7C43.3,217.2,43.3,217.2,43.4,217.2z"/>
	</g>
	<g>
		<path class="st8" d="M49.6,196.7c0.3,0,0.5-0.2,0.6-0.4c0-0.1,1.6-5.4,2.7-9.7c9.4-35.3,48.5-42.3,48.9-42.4
			c0.3-0.1,0.5-0.4,0.5-0.7c-0.1-0.3-0.3-0.5-0.7-0.5c-0.4,0.1-40.2,7.2-49.8,43.2c-1.2,4.3-2.7,9.6-2.7,9.7
			c-0.1,0.3,0.1,0.6,0.4,0.7C49.5,196.7,49.5,196.7,49.6,196.7z"/>
	</g>
	<g>
		<path class="st8" d="M119.6,233.3c0.1,0,0.2,0,0.3-0.1c4.6-2.3,14-4.6,23.9-7l1.1-0.3c9-2.2,11.9-5.1,12.8-7.1
			c0.5-1.2,0.5-2.5-0.1-3.6c-0.2-0.4-0.5-0.6-0.9-0.7c-0.8-0.2-1.8,0.2-2.2,0.5c-0.3,0.2-0.4,0.5-0.2,0.8c0.2,0.3,0.5,0.4,0.8,0.2
			c0.3-0.2,0.9-0.4,1.2-0.3c0.1,0,0.1,0.1,0.2,0.1c0.4,0.8,0.5,1.7,0.1,2.5c-0.6,1.5-3,4.2-12,6.4l-1.1,0.3
			c-10,2.4-19.4,4.8-24.1,7.1c-0.3,0.1-0.4,0.5-0.3,0.8C119.1,233.2,119.3,233.3,119.6,233.3z"/>
	</g>
	<g>
		<path class="st8" d="M142.1,221c0.1,0,0.1,0,0.2,0c6-1.8,9.4-3.1,12.2-4.7c4.5-2.6,6.1-5.4,4.9-8.3c-0.2-0.6-0.6-0.9-1.1-1.1
			c-1.3-0.4-3.2,0.5-7.2,2.9c-2.1,1.2-4.4,2-6.5,2.5c5.7-2.2,11.9-5.3,13-8.2c0.3-0.8,0.2-1.6-0.2-2.3c-1.6-2.4-6.2-1.6-16.2,2.8
			c-4.8,2.1-10.7,2.3-13,2.3c-0.1,0-0.2,0-0.2,0c0.7-3.9-0.9-11-3.9-13.5c-1.9-1.6-3.2-1-3.7-0.7c-1.2,0.8-1.5,2.9-0.8,5
			c1.1,3.1-0.9,11.8-3.5,13.5c-1.2,0.8-6.3,3.6-6.4,3.6c-0.3,0.2-0.4,0.5-0.2,0.8c0.2,0.3,0.5,0.4,0.8,0.2c0.2-0.1,5.2-2.8,6.4-3.7
			c3.1-2,5.2-11.4,4-14.9c-0.6-1.8-0.3-3.2,0.3-3.6c0.5-0.4,1.3-0.1,2.3,0.6c2.8,2.3,4.4,9.7,3.4,13c-0.1,0.2,0,0.4,0.1,0.5
			c0.1,0.1,0.3,0.2,0.5,0.2c0.3,0,8.2,0.4,14.5-2.4c5.6-2.5,13.2-5.5,14.7-3.2c0.2,0.4,0.3,0.8,0.1,1.2c-1.1,3-9.8,7-17.8,9.4
			c-0.3,0.1-0.5,0.4-0.4,0.7c0,0.3,0.3,0.5,0.6,0.5c0.3,0,7.3-0.1,12.8-3.4c2.8-1.6,5.3-3.1,6.2-2.8c0.1,0,0.3,0.1,0.4,0.4
			c1,2.3-0.5,4.5-4.4,6.8c-2.6,1.5-6.1,2.9-11.9,4.6c-0.3,0.1-0.5,0.4-0.4,0.7C141.6,220.9,141.9,221,142.1,221z"/>
	</g>
	<g>
		<path class="st8" d="M109.1,106.7c11.9,0,22.5-13.6,25-16.9c1,1.7,3.6,6.3,4.3,11.2c0.1,0.3,0.3,0.5,0.7,0.5
			c0.3-0.1,0.5-0.4,0.5-0.7c-1-6.4-4.8-12.2-4.9-12.4c-0.1-0.2-0.3-0.3-0.5-0.3c-0.2,0-0.4,0.1-0.5,0.3
			c-0.1,0.2-12.9,18.6-26.2,17.1c-0.3-0.1-0.6,0.2-0.7,0.5c0,0.3,0.2,0.6,0.5,0.7C107.9,106.6,108.5,106.7,109.1,106.7z"/>
	</g>
	<g>
		<path class="st8" d="M108,129.7c3.9,0,6.9-0.2,7.2-0.2c0.3,0,0.5-0.3,0.6-0.6c0-0.3-0.2-0.6-0.5-0.6c-6.9-0.8-8.7-11-8.7-11.1
			c-0.1-0.3-0.3-0.5-0.7-0.5c-0.3,0.1-0.5,0.4-0.5,0.7c0.1,0.4,1.4,8.1,6.6,11c-5.4,0.1-16.1,0.1-21.7-2c-0.3-2.4-2-17.1-1.6-26.1
			c0.4-9.8,4.8-18.1,10.5-19.6c6-1.6,28.3-2.4,32.1,0.4c1.8,1.4,10.7,9,7.2,25.7c-0.1,0.3,0.1,0.6,0.5,0.7c0.3,0.1,0.6-0.1,0.7-0.5
			c3.6-17.4-5.8-25.5-7.7-26.9c-4.3-3.2-27.5-2.1-33.1-0.6C92.8,81.3,88,90,87.5,100.3c-0.4,9.8,1.6,26.4,1.6,26.6
			c0,0.2,0.2,0.4,0.4,0.5C94.1,129.3,102.1,129.7,108,129.7z"/>
	</g>
	<g>
		<path class="st8" d="M137.9,127.4c3.4,0,7.5-1.3,7.7-1.3c0.2-0.1,0.4-0.3,0.4-0.6c0-0.3-0.2-0.5-0.4-0.6
			c-3.4-1.1-5.3-8.6-5.7-11.4c0-0.3-0.3-0.5-0.7-0.5c-0.3,0-0.5,0.3-0.5,0.7c0.1,0.4,1.3,8.8,5.1,11.6c-1.7,0.4-4.5,1-6.6,0.9
			c-0.3,0-0.6,0.2-0.6,0.5c0,0.3,0.2,0.6,0.5,0.6C137.4,127.4,137.7,127.4,137.9,127.4z"/>
	</g>
	<g>
		<path class="st8" d="M124.1,249.2h52.8c0.3,0,0.6-0.3,0.6-0.6c0.8-53.8,12.5-85.4,12.7-85.7c0.1-0.2,0-0.4-0.1-0.5
			c-0.1-0.2-0.3-0.3-0.5-0.3h-52.8c-0.2,0-0.4,0.1-0.5,0.4c-0.1,0.1-6.2,14.3-10.1,36.9c-0.1,0.3,0.2,0.6,0.5,0.7
			c0.3,0.1,0.6-0.2,0.7-0.5c3.5-20.5,8.9-33.9,9.8-36.2h51.5c-1.8,5.2-11.7,35.7-12.4,84.7h-51.6c-0.1-2-0.2-4-0.3-6.1
			c0-0.3-0.2-0.6-0.6-0.6c-0.3,0-0.6,0.3-0.6,0.6c0.1,2.4,0.2,4.6,0.3,6.7C123.5,249,123.8,249.2,124.1,249.2z"/>
	</g>
	<g>
		<path class="st8" d="M123.7,240.7c0.3,0,0.6-0.3,0.6-0.6c-0.1-3.1-0.1-5.9,0-9.1c0-0.3-0.3-0.6-0.6-0.6c-0.3,0-0.6,0.3-0.6,0.6
			c-0.1,3.2-0.1,6,0,9.2C123.1,240.5,123.4,240.7,123.7,240.7z"/>
	</g>
	<g>
		<path class="st8" d="M183.6,185.2c23.7,0,37.7-17.3,37.9-17.5c0.2-0.3,0.2-0.6-0.1-0.8c-0.3-0.2-0.6-0.2-0.8,0.1
			c-0.1,0.2-13.9,17-36.9,17c-0.3,0-0.6,0.3-0.6,0.6C183,184.9,183.3,185.2,183.6,185.2z"/>
	</g>
	<g>
		<path class="st8" d="M105.3,138c0.3,0,0.6-0.3,0.6-0.6v-8.3c0-0.3-0.3-0.6-0.6-0.6c-0.3,0-0.6,0.3-0.6,0.6v8.3
			C104.7,137.8,105,138,105.3,138z"/>
	</g>
	<g>
		<path class="st8" d="M115.3,296c28.8,0,52.5-5,52.9-5c0.3-0.1,0.5-0.4,0.5-0.7c0-0.2-3.3-25-3.8-41.7c0-0.3-0.3-0.6-0.6-0.6
			c-0.3,0-0.6,0.3-0.6,0.6c0.5,15.4,3.3,37.5,3.7,41.3c-5.7,1.1-55.1,10.5-96.5,0v-15c0-0.3-0.3-0.6-0.6-0.6c-0.3,0-0.6,0.3-0.6,0.6
			v15.5c0,0.3,0.2,0.5,0.4,0.6C84.9,294.7,100.8,296,115.3,296z"/>
	</g>
	<g>
		<path class="st8" d="M168,316c0.4,0,0.6-0.3,0.6-0.7l-2.8-24.5c0-0.3-0.3-0.6-0.7-0.5c-0.3,0-0.6,0.3-0.5,0.7l2.8,24.5
			C167.5,315.8,167.7,316,168,316z"/>
	</g>
	<g>
		<path class="st8" d="M70.3,316c0.3,0,0.6-0.3,0.6-0.6C71.1,307,72,291.1,72,291c0-0.3-0.2-0.6-0.6-0.6c-0.3,0-0.6,0.2-0.6,0.6
			c0,0.2-0.9,16.1-1.1,24.5C69.7,315.7,70,316,70.3,316C70.3,316,70.3,316,70.3,316z"/>
	</g>
	<g>
		<path class="st8" d="M296.2,204.5c2.8,0,5.9-1.1,9.3-3.3c0.3-0.2,0.4-0.5,0.2-0.8c-0.2-0.3-0.5-0.4-0.8-0.2
			c-4.4,2.9-8.3,3.7-11.5,2.6c-3.9-1.4-5.5-5.3-5.8-6v-9.8c0-0.3-0.3-0.6-0.6-0.6c-0.3,0-0.6,0.3-0.6,0.6v9.9c0,0.1,0,0.1,0,0.2
			c0.1,0.2,1.8,5.1,6.5,6.8C294,204.3,295,204.5,296.2,204.5z"/>
	</g>
	<g>
		<path class="st8" d="M264.7,305c7.9,0,11-4.5,11.1-4.7c0.2-0.3,0.1-0.6-0.2-0.8c-0.3-0.2-0.6-0.1-0.8,0.2c-0.2,0.2-4.1,6-15.2,3.6
			c-1.6-0.3-6.4-1.3-6.4-1.3l-0.2,1.2c0,0,4.8,0.9,6.4,1.3C261.3,304.8,263.1,305,264.7,305z"/>
	</g>
	<g>
		<path class="st8" d="M121.5,189.7c0.4,0,0.6-0.3,0.6-0.6l-2.4-36.3c0-0.3-0.3-0.5-0.6-0.5c-0.3,0-0.6,0.3-0.5,0.6l2.4,36.3
			C121,189.5,121.2,189.7,121.5,189.7z"/>
	</g>
	<g>
		<path class="st8" d="M282,198.7c2.8,0,5.2-1.2,5.2-1.2c0.3-0.1,0.4-0.5,0.3-0.8c-0.1-0.3-0.5-0.4-0.8-0.3c-0.3,0.1-6.9,3.4-10.6-2
			c-3.8-5.6,1.1-12.8,1.2-12.9c0.2-0.3,0.1-0.6-0.1-0.8c-0.3-0.2-0.6-0.1-0.8,0.2c-0.2,0.3-5.4,8-1.2,14.2
			C277.1,197.9,279.7,198.7,282,198.7z"/>
	</g>
	<g>
		<path class="st8" d="M269.9,309.8c0.3,0,0.6-0.3,0.6-0.6c0-0.6,0-1.2,0-1.9c0-1.3,0.1-2.6,0-3.8c0-0.3-0.3-0.5-0.6-0.5
			c-0.3,0-0.6,0.3-0.5,0.6c0.1,1.1,0.1,2.4,0,3.6c0,0.6,0,1.3,0,1.9C269.3,309.6,269.6,309.8,269.9,309.8z"/>
	</g>
	<g>
		<path class="st8" d="M253,316c0.4-0.1,0.6-0.4,0.6-0.7c-0.3-2-0.4-3.6-0.4-6.1c0-11.4,4.6-20.2,8.5-20.2c0.3,0,0.6-0.3,0.6-0.6
			c0-0.3-0.3-0.6-0.6-0.6c-5.2,0-9.7,10-9.7,21.4c0,2.5,0.1,4.2,0.5,6.3C252.5,315.8,252.7,316,253,316z"/>
	</g>
	<g>
		<path class="st8" d="M220.2,300.6c0.1,0,0.2,0,0.3-0.1c21.1-11.4,40.4-11.5,40.6-11.5c0.3,0,0.6-0.3,0.6-0.6
			c0-0.3-0.3-0.6-0.6-0.6c-0.2,0-19.8,0.1-41.2,11.6c-0.3,0.2-0.4,0.5-0.2,0.8C219.8,300.5,220,300.6,220.2,300.6z"/>
	</g>
	<g>
		<path class="st8" d="M334,244.5c0.4-0.1,0.6-0.4,0.6-0.7c-2-9.1-8-20.8-8.1-20.9c-0.2-0.3-0.5-0.4-0.8-0.3
			c-0.3,0.2-0.4,0.5-0.3,0.8c0.1,0.1,6.1,11.7,8,20.6C333.5,244.3,333.7,244.5,334,244.5z"/>
	</g>
	<g>
		<path class="st8" d="M282.9,170.6c-0.1,0-0.3-0.1-0.4-0.2c-0.9-1.2-2-3.6-2-3.8c-0.1-0.2-0.1-0.4,0.1-0.5c0.1-0.2,0.3-0.3,0.5-0.3
			l3.1-0.1c0.5-1,2.3-4.8,3.1-10.4c0.1-0.3,0.4-0.5,0.7-0.5c0.3,0.1,0.5,0.4,0.5,0.7c-1.1,6.8-3.3,10.9-3.4,11
			c-0.1,0.2-0.3,0.3-0.5,0.3l-2.5,0c0.4,0.8,1,2,1.5,2.7c0.2,0.3,0.2,0.6-0.1,0.8C283.2,170.5,283,170.6,282.9,170.6z"/>
	</g>
</g>
</svg>
