<svg 
 xmlns="http://www.w3.org/2000/svg"
 xmlns:xlink="http://www.w3.org/1999/xlink"
 width="24px" height="13px">
<path fill-rule="evenodd"  opacity="0.961" fill="rgb(255, 255, 255)"
 d="M23.177,6.019 C22.976,5.799 18.201,0.636 12.096,0.636 C5.991,0.636 1.216,5.799 1.016,6.019 C0.624,6.451 0.624,7.077 1.016,7.509 C1.216,7.729 5.991,12.890 12.096,12.890 C18.201,12.890 22.976,7.729 23.177,7.509 C23.569,7.077 23.569,6.451 23.177,6.019 ZM13.961,3.738 C14.372,3.528 14.943,3.768 15.240,4.274 C15.534,4.779 15.441,5.359 15.032,5.568 C14.621,5.778 14.048,5.537 13.752,5.032 C13.457,4.526 13.551,3.946 13.961,3.738 ZM12.096,11.021 C7.832,11.021 4.243,7.962 3.001,6.764 C3.840,5.954 5.750,4.298 8.215,3.306 C7.733,3.990 7.452,4.807 7.452,5.685 C7.452,8.081 9.531,10.023 12.096,10.023 C14.661,10.023 16.741,8.081 16.741,5.685 C16.741,4.807 16.458,3.990 15.978,3.306 C18.443,4.298 20.353,5.954 21.191,6.764 C19.949,7.963 16.361,11.021 12.096,11.021 Z"/>
</svg>