<?xml version="1.0" encoding="utf-8"?>
<!-- Generator: Adobe Illustrator 22.0.1, SVG Export Plug-In . SVG Version: 6.00 Build 0)  -->
<svg version="1.1" xmlns="http://www.w3.org/2000/svg" xmlns:xlink="http://www.w3.org/1999/xlink" x="0px" y="0px" width="48.8px"
	 height="48.8px" viewBox="0 0 48.8 48.8" style="enable-background:new 0 0 48.8 48.8;" xml:space="preserve">
<style type="text/css">
	.st0{fill:#EDA58A;}
	.st1{fill:#272728;}
	.st2{fill:#FFFFFF;}
</style>
<g id="Слой_5">
	<g>
		<g>
			<path class="st0" d="M41.3,6.9c-9.6-9.3-24.8-9.3-34.4,0c-9.5,9.8-9.2,25.5,0.6,35c9.6,9.3,24.8,9.3,34.4,0
				C51.4,32.1,51.1,16.4,41.3,6.9z"/>
		</g>
	</g>
	<g>
		<g>
			<path class="st1" d="M38.9,9.4c-8.2-7.9-21.3-7.9-29.5,0C2,17.1,1.5,28.9,7.9,37.1c0.2-0.3,0.5-0.5,0.8-0.7
				c-5.9-7.8-5.4-18.9,1.7-26c7.7-7.7,20.3-7.7,28,0c3.7,3.7,5.8,8.8,5.8,14c0,5.3-2.1,10.3-5.8,14l0,0c-7.1,7.1-18.2,7.7-25.9,1.8
				c-0.1,0.3-0.4,0.6-0.6,0.9c8.2,6.2,19.9,5.7,27.6-1.6C47.6,31,47.3,17.6,38.9,9.4z"/>
		</g>
	</g>
</g>
<g id="Слой_3">
	<path class="st2" d="M33,16.5H13.8c-1.2,0-2.2,1-2.2,2.2v13.5c0,1.2,1,2.2,2.2,2.2H33c1.2,0,2.2-1,2.2-2.2V18.7
		C35.2,17.5,34.2,16.5,33,16.5z"/>
	<path class="st1" d="M35,14.5H15.8c-1.2,0-2.2,1-2.2,2.2v13.5c0,1.2,1,2.2,2.2,2.2H35c1.2,0,2.2-1,2.2-2.2V16.7
		C37.2,15.5,36.2,14.5,35,14.5z M35.8,16.9v12.9c-1.4-1.4-4.8-4.5-7.1-6.5C31,21.3,34.3,18.3,35.8,16.9z M26,23.9
		c-0.1,0.1-0.3,0.2-0.5,0.2c-0.2,0-0.4-0.1-0.5-0.2c-0.9-0.8-3.1-2.8-8.7-7.9h18.4C32.3,18.1,27.7,22.3,26,23.9z M23.2,24.4l0.7,0.6
		c0.9,0.8,2.1,0.8,3,0l0.7-0.6c2.2,1.9,5.4,4.9,7.1,6.5H16.2C17.8,29.3,21,26.3,23.2,24.4z M22.1,23.4c-2.3,2-5.6,5.1-7.1,6.5V16.9
		C16.6,18.3,19.9,21.3,22.1,23.4z"/>
</g>
</svg>
