<?xml version="1.0" encoding="utf-8"?>
<!-- Generator: Adobe Illustrator 22.0.1, SVG Export Plug-In . SVG Version: 6.00 Build 0)  -->
<svg version="1.1" xmlns="http://www.w3.org/2000/svg" xmlns:xlink="http://www.w3.org/1999/xlink" x="0px" y="0px" width="48.8px"
	 height="48.8px" viewBox="0 0 48.8 48.8" style="enable-background:new 0 0 48.8 48.8;" xml:space="preserve">
<style type="text/css">
	.st0{fill:#EDA58A;}
	.st1{fill:#272728;}
	.st2{fill:#FFFFFF;}
</style>
<g id="Слой_5">
	<g>
		<g>
			<path class="st0" d="M41.3,6.9c-9.6-9.3-24.8-9.3-34.4,0c-9.5,9.8-9.2,25.5,0.6,35c9.6,9.3,24.8,9.3,34.4,0
				C51.4,32.1,51.1,16.4,41.3,6.9z"/>
		</g>
	</g>
	<g>
		<g>
			<path class="st1" d="M38.9,9.4c-8.2-7.9-21.3-7.9-29.5,0C2,17.1,1.5,28.9,7.9,37.1c0.2-0.3,0.5-0.5,0.8-0.7
				c-5.9-7.8-5.4-18.9,1.7-26c7.7-7.7,20.3-7.7,28,0c3.7,3.7,5.8,8.8,5.8,14c0,5.3-2.1,10.3-5.8,14l0,0c-7.1,7.1-18.2,7.7-25.9,1.8
				c-0.1,0.3-0.4,0.6-0.6,0.9c8.2,6.2,19.9,5.7,27.6-1.6C47.6,31,47.3,17.6,38.9,9.4z"/>
		</g>
	</g>
	<g>
		<g>
			<g>
				<path class="st2" d="M35.6,32l-4-4c-0.9-0.9-2.4-0.9-3.3,0c0,0,0,0,0,0l-2.3,2.3c-0.2,0.2-0.4,0.2-0.6,0.1
					c-1.2-0.9-2.4-1.9-3.5-2.9c-1-1-1.8-2-2.6-3.1c-0.1-0.2-0.1-0.5,0-0.6l2.3-2.3c0.9-0.9,0.9-2.4,0-3.3l-4-4
					c-0.9-0.9-2.4-0.9-3.3,0l-1.3,1.3c-1.9,1.9-2.6,4.7-1.8,7.2c0.6,1.9,1.5,3.6,2.6,5.3c1,1.5,2.1,2.9,3.4,4.1
					c1.4,1.4,2.9,2.6,4.6,3.7c1.8,1.2,3.8,2.1,5.9,2.6c0.5,0.1,1.1,0.2,1.6,0.2c1.9,0,3.7-0.8,5-2.1l1.1-1.1
					C36.5,34.3,36.5,32.9,35.6,32z"/>
			</g>
		</g>
	</g>
	<g>
		<g>
			<path class="st1" d="M37.3,29.5l-4-4c-0.9-0.9-2.4-0.9-3.3,0c0,0,0,0,0,0l-2.3,2.3c-0.2,0.2-0.4,0.2-0.6,0.1
				c-1.2-0.9-2.4-1.9-3.5-2.9c-1-1-1.8-2-2.6-3.1c-0.1-0.2-0.1-0.5,0-0.6l2.3-2.3c0.9-0.9,0.9-2.4,0-3.3l-4-4
				c-0.9-0.9-2.4-0.9-3.3,0l-1.3,1.3c-1.9,1.9-2.6,4.7-1.8,7.2c0.6,1.9,1.5,3.6,2.6,5.3c1,1.5,2.1,2.9,3.4,4.1
				c1.4,1.4,2.9,2.6,4.6,3.7c1.8,1.2,3.8,2.1,5.9,2.6c0.5,0.1,1.1,0.2,1.6,0.2c1.9,0,3.7-0.8,5-2.1l1.1-1.1
				C38.3,31.8,38.3,30.4,37.3,29.5z M36.3,31.8C36.3,31.8,36.3,31.8,36.3,31.8L36.3,31.8l-1.1,1.1c-1.4,1.4-3.4,2-5.3,1.5
				c-1.9-0.5-3.8-1.3-5.5-2.4c-1.6-1-3-2.2-4.3-3.5c-1.2-1.2-2.3-2.5-3.2-3.9c-1-1.5-1.8-3.2-2.4-4.9c-0.7-2-0.1-4.3,1.4-5.8
				l1.3-1.3c0.4-0.4,0.9-0.4,1.3,0c0,0,0,0,0,0l4,4c0.4,0.4,0.4,0.9,0,1.3c0,0,0,0,0,0l-2.3,2.3c-0.7,0.7-0.8,1.7-0.2,2.5
				c0.8,1.2,1.8,2.3,2.8,3.3c1.1,1.1,2.4,2.2,3.7,3.1c0.8,0.5,1.8,0.4,2.4-0.2l2.3-2.3c0.4-0.4,0.9-0.4,1.3,0c0,0,0,0,0,0l4,4
				C36.7,30.9,36.7,31.4,36.3,31.8z"/>
		</g>
	</g>
</g>
<g id="Слой_2">
</g>
</svg>
