<?xml version="1.0" encoding="utf-8"?>
<!-- Generator: Adobe Illustrator 22.0.1, SVG Export Plug-In . SVG Version: 6.00 Build 0)  -->
<svg version="1.1" xmlns="http://www.w3.org/2000/svg" xmlns:xlink="http://www.w3.org/1999/xlink" x="0px" y="0px" width="48.8px"
	 height="48.8px" viewBox="0 0 48.8 48.8" style="enable-background:new 0 0 48.8 48.8;" xml:space="preserve">
<style type="text/css">
	.st0{fill:#EDA58A;}
	.st1{fill:#272728;}
	.st2{fill:#FFFFFF;}
</style>
<g id="Слой_5">
	<g>
		<g>
			<path class="st0" d="M41.3,6.9c-9.6-9.3-24.8-9.3-34.4,0c-9.5,9.8-9.2,25.5,0.6,35c9.6,9.3,24.8,9.3,34.4,0
				C51.4,32.1,51.1,16.4,41.3,6.9z"/>
		</g>
	</g>
	<g>
		<g>
			<path class="st1" d="M38.9,9.4c-8.2-7.9-21.3-7.9-29.5,0C2,17.1,1.5,28.9,7.9,37.1c0.2-0.3,0.5-0.5,0.8-0.7
				c-5.9-7.8-5.4-18.9,1.7-26c7.7-7.7,20.3-7.7,28,0c3.7,3.7,5.8,8.8,5.8,14c0,5.3-2.1,10.3-5.8,14l0,0c-7.1,7.1-18.2,7.7-25.9,1.8
				c-0.1,0.3-0.4,0.6-0.6,0.9c8.2,6.2,19.9,5.7,27.6-1.6C47.6,31,47.3,17.6,38.9,9.4z"/>
		</g>
	</g>
</g>
<g id="Слой_4">
	<g>
		<path class="st2" d="M23.4,13.3c-6.7,0-12.1,5.4-12.1,12.1c0,6.7,5.4,12.1,12.1,12.1c6.7,0,12.1-5.4,12.1-12.1
			C35.5,18.8,30.1,13.3,23.4,13.3z"/>
	</g>
	<g>
		<path class="st1" d="M25.4,11.3c-6.7,0-12.1,5.4-12.1,12.1c0,6.7,5.4,12.1,12.1,12.1c6.7,0,12.1-5.4,12.1-12.1
			C37.5,16.8,32.1,11.3,25.4,11.3z M36,23.4C36,29.3,31.3,34,25.4,34c-5.8,0-10.6-4.8-10.6-10.6s4.8-10.6,10.6-10.6
			C31.3,12.8,36,17.6,36,23.4z"/>
		<path class="st1" d="M28.3,25.3c1-1.5,0.6-3.5-0.8-4.6c-0.4-0.3-0.9-0.5-1.4-0.6v-5c0-0.4-0.3-0.7-0.7-0.7c-0.4,0-0.7,0.3-0.7,0.7
			v5c-1.7,0.4-2.9,2-2.7,3.8c0.2,1.9,2,3.3,3.9,3c0.5-0.1,1-0.2,1.5-0.5l2.9,2.9c0.1,0.1,0.3,0.2,0.5,0.2c0,0,0,0,0.1,0
			c0.2,0,0.4-0.1,0.5-0.3c0.2-0.3,0.2-0.7,0-1L28.3,25.3z M27.4,23.4c0,1.1-0.9,2-2,2s-2-0.9-2-2c0-1.1,0.9-2,2-2
			S27.4,22.3,27.4,23.4z"/>
	</g>
</g>
</svg>
