<svg
 xmlns="http://www.w3.org/2000/svg"
 xmlns:xlink="http://www.w3.org/1999/xlink"
 width="13px" height="19px">
<path fill-rule="evenodd"  fill="rgb(255, 255, 255)"
 d="M11.262,14.498 C10.577,13.424 9.792,12.673 8.681,13.256 L8.015,13.612 C7.529,13.868 6.356,15.367 4.464,11.148 C2.572,6.936 4.382,6.852 4.868,6.599 L5.536,6.244 C6.644,5.658 6.583,4.522 6.227,3.274 L6.012,2.519 C5.651,1.273 5.136,0.379 4.026,0.964 L3.427,1.283 C2.952,1.484 1.587,2.182 0.819,4.007 C-0.102,6.194 0.223,9.076 1.789,12.567 C3.352,16.056 5.243,18.110 7.401,18.669 C9.193,19.133 10.544,18.402 10.980,18.119 L11.582,17.800 C12.690,17.214 12.359,16.222 11.674,15.147 L11.262,14.498 Z"/>
</svg>
