<?xml version="1.0" encoding="utf-8"?>
<!-- Generator: Adobe Illustrator 22.0.1, SVG Export Plug-In . SVG Version: 6.00 Build 0)  -->
<svg version="1.1" xmlns="http://www.w3.org/2000/svg" xmlns:xlink="http://www.w3.org/1999/xlink" x="0px" y="0px" width="559.1px"
	 height="390.7px" viewBox="0 0 559.1 390.7" style="enable-background:new 0 0 559.1 390.7;" xml:space="preserve">
<style type="text/css">
	.st0{fill:#EDA58A;}
	.st1{fill:#FFFFFF;}
	.st2{fill:#48484B;}
	.st3{fill:#9898EA;}
	.st4{fill:#272728;}
	.st5{fill:#B3B3B3;}
	.st6{fill:#FDFDFD;}
</style>
<g id="Слой_9">
	<path class="st0" d="M143.1,369.2c191.9,57.3,280.3-9.8,330.6-84c71.3-105.3,45.1-236.1-41.5-207c-48.9,16.4-19,78.6-75.2,96.2
		c-64.9,20.4-78.4-103.6-154.4-77.5c-29.7,10.2-24,53-108.1,29.7C-35.8,90.4-41.9,313.9,143.1,369.2z"/>
</g>
<g id="Слой_10">
	<path class="st1" d="M538.3,183.6h-41.7l-18.5,11.5v-43.4c0-6.2,5-11.2,11.2-11.2h48.9c6.2,0,11.2,5,11.2,11.2v20.6
		C549.5,178.5,544.5,183.6,538.3,183.6z"/>
	<path class="st1" d="M158.7,155.9c0,0-3.7-6-11-6c-7.4,0-7.2,1.9-12,1.9s-14.5-1.6-18.5,7.5c-3.9,9.1,1.5,14.3,8.3,13.5l-0.9,1.5
		c0,0-2.7,4.5-2.5,4.6c0.2,0.1-1.4,10.6,5.5,14.2l0.8,1.7l-2.8,3.7l-1,3.7l0.7,3.1l2.3,2.4l1.9,0.8l3.5,0.5l4.3-0.4
		c0,0,3.8-1.4,4.1-0.2c0.3,1.3,3,7.8,0.1,9.2c-3,1.4-3.2,16.3-1.9,16.7c1.3,0.5,6.7,2,9.6,2.7c2.9,0.6,3.8,0.8,5.9-2.6
		c2.1-3.4,4.8-6.5,5.6-8c0.8-1.4,3.5-11.3,3.5-11.3l-2.2-9.3l4.6-0.6l9.3-2.5l3.4-3l0.8-2.7l-1-6l-1.6-3.4l-2.3-2.9l-1.5-2.1
		l-0.8-2.3l0.5-3.6l0.2-5.6l-1-4.7l-2.1-4.2l-2.9-3L164,158l-2.3,0.1L160,158L158.7,155.9z"/>
	<path class="st2" d="M487.9,363.1c0,0-4.4-16.2-5.1-32.8s-0.8-25.7-0.8-25.7s17.8-0.4,22.4-5.3c4.6-4.9,8.9-9,8.7-18.1
		c-0.2-9.1-10.2-26.1-14.4-33.1c-4.1-7-14.3-23.9-22-30.8c-7.7-6.9-16.7-14.2-24.5-13.5c-7.8,0.7-35.4,0.6-35.4,0.6
		s-15.2,1.5-25.7,11.9c-10.5,10.4-11.2,17.2-11.2,17.2l0.1,103.1c0,0,0.1,24.2,0,26.5H487.9z"/>
	<path class="st3" d="M289.2,198.8c0,0-16.3,0.9-29.1,5c-12.8,4.1-20.7,12.5-20.7,12.5l-3-8.7c0,0-4.1,8.5-20,9.7
		c-15.9,1.2-19.3-1-19.3-1s4.3,27.4,5.3,33.2c1,5.8,4.3,26.1,6.3,31.6c2,5.5,9.1,27.3,29.3,23.6c0,0,14.6-2.3,17.4-16.8l1.8-10.9
		c0,0,0.5,16.8-0.9,27.7c-1.4,10.9-7,47.6-10.4,57.5l-0.4,1.1l110.7-0.1c0,0-7.2-33.3-8.9-41.9s-2.8-29.1-3.3-33.9
		c-0.5-4.7,1.2-13,1.5-16c0.3-3.1,1-12.6,0.1-18.3c0,0,6,5.6,10.9,11.7c4.9,6.1,10.2,13.4,11.4,18.5c1.2,5.1,0.2,11.3-9.2,18.3
		c0,0,5.8,0.1,9.7,11.1c3.8,11,5.4,14.3,5.2,19.2c-0.2,4.9-1.1,6.9-1.1,6.9s10.5-4.9,15.5-7.6c5-2.7,13.7-11.5,16.5-17
		s5.3-14.9,2.5-28c-2.8-13.1-7.3-23.7-11.6-30.7c-4.3-7-13.4-20.4-19.8-25.6c-6.5-5.3-11.6-11.5-13.8-13.6
		c-2.3-2.1-11.5-9.6-18.8-11.9s-15.1-4.3-19.5-4.8c-4.4-0.5-11.8-0.8-11.8-0.8H289.2z"/>
	<path class="st1" d="M283.4,162.7c0,0-7.1-2.1-8.9,5.6c0,0,0,5.2,3.8,6.2s6.1-0.2,6.1-0.2s1.5,9.7,6.5,12.3c0,0-0.2,9.4-1.3,12.2
		c-1.2,2.8-2.9,10.4,10.3,12.2c0,0,8.3,0.1,10.5-2.5c2.2-2.6,3.2-4.4,2.6-5.8c-0.6-1.4-1.9-8.1-2.1-10.5c-0.2-2.4-0.3-5.6-0.3-5.6
		s3.6-1.9,4.5-5.3c0.9-3.4,2-7,2-7s4.7,2.1,7.2-0.3c2.5-2.5,3.2-5.2,2.7-7c-0.4-1.8-3.8-4.7-6-4.8c-2.2-0.1-3.6,0.5-3.6,0.5
		l-0.3-1.8c0,0-9.2-0.7-15.2-4.7c-6-4-12.9-9.8-12.9-9.8s-3.2,10.1-5.2,11.9L283.4,162.7z"/>
	<path class="st1" d="M425.6,179l-1.2,17.7l19.2,20.6l5.7-20.4l-0.5-3.3c0,0,7.5,0.3,8.7-8.3c1.2-8.6,0.1-29.1,0.1-29.1L436,148
		l-15.4,16.9c0,0-4.4,1.3-5.6,6.6C413.7,176.6,420.6,182.4,425.6,179z"/>
	<path class="st2" d="M429.5,169.5l-1.1,10.8c0,0-0.8,9,3.2,11c4,2,11.1,2.7,14.5,2.4c3.4-0.3,7.7,0.2,9.7-3.5c2-3.7,2-8.4,2-9.2
		c0-0.8-0.3-2.7-0.3-2.7s-2.6-0.7-4.7-0.6c-2,0.2-5.1-0.1-5.8-0.1c-0.7,0.1-2.1-0.5-3.5-1.4c-1.4-1-4.8-1.3-6.3-1.5
		c-1.5-0.2-3.4,0-4.1-2.3c-0.8-2.3-1.8-8.4-1.8-8.4s3.6-3.5,4.5-6.6c0.9-3.1,1.6-7,1.6-7s4,4.4,10.2,6c6.2,1.6,9.9-0.1,9.9-0.1
		l0.4,8.1c0,0,4.6-3.7,4.9-6.3c0.3-2.6,0.3-6.7-2.8-7.3c0,0,3.3-5.2,0.8-10.8c-2.5-5.5-7.6-8.7-10.9-8.9c-3.2-0.2-7.5,0.4-10.7,2.5
		c-3.2,2.1-7,7.2-7.1,8.4c0,0-7.1,0-9.9,0.7c-2.8,0.7-5.8,2.2-7.5,6s-0.5,11.2,0.5,13.9c1,2.6,1.5,3.9,1.5,3.9s3.2-2.5,7-1.5
		C427.4,166,429.5,169.5,429.5,169.5z"/>
	<polygon class="st1" points="432.2,236.3 416.8,204.4 424.4,196.7 443.5,217.3 449.2,196.9 453.7,204 454,231.6 453,230.5 
		454.5,244.8 455.2,256.5 454,255.5 450.3,257.5 443,257.5 434.3,232.8 	"/>
	<path class="st4" d="M202.5,209.5l4.4,8.6c0,0-9.3-0.2-9.9-2.9C196.3,212.5,202.5,209.5,202.5,209.5z"/>
	<path class="st4" d="M231.9,205.2l-3.4,8.6c0,0,6.4-2.1,7.1-5.6C235.7,208.2,236.4,205.8,231.9,205.2z"/>
	<path class="st4" d="M436.7,177.9c0,0,3.3,1.7,3.4,4c0.2,2.2-0.7,3.9-0.7,3.9s3.4,1.5,6.1,0.3c2.7-1.2,2.5-3.6,0.9-4.2
		c-1.5-0.5-4.3,0.7-4.9-0.7c-0.6-1.4-0.2-4-2.1-4.3C437.5,176.4,436.7,177.9,436.7,177.9z"/>
	<path class="st4" d="M363.2,304.6l-4.8-2.1c0,0,0.3-1.3,1.3-1C360.6,301.9,363.2,304.6,363.2,304.6z"/>
	<path class="st4" d="M364.8,333.4c0,0,6.5-1,8.6-2.5c0,0,1.2,8.5-1.9,8.2C368.4,338.8,365.1,334.2,364.8,333.4z"/>
	<path class="st4" d="M417.8,262c0,0,3.5,0.4,4.2,1.7c0,0,2.3-1.8,5.4-1.7c3.2,0.1,5.8,2.1,6,3.8l2.8-1.4c0,0-4-6.3-8.6-6
		C423.2,258.7,421.9,258.6,417.8,262z"/>
	<polygon class="st3" points="436.7,229.2 442.2,236.3 441.3,251.5 443,257.5 450.3,257.5 453.6,256 454.6,256.2 454.6,245.2 
		449.5,235.6 450.6,226.7 443.5,217.3 	"/>
	<path class="st1" d="M436.4,177.9c0,0-0.4,6.4,2.9,7.5h0.6c0,0,0.6-2.6,0-4.2C439.2,179.5,436.4,177.9,436.4,177.9z"/>
	<path class="st2" d="M280.6,175.2c0,0,1.3,3.2-1.1,3.3c-2.3,0-9,0.6-11.7,4.6c-2.6,4-3.7,6.2-3.4,10.6c0.3,4.4,4.8,7.6,4.8,7.6
		s9.4-2.4,20-2.4c0,0,0.7-0.8,1-4.3c0.3-3.5,0.4-8,0.4-8s-3.9-2.8-5-7.1c-1.1-4.3-1.3-5.1-1.3-5.1S282.6,175.7,280.6,175.2z"/>
	<path class="st2" d="M320.2,175.2c0,0-0.7,3.2,1.6,3.3c2.3,0,9,1,11.6,5c2.6,4,3.1,5.6,2.8,9.9c-0.3,4.4-4.6,7.8-4.6,7.8
		s-8.9-2.4-19.5-2.3c0,0-0.7-0.8-1-4.3c-0.3-3.5-0.4-8-0.4-8s3.9-2.8,5-7.1c1.1-4.3,1.3-5.1,1.3-5.1S318.2,175.7,320.2,175.2z"/>
	<path class="st2" d="M280.3,162.2l3.6,0.5l0.1-4.5c0,0,4.1-7.3,5.2-11.9c0,0,8.8,8.3,14.4,10.6c5.6,2.3,11.7,4.2,13.7,3.9l0.2,1.3
		l2.5-0.3c0,0,0.9-8.4,1.1-12.5c0.1-4.1-1.9-11.1-7.6-13.2c-5.6-2.1-11.2-3.3-18.1-2.6c-6.8,0.8-10.1,6.4-10.1,6.4s-5.1,0.8-6.1,6.9
		S280.3,162.2,280.3,162.2z"/>
	<path class="st1" d="M433.5,265.9c0,0-2-3.9-5.7-3.8c-3.7,0-5.5,1-5.5,1s-4.8-1.3-7.7-0.3c-2.9,1-4.3,1.4-4.3,1.4s-6.6-1-9.5,2.1
		c0,0,2.9,6.7,4.3,11.9c1.4,5.2,2.5,10.2,2.5,10.2s3-0.5,4.3-2.2c1.4-1.7,2.6-4.9,2.6-4.9s0.8,6,6.2,5.1c3.7-0.6,4.6-4.6,4.6-6
		s0.5-8.5,2.8-11C430.5,266.8,433.5,265.9,433.5,265.9z"/>
	<path class="st1" d="M467.6,267.7c0,0,6.3-5.7,12-6.9c5.7-1.2,11.3-0.7,11.3-0.7s0.9-3.2-2.1-5.8c-3-2.5-7.5-3.5-7.5-3.5
		s-2.7-4-9.6-4.1c-6.9,0-17.7,9.3-17.7,9.3S463.1,261.7,467.6,267.7z"/>
	<path class="st1" d="M228.5,213.8c0,0,3.6-8.7,5.2-13.2c1.6-4.5,3.7-10,1.5-13.1c-2.2-3.2-7.5-6.4-11.8-7.8
		c-4.3-1.4-6.5-1.2-6.9,2.5c-0.4,3.7,3.8,8.1,9.5,11.3l-26,10.4c0,0,5.8,12.8,7.3,14.3C207.3,218.1,223.9,217.1,228.5,213.8z"/>
	<polygon class="st1" points="191.5,206.9 241.5,188.3 217.7,124.9 167.9,143.5 	"/>
	<path class="st1" d="M364.5,305.7c0,0-6.1-4.6-14.7-6.4c-8.5-1.8-16.9,0.7-18.6,2.2c-1.7,1.5-4.4,3.9-1.7,7c0,0-5.3,3.9-2,8.6
		c0,0-2.3,2.5-1.1,4.3c1.2,1.8,4,3.3,7.9,3.2s12.2-1.7,16-0.6c0,0,0.7,6.5,8.8,8.6c8.1,2.1,14.2-1.9,14.2-1.9s-2-11.8-4.2-16.3
		C367.1,310,364.5,305.7,364.5,305.7z"/>
	<path class="st5" d="M222.6,195.3l3.9-1.4c0,0-9.5-5.5-10.1-12.7"/>
	<path class="st2" d="M142,213.8c0,0-26.9,3.3-35.8,17.7c0,0-5,6.5-6.1,12.3l58.8,5.5l3.7,2.7l28.3,59.3l-0.7,4.9l-7.2,6.9l-2,0.6
		l-17.9-1.6l-59-5.1c0,0-4.6-0.5-6.5-2c-1.9-1.6-10.5-22-10.5-22s-4.3,1.1-7.2,0.9c-2.9-0.1-8.8-0.8-8.8-0.8s3.1,10,5.9,15.2
		c2.8,5.2,10.2,17.6,17.3,20.7c7.1,3.1,11.8,2.6,11.8,2.6s-0.2,9.8-0.9,14.6c-0.7,4.8-2.7,14.7-3.8,16.5l108,0.3v-25.3
		c0,0,7.9-6,10.3-13.7c2.4-7.7,2.4-18,2.4-19.5c-0.1-1.5-0.2-3-0.2-3s-10-8-12.9-19.5c-2.9-11.6-5.5-25.7-6.1-29.3
		c-0.6-3.7-4-23.9-4-23.9s-5.1-9.7-16.7-13.5c-11.6-3.7-17.9-1.5-17.9-1.5s-2.1,4.5-6.7,8.2c-4.7,3.7-9.6,10.8-12.5,9.5
		c-3-1.3-2.5-9.4-2.3-10.5c0.2-1.1,0.3-4.5,0.3-4.5L142,213.8z"/>
	<path class="st6" d="M324.3,178.7c0,0,7.9,5.4,5.6,13.3c-2,7-5.6,7.7-5.6,7.7l7.7,1.1c1.1-1,4-3.9,4.2-7.4c0.3-4.4-0.2-5.9-2.8-9.9
		C331.5,180.5,327.3,179.2,324.3,178.7z"/>
	<g>
		<path class="st1" d="M460,150.8c0,0,3.3-5.2,0.8-10.8c-2-4.3-5.6-7.2-8.6-8.4c0,0,9.4,13,3.2,18.4c-3.4,2.9-10.3,6.5-17.9,0.3
			c0,0,4,4.4,10.2,6c6.2,1.6,9.9-0.1,9.9-0.1l0.4,8.1c0,0,4.6-3.7,4.9-6.3C463.1,155.4,463.1,151.4,460,150.8z"/>
	</g>
	<g>
		<path class="st1" d="M457.5,178.2c0,0-1.3-0.4-2.7-0.5c0,1.6,1.4,18.5-14.7,15.8c2.3,0.4,4.5,0.3,6,0.2c3.4-0.3,7.7,0.2,9.7-3.5
			c2-3.7,2-8.4,2-9.2C457.8,180.1,457.5,178.2,457.5,178.2z"/>
		<path class="st4" d="M440,193.4c-0.4,0-0.8-0.1-1.3-0.2C439.1,193.3,439.5,193.4,440,193.4z"/>
	</g>
	<path class="st6" d="M317.2,160.9l0.2,1.3l2.5-0.3c0,0,0.9-8.4,1.1-12.5c0.1-4.1-1.9-11.1-7.6-13.2c-1.5-0.6-3-1-4.5-1.5
		c3.5,4.3,8.6,12,4,16.7c-6.6,6.7-23.5-5.1-23.5-5.1s0,0.1,0.1,0.4c1.8,1.7,9.1,8.2,14,10.2C309.1,159.4,315.2,161.3,317.2,160.9z"
		/>
	<polygon class="st1" points="440.9,221.3 445.7,228.5 446.1,236.2 454.3,254.8 454.6,245.6 449.5,235.6 450.6,226.7 443,217.3 	"/>
	<path class="st4" d="M127.7,193c0,0,2.1-0.5,3.8-2.4l-1.5-1.7C129.6,190.4,128.9,191.8,127.7,193z"/>
	<path class="st4" d="M129.8,187.5v1.2c0.2-0.3,0.3-0.7,0.3-1.2L129.8,187.5z"/>
	<path class="st3" d="M167.4,274.3l17.6,37.3c0,0,3.1,6.1,0.4,9.1c-2.7,3-6,2.8-6,2.8l-78.8-6.6c0,0-2.3-0.5-5.1-5.3
		c-2.8-4.8-8.4-18.6-8.4-18.6l-18.3-37.8c0,0-1.3-7.2,4.5-9.2l80.3,6.8c0,0,3.1-0.1,5.5,4.2C161.6,261.2,167.4,274.3,167.4,274.3z"
		/>
	<path class="st1" d="M68.6,255.5l4.4,8.4c0,0,1.1,1.2,6.6,1.1c5.5-0.1,7.5-0.5,9,0.9c1.5,1.3,3.7,4.2,1.3,8.8c0,0,2.6,1.4,2.5,4.3
		c-0.1,2.9-1.6,4.1-1.6,4.1s2.7,1.9,2.1,4.6c-0.7,2.7-3.9,4.7-6.4,5.5c-2.4,0.9-13.3,1-15.3-0.1c-2-1.1-5.2-1.7-7.4-7.4
		c-2.2-5.7-2.7-12.7-2.6-15.2c0.1-2.5,1-6.4,2-8.8C64.2,259.4,68.6,255.5,68.6,255.5z"/>
	<path class="st1" d="M124.1,283.6c2,3.4,1.7,7.2-0.5,8.5c-2.2,1.3-5.7-0.4-7.6-3.8c-2-3.4-1.7-7.2,0.5-8.5
		C118.7,278.4,122.1,280.2,124.1,283.6z"/>
	<path class="st1" d="M73.1,245.3l3.7-3l69.8,5.6l12.3,1.3c0,0,3,1.2,5,5.5l26.9,56.6c0,0,0.8,3.7-1,5.3l-3.3,3c0,0,1.4-0.7,0-4.6
		l-28.2-59.5c0,0-2-2.1-4.1-2.8L73.1,245.3z"/>
	<g>
		<path class="st4" d="M196.2,306.5c-0.2,0-0.4-0.1-0.5-0.3c-3.7-5.4-12.8-14.5-16.6-18.2c-0.2-0.2-0.3-0.6,0-0.9
			c0.2-0.2,0.6-0.2,0.9,0c3.8,3.7,13,12.9,16.7,18.3c0.2,0.3,0.1,0.7-0.2,0.9C196.4,306.5,196.3,306.5,196.2,306.5z"/>
	</g>
	<g>
		<path class="st4" d="M198.5,340.5c-10.5,0-23.2-6.1-36.3-17.6c-0.3-0.2-0.3-0.6-0.1-0.9c0.2-0.3,0.6-0.3,0.9-0.1
			c15.6,13.7,30.3,19.5,41.5,16.5c16.6-4.5,17.6-25.1,16.8-36.9c0-0.3,0.2-0.6,0.6-0.7c0.4,0,0.6,0.2,0.7,0.6
			c0.9,12.3-0.2,33.5-17.7,38.2C202.8,340.3,200.7,340.5,198.5,340.5z"/>
	</g>
	<g>
		<path class="st4" d="M104.9,332.3c-1.7,0-3.5-0.2-5.3-0.6c-13.3-2.9-24.2-21.5-29.1-38.8c-0.1-0.3,0.1-0.7,0.4-0.8
			c0.3-0.1,0.7,0.1,0.8,0.4c4.8,16.9,15.4,35.2,28.2,37.9c2.1,0.5,4.2,0.6,6.3,0.5c0.4-0.1,0.6,0.2,0.7,0.6c0,0.3-0.2,0.6-0.6,0.7
			C105.8,332.3,105.3,332.3,104.9,332.3z"/>
	</g>
	<g>
		<path class="st4" d="M199,230.2c-0.2,0-0.5-0.1-0.6-0.4c-7.9-16.5-26.6-16.3-34.4-15.4c-0.3,0-0.7-0.2-0.7-0.6
			c0-0.3,0.2-0.7,0.6-0.7c8-0.9,27.4-1.1,35.6,16.1c0.1,0.3,0,0.7-0.3,0.8C199.1,230.2,199,230.2,199,230.2z"/>
	</g>
	<g>
		<path class="st4" d="M100.1,243.8c-0.5-0.1-0.7-0.5-0.6-0.8c6.1-19.5,20.9-25.2,33.2-28c0.3-0.1,6.6-1.4,9.9-1.6
			c0.4,0,0.6,0.2,0.7,0.6c0,0.3-0.2,0.6-0.6,0.7c-3.1,0.2-9.6,1.6-9.7,1.6c-11.9,2.7-26.3,8.2-32.3,27.1
			C100.7,243.6,100.4,243.8,100.1,243.8z"/>
	</g>
	<g>
		<path class="st4" d="M138.1,206.6c-0.4,0-0.9,0-1.4-0.1c-2.7-0.4-4.8-2-6.4-4.9c-1.3-2.4-2.2-5.1-2.9-8.7
			c-0.1-0.3,0.1-0.7,0.5-0.7c0.3-0.1,0.7,0.1,0.7,0.5c0.7,3.4,1.6,6.1,2.8,8.3c1.4,2.6,3.2,4,5.5,4.3c1.4,0.2,3,0,5-0.5
			c2-0.5,4.9-1.4,6.9-2.2c0.3-0.1,0.7,0,0.8,0.4c0.1,0.3,0,0.7-0.4,0.8c-2,0.8-5,1.7-7,2.2C141.2,206.3,139.7,206.6,138.1,206.6z"/>
	</g>
	<g>
		<path class="st4" d="M156.8,190.7c-0.7,0-1.5-0.1-2.1-0.3c-0.3-0.1-0.5-0.5-0.4-0.8c0.1-0.3,0.5-0.5,0.8-0.4
			c1,0.3,2.1,0.4,3.1,0.1c1.5-0.4,2.8-1.3,3.6-2.6c0.8-1.3,1.1-2.9,0.7-4.5c-0.4-1.5-1.3-2.8-2.6-3.6c-1.3-0.8-2.9-1.1-4.5-0.7
			c-1.1,0.3-2.2,0.9-3,1.7c-0.2,0.3-0.6,0.3-0.9,0c-0.3-0.2-0.3-0.6,0-0.9c1-1.1,2.2-1.8,3.6-2.1c1.9-0.4,3.8-0.1,5.4,0.9
			c1.6,1,2.8,2.6,3.2,4.4c0.4,1.9,0.1,3.8-0.9,5.4c-1,1.6-2.6,2.8-4.4,3.2C157.9,190.6,157.3,190.7,156.8,190.7z"/>
	</g>
	<g>
		<path class="st4" d="M158.7,187.2c-0.1,0-0.2,0-0.3-0.1l-4.9-2.6c-0.2-0.1-0.3-0.3-0.3-0.5c0-0.2,0-0.4,0.2-0.5l4.2-4.4
			c0.2-0.2,0.6-0.3,0.9,0c0.2,0.2,0.3,0.6,0,0.9l-3.6,3.8l4.2,2.2c0.3,0.2,0.4,0.5,0.3,0.8C159.2,187,159,187.2,158.7,187.2z"/>
	</g>
	<g>
		<path class="st4" d="M209.4,363.7c-0.4,0-0.6-0.3-0.6-0.7c0.4-8.6,0-25.1,0-25.3c0-0.3,0.3-0.6,0.6-0.6c0.3,0,0.6,0.3,0.6,0.6
			c0,0.2,0.4,16.7,0,25.4C210.1,363.4,209.8,363.7,209.4,363.7z"/>
	</g>
	<g>
		<path class="st4" d="M179,287.2c-0.3,0-0.5-0.2-0.6-0.5c-4.6-16.4-4.2-40.7-4.2-41c0-0.3,0.3-0.6,0.6-0.6c0.3,0,0.6,0.3,0.6,0.6
			c0,0.2-0.4,24.4,4.2,40.6c0.1,0.3-0.1,0.7-0.4,0.8C179.1,287.2,179,287.2,179,287.2z"/>
	</g>
	<g>
		<path class="st4" d="M133,192.7c-0.1,0-0.2,0-0.3-0.1c-1.1-0.5-3.3-2.2-3.8-3.8c-0.2-0.7-0.1-1.2,0.1-1.5c0.7-1.2,2.4-0.8,3.6-0.5
			c0.1,0,0.3,0.1,0.4,0.1c0-1.3-0.1-4.8-0.2-7.1c0-0.3,0.3-0.6,0.6-0.6c0.3,0,0.6,0.3,0.6,0.6c0,1.2,0.3,7.1,0.2,7.7
			c0,0.2-0.2,0.4-0.3,0.5c-0.4,0.3-0.9,0.2-1.6,0c-0.7-0.2-2-0.5-2.2,0c0,0-0.1,0.2,0,0.5c0.3,1.1,2.2,2.6,3.1,3
			c0.3,0.1,0.5,0.5,0.3,0.8C133.5,192.6,133.3,192.7,133,192.7z"/>
	</g>
	<g>
		<path class="st4" d="M137.7,197c-0.3,0-0.5,0-0.8,0c-0.3,0-0.6-0.3-0.6-0.7c0-0.3,0.3-0.6,0.7-0.6c1.5,0.1,2.6-0.2,3.3-0.9
			c1.2-1.2,1.1-3.3,1.1-3.3c0-0.3,0.2-0.6,0.6-0.7c0.4,0,0.6,0.2,0.7,0.6c0,0.1,0.2,2.7-1.5,4.3C140.3,196.6,139.1,197,137.7,197z"
			/>
	</g>
	<g>
		<g>
			<path d="M228.5,214.6c-0.5-0.1-0.7-0.5-0.6-0.8c0.1-0.4,2.8-9.3,5.9-14.7c3-5.4,2.4-10.3,0.3-12.1c-2.8-2.4-12.1-9-15.6-7.7
				c-0.7,0.3-1.1,0.9-1.2,2c-0.7,6.8,11.4,12.9,11.5,13c0.3,0.2,0.4,0.5,0.3,0.8c-0.2,0.3-0.5,0.4-0.8,0.3
				c-0.5-0.3-13-6.6-12.2-14.3c0.2-1.9,1.2-2.7,2-3c4.9-1.9,16.7,7.8,16.8,7.9c3,2.5,3,8.3,0,13.6c-3,5.3-5.7,14.3-5.8,14.4
				C229,214.5,228.7,214.6,228.5,214.6z"/>
		</g>
		<g>
			<path d="M207.1,218.7c-0.2,0-0.4-0.1-0.5-0.3c-3.1-4.8-7-14-7.2-14.3c-0.1-0.3,0-0.7,0.3-0.8c0.3-0.1,0.7,0,0.8,0.3
				c0,0.1,4.1,9.4,7.1,14.2c0.2,0.3,0.1,0.7-0.2,0.9C207.3,218.6,207.2,218.7,207.1,218.7z"/>
		</g>
		<g>
			<path d="M217.5,207.2c-0.3,0-0.5-0.2-0.6-0.5c-1.1-4.1-4.1-7.4-4.1-7.4c-0.2-0.3-0.2-0.7,0-0.9c0.3-0.2,0.6-0.2,0.9,0
				c0.1,0.1,3.2,3.5,4.4,8c0.1,0.3-0.1,0.7-0.4,0.8C217.6,207.2,217.5,207.2,217.5,207.2z"/>
		</g>
	</g>
	<g>
		<path class="st4" d="M371.7,339.7c-0.3,0-0.5-0.2-0.6-0.4c-0.1-0.3,0-0.7,0.4-0.8c43.1-16.3,39.6-43.2,30.6-67.4
			c-9.7-25.7-23.7-38.6-34-48.1c-1.8-1.6-3.4-3.1-4.9-4.6c-12.2-11.9-31.4-19-51.3-19c-0.3,0-0.6-0.3-0.6-0.6s0.3-0.6,0.6-0.6
			c20.2,0,39.7,7.2,52.2,19.4c1.5,1.4,3.1,2.9,4.9,4.5c10.4,9.5,24.6,22.5,34.4,48.5c9.3,24.8,12.9,52.4-31.3,69
			C371.8,339.7,371.7,339.7,371.7,339.7z"/>
	</g>
	<g>
		<path class="st4" d="M239.5,216.9c-0.2,0-0.4-0.1-0.5-0.2c-0.2-0.3-0.2-0.7,0.1-0.9c16.9-14.5,36.8-17.6,50.5-17.6
			c0.3,0,0.6,0.3,0.6,0.6s-0.3,0.6-0.6,0.6c-13.5,0-33.1,3-49.7,17.3C239.8,216.8,239.6,216.9,239.5,216.9z"/>
	</g>
	<g>
		<path class="st4" d="M379.9,234.1c-0.5-0.1-0.7-0.5-0.6-0.8c6.2-19.5,26.3-29.2,37.9-29.6c0.4,0,0.6,0.3,0.6,0.6
			c0,0.3-0.3,0.6-0.6,0.6c-11.3,0.4-30.8,9.7-36.8,28.7C380.4,233.9,380.2,234.1,379.9,234.1z"/>
	</g>
	<g>
		<path class="st4" d="M558.5,363.8H15.7c-0.3,0-0.6-0.3-0.6-0.6c0-0.3,0.3-0.6,0.6-0.6h542.8c0.3,0,0.6,0.3,0.6,0.6
			C559.1,363.5,558.8,363.8,558.5,363.8z"/>
	</g>
	<g>
		<path class="st4" d="M408,263.6c-0.4,0-0.7-0.4-0.6-0.7c1.1-9.7-0.9-21.9-0.9-22c-0.1-0.3,0.2-0.7,0.5-0.7
			c0.3-0.1,0.7,0.2,0.7,0.5c0,0.1,2.1,12.5,1,22.4C408.6,263.4,408.4,263.6,408,263.6z"/>
	</g>
	<path class="st4" d="M291.9,162.7c0.5-0.1,0.8,0.1,1,1.9c0.2,2-0.4,2.4-0.8,2.3c-0.4,0-0.9-0.6-0.9-2.1
		C291.2,163.5,291.3,162.8,291.9,162.7z"/>
	<path class="st4" d="M309.1,162.9c0.5-0.1,0.8,0.2,0.9,2c0.1,2-0.4,2.3-0.9,2.3c-0.4,0-0.9-0.7-0.8-2.1
		C308.3,163.7,308.4,163,309.1,162.9z"/>
	<path class="st4" d="M439,165c0.5-0.1,0.8,0.1,1,1.9c0.2,2-0.4,2.4-0.8,2.3c-0.4,0-0.9-0.6-0.9-2.1
		C438.3,165.7,438.4,165.1,439,165z"/>
	<path class="st4" d="M453.6,165.1c0.5-0.1,0.8,0.2,0.9,2c0.1,2-0.4,2.3-0.9,2.3c-0.4,0-0.9-0.7-0.8-2.1
		C452.9,165.9,453,165.2,453.6,165.1z"/>
	<g>
		<path class="st4" d="M281,175.9c-0.2,0-0.3,0-0.5,0c-3.9-0.2-6.9-3.6-6.7-7.6c0.1-1.9,1-3.6,2.4-4.9c1.4-1.3,3.3-1.9,5.2-1.8
			c0.8,0,1.5,0.2,2.2,0.5c0.3,0.1,0.5,0.5,0.3,0.8c-0.1,0.3-0.5,0.5-0.8,0.3c-0.6-0.2-1.2-0.4-1.8-0.4c-1.6-0.1-3.1,0.4-4.3,1.5
			c-1.2,1-1.9,2.5-2,4c-0.2,3.2,2.3,6,5.5,6.2c1.1,0.1,2.1-0.2,3.1-0.6c0.3-0.2,0.7,0,0.8,0.3c0.2,0.3,0,0.7-0.3,0.8
			C283.2,175.6,282.1,175.9,281,175.9z"/>
	</g>
	<g>
		<path class="st4" d="M279.5,172.7c-0.2,0-0.4-0.1-0.5-0.2c-0.2-0.3-0.2-0.7,0.1-0.9l3.7-2.9l-4.2-3.1c-0.3-0.2-0.3-0.6-0.1-0.9
			c0.2-0.3,0.6-0.3,0.9-0.1l4.9,3.6c0.2,0.1,0.3,0.3,0.3,0.5c0,0.2-0.1,0.4-0.2,0.5l-4.4,3.4C279.8,172.6,279.7,172.7,279.5,172.7z"
			/>
	</g>
	<g>
		<path class="st4" d="M320.5,175.9c-1.1,0-2.3-0.3-3.3-0.8c-0.3-0.2-0.4-0.5-0.3-0.8c0.2-0.3,0.5-0.4,0.8-0.3
			c0.9,0.5,2,0.7,3.1,0.6c1.6-0.1,3-0.8,4-2c1-1.2,1.6-2.7,1.5-4.3c-0.1-1.6-0.8-3-2-4c-1.2-1-2.7-1.6-4.3-1.5
			c-0.7,0-1.3,0.2-1.9,0.5c-0.3,0.1-0.7,0-0.8-0.3c-0.1-0.3,0-0.7,0.3-0.8c0.7-0.3,1.5-0.5,2.3-0.6c1.9-0.1,3.7,0.5,5.2,1.8
			c1.4,1.3,2.3,3,2.4,4.9c0.1,1.9-0.5,3.7-1.8,5.2c-1.3,1.4-3,2.3-4.9,2.4C320.8,175.9,320.6,175.9,320.5,175.9z"/>
	</g>
	<g>
		<path class="st4" d="M321.9,172.7c-0.1,0-0.3,0-0.4-0.1l-4.4-3.4c-0.2-0.1-0.2-0.3-0.2-0.5c0-0.2,0.1-0.4,0.3-0.5l4.9-3.6
			c0.3-0.2,0.7-0.1,0.9,0.1c0.2,0.3,0.1,0.7-0.1,0.9l-4.2,3.1l3.7,2.9c0.3,0.2,0.3,0.6,0.1,0.9C322.3,172.6,322.1,172.7,321.9,172.7
			z"/>
	</g>
	<g>
		<path class="st4" d="M424.7,197.7c-0.4,0-0.6-0.3-0.6-0.7l0.9-18c0-0.3,0.3-0.6,0.7-0.6c0.3,0,0.6,0.3,0.6,0.7l-0.9,18
			C425.3,197.4,425,197.7,424.7,197.7z"/>
	</g>
	<g>
		<path class="st4" d="M447.2,194.3c-0.5,0-1.1,0-1.6,0c-0.5,0-0.9,0-1.4,0c-3.2,0-5.8-0.3-8.2-0.8c-2.3-0.5-4.8-1.1-6.3-3.3
			c-1.5-2.3-1.9-5.2-2-7.6c-0.1-1.6,0-3.1,0.1-4.4c0.4-3.1,0.9-7.7,1-8.5c-0.4-1.1-1.1-2-2-2.8c-3-2.4-7.3-2-9.7,1
			c-1.2,1.4-1.7,3.2-1.5,5.1c0.2,1.8,1.1,3.5,2.5,4.7c2.5,2.1,6,2.1,8.6,0.1c0.3-0.2,0.7-0.2,0.9,0.1c0.2,0.3,0.2,0.7-0.1,0.9
			c-3,2.3-7.2,2.3-10.2-0.2c-1.7-1.4-2.7-3.3-2.9-5.5c-0.2-2.2,0.4-4.3,1.8-6c2.9-3.5,8-4,11.5-1.1c1.1,0.9,2,2.1,2.5,3.4
			c0,0.1,0,0.2,0,0.3c0,0-0.6,5.3-1,8.7c-0.1,1.3-0.2,2.7-0.1,4.2c0.1,2.2,0.4,4.9,1.8,6.9c1.2,1.8,3.5,2.3,5.6,2.8
			c2.3,0.5,4.8,0.8,7.9,0.8c0.5,0,0.9,0,1.4,0c3.6,0.1,7.4,0.1,9.5-3.1c2-3.1,2-7.1,2-11c0-0.9,0-1.7,0-2.5c0.1-2.6-0.3-20-0.4-20.2
			c0-0.3,0.3-0.6,0.6-0.6c0.4,0,0.6,0.3,0.6,0.6c0,0.7,0.4,17.6,0.4,20.3c0,0.8,0,1.6,0,2.5c0,3.9,0,8.3-2.2,11.6
			C454.1,193.9,450.6,194.3,447.2,194.3z"/>
	</g>
	<g>
		<path class="st4" d="M457.4,162.8c-0.2,0-0.5-0.1-0.6-0.4c-0.1-0.1-1.1-2.2-4.5-1.3c-0.3,0.1-0.7-0.1-0.8-0.4
			c-0.1-0.3,0.1-0.7,0.4-0.8c4.4-1.2,5.9,2,6,2c0.1,0.3,0,0.7-0.3,0.8C457.6,162.8,457.5,162.8,457.4,162.8z"/>
	</g>
	<g>
		<path class="st4" d="M435.9,163.2c-0.1,0-0.3,0-0.4-0.1c-0.3-0.2-0.3-0.6-0.1-0.9c3.6-4.6,7.5-2.2,7.6-2.2
			c0.3,0.2,0.4,0.6,0.2,0.9c-0.2,0.3-0.6,0.4-0.9,0.2c-0.1-0.1-3-1.8-5.9,1.9C436.2,163.1,436,163.2,435.9,163.2z"/>
	</g>
	<g>
		<path class="st4" d="M448.9,197.5c-0.3,0-0.6-0.3-0.6-0.6v-3.3c0-0.3,0.3-0.6,0.6-0.6c0.3,0,0.6,0.3,0.6,0.6v3.3
			C449.5,197.3,449.2,197.5,448.9,197.5z"/>
	</g>
	<g>
		<path class="st4" d="M417.1,167.1c-0.1,0-0.2,0-0.2,0c-0.4-0.2-2.6-1.5-3.8-12.4c-0.7-6.3,2.8-10.7,6.6-11.9
			c4.7-1.5,10.3-1.1,11.9-1c3.7-7.1,8.5-9.8,11.9-10.8c4-1.2,8.1-0.6,11.7,1.5c3.7,2.2,6,5,6.9,8.4c1,4-0.3,7.6-1.1,9.4
			c0.8,0.2,1.5,0.9,2.1,1.9c1.6,3.2,1.2,9.5-4.8,12.9c-0.3,0.2-0.7,0.1-0.9-0.2c-0.2-0.3-0.1-0.7,0.2-0.9c5.3-3,5.7-8.4,4.3-11.2
			c-0.2-0.4-0.9-1.6-1.8-1.2c-0.2,0.1-0.5,0-0.7-0.2c-0.2-0.2-0.2-0.5-0.1-0.7c0,0,2.8-4.6,1.5-9.5c-0.8-3-2.9-5.6-6.3-7.6
			c-3.3-1.9-7.1-2.4-10.7-1.3c-3.2,0.9-7.8,3.5-11.3,10.5c-0.1,0.2-0.4,0.4-0.6,0.3c-0.1,0-6.6-0.7-11.8,0.9
			c-2.7,0.8-6.4,4.4-5.7,10.6c1.1,10.1,3.1,11.4,3.1,11.4c0.3,0.1,0.5,0.5,0.3,0.8C417.6,166.9,417.3,167.1,417.1,167.1z"/>
	</g>
	<g>
		<path class="st4" d="M447.1,178.2c-0.3,0-0.6-0.3-0.6-0.6c0-0.3,0.3-0.6,0.6-0.6c1.3,0,3.7-0.3,4.4-0.9c0.1-0.1,0.1-0.2,0.1-0.3
			c0-0.5-0.4-1.4-0.8-2.4c-1-2.5-2.4-6.4-1.5-10.1c0.1-0.3,0.4-0.5,0.8-0.5c0.3,0.1,0.5,0.4,0.5,0.8c-0.8,3.3,0.5,6.8,1.5,9.3
			c0.4,1.2,0.8,2.1,0.8,2.8c0,0.4-0.1,0.9-0.5,1.2C451.1,178.1,447.5,178.2,447.1,178.2z"/>
	</g>
	<g>
		<g>
			<path class="st4" d="M442.8,187.2c-1.5,0-3-0.5-4.3-1.4c-1.7-1.3-2.8-3.5-2.8-5.8c0-1.6,0.5-2.9,1.3-3.5c0.8-0.6,1.6-0.7,2.4-0.4
				c1,0.4,1.8,1.4,2,2.8c0.3,1.7,0.5,1.8,0.8,2c0.3,0.3,0.5,0.4,2.2,0.2c1.3-0.2,2.6,0.3,3.2,1.1c0.5,0.7,0.7,1.5,0.3,2.4
				c-0.4,1-1.6,1.9-3.1,2.4C444.2,187.1,443.5,187.2,442.8,187.2z M438.6,177.1c-0.3,0-0.5,0.1-0.8,0.3c-0.4,0.3-0.8,1.2-0.8,2.5
				c0,2,0.9,3.8,2.3,4.8c2.2,1.6,4.4,1.2,5.2,0.9c1.3-0.4,2.1-1.1,2.3-1.6c0.2-0.5,0.1-0.9-0.1-1.2c-0.4-0.5-1.2-0.8-2.1-0.6
				c-2,0.2-2.4,0.1-3.1-0.4c-0.7-0.5-0.9-0.8-1.3-2.8c-0.2-0.9-0.6-1.6-1.2-1.8C438.8,177.2,438.7,177.1,438.6,177.1z"/>
		</g>
	</g>
	<g>
		<path class="st4" d="M439.7,186.4c-0.1,0-0.2,0-0.3-0.1c-0.3-0.2-0.4-0.5-0.2-0.9c2.3-4.2-2.5-7-2.7-7.1c-0.3-0.2-0.4-0.6-0.2-0.9
			c0.2-0.3,0.5-0.4,0.9-0.2c2.1,1.2,5.5,4.6,3.2,8.8C440.1,186.3,439.9,186.4,439.7,186.4z"/>
	</g>
	<g>
		<path class="st4" d="M420.1,176.7c-0.2,0-0.5-0.1-0.6-0.3c-0.2-0.3,0-0.7,0.3-0.8l5.1-2.5l-4.7-4.8c-0.2-0.2-0.2-0.6,0-0.9
			c0.2-0.2,0.6-0.2,0.9,0l5.3,5.4c0.1,0.1,0.2,0.3,0.2,0.5c0,0.2-0.2,0.4-0.3,0.5l-5.9,2.9C420.2,176.7,420.1,176.7,420.1,176.7z"/>
	</g>
	<g>
		<path class="st4" d="M434.9,146.8c-0.2,0-0.4-0.1-0.5-0.2l-3.1-3.8c-0.2-0.3-0.2-0.7,0.1-0.9c0.3-0.2,0.7-0.2,0.9,0.1l3.1,3.8
			c0.2,0.3,0.2,0.7-0.1,0.9C435.2,146.8,435.1,146.8,434.9,146.8z"/>
	</g>
	<g>
		<g>
			<path class="st4" d="M478.4,195.7c-0.1,0-0.2,0-0.3-0.1c-0.2-0.1-0.3-0.3-0.3-0.5v-21.6c0-0.1,0-0.1,0-0.2c0-0.3,0-0.6,0-0.9
				v-20.9c0-6.5,5.3-11.7,11.7-11.7h48.9c6.5,0,11.7,5.3,11.7,11.7v20.9c0,6.5-5.3,11.7-11.7,11.7c-0.3,0-0.6-0.3-0.6-0.6
				c0-0.3,0.3-0.6,0.6-0.6c5.8,0,10.5-4.7,10.5-10.5v-20.9c0-5.8-4.7-10.5-10.5-10.5h-48.9c-5.8,0-10.5,4.7-10.5,10.5v20.9
				c0,0.4,0,0.8,0.1,1.1c0,0.1,0,0.2-0.1,0.3V194l17.2-11c0.1-0.1,0.2-0.1,0.3-0.1h27.6c0.3,0,0.6,0.3,0.6,0.6
				c0,0.3-0.3,0.6-0.6,0.6h-27.4l-18,11.6C478.7,195.7,478.5,195.7,478.4,195.7z"/>
		</g>
		<g>
			<path class="st4" d="M535.6,156.6h-11.4c-0.3,0-0.6-0.3-0.6-0.6c0-0.3,0.3-0.6,0.6-0.6h11.4c0.3,0,0.6,0.3,0.6,0.6
				C536.2,156.3,535.9,156.6,535.6,156.6z"/>
		</g>
		<g>
			<path class="st4" d="M510.4,156.6H492c-0.3,0-0.6-0.3-0.6-0.6c0-0.3,0.3-0.6,0.6-0.6h18.4c0.3,0,0.6,0.3,0.6,0.6
				C511.1,156.3,510.8,156.6,510.4,156.6z"/>
		</g>
		<g>
			<path class="st4" d="M535.6,168.4H492c-0.3,0-0.6-0.3-0.6-0.6c0-0.3,0.3-0.6,0.6-0.6h43.6c0.3,0,0.6,0.3,0.6,0.6
				C536.2,168.1,535.9,168.4,535.6,168.4z"/>
		</g>
	</g>
	<g>
		<path class="st4" d="M233.7,305.6c-22.2,0-27.4-29.6-29.1-39.6c-2.5-14.5-8.2-50.8-8.2-51.1c-0.1-0.3,0.2-0.7,0.5-0.7
			c0.4-0.1,0.7,0.2,0.7,0.5c0.1,0.4,5.7,36.6,8.2,51.1c1.7,10,6.9,40.2,29.8,38.5c10.2-0.8,21-8.8,20.8-28.8c0-0.3,0.3-0.6,0.6-0.6
			c0.3,0,0.6,0.3,0.6,0.6c0.2,20.9-11.2,29.3-21.9,30.1C235,305.6,234.3,305.6,233.7,305.6z"/>
	</g>
	<g>
		<path class="st4" d="M250.5,266.9c-0.3,0-0.6-0.2-0.6-0.6c-0.8-8.7-2.4-16.8-3.6-22.1c-4.8-20.8-11.1-37-11.1-37.2
			c-0.1-0.3,0-0.7,0.4-0.8c0.3-0.1,0.7,0,0.8,0.4c0.1,0.2,6.3,16.5,11.2,37.3c1.2,5.3,2.9,13.4,3.7,22.2
			C251.1,266.6,250.9,266.9,250.5,266.9C250.5,266.9,250.5,266.9,250.5,266.9z"/>
	</g>
	<g>
		<path class="st4" d="M300.7,189.9c-3.1,0-7.6-0.6-11.2-3.4c-2.8-2.2-4.6-5.7-5.6-10.8c-0.7-3.3-0.8-13.9-0.7-17.3
			c0-0.3,0.3-0.6,0.6-0.6c0.4,0,0.6,0.3,0.6,0.6c-0.1,3.7,0.1,13.9,0.7,17c0.9,4.7,2.6,8,5.1,10c3.3,2.6,7.5,3.2,10.4,3.2
			c0.3,0,0.6,0.3,0.6,0.6S301.1,189.9,300.7,189.9z"/>
	</g>
	<g>
		<path class="st4" d="M300.7,189.9c-0.3,0-0.6-0.3-0.6-0.6s0.3-0.6,0.6-0.6c2.9,0,7.1-0.5,10.4-3.2c2.5-2,4.2-5.3,5.1-10
			c0.7-3.3,0.7-11.6,0.6-14.5c0-0.3,0.3-0.6,0.6-0.6c0.4,0,0.6,0.3,0.6,0.6c0,2.9,0,11.4-0.7,14.8c-1,5-2.8,8.6-5.6,10.8
			C308.4,189.3,303.9,189.9,300.7,189.9z"/>
	</g>
	<g>
		<path class="st4" d="M316.7,161.5c-11.9,0-24.1-11.1-27.2-14.2c-0.8,2.5-3,8.9-5.2,11.5c-0.2,0.3-0.6,0.3-0.9,0.1
			c-0.3-0.2-0.3-0.6-0.1-0.9c2.6-2.9,5.2-11.9,5.2-12c0.1-0.2,0.2-0.4,0.5-0.4c0.2,0,0.4,0,0.6,0.2c0.1,0.1,14.1,14.6,27.1,14.6
			c0.3,0,0.5,0,0.8,0c0.3,0,0.6,0.3,0.7,0.6c0,0.3-0.3,0.6-0.6,0.7C317.3,161.5,317,161.5,316.7,161.5z"/>
	</g>
	<g>
		<path class="st4" d="M300.9,211.7c-5,0-9.7-2.1-11.8-5.3c-1.1-1.7-1.3-3.4-0.7-4.9c1.6-3.8,1.9-14.7,1.9-14.8
			c0-0.3,0.2-0.6,0.6-0.6c0.3,0,0.6,0.3,0.6,0.6c0,0.5-0.4,11.3-2,15.3c-0.5,1.1-0.3,2.4,0.6,3.7c1.6,2.4,5.5,4.8,10.8,4.8
			c5,0,8.9-1.5,10.6-4c0.9-1.4,1.1-3,0.5-4.4c-1.7-4-2-14.8-2-15.3c0-0.3,0.3-0.6,0.6-0.6c0.4,0,0.6,0.3,0.6,0.6
			c0,0.1,0.3,11.1,1.9,14.8c0.8,1.8,0.6,3.9-0.6,5.6C311.4,208.8,308.4,211.7,300.9,211.7z"/>
	</g>
	<g>
		<path class="st4" d="M280.6,162.8c-0.3,0-0.5-0.2-0.6-0.4c-0.2-0.5-3.9-12.8-0.1-19.3c1.1-1.9,2.7-3.1,4.8-3.6
			c0.8-1,4.3-5.4,10.3-6.5c8.6-1.5,22.2,0.6,25.5,10.1c1.5,4.2,1.5,9.1,0,18.5c-0.1,0.3-0.4,0.6-0.7,0.5c-0.3-0.1-0.6-0.4-0.5-0.7
			c1.4-9.2,1.4-13.9,0-17.9c-3.1-8.8-16-10.7-24.1-9.3c-6.2,1.1-9.6,6.1-9.7,6.1c-0.1,0.1-0.2,0.2-0.4,0.3c-1.9,0.4-3.3,1.4-4.2,3
			c-3.5,6,0.2,18.2,0.2,18.3c0.1,0.3-0.1,0.7-0.4,0.8C280.7,162.8,280.6,162.8,280.6,162.8z"/>
	</g>
	<g>
		<path class="st4" d="M356.3,363.8c-0.2,0-0.5-0.1-0.6-0.3c-1.5-3-5.3-21.1-8.1-38.6c-0.1-0.3,0.2-0.7,0.5-0.7
			c0.3-0.1,0.7,0.2,0.7,0.5c3,18.8,6.7,35.7,8,38.3c0.2,0.3,0,0.7-0.3,0.8C356.5,363.8,356.4,363.8,356.3,363.8z"/>
	</g>
	<g>
		<path class="st4" d="M344.8,299.5c-0.3,0-0.6-0.2-0.6-0.6c-1.1-11.6-1.1-19.4,0.1-24.6c4-18.2-2.4-36.4-2.5-36.6
			c-0.1-0.3,0.1-0.7,0.4-0.8c0.3-0.1,0.7,0.1,0.8,0.4c0.1,0.2,6.6,18.7,2.5,37.3c-1.1,5-1.1,12.7-0.1,24.2
			C345.5,299.2,345.2,299.5,344.8,299.5C344.9,299.5,344.8,299.5,344.8,299.5z"/>
	</g>
	<g>
		<path class="st4" d="M245.5,363.8c-0.1,0-0.2,0-0.3-0.1c-0.3-0.2-0.4-0.5-0.3-0.8c3.2-6.4,15.3-70,11.3-88.3
			c-4.1-18.6,2.5-37.1,2.5-37.3c0.1-0.3,0.5-0.5,0.8-0.4c0.3,0.1,0.5,0.5,0.4,0.8c-0.1,0.2-6.5,18.4-2.5,36.6
			c4.1,18.4-8.2,82.6-11.4,89.1C245.9,363.7,245.7,363.8,245.5,363.8z"/>
	</g>
	<g>
		<path class="st4" d="M207.1,218.7c-5.7,0-10.2-1.1-10.7-3.7c-0.4-2.1,1.6-4.1,5.9-6c0.3-0.1,0.7,0,0.8,0.3c0.1,0.3,0,0.7-0.3,0.8
			c-3.6,1.6-5.4,3.3-5.2,4.7c0.4,2.4,8.7,3.7,19.8,1.7c5.1-0.9,9.9-2.4,13.3-4.1c3.1-1.6,4.9-3.2,4.6-4.4c-0.1-0.7-0.7-1.6-3.5-2.1
			c-0.3-0.1-0.6-0.4-0.5-0.7c0.1-0.3,0.4-0.6,0.7-0.5c2.9,0.5,4.2,1.5,4.5,3.1c0.3,1.9-1.5,3.8-5.3,5.8c-3.5,1.8-8.4,3.3-13.6,4.2
			C214.1,218.3,210.4,218.7,207.1,218.7z"/>
	</g>
	<g>
		<path class="st4" d="M371.1,339.8c-2.2,0-4.9-2.9-6.8-5.8c-0.2-0.3-0.1-0.7,0.2-0.9c0.3-0.2,0.7-0.1,0.9,0.2
			c2.6,3.9,5,5.5,6.1,5.2c2.3-0.8,2.4-9.1-1.3-19.8c-3.7-10.7-8.8-17.2-11.2-16.4c-0.3,0.1-0.7-0.1-0.8-0.4
			c-0.1-0.3,0.1-0.7,0.4-0.8c4-1.4,9.5,7.9,12.7,17.2c3.2,9.4,4.5,20,0.5,21.4C371.6,339.8,371.4,339.8,371.1,339.8z"/>
	</g>
	<g>
		<path class="st4" d="M191.5,207.5c-0.1,0-0.2,0-0.3-0.1c-0.2-0.1-0.3-0.2-0.3-0.4l-23.6-63.4c-0.1-0.2-0.1-0.3,0-0.5
			c0.1-0.2,0.2-0.3,0.4-0.3l50-18.6c0.3-0.1,0.7,0,0.8,0.4l23.6,63.4c0.1,0.3,0,0.7-0.4,0.8l-5.1,1.9c-0.3,0.1-0.7,0-0.8-0.4
			c-0.1-0.3,0-0.7,0.4-0.8l4.5-1.7l-23.2-62.2l-48.8,18.2l23.2,62.2l34.4-12.8c0.3-0.1,0.7,0,0.8,0.4c0.1,0.3,0,0.7-0.4,0.8l-35,13
			C191.7,207.5,191.6,207.5,191.5,207.5z"/>
	</g>
	<g>
		<path class="st4" d="M287.6,160.8c-0.1,0-0.1,0-0.2,0c-0.3-0.1-0.5-0.5-0.4-0.8c1.1-3.1,5.4-4,7.9-3.4c0.3,0.1,0.5,0.4,0.5,0.7
			c-0.1,0.3-0.4,0.5-0.7,0.5c-2.1-0.5-5.7,0.3-6.5,2.6C288.1,160.7,287.9,160.8,287.6,160.8z"/>
	</g>
	<g>
		<path class="st4" d="M301.6,181.2c-1.5,0-2.6-0.4-2.7-0.4c-0.3-0.1-0.5-0.5-0.4-0.8c0.1-0.3,0.5-0.5,0.8-0.4c0,0,3.1,1,5-0.4
			c1-0.7,1.6-1.9,1.7-3.7c0-0.3,0.3-0.6,0.7-0.6c0.3,0,0.6,0.3,0.6,0.7c-0.1,2.2-0.9,3.7-2.3,4.7C303.9,181,302.7,181.2,301.6,181.2
			z"/>
	</g>
	<g>
		<path class="st4" d="M269.1,201.6c-0.1,0-0.2,0-0.3-0.1c-4.4-3-6.3-8.6-4.6-13.6c1.1-3.1,3.4-6,6.3-7.8c2.4-1.5,5.1-2.2,8-2.2
			c0.3,0,0.4,0,0.6,0c0.7,0.1,0.8,0,0.9-0.3c0.1-0.4,0.1-0.9,0-1.4c0-0.3-0.1-0.6-0.1-0.9c0-0.3,0.3-0.6,0.6-0.6
			c0.4,0,0.6,0.3,0.6,0.6c0,0.2,0,0.5,0,0.8c0.1,0.6,0.1,1.3-0.1,1.9c-0.4,1.3-1.5,1.2-2.2,1.2c-0.2,0-0.3,0-0.5,0
			c-2.6,0-5.2,0.7-7.3,2.1c-2.7,1.7-4.8,4.3-5.8,7.1c-1.5,4.5,0.2,9.5,4.1,12.2c0.3,0.2,0.4,0.6,0.2,0.9
			C269.5,201.5,269.3,201.6,269.1,201.6z"/>
	</g>
	<g>
		<path class="st4" d="M331.5,201.6c-0.2,0-0.4-0.1-0.5-0.3c-0.2-0.3-0.1-0.7,0.2-0.9c3.9-2.7,5.6-7.7,4.1-12.2
			c-1-2.9-3.1-5.5-5.8-7.1c-2.2-1.3-4.8-2.1-7.3-2.1c-0.1,0-0.4,0-0.5,0c-0.7,0.1-1.7,0.1-2.2-1.2c-0.2-0.6-0.1-1.3-0.1-1.9
			c0-0.3,0.1-0.5,0-0.8c0-0.3,0.3-0.6,0.6-0.6c0.3,0,0.6,0.3,0.6,0.6c0,0.3,0,0.6-0.1,0.9c0,0.5-0.1,1,0,1.4
			c0.1,0.3,0.1,0.4,0.9,0.3c0.2,0,0.4,0,0.6,0c2.8,0,5.6,0.8,8,2.2c3,1.8,5.3,4.7,6.3,7.8c1.7,5-0.2,10.6-4.6,13.6
			C331.7,201.5,331.6,201.6,331.5,201.6z"/>
	</g>
	<g>
		<path class="st4" d="M407.7,288.8c-0.3,0-0.6-0.2-0.6-0.5c0-0.3,0.2-0.7,0.5-0.7c5.1-0.7,6.3-5.8,6.2-6.2
			c-0.1-0.3,0.2-0.7,0.5-0.7c0.3-0.1,0.7,0.2,0.7,0.5c0.1,0.6-0.3,2.4-1.5,4.1C412.6,286.6,410.8,288.3,407.7,288.8
			C407.8,288.8,407.8,288.8,407.7,288.8z"/>
	</g>
	<g>
		<path class="st4" d="M403.6,274.3c-0.5-0.1-0.7-0.4-0.6-0.8c0.7-2.8,2.1-6.8,7.3-9.8c6.5-3.7,12-1.3,12.2-1.2
			c0.3,0.1,0.5,0.5,0.3,0.8c-0.1,0.3-0.5,0.5-0.8,0.3c-0.1,0-5.2-2.2-11.1,1.2c-4.7,2.7-6.1,6.2-6.7,9
			C404.1,274.1,403.9,274.3,403.6,274.3z"/>
	</g>
	<g>
		<path class="st4" d="M400.8,267.1c-0.1,0-0.3,0-0.4-0.1c-0.3-0.2-0.3-0.6-0.1-0.9c3.9-4.6,10.3-2.5,10.5-2.5
			c0.3,0.1,0.5,0.5,0.4,0.8c-0.1,0.3-0.5,0.5-0.8,0.4c-0.1,0-5.9-1.9-9.2,2.1C401.1,267.1,400.9,267.1,400.8,267.1z"/>
	</g>
	<g>
		<path class="st4" d="M327.5,317.8c-0.2,0-0.4-0.1-0.5-0.3c-0.9-1.2-1.6-3.3-0.9-5.4c0.6-1.7,2.3-4,7.2-5.5
			c8.9-2.7,20.3,0.3,20.8,0.4c0.3,0.1,0.5,0.4,0.4,0.8c-0.1,0.3-0.4,0.5-0.8,0.4c-0.1,0-11.5-3-20.1-0.4c-3.5,1.1-5.7,2.7-6.4,4.7
			c-0.6,1.7,0,3.3,0.7,4.3c0.2,0.3,0.1,0.7-0.1,0.9C327.8,317.8,327.6,317.8,327.5,317.8z"/>
	</g>
	<g>
		<path class="st4" d="M329.5,309.2c-0.2,0-0.3-0.1-0.5-0.2c-1.3-1.4-1.6-3-1.1-4.7c1-2.8,4.7-5,9.5-5.6c3.3-0.4,7.2-0.8,11-0.1
			c4,0.7,7.8,1.9,12.2,4.1l0.5,0.2c1.1,0.6,2,1,3.1,1.6c0.3,0.2,0.4,0.6,0.2,0.9c-0.2,0.3-0.6,0.4-0.9,0.2c-1-0.6-1.9-1-3-1.6
			l-0.5-0.2c-4.3-2.1-8-3.4-11.9-4c-3.7-0.6-7.5-0.3-10.7,0.1c-4.3,0.6-7.7,2.4-8.5,4.8c-0.4,1.2-0.2,2.4,0.8,3.4
			c0.2,0.3,0.2,0.6,0,0.9C329.8,309.2,329.7,309.2,329.5,309.2z"/>
	</g>
	<g>
		<path class="st4" d="M363.6,334c-1.8,0-3.5-0.2-5.1-0.8c-6.6-2.2-8.6-7-9-8.3c-2-0.7-4-0.4-6.2-0.1c-0.6,0.1-1.2,0.2-1.8,0.2
			c-3.2,0.3-6.4,0.4-9.5,0.2c-2.1-0.1-4.3-0.5-5.6-2.3c-1.2-1.7-1-4.1,0.6-6.1c1.4-1.8,3.4-2.4,5.3-3.1c7.7-2.5,16-2.3,23.3,0.6
			c0.3,0.1,0.5,0.5,0.3,0.8c-0.1,0.3-0.5,0.5-0.8,0.3c-7-2.8-15-3-22.4-0.6c-1.9,0.6-3.6,1.2-4.7,2.7c-1,1.2-1.6,3.1-0.6,4.6
			c0.9,1.4,2.9,1.7,4.6,1.8c3.1,0.2,6.2,0.1,9.3-0.2c0.6-0.1,1.2-0.1,1.8-0.2c2.3-0.3,4.8-0.6,7.1,0.3c0.2,0.1,0.3,0.2,0.4,0.4
			c0.1,0.2,1.5,5.5,8.3,7.7c4.1,1.3,9.4,0.7,14.2-1.6c0.3-0.2,0.7,0,0.8,0.3c0.2,0.3,0,0.7-0.3,0.8C370.4,333.2,366.9,334,363.6,334
			z"/>
	</g>
	<g>
		<path class="st4" d="M358.3,302.6c-0.2,0-0.4-0.1-0.5-0.3c-0.2-0.3-0.1-0.7,0.1-0.9c6-4.3,9.2-8.7,9.8-13.3
			c1-8.5-6.8-17.5-16.6-28.8c-1.9-2.2-4-4.6-6-7c-0.2-0.3-0.2-0.7,0.1-0.9c0.3-0.2,0.7-0.2,0.9,0.1c2,2.4,4,4.7,6,7
			c10,11.6,18,20.7,16.9,29.8c-0.6,5-4,9.6-10.3,14.2C358.5,302.6,358.4,302.6,358.3,302.6z"/>
	</g>
	<g>
		<path class="st4" d="M207.1,218.7c-5.7,0-10.2-1.1-10.7-3.7c-0.4-2.1,1.6-4.1,5.9-6c0.3-0.1,0.7,0,0.8,0.3c0.1,0.3,0,0.7-0.3,0.8
			c-3.6,1.6-5.4,3.3-5.2,4.7c0.4,2.4,8.7,3.7,19.8,1.7c5.1-0.9,9.9-2.4,13.3-4.1c3.1-1.6,4.9-3.2,4.6-4.4c-0.1-0.7-0.7-1.6-3.5-2.1
			c-0.3-0.1-0.6-0.4-0.5-0.7c0.1-0.3,0.4-0.6,0.7-0.5c2.9,0.5,4.2,1.5,4.5,3.1c0.3,1.9-1.5,3.8-5.3,5.8c-3.5,1.8-8.4,3.3-13.6,4.2
			C214.1,218.3,210.4,218.7,207.1,218.7z"/>
	</g>
	<g>
		<path class="st4" d="M436.5,265.4c-0.2,0-0.4-0.1-0.5-0.3c-2.6-4.4-6-6.3-10.5-6.1c-3.2,0.2-5.3,1.3-7.3,3.7
			c-0.2,0.3-0.6,0.3-0.9,0.1c-0.3-0.2-0.3-0.6-0.1-0.9c2.2-2.7,4.7-4,8.2-4.2c5-0.3,8.8,1.9,11.7,6.7c0.2,0.3,0.1,0.7-0.2,0.9
			C436.7,265.3,436.6,265.4,436.5,265.4z"/>
	</g>
	<g>
		<path class="st4" d="M403.6,321.1c-1,0-2,0-3.1-0.1c-0.3,0-0.6-0.3-0.6-0.7c0-0.3,0.4-0.6,0.7-0.6c23.7,1.5,54.6-15.8,73.8-31.1
			c-0.3-1.8-1.9-10-5.5-16.9c-5-9.4-13.3-14.3-15-15.2L429.5,269c-0.3,0.2-0.7,0-0.8-0.3c-0.2-0.3,0-0.7,0.3-0.8l24.7-12.6
			c0.2-0.1,0.4-0.1,0.6,0c0.4,0.2,10.1,5.2,15.8,15.8c4.2,8,5.7,17.6,5.7,17.7c0,0.2-0.1,0.4-0.2,0.6
			C456.9,304.3,427.3,321.1,403.6,321.1z"/>
	</g>
	<g>
		<path class="st4" d="M476.7,305.3c-11.4,0-21.6-1.3-22.5-1.4c-0.3,0-0.6-0.4-0.5-0.7c0-0.3,0.3-0.6,0.7-0.5
			c0.4,0.1,40.8,5.2,50.9-4.8c12.8-12.8,6.1-25.2-1.8-39.6l-0.5-1c-8.1-15-27.2-50-50-53.5c-0.3-0.1-0.6-0.4-0.5-0.7
			c0.1-0.3,0.4-0.6,0.7-0.5c23.5,3.6,42.7,39,50.9,54.1l0.5,1c7.7,14.2,15.1,27.7,1.5,41.1C500.9,303.9,488.2,305.3,476.7,305.3z"/>
	</g>
	<g>
		<path class="st4" d="M296.3,175.2c-0.1,0-0.3-0.1-0.4-0.2c-0.2-0.2-2.1-2-2.2-3.8c0-0.7,0.2-1.3,0.7-1.8c0.6-0.6,1.2-0.9,2-0.9
			c0.8,0,1.6,0.4,2.1,0.7c0.4-3.4,0.6-8.3,0-9.3c-0.2-0.3-0.1-0.7,0.2-0.9c0.3-0.2,0.7-0.1,0.9,0.2c1.3,1.9,0.3,9.7,0.1,11.3
			c0,0.2-0.2,0.4-0.4,0.5c-0.2,0.1-0.5,0-0.6-0.2c-0.3-0.3-1.3-1.1-2.2-1.1c-0.4,0-0.8,0.2-1.1,0.5c-0.3,0.3-0.4,0.5-0.4,0.9
			c0,1.1,1.3,2.5,1.8,2.9c0.3,0.2,0.3,0.6,0,0.9C296.7,175.1,296.5,175.2,296.3,175.2z"/>
	</g>
	<g>
		<path class="st4" d="M287.3,144c-0.2,0-0.4-0.1-0.5-0.3l-2-2.8c-0.2-0.3-0.1-0.7,0.1-0.9c0.3-0.2,0.7-0.1,0.9,0.1l2,2.8
			c0.2,0.3,0.1,0.7-0.1,0.9C287.6,144,287.4,144,287.3,144z"/>
	</g>
	<g>
		<path class="st4" d="M444.1,177.1c-0.2,0-0.3-0.1-0.4-0.2c-1.5-1.3-4.8-1.7-7.2-1.9c-1-0.1-1.9-0.2-2.4-0.3
			c-2.1-0.5-2.7-6.4-2.8-8.2l-0.5-2c-0.1-0.2,0-0.4,0.2-0.6c5.6-5.9,5.9-13.8,5.9-13.9c0-0.3,0.2-0.5,0.4-0.6c0.3-0.1,0.5,0,0.7,0.2
			c0.3,0.4,6.7,8.9,19.4,5.9c0.3-0.1,0.7,0.1,0.8,0.5c0.1,0.3-0.1,0.7-0.5,0.8c-10.7,2.5-17.3-2.9-19.7-5.3c-0.4,2.6-1.6,8.3-5.9,13
			l0.4,1.8c0.3,3.7,1.2,7,1.9,7.2c0.5,0.1,1.3,0.2,2.2,0.3c2.6,0.3,6.1,0.6,7.9,2.3c0.3,0.2,0.3,0.6,0,0.9
			C444.5,177.1,444.3,177.1,444.1,177.1z"/>
	</g>
	<g>
		<path class="st4" d="M457.8,178.8c-0.1,0-0.2,0-0.3-0.1c-1.8-1.2-4.4-0.5-4.5-0.5c-0.3,0.1-0.7-0.1-0.8-0.4
			c-0.1-0.3,0.1-0.7,0.4-0.8c0.1,0,3.2-0.8,5.5,0.7c0.3,0.2,0.4,0.6,0.2,0.9C458.2,178.7,458,178.8,457.8,178.8z"/>
	</g>
	<g>
		<path class="st4" d="M487.9,363.7c-0.3,0-0.5-0.2-0.6-0.4c-6.3-18.7-5.9-58.3-5.9-58.7c0-0.3,0.3-0.6,0.6-0.6
			c0.4,0,0.6,0.3,0.6,0.6c0,0.4-0.4,39.7,5.8,58.3c0.1,0.3-0.1,0.7-0.4,0.8C488,363.7,487.9,363.7,487.9,363.7z"/>
	</g>
	<g>
		<path class="st4" d="M380,363.7c-0.3,0-0.6-0.3-0.6-0.6c-0.7-10.6,0-27.4,0-27.6c0-0.3,0.3-0.6,0.6-0.6c0.4,0,0.6,0.3,0.6,0.7
			c0,0.2-0.7,17,0,27.5C380.7,363.4,380.4,363.7,380,363.7C380.1,363.7,380.1,363.7,380,363.7z"/>
	</g>
	<g>
		<path class="st4" d="M432,237.2c-0.3,0-0.5-0.2-0.6-0.4l-14.8-32.2c-0.1-0.2-0.1-0.5,0.1-0.7l7.1-7.7c0.1-0.1,0.3-0.2,0.5-0.2
			c0.2,0,0.3,0.1,0.5,0.2l18.4,19.8l5.1-19.3c0.1-0.2,0.3-0.4,0.5-0.5c0.3,0,0.5,0.1,0.6,0.3l5,7.4c0.1,0.1,0.1,0.2,0.1,0.3v27.4
			c0,0.3-0.2,0.5-0.4,0.6c-0.3,0.1-0.5,0-0.7-0.2l-9.8-13.6l-11,18.5C432.4,237.1,432.2,237.2,432,237.2z M418,204.5l14.1,30.8
			l10.7-17.8l-18.4-19.8L418,204.5z M444.2,217.2l9.1,12.6v-25.2l-4.2-6.1L444.2,217.2z"/>
	</g>
	<g>
		<path class="st4" d="M443,258.2c-0.3,0-0.5-0.2-0.6-0.4c-4-12.9-8.7-24.6-8.7-24.7c-0.1-0.3,0-0.7,0.3-0.8c0.3-0.1,0.7,0,0.8,0.3
			c0,0.1,4.8,11.9,8.8,24.8c0.1,0.3-0.1,0.7-0.4,0.8C443.2,258.2,443.1,258.2,443,258.2z"/>
	</g>
	<g>
		<path class="st4" d="M454.9,255.4c-0.3,0-0.6-0.3-0.6-0.6c-0.3-15.7-1.8-24.1-1.9-24.2c-0.1-0.3,0.2-0.7,0.5-0.7
			c0.3-0.1,0.7,0.2,0.7,0.5c0,0.1,1.5,8.5,1.9,24.4C455.5,255.1,455.3,255.4,454.9,255.4C454.9,255.4,454.9,255.4,454.9,255.4z"/>
	</g>
	<g>
		<path class="st4" d="M181.6,154.6c-0.3,0-0.5-0.2-0.6-0.4c-0.1-0.3,0-0.7,0.4-0.8l33.7-12.6c0.3-0.1,0.7,0,0.8,0.4
			c0.1,0.3,0,0.7-0.4,0.8l-33.7,12.6C181.8,154.6,181.7,154.6,181.6,154.6z"/>
	</g>
	<g>
		<path class="st4" d="M186.6,169.1c-0.3,0-0.5-0.2-0.6-0.4c-0.1-0.3,0-0.7,0.4-0.8l33.7-12.6c0.3-0.1,0.7,0,0.8,0.4
			c0.1,0.3,0,0.7-0.4,0.8l-33.7,12.6C186.8,169.1,186.7,169.1,186.6,169.1z"/>
	</g>
	<g>
		<path class="st4" d="M191.6,183.6c-0.3,0-0.5-0.2-0.6-0.4c-0.1-0.3,0-0.7,0.4-0.8l33.7-12.6c0.3-0.1,0.7,0,0.8,0.4
			c0.1,0.3,0,0.7-0.4,0.8l-33.7,12.6C191.8,183.6,191.7,183.6,191.6,183.6z"/>
	</g>
	<g>
		<path class="st4" d="M425.3,259c-0.3,0-0.6-0.3-0.6-0.6c0-0.3,0.3-0.6,0.6-0.7c0.1,0,13.4-0.6,24.9-0.8c0.3-0.1,0.6,0.3,0.6,0.6
			c0,0.3-0.3,0.6-0.6,0.6C438.7,258.4,425.5,259,425.3,259C425.4,259,425.4,259,425.3,259z"/>
	</g>
	<g>
		<path class="st4" d="M503.6,278.9c-0.3,0-0.5-0.2-0.6-0.4c-2.8-9.3-6.9-14.8-13.1-17.6l-1.2-0.2c-11-1.8-20.8,7.6-20.9,7.7
			c-0.3,0.2-0.6,0.2-0.9,0c-0.2-0.2-0.2-0.6,0-0.9c0.4-0.4,10.3-10.1,22-8.1l1.3,0.2c6.8,3,11,8.7,14,18.4c0.1,0.3-0.1,0.7-0.4,0.8
			C503.7,278.9,503.6,278.9,503.6,278.9z"/>
	</g>
	<g>
		<path class="st4" d="M490.9,260.7c-0.5-0.1-0.7-0.5-0.6-0.8c0.1-0.2,1.2-4.5-5.5-7.4c-7-3-15.4,2.5-15.5,2.6
			c-0.3,0.2-0.7,0.1-0.9-0.2c-0.2-0.3-0.1-0.7,0.2-0.9c0.4-0.2,9.1-6,16.7-2.7c7.8,3.4,6.2,8.8,6.2,8.9
			C491.4,260.5,491.2,260.7,490.9,260.7z"/>
	</g>
	<g>
		<path class="st4" d="M454.3,256.3c-0.1,0-0.3,0-0.4-0.1c-0.3-0.2-0.3-0.6-0.1-0.9c0.2-0.2,4.2-4.9,13.3-8.3
			c9.4-3.4,14.9,3.5,14.9,3.6c0.2,0.3,0.2,0.7-0.1,0.9c-0.3,0.2-0.7,0.2-0.9-0.1c-0.2-0.3-5-6.3-13.5-3.2
			c-8.8,3.2-12.7,7.8-12.8,7.9C454.6,256.3,454.5,256.3,454.3,256.3z"/>
	</g>
	<g>
		<path class="st4" d="M442.4,237.2c-0.2,0-0.4-0.1-0.5-0.3l-5.7-7.9c-0.2-0.3-0.1-0.7,0.1-0.9c0.3-0.2,0.7-0.1,0.9,0.1l5.5,7.6
			l6.2-0.6l0.7-8.7c0-0.3,0.3-0.6,0.7-0.6c0.3,0,0.6,0.3,0.6,0.7l-0.7,9.2c0,0.3-0.3,0.5-0.6,0.6L442.4,237.2
			C442.5,237.2,442.4,237.2,442.4,237.2z"/>
	</g>
	<g>
		<path class="st4" d="M441.2,252.5c-0.4,0-0.7-0.3-0.6-0.7l1.2-15.3c0-0.3,0.3-0.6,0.7-0.6c0.3,0,0.6,0.3,0.6,0.7l-1.2,15.3
			C441.8,252.3,441.6,252.5,441.2,252.5z"/>
	</g>
	<g>
		<path class="st4" d="M454.6,246.7c-0.2,0-0.4-0.1-0.6-0.3l-5.1-10.2c-0.2-0.3,0-0.7,0.3-0.8c0.3-0.2,0.7,0,0.8,0.3l5.1,10.2
			c0.2,0.3,0,0.7-0.3,0.8C454.8,246.7,454.7,246.7,454.6,246.7z"/>
	</g>
	<g>
		<path class="st4" d="M128.3,193.2c-1.5,0-3-0.9-4.2-2.7c-1.3-1.8-2.1-4.2-2.5-6.9c-0.3-2.7,0-5.2,0.8-7.3c0.9-2.1,2.3-3.4,3.9-3.6
			c3.3-0.4,6.4,3.8,7.1,9.5c0.2,2.1,0.2,3.5-0.2,5.1c-0.1,0.3-0.4,0.5-0.8,0.5c-0.3-0.1-0.5-0.4-0.5-0.8c0.3-1.4,0.4-2.7,0.1-4.7
			c-0.6-4.9-3.2-8.8-5.7-8.4c-1.2,0.1-2.2,1.2-2.9,2.9c-0.7,1.8-1,4.2-0.7,6.7c0.3,2.5,1.1,4.7,2.2,6.3c1.1,1.5,2.3,2.3,3.5,2.1
			c0.9-0.1,1.5-0.5,2.1-1.3c0.2-0.3,0.6-0.4,0.9-0.2c0.3,0.2,0.4,0.6,0.2,0.9c-0.8,1.2-1.6,1.7-2.9,1.9
			C128.6,193.2,128.5,193.2,128.3,193.2z"/>
	</g>
	<g>
		<path class="st4" d="M143.3,190.5c-3.1,0-6-4.1-6.7-9.5c-0.3-2.7,0-5.2,0.8-7.3c0.9-2.1,2.3-3.4,3.9-3.6c1.6-0.2,3.3,0.7,4.6,2.6
			c1.3,1.8,2.1,4.2,2.5,6.9c0.7,5.7-1.4,10.5-4.7,10.9C143.6,190.5,143.4,190.5,143.3,190.5z M141.7,171.3c-0.1,0-0.2,0-0.3,0
			c-1.2,0.1-2.2,1.2-2.9,2.9c-0.7,1.8-1,4.2-0.7,6.7c0.6,4.9,3.2,8.7,5.7,8.4c2.5-0.3,4.2-4.7,3.6-9.5c-0.3-2.5-1.1-4.7-2.2-6.3
			C143.9,172.1,142.8,171.3,141.7,171.3z"/>
	</g>
	<g>
		<path class="st4" d="M132.9,183.2c-0.1,0-0.2,0-0.3-0.1c-0.3-0.2-0.4-0.6-0.2-0.8c0.6-1,2.5-2.6,5.3-1.1c0.3,0.2,0.4,0.5,0.2,0.8
			c-0.2,0.3-0.5,0.4-0.8,0.2c-2.4-1.3-3.5,0.4-3.6,0.6C133.3,183.1,133.1,183.2,132.9,183.2z"/>
	</g>
	<g>
		<path class="st4" d="M180.1,324.3c-0.2,0-0.5,0-0.7,0l-77.8-7c-2.6-0.2-4.9-1.8-6-4.2l-9.1-19.3c-0.1-0.3,0-0.7,0.3-0.8
			c0.3-0.1,0.7,0,0.8,0.3l9.1,19.3c0.9,2,2.8,3.3,5,3.5l77.8,7c2.2,0.2,4.3-0.8,5.6-2.6c1.3-1.8,1.5-4.1,0.5-6.1l-12.3-26
			c-0.1-0.3,0-0.7,0.3-0.8c0.3-0.1,0.7,0,0.8,0.3l12.3,26c1.1,2.4,0.9,5.2-0.6,7.4C184.8,323.2,182.5,324.3,180.1,324.3z"/>
	</g>
	<g>
		<path class="st4" d="M167.4,274.9c-0.2,0-0.5-0.1-0.6-0.4l-8.4-17.8c-0.9-2-2.8-3.3-5-3.5l-77.8-7c-2.2-0.2-4.3,0.8-5.6,2.6
			c-1.3,1.8-1.5,4.1-0.5,6.1l4,8.5c0.1,0.3,0,0.7-0.3,0.8c-0.3,0.1-0.7,0-0.8-0.3l-4-8.5c-1.1-2.4-0.9-5.2,0.6-7.4
			c1.5-2.2,4-3.4,6.7-3.1l77.8,7c2.6,0.2,4.9,1.8,6,4.2L168,274c0.1,0.3,0,0.7-0.3,0.8C167.6,274.9,167.5,274.9,167.4,274.9z"/>
	</g>
	<g>
		<path class="st4" d="M184.6,322.6c-0.2,0-0.3-0.1-0.4-0.2c-0.2-0.2-0.2-0.6,0-0.9l5.3-5.3c1-1.7,1-3.8,0.2-5.6l-27.2-57.5
			c-0.9-2-2.8-3.3-5-3.5l-77.8-7c-0.9-0.1-1.7,0-2.5,0.3l-5.6,4.4c-0.3,0.2-0.7,0.2-0.9-0.1c-0.2-0.3-0.2-0.7,0.1-0.9l5.7-4.5
			c0.1,0,0.1-0.1,0.2-0.1c1-0.4,2.1-0.5,3.2-0.4l77.8,7c2.6,0.2,4.9,1.8,6,4.2l27.2,57.5c1.1,2.2,1,4.7-0.3,6.8
			c-0.1,0.1-5.5,5.5-5.5,5.5C184.9,322.6,184.7,322.6,184.6,322.6z"/>
	</g>
	<g>
		<path class="st4" d="M162.1,206.2c-4.1,0-7-1-8.7-3.1c-1.5-1.8-2.1-3.7-1.9-5.7c0.4-4.1,4.3-7.2,4.5-7.3c0.3-0.2,0.7-0.2,0.9,0.1
			c0.2,0.3,0.2,0.7-0.1,0.9c0,0-3.6,2.9-4,6.5c-0.2,1.7,0.4,3.3,1.6,4.8c2,2.4,6,3.1,12,2.3c5-0.7,10.9-2,12.6-5.8
			c0.3-0.8,0.4-1.7,0.4-2.9c-0.2-3.7-1.6-7.2-3.8-9.8l-0.5-0.5c-2-2.2-3.7-4.2-2.7-7.8c1.4-5.1,0.2-11.7-2.9-15.7
			c-1.2-1.6-3.2-3.4-6.1-3.4H160c-0.2,0-0.4-0.1-0.5-0.3l-1.3-2.1c-5.1-7.3-11.1-6-17.6-4.7c-3,0.6-6,1.2-9.1,1
			c-4.8-0.3-9,1-11.6,3.5c-2.3,2.2-3.3,5.4-3.1,9.4c0.1,1.4,0.5,3.9,3,5.4c2.2,1.4,6.6,2.4,15-1c8.4-3.4,13.5-4.9,14.5-4.5
			c0.2,0.1,0.3,0.3,0.3,0.5c0,0.1,1.2,9.6,3.4,12.2c0.2,0.3,0.2,0.7-0.1,0.9c-0.3,0.2-0.7,0.2-0.9-0.1c-2.1-2.6-3.4-10.3-3.7-12.3
			c-0.8,0.1-3.9,0.8-13.2,4.5c-9,3.6-13.7,2.5-16.2,0.9c-2.1-1.4-3.4-3.7-3.5-6.4c-0.2-4.4,1-7.8,3.5-10.3c3.8-3.8,9.5-4,12.5-3.8
			c2.9,0.2,5.9-0.4,8.7-1c6.5-1.3,13.3-2.7,18.9,5.3l1.1,1.8h2.9c2.7,0,5.1,1.4,7.1,3.9c3.3,4.4,4.6,11.2,3.1,16.7
			c-0.8,3,0.6,4.5,2.5,6.7l0.5,0.5c2.4,2.8,3.9,6.6,4.1,10.6c0,0.9,0,2.3-0.5,3.5c-1.9,4.4-8.2,5.8-13.6,6.6
			C164.9,206.1,163.4,206.2,162.1,206.2z"/>
	</g>
	<g>
		<path class="st4" d="M101.5,363.7c-0.1,0-0.2,0-0.3-0.1c-0.3-0.1-0.5-0.5-0.3-0.8c5.6-12.2,5.2-45.3,5.2-45.6
			c0-0.3,0.3-0.6,0.6-0.6c0.3,0,0.6,0.3,0.6,0.6c0,1.4,0.3,33.8-5.3,46.2C101.9,363.6,101.7,363.7,101.5,363.7z"/>
	</g>
	<g>
		<path class="st4" d="M133.4,209.5c-3.5,0-7-1-8.6-4.1c-2.8-5.5,2.7-10.6,2.8-10.6c0.3-0.2,0.6-0.2,0.9,0c0.2,0.3,0.2,0.7,0,0.9
			c-0.2,0.2-4.8,4.5-2.5,9.1c2.4,4.7,10.8,3.6,14.6,2c0.3-0.1,0.7,0,0.8,0.3c0.1,0.3,0,0.7-0.3,0.8
			C139.1,208.9,136.2,209.5,133.4,209.5z"/>
	</g>
	<g>
		<path class="st4" d="M79.5,294.5c-6.5,0-11.7-1.6-13.9-4.3c-1.6-2.1-2.8-4.7-3.7-8.2c-1.3-5.2-1.7-10.7-1-15.9
			c0.7-5.9,7.5-10.9,7.8-11.1c0.3-0.2,0.7-0.1,0.9,0.1c0.2,0.3,0.1,0.7-0.1,0.9c-0.1,0-6.6,4.9-7.3,10.2c-0.6,5.1-0.2,10.5,1,15.5
			c0.8,3.3,1.9,5.8,3.4,7.7c2,2.5,8.3,4.6,17.9,3.5c2.9-0.3,8.1-2.5,7.7-6.3c-0.1-1.1-0.8-2.1-1.8-2.6c-0.3-0.2-0.4-0.5-0.3-0.8
			c0.2-0.3,0.5-0.4,0.8-0.3c1.4,0.7,2.3,2.1,2.4,3.6c0.5,4.5-4.9,7.3-8.8,7.7C82.9,294.4,81.2,294.5,79.5,294.5z"/>
	</g>
	<g>
		<path class="st4" d="M84.3,275.9c-4.3,0-13.4-1-14.6-1.4c-0.3-0.1-0.5-0.5-0.4-0.8c0.1-0.3,0.5-0.5,0.8-0.4c1,0.4,13,1.7,15.6,1.3
			l0.5-0.1c1.2-0.2,2.9-0.4,3.5-1.4c0.9-1.4,1.1-3,0.6-4.3c-0.4-1.1-1.3-2.1-2.7-2.8c-1.1-0.6-2.4-0.5-3.7-0.4c-0.3,0-0.7,0-1,0
			c-12.9,0.3-15.3-2.5-15.5-2.9c-0.2-0.3-0.1-0.7,0.2-0.9c0.3-0.2,0.7-0.1,0.9,0.1c0.1,0.1,2.4,2.6,14.5,2.3c0.3,0,0.7,0,1,0
			c1.4-0.1,2.9-0.2,4.3,0.6c1.6,0.9,2.7,2.1,3.3,3.5c0.6,1.7,0.4,3.7-0.7,5.4c-0.9,1.5-3,1.8-4.4,1.9l-0.5,0.1
			C85.6,275.9,85,275.9,84.3,275.9z"/>
	</g>
	<g>
		<path class="st4" d="M113,245.6c-0.3,0-0.6-0.3-0.6-0.6v-2.5c0-0.3,0.3-0.6,0.6-0.6s0.6,0.3,0.6,0.6v2.5
			C113.6,245.4,113.3,245.6,113,245.6z"/>
	</g>
	<g>
		<path class="st4" d="M82.1,285.5c-6.3,0-12.5-0.9-12.6-0.9c-0.3,0-0.6-0.4-0.5-0.7c0.1-0.3,0.4-0.6,0.7-0.5c0.1,0,10,1.4,17.2,0.7
			c2.6-0.3,5.3-2,5-5c-0.1-1.5-1.2-3.2-2.7-4.2c-0.3-0.2-0.4-0.6-0.2-0.9c0.2-0.3,0.6-0.4,0.9-0.2c1.8,1.2,3.1,3.2,3.2,5.1
			c0.3,3.9-2.9,6.1-6.1,6.4C85.4,285.5,83.7,285.5,82.1,285.5z"/>
	</g>
	<g>
		<path class="st4" d="M124.6,291.6c-0.8,0-1.7-0.2-2.5-0.7c-1.6-0.8-3-2.2-4-3.9c-2.1-3.7-1.8-7.9,0.7-9.4c2.5-1.5,6.4,0.4,8.5,4.1
			c2.1,3.7,1.8,7.9-0.7,9.4C126,291.5,125.3,291.6,124.6,291.6z M120.8,278.4c-0.5,0-1,0.1-1.4,0.4c-1.9,1.1-2.1,4.6-0.3,7.7
			c0.9,1.5,2.1,2.8,3.5,3.4c1.2,0.6,2.4,0.7,3.3,0.2c1.9-1.1,2.1-4.6,0.3-7.7C124.8,279.9,122.6,278.4,120.8,278.4z"/>
	</g>
	<g>
		<path class="st4" d="M145.6,232.1c-0.3,0-0.6,0-0.9-0.1c-3.9-1.3-2.6-13.2-2.2-15.9l-2.3-10.2c-0.1-0.3,0.1-0.7,0.5-0.7
			c0.3-0.1,0.7,0.1,0.7,0.5l2.4,10.3c0,0.1,0,0.1,0,0.2c-0.7,5.6-0.8,13.9,1.4,14.6c3.3,1.1,12.8-9.2,18.1-16.1l-2.1-9.1
			c-0.1-0.3,0.1-0.7,0.5-0.7c0.3-0.1,0.7,0.1,0.7,0.5l2.1,9.3c0,0.2,0,0.4-0.1,0.5C163.1,217,151.3,232.1,145.6,232.1z"/>
	</g>
	<g>
		<path class="st4" d="M153.8,162c-0.2,0-0.5-0.1-0.6-0.4c-0.2-0.3,0-0.7,0.3-0.8l4.4-2.1c0.3-0.1,0.7,0,0.8,0.3
			c0.2,0.3,0,0.7-0.3,0.8l-4.4,2.1C154,162,153.9,162,153.8,162z"/>
	</g>
	<g>
		<path class="st4" d="M474.1,247.5c-0.3,0-0.6-0.2-0.6-0.5c0-0.1-1.8-9-5-15.2c-0.2-0.3,0-0.7,0.3-0.8c0.3-0.2,0.7,0,0.8,0.3
			c3.3,6.3,5.1,15.2,5.1,15.6c0.1,0.3-0.2,0.7-0.5,0.7C474.1,247.5,474.1,247.5,474.1,247.5z"/>
	</g>
	<g>
		<path class="st4" d="M419.4,287.2c-1,0-1.9-0.2-2.6-0.6c-1.3-0.7-2.2-2.2-2.7-4.3c-0.2-1-0.4-2-0.5-3.1c-0.3-5,0.8-9.4,3.1-12.4
			c2.6-3.4,6.4-5.4,10.1-5.4c5.4,0,7.2,4,7.2,4.2c0.1,0.3,0,0.7-0.3,0.8c-0.3,0.1-0.7,0-0.8-0.3c-0.1-0.1-1.5-3.4-6.1-3.4
			c-3.3,0-6.7,1.8-9.1,4.9c-2.9,3.7-3,8.8-2.8,11.5c0.1,1,0.2,2,0.4,2.9c0.4,1.8,1.1,2.9,2.1,3.5c0.6,0.4,1.5,0.5,2.5,0.4
			c1.9-0.2,3.6-1.1,4.3-2.5c0.6-1.2,0.7-2.6,0.7-3.7l0-0.9c0-1.8-0.1-3.6,0.6-5.4c0.7-2.1,2-3.9,3.2-5.3c0.2-0.3,0.6-0.3,0.9-0.1
			c0.3,0.2,0.3,0.6,0.1,0.9c-1.1,1.4-2.3,3.1-3,5c-0.6,1.6-0.5,3.2-0.5,5l0,1c0,1.3-0.1,2.9-0.9,4.3c-1,1.8-3,3-5.3,3.2
			C419.8,287.2,419.6,287.2,419.4,287.2z"/>
	</g>
	<g>
		<path class="st4" d="M489.1,132.5c-0.3-0.1-0.5-0.4-0.4-0.7c0,0,0.6-2.4,0.8-6.4c0-0.3,0.3-0.5,0.6-0.5c0.3,0,0.6,0.3,0.5,0.6
			c-0.2,4.1-0.8,6.5-0.8,6.6c-0.1,0.3-0.3,0.4-0.6,0.4C489.1,132.5,489.1,132.5,489.1,132.5z M489.4,118.9c-0.2-2.1-0.4-4.3-0.8-6.4
			c-0.1-0.3,0.1-0.6,0.5-0.7c0.3,0,0.6,0.2,0.7,0.5c0.4,2.2,0.7,4.4,0.8,6.6c0,0.3-0.2,0.6-0.6,0.6
			C489.6,119.4,489.4,119.2,489.4,118.9z M487,106.2c-0.6-2.1-1.4-4.1-2.2-6.1c-0.1-0.3,0-0.6,0.3-0.7c0.3-0.1,0.6,0,0.7,0.3
			c0.9,2,1.6,4.1,2.2,6.2c0.1,0.3-0.1,0.6-0.5,0.7C487.3,106.6,487.1,106.4,487,106.2z M482,94.3c-1-1.9-2.2-3.7-3.4-5.5
			c-0.2-0.3-0.1-0.6,0.1-0.8c0.3-0.2,0.6-0.1,0.8,0.1c1.3,1.8,2.4,3.7,3.5,5.6c0.2,0.3,0.1,0.6-0.2,0.8c-0.1,0-0.2,0.1-0.3,0.1
			C482.3,94.6,482.1,94.4,482,94.3z M474.6,83.6c-1.4-1.6-2.9-3.2-4.4-4.8c-0.2-0.2-0.2-0.6,0-0.8c0.2-0.2,0.6-0.2,0.8,0
			c1.6,1.5,3.1,3.2,4.5,4.8c0.2,0.2,0.2,0.6-0.1,0.8c-0.1,0.1-0.2,0.1-0.4,0.1C474.9,83.8,474.7,83.8,474.6,83.6z M465.4,74.5
			c-1.6-1.4-3.4-2.7-5.1-4c-0.3-0.2-0.3-0.5-0.1-0.8c0.2-0.3,0.5-0.3,0.8-0.1c1.8,1.3,3.5,2.7,5.2,4.1c0.2,0.2,0.3,0.6,0.1,0.8
			c-0.1,0.1-0.3,0.2-0.4,0.2C465.6,74.6,465.5,74.6,465.4,74.5z M454.9,66.8c-1.8-1.1-3.7-2.2-5.6-3.3c-0.3-0.2-0.4-0.5-0.2-0.8
			c0.2-0.3,0.5-0.4,0.8-0.2c1.9,1.1,3.8,2.2,5.7,3.3c0.3,0.2,0.3,0.5,0.2,0.8c-0.1,0.2-0.3,0.3-0.5,0.3
			C455.1,66.9,455,66.9,454.9,66.8z M349.8,65.9c-0.2-0.3-0.1-0.6,0.1-0.8c1.7-1.2,3.6-2.4,5.6-3.5c0.3-0.2,0.6-0.1,0.8,0.2
			c0.2,0.3,0.1,0.6-0.2,0.8c-2,1.1-3.8,2.3-5.5,3.4c-0.1,0.1-0.2,0.1-0.3,0.1C350.1,66.2,349.9,66.1,349.8,65.9z M443.5,60.5
			c-2-1-4-1.9-5.9-2.7c-0.3-0.1-0.4-0.5-0.3-0.7c0.1-0.3,0.5-0.4,0.7-0.3c2,0.8,4,1.7,6,2.7c0.3,0.1,0.4,0.5,0.3,0.8
			c-0.1,0.2-0.3,0.3-0.5,0.3C443.7,60.6,443.6,60.5,443.5,60.5z M361.1,59.3c-0.1-0.3,0-0.6,0.3-0.8c2-0.9,4-1.8,6-2.6
			c0.3-0.1,0.6,0,0.7,0.3c0.1,0.3,0,0.6-0.3,0.7c-2,0.8-4,1.7-6,2.6c-0.1,0-0.2,0.1-0.2,0.1C361.4,59.7,361.2,59.5,361.1,59.3z
			 M431.5,55.5c-2.1-0.7-4.2-1.4-6.2-1.9c-0.3-0.1-0.5-0.4-0.4-0.7c0.1-0.3,0.4-0.5,0.7-0.4c2.1,0.6,4.2,1.2,6.3,1.9
			c0.3,0.1,0.5,0.4,0.4,0.7c-0.1,0.2-0.3,0.4-0.5,0.4C431.6,55.6,431.5,55.6,431.5,55.5z M373.2,54.4c-0.1-0.3,0.1-0.6,0.4-0.7
			c2.1-0.7,4.2-1.3,6.3-1.8c0.3-0.1,0.6,0.1,0.7,0.4c0.1,0.3-0.1,0.6-0.4,0.7c-2.1,0.5-4.2,1.1-6.4,1.8
			C373.5,54.8,373.3,54.7,373.2,54.4z M418.9,52.2c-2.1-0.4-4.3-0.8-6.4-1c-0.3,0-0.5-0.3-0.5-0.6c0-0.3,0.3-0.5,0.6-0.5
			c2.2,0.3,4.4,0.6,6.5,1c0.3,0.1,0.5,0.4,0.5,0.7c-0.1,0.3-0.3,0.5-0.6,0.5C419,52.2,418.9,52.2,418.9,52.2z M385.9,51.3
			c-0.1-0.3,0.2-0.6,0.5-0.7c2.1-0.4,4.3-0.7,6.5-0.9c0.3,0,0.6,0.2,0.6,0.5c0,0.3-0.2,0.6-0.5,0.6c-2.2,0.2-4.3,0.5-6.5,0.9
			C386.2,51.7,386,51.5,385.9,51.3z M406,50.6c-2.2-0.1-4.4-0.1-6.5-0.1c-0.3,0-0.6-0.2-0.6-0.6c0-0.3,0.2-0.6,0.6-0.6
			c2.2,0,4.4,0,6.6,0.1c0.3,0,0.6,0.3,0.5,0.6C406.6,50.3,406.3,50.6,406,50.6C406,50.6,406,50.6,406,50.6z"/>
	</g>
	<circle class="st3" cx="298.3" cy="58.6" r="58.6"/>
	<path class="st1" d="M278.9,59.7c-2.4-2.4-6.3-2.4-8.8,0l-2.4,2.4c-2.4,2.4-2.4,6.3,0,8.8l17.5,17.5c2.4,2.4,6.3,2.4,8.8,0l36-35.1
		c2.4-2.4,2.4-6.3,0-8.8l-2.4-2.4c-2.4-2.4-6.3-2.4-8.8,0l-29.2,28.3L278.9,59.7z"/>
	<g>
		<g>
			<g>
				<g>
					<path class="st4" d="M297.8,112.1c24.5,0,46.1-17.3,51.5-41.1c0.1-0.3-0.1-0.6-0.4-0.7c-0.3-0.1-0.6,0.1-0.7,0.4
						c-5.2,23.3-26.4,40.2-50.4,40.2c-28.5,0-51.6-23.2-51.6-51.6s23.2-51.6,51.6-51.6c18.2,0,34.8,9.3,44.2,25
						c0.2,0.3,0.5,0.4,0.8,0.2c0.3-0.2,0.4-0.5,0.2-0.8c-9.6-16-26.5-25.5-45.2-25.5c-29.1,0-52.7,23.7-52.7,52.7
						C245,88.5,268.7,112.1,297.8,112.1z"/>
				</g>
			</g>
		</g>
	</g>
	<g>
		<path class="st4" d="M288.5,84.1c-1.8,0-3.5-0.7-4.8-2l-17.5-17.5c-1.3-1.3-2-3-2-4.8c0-1.8,0.7-3.5,2-4.8l2.4-2.4
			c1.3-1.3,3-2,4.8-2c1.8,0,3.5,0.7,4.8,2L288.5,63l28.8-27.9c1.3-1.3,3-2,4.8-2c1.8,0,3.5,0.7,4.8,2l2.4,2.4c2.6,2.6,2.6,6.9,0,9.6
			l-36,35.1C292,83.4,290.3,84.1,288.5,84.1z M273.4,51.8c-1.5,0-2.9,0.6-4,1.6l-2.4,2.4c-1.1,1.1-1.7,2.5-1.7,4
			c0,1.5,0.6,2.9,1.7,4l17.5,17.5c1.1,1.1,2.5,1.6,4,1.6c1.5,0,2.9-0.6,4-1.6l36-35.1c2.2-2.2,2.2-5.8,0-8l-2.4-2.4
			c-1.1-1.1-2.5-1.6-4-1.6c-1.5,0-2.9,0.6-4,1.6l-29.2,28.3c-0.2,0.2-0.6,0.2-0.8,0l-10.7-10.7C276.3,52.4,274.9,51.8,273.4,51.8z"
			/>
	</g>
	<path class="st4" d="M140.2,105.7c-0.3-0.1-0.4-0.4-0.3-0.7c0.1-0.3,0.5-0.4,0.7-0.3c2,0.8,3.9,0.6,5.7-0.7
		c0.3-0.2,0.6-0.1,0.8,0.1c0.2,0.3,0.1,0.6-0.2,0.8c-1.3,0.9-2.6,1.3-4.1,1.3C142,106.2,141.1,106.1,140.2,105.7z"/>
	<path class="st4" d="M135,101.4c-1.4-1.7-2.5-3.6-3.5-5.7c-0.1-0.3,0-0.6,0.3-0.8c0.3-0.1,0.6,0,0.8,0.3c0.9,2,2,3.9,3.3,5.5
		c0.2,0.2,0.2,0.6-0.1,0.8c-0.1,0.1-0.2,0.1-0.4,0.1C135.3,101.6,135.1,101.5,135,101.4z"/>
	<path class="st4" d="M150.4,99.9c-0.3-0.1-0.4-0.5-0.3-0.8c0.9-1.8,1.5-3.9,1.8-6.1c0.1-0.3,0.3-0.5,0.7-0.5c0.3,0,0.5,0.3,0.5,0.6
		c-0.4,2.3-1,4.5-1.9,6.4c-0.1,0.2-0.3,0.3-0.5,0.3C150.6,99.9,150.5,99.9,150.4,99.9z"/>
	<path class="st4" d="M129.5,89.4c-0.5-2.1-0.7-4.3-0.8-6.6c0-0.3,0.2-0.6,0.5-0.6c0.3,0,0.6,0.2,0.6,0.5c0.1,2.2,0.3,4.3,0.8,6.4
		c0.1,0.3-0.1,0.6-0.6,0.7C129.8,89.8,129.6,89.6,129.5,89.4z"/>
	<path class="st4" d="M152.2,86.6c-0.2-2.2-0.7-4.3-1.4-6.2c-0.1-0.3,0.1-0.6,0.3-0.7c0.3-0.1,0.6,0.1,0.7,0.3
		c0.7,2.1,1.2,4.3,1.4,6.5c0,0.3-0.2,0.6-0.6,0.6C152.4,87.2,152.2,86.9,152.2,86.6z"/>
	<path class="st4" d="M129.5,76.8c-0.3,0-0.5-0.3-0.5-0.6c0.3-2.1,0.7-4.3,1.3-6.5c0.1-0.3,0.4-0.5,0.7-0.4c0.3,0.1,0.5,0.4,0.4,0.7
		c-0.6,2.1-1,4.2-1.2,6.3C130.1,76.6,129.8,76.8,129.5,76.8C129.5,76.8,129.5,76.8,129.5,76.8z"/>
	<path class="st4" d="M147.9,74.7c-1.2-1.7-2.7-3.3-4.4-4.6c-0.2-0.2-0.3-0.6-0.1-0.8c0.2-0.2,0.6-0.3,0.8-0.1
		c1.8,1.4,3.3,3,4.6,4.9c0.2,0.3,0.1,0.6-0.1,0.8c-0.1,0.1-0.2,0.1-0.3,0.1C148.2,75,148,74.9,147.9,74.7z"/>
	<path class="st4" d="M138,66.8c-1.9-1-3.9-1.9-5.9-2.7c-0.3-0.1-0.4-0.5-0.3-0.7c0.1-0.3,0.4-0.4,0.7-0.3c0.8-1.9,1.7-3.7,2.7-5.5
		c0.2-0.3,0.5-0.4,0.8-0.2c0.3,0.2,0.4,0.5,0.2,0.8c-1,1.8-1.9,3.6-2.6,5.4c1.7,0.7,3.4,1.5,5,2.4c0.3,0.1,0.4,0.5,0.2,0.8
		c-0.1,0.2-0.3,0.3-0.5,0.3C138.2,66.8,138.1,66.8,138,66.8z"/>
	<path class="st4" d="M126.1,61.7c-2.1-0.7-4.2-1.3-6.2-1.9c-0.3-0.1-0.5-0.4-0.4-0.7c0.1-0.3,0.4-0.5,0.7-0.4
		c2.1,0.6,4.2,1.2,6.3,1.9c0.3,0.1,0.5,0.4,0.4,0.7c-0.1,0.2-0.3,0.4-0.5,0.4C126.2,61.7,126.1,61.7,126.1,61.7z"/>
	<path class="st4" d="M113.5,58.4c-2.2-0.4-4.3-0.7-6.4-0.9c-0.3,0-0.5-0.3-0.5-0.6c0-0.3,0.3-0.5,0.6-0.5c2.1,0.2,4.3,0.5,6.5,0.9
		c0.3,0.1,0.5,0.4,0.5,0.7c-0.1,0.3-0.3,0.5-0.6,0.5C113.6,58.4,113.5,58.4,113.5,58.4z"/>
	<path class="st4" d="M138.9,52.6c-0.3-0.2-0.3-0.5-0.1-0.8c1.3-1.8,2.6-3.5,4.1-5.2c0.2-0.2,0.6-0.3,0.8-0.1c0.2,0.2,0.3,0.6,0,0.8
		c-1.4,1.6-2.8,3.3-4,5.1c-0.1,0.2-0.3,0.2-0.5,0.2C139.1,52.7,139,52.7,138.9,52.6z"/>
	<path class="st4" d="M147.5,42.8c-0.2-0.2-0.2-0.6,0-0.8c1.6-1.5,3.3-2.9,5-4.3c0.2-0.2,0.6-0.2,0.8,0.1c0.2,0.2,0.2,0.6-0.1,0.8
		c-1.7,1.3-3.4,2.8-4.9,4.2c-0.1,0.1-0.2,0.2-0.4,0.2C147.7,43,147.6,42.9,147.5,42.8z"/>
	<path class="st4" d="M157.7,34.7c-0.2-0.3-0.1-0.6,0.2-0.8c1.8-1.2,3.7-2.3,5.6-3.4c0.3-0.2,0.6-0.1,0.8,0.2
		c0.2,0.3,0.1,0.6-0.2,0.8c-1.9,1.1-3.8,2.2-5.6,3.4c-0.1,0.1-0.2,0.1-0.3,0.1C158,34.9,157.8,34.8,157.7,34.7z"/>
	<path class="st4" d="M238.3,28.7c0,0-2-1.5-5.6-3.1c-0.3-0.1-0.4-0.5-0.3-0.8c0.1-0.3,0.5-0.4,0.8-0.3c3.7,1.7,5.7,3.2,5.8,3.3
		c0.3,0.2,0.3,0.5,0.1,0.8c-0.1,0.2-0.3,0.2-0.5,0.2C238.5,28.9,238.4,28.8,238.3,28.7z"/>
	<path class="st4" d="M169.1,28.2c-0.1-0.3,0-0.6,0.3-0.8c2-0.9,4-1.8,6-2.6c0.3-0.1,0.6,0,0.7,0.3c0.1,0.3,0,0.6-0.3,0.7
		c-2,0.8-4,1.7-6,2.6c-0.1,0-0.2,0.1-0.2,0.1C169.4,28.6,169.2,28.4,169.1,28.2z"/>
	<path class="st4" d="M181.2,23.4c-0.1-0.3,0.1-0.6,0.4-0.7c2.1-0.7,4.2-1.3,6.3-1.8c0.3-0.1,0.6,0.1,0.7,0.4
		c0.1,0.3-0.1,0.6-0.4,0.7c-2.1,0.5-4.2,1.1-6.4,1.8C181.6,23.8,181.3,23.6,181.2,23.4z"/>
	<path class="st4" d="M226.7,23.2c-2-0.7-4.1-1.3-6.2-1.7c-0.3-0.1-0.5-0.4-0.4-0.7c0.1-0.3,0.4-0.5,0.7-0.4
		c2.2,0.5,4.3,1.1,6.4,1.8c0.3,0.1,0.5,0.4,0.4,0.7c-0.1,0.2-0.3,0.4-0.5,0.4C226.8,23.2,226.7,23.2,226.7,23.2z"/>
	<path class="st4" d="M194,20.3c0-0.3,0.2-0.6,0.5-0.6c2.2-0.3,4.4-0.6,6.6-0.7c0.3,0,0.5,0.2,0.6,0.5c0,0.3-0.2,0.6-0.5,0.6
		c-2.1,0.1-4.3,0.4-6.5,0.7C194.2,20.8,194,20.6,194,20.3z"/>
	<path class="st4" d="M214,20.4c-2.1-0.3-4.3-0.4-6.5-0.5c-0.3,0-0.6-0.3-0.6-0.6c0-0.3,0.3-0.6,0.6-0.6c2.2,0.1,4.4,0.2,6.6,0.5
		c0.3,0,0.5,0.3,0.5,0.6C214.6,20.2,214.4,20.4,214,20.4C214.1,20.4,214,20.4,214,20.4z"/>
	<path class="st1" d="M92.3,149.5l15.7,10l0-38.3c0,0,0.2-6.7-8.5-8.8H56.3c0,0-9,0.2-9.5,9.5V141c0,0,1,8.5,9.5,8.5H92.3z"/>
	<g>
		<g>
			<path class="st4" d="M108,160c-0.1,0-0.2,0-0.3-0.1l-15.5-10H56.3c-5.6,0-10.1-4.5-10.1-10.1v-18c0-5.6,4.5-10.1,10.1-10.1h42.2
				c5.6,0,10.1,4.5,10.1,10.1v18c0,0.3,0,0.6,0,0.8c0,0.2,0,18.8,0,18.8c0,0.2-0.1,0.4-0.3,0.5C108.1,160,108.1,160,108,160z
				 M56.3,112.9c-5,0-9,4-9,9v18c0,5,4,9,9,9h36.1c0.1,0,0.2,0,0.3,0.1l14.8,9.5v-17.4c0-0.1-0.1-0.2-0.1-0.3c0-0.3,0.1-0.6,0.1-1
				v-18c0-5-4-9-9-9H56.3z"/>
		</g>
		<g>
			<path class="st4" d="M68.5,126.3h-9.8c-0.3,0-0.5-0.2-0.5-0.5c0-0.3,0.2-0.5,0.5-0.5h9.8c0.3,0,0.5,0.2,0.5,0.5
				C69.1,126.1,68.8,126.3,68.5,126.3z"/>
		</g>
		<g>
			<path class="st4" d="M96.3,126.3H80.4c-0.3,0-0.5-0.2-0.5-0.5c0-0.3,0.2-0.5,0.5-0.5h15.9c0.3,0,0.5,0.2,0.5,0.5
				C96.8,126.1,96.6,126.3,96.3,126.3z"/>
		</g>
		<g>
			<path class="st4" d="M96.3,136.5H58.7c-0.3,0-0.5-0.2-0.5-0.5c0-0.3,0.2-0.5,0.5-0.5h37.6c0.3,0,0.5,0.2,0.5,0.5
				C96.8,136.2,96.6,136.5,96.3,136.5z"/>
		</g>
	</g>
	<g>
		<path class="st4" d="M48.6,268.4c-0.1,0-0.1,0-0.2,0c-0.9-0.4-1.9-0.8-2.8-1.2c-0.3-0.1-0.4-0.4-0.3-0.7c0.1-0.3,0.4-0.4,0.7-0.3
			c0.9,0.4,1.8,0.8,2.7,1.2c0.3,0.1,0.4,0.4,0.3,0.7C49,268.3,48.8,268.4,48.6,268.4z M40.3,264.4c-0.1,0-0.2,0-0.3-0.1
			c-1.8-1.1-3.6-2.2-5.2-3.5c-0.2-0.2-0.3-0.5-0.1-0.8c0.2-0.2,0.5-0.3,0.8-0.1c1.6,1.2,3.3,2.4,5.1,3.4c0.3,0.2,0.3,0.5,0.2,0.7
			C40.7,264.3,40.5,264.4,40.3,264.4z M30.5,256.9c-0.1,0-0.3-0.1-0.4-0.2c-1.5-1.5-2.9-3.1-4.2-4.7c-0.2-0.2-0.1-0.6,0.1-0.8
			c0.2-0.2,0.6-0.1,0.8,0.1c1.2,1.6,2.6,3.1,4.1,4.6c0.2,0.2,0.2,0.6,0,0.8C30.8,256.9,30.6,256.9,30.5,256.9z M22.9,247.2
			c-0.2,0-0.4-0.1-0.5-0.3c-0.7-1.1-1.3-2.3-1.9-3.5c-0.3-0.7-0.7-1.4-1-2.1c-0.1-0.3,0-0.6,0.3-0.7c0.3-0.1,0.6,0,0.7,0.3
			c0.3,0.7,0.6,1.4,1,2.1c0.6,1.2,1.2,2.3,1.8,3.4c0.2,0.3,0.1,0.6-0.2,0.7C23.1,247.1,23,247.2,22.9,247.2z M17.8,235.8
			c-0.2,0-0.4-0.1-0.5-0.4c-0.7-2-1.3-4-1.8-6c-0.1-0.3,0.1-0.6,0.4-0.7c0.3,0,0.6,0.1,0.7,0.4c0.5,2,1.1,4,1.7,5.9
			c0.1,0.3-0.1,0.6-0.3,0.7C18,235.8,17.9,235.8,17.8,235.8z M14.9,223.8c-0.3,0-0.5-0.2-0.5-0.5c-0.3-2.1-0.5-4.2-0.5-6.2
			c0-0.3,0.2-0.5,0.5-0.6c0.3,0,0.5,0.2,0.6,0.5c0.1,2,0.2,4.1,0.5,6.1C15.5,223.5,15.3,223.8,14.9,223.8
			C15,223.8,14.9,223.8,14.9,223.8z M14.5,211.4c-0.3,0-0.6-0.3-0.5-0.6c0.2-2.1,0.5-4.2,1-6.2c0.1-0.3,0.3-0.5,0.6-0.4
			c0.3,0.1,0.5,0.4,0.4,0.6c-0.4,2-0.8,4-0.9,6.1C15,211.2,14.8,211.4,14.5,211.4z M17.3,199.4c-0.5-0.1-0.6-0.5-0.5-0.7
			c0.6-1.6,1.4-3.3,2.2-4.8c0.2-0.3,0.3-0.6,0.5-0.9c0.1-0.3,0.5-0.4,0.7-0.2c0.3,0.1,0.4,0.5,0.2,0.7c-0.2,0.3-0.3,0.6-0.5,0.9
			c-0.8,1.5-1.5,3.1-2.1,4.7C17.7,199.2,17.5,199.4,17.3,199.4z M76,196.8c-0.3,0-0.6,0-0.9,0c-0.3,0-0.5-0.3-0.5-0.6
			c0-0.3,0.3-0.5,0.5-0.5c2,0.1,4.1-0.2,5.8-1.1c0.3-0.1,0.6,0,0.7,0.3c0.1,0.3,0,0.6-0.2,0.7C79.8,196.4,78,196.8,76,196.8z
			 M69.4,194.9c-0.1,0-0.2,0-0.3-0.1c-1.7-1.1-3.3-2.6-4.6-4.4c-0.2-0.2-0.1-0.6,0.1-0.8c0.2-0.2,0.6-0.1,0.8,0.1
			c1.3,1.7,2.7,3.1,4.3,4.1c0.2,0.2,0.3,0.5,0.2,0.7C69.7,194.8,69.5,194.9,69.4,194.9z M85.5,191.4c-0.1,0-0.1,0-0.2,0
			c-0.3-0.1-0.4-0.4-0.3-0.7c0.4-1,0.7-2.2,0.7-3.4c0-0.8-0.1-1.5-0.3-2.3c-0.1-0.3,0.1-0.6,0.4-0.6c0.3-0.1,0.6,0.1,0.6,0.4
			c0.2,0.9,0.3,1.7,0.3,2.6c0,1.4-0.3,2.7-0.8,3.9C85.9,191.2,85.7,191.4,85.5,191.4z M23.3,188.6c-0.1,0-0.2,0-0.3-0.1
			c-0.2-0.2-0.3-0.5-0.1-0.8c1.3-1.6,2.7-3.2,4.2-4.7c0.2-0.2,0.6-0.2,0.8,0c0.2,0.2,0.2,0.6,0,0.8c-1.5,1.5-2.8,3-4.1,4.6
			C23.6,188.5,23.4,188.6,23.3,188.6z M61.9,185.2c-0.2,0-0.4-0.1-0.5-0.3c-0.4-0.9-0.7-1.9-1-2.8c-0.3-1-0.6-2.1-0.9-3.1
			c-0.1-0.3,0.1-0.6,0.4-0.7c0.3-0.1,0.6,0.1,0.7,0.4c0.3,1.1,0.6,2.1,0.9,3.1c0.3,0.9,0.6,1.9,1,2.8c0.1,0.3,0,0.6-0.3,0.7
			C62,185.2,62,185.2,61.9,185.2z M32.1,179.9c-0.2,0-0.3-0.1-0.4-0.2c-0.2-0.2-0.1-0.6,0.1-0.8c1.6-1.3,3.4-2.4,5.2-3.5
			c0.3-0.2,0.6-0.1,0.7,0.2c0.1,0.3,0.1,0.6-0.2,0.7c-1.8,1-3.5,2.2-5.1,3.4C32.3,179.8,32.2,179.9,32.1,179.9z M83.1,179.8
			c-0.2,0-0.3-0.1-0.4-0.2c-1.2-1.4-2.7-2.7-4.6-3.9c-0.2-0.2-0.3-0.5-0.2-0.7c0.2-0.3,0.5-0.3,0.7-0.2c2,1.3,3.5,2.7,4.8,4.2
			c0.2,0.2,0.2,0.6-0.1,0.8C83.4,179.8,83.2,179.8,83.1,179.8z M42.8,173.7c-0.2,0-0.4-0.1-0.5-0.3c-0.1-0.3,0-0.6,0.3-0.7
			c2-0.8,3.9-1.5,5.9-2c0.3-0.1,0.6,0.1,0.7,0.4c0.1,0.3-0.1,0.6-0.4,0.7c-1.9,0.5-3.9,1.2-5.8,2C42.9,173.7,42.8,173.7,42.8,173.7z
			 M58.7,173.2c-0.3,0-0.5-0.2-0.5-0.4c-0.2-0.8-0.3-1.7-0.5-2.5c-1,0-2,0.1-2.9,0.2c-0.3,0-0.6-0.2-0.6-0.5c0-0.3,0.2-0.6,0.5-0.6
			c1-0.1,1.9-0.2,2.9-0.2c-0.1-0.8-0.3-1.7-0.4-2.5c0-0.3,0.2-0.6,0.5-0.6c0.3-0.1,0.6,0.2,0.6,0.5c0.1,0.9,0.3,1.8,0.4,2.7
			c0.3,0,0.6,0,0.9,0c0.5,0,0.9,0,1.4,0c0.3,0,0.5,0.3,0.5,0.6c0,0.3-0.3,0.5-0.5,0.5c-0.5,0-1,0-1.6,0c-0.2,0-0.4,0-0.6,0
			c0.1,0.8,0.3,1.6,0.4,2.4c0.1,0.3-0.1,0.6-0.4,0.6C58.8,173.2,58.7,173.2,58.7,173.2z M73,172.9c-0.1,0-0.1,0-0.2,0
			c-1.9-0.8-3.8-1.4-5.8-1.8c-0.3-0.1-0.5-0.4-0.4-0.6c0.1-0.3,0.3-0.5,0.6-0.4c2.1,0.4,4.1,1.1,6,1.9c0.3,0.1,0.4,0.4,0.3,0.7
			C73.4,172.8,73.2,172.9,73,172.9z M57,160.9c-0.3,0-0.5-0.2-0.5-0.5c-0.2-2-0.3-4.1-0.4-6.2c0-0.3,0.2-0.6,0.5-0.6
			c0.3,0,0.6,0.2,0.6,0.5c0.1,2.1,0.2,4.2,0.4,6.2C57.6,160.7,57.3,160.9,57,160.9C57,160.9,57,160.9,57,160.9z"/>
	</g>
	<g>
		<path class="st4" d="M61.5,108.7c-0.3,0-0.5-0.2-0.5-0.4c-0.1-0.5-0.2-1.1-0.3-1.6c0-0.3,0.2-0.6,0.5-0.6c0.3-0.1,0.6,0.2,0.6,0.5
			c0.1,0.5,0.2,1.1,0.3,1.6c0.1,0.3-0.1,0.6-0.4,0.6C61.6,108.7,61.6,108.7,61.5,108.7z M61,100.9c-0.3,0-0.5-0.3-0.5-0.6
			c0.1-2,0.2-4.1,0.6-6.2c0-0.3,0.3-0.5,0.6-0.5c0.3,0,0.5,0.3,0.5,0.6c-0.3,2.1-0.5,4.1-0.5,6.1C61.5,100.6,61.3,100.9,61,100.9z
			 M62.8,88.6c-0.4-0.1-0.6-0.4-0.5-0.7c0.5-2,1.2-4,2-6c0.1-0.3,0.4-0.4,0.7-0.3c0.3,0.1,0.4,0.4,0.3,0.7c-0.7,1.9-1.4,3.8-1.9,5.8
			C63.2,88.5,63,88.6,62.8,88.6z M67.3,77.1c-0.1,0-0.2,0-0.3-0.1c-0.3-0.1-0.4-0.5-0.2-0.7c1-1.9,2.2-3.6,3.4-5.3
			c0.2-0.2,0.5-0.3,0.8-0.1c0.2,0.2,0.3,0.5,0.1,0.8c-1.2,1.6-2.3,3.3-3.3,5.1C67.7,77,67.5,77.1,67.3,77.1z M74.8,67.3
			c-0.1,0-0.3-0.1-0.4-0.2c-0.2-0.2-0.2-0.6,0-0.8c1.5-1.5,3.2-2.8,4.9-3.9c0.2-0.2,0.6-0.1,0.7,0.1c0.2,0.2,0.1,0.6-0.1,0.7
			c-1.7,1.1-3.3,2.4-4.8,3.8C75.1,67.2,75,67.3,74.8,67.3z M85.1,60.4c-0.2,0-0.4-0.1-0.5-0.3c-0.1-0.3,0-0.6,0.3-0.7
			c1.9-0.8,3.9-1.5,5.9-2.1c0.3-0.1,0.6,0.1,0.7,0.4c0.1,0.3-0.1,0.6-0.4,0.7c-2,0.5-3.9,1.2-5.8,2C85.2,60.4,85.2,60.4,85.1,60.4z
			 M97,57.2c-0.3,0-0.5-0.2-0.5-0.5c0-0.3,0.2-0.6,0.5-0.6c2-0.2,4.1-0.4,6.2-0.4c0.3,0,0.5,0.2,0.5,0.5s-0.2,0.5-0.5,0.5
			C101.1,56.9,99,57,97,57.2C97,57.2,97,57.2,97,57.2z"/>
	</g>
</g>
</svg>
