<?xml version="1.0" encoding="utf-8"?>
<!-- Generator: Adobe Illustrator 22.0.1, SVG Export Plug-In . SVG Version: 6.00 Build 0)  -->
<svg version="1.0" id="Слой_1" xmlns="http://www.w3.org/2000/svg" xmlns:xlink="http://www.w3.org/1999/xlink" x="0px" y="0px"
	 width="45.6px" height="28.8px" viewBox="0 0 45.6 28.8" style="enable-background:new 0 0 45.6 28.8;" xml:space="preserve">
<style type="text/css">
	.st0{fill:#BFBFBF;}
	.st1{opacity:7.000000e-02;fill:#FFFFFF;enable-background:new    ;}
	.st2{opacity:7.000000e-02;enable-background:new    ;}
	.st3{display:none;fill:#BEBFBE;}
</style>
<g>
	<path class="st0" d="M37,10.6l-2.1,2.3l-2-2.3H25v7.3h7.7l2.1-2.3l2,2.3h2.5L36,14.2h0l3.3-3.7H37z M30.8,17.2v-1h-3.9V15h3.9v-1.6
		h-3.9v-1.1h3.9l0-1.1l2.7,3.1L30.8,17.2z"/>
	<path class="st0" d="M20.7,10.6l-2,4.7l-2.1-4.7h-2.9v6.3L11,10.6H8.3l-3.1,7.3h2.1l0.7-1.6h3.4l0.7,1.6h3.6v-5.2l2.3,5.2h1.6
		l2.3-5.2v5.2h1.9l0-7.3l0,0H20.7z M8.6,14.6l1-2.5l1,2.5H8.6z"/>
	<g>
		<path class="st1" d="M42,0H3.6C1.6,0,0,1.6,0,3.6v21.6c0,2,1.7,3.6,3.6,3.6H42c2,0,3.6-1.6,3.6-3.6V3.6C45.6,1.6,43.9,0,42,0z
			 M44.4,25.2c0,1.3-1.1,2.4-2.4,2.4H3.6c-1.3,0-2.4-1.1-2.4-2.4V3.6c0-1.3,1.1-2.4,2.4-2.4H42c1.3,0,2.4,1.1,2.4,2.4V25.2z"/>
		<polygon class="st2" points="36.3,9.1 34.9,10.7 33.4,9.1 19.7,9.1 18.7,11.7 17.5,9.1 12.2,9.1 11.9,9.1 7.3,9.1 3,19.3 
			8.2,19.3 8.8,17.7 10.3,17.7 11,19.3 33.3,19.3 34.8,17.7 36.2,19.3 42.6,19.3 38,14.2 42.6,9.1 		"/>
	</g>
	<path class="st3" d="M42,1.2H3.6c-1.3,0-2.4,1.1-2.4,2.4v21.6c0,1.3,1.1,2.4,2.4,2.4H42c1.3,0,2.4-1.1,2.4-2.4V3.6
		C44.4,2.3,43.3,1.2,42,1.2z M42.6,19.3h-6.4l-1.4-1.6l-1.5,1.6H11l-0.7-1.6H8.8l-0.7,1.6H3L7.3,9.1h4.5l0.4,0h5.3l1.2,2.6l1.1-2.6
		h13.7l1.4,1.6l1.5-1.6h6.3L38,14.2L42.6,19.3z"/>
</g>
</svg>
