<?xml version="1.0" encoding="utf-8"?>
<!-- Generator: Adobe Illustrator 22.0.1, SVG Export Plug-In . SVG Version: 6.00 Build 0)  -->
<svg version="1.0" id="Слой_1" xmlns="http://www.w3.org/2000/svg" xmlns:xlink="http://www.w3.org/1999/xlink" x="0px" y="0px"
	 width="40px" height="40px" viewBox="0 0 40 40" style="enable-background:new 0 0 40 40;" xml:space="preserve">
<style type="text/css">
	.st0{fill:#E2A080;}
	.st1{fill:#292929;}
</style>
<path class="st0" d="M20,0c-0.5,0-0.9,0.4-0.9,0.9V20c0,0.5,0.4,0.9,0.9,0.9h19.1c0.5,0,0.9-0.4,0.9-0.9C40,9,31,0,20,0z"/>
<path class="st1" d="M12.2,7.3c-0.3,0-0.6-0.2-0.8-0.4l-1.7-3C9.4,3.5,9.6,2.9,10,2.7c0.4-0.2,0.9-0.1,1.2,0.3l1.7,3
	C13.2,6.4,13,7,12.6,7.2C12.5,7.3,12.3,7.3,12.2,7.3z"/>
<path class="st1" d="M29.6,37.4c-0.3,0-0.6-0.2-0.8-0.4l-1.7-3c-0.2-0.4-0.1-0.9,0.3-1.2c0.4-0.2,0.9-0.1,1.2,0.3l1.7,3
	c0.2,0.4,0.1,0.9-0.3,1.2C29.9,37.4,29.7,37.4,29.6,37.4z"/>
<path class="st1" d="M6.4,13c-0.1,0-0.3,0-0.4-0.1l-3-1.7c-0.4-0.2-0.6-0.8-0.3-1.2c0.2-0.4,0.8-0.6,1.2-0.3l3,1.7
	c0.4,0.2,0.6,0.8,0.3,1.2C7,12.9,6.7,13,6.4,13z"/>
<path class="st1" d="M36.6,30.4c-0.1,0-0.3,0-0.4-0.1l-3-1.7c-0.4-0.2-0.6-0.8-0.3-1.2c0.2-0.4,0.8-0.6,1.2-0.3l3,1.7
	c0.4,0.2,0.6,0.8,0.3,1.2C37.2,30.3,36.9,30.4,36.6,30.4z"/>
<path class="st1" d="M3.4,30.4c-0.3,0-0.6-0.2-0.8-0.4c-0.2-0.4-0.1-0.9,0.3-1.2l3-1.7C6.4,26.8,7,27,7.2,27.4
	c0.2,0.4,0.1,0.9-0.3,1.2l-3,1.7C3.7,30.4,3.6,30.4,3.4,30.4z"/>
<path class="st1" d="M33.6,13c-0.3,0-0.6-0.2-0.8-0.4c-0.2-0.4-0.1-0.9,0.3-1.2l3-1.7c0.4-0.2,0.9-0.1,1.2,0.3
	c0.2,0.4,0.1,0.9-0.3,1.2l-3,1.7C33.9,13,33.7,13,33.6,13z"/>
<path class="st1" d="M10.4,37.4c-0.1,0-0.3,0-0.4-0.1c-0.4-0.2-0.6-0.8-0.3-1.2l1.7-3c0.2-0.4,0.8-0.6,1.2-0.3
	c0.4,0.2,0.6,0.8,0.3,1.2l-1.7,3C11,37.3,10.7,37.4,10.4,37.4z"/>
<path class="st1" d="M27.8,7.3c-0.1,0-0.3,0-0.4-0.1C27,7,26.8,6.4,27.1,6l1.7-3c0.2-0.4,0.8-0.6,1.2-0.3c0.4,0.2,0.6,0.8,0.3,1.2
	l-1.7,3C28.4,7.2,28.1,7.3,27.8,7.3z"/>
<path d="M20,5.2c-0.5,0-0.9-0.4-0.9-0.9V0.9C19.1,0.4,19.5,0,20,0c0.5,0,0.9,0.4,0.9,0.9v3.5C20.9,4.8,20.5,5.2,20,5.2z"/>
<path class="st1" d="M4.3,20.9H0.9C0.4,20.9,0,20.5,0,20c0-0.5,0.4-0.9,0.9-0.9h3.5c0.5,0,0.9,0.4,0.9,0.9
	C5.2,20.5,4.8,20.9,4.3,20.9z"/>
<path d="M39.1,20.9h-3.5c-0.5,0-0.9-0.4-0.9-0.9c0-0.5,0.4-0.9,0.9-0.9h3.5c0.5,0,0.9,0.4,0.9,0.9C40,20.5,39.6,20.9,39.1,20.9z"/>
<path class="st1" d="M20,40c-0.5,0-0.9-0.4-0.9-0.9v-3.5c0-0.5,0.4-0.9,0.9-0.9c0.5,0,0.9,0.4,0.9,0.9v3.5C20.9,39.6,20.5,40,20,40z
	"/>
<path class="st1" d="M39.1,20.9H20c-0.5,0-0.9-0.4-0.9-0.9V0.9C19.1,0.4,19.5,0,20,0c11,0,20,9,20,20C40,20.5,39.6,20.9,39.1,20.9z
	 M20.9,19.1h17.4c-0.4-9.4-8-16.9-17.4-17.4V19.1z"/>
</svg>
