<?xml version="1.0" encoding="utf-8"?>
<!-- Generator: Adobe Illustrator 22.0.1, SVG Export Plug-In . SVG Version: 6.00 Build 0)  -->
<svg version="1.0" xmlns="http://www.w3.org/2000/svg" xmlns:xlink="http://www.w3.org/1999/xlink" x="0px" y="0px" width="45.6px"
	 height="28.8px" viewBox="0 0 45.6 28.8" style="enable-background:new 0 0 45.6 28.8;" xml:space="preserve">
<style type="text/css">
	.st0{fill:#ACAFAD;enable-background:new    ;}
	.st1{fill:#CAD0CD;enable-background:new    ;}
	.st2{opacity:7.000000e-02;enable-background:new    ;}
	.st3{opacity:7.000000e-02;fill:#FFFFFF;enable-background:new    ;}
	.st4{display:none;fill:#BEBFBE;}
</style>
<g id="Layer_1">
	<g>
		<path class="st0" d="M5.6,11.4H3.9v6h1.7c0.9,0,1.6-0.2,2.1-0.7c0.7-0.6,1.1-1.4,1.1-2.3C8.8,12.6,7.5,11.4,5.6,11.4z M7,15.9
			c-0.4,0.3-0.8,0.5-1.6,0.5H5v-4h0.3c0.8,0,1.2,0.1,1.6,0.5c0.4,0.4,0.6,0.9,0.6,1.5C7.6,14.9,7.4,15.5,7,15.9z"/>
		<rect x="9.3" y="11.4" class="st0" width="1.2" height="6"/>
		<path class="st0" d="M13.4,13.7c-0.7-0.3-0.9-0.4-0.9-0.8c0-0.4,0.4-0.7,0.9-0.7c0.4,0,0.6,0.1,0.9,0.5l0.6-0.8
			c-0.5-0.4-1.1-0.7-1.8-0.7c-1.1,0-1.9,0.7-1.9,1.7c0,0.8,0.4,1.2,1.5,1.6c0.5,0.2,0.7,0.3,0.8,0.3c0.2,0.2,0.4,0.4,0.4,0.6
			c0,0.5-0.4,0.8-0.9,0.8c-0.6,0-1-0.3-1.3-0.8L11,16.4c0.5,0.8,1.2,1.1,2.1,1.1c1.2,0,2.1-0.8,2.1-2C15.1,14.6,14.7,14.2,13.4,13.7
			z"/>
		<path class="st0" d="M15.5,14.4c0,1.8,1.4,3.1,3.2,3.1c0.5,0,0.9-0.1,1.5-0.3v-1.4c-0.5,0.5-0.9,0.7-1.4,0.7c-1.2,0-2-0.9-2-2.1
			c0-1.1,0.9-2.1,2-2.1c0.6,0,1,0.2,1.5,0.7v-1.4c-0.5-0.3-0.9-0.4-1.4-0.4C16.9,11.2,15.5,12.6,15.5,14.4z"/>
		<polygon class="st0" points="29.3,15.4 27.8,11.4 26.5,11.4 29,17.5 29.6,17.5 32.2,11.4 31,11.4 		"/>
		<polygon class="st0" points="32.8,17.4 36.1,17.4 36.1,16.4 33.9,16.4 33.9,14.7 36,14.7 36,13.7 33.9,13.7 33.9,12.4 36.1,12.4 
			36.1,11.4 32.8,11.4 		"/>
		<path class="st0" d="M40.7,13.2c0-1.1-0.8-1.8-2.1-1.8h-1.7v6H38V15h0.2l1.6,2.4h1.4l-1.9-2.5C40.2,14.7,40.7,14.1,40.7,13.2z
			 M38.4,14.1H38v-1.8h0.4c0.7,0,1.1,0.3,1.1,0.9C39.5,13.8,39.1,14.1,38.4,14.1z"/>
		<g id="MarkingBase_1_">
			<circle class="st1" cx="23.7" cy="14.4" r="3.2"/>
		</g>
		<g id="Registered_1_" class="st2">
			<path d="M41.4,11.6c0-0.1-0.1-0.2-0.2-0.2h-0.2V12h0.1v-0.2l0.1,0.2h0.2l-0.2-0.2C41.4,11.7,41.4,11.7,41.4,11.6z M41.2,11.7
				L41.2,11.7l0-0.1h0C41.3,11.5,41.3,11.6,41.2,11.7C41.3,11.7,41.3,11.7,41.2,11.7z"/>
			<path d="M41.3,11.3c-0.3,0-0.5,0.2-0.5,0.5c0,0.3,0.2,0.5,0.5,0.5c0.2,0,0.5-0.2,0.5-0.5C41.7,11.5,41.5,11.3,41.3,11.3z
				 M41.3,12.1c-0.2,0-0.4-0.2-0.4-0.4c0-0.2,0.2-0.4,0.4-0.4c0.2,0,0.4,0.2,0.4,0.4C41.6,11.9,41.5,12.1,41.3,12.1z"/>
		</g>
	</g>
</g>
<g id="Слой_2">
	<g>
		<g>
			<path class="st3" d="M42,0H3.6C1.6,0,0,1.6,0,3.6v21.6c0,2,1.7,3.6,3.6,3.6H42c2,0,3.6-1.6,3.6-3.6V3.6C45.6,1.6,43.9,0,42,0z
				 M44.4,25.2c0,1.3-1.1,2.4-2.4,2.4H3.6c-1.3,0-2.4-1.1-2.4-2.4V3.6c0-1.3,1.1-2.4,2.4-2.4H42c1.3,0,2.4,1.1,2.4,2.4V25.2z"/>
		</g>
		<path class="st4" d="M42,1.2H3.6c-1.3,0-2.4,1.1-2.4,2.4v21.6c0,1.3,1.1,2.4,2.4,2.4H42c1.3,0,2.4-1.1,2.4-2.4V3.6
			C44.4,2.3,43.3,1.2,42,1.2z M42.6,19.3h-6.4l-1.4-1.6l-1.5,1.6H11l-0.7-1.6H8.8l-0.7,1.6H3L7.3,9.1h4.5l0.4,0h5.3l1.2,2.6l1.1-2.6
			h13.7l1.4,1.6l1.5-1.6h6.3L38,14.2L42.6,19.3z"/>
	</g>
</g>
</svg>
