<svg 
 xmlns="http://www.w3.org/2000/svg"
 xmlns:xlink="http://www.w3.org/1999/xlink"
 width="23px" height="13px">
<path fill-rule="evenodd"  opacity="0.702" fill="rgb(100, 63, 237)"
 d="M22.531,5.872 C22.330,5.652 17.555,0.490 11.451,0.490 C5.346,0.490 0.570,5.652 0.370,5.873 C-0.022,6.304 -0.022,6.931 0.371,7.362 C0.570,7.582 5.346,12.744 11.451,12.744 C17.555,12.744 22.330,7.582 22.531,7.362 C22.924,6.931 22.924,6.304 22.531,5.872 ZM13.316,3.591 C13.726,3.381 14.298,3.621 14.594,4.127 C14.889,4.633 14.796,5.211 14.386,5.421 C13.976,5.631 13.402,5.390 13.107,4.884 C12.811,4.380 12.905,3.799 13.316,3.591 ZM11.451,10.874 C7.187,10.874 3.598,7.815 2.355,6.616 C3.195,5.807 5.104,4.151 7.569,3.159 C7.087,3.844 6.806,4.660 6.806,5.538 C6.806,7.934 8.885,9.876 11.451,9.876 C14.016,9.876 16.095,7.934 16.095,5.538 C16.095,4.660 15.813,3.844 15.333,3.159 C17.798,4.151 19.707,5.807 20.545,6.616 C19.304,7.815 15.715,10.874 11.451,10.874 Z"/>
</svg>