<?xml version="1.0" encoding="utf-8"?>
<!-- Generator: Adobe Illustrator 22.0.1, SVG Export Plug-In . SVG Version: 6.00 Build 0)  -->
<svg version="1.0" id="Слой_1" xmlns="http://www.w3.org/2000/svg" xmlns:xlink="http://www.w3.org/1999/xlink" x="0px" y="0px"
	 width="40px" height="40px" viewBox="0 0 40 40" style="enable-background:new 0 0 40 40;" xml:space="preserve">
<style type="text/css">
	.st0{fill:#E2A080;}
	.st1{fill:#292929;}
</style>
<path class="st0" d="M39.2,14.4V20h-5.6v-5.6H39.2z"/>
<path class="st0" d="M6.8,35.1c0-1-0.8-1.9-1.9-1.9H0.8l6,6V35.1z"/>
<path class="st0" d="M23.9,2.3h3.8v3.8h-3.8V2.3z"/>
<path class="st0" d="M28.3,14.4v5h-5v-5H28.3z"/>
<path class="st0" d="M32.3,0.8h6.9v6.9h-6.9V0.8z"/>
<path class="st0" d="M19.5,7.7v5.6h-5.6V7.7H19.5z"/>
<path class="st0" d="M12,17.5h6.3v6.3H12V17.5z"/>
<path class="st1" d="M39.2,0h-6.9c-0.4,0-0.8,0.3-0.8,0.8v6.9c0,0.4,0.3,0.8,0.8,0.8h6.9c0.4,0,0.8-0.3,0.8-0.8V0.8
	C40,0.3,39.7,0,39.2,0z M38.4,6.9h-5.3V1.6h5.3V6.9z"/>
<path class="st1" d="M23.9,6.9h3.8c0.4,0,0.8-0.3,0.8-0.8V2.3c0-0.4-0.3-0.8-0.8-0.8h-3.8c-0.4,0-0.8,0.3-0.8,0.8v3.8
	C23.1,6.5,23.5,6.9,23.9,6.9z M24.7,3.1h2.2v2.2h-2.2V3.1z"/>
<path class="st1" d="M12,16.7c-0.4,0-0.8,0.3-0.8,0.8v6.3c0,0.4,0.4,0.8,0.8,0.8h6.3c0.4,0,0.8-0.3,0.8-0.8v-6.3
	c0-0.4-0.3-0.8-0.8-0.8H12z M17.5,23h-4.7v-4.7h4.7V23z"/>
<path class="st1" d="M39.2,13.6h-5.6c-0.4,0-0.8,0.3-0.8,0.8V20c0,0.4,0.3,0.8,0.8,0.8h5.6c0.4,0,0.8-0.3,0.8-0.8v-5.6
	C40,13.9,39.7,13.6,39.2,13.6z M38.4,19.2h-4.1v-4.1h4.1V19.2z"/>
<path class="st1" d="M28.3,13.6h-5c-0.4,0-0.8,0.3-0.8,0.8v5c0,0.4,0.3,0.8,0.8,0.8h5c0.4,0,0.8-0.3,0.8-0.8v-5
	C29.1,13.9,28.7,13.6,28.3,13.6z M27.5,18.6h-3.4v-3.4h3.4V18.6z"/>
<path class="st1" d="M25.8,25.6c-0.4,0-0.8,0.3-0.8,0.8v11.3c0,0.4-0.4,0.8-0.8,0.8H7.6v-3.4c0-1.5-1.2-2.7-2.7-2.7H1.6V10.3
	c0-0.4,0.4-0.8,0.8-0.8h10.8v3.8c0,0.4,0.4,0.8,0.8,0.8h5.6c0.4,0,0.8-0.3,0.8-0.8V7.7c0-0.4-0.3-0.8-0.8-0.8h-5.6
	c-0.4,0-0.8,0.3-0.8,0.8V8H2.3C1.1,8,0,9,0,10.3v22.9c0,0.2,0.1,0.4,0.2,0.6l6,6C6.4,39.9,6.6,40,6.8,40h17.4c1.3,0,2.3-1.1,2.3-2.3
	V26.4C26.6,26,26.2,25.6,25.8,25.6z M14.7,8.4h4.1v4.1h-4.1V8.4z M6,35.1v2.3L2.7,34h2.3C5.6,34,6,34.4,6,35.1z"/>
</svg>
