<?xml version="1.0" encoding="utf-8"?>
<!-- Generator: Adobe Illustrator 22.0.1, SVG Export Plug-In . SVG Version: 6.00 Build 0)  -->
<svg version="1.0" xmlns="http://www.w3.org/2000/svg" xmlns:xlink="http://www.w3.org/1999/xlink" x="0px" y="0px" width="502.2px"
	 height="410.3px" viewBox="0 0 502.2 410.3" style="enable-background:new 0 0 502.2 410.3;" xml:space="preserve">
<style type="text/css">
	.st0{fill:#EDA58A;}
	.st1{fill:#9898EA;}
	.st2{fill:#FFFFFF;}
	.st3{fill:#48484B;}
	.st4{fill:#272728;}
</style>
<g id="Слой_14">
	<path class="st0" d="M171,408.7c182.2,12.2,259.4-45.2,308.6-138.9C550.3,135,439.3,13.4,368.1,56.8
		c-40.2,24.6-23.5,34.4-69.9,61.6c-53.6,31.3-76.9-27.2-119.9,5.8c-22.8,17.5,7.6,84-72,84.1C-75.2,208.4-4.7,396.9,171,408.7z"/>
</g>
<g id="Слой_13">
	<path class="st1" d="M127.1,16.6c0,0-28.1,58.1,1.9,83.8c30,25.7,54.7,6.3,56.7,4.4c2-1.9,16.3-6.2,33.7-50.7c0,0-20.6-1.8-49-13.9
		C141.9,28,127.1,16.6,127.1,16.6z"/>
	<path class="st1" d="M362.8,297.3c0,0,8.9-11,12.6-20.6c3.7-9.6,8.1-29.3,8.1-29.3l42.7,19c0,0,4.8,17.1-14.4,43.6
		c-19.2,26.5-20.1,24.8-20.1,24.8l-20-8.9L362.8,297.3z"/>
	<g>
		<path class="st2" d="M129,25.4l8.6,4.8c0,0-1.3,2.5-2.8,6.7l-8.4-4.4C127.1,30.1,128,27.8,129,25.4z"/>
		<path class="st2" d="M130.7,96.4c0,0-15.9-20.7-6-58.3l8.5,3.1C129,54.1,122.1,76,130.7,96.4z"/>
	</g>
	<path class="st2" d="M248.9,162l-0.4,18c0,0,0.5,21.1,16.2,23.1l-0.1,8.6c0,0,8.1,4.4,19.4,1.3c0,0-4.6-9.8-0.3-18.6
		c4.2-8.9,8.5-13.4,8.5-13.4s10.2,5.4,11.7-7.1c1.5-12.4-10.6-9.9-10.6-9.9l-2.6,2.3c0,0-20.8,2-30.7-23.6
		C260.1,142.8,251.3,143.4,248.9,162z"/>
	<path class="st2" d="M369.4,358l0.1,10.5c0,0,0.2,5.6-3.5,6.6c-3.7,1-9,2.4-8.5,4.9c1,4.5,7.9,3.1,10.2,2c2.3-1.1,6.2-4,6.2-4
		s1.4,11.1,3.7,14.4c2.3,3.3,6.1,1.6,7.4-0.3c0,0,2.3,1.9,5.2,1.5c2.8-0.4,4.2-3.2,4.2-3.2s1.6,2.3,3.8,2c2.2-0.3,3.5-3.8,3.5-3.8
		s-0.1-13.5-1-17.8c-1-4.3-1.8-3.4-1.8-3.4l-5.7-0.8l-2.9-10.5L369.4,358z"/>
	<path class="st3" d="M248.9,317.1l-82.1,28.8c0,0-0.4,20.6,6,32.2l155.8-0.3c0,0,0.8-33.6-16-53.9c0,0-24,1.4-36.3,0.2
		C264.1,322.9,253.6,321.2,248.9,317.1z"/>
	<g id="Слой_15">
		<path class="st2" d="M269.8,133.2c0,0-12.5-2.2-18,9.2c-4.7,9.8-3.6,17.3-3.6,17.3s3.6-17.3,11.8-16.9c2.1,5.1,0.5,4.9,4.6,9.2
			c4.1,4.3,11.3,15,24.2,14.1s2.1,16,2.1,16s-14.8,17.6-7.1,31.6c5.1,9.2,15.9,9.2,15.9,9.2l5.5-52.9L269.8,133.2z"/>
		<path class="st2" d="M252.8,189.4c0,0-13.3,10-8.6,22.5c4.7,12.5,19.5,4.5,19.5,4.5L252.8,189.4z"/>
	</g>
	<path class="st3" d="M290.7,166.3c0,0-18.4-1.3-27.1-25.1c0,0-11.5-0.1-14.8,19.6c0,0,0.1-10.5,10-22.4c1-1.2,3.1-3.4,4.6-4
		c6.6-2.8,13.2-2.5,27.6-0.6c12.3,1.6,22,9,23.5,21.2l-7.5,42.6c0,0-0.1,1.9,6.9,6.7c6.9,4.9,11.5,11.1,5.1,20.9l-8.1-4.4
		c0,0-15.5,8.3-22.8-9.2c0,0-3.9-7.3,0.2-17.2c4.1-9.9,8-12.4,8-12.4s2.8,0.5,5.1-1.8c1.6-1.6,2.7-3.6,2.6-8.6
		c-0.1-6.2-3.7-8.1-6.4-8.2C295,163.4,293,164,290.7,166.3z"/>
	<path class="st3" d="M252.5,194.6c0,0,1.1,6.1,12.2,8.6l-0.1,8.6c0,0-5,2.9-6.4,6.5c0,0-5.8,0.4-8.8-5
		C246.8,208.8,247.1,199.8,252.5,194.6z"/>
	<path class="st1" d="M141.8,149.5c-0.4,0.6,2.3,7.1,2.3,7.1l5.5,2.7l-2.7-9.4h-5L141.8,149.5z"/>
	<path class="st1" d="M125.1,175c0,0,21.9,8.3,30,4.8l1.8-4c0,0,12.4,22.8,30,30.5c17.6,7.7,26,12.3,58.4,7.9c0,0,5.3,5.9,12.7,4.8
		c0,0,4.8-8.7,6.9-6.3c0,0,10,2.7,17.8,0.2c3.1,1.4,9.9,11.6,10.4,8.8c0,0,9,2.9,17.9-0.7c0,0,22.8,10.5,40.2,31
		c17.4,20.5,30.2,48.2,34.1,64.4c4,16.3,7.5,39.4,7.5,39.4l-24.2,2.4c0,0-13-35.4-26.9-58.2c-14.5-23.6-27.7-29.7-27.7-29.7
		s-3.2,39.9-1.3,53c0,0-18.6,2.9-38.1,0.7c-19.5-2.2-25.6-6.9-25.6-6.9s-9.9-17.9-13.2-30.8c-3.4-12.9-4.2-24.6-4.2-24.6
		s-29.1-2.3-54.1-17c-25-14.6-41.2-36.9-46.3-51.9C125.9,177.9,125.1,175,125.1,175z"/>
	<path class="st2" d="M147.7,257.3c0,0-31.2,12.4-46,12.3c0,0-0.7,32.3-7.6,46.3c-4,8.1-18.5,20.6-18.5,20.6s0.3,0,0.9,0
		c4-0.1,21.7-1.3,42.3-16.3c23.5-17.1,26.8-25.2,26.8-25.2S153,277.1,147.7,257.3z"/>
	<path class="st2" d="M348.1,99.5l36-38.2c0,0,4.2,22.3,19.3,36.9c15.1,14.6,29.9,22.5,29.9,22.5l-32.1,34c0,0-19.4-3.1-35.6-27.1
		C349.4,103.6,348.1,99.5,348.1,99.5z"/>
	<g id="XMLID_9_">
		<g>
			<path class="st2" d="M199.9,91.3c7.4-2.7,16-6,22.9-11.1c2-1.5,3.5-2.8,4.6-4.1c1.7-2,2.5-4.2,2.4-6.1c-0.1-1.7-0.5-2.6-2.1-3.2
				c0,0-0.6-0.3-0.6-0.3c-2.5-0.9-5.6-0.8-8.9,0.1c-1.2,0.3-4.4,1-4.4,1l4.3-10.3c3.8-0.8,7.1-1.2,11,0.3c0.1,0,1.1,0.2,1.2,0.2
				c5,1.9,8.3,6.4,8.6,11.7c0.2,4.3-1.5,8.9-4.8,12.8c-1.6,1.8-3.1,3.2-5.7,5.1c-10.1,7.4-23.4,11.8-31.8,14.2
				c-2.1,0.6-6.6,1.6-9.1,2.1L199.9,91.3z"/>
		</g>
	</g>
	<g id="XMLID_8_">
		<g>
			<path class="st2" d="M115.7,75c-1.5-2.1-4.3-6.3-5.4-8.2c-4.5-7.5-10.3-19.5-12.6-31.8c-0.6-3.1-0.8-5.2-0.7-7.6
				c0.2-5.1,2.1-9.6,5.2-12.6c3.8-3.6,9.3-4.6,14.3-2.6c0.1,0,0.9,0.6,1,0.7c3.8,1.6,6,4.1,8.2,7.3l-3.9,10.4c0,0-1.9-2.6-2.5-3.7
				c-1.7-2.9-3.9-5.1-6.4-6.2c0,0-0.6-0.2-0.6-0.2c-1.7-0.7-2.5-0.3-3.8,0.9c-1.4,1.3-2.3,3.4-2.4,6.1c-0.1,1.7,0.1,3.7,0.6,6.1
				c1.6,8.4,5.2,16.1,8.8,23.1L115.7,75z"/>
		</g>
	</g>
	<path class="st2" d="M128.6,378.1c0,0,0.3-11.8,12.1-19.7c11.8-7.9,26.1-12.5,26.1-12.5s-0.7,20,6.7,32.2H128.6z"/>
	<path class="st2" d="M117.6,137.8c0,0,9.7-12.7,10.9-12.9c1.2-0.2,11.2,2.5,12.6,2.8c1.4,0.3,5.2-1.2,4.5-5.4
		c1.7-0.9,3.7-5.1,3.6-6.1c1.8-0.4,2.7-3.2,3.4-4.8c0,0-1.1-1.8-4.3-3.7c-2.1-1.3-9.8-4.2-9.8-4.2s12.4,0.4,12.2-5.7
		c0,0-9.8-3.2-11.9-3.2c-2.1,0-8.1,3.2-14,12.5c-6,9.3-8.9,13-9.1,19.7C115.6,133.6,117.6,137.8,117.6,137.8z"/>
	<path class="st2" d="M144.8,130.6c0,0-3.8,9.3-3.3,14.3c0.5,5,0.5,5,0.5,5h3.4L144.8,130.6z"/>
	<path class="st4" d="M219.3,41.7c-1,2.4-19.9-2.8-43.1-12.6C153,19.2,134.7,9.9,135.7,7.5c1-2.4,21,3,44.2,12.8
		C203.1,30.1,220.3,39.2,219.3,41.7z"/>
	<path class="st2" d="M127.1,3c0,0-1.3,10,49.2,30.4C226.7,53.9,229,44,229,44l-3.3,8.1c0,0-4.4,9.3-55.3-11.9
		c-48.1-20-46.9-29.1-46.9-29.1L127.1,3z"/>
	<path class="st4" d="M91.4,145.8l-4,9c0,0,10.1,10,31.7,17.9c21.6,7.9,29.2,9.4,36,7.1l3.9-9.1c0,0-13.2,5.6-44-10.6
		C90.7,147.4,91.4,145.8,91.4,145.8z"/>
	<path class="st2" d="M134.8,125.9c0,0-11.3,28.8-25.5,28c0,0,15.8,8.2,26.3,10.8c10.5,2.5,14.3,3.4,17.6,1.7
		c0,0-12.3-8.1-11.7-20.5c0.9-18.4,12.1-32.5,12.1-32.5l-2.3-0.6c0,0-6.7,13.5-10,13.9C137.9,127.1,134.8,125.9,134.8,125.9z"/>
	<path class="st4" d="M276.3,183c0,0-1.4-2.9-3.4-1.8c-2,1.1-1.6,4.6-3.9,4.8c-2.4,0.1-6.4-1.7-7.3,0c-1,1.7,1,6.5,8.3,6.4
		c0,0-1.4-3.7,0.4-5.7C272,184.6,276.3,183,276.3,183z"/>
	<g>
		<g>
			<path class="st4" d="M273.6,100.5c-0.2,0-0.3-0.1-0.5-0.2c-0.2-0.3-0.2-0.7,0-0.9l6.8-6.8c0.2-0.2,0.7-0.2,0.9,0
				c0.2,0.2,0.2,0.7,0,0.9l-6.8,6.8C273.9,100.4,273.7,100.5,273.6,100.5z"/>
		</g>
		<g>
			<path class="st4" d="M280.3,100.5c-0.2,0-0.3-0.1-0.5-0.2l-6.8-6.8c-0.2-0.2-0.2-0.7,0-0.9c0.2-0.2,0.7-0.2,0.9,0l6.8,6.8
				c0.2,0.3,0.2,0.7,0,0.9C280.7,100.4,280.5,100.5,280.3,100.5z"/>
		</g>
		<g>
			<path class="st4" d="M267.4,87.6c-1.4,0-2.6-1.2-2.6-2.6c0-1.4,1.2-2.6,2.6-2.6c1.4,0,2.6,1.2,2.6,2.6
				C270,86.5,268.8,87.6,267.4,87.6z M267.4,83.7c-0.7,0-1.3,0.6-1.3,1.3c0,0.7,0.6,1.3,1.3,1.3c0.7,0,1.3-0.6,1.3-1.3
				C268.7,84.3,268.1,83.7,267.4,83.7z"/>
		</g>
	</g>
	<g>
		<path class="st4" d="M363.6,211.3c-1.4,0-2.6-1.2-2.6-2.6c0-1.4,1.2-2.6,2.6-2.6c1.4,0,2.6,1.2,2.6,2.6
			C366.2,210.2,365,211.3,363.6,211.3z M363.6,207.5c-0.7,0-1.3,0.6-1.3,1.3c0,0.7,0.6,1.3,1.3,1.3c0.7,0,1.3-0.6,1.3-1.3
			C364.9,208.1,364.3,207.5,363.6,207.5z"/>
	</g>
	<g>
		<g>
			<path class="st4" d="M67.8,334c-0.3,0-0.5-0.2-0.6-0.4c-0.1-0.3,0-0.6,0.3-0.7c0,0,0.8-0.6,2.2-1.6c5-3.9,17-14.7,20.2-29.4
				c4.1-18.6,2.9-34.4,2.9-34.6c0-0.3,0.2-0.6,0.5-0.7c0.3,0,30.6-4.9,46.4-13c0.2-0.1,0.4-0.1,0.6,0c0.2,0.1,0.3,0.2,0.3,0.4
				c0.2,1,5.2,24.7-2.3,38.1c-1,1.9-2.2,3.6-3.4,5.1c-6.9,8.8-16,11.8-28.1,9.3C106.1,310.8,100.5,332.7,67.8,334
				C67.8,334,67.8,334,67.8,334z M94.1,267.8c0.2,3,0.8,17.6-3,34.4c-3.3,15.1-15.6,26.1-20.7,30.1c-0.2,0.1-0.3,0.3-0.5,0.4
				c32.9-2.4,35.8-26.7,35.8-26.9c0-0.2,0.1-0.3,0.3-0.5c0.1-0.1,0.3-0.1,0.5-0.1c11.9,2.7,20.8-0.1,27.4-8.7c1.2-1.5,2.3-3.2,3.3-5
				c6.4-11.7,3.1-32.1,2.3-36.4C124.6,262.4,98.3,267.1,94.1,267.8z"/>
		</g>
		<g>
			<path class="st4" d="M69.4,334.1c-1.1,0-1.7-0.1-1.7-0.1c-0.3,0-0.6-0.3-0.5-0.7c0-0.3,0.3-0.6,0.6-0.6c34.9-1.5,37.9-26.8,38-27
				c0-0.2,0.1-0.3,0.3-0.5c0.1-0.1,0.3-0.1,0.5-0.1c11.9,2.7,20.8-0.1,27.4-8.7c0.2-0.3,0.6-0.3,0.9-0.1c0.3,0.2,0.3,0.6,0.1,0.9
				c-6.5,9-16.2,15.4-22,19.3C89,332.4,74.5,334.1,69.4,334.1z M106.9,306.6c-0.5,2.6-2.8,11.9-12.2,19c5.1-2.5,11-5.7,17.5-10.1
				c3.8-2.5,9.4-6.2,14.6-11C121.3,307.5,114.7,308.3,106.9,306.6z"/>
		</g>
	</g>
	<g>
		<path class="st4" d="M408,335.4c-0.1,0-0.2,0-0.3-0.1l-20-8.9c-0.3-0.1-0.5-0.5-0.3-0.8c0.1-0.3,0.5-0.5,0.8-0.3l19.6,8.7
			c3.8-4,40.5-43.6,34.1-67.2l-41.6-18.5c-0.6,4.9-4.3,29.7-20.7,49.4c-0.2,0.3-0.6,0.3-0.9,0.1c-0.3-0.2-0.3-0.6-0.1-0.9
			c17.9-21.6,20.5-49.3,20.5-49.6c0-0.2,0.1-0.4,0.3-0.5c0.2-0.1,0.4-0.1,0.6,0l42.7,19c0.2,0.1,0.3,0.2,0.4,0.4
			c7.3,25.4-32.9,67.3-34.6,69.1C408.3,335.4,408.1,335.4,408,335.4z"/>
	</g>
	<g>
		<path class="st4" d="M378.8,149.9c-26.1-4.8-45.7-59.5-46.5-61.8c-0.1-0.3,0-0.5,0.2-0.7L372.8,54c0.2-0.2,0.4-0.2,0.7-0.1
			c0.2,0.1,0.4,0.3,0.4,0.5c2.4,39.6,41,64.3,41.4,64.5c0.2,0.1,0.3,0.3,0.3,0.5c0,0.2-0.1,0.4-0.2,0.5l-36,29.8
			C379.1,149.9,379,149.9,378.8,149.9z M333.6,88.1c1.9,5.1,21,55.7,45,60.5l35.1-29.1c-5.3-3.6-38.2-27.3-41.1-63.8L333.6,88.1z"/>
	</g>
	<g>
		<path class="st4" d="M83.9,230.8c-0.1,0-0.3,0-0.4-0.1c-3.5-2.7-8.1-7.1-9.7-12.2c-1-3-0.5-5.9,1.3-8c-0.8-3.2-0.7-7.4,0.3-12.5
			c0.1-0.3,0.4-0.6,0.7-0.5c0.3,0.1,0.6,0.4,0.5,0.7c-0.7,3.6-1.1,7.7-0.5,11.2c0.5-0.4,1-0.7,1.6-1c1.3-0.7,3.3-1.4,5.4-0.8
			c1.9,0.5,3.4,2.2,4,4.3c0.5,1.7,0.2,4.1-1.4,5.3c-1.2,0.9-3.1,1-4.9,0.3c-2.5-1-4.2-2.8-5.2-5.5c-1.1,1.7-1.3,3.8-0.6,6.1
			c1.6,4.8,5.9,9,9.3,11.6c0.3,0.2,0.3,0.6,0.1,0.9C84.3,230.8,84.1,230.8,83.9,230.8z M76.6,210.8c0.8,2.5,2.2,4.5,4.7,5.5
			c1.4,0.6,2.8,0.5,3.7-0.2c1.2-0.9,1.3-2.7,1-3.9c-0.5-1.6-1.7-3-3.1-3.4c-1.3-0.4-2.8-0.1-4.4,0.7
			C77.7,209.9,77.1,210.3,76.6,210.8z"/>
	</g>
	<g>
		<path class="st4" d="M417,204.6c-0.2,0-0.4-0.1-0.5-0.2c-0.9-1.1-2.1-2.5-3.5-3.9c-1.9,0.9-4,1.5-5.9,1.7
			c-2.5,0.3-4.4-0.2-5.7-1.4c-1.4-1.3-1.8-3.6-0.7-5c0.6-0.9,1.7-1.4,3-1.5c3.6-0.3,7,2.1,9.6,4.6c3.8-2,7.1-5.5,8.1-9.7
			c0.4-2,0.3-4.1-0.4-5.9c-0.4,0.3-0.8,0.6-1.3,0.9c-1.1,0.7-2.5,1.5-4.2,1.5c-2.1,0-4.1-1.4-4.8-3.5c-0.6-1.7,0-3.4,1.6-4.5
			c2.1-1.5,5.2-0.6,7,1c0.8,0.7,1.5,1.6,2.1,2.5c3.2-2.7,5.7-6.1,7.9-9c0.2-0.3,0.6-0.3,0.9-0.1c0.3,0.2,0.3,0.6,0.1,0.9
			c-2.2,3-4.9,6.6-8.3,9.4c0.9,2.1,1.2,4.6,0.6,7c-1,4.7-4.4,8.3-8.3,10.4c1.3,1.4,2.4,2.7,3.3,3.7c0.2,0.3,0.2,0.7-0.1,0.9
			C417.3,204.6,417.2,204.6,417,204.6z M404.2,195.5c-0.1,0-0.3,0-0.5,0c-0.9,0.1-1.6,0.4-2,1c-0.7,1-0.3,2.5,0.6,3.3
			c1,0.9,2.6,1.3,4.7,1.1c1.6-0.2,3.4-0.6,5-1.4C409.8,197.4,407,195.5,404.2,195.5z M414.9,178.2c-0.7,0-1.3,0.2-1.9,0.6
			c-1.5,1-1.3,2.3-1.1,3c0.5,1.5,2,2.6,3.5,2.6c1.3,0,2.6-0.7,3.5-1.3c0.5-0.3,1-0.6,1.4-1c-0.5-0.9-1.1-1.7-1.9-2.4
			C417.5,178.8,416.1,178.2,414.9,178.2z"/>
	</g>
	<g>
		<path class="st4" d="M318,37.8c-0.2,0-0.4,0-0.6,0c-1.7-0.2-2.8-1.1-3.3-2.5c-0.3-0.9-0.1-1.8,0-2.4c0.5-2.8,2.3-5.4,4.7-7.3
			c-2.4-3.4-5.8-5.2-9.7-4.8c-0.4,0-0.7-0.2-0.7-0.6c0-0.4,0.2-0.7,0.6-0.7c4.3-0.4,8.2,1.6,10.8,5.4c2.3-1.5,5.1-2.4,7.9-2.4
			c0.3,0,0.7,0.3,0.7,0.6c0,0.4-0.3,0.6-0.6,0.6c-2.5,0-5,0.8-7.2,2.3c0.9,1.5,1.6,3.2,2.1,5.1c0.3,1.2,0.6,3-0.2,4.5
			C321.6,36.8,319.8,37.8,318,37.8z M319.5,26.6c-2,1.6-3.6,3.8-4.1,6.4c-0.1,0.7-0.1,1.3,0,1.8c0.4,1.3,1.5,1.6,2.2,1.6
			c1.5,0.1,3.1-0.6,3.7-1.7c0.5-0.8,0.5-2,0.1-3.5C320.9,29.5,320.3,28,319.5,26.6z"/>
	</g>
	<g>
		<g>
			<path class="st4" d="M268.1,193c-4.1,0-7.5-2.9-7.6-5.4c-0.1-0.9,0.2-1.7,0.8-2.3c1-1.1,2.9-1.3,4.6-0.5c1.2,0.5,1.8,0.7,2.2,0.7
				c0.2,0,0.3,0,0.6-0.1c0.5-0.2,0.8-0.3,1.8-2.3c0.8-1.5,2.2-2.5,3.5-2.5c0.9,0,1.8,0.5,2.4,1.3c0.7,1,0.8,2.7,0.2,4.6
				c-0.9,2.8-2.9,5.1-5.4,6C270.2,192.8,269.1,193,268.1,193z M263.8,185.6c-0.7,0-1.3,0.2-1.6,0.6c-0.3,0.3-0.5,0.8-0.4,1.4
				c0.1,1.4,2.6,4.2,6.4,4.2c0.9,0,1.8-0.2,2.7-0.5c2.2-0.8,3.9-2.7,4.7-5.1c0.4-1.4,0.4-2.8,0-3.5c-1-1.4-2.9-0.7-3.8,1
				c-1.1,2.2-1.6,2.5-2.5,2.9c-0.8,0.3-1.5,0.4-3.8-0.6C264.8,185.7,264.3,185.6,263.8,185.6z"/>
		</g>
	</g>
	<g>
		<path class="st4" d="M296.3,182.9c-0.1,0-0.2,0-0.3,0c-1.9-0.1-3.6-0.9-5-2.3c-0.2-0.3-0.2-0.7,0-0.9c0.3-0.2,0.7-0.2,0.9,0
			c1.2,1.2,2.6,1.9,4.1,1.9c1.9,0.1,3.6-0.7,5-2.3c1.4-1.6,2.2-3.8,2.3-6.1c0.2-4.8-2.8-8.8-6.6-9c-2.8-0.1-4.8,1.2-6.1,3.9
			c-0.1,0.3-0.5,0.5-0.8,0.3c-0.3-0.2-0.5-0.5-0.3-0.8c1.5-3.1,4.1-4.8,7.3-4.6c4.5,0.2,8,4.8,7.8,10.3c-0.1,2.6-1,5.1-2.6,6.9
			C300.4,181.9,298.4,182.9,296.3,182.9z"/>
	</g>
	<g>
		<path class="st4" d="M297.8,177c-0.1,0-0.3,0-0.4-0.1l-4.4-3.1c-0.2-0.1-0.3-0.3-0.3-0.5c0-0.2,0.1-0.4,0.2-0.5l4.6-4.7
			c0.2-0.3,0.7-0.3,0.9,0c0.2,0.2,0.3,0.7,0,0.9l-4.1,4.1l3.8,2.7c0.3,0.2,0.4,0.6,0.2,0.9C298.2,176.9,298,177,297.8,177z"/>
	</g>
	<g>
		<path class="st4" d="M252.4,160c-0.2,0-0.3-0.1-0.4-0.2c-0.3-0.2-0.3-0.6,0-0.9c0.1-0.1,3-3.2,8.3-1.5c0.3,0.1,0.5,0.5,0.4,0.8
			c-0.1,0.3-0.5,0.5-0.8,0.4c-4.6-1.4-6.9,1.1-6.9,1.2C252.8,159.9,252.6,160,252.4,160z"/>
	</g>
	<g>
		<path class="st4" d="M260,182.9c-0.2,0-0.3-0.1-0.4-0.2c-1.5-1.4-3.4-4.5-3.5-4.6c-0.1-0.2-0.1-0.4,0-0.6c0.1-0.2,0.3-0.3,0.5-0.4
			l4.3-0.8c0.5-1.4,2.1-7,2.1-15c0-0.4,0.3-0.6,0.6-0.6c0.4,0,0.6,0.3,0.6,0.6c0,9.4-2.2,15.5-2.3,15.8c-0.1,0.2-0.3,0.4-0.5,0.4
			l-3.7,0.7c0.7,1,1.8,2.7,2.8,3.6c0.3,0.2,0.3,0.6,0,0.9C260.3,182.8,260.2,182.9,260,182.9z"/>
	</g>
	<g>
		<path class="st4" d="M268.7,204c-6,0-10.8-1.8-14.2-5.3c-8-8.2-7.1-24.2-6.5-34.8c0.1-2.5,0.3-4.6,0.3-6.3c0-0.4,0.3-0.6,0.6-0.6
			s0.6,0.3,0.6,0.6c0,1.7-0.1,3.9-0.3,6.3c-0.6,10.4-1.5,26,6.1,33.8c3.4,3.5,8.3,5.1,14.5,4.9c0.3-0.1,0.6,0.3,0.7,0.6
			c0,0.4-0.3,0.6-0.6,0.7C269.5,204,269.1,204,268.7,204z"/>
	</g>
	<g>
		<path class="st4" d="M290.7,167c-22.2-1.6-29.8-20.3-31-23.5c-6.7,0.7-10.2,16.3-10.3,16.5c-0.1,0.3-0.4,0.6-0.8,0.5
			c-0.3-0.1-0.6-0.4-0.5-0.8c0.2-0.7,3.9-17.5,12-17.5c0.3,0,0.5,0.2,0.6,0.5c0.1,0.2,6.7,21.4,30,23.1c0.4,0,0.6,0.3,0.6,0.7
			C291.4,166.7,291.1,167,290.7,167z"/>
	</g>
	<g>
		<path class="st4" d="M275.5,214.9c-8.7,0-11.3-2.6-11.4-2.7c-0.1-0.1-0.2-0.3-0.2-0.4v-8.4c0-0.4,0.3-0.6,0.6-0.6
			c0.4,0,0.6,0.3,0.6,0.6v8.1c0.7,0.5,3.4,2.2,10.3,2.2c3.1,0,5.7-0.4,8.2-1.2c0.3-0.1,0.7,0.1,0.8,0.4c0.1,0.3-0.1,0.7-0.4,0.8
			C281.4,214.5,278.6,214.9,275.5,214.9z"/>
	</g>
	<g>
		<path class="st4" d="M225.9,216.6c-37.9,0-58.6-21.1-69.5-40.4c-0.2-0.3-0.1-0.7,0.2-0.9c0.3-0.2,0.7-0.1,0.9,0.2
			c12.6,22.1,38.1,46.6,88.1,38c0.4-0.1,0.7,0.2,0.7,0.5c0.1,0.3-0.2,0.7-0.5,0.7C238.7,216,232.1,216.6,225.9,216.6z"/>
	</g>
	<g>
		<path class="st4" d="M149.7,160.3c-0.3,0-0.5-0.2-0.6-0.4c-1.6-4.8-2.3-8-2.5-9.3l-4.7-0.1c-0.4,0-0.6-0.3-0.6-0.6
			c0-0.4,0.3-0.6,0.6-0.6l5.2,0.1c0.3,0,0.6,0.2,0.6,0.5c0,0,0.6,3.6,2.6,9.6c0.1,0.3-0.1,0.7-0.4,0.8
			C149.9,160.3,149.8,160.3,149.7,160.3z"/>
	</g>
	<g>
		<path class="st4" d="M231.4,262.3c-26.4-3-89.6-17.5-106.9-87.2c-0.1-0.3,0.1-0.7,0.5-0.8c0.4-0.1,0.7,0.1,0.8,0.5
			c17.1,68.9,79.7,83.3,105.7,86.2c0.4,0,0.6,0.4,0.6,0.7C232,262.1,231.8,262.3,231.4,262.3z"/>
	</g>
	<g>
		<path class="st4" d="M249.4,317.7c-0.2,0-0.4-0.1-0.5-0.3c-27.6-46.8-15.3-75.2-15.2-75.5c0.1-0.3,0.5-0.5,0.8-0.3
			c0.3,0.1,0.5,0.5,0.3,0.8c-0.1,0.3-12.1,28.1,15.1,74.3c0.2,0.3,0.1,0.7-0.2,0.9C249.7,317.7,249.6,317.7,249.4,317.7z"/>
	</g>
	<g>
		<path class="st4" d="M257.1,219.7c-3,0-12.7-0.8-14.1-10.7c-1.5-10.2,6.6-17.6,7-17.9c0.3-0.2,0.7-0.2,0.9,0
			c0.2,0.3,0.2,0.7,0,0.9c-0.1,0.1-7.9,7.3-6.6,16.8c1.5,10.6,13.2,9.7,13.7,9.6c0.3-0.1,0.7,0.2,0.7,0.6c0,0.4-0.2,0.7-0.6,0.7
			C258,219.6,257.7,219.7,257.1,219.7z"/>
	</g>
	<g>
		<path class="st4" d="M300.3,223.4c-4.9,0-10.5-1.3-14.4-6.2c-13.6-16.9,5.5-36.3,5.7-36.5c0.2-0.2,0.7-0.2,0.9,0
			c0.2,0.2,0.2,0.7,0,0.9c-0.2,0.2-18.5,18.8-5.6,34.8c8.1,10,23.7,4,23.9,3.9c0.3-0.1,0.7,0,0.8,0.4c0.1,0.3,0,0.7-0.4,0.8
			C311.1,221.5,306.1,223.4,300.3,223.4z"/>
	</g>
	<g>
		<path class="st4" d="M319,225.9c-0.1,0-0.2,0-0.4-0.1c-0.3-0.2-0.4-0.6-0.2-0.9c7.4-11-0.7-17-6.6-21.4c-3-2.3-5.5-4.1-5.2-6.1
			c3.4-25.1,7-40.5,7.3-41.8c-0.4-6.7-3.5-12-9.3-15.8c-8.7-5.7-22.1-7-32.6-6.5c-6.1,0.3-11.2,1.2-13.9,2.2c0,0-11.3,6.2-8.8,28
			c0,0.4-0.2,0.7-0.6,0.7c-0.4,0-0.7-0.2-0.7-0.6c-1.6-13.5,1.9-21.2,5.1-25.3c2.2-2.8,4.3-3.9,4.5-4c7.6-2.8,33.7-4.7,47.7,4.4
			c6.2,4,9.5,9.7,9.9,16.9c0,0.1,0,0.1,0,0.2c0,0.2-3.8,15.7-7.3,41.8c-0.2,1.3,2.2,3.1,4.7,4.9c6,4.4,15,11.1,6.9,23.2
			C319.4,225.8,319.2,225.9,319,225.9z"/>
	</g>
	<g>
		<path class="st4" d="M393.3,367.1c-0.3,0-0.5-0.2-0.6-0.5l-3-10.5c-0.1-0.3,0.1-0.7,0.4-0.8c0.3-0.1,0.7,0.1,0.8,0.4l3,10.5
			c0.1,0.3-0.1,0.7-0.4,0.8C393.4,367.1,393.4,367.1,393.3,367.1z"/>
	</g>
	<g>
		<path class="st4" d="M368.5,358.7c-0.3,0-0.5-0.2-0.6-0.4c0-0.1-1.9-5.8-5.3-14.1l-1.4-3.5c-8.9-21.7-27-59.6-47.8-70.1
			c-0.3-0.2-0.4-0.5-0.3-0.9c0.2-0.3,0.5-0.4,0.9-0.3c21.2,10.6,39.4,48.9,48.4,70.7l1.4,3.5c2.8,7,4.6,12.2,5.1,13.7l23-2.3
			c-0.3-2.6-0.6-5.1-0.9-7.4c-0.1-1-0.3-2-0.4-3c-11.9-78.8-55.2-111-80-123.2c-0.3-0.2-0.4-0.5-0.3-0.9c0.2-0.3,0.5-0.4,0.9-0.3
			c25,12.3,68.7,44.8,80.7,124.2c0.1,1,0.3,2,0.4,3c0.4,2.5,0.7,5.3,1,8.1c0,0.2,0,0.3-0.1,0.5c-0.1,0.1-0.3,0.2-0.4,0.2
			L368.5,358.7C368.6,358.7,368.6,358.7,368.5,358.7z"/>
	</g>
	<g>
		<path class="st4" d="M226.5,325.5c-0.3,0-0.5-0.2-0.6-0.4c-0.1-0.3,0.1-0.7,0.4-0.8c16.2-5.5,22.9-7.7,23-7.7
			c0.2-0.1,0.5,0,0.7,0.2c0.1,0.1,8.7,9.8,62.6,6.6c0.4,0,0.7,0.3,0.7,0.6c0,0.4-0.2,0.7-0.6,0.7c-50,2.9-61.5-5-63.4-6.8
			c-1.6,0.5-8.5,2.8-22.6,7.6C226.6,325.4,226.6,325.5,226.5,325.5z"/>
	</g>
	<g>
		<path class="st4" d="M166.9,346.6c-0.3,0-0.5-0.2-0.6-0.4c-0.1-0.3,0-0.7,0.4-0.8c1.9-0.7,3.8-1.4,5.7-2.1
			c4.2-1.6,8.5-3.1,12.7-4.6l6.4-2.3c8.4-3,11.4-4.1,18.9-6.6c0.3-0.1,0.7,0.1,0.8,0.4c0.1,0.3-0.1,0.7-0.4,0.8
			c-7.5,2.6-10.5,3.6-18.9,6.6l-6.4,2.3c-4.3,1.5-8.5,3.1-12.7,4.6c-1.9,0.7-3.8,1.4-5.7,2.1C167,346.5,166.9,346.6,166.9,346.6z"/>
	</g>
	<g>
		<path class="st4" d="M128.6,378.8c-0.4-0.1-0.7-0.4-0.6-0.7c2.5-18.1,18.3-24.5,32.2-30.1c2.2-0.9,4.3-1.7,6.4-2.6
			c0.3-0.1,0.7,0,0.8,0.3c0.1,0.3,0,0.7-0.3,0.8c-2.1,0.9-4.2,1.8-6.4,2.6c-14.3,5.7-29,11.7-31.4,29.1
			C129.2,378.5,129,378.8,128.6,378.8z"/>
	</g>
	<g>
		<path class="st4" d="M172.9,378.3c-0.2,0-0.5-0.1-0.6-0.4c-3-6.8-4.9-14-5.8-21.4c-0.7-6.5-0.3-10.5-0.3-10.7
			c0-0.3,0.3-0.6,0.7-0.6c0.4,0,0.6,0.4,0.6,0.7c0,0-0.4,4.1,0.3,10.4c0.8,7.2,2.7,14.3,5.7,21c0.1,0.3,0,0.7-0.3,0.8
			C173,378.3,173,378.3,172.9,378.3z"/>
	</g>
	<g>
		<path class="st4" d="M328.6,378.5c-0.4,0-0.6-0.3-0.6-0.6c0-13.4-2.2-25.8-6.5-36.7c-0.5-1.4-1.1-2.6-1.6-3.8
			c-3.9-8.5-7.8-12.8-7.8-12.9c-0.1-0.1-0.2-0.2-0.2-0.4c-1.7-25.4,1.1-53.8,1.1-54.1c0-0.4,0.3-0.6,0.7-0.6c0.4,0,0.6,0.3,0.6,0.7
			c0,0.3-2.8,28.4-1.2,53.6c0.8,0.9,4.3,5.2,7.9,13c0.5,1.2,1.1,2.5,1.6,3.9c4.3,11.1,6.6,23.7,6.5,37.2
			C329.3,378.2,329,378.5,328.6,378.5z"/>
	</g>
	<g>
		<path class="st4" d="M281.5,169.8c-0.2,0-0.4-0.1-0.5-0.3c-1.8-2.7-3.6-4.1-5.2-3.9c-2.4,0.2-4,3.8-4,3.8
			c-0.1,0.3-0.5,0.5-0.8,0.3c-0.3-0.1-0.5-0.5-0.3-0.8c0.1-0.2,1.9-4.3,5.1-4.6c2-0.2,4.2,1.3,6.3,4.5c0.2,0.3,0.1,0.7-0.2,0.9
			C281.8,169.7,281.6,169.8,281.5,169.8z"/>
	</g>
	<g>
		<path class="st4" d="M259.1,168.9c-0.3,0-0.5-0.2-0.6-0.4c-0.4-1.1-1.7-4.1-3.4-4.3c-1.1-0.1-2.3,1.1-3.5,3.5
			c-0.2,0.3-0.5,0.4-0.9,0.3c-0.3-0.2-0.4-0.5-0.3-0.9c1.5-3,3.1-4.4,4.8-4.2c2.8,0.2,4.3,4.6,4.5,5.1c0.1,0.3-0.1,0.7-0.4,0.8
			C259.2,168.9,259.1,168.9,259.1,168.9z"/>
	</g>
	<g>
		<path class="st4" d="M261.5,378.8c-0.5-0.1-0.7-0.4-0.6-0.8c1.5-8.1,2.7-12.7,2.7-12.7c0.1-0.3,0.4-0.5,0.8-0.5
			c0.3,0.1,0.5,0.4,0.5,0.8c0,0-1.2,4.6-2.7,12.6C262.1,378.6,261.8,378.8,261.5,378.8z"/>
	</g>
	<g>
		<path class="st4" d="M415.2,378.8h-13.2c-0.4,0-0.6-0.3-0.6-0.6c0-0.4,0.3-0.6,0.6-0.6h13.2c0.4,0,0.6,0.3,0.6,0.6
			C415.8,378.5,415.5,378.8,415.2,378.8z"/>
	</g>
	<g>
		<path class="st4" d="M357.9,378.8H104c-0.4,0-0.6-0.3-0.6-0.6c0-0.4,0.3-0.6,0.6-0.6h253.9c0.4,0,0.6,0.3,0.6,0.6
			C358.6,378.5,358.3,378.8,357.9,378.8z"/>
	</g>
	<g>
		<path class="st4" d="M381.6,394.7c-0.5,0-1.1-0.1-1.7-0.2c-4.3-0.8-6-11.6-6.5-15.4c-7.2,5.7-11.8,4.9-14.5,3.3
			c-2.1-1.4-2.3-2.7-2.2-3.5c0.4-1.7,2.5-2.9,6-3.4c5.1-0.8,6-4.7,6-4.8L369,358c0-0.4,0.3-0.6,0.6-0.6c0.4,0,0.6,0.3,0.6,0.6
			l-0.2,12.8c-0.1,0.3-1.1,5-7.1,5.9c-3.4,0.5-4.8,1.6-5,2.4c-0.1,0.7,0.4,1.4,1.6,2.2c3.4,2.2,8.2,0.9,13.9-3.9
			c0.2-0.2,0.4-0.2,0.6-0.1c0.2,0.1,0.4,0.3,0.4,0.5c0.6,5.7,2.6,14.9,5.6,15.5c1.5,0.3,2.7,0.2,3.4-0.4c0.6-0.5,0.8-1.1,0.8-1.1
			c0-0.2,0.2-0.4,0.4-0.5c0.2-0.1,0.4-0.1,0.6,0.1c0,0,2.8,1.9,5.1,1.4c2.3-0.5,3.5-3,3.6-3c0.1-0.2,0.3-0.3,0.5-0.3
			c0.2,0,0.4,0.1,0.6,0.3c0,0,1.5,2.4,3.4,1.8c2.3-0.7,2.7-2.6,2.7-3.3c0.5-8-0.4-20.2-2.8-20.6c-3.9-0.6-15.9,0.5-20.7,3.2
			c-0.3,0.2-0.7,0.1-0.9-0.2c-0.2-0.3-0.1-0.7,0.2-0.9c5.1-2.9,17.4-4,21.5-3.3c4.9,0.8,3.8,21.7,3.8,21.9c-0.1,0.8-0.5,3.5-3.6,4.5
			c-1.9,0.6-3.5-0.7-4.2-1.6c-0.7,0.9-2,2.4-3.9,2.8c-2.1,0.5-4.3-0.5-5.4-1.1c-0.2,0.4-0.5,0.8-1,1.1
			C383.6,394.5,382.7,394.7,381.6,394.7z"/>
	</g>
	<g>
		<g>
			<g>
				<path class="st4" d="M153.2,167c-0.1,0-0.2,0-0.3-0.1c-6.4-4.1-10.2-9.7-11.5-16.6c-3.1-17.4,11.4-37,12.1-37.8
					c0.2-0.3,0.6-0.3,0.9-0.1c0.3,0.2,0.3,0.6,0.1,0.9c-0.1,0.2-14.8,20-11.8,36.8c1.2,6.5,4.8,11.8,10.9,15.7
					c0.3,0.2,0.4,0.6,0.2,0.9C153.6,166.9,153.4,167,153.2,167z"/>
			</g>
			<g>
				<path class="st4" d="M101.9,144.5c-1.9,0-3.8-0.2-5.8-0.6c-0.3-0.1-0.6-0.4-0.5-0.7c0.1-0.3,0.4-0.6,0.7-0.5
					c8,1.6,15-0.2,20.8-5.3c0.3-0.2,0.7-0.2,0.9,0.1c0.2,0.3,0.2,0.7-0.1,0.9C113.4,142.4,108,144.5,101.9,144.5z"/>
			</g>
			<g>
				<path class="st4" d="M149.7,168.1c-1.7,0-3.9-0.3-6.5-0.8c-5.8-1.2-13.2-3.6-20.9-6.7c-7.6-3.1-14.6-6.6-19.6-9.7
					c-5.4-3.4-7.8-6.1-7.1-7.8c0.1-0.3,0.5-0.5,0.8-0.4c0.3,0.1,0.5,0.5,0.4,0.8c-0.3,0.6,0.9,2.6,6.6,6.3
					c4.9,3.1,11.8,6.6,19.4,9.6c7.6,3.1,14.9,5.4,20.6,6.6c6.6,1.4,8.9,0.7,9.1,0.1c0.1-0.3,0.5-0.5,0.8-0.4
					c0.3,0.1,0.5,0.5,0.4,0.8C153.4,167.6,152,168.1,149.7,168.1z"/>
			</g>
			<g>
				<path class="st4" d="M115,160.8c-0.1,0-0.2,0-0.3-0.1c-5-2.2-9.5-4.6-13.4-6.9c-0.3-0.2-0.4-0.6-0.2-0.9
					c0.2-0.3,0.6-0.4,0.9-0.2c3.9,2.3,8.4,4.6,13.3,6.8c0.3,0.1,0.5,0.5,0.3,0.8C115.5,160.6,115.2,160.8,115,160.8z"/>
			</g>
			<g>
				<path class="st4" d="M154.3,172.3c-1.7,0-3.7-0.2-6.1-0.6c-0.3-0.1-0.6-0.4-0.5-0.7c0.1-0.3,0.4-0.6,0.7-0.5
					c7,1.1,9.9,0.4,10.4-0.8c0.3-0.6,0.4-3.2-8.7-9c-0.3-0.2-0.4-0.6-0.2-0.9c0.2-0.3,0.6-0.4,0.9-0.2c7.1,4.5,10.1,8.1,9.1,10.5
					C159.4,171.6,157.5,172.3,154.3,172.3z"/>
			</g>
			<g>
				<path class="st4" d="M150.4,160.8c-0.1,0-0.2,0-0.3-0.1c-1.8-1.1-3.8-2.3-6-3.5c-0.3-0.2-0.4-0.6-0.3-0.9
					c0.2-0.3,0.6-0.4,0.9-0.3c2.2,1.2,4.2,2.4,6,3.5c0.3,0.2,0.4,0.6,0.2,0.9C150.9,160.7,150.7,160.8,150.4,160.8z"/>
			</g>
			<g>
				<path class="st4" d="M155.6,179.8c-0.1,0-0.2,0-0.2,0c-0.3-0.1-0.5-0.5-0.4-0.8l3.7-9.1c0.1-0.3,0.5-0.5,0.8-0.4
					c0.3,0.1,0.5,0.5,0.4,0.8l-3.7,9.1C156.1,179.6,155.8,179.8,155.6,179.8z"/>
			</g>
			<g>
				<path class="st4" d="M91.4,146.5c-0.2,0-0.3-0.1-0.5-0.2c-1.9-2-2.6-3.7-2.1-5c1.7-4.1,13.6-1.5,20.6,0.4
					c0.3,0.1,0.5,0.4,0.4,0.8c-0.1,0.3-0.4,0.5-0.8,0.4c-13-3.6-18.4-2.9-19-1.2c-0.3,0.8,0.3,2,1.8,3.6c0.2,0.3,0.2,0.7,0,0.9
					C91.8,146.4,91.6,146.5,91.4,146.5z"/>
			</g>
			<g>
				<path class="st4" d="M150.5,181.5c-7.4,0-20.7-3.8-32.9-8.7c-9.4-3.8-17.9-8.1-24-12.2c-6.5-4.3-9.3-7.7-8.4-10l3.7-9.2
					c0.1-0.3,0.5-0.5,0.8-0.4c0.3,0.1,0.5,0.5,0.4,0.8l-3.7,9.2c-0.5,1.2,1.3,4.1,7.9,8.5c6,4,14.4,8.3,23.7,12.1
					c20.2,8.2,35.8,10.5,37,7.3c0.1-0.3,0.5-0.5,0.8-0.4c0.3,0.1,0.5,0.5,0.4,0.8C155.6,180.8,153.5,181.5,150.5,181.5z"/>
			</g>
		</g>
		<g id="XMLID_7_">
			<g>
				<g>
					<path class="st4" d="M115.7,75.6c-0.2,0-0.4-0.1-0.5-0.3c-0.8-1.1-3.5-5-4.8-7.2c-2.3-3.9-10.2-17.9-13-32.9
						c-0.6-3.2-0.8-5.7-0.7-8.1c0.2-5.3,2.1-9.9,5.4-13c4-3.8,9.7-4.9,14.9-2.7l0.2,0.1c4.3,1.8,6.9,4.9,8.8,7.7
						c0.2,0.3,0.1,0.7-0.2,0.9c-0.3,0.2-0.7,0.1-0.9-0.2c-2.6-3.7-5.1-5.9-8.3-7.3l-0.2-0.1c-4.7-2-9.9-1-13.6,2.5
						c-3,2.9-4.8,7.2-5,12.1c-0.1,2.4,0.1,4.8,0.7,7.9c2.7,14.7,10.5,28.5,12.8,32.4c1.3,2.2,4,6,4.8,7.1c0.2,0.3,0.1,0.7-0.2,0.9
						C116,75.6,115.8,75.6,115.7,75.6z M115.4,57.5c-0.2,0-0.5-0.1-0.6-0.3c-4.5-8.8-7.2-16.3-8.5-23.6c-0.5-2.5-0.6-4.4-0.6-6.1
						c0.1-2.8,1-5.3,2.6-6.7c1.4-1.3,3.3-1.7,5.2-0.9c2.8,1.2,5,4.3,6.6,6.9l1.9,3.1l-1.1,0.7l-1.9-3.1c-1.5-2.4-3.5-5.4-5.9-6.4
						c-1.5-0.6-2.8-0.4-3.9,0.6c-1.3,1.2-2.1,3.3-2.2,5.8c-0.1,1.7,0.1,3.5,0.6,5.8c1.3,7.1,4,14.5,8.4,23.2c0.2,0.3,0,0.7-0.3,0.9
						C115.6,57.5,115.5,57.5,115.4,57.5z"/>
				</g>
			</g>
		</g>
		<g id="XMLID_2_">
			<g>
				<g>
					<path class="st4" d="M186.7,104.9c-0.3,0-0.6-0.2-0.6-0.5c-0.1-0.3,0.2-0.7,0.5-0.7c2.4-0.4,7-1.4,9.1-1.9
						c4.4-1.2,19.6-5.7,31.8-14.4c2.6-1.8,4.4-3.4,6-5.2c3.3-3.7,5-8,4.9-12.1c-0.2-5-3.3-9.3-8-11.2l0.1-0.7l-0.2,0.6
						c-4-1.6-8.7-1.1-11.9-0.5c-0.3,0.1-0.7-0.2-0.7-0.5c-0.1-0.3,0.2-0.7,0.5-0.7c3.4-0.7,8.3-1.1,12.6,0.6c0,0,0.2,0.1,0.2,0.1
						c5.2,2.1,8.6,6.8,8.8,12.3c0.2,4.5-1.7,9.1-5.2,13.1c-1.6,1.8-3.6,3.5-6.2,5.3c-12.4,8.8-27.8,13.3-32.2,14.5
						c-2.2,0.6-6.8,1.5-9.2,2C186.8,104.9,186.7,104.9,186.7,104.9z M199.5,92.1c-0.3,0-0.5-0.2-0.6-0.4c-0.1-0.3,0.1-0.7,0.4-0.8
						c9.7-3.3,17.2-6.9,22.9-11c2-1.4,3.4-2.6,4.5-3.8c1.7-1.9,2.6-3.9,2.5-5.7c-0.1-1.4-0.9-2.5-2.3-3.1c-2.5-1-6-0.3-8.7,0.5
						c-1.3,0.3-4.2,0.9-4.4,1c-0.3,0.1-0.7-0.2-0.7-0.5c-0.1-0.3,0.2-0.7,0.5-0.7c0,0,3.1-0.6,4.3-0.9c2.9-0.8,6.7-1.5,9.5-0.4
						c2,0.8,3.1,2.3,3.2,4.3c0.1,2.1-1,4.5-2.8,6.6c-1.2,1.3-2.6,2.5-4.7,4c-5.8,4.1-13.4,7.8-23.2,11.2
						C199.6,92.1,199.6,92.1,199.5,92.1z"/>
				</g>
			</g>
		</g>
		<g>
			<g>
				<path class="st4" d="M120,88.5c-0.2,0-0.5-0.1-0.6-0.4c-1.8-3.6-3-7.2-3.8-10.9c-1.4-7-1.6-14.9-0.4-23.5
					c1-7.4,2.9-15.4,5.7-23.6c1.2-3.6,2.6-7.2,4.2-10.8l0.4-0.9c0.4-0.8,0.8-1.8,1-2.4c0.1-0.3,0.5-0.5,0.8-0.3
					c0.3,0.1,0.5,0.5,0.3,0.8c-0.3,0.6-0.7,1.6-1,2.4l-0.4,0.9c-1.5,3.6-2.9,7.2-4.2,10.7c-2.8,8.1-4.7,16-5.7,23.3
					c-1.1,8.4-1,16.2,0.4,23c0.7,3.5,2,7.1,3.7,10.6c0.2,0.3,0,0.7-0.3,0.9C120.2,88.4,120.1,88.5,120,88.5z"/>
			</g>
			<g>
				<path class="st4" d="M129.5,101.6c-0.2,0-0.3-0.1-0.4-0.2c-2.9-2.8-5.1-5.7-7.3-9.2c-0.2-0.3-0.1-0.7,0.2-0.9
					c0.3-0.2,0.7-0.1,0.9,0.2c2.1,3.4,4.3,6.2,7.1,8.9c0.2,0.2,0.3,0.7,0,0.9C129.9,101.6,129.7,101.6,129.5,101.6z"/>
			</g>
			<g>
				<path class="st4" d="M160.2,114c-2.5,0-5-0.2-7.5-0.7c-0.3-0.1-0.6-0.4-0.5-0.7c0.1-0.3,0.4-0.6,0.7-0.5
					c11.2,2,22.1-0.6,32.4-7.8c5.7-4,11.2-9.5,16.2-16.4c4.4-6,8.4-13,12-20.9c1.6-3.4,3.1-7,4.4-10.7c0.2-0.5,0.3-0.8,0.5-1.2
					c0.2-0.5,0.4-1,0.6-1.6c0.1-0.3,0.5-0.5,0.8-0.4c0.3,0.1,0.5,0.5,0.4,0.8c-0.2,0.6-0.4,1.1-0.6,1.6c-0.1,0.4-0.3,0.7-0.5,1.2
					c-1.4,3.7-2.8,7.3-4.4,10.7c-3.6,7.9-7.7,15-12.1,21.1c-5.1,7-10.6,12.6-16.5,16.7C177.7,111.1,169.1,114,160.2,114z"/>
			</g>
		</g>
		<g>
			<path class="st4" d="M222.8,46.6c-10.3,0-30.3-5.9-48.7-13.4c-5.2-2.1-10.2-4.3-14.9-6.5c-0.3-0.2-0.5-0.5-0.3-0.8
				c0.2-0.3,0.5-0.5,0.8-0.3c4.7,2.2,9.7,4.4,14.9,6.5c29.6,12,52.2,15.8,53.8,11.6c1.7-4.1-17.1-17.1-46.8-29.1
				C152,2.5,129.5-1.2,127.8,2.9c-0.4,1.1,0.6,2.9,2.9,5.1c0.3,0.2,0.3,0.6,0,0.9c-0.2,0.3-0.6,0.3-0.9,0c-2.8-2.7-3.9-4.8-3.2-6.5
				c2.6-6.5,30.5,0.8,55.5,10.9c25,10.1,50.1,24.4,47.5,30.8C228.9,45.9,226.5,46.6,222.8,46.6z"/>
		</g>
		<g>
			<path class="st4" d="M219.7,54.4c-3.5,0-7.8-0.7-11.6-1.5c-10.4-2.1-23.6-6.4-37.2-11.9c-25-10.1-50.1-24.4-47.4-30.8
				c0.1-0.3,0.5-0.5,0.8-0.4c0.3,0.1,0.5,0.5,0.4,0.8c-1.7,4.1,17.1,17.1,46.7,29.1c13.6,5.5,26.7,9.7,37,11.8
				c14.4,3,16.5,0.6,16.9-0.2c0.1-0.3,0.5-0.5,0.8-0.4c0.3,0.1,0.5,0.5,0.4,0.8C225.7,53.8,223.1,54.4,219.7,54.4z"/>
		</g>
		<g>
			<path class="st4" d="M221.4,43c-2.3,0-6.1-0.5-12.2-2c-9.3-2.3-21.2-6.4-33.6-11.4c-18.8-7.6-46.1-20.9-44-26
				c0.4-0.9,1.5-1.4,3.4-1.5c0.4,0,0.6,0.3,0.7,0.6c0,0.4-0.3,0.6-0.6,0.7c-1.9,0.1-2.2,0.5-2.3,0.7c-1,2.4,15,12.9,43.3,24.4
				c12.3,5,24.2,9,33.4,11.4c10.9,2.7,14.3,2.1,14.7,1.3c0.1-0.1,0.4-1.4-4.8-5.1c-0.3-0.2-0.4-0.6-0.1-0.9c0.2-0.3,0.6-0.4,0.9-0.1
				c4.2,3,5.9,5.1,5.2,6.6C225.1,42,224.7,43,221.4,43z"/>
		</g>
		<g>
			<path class="st4" d="M124.1,11.1c-0.1,0-0.2,0-0.2,0c-0.3-0.1-0.5-0.5-0.4-0.8l3.2-7.8c0.1-0.3,0.5-0.5,0.8-0.4
				c0.3,0.1,0.5,0.5,0.4,0.8l-3.2,7.8C124.5,11,124.3,11.1,124.1,11.1z"/>
		</g>
		<g>
			<path class="st4" d="M225.8,52.4c-0.1,0-0.2,0-0.2,0c-0.3-0.1-0.5-0.5-0.4-0.8l3.2-7.8c0.1-0.3,0.5-0.5,0.8-0.4
				c0.3,0.1,0.5,0.5,0.4,0.8l-3.2,7.8C226.3,52.2,226.1,52.4,225.8,52.4z"/>
		</g>
	</g>
	<g>
		<path class="st4" d="M117.6,138.5c-0.3,0-0.5-0.2-0.6-0.4c-4.8-13.4,0.4-21,5-27.8c0.8-1.1,1.6-2.3,2.3-3.4
			C129,99.2,135.6,94,138.8,94c2.8,0.1,11.8,3.1,12.2,3.2c0.3,0.1,0.4,0.3,0.4,0.6c-0.1,4.9-6.1,5.9-9.9,6.1
			c0.7,0.3,1.5,0.6,2.2,0.8c2.7,1,5.5,2.2,7.8,4.4c0.7,0.7,1.6,1.7,1.6,2.9c0,0.9-0.3,1.9-1,2.8c-0.8,1.2-1.6,1.7-2.2,1.8
			c0,0.7-0.2,1.9-1.2,3.4c-1,1.5-1.9,2.1-2.6,2.4c0.2,0.9,0.3,2.2-0.2,3.1c-0.9,1.6-2.7,2.7-4.7,2.7c-1.4,0-2.9-0.5-4.3-1
			c-0.6-0.2-1.2-0.4-1.8-0.6c-2.3-0.6-4-0.9-5.7-0.6c-1.7,0.2-3.1,1.9-4.3,3.4l-0.6,0.7c-1.5,1.8-3,3.7-4.3,5.4
			c0,0.1-0.2,0.3-0.5,0.5c-0.4,0.5-1.3,1.5-1.5,1.8c-0.1,0.2-0.2,0.3-0.4,0.4C117.8,138.5,117.7,138.5,117.6,138.5z M138.8,95.3
			c-2.5,0-8.8,4.7-13.5,12.2c-0.7,1.2-1.5,2.3-2.3,3.5c-4.5,6.6-9.1,13.4-5.2,25.5c0.3-0.3,0.6-0.7,1-1.1c0.2-0.2,0.4-0.4,0.4-0.5
			c1.3-1.7,2.8-3.6,4.3-5.5l0.5-0.7c1.3-1.6,2.9-3.6,5.2-3.9c1.9-0.2,3.7,0,6.2,0.7c0.6,0.2,1.3,0.4,1.9,0.6c1.3,0.5,2.7,1,3.9,1
			c1.5,0,2.9-0.8,3.6-2c0.3-0.6,0.2-1.9-0.1-2.7c-0.1-0.2,0-0.4,0.1-0.5c0.1-0.2,0.3-0.3,0.5-0.3c0,0,1.1-0.2,2.3-2.1
			c1.3-2,0.9-3,0.9-3c-0.1-0.2-0.1-0.5,0.1-0.7c0.2-0.2,0.4-0.3,0.6-0.2c0.1,0,0.9-0.1,1.8-1.4c0.4-0.5,0.8-1.3,0.8-2.1
			c0-0.7-0.7-1.4-1.2-2c-2-2-4.6-3.1-7.3-4.1c-1.6-0.6-3.3-1.2-5-1.8c-0.3-0.1-0.6-0.5-0.5-0.8c0.1-0.6,0.5-0.6,1.7-0.6
			c4.4-0.1,10.1-0.8,10.6-4.5C148.2,97.7,141,95.4,138.8,95.3L138.8,95.3z"/>
	</g>
	<g>
		<path class="st4" d="M145.1,150.1c-0.4,0-0.7-0.3-0.6-0.7c0.7-9.8-0.3-19.5-0.3-19.6c0-0.3,0.2-0.7,0.6-0.7
			c0.3-0.1,0.7,0.2,0.7,0.6c0,0.1,1,9.9,0.3,19.8C145.7,149.9,145.4,150.1,145.1,150.1z"/>
	</g>
	<g>
		<path class="st4" d="M385,392.6c-0.3,0-0.6-0.2-0.6-0.5l-3.1-16.9c-0.1-0.3,0.2-0.7,0.5-0.7c0.4-0.1,0.7,0.2,0.7,0.5l3.1,16.9
			c0.1,0.3-0.2,0.7-0.5,0.7C385.1,392.6,385,392.6,385,392.6z"/>
	</g>
	<g>
		<path class="st4" d="M394.7,390.8c-0.3,0-0.6-0.3-0.6-0.6c0-0.1-0.9-13.4-2-16.6c-0.1-0.3,0.1-0.7,0.4-0.8
			c0.3-0.1,0.7,0.1,0.8,0.4c1.2,3.4,2,16.4,2.1,17C395.4,390.5,395.1,390.8,394.7,390.8C394.8,390.8,394.8,390.8,394.7,390.8z"/>
	</g>
	<g>
		<path class="st4" d="M145.1,122.9c-0.1,0-0.3,0-0.4-0.1c0,0-2.5-1.9-9.2-4.2c-6.4-2.2-9.1-0.1-9.2-0.1c-0.3,0.2-0.7,0.2-0.9-0.1
			c-0.2-0.3-0.2-0.7,0.1-0.9c0.1-0.1,3.2-2.6,10.4-0.1c6.9,2.4,9.5,4.3,9.6,4.3c0.3,0.2,0.3,0.6,0.1,0.9
			C145.5,122.8,145.3,122.9,145.1,122.9z"/>
	</g>
	<g>
		<path class="st4" d="M149.1,116.9c-0.2,0-0.3-0.1-0.5-0.2c0,0-3.1-3.3-9.7-5.6c-6.3-2.2-8.1-1-8.1-1c-0.3,0.2-0.7,0.1-0.9-0.1
			c-0.2-0.3-0.2-0.7,0.1-0.9c0.2-0.2,2.3-1.6,9.3,0.8c7,2.4,10.1,5.8,10.3,5.9c0.2,0.3,0.2,0.7,0,0.9
			C149.4,116.8,149.2,116.9,149.1,116.9z"/>
	</g>
	<g>
		<path class="st4" d="M134.1,104.3c-0.3,0-0.6-0.3-0.6-0.6c0-0.4,0.2-0.7,0.6-0.7c2.7-0.2,4.5,0,4.5,0c0.3,0,0.6,0.4,0.6,0.7
			c0,0.3-0.3,0.6-0.7,0.6C138.4,104.3,136.7,104.1,134.1,104.3C134.1,104.3,134.1,104.3,134.1,104.3z"/>
	</g>
	<g>
		<path class="st4" d="M269.8,192.8c-0.3,0-0.5-0.2-0.6-0.4c-0.7-1.8-0.6-3.5,0.1-5c1.7-3.5,6.5-4.9,6.7-5c0.3-0.1,0.7,0.1,0.8,0.4
			c0.1,0.3-0.1,0.7-0.4,0.8c0,0-4.5,1.4-6,4.3c-0.6,1.2-0.6,2.5-0.1,4c0.1,0.3,0,0.7-0.4,0.8C270,192.8,269.9,192.8,269.8,192.8z"/>
	</g>
</g>
</svg>
