<?xml version="1.0" encoding="utf-8"?>
<!-- Generator: Adobe Illustrator 22.0.1, SVG Export Plug-In . SVG Version: 6.00 Build 0)  -->
<svg version="1.0" id="Слой_3" xmlns="http://www.w3.org/2000/svg" xmlns:xlink="http://www.w3.org/1999/xlink" x="0px" y="0px"
	 width="130.2px" height="21.6px" viewBox="0 0 130.2 21.6" style="enable-background:new 0 0 130.2 21.6;" xml:space="preserve">
<style type="text/css">
	.st0{fill:#48484B;}
	.st1{font-family:'FiraSans-MediumItalic';}
	.st2{font-size:18px;}
	.st3{fill:#643FED;}
</style>
<text transform="matrix(1 0 0 1 0.774 15.2188)"><tspan x="0" y="0" class="st0 st1 st2">Ace</tspan><tspan x="31" y="0" class="st3 st1 st2">My</tspan><tspan x="55.7" y="0" class="st0 st1 st2">Paper</tspan></text>
<g>
	<g>
		<g>
			<path class="st0" d="M128.8,6.5c-0.4,0.1-0.7,0.6-0.5,1c1.3,4.3-1.1,8.8-5.3,10.2c-4.3,1.3-8.8-1.1-10.2-5.3s1.1-8.8,5.3-10.2
				c2.1-0.6,4.3-0.4,6.2,0.6c0.4,0.2,0.9,0.1,1.1-0.3c0.2-0.4,0.1-0.9-0.3-1.1c-2.3-1.2-5-1.5-7.4-0.7c-5.1,1.6-8,7.1-6.4,12.2
				c1.6,5.1,7.1,8,12.2,6.4s8-7.1,6.4-12.2C129.7,6.6,129.2,6.4,128.8,6.5z"/>
		</g>
	</g>
</g>
<path class="st3" d="M127.5,2.5l1.4,1.3l-9.2,9.9l-4.1-4l1.4-1.4l2.7,2.6L127.5,2.5z"/>
</svg>
