<?xml version="1.0" encoding="utf-8"?>
<!-- Generator: Adobe Illustrator 22.0.1, SVG Export Plug-In . SVG Version: 6.00 Build 0)  -->
<svg version="1.1" id="Слой_12" xmlns="http://www.w3.org/2000/svg" xmlns:xlink="http://www.w3.org/1999/xlink" x="0px"
	 y="0px" width="571.3px" height="433.8px" viewBox="0 0 571.3 433.8" style="enable-background:new 0 0 571.3 433.8;"
	 xml:space="preserve">
<style type="text/css">
	.st0{fill:#EDA58A;}
	.st1{fill:#9898EA;}
	.st2{fill:#48484B;}
	.st3{fill:#FFFFFF;}
	.st4{fill:#272728;}
	.st5{font-family:'FiraSans-Bold';}
	.st6{font-size:49.9183px;}
	.st7{fill:none;stroke:#272728;stroke-miterlimit:10;}
</style>
<path class="st0" d="M531.6,384.7c-36.4,4.3-59,3.2-95.5,3.5c-29.9,0.2-24.5,46.4-143.3,45.6c-109-0.8-103.9-47.8-147-43.8
	c-27.3,2.5-60.5,3.1-87-3.5C45.4,383.2-0.9,362,0,350.6c2-24.8,90-15.6,110.9-13.8c80.7,6.9,162.3-0.1,243.3,1.4
	c27.7,0.5,55.9,0.4,83.7-0.8c26.3-1.1,52.2-3.1,78.8-3.1c17.2,0,43.1-0.5,52.6,12.4C573.3,352.2,575.7,379.5,531.6,384.7z"/>
<path class="st1" d="M187.8,260.8l18.3,4.6l4.8-7.9L316.5,75.6L381.1,264l91-28.1l-72.4,119.7c0,0-76.4,4.5-117.6,4.5
	c-43.8,0-108-4.5-108-4.5L78,231.8L187.8,260.8z"/>
<path class="st2" d="M264.9,144.7l0.2,27.9c0,0-29.1-7.7-44.3-16.4c-15.2-8.7-27-17.6-27-17.6s8.4-26.7,10.2-41.8
	c1.4-11.8,1.9-10.6,1.9-10.6s-11.2,7.1-25.5,5.4c-14.3-1.7-21.7-9.4-24.7-20.8c-3-11.3-3.1-23.4-2.8-28c0.3-4.5,0.4-5.7,0.4-5.7
	l18.7-1.9c0,0-3,29.3,10.3,31c0,0,4.9,2.8,17.5-5.6c12.6-8.4,26.9-16.3,31.3-17.7l-7.2,74.9L249,44.1l7.9,6.2
	c0,0,20.4,5.6,31.6,20.2c11.2,14.6,14.8,32.9,14.1,45.9c-0.7,13-6.8,35.4-23.2,50.4l-14-21.8c0,0,14-18,16-30.4
	c2-12.4-4.2-17.9-9.8-19.6L264.9,144.7z"/>
<path class="st3" d="M222.8,24.3l2.5,0.1c0,0,0.7-1.4,0.7-2.6c0-1.2-0.7-1.6-0.7-1.6l-2.4-0.1l0.1-1.5l1.7-6.8c0,0,3.1-3.4,9.4-2.8
	c6.2,0.6,9.7,1.7,9.7,1.7s1.6,4.5,1.2,11.2c0,0,2.9-4,6.2-2.3c3.3,1.8,3.7,7.6-1.9,9.9l-0.1,14.3l-2,5.3c0,0-6.2,2.1-10.3,1.7
	c-4.1-0.4-5.9-3.4-5.9-3.4l0.2-4.5c0,0-5.4,0.6-8.1-3.4C220.4,35.6,222.8,24.3,222.8,24.3z"/>
<path class="st3" d="M273.2,157.4l-7.6-11.9c0,0-5.7-1.9-7.4-1.8c-1.7,0.2-3.1,0.1-4.5,3.1c-1.4,3-1.9,6-1.9,6s-4.4,3.9-4,4.7
	c0.5,0.9,3.9,0,6.4-0.7c2.4-0.7,4.9,1.2,8.8,1.7C266.9,159.1,271,159.3,273.2,157.4z"/>
<polygon class="st2" points="170.3,238.8 169.1,247.4 164.8,246.8 164.1,244.8 161.9,246.5 132,244.5 148.2,237.2 "/>
<path class="st2" d="M232.1,1.5c6-1.8,13.6-1.4,17.8,4.3c0,0,4.7,1.1,4.8,6.3c0.1,5.2-2.2,8.5-2.2,8.5s-2.6-3.4-5.5-0.8l-1,0.5
	c0,0,1.2-6.2-0.5-9.1c0,0-4.1-2.6-9.9-2.6c-5.8,0-10.7,2.5-10.7,2.5l-1.6,4.1c0,0,0.1-2.8,0.4-5.5C224.3,6.1,226.1,3.3,232.1,1.5z"
	/>
<path class="st3" d="M261.5,171.6l5.8,100.5l-35.4-8.5l-15.1-86c0,0-17.9-4.8-26.8-4.2c-8.9,0.6-11.4,4.7-12.1,9.8
	c-0.4,3.1-0.2,55.8-0.2,55.8l-36.1-2.5l2.1-65.8c0,0-2.4-16.6,13.3-23.8c16.4-7.5,36.2-8.8,36.2-8.8s14.5,13.6,37.9,22.4
	C254.4,169.3,261.5,171.6,261.5,171.6z"/>
<path class="st1" d="M147.1,22.9c0-3-0.4-3.4-0.4-3.4l47.7,0.1l0.5,1.5l30.8,0.5c1,1.5-0.5,4.4-0.5,4.4l-30.2,0.4l-0.9,1.6
	l-49.1-0.3C145.1,27.7,147.1,26,147.1,22.9z"/>
<path class="st3" d="M155.5,18.3c0,0-0.3-2.9,6.4-3.2c6.7-0.3,8.2,0.3,9.1,0.8c0.9,0.5,3.8,1,3.6,5.9l1.3,4.7c0,0-2.2,7-6.5,9
	l-12.3,1l-1.7-10l15-0.1l-0.9-3.1c0,0-0.6,1.8-2.8,1.7c-2.3-0.1-2.8-3.3-2.8-3.3s-0.6,3.5-3.6,3.3c-3-0.2-2.9-1.8-2.9-1.8
	s2-3,0.1-4.6L155.5,18.3z"/>
<path class="st4" d="M143.3,23c0,2.4,0.7,4.3,1.5,4.3c0.8,0,1.5-1.9,1.5-4.3c0-2.4-0.7-4.3-1.5-4.3C144,18.7,143.3,20.6,143.3,23z"
	/>
<g>
	<path class="st4" d="M153,239.9c0,0-8.4-0.7-8.4-0.7c-0.2,0-0.4-0.2-0.4-0.4c0-0.2,0.2-0.4,0.4-0.4l8.3,0.7c0.2,0,0.4,0.2,0.4,0.4
		C153.4,239.7,153.2,239.9,153,239.9z"/>
</g>
<g>
	<path class="st4" d="M149.4,241.6c0,0-8.4-0.7-8.4-0.7c-0.2,0-0.4-0.2-0.4-0.4c0-0.2,0.2-0.4,0.4-0.4l8.3,0.7
		c0.2,0,0.4,0.2,0.4,0.4C149.8,241.4,149.6,241.6,149.4,241.6z"/>
</g>
<polygon class="st1" points="240.7,61.6 238.2,65.4 235.5,84.3 226.6,109.9 230,76.5 233.9,64.2 233.5,59.2 238.5,53.6 "/>
<path class="st3" d="M284.8,39h134.1l-20.1-2.1c0,0,1.7-9-10-11.4c-11.7-2.4-13.9,6.7-13.9,6.7s6.1-14.2-20-15.1
	c-26.1-0.9-23.6,14.7-23.6,14.7s1.2-3.3-7.3-3.8c-8.5-0.4-9.2,6.8-9.2,6.8L284.8,39z"/>
<path class="st3" d="M401.6,111.4h55.1l-18.3-4.1c0,0-0.2-5.4-10.5-5.7c-10.3-0.3-9.5,6.9-9.5,6.9L401.6,111.4z"/>
<path class="st3" d="M199,121l-13.7-1.7c0,0,4.4-11.5-11.1-14.1c-15.6-2.5-20,11.5-20,11.5s-0.6-3.9-10.6-3.9
	c-10,0-12.8,7.9-12.8,7.9l-33.5,4l100.3,0.3L199,121z"/>
<g>
	<path class="st4" d="M142.2,209.4h-29.2c-0.4,0-0.6-0.3-0.6-0.6s0.3-0.6,0.6-0.6h29.2c0.4,0,0.6,0.3,0.6,0.6
		S142.6,209.4,142.2,209.4z"/>
</g>
<g>
	<path class="st4" d="M299,366.2c-42.2,0-103.5-4.5-104.1-4.5c-0.2,0-0.4-0.1-0.5-0.3l-0.4-0.6L98.4,229.2c-0.2-0.2-0.2-0.5,0-0.7
		c0.2-0.2,0.4-0.3,0.7-0.3l42.4,11.3c0.3,0.1,0.5,0.4,0.5,0.8c-0.1,0.3-0.4,0.5-0.8,0.5l-40.7-10.8l94.8,130.5
		c4.8,0.3,63.1,4.5,103.7,4.5c49.9,0,115.9-4.2,121.2-4.5l71.4-118.1l-170,44.1c-0.1,0-0.2,0-0.3,0l-159.5-39.4
		c-0.3-0.1-0.6-0.4-0.5-0.8c0.1-0.3,0.4-0.6,0.8-0.5l159.3,39.4l171.4-44.5c0.3-0.1,0.5,0,0.7,0.2c0.2,0.2,0.2,0.5,0,0.7
		l-72.4,119.7c-0.1,0.2-0.3,0.3-0.5,0.3C419.9,361.7,350.8,366.2,299,366.2z"/>
</g>
<g>
	<path class="st4" d="M400.5,266c-0.3,0-0.5-0.2-0.6-0.4L337.2,82.6l-73,125.7c-0.2,0.3-0.6,0.4-0.9,0.2c-0.3-0.2-0.4-0.6-0.2-0.9
		l73.8-126.9c0.1-0.2,0.4-0.4,0.6-0.3c0.3,0,0.5,0.2,0.5,0.4l63.2,184.2c0.1,0.3-0.1,0.7-0.4,0.8C400.7,266,400.6,266,400.5,266z"/>
</g>
<g>
	<path class="st4" d="M306.4,282.8c-0.5-0.1-0.7-0.4-0.6-0.7l21.8-131.3l-53.2,123.5c-0.1,0.3-0.5,0.5-0.8,0.3
		c-0.3-0.1-0.5-0.5-0.3-0.8l55.3-128.3c0.1-0.3,0.5-0.5,0.8-0.4c0.3,0.1,0.5,0.4,0.5,0.7L307,282.2
		C307,282.6,306.7,282.8,306.4,282.8z"/>
</g>
<g>
	<path class="st4" d="M302.8,366.2c-0.5-0.1-0.7-0.4-0.6-0.8l18.5-79.7c0.1-0.3,0.4-0.6,0.8-0.5c0.3,0.1,0.6,0.4,0.5,0.8l-18.5,79.7
		C303.4,366,303.1,366.2,302.8,366.2z"/>
</g>
<g>
	<path class="st4" d="M475.2,209.4h-94.1c-0.4,0-0.6-0.3-0.6-0.6s0.3-0.6,0.6-0.6h94.1c0.4,0,0.6,0.3,0.6,0.6
		S475.5,209.4,475.2,209.4z"/>
</g>
<g>
	<path class="st4" d="M222.4,209.4h-45c-0.4,0-0.6-0.3-0.6-0.6s0.3-0.6,0.6-0.6h45c0.4,0,0.6,0.3,0.6,0.6S222.8,209.4,222.4,209.4z"
		/>
</g>
<g>
	<g>
		<path class="st4" d="M174.6,23.9c-0.4,0-0.7-0.3-0.6-0.7c0.1-2.4-0.3-4.2-1.5-5.4c-1.2-1.3-3.1-1.9-5.7-1.9c-0.3,0-0.6,0-1,0
			c-2.8-0.1-9.3-0.3-9.7,2.4c-0.1,0.3-0.4,0.6-0.7,0.5c-0.4-0.1-0.6-0.4-0.5-0.7c0.6-3.8,7.6-3.6,11-3.5c0.4,0,0.7,0,1,0
			c3,0,5.2,0.8,6.7,2.3c1.4,1.5,2,3.6,1.8,6.4C175.3,23.6,175,23.9,174.6,23.9z"/>
	</g>
	<g>
		<path class="st4" d="M160.4,25.6c-3.5,0-3.6-2.4-3.6-2.4c0-0.1,0-0.3,0.1-0.4c0.1-0.1,1.6-2.4-0.3-4c-0.3-0.2-0.3-0.6-0.1-0.9
			c0.2-0.3,0.6-0.3,0.9-0.1c2.1,1.7,1.4,4.2,0.7,5.4c0.1,0.4,0.6,1.1,2.6,1c0.8,0,1.4-0.3,1.7-0.7c0.6-0.7,0.5-1.8,0.5-1.8
			c0-0.3,0.2-0.7,0.6-0.7c0.3-0.1,0.7,0.2,0.7,0.5c0,0.1,0.5,2.7,2.5,2.7c1.9,0,2.1-1.4,2.1-1.6c0-0.4,0.4-0.6,0.7-0.6
			c0.4,0,0.6,0.4,0.6,0.7c-0.1,0.9-1,2.7-3.4,2.7c-1.4,0-2.4-0.8-3-1.7c-0.1,0.2-0.2,0.4-0.4,0.6c-0.6,0.7-1.5,1.1-2.7,1.1
			C160.6,25.6,160.5,25.6,160.4,25.6z"/>
	</g>
	<g>
		<g>
			<path class="st4" d="M169.1,248.1c-0.1,0-4.4-0.8-4.4-0.8c-0.2,0-0.4-0.2-0.5-0.5l-0.3-1l-1.6,1.2c-0.1,0.1-0.3,0.1-0.4,0.1
				l-30-2c-0.3,0-0.5-0.2-0.6-0.5c-0.1-0.3,0.1-0.6,0.4-0.7l16.3-7.3c0.3-0.1,0.7,0,0.8,0.3c0.1,0.3,0,0.7-0.3,0.9l-13.9,6.3
				l27.2,1.8l2.1-1.6c0.2-0.1,0.4-0.2,0.6-0.1c0.2,0.1,0.4,0.2,0.4,0.4l0.4,1.6l3.2,0.6l1.1-7.9c0-0.3,0.4-0.6,0.7-0.5
				c0.4,0,0.6,0.4,0.6,0.7l-1.2,8.6c0,0.2-0.1,0.3-0.3,0.4C169.3,248,169.2,248.1,169.1,248.1z"/>
		</g>
	</g>
	<g>
		<path class="st4" d="M230.8,43.6c-2.9,0-5.1-0.7-6.6-2.1c-3.6-3.2-3-9.4-2.6-14.9c0.1-0.6,0.1-1.3,0.2-1.9c0-0.4,0.3-0.6,0.7-0.6
			c0.4,0,0.6,0.3,0.6,0.7c0,0.6-0.1,1.2-0.2,1.9c-0.5,5.2-1,11,2.1,13.8c2,1.8,5.4,2.2,10.4,1.3c0.3-0.1,0.7,0.2,0.8,0.5
			c0.1,0.3-0.2,0.7-0.5,0.8C233.9,43.4,232.3,43.6,230.8,43.6z"/>
	</g>
	<g>
		<path class="st4" d="M223,20.7c-0.4,0-0.6-0.3-0.6-0.6c0-4.4,1.7-8.6,1.8-8.7c0.1-0.3,0.5-0.5,0.8-0.3c0.3,0.1,0.5,0.5,0.3,0.8
			c0,0-1.7,4.1-1.7,8.2C223.6,20.5,223.3,20.7,223,20.7z"/>
	</g>
	<g>
		<path class="st4" d="M249.4,30.1c-1.1,0-2.1-0.4-3-1.2c-0.3-0.2-0.3-0.7,0-0.9c0.2-0.3,0.6-0.3,0.9,0c0.6,0.6,1.4,0.9,2.1,0.9
			c1,0,1.8-0.5,2.5-1.3c0.7-0.9,1.1-2,1.1-3.3c0-2.5-1.6-4.5-3.6-4.5c-1.4,0-3.3,1-3.9,2.5c-0.1,0.3-0.5,0.5-0.8,0.3
			c-0.3-0.1-0.5-0.5-0.3-0.8c0.8-2,3.3-3.2,5.1-3.2c2.7,0,4.9,2.6,4.9,5.8c0,1.5-0.5,3-1.4,4.1C252,29.4,250.8,30.1,249.4,30.1
			C249.5,30.1,249.4,30.1,249.4,30.1z"/>
	</g>
	<g>
		<path class="st4" d="M249.9,27.4c-0.1,0-0.3,0-0.4-0.1l-3.1-2.4c-0.1-0.1-0.2-0.3-0.2-0.5c0-0.2,0.1-0.4,0.2-0.5l3.3-3
			c0.3-0.2,0.7-0.2,0.9,0c0.2,0.3,0.2,0.7,0,0.9l-2.7,2.5l2.5,2c0.3,0.2,0.3,0.6,0.1,0.9C250.3,27.3,250.1,27.4,249.9,27.4z"/>
	</g>
	<g>
		<path class="st4" d="M227.5,28.9c-0.2,0-0.5-0.1-0.6-0.3c-0.4-0.4-0.6-1.4,0.8-8.5c0.1-0.4,0.1-0.6,0.1-0.7c0-0.4,0.2-0.6,0.6-0.6
			c0.3-0.1,0.7,0.3,0.7,0.6c0,0.1,0,0.1-0.2,1c-0.9,4.6-1.1,6.4-1.1,7.1c0.6-0.2,1.4-0.6,1.9-1c0.3-0.2,0.7-0.1,0.9,0.2
			c0.2,0.3,0.1,0.7-0.2,0.9C230.2,27.8,228.6,28.8,227.5,28.9C227.5,28.9,227.5,28.9,227.5,28.9z"/>
	</g>
	<g>
		<path class="st4" d="M231.1,32.5c-0.1,0-3.4-0.4-5.4-0.4c-0.4,0-0.6-0.3-0.6-0.7c0-0.4,0.3-0.6,0.6-0.6c2.1,0,5.4,0.4,5.5,0.4
			c0.4,0,0.6,0.4,0.6,0.7C231.7,32.2,231.4,32.5,231.1,32.5z"/>
	</g>
	<path class="st4" d="M235.5,24c-0.4,0-0.7-0.4-0.7-0.7l0.1-2c0-0.4,0.4-0.7,0.7-0.7c0.4,0,0.7,0.4,0.7,0.7l-0.1,2
		C236.2,23.7,235.8,24,235.5,24z"/>
	<g>
		<g>
			<path class="st4" d="M252.6,21.4c-0.1,0-0.2,0-0.3-0.1c-0.3-0.2-0.5-0.5-0.3-0.9c2.2-4.8,2.7-8.6,1.4-11.1
				c-1.2-2.4-3.7-2.8-3.7-2.8c-0.2,0-0.4-0.2-0.5-0.3c-3-5.4-11.8-5.8-19.2-3.9c-4.1,1.1-6.7,2.9-7.5,5.3c-1.3,3.5,1.3,7.2,1.3,7.2
				c0.2,0.3,0.1,0.7-0.2,0.9c-0.3,0.2-0.7,0.1-0.9-0.2c-0.1-0.2-3-4.3-1.5-8.4c1-2.8,3.9-4.9,8.4-6.1c7.2-1.9,16.9-1.9,20.5,4.2
				c0.8,0.2,3.1,1,4.3,3.5c1.5,2.9,1,7-1.4,12.2C253.1,21.3,252.8,21.4,252.6,21.4z"/>
		</g>
		<g>
			<path class="st4" d="M245,21.9c-0.4,0-0.7-0.3-0.6-0.7c0-0.1,0.5-5.7-1.1-10.1c-2.1-0.6-14.1-3.8-18.1,0.9
				c-0.2,0.3-0.6,0.3-0.9,0.1c-0.3-0.2-0.3-0.6-0.1-0.9c4.8-5.8,19.1-1.4,19.7-1.2c0.2,0.1,0.3,0.2,0.4,0.4c1.8,4.7,1.3,10.7,1.3,11
				C245.6,21.7,245.4,21.9,245,21.9z"/>
		</g>
	</g>
	<g>
		<g>
			<path class="st4" d="M223.8,119.5c-0.1,0-0.2,0-0.3-0.1c-0.3-0.1-0.4-0.5-0.3-0.8l25.5-74.8c0.1-0.2,0.2-0.4,0.4-0.4
				c0.2-0.1,0.4,0,0.6,0.1l7.5,6.2c0.1,0.1,0.2,0.2,0.2,0.4l3.1,14.2c0.1,0.3-0.1,0.7-0.5,0.8l-7.5,2l2.5,8.4c0.1,0.2,0,0.4-0.1,0.6
				l-30.6,43.1C224.2,119.4,224,119.5,223.8,119.5z M249.5,45.2l-23.7,69.7l27.9-39.3l-2.6-8.7c0-0.2,0-0.3,0.1-0.5
				c0.1-0.2,0.2-0.3,0.4-0.3l7.6-2l-2.9-13.4L249.5,45.2z"/>
		</g>
	</g>
	<g>
		<g>
			<path class="st4" d="M223.8,119.5c-0.3,0-0.6-0.2-0.6-0.5l-9.2-46.6c0-0.2,0-0.3,0.1-0.5l4.5-7.4l-5.2-3.7
				c-0.3-0.2-0.4-0.6-0.2-0.9l9.2-13.2c0.1-0.1,0.2-0.2,0.3-0.2l8.3-3.9c0.2-0.1,0.5-0.1,0.6,0.1c0.2,0.1,0.3,0.4,0.3,0.6l-7.5,75.6
				C224.4,119.3,224.1,119.5,223.8,119.5C223.8,119.5,223.8,119.5,223.8,119.5z M215.2,72.4l8.3,42.1l7-70.2l-7.2,3.3l-8.8,12.5
				l5.2,3.7c0.3,0.2,0.4,0.6,0.2,0.9L215.2,72.4z"/>
		</g>
	</g>
	<g>
		<path class="st4" d="M265.3,173.3c-0.4-0.1-21.9-5.9-41.8-15.1c-19-8.8-30.4-19.4-30.5-19.5c-0.2-0.2-0.3-0.5-0.1-0.7
			c0.1-0.1,6.4-13.8,10.5-40c0-0.2,3.6-20.3,5.5-28.6c0.1-0.3,0.4-0.6,0.8-0.5c0.3,0.1,0.6,0.4,0.5,0.8c-1.9,8.3-5.5,28.3-5.5,28.5
			c-3.7,23.8-9.3,37.4-10.4,39.9c2,1.8,12.8,11.1,29.8,19c17.6,8.1,36.5,13.6,40.6,14.8l-0.4-12.9c0-0.4,0.3-0.7,0.6-0.7
			c0.4,0,0.7,0.3,0.7,0.6l0.4,13.8c0,0.2-0.1,0.4-0.2,0.5C265.6,173.2,265.4,173.3,265.3,173.3z"/>
	</g>
	<g>
		<path class="st4" d="M279.6,167.5c-0.3,0-0.4-0.1-0.5-0.3l-13.8-21.5c-0.1,0.1-0.3,0.1-0.5,0.1c-0.4,0-0.6-0.4-0.6-0.7l6.7-50.1
			c0-0.2,0.1-0.4,0.3-0.5c0.2-0.1,0.4-0.1,0.6,0c5.5,2.4,8.9,6.1,10.1,11.2c3.6,15-13,36.4-15.5,39.5l13.3,20.7
			c3.9-3.9,26.6-28.4,21.9-62.3c-4.9-34.9-26.6-46.5-45-52.6c-0.3-0.1-0.5-0.5-0.4-0.8c0.1-0.3,0.5-0.5,0.8-0.4
			c18.7,6.3,40.9,18,45.9,53.7c5.3,37.5-22.5,63.7-22.8,63.9C279.9,167.4,279.7,167.5,279.6,167.5z M272.1,96l-6.5,48.1
			c3-3.8,18.4-24.3,15.1-38.2C279.6,101.5,276.7,98.2,272.1,96z"/>
	</g>
	<g>
		<path class="st4" d="M185.1,67.4c-0.5,0-1.1,0-1.6-0.1C169,66,171.5,36.5,171.6,35.3c0-0.4,0.3-0.6,0.7-0.6c0.4,0,0.6,0.3,0.6,0.7
			c0,0.3-2.5,29.4,10.6,30.7c6.8,0.6,12.3-3.2,19.2-8.1c5.4-3.8,11.6-8.1,20-11.4c0.3-0.1,0.7,0,0.8,0.4c0.1,0.3,0,0.7-0.4,0.8
			c-8.2,3.2-14.3,7.5-19.7,11.3C196.9,63.7,191.6,67.4,185.1,67.4z"/>
	</g>
	<g>
		<path class="st4" d="M184.8,92.5c-5.6,0-10.4-1.1-14.1-2.5c-23-8.4-18-51.1-17.7-52.9c0-0.3,0.3-0.5,0.6-0.6l18.7-1.9
			c0.3-0.1,0.7,0.2,0.7,0.6c0,0.4-0.2,0.7-0.6,0.7l-18.2,1.8c-0.5,4.9-3.7,43.5,17,51c7.7,2.8,19.8,4.6,33.9-2.8
			c0.9-0.5,1.1-0.6,1.5-0.3c0.2,0.1,0.3,0.4,0.3,0.6c0,0.3-0.3,0.5-0.6,0.5c-0.1,0.1-0.3,0.2-0.6,0.3
			C198,91.1,190.9,92.5,184.8,92.5z"/>
	</g>
	<g>
		<path class="st4" d="M232.2,264.3c-0.3,0-0.6-0.2-0.6-0.5c-0.1-0.8-13.9-78.9-15.1-85.6c-1.7-0.3-3.8-0.7-6.2-1.3
			c-11.1-2.5-27.8-6.3-31.3,3.6c-0.7,2.1-0.7,4.4-0.7,6.6l0,16.9c0,11.7,0,23.4,0,35.1c0,0.2-0.1,0.4-0.2,0.5
			c-0.1,0.1-0.3,0.2-0.5,0.2l-36.1-2.6c-0.3,0-0.6-0.3-0.6-0.7c0-0.5,0.8-54.4,2.6-73.2c1.8-19.1,29.5-23,49.8-25.9
			c0.4,0,0.7,0.2,0.7,0.5c0,0.4-0.2,0.7-0.5,0.7c-19.8,2.8-47,6.6-48.7,24.7c-1.7,17.6-2.5,66.5-2.6,72.5l34.8,2.5
			c0-11.5,0-23,0-34.4l0-16.9c0-2.2,0-4.7,0.8-7.1c3.8-11,21.2-7.1,32.8-4.5c2.6,0.6,4.9,1.1,6.5,1.3c0.1,0,0.1,0,0.2,0.1
			c0.3,0.1,0.3,0.1,15.5,86.5c0.1,0.4-0.2,0.7-0.5,0.7C232.3,264.3,232.2,264.3,232.2,264.3z"/>
	</g>
	<g>
		<path class="st4" d="M267.5,273.1c-0.3,0-0.6-0.3-0.6-0.6l-5.8-100.8c0-0.4,0.2-0.7,0.6-0.7c0.4,0,0.7,0.3,0.7,0.6l5.8,100.8
			C268.2,272.8,267.9,273.1,267.5,273.1C267.6,273.1,267.5,273.1,267.5,273.1z"/>
	</g>
	<g>
		<path class="st4" d="M196.7,25.6c-0.3,0-0.5-0.2-0.5-0.5c0-0.3,0.2-0.5,0.5-0.5l28.2-0.6c0.1,0,0.4-0.4,0.4-1.6
			c0-1.4-0.5-1.6-0.5-1.6L197,20.3c-0.3,0-0.5-0.2-0.5-0.5c0-0.3,0.2-0.5,0.5-0.5c0,0,28,0.6,28,0.6c0.2,0,1.4,0.3,1.4,2.5
			c0,2.5-1.2,2.5-1.4,2.5L196.7,25.6C196.7,25.6,196.7,25.6,196.7,25.6z"/>
	</g>
	<g>
		<path class="st4" d="M157,18.8h-10.6c-0.3,0-0.5-0.2-0.5-0.5c0-0.3,0.2-0.5,0.5-0.5H157c0.3,0,0.5,0.2,0.5,0.5
			C157.5,18.6,157.3,18.8,157,18.8z"/>
	</g>
	<g>
		<path class="st4" d="M196.3,26.9h-20.5c-0.3,0-0.5-0.2-0.5-0.5c0-0.3,0.2-0.5,0.5-0.5H196c0.2-0.5,0.5-1.7,0.5-3.6
			c0-2.1-0.3-3.2-0.5-3.6h-22.2c-0.3,0-0.5-0.2-0.5-0.5c0-0.3,0.2-0.5,0.5-0.5h22.5c0.2,0,0.3,0.1,0.4,0.2c0.1,0.1,0.7,1.2,0.7,4.4
			c0,2.8-0.7,4.2-0.7,4.3C196.7,26.8,196.5,26.9,196.3,26.9z"/>
	</g>
	<g>
		<path class="st4" d="M170.4,26.9h-23.9c-0.3,0-0.5-0.2-0.5-0.5c0-0.3,0.2-0.5,0.5-0.5h23.9c0.3,0,0.5,0.2,0.5,0.5
			C170.9,26.7,170.7,26.9,170.4,26.9z"/>
	</g>
	<g>
		<path class="st4" d="M146.5,26.9c-1.3,0-1.9-2.4-1.9-4.6c0-2.2,0.6-4.6,1.9-4.6s1.9,2.4,1.9,4.6C148.4,24.6,147.8,26.9,146.5,26.9
			z M146.5,18.8c-0.2,0-0.9,1.2-0.9,3.6c0,2.4,0.7,3.6,0.9,3.6c0.2,0,0.9-1.2,0.9-3.6C147.4,20,146.7,18.8,146.5,18.8z"/>
	</g>
	<g>
		<path class="st4" d="M217,178.3c-0.3,0-0.6-0.2-0.6-0.6l-1.6-12.7c0-0.4,0.2-0.7,0.6-0.7c0.4,0,0.7,0.2,0.7,0.6l1.6,12.7
			C217.7,177.9,217.4,178.2,217,178.3C217,178.3,217,178.3,217,178.3z"/>
	</g>
	<g>
		<path class="st4" d="M249.2,44.8c-0.4,0-0.6-0.3-0.6-0.7l0.3-14.7c0-0.4,0.3-0.6,0.6-0.6c0.4,0,0.6,0.3,0.6,0.7l-0.3,14.7
			C249.9,44.5,249.6,44.8,249.2,44.8z"/>
	</g>
	<g>
		<path class="st4" d="M238.7,51.5c-0.2,0-0.5,0-0.7,0c-5.6-0.4-7.5-3.7-7.6-3.8c-0.1-0.1-0.1-0.2-0.1-0.4l0.4-4.3
			c0-0.4,0.3-0.6,0.7-0.6c0.4,0,0.6,0.3,0.6,0.7l-0.4,4.1c0.4,0.6,2.2,2.7,6.5,3c2.7,0.2,7.9-1.1,9.1-1.8c0.3-0.2,0.7-0.1,0.9,0.3
			c0.2,0.3,0.1,0.7-0.3,0.9C246.3,50.3,241.6,51.5,238.7,51.5z"/>
	</g>
	<g>
		<path class="st4" d="M169.9,36c-0.2,0-0.5-0.1-0.6-0.4c-0.2-0.3,0-0.7,0.3-0.9c3.2-1.6,5.2-7.2,5.5-8.3c-0.7-2.3-2.2-5.9-3.1-6.6
			c-0.1-0.1-0.2-0.1-0.5,0c-0.8,0.6-1.6,2.5-1.3,3.4c0.4,1.5,0.9,3,0.9,3c0.1,0.3-0.1,0.7-0.4,0.8c-0.4,0.1-0.7-0.1-0.8-0.4
			c0,0-0.5-1.5-1-3c-0.4-1.4,0.6-4,1.8-4.8c0.7-0.5,1.4-0.4,2,0c1.6,1.2,3.4,6.8,3.6,7.4c0,0.1,0,0.3,0,0.4
			c-0.1,0.3-2.2,7.3-6.2,9.3C170.1,36,170,36,169.9,36z"/>
	</g>
	<g>
		<path class="st4" d="M157,37.3c-0.3,0-0.6-0.2-0.6-0.5l-1.5-9.9c0-0.4,0.2-0.7,0.5-0.7c0.3-0.1,0.7,0.2,0.7,0.5l1.5,9.9
			C157.6,36.9,157.4,37.2,157,37.3C157,37.3,157,37.3,157,37.3z"/>
	</g>
	<g>
		<path class="st4" d="M237.3,19.7h-3.2c-0.4,0-0.6-0.3-0.6-0.6c0-0.4,0.3-0.6,0.6-0.6h3.2c0.4,0,0.6,0.3,0.6,0.6
			C238,19.4,237.7,19.7,237.3,19.7z"/>
	</g>
	<g>
		<path class="st4" d="M226.8,19.7h-3.2c-0.4,0-0.6-0.3-0.6-0.6c0-0.4,0.3-0.6,0.6-0.6h3.2c0.4,0,0.6,0.3,0.6,0.6
			C227.4,19.4,227.1,19.7,226.8,19.7z"/>
	</g>
	<g>
		<path class="st4" d="M267.4,159.7c-3.1,0-6.4-0.9-8.7-1.6c-1.2-0.4-2.4-0.7-2.8-0.7c-0.8,0-1.9,0.4-3.1,0.7
			c-2.2,0.6-4.2,1.2-5.1,0.3c-0.3-0.2-0.4-0.6-0.4-0.9c0.1-1.5,2.7-3.8,3.8-4.7c0.4-1.4,2.3-7.6,4.6-9.1c2.5-1.7,9.6,0.9,10.4,1.2
			c0.3,0.1,0.5,0.5,0.4,0.8c-0.1,0.3-0.5,0.5-0.8,0.4c-2.8-1-7.7-2.3-9.2-1.4c-1.7,1.1-3.5,6.6-4.1,8.6c0,0.1-0.1,0.2-0.2,0.3
			c-1.9,1.5-3.5,3.4-3.4,3.9c0.4,0.3,2.6-0.3,3.8-0.6c1.3-0.4,2.4-0.7,3.4-0.7c0.7,0,1.8,0.3,3.2,0.7c3.6,1,9.7,2.8,13.3,0.2
			c0.3-0.2,0.7-0.1,0.9,0.2c0.2,0.3,0.1,0.7-0.1,0.9C271.5,159.3,269.5,159.7,267.4,159.7z"/>
	</g>
	<g>
		<path class="st4" d="M222.7,209.4h-45c-0.4,0-0.6-0.3-0.6-0.6s0.3-0.6,0.6-0.6h45c0.4,0,0.6,0.3,0.6,0.6S223,209.4,222.7,209.4z"
			/>
	</g>
	<g>
		<path class="st4" d="M241.8,65.9c-0.2,0-0.4-0.1-0.5-0.3l-4.2-13.7l-7.1,9.9c-0.2,0.2-0.5,0.3-0.7,0.1c-0.2-0.2-0.3-0.5-0.1-0.7
			l7.7-10.7c0.1-0.1,0.3-0.2,0.5-0.2c0.2,0,0.3,0.2,0.4,0.3l4.5,14.7c0.1,0.3-0.1,0.5-0.3,0.6C241.9,65.9,241.8,65.9,241.8,65.9z"/>
	</g>
</g>
<g>
	<path class="st4" d="M427.1,229.5h-20.8c-0.4,0-0.6-0.3-0.6-0.6s0.3-0.6,0.6-0.6h20.8c0.4,0,0.6,0.3,0.6,0.6
		S427.4,229.5,427.1,229.5z"/>
</g>
<g>
	<path class="st4" d="M135,324H89.8c-0.4,0-0.6-0.3-0.6-0.6c0-0.4,0.3-0.6,0.6-0.6H135c0.4,0,0.6,0.3,0.6,0.6
		C135.6,323.7,135.4,324,135,324z"/>
</g>
<g>
	<path class="st4" d="M107.1,336.4H92c-0.4,0-0.6-0.3-0.6-0.6c0-0.4,0.3-0.6,0.6-0.6h15.1c0.4,0,0.6,0.3,0.6,0.6
		C107.7,336.1,107.4,336.4,107.1,336.4z"/>
</g>
<g>
	<path class="st4" d="M483,377.1h-38.4c-0.4,0-0.6-0.3-0.6-0.6c0-0.4,0.3-0.6,0.6-0.6H483c0.4,0,0.6,0.3,0.6,0.6
		C483.6,376.8,483.4,377.1,483,377.1z"/>
</g>
<g>
	<path class="st4" d="M208.6,382.9h-38.4c-0.4,0-0.6-0.3-0.6-0.6s0.3-0.6,0.6-0.6h38.4c0.4,0,0.6,0.3,0.6,0.6S209,382.9,208.6,382.9
		z"/>
</g>
<g>
	<path class="st4" d="M511.6,313.6h-22.4c-0.4,0-0.6-0.3-0.6-0.6c0-0.4,0.3-0.6,0.6-0.6h22.4c0.4,0,0.6,0.3,0.6,0.6
		C512.3,313.3,512,313.6,511.6,313.6z"/>
</g>
<g>
	<path class="st4" d="M492.9,324.9H483c-0.4,0-0.6-0.3-0.6-0.6c0-0.4,0.3-0.6,0.6-0.6h9.9c0.4,0,0.6,0.3,0.6,0.6
		C493.6,324.6,493.3,324.9,492.9,324.9z"/>
</g>
<g>
	<path class="st4" d="M232.3,94.3c-0.3,0-0.5-0.3-0.5-0.6l4.4-29.6c0-0.1,0-0.1,0.1-0.2l3.2-5c0.1-0.2,0.4-0.3,0.7-0.1
		c0.2,0.1,0.3,0.4,0.1,0.7l-3.2,4.9l-4.4,29.5C232.8,94.1,232.5,94.3,232.3,94.3z"/>
</g>
<g>
	<path class="st4" d="M227.9,77.7c-0.4-0.1-0.5-0.4-0.5-0.6l4.4-14.1l-0.3-4.9c0-0.3,0.2-0.5,0.4-0.5c0.3,0,0.5,0.2,0.5,0.5l0.3,5
		c0,0.2-4.4,14.3-4.4,14.3C228.3,77.5,228.1,77.7,227.9,77.7z"/>
</g>
<g>
	<path class="st4" d="M236.7,64.7c-0.1,0-4.5-1.2-4.5-1.2c-0.3-0.1-0.4-0.3-0.3-0.6c0.1-0.3,0.4-0.4,0.6-0.3l4.4,1.2
		c0.3,0.1,0.4,0.3,0.3,0.6C237.1,64.5,236.9,64.7,236.7,64.7z"/>
</g>
<g>
	<path class="st4" d="M251.9,153.7c-0.2,0-0.4-0.1-0.5-0.3c-0.2-0.3-0.1-0.7,0.2-0.9c0,0,1-0.6,2.2-0.9c1.2-0.3,3.4,0.2,3.7,0.3
		c0.3,0.1,0.6,0.4,0.5,0.8c-0.1,0.3-0.4,0.6-0.8,0.5c-0.6-0.1-2.3-0.5-3.1-0.3c-1,0.2-1.8,0.7-1.8,0.7
		C252.1,153.7,252,153.7,251.9,153.7z"/>
</g>
<g>
	<path class="st4" d="M422.8,35.8H288.6c-0.3,0-0.6-0.3-0.6-0.6c0-0.3,0.2-0.6,0.6-0.7l29.6-4.1c0.4-1.7,2-6.8,9-6.8
		c0.2,0,0.5,0,0.8,0c3.1,0.2,5.3,0.7,6.6,1.7c0.3-2,1.1-4.6,3.5-7c3.7-3.7,10-5.6,18.6-5.6c0.7,0,1.4,0,2.2,0
		c9.9,0.3,16.4,2.6,19.5,6.7c1.3,1.8,1.7,3.7,1.8,5.3c1.6-2,4.3-4,9-4c1.2,0,2.5,0.1,3.8,0.4c10.3,2.1,10.7,9.2,10.6,11.4l19.5,2
		c0.3,0,0.6,0.3,0.6,0.7C423.4,35.6,423.1,35.8,422.8,35.8z M297.9,34.5h112.5l-7.8-0.8c-0.2,0-0.3-0.1-0.4-0.3
		c-0.1-0.1-0.2-0.3-0.1-0.5c0.1-0.3,1.4-8.4-9.5-10.6c-1.3-0.3-2.5-0.4-3.6-0.4c-6.3,0-8.7,4.2-9.4,6c-0.1,0.5-0.3,0.8-0.3,0.8
		c-0.1,0.3-0.5,0.5-0.8,0.4c-0.3-0.1-0.5-0.4-0.4-0.8c0,0,0.1-0.3,0.3-0.9c0.4-1.5,0.8-4.5-1.2-7.3c-2.8-3.8-9-5.9-18.5-6.2
		c-0.7,0-1.4,0-2.1,0c-8.3,0-14.2,1.8-17.6,5.2c-2.8,2.8-3.2,5.9-3.2,7.7c0.3,0.8,0.1,1.3,0,1.4c-0.1,0.3-0.4,0.4-0.7,0.4
		c-0.3,0-0.5-0.2-0.6-0.5c0,0-0.1-0.4-0.1-1.1c-0.3-0.6-1.6-1.9-6.6-2.2c-7.7-0.4-8.5,5.9-8.5,6.2c0,0.3-0.3,0.5-0.6,0.6L297.9,34.5
		z"/>
</g>
<g>
	<path class="st4" d="M460.6,108.2h-55.1c-0.3,0-0.6-0.3-0.6-0.6c0-0.3,0.2-0.6,0.5-0.7l16.4-2.8c0-0.9,0.3-2.7,1.6-4.2
		c1.7-1.9,4.5-2.8,8.5-2.7c9,0.2,10.7,4.4,11,5.8l17.8,4c0.3,0.1,0.5,0.4,0.5,0.7C461.2,108,460.9,108.2,460.6,108.2z M412.9,106.9
		h41.8l-12.6-2.8c-0.3-0.1-0.5-0.3-0.5-0.6c0-0.2-0.4-4.8-9.8-5.1l-0.6,0c-3.2,0-5.6,0.8-6.9,2.3c-1.5,1.7-1.3,3.8-1.3,3.8
		c0,0.3-0.2,0.7-0.5,0.7L412.9,106.9z"/>
</g>
<g>
	<path class="st4" d="M198.4,123.1h-96.7c-0.3,0-0.6-0.3-0.6-0.6c0-0.3,0.2-0.6,0.6-0.7l33.2-3.9c0.7-1.6,4.2-8,13.2-8
		c6.7,0,9.4,1.7,10.5,3.1c1.6-3.5,7.2-12.7,20.2-10.6c5.5,0.9,9.1,3,11,6.2c1.8,3.2,1.3,6.5,0.9,8l9.3,1.3c0.4,0,0.6,0.4,0.6,0.7
		c0,0.4-0.3,0.6-0.7,0.6l-10.1-1.4c-0.2,0-0.4-0.1-0.5-0.3c-0.1-0.2-0.1-0.4,0-0.6c0,0,1.5-4.1-0.6-7.7c-1.6-2.8-5-4.7-10.1-5.5
		c-14.8-2.4-19.3,10.9-19.3,11c-0.1,0.3-0.4,0.5-0.7,0.4c-0.3,0-0.5-0.3-0.6-0.6c0,0-0.7-3.3-9.9-3.3c-9.4,0-12.1,7.2-12.2,7.5
		c-0.1,0.2-0.3,0.4-0.5,0.4l-22.7,2.7h85.7c0.4,0,0.6,0.3,0.6,0.6S198.8,123.1,198.4,123.1z"/>
</g>
<text transform="matrix(0.9992 3.943999e-02 -3.943999e-02 0.9992 200.7416 342.4895)" class="st2 st5 st6">404</text>
<g>
	<path class="st7" d="M230.4,328.4l-0.2,5.9l-3.8-0.1l-0.3,7.3l-7.7-0.3l0.2-7.3l-14.2-0.6l0.2-5.2l10.4-21.7l6.6,2.8l-8.9,18.6
		l6.2,0.2l1.2-7.9l6.8,0.3l-0.3,8L230.4,328.4z"/>
	<path class="st7" d="M256.2,312.7c2.1,3.1,3,7.5,2.8,13.2c-0.2,5.7-1.5,10-3.8,12.9c-2.3,3-5.5,4.4-9.6,4.2c-4.1-0.2-7.2-1.8-9.3-5
		c-2.1-3.1-3-7.5-2.8-13.2c0.2-5.7,1.5-10,3.8-12.9c2.3-2.9,5.5-4.3,9.6-4.2C251,307.9,254.1,309.6,256.2,312.7z M243.9,314.6
		c-0.7,0.7-1.2,1.9-1.6,3.6c-0.4,1.7-0.6,4-0.8,7c-0.1,3-0.1,5.4,0.2,7.1c0.2,1.7,0.7,3,1.3,3.7c0.6,0.8,1.5,1.2,2.7,1.2
		c1.1,0,2-0.3,2.7-1c0.7-0.7,1.2-1.9,1.6-3.6c0.4-1.7,0.6-4.1,0.8-7.1c0.1-3,0.1-5.4-0.2-7.1c-0.2-1.7-0.7-2.9-1.3-3.7
		c-0.6-0.7-1.5-1.1-2.7-1.2C245.5,313.6,244.6,313.9,243.9,314.6z"/>
	<path class="st7" d="M287.8,330.7l-0.2,5.9l-3.8-0.1l-0.3,7.3l-7.7-0.3l0.2-7.3l-14.2-0.6l0.2-5.2l10.4-21.7l6.6,2.8l-8.9,18.6
		l6.2,0.2l1.2-7.9l6.8,0.3l-0.3,8L287.8,330.7z"/>
</g>
</svg>
