<svg
        xmlns="http://www.w3.org/2000/svg"
        xmlns:xlink="http://www.w3.org/1999/xlink"
        width="36px" height="36px">
    <path fill-rule="evenodd"  fill="rgb(100, 63, 237)"
          d="M23.360,35.176 C13.882,38.124 3.772,32.819 0.820,23.350 C-2.130,13.880 3.179,3.779 12.657,0.830 C17.271,-0.605 22.164,-0.151 26.435,2.109 C27.167,2.497 27.447,3.404 27.059,4.135 C26.671,4.867 25.763,5.146 25.031,4.758 C21.472,2.875 17.394,2.496 13.549,3.692 C5.651,6.149 1.226,14.568 3.685,22.459 C6.144,30.349 14.570,34.771 22.468,32.314 C30.366,29.857 34.791,21.438 32.332,13.548 C32.086,12.758 32.528,11.917 33.319,11.671 C34.109,11.425 34.951,11.866 35.197,12.656 C38.148,22.126 32.838,32.228 23.360,35.176 ZM10.136,17.569 L12.314,15.319 L16.619,19.480 L29.300,6.034 L31.617,8.141 L16.762,23.973 L10.136,17.569 Z"/>
</svg>
