<?xml version="1.0" encoding="utf-8"?>
<!-- Generator: Adobe Illustrator 22.0.1, SVG Export Plug-In . SVG Version: 6.00 Build 0)  -->
<svg version="1.0" id="Слой_1" xmlns="http://www.w3.org/2000/svg" xmlns:xlink="http://www.w3.org/1999/xlink" x="0px" y="0px"
	 width="40px" height="41px" viewBox="0 0 40 41" style="enable-background:new 0 0 40 41;" xml:space="preserve">
<style type="text/css">
	.st0{fill:#F4F3FF;}
	.st1{fill:#9898EA;}
</style>
<path class="st0" d="M19.9,0.5c10.9,0,19.8,8.9,19.8,19.8c0,10.9-8.9,19.8-19.8,19.8C9,40.1,0.1,31.2,0.1,20.3
	C0.1,9.4,9,0.5,19.9,0.5z"/>
<path class="st1" d="M29.7,14.1c-0.5-0.5-1.3-0.5-1.8,0l-9.8,9.8l-5-5c-0.5-0.5-1.3-0.5-1.8,0c-0.5,0.5-0.5,1.3,0,1.8l5.9,5.9
	c0.3,0.3,0.5,0.4,0.9,0.4c0.4,0,0.6-0.1,0.9-0.4l10.7-10.7C30.2,15.3,30.2,14.6,29.7,14.1z"/>
</svg>
