<svg
 xmlns="http://www.w3.org/2000/svg"
 xmlns:xlink="http://www.w3.org/1999/xlink"
 width="30px" height="32px" viewBox="0 0 30 32">
<path fill-rule="evenodd"  fill="rgb(152, 152, 234)"
 d="M4.338,31.559 L4.338,27.686 L0.498,27.686 L0.498,0.838 L10.099,0.838 L15.858,0.838 L25.459,0.838 L25.459,4.711 L29.298,4.711 L29.298,31.559 L4.338,31.559 ZM23.538,2.774 L15.858,2.774 L10.099,2.774 L2.419,2.774 L2.419,25.750 L17.778,25.750 L17.778,19.942 L23.538,19.942 L23.538,2.774 ZM19.698,21.877 L19.698,24.381 L22.181,21.877 L19.698,21.877 ZM27.378,6.647 L25.459,6.647 L25.459,21.311 L19.135,27.686 L6.258,27.686 L6.258,29.622 L27.378,29.622 L27.378,6.647 ZM6.258,8.970 L19.698,8.970 L19.698,10.906 L6.258,10.906 L6.258,8.970 ZM17.778,14.779 L6.258,14.779 L6.258,12.842 L17.778,12.842 L17.778,14.779 ZM13.939,18.651 L6.258,18.651 L6.258,16.715 L13.939,16.715 L13.939,18.651 Z"/>
</svg>
