<?xml version="1.0" encoding="utf-8"?>
<!-- Generator: Adobe Illustrator 22.0.1, SVG Export Plug-In . SVG Version: 6.00 Build 0)  -->
<svg version="1.1" id="Слой_1" xmlns="http://www.w3.org/2000/svg" xmlns:xlink="http://www.w3.org/1999/xlink" x="0px" y="0px"
	 width="764.5px" height="565.7px" viewBox="0 0 764.5 565.7" style="enable-background:new 0 0 764.5 565.7;" xml:space="preserve"
	>
<style type="text/css">
	.st0{fill:#EDA58A;}
	.st1{fill-rule:evenodd;clip-rule:evenodd;fill:#FFFFFF;}
	.st2{fill:#48484B;}
	.st3{fill-rule:evenodd;clip-rule:evenodd;fill:#D4D4D4;}
	.st4{fill-rule:evenodd;clip-rule:evenodd;fill:#48484B;}
	.st5{fill:#272728;}
	.st6{fill-rule:evenodd;clip-rule:evenodd;fill:#272728;}
	.st7{fill-rule:evenodd;clip-rule:evenodd;}
	.st8{fill:#FFFFFF;}
	.st9{fill:#9898EA;}
</style>
<path class="st0" d="M131,513.4C379.3,606.6,700.5,577,750.2,409c57.1-193.1-68.7-272.1-178.3-274.3
	c-107.1-2.2-148.1,99.6-196.1,129.1c-38.2,23.5-77.7,25.4-194.4,8.4C-20.7,242.7-76.7,435.4,131,513.4z"/>
<g>
	<g>
		<path class="st1" d="M335.1,106.3c7,0,12.7,5.7,12.7,12.7c0,7-5.7,12.7-12.7,12.7c-7,0-12.7-5.7-12.7-12.7
			C322.4,112,328.1,106.3,335.1,106.3z"/>
	</g>
</g>
<path class="st1" d="M455,525.9c-3.3-5.8-11.5-8.2-11.5-8.2s-9.8-171.3-11.2-191.8c-1.4-20.5-1.4-43.6-2.6-57
	c-1.1-13.4-6.1-38.1-6.1-38.1s8.3,0.8,13.7,1.3c5.3,0.5,13.3-6.9,17.3-17.8c4.1-11,0.8-50.4-0.4-59.9c-1.3-9.5-5.5-13-11.3-15.9
	c-5.7-3-25.1-5.5-25.1-5.5l-5.6-4.7l-2-4c-0.3,0-0.5-0.1-0.8-0.1c-0.9,0.2-1.9,0.3-2.8,0.4c-1.5,1.2-3.2,2-4.9,2.8
	c-1.8,0.8-3.5,1.2-5.5,0.7c-0.8-0.2-1.6-0.6-2.3-1.1c-0.2,0-0.3-0.1-0.5-0.1l-2.5,4.4l-5.8,1.8c0,0-6.6,0-19.6,4.7
	c-11.3,4.1-14.9,19-14.9,19s-4.7,11.7-8.6,20.7c-3.9,9-10,27.8-8.7,36c1.3,8.2,9.4,10.1,14.2,10.5c4.8,0.4,17.2-3.1,17.2-3.1
	s-1.4,11.4-1.9,30.5c-1.8,76-5.6,265.4-5.6,265.4s-5.4,1.8-9.6,5c-4.2,3.2-8,13.6-8,13.6l46.5-1.1l-0.1-31.9l2.4,0.3l7.7-163.8
	l15.1,163.3l2,0.4l2.3,32.3l43.7-0.1C459.1,534.7,458.3,531.8,455,525.9z"/>
<g>
	<path class="st2" d="M452.7,148.9c-2.7-12.8-29.5-14.6-29.5-14.6s-1.6,3.2-5.1,6.4c-3.5,3.2-6.7,4-6.7,4l-9,5.6l-1.4-3.7
		c0,0-3.7,0.6-6.9,0.3c-3.2-0.3-4-0.3-4-0.3l-1.9,1.9c0,0-2.1-4.5-2.9-7.5c-0.8-2.9,0.3-7.2,0.3-7.2s-14.9-1-26.1,8.3
		c-6.8,5.7-20.8,41.2-24.8,57.4c-4,16.2,1.4,20.8,8.3,22.9c1.6,0.5,3.7,0.7,6,0.8c-1.1-1.1-3.6-4.5-4.2-12.9
		c-0.7-10.9,5.9-15.3,5.9-15.3l7.1,1.3c0,0,0.2,0,1.8-4.8c1.5-4.9,7.8-4.8,15.4-3.6c7.6,1.3,31.2,9.4,31.2,9.4s11.3-15.1,14.8-19.6
		c3.5-4.5,11.6-2.5,15.3-0.7c3.8,1.8,7.9,7.4,8.8,9.6c1,2.2-1.1,3-2.9,2.9c-1.7,0-8.5-6.7-8.5-6.7h-6.7c0,0,11.9,3.9,11.5,15.4
		c-0.1,4.5-2.3,9.3-6.9,10.1c-4.6,0.8-10.2-7.2-10.2-7.2h-7.2c0,0-2.4,2.9-4.2,10.4c-1.7,7.4,1.8,15.9,1.7,15.9c0,0-4.3-0.2-9.7-2.7
		c-5.4-2.5-17.8-7.6-17.8-7.6s-8.3,2.4-16.2,3.9c-5.5,1.1-10.9,1.8-14.5,2.3c6.1-0.3,11.9-1.2,11.9-1.2s-2.4,13-2.4,19.1
		c0,5.7-0.2,20.7-0.5,21.8c1.9-0.7,66.2,0,66.2,0l-5.6-32.7c0,0,16.2,5.2,23.1-1.2c6.9-6.4,10.2-21.4,10.2-32.6
		C456.7,188.8,455.4,161.7,452.7,148.9z"/>
</g>
<g>
	<g>
		<path class="st3" d="M386.3,513.9l0.3,7.5c0,0-1.7,0.5-3.4,3.4c-1.7,2.9-3.3,5.3-3.3,5.3l-19.7,0.4c0,0-2.5-4.1-4.7-5.8
			c-2.2-1.7-5.5-3.7-5.5-3.7l6.1-3.1l0.4-3.8L386.3,513.9z"/>
	</g>
	<g>
		<path class="st3" d="M413.8,512l0.5,6.1c0,0,2.3,2.4,3.9,4.9c1.7,2.5,3.7,5.9,3.7,5.9l3.7,0.3c0,0,3.5-7.4,7.2-8.3
			c3.8-0.9,12.5-1.5,12.5-1.5l-2-1.9l-0.4-6.7L413.8,512z"/>
	</g>
</g>
<g>
	<g>
		<path class="st4" d="M386.3,513.9l0.3,7.5c0,0-1.7,0.5-3.4,3.4c-1.7,2.9-3.3,5.3-3.3,5.3l-19.7,0.4c0,0-2.5-4.1-4.7-5.8
			c-2.2-1.7-5.5-3.7-5.5-3.7l6.1-3.1l0.4-3.8L386.3,513.9z"/>
	</g>
	<g>
		<path class="st4" d="M413.8,512l0.5,6.1c0,0,2.3,2.4,3.9,4.9c1.7,2.5,3.7,5.9,3.7,5.9l3.7,0.3c0,0,3.5-7.4,7.2-8.3
			c3.8-0.9,12.5-1.5,12.5-1.5l-2-1.9l-0.4-6.7L413.8,512z"/>
	</g>
</g>
<g>
	<g>
		<path d="M360.3,531.6c-0.4,0-0.7-0.2-0.9-0.5c0,0-2.4-4-4.4-5.5c-2.1-1.7-5.3-3.6-5.4-3.6c-0.3-0.2-0.5-0.6-0.5-1
			c0-0.4,0.2-0.7,0.6-0.9l5.6-2.8l0.4-3.2c0.1-0.5,0.5-1,1.1-1l29.7-0.2c0.6,0.1,1.1,0.5,1.1,1l0.3,7.5c0,0.5-0.3,0.9-0.8,1.1
			c0,0-1.3,0.5-2.7,2.9c-1.7,2.9-3.3,5.2-3.3,5.3c-0.2,0.3-0.5,0.5-0.9,0.5L360.3,531.6C360.3,531.6,360.3,531.6,360.3,531.6z
			 M352.3,521.1c1.1,0.7,2.7,1.7,3.9,2.7c1.9,1.5,3.8,4.4,4.6,5.6l18.6-0.4c0.5-0.8,1.7-2.6,2.9-4.7c1.2-2.1,2.4-3.1,3.2-3.5
			l-0.2-5.7l-27.7,0.2l-0.3,2.9c0,0.4-0.3,0.7-0.6,0.8L352.3,521.1z"/>
	</g>
	<g>
		<path d="M425.7,530.3c-0.1,0-3.8-0.3-3.8-0.3c-0.3,0-0.7-0.2-0.8-0.5c0,0-2-3.4-3.7-5.9c-1.6-2.4-3.8-4.7-3.8-4.7
			c-0.2-0.2-0.3-0.4-0.3-0.7l-0.5-6.1c0-0.3,0.1-0.6,0.3-0.8c0.2-0.2,0.5-0.4,0.8-0.4l29.2-1.2c0.7,0,1.1,0.4,1.1,1l0.4,6.2l1.7,1.6
			c0.3,0.3,0.4,0.7,0.3,1.1c-0.1,0.4-0.5,0.7-0.9,0.7c-0.1,0-8.7,0.6-12.3,1.5c-2.7,0.7-5.6,5.8-6.5,7.7
			C426.5,530.1,426.1,530.3,425.7,530.3z M422.6,527.9l2.4,0.2c1-2,4.1-7.4,7.6-8.2c2.6-0.6,7.4-1.1,10.3-1.4l-0.2-0.2
			c-0.2-0.2-0.3-0.4-0.3-0.7l-0.4-5.6l-27.1,1.1l0.4,4.6c0.7,0.7,2.4,2.7,3.8,4.8C420.4,524.4,422,526.9,422.6,527.9z"/>
	</g>
</g>
<g>
	<g>
		<path class="st1" d="M410.7,262.5c0,0,7.4,8.1,9.9,11.3c5.7,7.1,10.2,15.8,10.2,15.8s-0.3-8.7-0.4-14.5
			c-0.2-6.4-2.1-12.6-2.1-12.6L410.7,262.5z"/>
	</g>
	<g>
		<path class="st1" d="M366.1,261.3c0,0,0.3,10.8-1.1,14.7c-1.4,3.8-2,8.1-2,8.1l-0.1-22.1L366.1,261.3z"/>
	</g>
</g>
<g>
	<g>
		<path d="M430.8,290.4c-0.3,0-0.6-0.2-0.8-0.5c0-0.1-4.6-8.7-10.1-15.6c-2.5-3.1-9.8-11.1-9.9-11.2c-0.2-0.3-0.3-0.6-0.2-1
			c0.1-0.3,0.5-0.5,0.8-0.5l17.6-0.1c0.4,0,0.8,0.3,0.9,0.6c0.1,0.3,1.9,6.4,2.2,12.9c0.2,5.8,0.4,14.5,0.4,14.5
			c0,0.4-0.3,0.8-0.7,0.9C431,290.4,430.9,290.4,430.8,290.4z M412.7,263.4c2.3,2.5,6.7,7.4,8.6,9.8c3.5,4.4,6.7,9.5,8.5,12.7
			c-0.1-3.1-0.2-7.4-0.3-10.8c-0.2-5-1.4-10-1.9-11.8L412.7,263.4z"/>
	</g>
	<g>
		<path class="st5" d="M363,285c-0.5,0-0.9-0.4-0.9-0.9l-0.1-22.1c0-0.4,0.3-0.8,0.7-0.9l3.2-0.7c0.3-0.1,0.5,0,0.7,0.2
			c0.2,0.2,0.3,0.4,0.3,0.7c0,0.4,0.3,11.1-1.1,15c-1.3,3.7-1.9,7.9-1.9,7.9C363.8,284.6,363.5,285,363,285z M363.8,262.7l0.1,13.8
			c0.1-0.3,0.2-0.5,0.3-0.8c1.1-3,1.1-10.5,1.1-13.3L363.8,262.7z"/>
	</g>
</g>
<g>
	<path class="st6" d="M459.2,531.8c-2.7-7.5-7.9-12-15.1-14.9c-1.9-36.1-4.4-72-6.3-108.1c-1.2-24.3-2.7-47.9-4-72.3
		c-0.8-15.3-1.7-30.4-2-45.6c-0.1-3.2,0-6.3-0.1-9.4c-0.3-5.9-1-11.6-1.8-17.3c-1.5-11.3-3.3-22.1-5.3-32.8c3.1,0.5,6.1,1.1,9.5,1.2
		c10.8,0.3,15.8-5.8,19-13.3c2.1-5.1,3.4-11,3.9-17.6c0.5-6.7,0.2-13.9-0.2-20.9c-0.4-6.6-1-13.3-1.4-20.1c-0.2-3.5-0.5-6.7-1.2-9.5
		c-3.7-14.5-19.1-16.7-35-18.8c-0.7-0.7-1.6-1.2-2.4-1.8c-0.8-0.6-1.7-1.2-2.5-1.7c-1.7-1.2-2.7-2.9-3.9-4.6c0,0,0,0,0-0.1
		c-0.4,0-0.8-0.1-1.2-0.2c-0.7,0.1-1.4,0.3-2.1,0.4c-3,2.3-6.5,4.2-10.5,5.5c-0.5-0.7-1.1-1.4-1.6-2.2c-0.4-0.2-0.9-0.4-1.2-0.7
		c-0.5-0.1-1-0.3-1.4-0.6c-0.3,0.6-0.8,1.2-1.1,1.7c-0.4,0.8-0.8,1.6-1.1,2.2c-1.4,0.4-2.7,1.3-4.1,1.7c-0.8,0.2-1.8,0.1-2.7,0.2
		c-0.9,0.1-1.7,0.2-2.6,0.4c-13.5,2-24,7-28.7,17.6c-1.2,2.6-2,5.5-3.2,8.4c-2.1,5.6-4.5,11.1-6.7,16.5c-3.2,8-6.8,16.7-8.7,26
		c-0.7,3.3-1.3,6.8-1.2,10.4c0.2,7.2,4.7,10.9,10.8,12.4c6.6,1.6,14-0.3,20.6-1.4c-0.4,8.7-1.9,17.5-1.9,26.5c0,3.1,0,6.2-0.1,9.4
		c-0.3,6.1-0.2,12.3-0.4,18.5c-0.1,3.1-0.1,6.2-0.1,9.4c-0.1,9.3-0.5,18.4-0.6,27.7c0,6.2-0.2,12.4-0.4,18.6
		c-0.2,6.2-0.1,12.4-0.4,18.6c-0.2,6.2-0.4,12.4-0.4,18.6c-0.1,12.3-0.9,24.6-0.9,37c0,6.2-0.4,12.3-0.4,18.5
		c0,6.2-0.2,12.4-0.4,18.6c-0.8,24.7-1.2,49.3-2.2,73.6c-7.3,3-12.6,7.8-15.7,15c-0.4,0.9-1.3,2.5-0.9,3.4c0.4,1.1,2.1,0.7,3.5,0.7
		c1-0.1,2.1-0.1,2.9-0.1c12.1-0.1,23.8-0.6,35.5-0.6c1.2,0,5.1,0.3,5.8-0.4c0.5-0.5,0.4-2.6,0.4-3.9c0-1.5,0.1-2.8,0.1-3.9
		c0.3-6.8,0.2-12.9,0.5-19.6c0-0.8-0.1-3.3,0.1-3.9c0.2-0.5,1-0.4,1.2-1c0.4-1,0.2-3.2,0.3-4.7c2.6-48.7,4.5-98.7,7.1-146.9
		c4.4,48.1,8.7,97.9,13.3,146.3c0.2,2.5-0.3,5.8,2.2,5.8c0.6,9.7,1.4,18.1,2.1,27.4c0.1,1.2-0.1,2.9,0.4,3.9
		c0.6,1.3,4.4,0.7,6.4,0.7c10.9,0.4,22.1,0.1,33.4,0.1c1.6,0,4.5,0.3,5.3-0.1C460.6,535.2,459.7,533,459.2,531.8z M427.4,261.9
		c-21,0.2-42.6,0-63.5,0.1c0.3-6.9,0.1-13.8,0.6-20.4c0.5-6.6,1.1-13,1.5-19.5c6.3-1.4,12.5-3,18.3-4.9
		c11.4,5.8,23.7,10.7,37.9,13.7C424.2,241.1,425.8,251.5,427.4,261.9z M424.9,182.8c7,2.2,12.3,7,12.2,15.7
		c-3.4-5.2-7.6-10.3-14.5-12.5c-1-0.3-3.7-1.5-3.7,0.3c0,0.9,1.6,1.1,2.7,1.4c6.7,2.2,10.6,6.6,14,12.3c0.2,0.4,0.7,1,0.7,1.3
		c0,0.5-0.5,1.2-0.7,1.7c-0.3,0.5-0.6,0.9-0.9,1.4c-3.6-5.4-8.2-10.3-15.2-12.8c-0.9-0.3-3.6-1.6-3.7,0.1c-0.1,1.1,1.5,1.3,2.4,1.6
		c6.9,2.3,11.5,7,15,12.7c-1.1,0.7-2.3,1.4-4,0.9c-1.6-0.5-3.2-1.9-4.3-3c-0.5-0.5-1.2-1.2-1.7-1.9c-0.6-0.8-1.1-1.8-1.7-2
		c-0.8-0.3-2.1-0.1-3-0.1c-1,0-2.1,0.1-3.1-0.1c-0.7-0.1-1.6-0.6-2.4-0.9c-1.9-0.7-3.5-1.6-5.7-2.2c2.3-3.8,5.5-7.7,8.6-11.8
		c1.6-2.1,2.8-4.2,4.5-5.8c1.6-1.6,4.5-2.8,7.5-3c6.6-0.5,10.5,3.2,13.3,6.8c0.9,1.2,2.1,2.6,2.2,4.4c-1.3,1.3-2.7-0.1-3.7-0.9
		c-1.4-1.2-2.5-2.2-4-3.4c-0.6-0.5-1.5-1.5-2.1-1.6c-0.8-0.2-2,0.1-3,0.2c-0.9,0.1-1.9,0.2-2.8,0.4c-0.9-0.4-1.8-0.7-2.8-1
		c-0.8-0.2-2.5-0.8-2.5,0.6C422.3,182.2,424,182.5,424.9,182.8z M407.5,199.3c1-0.3,1.9,0.2,3,0.6c0.7,0.3,1.6,0.5,1.9,0.9
		c0.2,0.4-0.7,1.7-1.1,2.4c-1.3,2.6-2.1,5.7-2.5,8.9c-0.6,4.9-0.3,9.8,1.4,13.2c-1.3-0.3-2.4-0.7-3.4-1.1c-1.1-0.4-2.4-0.6-3.5-1.2
		c-2.3-1.2-3.6-4.8-3.8-8.1C398.9,208.1,402.1,200.6,407.5,199.3z M399.2,221.6c-15.7-6.4-30.2-14.6-40.7-26.5
		c0.6-2.9,1.3-5.5,3.5-6.7c1.5-0.8,3.9-0.7,6-0.5c6.2,0.5,11.8,2,16.8,3.5c7.3,2.1,14,4.3,20.4,6.6
		C398.8,201,394.9,213.1,399.2,221.6z M408.9,126c1.2,1.2,1.8,2.9,3,4c1.5,1.3,3.6,2,5,3.5c-3.1,6.8-7.9,12.1-14.5,15.4
		c-1.6-5.7-3.4-11.3-5-16.9C401.9,130.6,405.6,128.4,408.9,126z M386.4,134.2c0.9-0.3,1.7-0.7,2.7-1.1c0.9-0.4,2-0.6,2.7-1.1
		c0.9-0.7,0.9-2,1.7-3c0.6,1,1.3,1.9,2.1,2.7c-2.5,4.9-5.1,9.7-7.6,14.7C386.2,143.5,385.8,138.6,386.4,134.2z M346.4,222.2
		c-5.3-0.5-10.1-2.8-11.4-7.4c-0.7-2.6-0.5-5.8-0.1-8.6c0.4-2.8,0.9-5.3,1.5-7.8c3.9-15,10-26.9,15.1-40.8c1.7-4.7,3.2-9,6.2-12.4
		c5.8-6.7,15.3-9.6,26.4-10.9c-0.8,4.5,0.1,9.4,1.6,12.7c0.4,0.9,1,2.8,2.1,2.8c1.1,0,2.1-2.6,2.4-3.3c2-3.9,3.9-7.6,5.8-11.4
		c1.4,4,2.4,8.2,3.7,12.5c0.3,1,0.8,3.5,1.7,3.7c0.8,0.1,2.2-0.9,3-1.3c6.5-3.6,11.1-8.9,14.3-15.6c13.1,1.9,26.3,3.4,31.6,13
		c2.7,5,2.6,12.2,3.1,19.2c0.5,7.1,1.1,13.8,1.4,20.9c0.5,14.9-0.7,28.6-7.3,37c-1.7,2.1-3.8,3.8-6.3,4.8c-2.7,1.1-6.3,1.2-9.9,0.9
		c-6.5-0.7-12.5-2.4-18.4-3.9c-2.6-2.8-3-8.1-2.5-13c0.5-4.8,1.8-9.1,4-11.9c0.9,0,1.8,0,2.9,0.1c1,0,2.2-0.2,3,0.1
		c0.4,0.2,0.7,0.8,1,1.2c0.9,1.2,2.2,2.4,3.2,3.4c1.5,1.3,4.3,3.2,7.3,2.3c4.4-1.3,7.6-7.2,6.8-13.2c-0.7-5.7-4.2-9.7-7.8-12.2
		c0.6,0.1,1.1-0.3,1.7-0.1c0.5,0.1,1.2,0.9,1.8,1.4c0.7,0.6,1.2,1,1.8,1.4c1.6,1.4,2.8,3.1,4.9,3.5c1.9,0.4,3.6-0.4,4-2
		c0.5-2.1-1.2-4-2.1-5.3c-3.2-4.3-6.8-8.1-13.8-8.4c-0.1-0.3,0.4-0.4,0.6-0.6c1.3-1.1,2.5-2.1,4-3.2c0.6-0.4,1.3-0.7,1.3-1.5
		c-0.1-2-2.6,0.1-3.2,0.5c-2.2,1.6-4.5,3.6-6.4,5.1c-5.9,0.9-8.6,5.5-11.5,9.4c-3,4-6,8.1-8.8,12.1c-6.4-2.2-12.5-4.4-19.1-6.3
		c-6.5-1.9-13.3-3.7-21.5-3.8c-1.1-4.6-1.7-9.4-1.4-15.3c0.2-4.1,0.7-7.5,0.9-11.7c0.1-1.3,0.4-2.9-1.1-2.8c-1.2,0.1-1,1.6-1.1,3.1
		c-0.3,4.1-0.8,7.6-0.9,11.8c-0.2,5.8,0.4,10.8,1.5,15.2c-3.8,1-5.5,4.1-6.1,8.3c-2.3,0-4.2-1-6.2-0.7c-2.4,0.5-3.7,2.8-4.7,5
		C342.6,204.7,342.3,217,346.4,222.2C346.5,222.1,346.5,222.5,346.4,222.2z M353,222.1c-1.2,0.1-2.7,0.4-3.7,0.1
		c-1.6-0.6-2.7-3.3-3.2-5.3c-1.7-6.7-0.8-16.7,2.9-20.5c0.2-0.2,0.9-0.8,1.2-0.8c0.8,0.1,2,0.2,3.2,0.4c1.1,0.1,2.4,0.1,3.1,0.4
		c0.8,0.3,1.4,1.6,2,2.2c-2.2,7.3-1,18.2,3.2,22.2C358.7,221.3,356,221.8,353,222.1z M361.2,216.7c-1.9-4.2-2.4-11.3-1.1-16.5
		c6.3,6.1,13.6,11.2,21.6,15.6c-4,1.4-8.3,2.5-12.9,3.5c-1.4,0.3-3.2,1.1-4.5,0.8C363,219.7,361.8,218,361.2,216.7z M384.6,533.3
		c-13.7,0.1-28.8,0.5-43.1,0.6c2-4.8,5.1-9,9.2-11.5c1.7,1.1,3.5,2.3,5.1,4c0.6,0.7,1.3,1.6,2,2.5c0.7,0.9,1.4,2.1,2.1,2.4
		c1.1,0.4,3.5,0.1,5,0.1H375c1.5,0,3.7,0.3,5-0.1c0.7-0.2,0.9-1.1,1.3-1.9c1-2,2.2-4.2,3.6-5.5C384.7,527.1,384.7,530.2,384.6,533.3
		z M385,519.9c-0.2,0.7-1.1,1.5-1.7,2.2c-1.7,2.2-3.2,4.4-4.4,7.1c-6.1,0.1-11.9-0.1-18-0.1c-2.2-3.1-4.7-6-8.1-8
		c0.7-0.5,1.5-0.9,2.4-1.3c0.7-0.3,2-0.7,2.4-1.4c0.5-1,0-2.4,0.2-3.9c8.8-0.1,18.2-0.1,27.3-0.1C384.8,516.4,385.4,518.3,385,519.9
		z M385.2,512.1c-9.1,0.1-18.2,0.1-27.3,0.1c0.1-2.8,0.2-5.6,0.3-8.4c0-0.1,0-0.2,0.1-0.2c9,0.1,18.2,0.1,27.2,0.3
		C385.4,506.6,385.2,509.3,385.2,512.1z M412.4,501.3c-1.1-8.6-1.6-17.3-2.4-26c-2.5-26-4.7-51.9-7.1-78.1
		c-2.8-30.3-5.4-60.6-8.3-91.1c-0.2-2.2-0.4-4.4-0.6-6.5c-0.2-2.2-0.2-4.5-0.6-6.5c-0.1-0.7-0.9-1.6-1.5-2.2c-1.1-1.3-2-2.3-3.2-3.7
		c-0.5-0.6-1.4-2-2.4-0.9c-0.7,0.7,0.2,1.8,0.6,2.2c1.2,1.4,1.8,2.1,3,3.5c0.4,0.6,1.3,1.4,1.4,2c0.1,4.2,0.8,8.4,1.1,12.6
		c0.8,8.3,1.5,16.7,2.2,25.2c0.2,2.2,0.2,4.2,0.1,6.4c-2.6,53.6-5.4,109.8-7.8,163.4c-9.5-0.2-19-0.2-28.5-0.3
		c2.5-78.3,3.9-157.9,5.6-236.8c0-0.1,0-0.2,0.1-0.2c21.2,0.2,42.6,0,63.7,0.1c0.7,4.5,1.2,9.2,1.6,14c0.4,5,0.2,10.1,0.4,15.2
		c0.4,10,0.8,20.1,1.2,29.9c0.9,19.8,2.1,39.6,3.2,59.1c2.2,39.4,4.5,78.7,6.8,117.7C431.4,500.6,421.9,500.9,412.4,501.3z
		 M414.1,503.6c8.8-0.4,18.2-0.6,27-0.9c0.1,2.3,0.3,4.4,0.4,6.7c-9,0.1-17.9,0.2-26.8,0.4C414.4,507.7,414.4,505.5,414.1,503.6z
		 M414.8,512.1c8.8-0.2,18.1-0.3,26.7-0.4c0.2,1.7,0.2,4.1,0.4,6c-2.9,0.2-5.4,0.3-7.6,1c-4.6,1.5-6.7,5.2-8.7,9.2
		c-1,0.1-2,0.1-3.1,0.1c-1.1-1.8-1.8-3.7-2.9-5.4c-0.5-0.8-1.2-1.6-1.8-2.4c-0.9-1.1-1.5-2.3-2.8-2.9
		C415.1,515.6,414.9,514,414.8,512.1z M416.4,533.5c-0.3-4.2-0.6-8.3-0.9-12.5c0.2-0.1,0.4,0.2,0.4,0.3c1.6,1.9,2.8,3.9,4,6.5
		c0.4,0.9,0.7,2.3,1.4,2.6c0.5,0.2,5.2,0.1,5.8-0.2c0.6-0.3,0.9-1.3,1.2-2c0.9-1.9,2.4-4.4,3.9-5.6c1.9-1.5,4.9-2.1,7.8-2.3
		c2.5-0.2,5,0,7,0.7c1.3,0.4,2.4,1.4,3.5,2.3c3.2,2.5,5.8,6,7,10.4C443.6,533.5,430.2,533.5,416.4,533.5z"/>
</g>
<g>
	<path class="st7" d="M415.6,206.2c0.2-0.1,0.3,0.1,0.3,0.3C415.7,206.5,415.6,206.4,415.6,206.2z"/>
</g>
<path class="st8" d="M410.1,124.2l-0.1-12.3c0,0,8.3,2.2,10-1.8c1.7-4,0.4-8-1.6-9.1c-2.1-1.1-8.3-2.6-10.8,2.8l1,9.6
	c0,0,1.6,10.8-6.7,12.1c-8.3,1.3-10.1,0.8-10.1,0.8l1.6,0.4l2.6,3.4L410.1,124.2z"/>
<path class="st8" d="M400.2,86c0,0-7.8,6.6-18.9,5l0.3,3c0,0-2,2.8-2,8.2c0,5.5,2,7.8,2,7.8s2.4,1.9,5,0.1c0,0,2,2,4.7,1.3
	c2.7-0.7,3.3-1.9,4.5-2.1c0,0,1.1,2,3.5,1.4c2.4-0.5,2.9-2.3,2.9-2.3s2.5,1.2,3.7-0.9c1.2-2.1,0.2-8,0.2-8S400.5,93.6,400.2,86z"/>
<path class="st2" d="M419.1,101.1c0,0,3.6-5.4,3.2-12.2c-0.3-6.8-3.4-8.6-5.8-9.2c-2.4-0.6-10.9-0.9-10.9-0.9s-3-6.2-7.5-8.4
	c-4.5-2.2-10.3-3.2-15,0.3c-4.6,3.6-7.1,9.7-3.5,15.2l-0.1,0.7c0,0-3.1,0.4-3.3,5c-0.2,4.6,3.3,6.5,3.3,6.5l2-4l0.3-3.1
	c0,0,11.1,1.3,17.9-5.2c0,0,1.8,9.4,6.2,12.8l-0.2,8.7c0,0-1.7,0.8-3.3,0.9c0,0-1.7,2.7-3.6,2.4c-1.9-0.3-3.2-1.5-3.2-1.5
	s-3.1,1.7-4,2c-1,0.2-4.2-0.5-4.7-1.2l-0.6-0.1c0,0-2.1,1.7-4.7-0.2l-0.4,0.2c0,0,0.2,7.2,0.3,8.9c0,1.6,2.1,7.6,9.1,7.5
	c7-0.1,12.7-0.7,15.2-2.7c2.4-2,3-7.1,2.8-10c-0.2-2.9-0.2-10.4-0.2-10.4S411.7,97.2,419.1,101.1z"/>
<path class="st5" d="M411,112.4c0-0.5-0.4-0.8-0.9-0.8c0,0,0,0,0,0c-0.2,0-0.5,0.1-0.6,0.3c-0.2,0.2-0.2,0.4-0.2,0.6l0.8,16.7
	c0,0.5,0.4,0.8,0.9,0.8l0,0c0.2,0,0.5-0.1,0.6-0.3c0.2-0.2,0.2-0.4,0.2-0.6L411,112.4z"/>
<path class="st5" d="M381.7,90.8c-0.3,0-0.5,0.1-0.6,0.2c-0.2,0.2-0.3,0.4-0.3,0.6l-0.1,2.6c0,0.5,0.4,0.9,0.9,0.9h0
	c0.5,0,0.9-0.4,0.9-0.9l0.1-2.6C382.5,91.2,382.1,90.8,381.7,90.8z"/>
<g>
	<path class="st5" d="M416.8,78.9c-4.2-1.3-9.2-1.1-10.9-0.9c-3.5-6.6-8-9-11.1-10c-3.8-1.1-7.7-0.6-11.1,1.4
		c-3.5,2.1-5.7,4.7-6.5,8c-0.9,3.5,0.1,6.8,0.9,8.6c-0.6,0.2-1.1,0.7-1.5,1.4c-1.6,2.5-1.7,7.9,2.4,11.4c0.2,0.2,0.4,0.2,0.6,0.2
		c0.2,0,0.4-0.1,0.6-0.3c0.3-0.4,0.3-0.9-0.1-1.2c-3.3-2.9-3.3-7.2-2-9.2c0.3-0.4,0.7-0.9,1.1-0.7c0.4,0.2,0.8,0.1,1-0.2
		c0.3-0.3,0.3-0.7,0.1-1c-0.1-0.2-2.5-4.2-1.4-8.5c0.7-2.7,2.6-5,5.7-6.9c3-1.7,6.4-2.2,9.7-1.2c2.9,0.9,7.1,3.2,10.3,9.6
		c0.2,0.3,0.5,0.5,0.9,0.5c0.6-0.1,6.3-0.6,10.8,0.8c2.4,0.7,5.7,3.9,5.1,9.5c-0.8,7.3-2.1,9.5-2.5,10.1c-1.1-0.9-2.5-1.4-4-1.6
		c-2.1-0.2-4.2,0.4-5.8,1.8c-1.3,1.1-1.6,3.3-1.7,3.4c0,0.1,0.3,10.9,0.3,12.2c-0.1,2-0.4,4.4-1.6,6.3c-1.1,1.6-3.1,2.1-5,2.5
		c-2.1,0.5-4.4,0.7-7.3,0.7c-0.4,0-0.8,0-1.3,0c-3.3,0.1-6.7,0.2-8.6-2.7c-1.8-2.8-1.8-6.4-1.8-10c0-0.8,0-1.6,0-2.3
		c0-0.2,0-0.6,0-1.1V109l-1.7-0.1l0,0.3c0,0-0.1,0.9,0,1.2c0,0.7,0,1.4,0,2.1l0,0.2c0,3.6,0,7.7,2.1,10.9c2,3.1,5.3,3.6,8.6,3.6
		c0.5,0,1,0,1.5,0c0.4,0,0.8,0,1.3,0c3,0,5.4-0.3,7.7-0.8c2.1-0.5,4.6-1,6.1-3.2c1.5-2.2,1.8-5,1.9-7.2c0-0.4,0-1.7,0-3.3
		c2.9,2.1,6.8,2,9.6-0.3c1.6-1.3,2.6-3.2,2.8-5.3c0.2-2.1-0.4-4.1-1.8-5.8c0,0-0.1-0.1-0.1-0.1c0.9-1,2.2-3.8,3-11.1
		C423.8,84.3,420.4,80,416.8,78.9z M410.2,101.7c1.3-1,2.8-1.5,4.5-1.4c1.6,0.2,3.1,0.9,4.1,2.2c1,1.3,1.5,2.9,1.4,4.5
		c-0.2,1.6-0.9,3.1-2.2,4.1c-2.2,1.8-5.3,1.9-7.6,0.1c-0.2-0.1-0.3-0.2-0.5-0.2c-0.2,0-0.3,0-0.4,0.1c-0.1-3.2-0.2-6.9-0.2-7.3
		C409.3,103.4,409.7,102.2,410.2,101.7z"/>
	<path class="st5" d="M410.5,108.2l5.4,2.7c0.1,0.1,0.3,0.1,0.4,0.1c0.3,0,0.6-0.2,0.8-0.5c0.2-0.4,0-1-0.4-1.2l-4.3-2.1l4.1-4.2
		c0.2-0.2,0.3-0.4,0.3-0.6c0-0.2-0.1-0.5-0.3-0.6c-0.2-0.2-0.4-0.3-0.6-0.3c0,0,0,0,0,0c-0.2,0-0.5,0.1-0.6,0.3l-4.9,5
		c-0.2,0.2-0.3,0.5-0.2,0.8C410.1,107.8,410.3,108.1,410.5,108.2z"/>
</g>
<path class="st5" d="M405.9,78.2c-0.4-0.3-0.9-0.2-1.2,0.1l-2.8,3.5c-0.1,0.2-0.2,0.4-0.2,0.6c0,0.2,0.1,0.4,0.3,0.6
	c0.2,0.1,0.3,0.2,0.6,0.2c0.3,0,0.5-0.1,0.7-0.3l2.8-3.5c0.1-0.2,0.2-0.4,0.2-0.6C406.2,78.5,406.1,78.3,405.9,78.2z"/>
<g>
	<path class="st5" d="M391.3,110.5c-1.5,0-3.4-0.3-3.8-0.8c0-0.5,0.3-1.2,0.8-2.1c0.9-2,2.2-4.9,2.7-9.6c0-0.2,0-0.5-0.2-0.6
		s-0.4-0.3-0.6-0.3c-0.5-0.1-0.9,0.3-1,0.8c-0.4,4.4-1.7,7.2-2.5,9.1c-0.5,1.1-0.9,1.9-0.9,2.7c0,0.5,0.1,1,0.5,1.4
		c1.2,1.3,4.5,1.3,5.1,1.3c0.5,0,0.9-0.4,0.9-0.9C392.2,110.9,391.8,110.5,391.3,110.5z"/>
	<path class="st5" d="M396.6,109.3c-0.1-0.2-0.2-0.4-0.4-0.5c-0.2-0.1-0.4-0.1-0.7-0.1c-0.9,0.3-1.4,0.5-2.1,1.1
		c-0.4,0.3-0.4,0.9-0.1,1.2c0.2,0.2,0.4,0.3,0.6,0.3c0.2,0,0.4-0.1,0.6-0.2c0.4-0.4,0.7-0.5,1.4-0.7c0.2-0.1,0.4-0.2,0.5-0.4
		C396.7,109.7,396.7,109.5,396.6,109.3z"/>
</g>
<path class="st5" d="M406.5,98.6c-5.1-5.4-5.4-12.6-5.4-12.6c0-0.3-0.2-0.6-0.5-0.8c-0.3-0.1-0.7-0.1-0.9,0.2
	c-0.1,0.1-8.2,7.2-19.8,4.5c-0.5-0.1-0.9,0.2-1.1,0.7c-0.1,0.5,0.2,0.9,0.7,1.1c9.7,2.3,17-1.7,20.1-3.9c0.4,2.5,1.6,7.6,5.5,11.9
	l-0.3,7.5c-0.9,0.2-2.4,0.4-2.6,0.4c-0.5,0.1-0.8,0.5-0.8,1c0.1,0.4,0.4,0.8,0.9,0.8l0.1,0c0.4-0.1,3.3-0.6,3.4-0.6
	c0.4-0.1,0.7-0.4,0.7-0.8l0.3-8.6C406.7,99,406.7,98.7,406.5,98.6z"/>
<path class="st5" d="M403.1,95.3c-1-2-2.5-3.2-4.3-3.2c-1.6,0-3.1,1-4.2,2.9c-1,1.7-1.6,3.9-1.7,6.2c-0.9-0.4-1.8-0.5-2.6-0.3
	c-0.1,0-0.1,0-0.2,0.1c-0.2-5-2.6-8.8-5.7-8.9c-1.6,0-3.1,1-4.2,2.9c-1.1,1.8-1.7,4.2-1.8,6.7c-0.1,2.5,0.4,4.9,1.3,6.8
	c1,2,2.5,3.2,4.2,3.2h0.1c1.1,0,2-0.4,2.9-1.2c0.2-0.2,0.3-0.4,0.3-0.6c0-0.2-0.1-0.5-0.2-0.6c-0.3-0.4-0.9-0.4-1.2,0
	c-0.6,0.6-1.1,0.8-1.7,0.7c-1,0-1.9-0.8-2.6-2.2c-0.8-1.6-1.2-3.7-1.1-5.9c0.1-2.2,0.6-4.3,1.5-5.9c0.8-1.4,1.8-2.1,2.8-2.1
	c0,0,0,0,0,0c2.2,0.1,4,3.8,3.9,8c0,0.1,0,0.2,0.1,0.3c0,0-0.1,0.1-0.1,0.1c-0.3,0.4-0.1,0.9,0.3,1.2c0.1,0.1,0.3,0.1,0.5,0.1
	c0.3,0,0.6-0.2,0.7-0.4c0,0,0.3-0.4,0.8-0.5c0.6-0.1,1.3,0.1,2.2,0.6c0.1,2,0.6,3.8,1.3,5.3c1,2,2.5,3.2,4.3,3.2h0
	c3.2,0,5.8-4.1,6-9.6C404.6,99.5,404.1,97.1,403.1,95.3z M402.7,102c-0.1,4.3-2.1,7.9-4.3,7.9c0,0,0,0,0,0c-1,0-1.9-0.8-2.6-2.2
	c-0.8-1.6-1.2-3.7-1.1-5.9c0.1-2.2,0.6-4.3,1.5-5.9c0.8-1.3,1.8-2.1,2.7-2.1v-0.3l0.1,0.3c1,0,1.9,0.8,2.6,2.2
	C402.4,97.7,402.8,99.8,402.7,102z"/>
<g>
	<path class="st6" d="M400.4,113.6c0.5-0.1,1,0.1,1,0.8c0,1-1.8,2.4-2.4,2.8c-0.9,0.5-1.7,0.8-2.8,0.9c-1.1,0.1-2.7,0.3-2.8-0.9
		c0-1.2,0.8-1,1.6-1c1.4,0,2.2-0.2,3-0.7c0.9-0.5,1.4-1.4,2.2-1.9C400.3,113.7,400.3,113.6,400.4,113.6z"/>
</g>
<path class="st5" d="M413.6,34.1c-0.3-0.9-1-1.5-1.9-1.6L401.1,31l-4.7-9.6c-0.4-0.8-1.2-1.3-2.1-1.3c-0.9,0-1.7,0.5-2.1,1.3
	l-4.7,9.6l-10.6,1.5c-0.9,0.1-1.6,0.7-1.9,1.6c-0.3,0.9-0.1,1.8,0.6,2.4l7.6,7.5l-1.8,10.5c-0.2,0.9,0.2,1.8,0.9,2.3
	c0.4,0.3,0.9,0.5,1.4,0.5c0.4,0,0.7-0.1,1.1-0.3l9.4-5l9.4,5c0.3,0.2,0.7,0.3,1.1,0.3c0.5,0,1-0.2,1.4-0.4c0.7-0.5,1.1-1.4,0.9-2.3
	l-0.7-4.2c-0.1-0.6-0.7-1-1.3-0.9c-0.6,0.1-1,0.7-0.9,1.3l0.7,4.2c0,0.1,0,0.1-0.1,0.2c-0.1,0.1-0.1,0-0.2,0l-10-5.2
	c-0.3-0.2-0.7-0.2-1,0l-10,5.2c-0.1,0-0.1,0-0.2,0c0,0-0.1-0.1-0.1-0.2l1.9-11.1c0.1-0.4-0.1-0.7-0.3-1l-8.1-7.9c0,0-0.1-0.1,0-0.2
	c0-0.1,0.1-0.1,0.1-0.1l11.1-1.6c0.4-0.1,0.7-0.3,0.8-0.6l5-10.1c0.1-0.1,0.2-0.1,0.3,0l5,10.1c0.2,0.3,0.5,0.5,0.8,0.6l11.1,1.6
	c0.1,0,0.1,0.1,0.1,0.1c0,0.1,0,0.1,0,0.2l-8.1,7.9c-0.3,0.3-0.4,0.6-0.3,1l0.6,3.5c0.1,0.6,0.7,1,1.3,0.9c0.6-0.1,1-0.7,0.9-1.3
	l-0.5-2.9l7.6-7.5C413.6,35.9,413.8,35,413.6,34.1z"/>
<path class="st9" d="M362.6,37.5h-5.8c-0.7,0-1.2,0.5-1.2,1.2s0.5,1.2,1.2,1.2h5.8c0.7,0,1.2-0.5,1.2-1.2
	C363.8,38,363.3,37.5,362.6,37.5z"/>
<path class="st9" d="M431.7,37.5h-5.8c-0.7,0-1.2,0.5-1.2,1.2c0,0.7,0.5,1.2,1.2,1.2h5.8c0.7,0,1.2-0.5,1.2-1.2
	C433,38,432.4,37.5,431.7,37.5z"/>
<path class="st9" d="M371,60.2l-4.1,4.1c-0.5,0.5-0.5,1.3,0,1.7c0.2,0.2,0.6,0.4,0.9,0.4c0.3,0,0.6-0.1,0.9-0.4l4.1-4.1
	c0.5-0.5,0.5-1.3,0-1.7C372.3,59.7,371.5,59.7,371,60.2z"/>
<path class="st9" d="M419.9,11.3l-4.1,4.1c-0.5,0.5-0.5,1.3,0,1.7c0.2,0.2,0.6,0.4,0.9,0.4s0.6-0.1,0.9-0.4l4.1-4.1
	c0.5-0.5,0.5-1.3,0-1.7C421.1,10.9,420.4,10.9,419.9,11.3z"/>
<path class="st9" d="M394.3,8.2c0.7,0,1.2-0.5,1.2-1.2V1.2c0-0.7-0.5-1.2-1.2-1.2c-0.7,0-1.2,0.5-1.2,1.2V7
	C393,7.7,393.6,8.2,394.3,8.2z"/>
<path class="st9" d="M417.5,60.2c-0.5-0.5-1.3-0.5-1.7,0c-0.5,0.5-0.5,1.3,0,1.7l4.1,4.1c0.2,0.2,0.6,0.4,0.9,0.4s0.6-0.1,0.9-0.4
	c0.5-0.5,0.5-1.3,0-1.7L417.5,60.2z"/>
<path class="st9" d="M371,17.2c0.2,0.2,0.6,0.4,0.9,0.4c0.3,0,0.6-0.1,0.9-0.4c0.5-0.5,0.5-1.3,0-1.7l-4.1-4.1
	c-0.5-0.5-1.3-0.5-1.7,0c-0.5,0.5-0.5,1.3,0,1.7L371,17.2z"/>
</svg>
