<?xml version="1.0" encoding="utf-8"?>
<!-- Generator: Adobe Illustrator 22.0.1, SVG Export Plug-In . SVG Version: 6.00 Build 0)  -->
<svg version="1.1" id="Слой_1" xmlns="http://www.w3.org/2000/svg" xmlns:xlink="http://www.w3.org/1999/xlink" x="0px" y="0px"
	 width="764.5px" height="565.7px" viewBox="0 0 764.5 565.7" style="enable-background:new 0 0 764.5 565.7;" xml:space="preserve"
	>
<style type="text/css">
	.st0{fill:#EDA58A;}
	.st1{fill:#FFFFFF;stroke:#9898EA;stroke-width:2.5;stroke-linecap:round;stroke-linejoin:round;stroke-miterlimit:10;}
	.st2{fill:#272728;}
	.st3{fill-rule:evenodd;clip-rule:evenodd;fill:#FFFFFF;}
	.st4{fill-rule:evenodd;clip-rule:evenodd;fill:#48484B;}
	.st5{fill-rule:evenodd;clip-rule:evenodd;fill:#272728;}
	.st6{fill-rule:evenodd;clip-rule:evenodd;}
	.st7{fill-rule:evenodd;clip-rule:evenodd;fill:#9898EA;}
	.st8{fill:#48484B;}
	.st9{fill-rule:evenodd;clip-rule:evenodd;fill:#D4D4D4;}
	.st10{fill:#FFFFFF;}
	.st11{fill:#9898EA;}
</style>
<path class="st0" d="M131,513.4C379.3,606.6,700.5,577,750.2,409c57.1-193.1-68.7-272.1-178.3-274.3
	c-107.1-2.2-148.1,99.6-196.1,129.1c-38.2,23.5-77.7,25.4-194.4,8.4C-20.7,242.7-76.7,435.4,131,513.4z"/>
<path class="st1" d="M603.7,32.7c0,0-57.4-0.8-61.1-0.8c0,0,3.2,60.3-0.8,70.3h62.3C604.1,102.2,608.9,58.4,603.7,32.7z"/>
<path class="st2" d="M589.8,82C589.8,82,589.8,82,589.8,82l-30.4,0.3c-0.7,0-1.2,0.5-1.2,1.2c0,0.7,0.5,1.2,1.2,1.2c0,0,0,0,0,0
	l30.4-0.3c0.7,0,1.2-0.5,1.2-1.2C591,82.6,590.4,82,589.8,82z"/>
<path class="st2" d="M589.8,89.3C589.8,89.3,589.8,89.3,589.8,89.3l-30.4,0.3c-0.7,0-1.2,0.5-1.2,1.2c0,0.7,0.5,1.2,1.2,1.2
	c0,0,0,0,0,0l30.4-0.3c0.7,0,1.2-0.5,1.2-1.2C591,89.8,590.4,89.3,589.8,89.3z"/>
<path class="st2" d="M593.4,71.8l-1.7-3c-0.3-0.5-1-0.7-1.5-0.4c-0.4,0.2-0.6,0.7-0.6,1.1l-3.2-1.9l0-13.2c0.1-0.5-0.1-0.9-0.5-1.2
	l-10.4-6v-3.4c0.3,0.2,0.8,0.3,1.2,0c0.5-0.3,0.7-1,0.4-1.5l-1.8-2.9c-0.4-0.7-1.5-0.7-1.9,0l-1.8,2.9c-0.2,0.3-0.2,0.6-0.1,0.9
	c0.1,0.3,0.3,0.5,0.5,0.7c0.4,0.2,0.9,0.2,1.2,0v3.4l-10.3,6c-0.4,0.2-0.7,0.6-0.7,1v13.4l-3.3,1.9c0-0.2,0-0.4,0-0.5
	c-0.1-0.3-0.3-0.5-0.5-0.7c-0.5-0.3-1.2-0.1-1.5,0.4l-1.7,3c-0.2,0.3-0.2,0.8,0,1.1c0.2,0.3,0.6,0.6,1,0.6l3.4,0.1
	c0.6,0,1.1-0.5,1.1-1.1c0-0.3-0.1-0.6-0.3-0.8c-0.1-0.1-0.1-0.1-0.2-0.2l3.3-1.9l10.3,6c0.2,0.1,0.4,0.1,0.6,0.1
	c0.2,0,0.4-0.1,0.6-0.2l10.4-6l3.2,1.9c-0.1,0.1-0.2,0.1-0.3,0.2c-0.2,0.2-0.3,0.5-0.3,0.8c0,0.6,0.5,1.1,1.1,1.1l3.4-0.1
	c0.4,0,0.8-0.2,1-0.6C593.6,72.6,593.6,72.2,593.4,71.8z M573.2,63.9v8.7l-7.5-4.4L573.2,63.9z M573.2,61.3l-8.7,5.1V56.2
	L573.2,61.3z M573.2,49.6v9.1l-7.6-4.4l8.7-5l8.7,5l-7.6,4.4v-9.1c0-0.6-0.5-1.1-1.1-1.1C573.7,48.4,573.2,48.9,573.2,49.6z
	 M575.4,63.9l8.3,4.6c0.5,0.3,1.2,0.1,1.5-0.4c0.2-0.3,0.2-0.6,0.1-0.9c-0.1-0.3-0.3-0.5-0.5-0.7l-9.4-5.3l8.7-5.1v11.4l-8.7,5V63.9
	z"/>
<path class="st3" d="M559.6,127.3l1.3-4.6l10.4-6.2l1.4-2.2v-1.7c0,0,0-0.4-0.6-0.7c-0.6-0.3-2.1-1.1-2.5-0.8
	c-0.4,0.2-1.7,0.9-2.8,1.2c-1.1,0.3-10.7,5.6-10.7,5.6l-3.8,7.9l-5.6,16.3l-4.3,17.2l5.3,5.5l6.2,3.3c0,0,2.8,1.3,3.2-2.1
	c0.4-3.4,0.4-6.4,0.4-6.4l5.2-1.8l3.7-4.6l1.4-5.7l4,0.1l-0.3-2.7l1.9-0.5l3.4-3.4l-1.5-4.5l-3.8-5.4l-5.2-3.3L559.6,127.3z"/>
<polygon class="st3" points="468.1,256.2 465,263.7 460.2,268.7 456.6,271.9 465.5,279.2 475.6,261.5 "/>
<g>
	<g>
		<path class="st3" d="M335.1,106.3c7,0,12.7,5.7,12.7,12.7c0,7-5.7,12.7-12.7,12.7c-7,0-12.7-5.7-12.7-12.7
			C322.4,112,328.1,106.3,335.1,106.3z"/>
	</g>
</g>
<g>
	<g>
		<path d="M335.1,132.8c-7.6,0-13.8-6.2-13.8-13.8c0-7.6,6.2-13.8,13.8-13.8c7.6,0,13.8,6.2,13.8,13.8
			C348.9,126.6,342.7,132.8,335.1,132.8z M335.1,107.4c-6.4,0-11.6,5.2-11.6,11.6c0,6.4,5.2,11.6,11.6,11.6s11.6-5.2,11.6-11.6
			C346.7,112.6,341.5,107.4,335.1,107.4z"/>
	</g>
</g>
<g>
	<path class="st3" d="M321.5,530.7l1,3.6l5.1-0.1l2.4-13.8c0,0,3.7-5.7,1.9-11.6c-1.8-5.9-2.2-10.9-2.2-10.9s13.6-69.1,15.5-87.7
		c1.9-18.6,2.1-26,2.1-26l26.6-0.5c0,0-9.4-65.8-20.9-95.2c-11.5-29.4-22.5-38.2-22.5-38.2s11.8-38.1,12.6-47.3
		c0.8-9.3,2.3-15-1.8-19.1c-4.1-4.1-8.1-6.8-8.1-6.8l-3.5-31.8c0,0,12.4-16.7-0.1-29.4c-12.5-12.7-37.1-10.5-46.2,4.9
		c-10.5,17.7-4,39.8-4,39.8l9-2.2l-3.4,15c0,0-5.6-1.5-12.2,10.6c-6.6,12.1-11.8,24.5-11.8,24.5l-13-28.1c0,0-0.1-14.9-5.3-26.4
		c-5.2-11.5-10.7-18.1-12-16.1c-1.3,2-1.7,3,0.3,6.7c2,3.7,4.7,6.3,4.7,6.3l0.6,3.9c0,0-6.7,1.4-6.9,2.9c-0.3,1.5,0.1,1.9,0.1,1.9
		s-3.1,0.7-2.9,2.2c0.2,1.4,0.4,2.1,0.4,2.1s-2.1,2.4-1.5,3.7c0.6,1.3,1.9,2.2,1.9,2.2s-0.4,2.2,0.6,2.5c1,0.3,1.4,0.3,1.4,0.3
		s-0.2,5.7,3,8.3c3.2,2.7,3.7,2.4,3.7,2.4s4.4,27.7,8.2,39.3c3.8,11.7,10.8,21.4,19.8,17.5c9.1-3.9,16.3-15.3,16.3-15.3l3.3,14.5
		c0,0-26.5,34.6-36.5,66.8c-10,32.3-17.8,77.5-17.8,77.5l42.9,0.4c0,0,3.8,47.8,8.3,76.7c4.4,28.9,6.6,45.8,1.9,50.9
		c-4.7,5.2-12.4,11.9-15.1,15.3c-2.7,3.4-3.5,7.3-3.5,7.3s22.1,0.9,24,0.6c2-0.4,6-5.9,6-5.9s-1.9,4.1-0.2,6
		c1.6,1.8,6.1,2.3,13.5,1.7c7.4-0.6,10.4-1.1,11.8-2.2C320.2,533.3,321.5,530.7,321.5,530.7z"/>
</g>
<path class="st4" d="M229.5,382.9l143.8,0.2c0,0-4-22.1-11.8-64.7c-7.6-41.8-30-68-30.8-68.9c0.6-1.4,6.5-19,10.9-38.9
	c6.7-30.4-8.7-33.3-8.7-33.3s-0.3,4.1-7.1,4.2c-17.7,0.3-28.4,3.3-42.5,0.1c-6.4-1.4-5.5-5.9-5.5-5.9s-4.7,7.1-7.1,11.2
	c-2.4,4.1-10.4,21.6-10.4,21.6l-1.5-3.7c0,0,0,0.6-5.6,4.7c-5.6,4.2-11.7,3.4-11.7,3.4s2.7,11.9,5.8,18c3.1,6.1,6.8,10.1,15,8.6
	c8.2-1.6,17.3-14.5,17.3-14.5l3.5,14.5c0,0-13.7,16.4-30.1,50.9C236.5,325.1,229.5,382.9,229.5,382.9z M307.2,261.4
	c0,0,5.1,3.2,10.6,4.3c5.6,1.1,7.2,0,7.2,0l-8.6,27.8l-15.9-2.7L307.2,261.4z"/>
<g>
	<g>
		<path class="st3" d="M346.5,384.5c0,0-1.9,40-8.9,70.1c-7,30.1-8.8,43.5-8.8,43.5l-12.7,23.7l-15.5-0.4c0,0,1.7-3.6,2.5-7.2
			c0.8-3.6,0.7-7.1,0.7-7.1l-7.5,11.7c0,0-3.1,2.7-5.4,2.8c-2.3,0.1-9.3-0.5-12.7-0.4c-3.3,0.1-5.3,0.2-5.3,0.2s11.2-6.3,11.4-16.8
			c0.2-10.5-12.4-120.3-12.4-120.3L346.5,384.5z"/>
	</g>
</g>
<g>
	<path class="st4" d="M329,498.8l-12.2,23l-15.2-0.4c0,0,0.7-3.6,1.4-6.4c0.7-2.8,0.9-7.6,0.9-7.6l-7.3,11l-4.7,3.2
		c0,0-5.7-0.4-10.2-0.7c-4.5-0.3-8.2,0.1-8.2,0.1s-7.7,6.1-8.8,8.2c-1.2,2.1-3.3,3.6-1.1,4.8c2.2,1.2,23.9,0.7,25.4-0.1
		c1.5-0.8,6.7-6.4,6.7-6.4s-4.1,6.6-1.9,7.9c2.2,1.4,16.8,1.2,20.4,0.4c3.6-0.8,7.1-5.5,7.1-5.5l0.4,4l6.2-0.2L330,520
		c0,0,2.9-4.6,2.4-9.5C331.9,505.6,329,498.8,329,498.8z"/>
</g>
<path class="st5" d="M302.8,537.4c-0.6,0-1.1,0-1.7,0c-3.5-0.2-8.6,0.2-9.4-2.7c-0.3-1,0.1-2.2,0.4-3.1c-1.2,1.3-2.1,3.3-4.5,3.6
	c-2.2,0.3-4.9,0.3-8,0.3c-2.7,0-5.5,0-8.2-0.1c-2.7-0.1-5.6,0.1-7.8-0.4c-2-0.5-1.5-3.6-0.7-5.3c0.7-1.3,1.8-2.4,2.5-3.2
	c2-2.3,3.7-3.9,5.9-5.6c4.3-3.3,8.9-6.8,10.9-12.1c1.1-2.8,1-6.5,1-10.4c0-3.5-0.7-7.3-1.1-10.4c-3.8-34.6-7.9-69.3-11.6-103.4
	c-12.4-0.1-25.1-0.1-37.5-0.1c-1.5,0-4.5,0.3-5-0.4c-0.6-0.8,0.1-4,0.3-5.5c3.3-27.7,9.9-52.7,18.1-75.2c9-24.6,21.1-45.5,35.5-64.1
	c-1.1-3.8-2-7.7-2.9-11.5c-0.2-0.2-0.3,0.2-0.4,0.2c-1.1,1-2,2.2-3,3.3c-3.5,3.9-6.3,8.1-12.3,9.4c-9.6,2.2-15-4.3-17.8-10.4
	c-1.5-3.3-2.5-7.2-3.5-11c-2.9-11.5-5.7-23.8-7.9-35.6c-4-2-6.2-5.7-7.2-10.6c-0.5-0.4-1.1-0.6-1.4-1.2c-0.3-0.5-0.3-1.2-0.7-1.6
	c-1.6-1.5-1.6-5.7,0.4-6.8c-0.6-2.4,1.1-3.5,2.3-4.6c0.5-3.6,4-4.3,7.5-5c-0.3-0.7-0.4-1.3-0.7-1.9c-0.3-0.6-0.7-1.1-1.2-1.6
	c-0.8-1-1.5-2-2.2-3.2c-1.3-2.2-2.9-5.2-2.2-8.4c0.2-1.1,0.9-2.2,2.4-2.2c1.7,0.1,3.6,2.4,4.3,3.2c7.6,8.8,11.9,21.6,13.2,36.2
	c0.1,1.2,0,2.4,0.2,3.6c0.1,1.1,1,2.4,1.4,3.5c3.4,7.6,6.9,15.6,10.1,23.1c3.7-7.9,7.6-16.7,11.9-24.4c0.7-1.2,1.4-2.5,2.3-3.7
	c0.6-0.8,1.5-1.6,2.2-2.4c0.3-0.3,0.4-0.7,0.6-0.9c0.2-0.1,0.6-0.2,0.9-0.4c1.8-1,3.8-2.2,6.1-2.5c0.8-3.8,1.3-7.9,2.1-11.7
	c-1.2,0.2-2.4,0.7-3.8,1.2c-0.9,0.3-3,1.3-4,1c-0.9-0.3-1.1-2.5-1.4-3.7c-0.9-4.2-1.7-8.7-1.9-13.3c-0.3-6.9,0.9-12.9,2.7-17.5
	c3.7-9.2,11.4-16.3,20.9-19.6c5-1.7,12-2.6,17.5-1.1c5.2,1.4,9.4,4.2,12.6,7.7c3.2,3.5,6.1,7.6,6.3,13.9c0.1,3.3-0.7,6.2-1.6,8.6
	c-0.7,1.8-1.4,3.7-2.3,5.3c-0.3,0.5-0.9,1.1-0.9,1.7c-0.1,0.5,0.1,1.3,0.2,2c1.1,10.5,2.3,20.4,3.4,30.6c5.2,3.2,9.5,6.6,10.4,13.6
	c0.5,3.6-0.2,7.4-0.8,10.9c-0.5,3.5-1.3,7-2,10.1c-2.9,12.1-6.2,24-9.6,35.5c-0.3,0.8-0.7,1.8-0.7,2.3c0,0.5,1.6,2.3,2.2,3.2
	c5.6,7.6,10.8,15.3,14.9,24.1c4.7,10,8.4,21.4,11.4,33.2c5.5,22.1,10.4,45.3,13.9,69.5c0.2,1.4,0.9,4.1,0.4,4.9
	c-0.4,0.7-2.1,0.5-3.4,0.5c-8.2,0-15.5,0-23.3-0.1c-1.6,20.2-3.5,39.3-6.9,58c-3.1,17.1-6.3,34.1-9.9,50.9c-0.3,1.2-0.7,2.5-0.6,3.5
	c0,0.8,0.4,1.8,0.6,2.7c1.3,5.7,3.5,14.8-0.1,19.8c-0.3,2.4-0.7,4.6-1.2,7.7c-0.2,1.1-0.4,2.3-0.6,3.7c-0.2,1.1-0.3,3.1-0.8,3.6
	c-0.5,0.4-2.1,0.4-3.3,0.4c-1.1,0.1-2.8,0.3-3.3,0c-0.7-0.4-0.7-1.5-0.9-2.5c-1.6,2.2-3.8,3.4-7.1,4
	C310.3,537.1,306.3,537.3,302.8,537.4z M286,148.8c-0.3-1.2-1.8-6.9,0.4-6.8c1.1,0.1,1,1,1.1,2.5c0.4,7.6,5.5,12,13.4,12.3
	c1,0,2.7-0.1,3.2,0.3c0.6,0.6,0.3,2,0.2,3.1c-0.1,2.6-0.2,4.3-0.4,6.9c-0.1,0.9,0,2.8-0.4,3.3c-0.4,0.6-1.9,0.7-3,0.9
	c-1.1,0.2-2.4,0.5-3.3,0.7c-4.4,0.8-9.3,1.2-13.5,2.4c-1.4,0.4-4.7,1.5-5,3c-0.3,1.4,1,2.1,2.2,2.6c3.2,1.4,7.4,1.8,11.1,2.2
	c11.5,1.1,22.8-0.2,34.2-0.2c6.1,0,11.1,0.9,14.4,3.5c-2.8-4.1-7-6.5-12-8.7c-3.6-1.6-7.3-2.9-11.4-4c-0.8-0.2-3.5-0.7-4-1.2
	c-0.6-0.7-0.2-2.9-0.2-4.3c0-3.6,0-6.1,0-9.4c0-1.3-0.2-3.6,0.1-4.6c0.2-0.4,0.9-0.9,1.4-1.2c0.5-0.4,1-0.9,1.3-1.3
	c0.9-1.1,1.3-2.1,2.2-2.9c2.8,0.3,4.1-0.9,5-2.7c-0.7-0.1-1.2-0.2-1.8-0.3c-0.5-0.1-1.3-0.4-1.9-0.3c-1.1,0.2-1.7,1.5-2.7,1.4
	c-0.3-0.1-0.7-0.4-0.8-0.8c-0.1-0.8,0.6-1,0.5-1.4c-6.9-1.8-11.3-6.5-14.5-12c-0.8-1.4-1.4-3.3-3.2-3.5c-1.4-0.2-3.9,1.7-3.9-0.4
	c0-1.6,2.9-1.8,4.3-1.8c-0.4-1.4-1-2.7-1.4-4.1c-4.4,1.2-6.7,4.5-9.1,7.8c1.4,0.9,2.2,1.6,2.8,2.8c1.9,3.7-1,6.5-3.2,7.5
	c-1.2,0.6-4.2,1.9-4-0.3c0.1-1.1,1.4-1,2.4-1.4c1-0.4,2-1,2.4-1.4c1.5-1.8,0.3-3.9-0.9-4.9c-0.5-0.4-2.1-0.8-2.2-1.9
	c0-1,1.5-2.5,2.1-3.3c2.4-3.2,5-5.9,9.1-7.1c-0.5-1-0.1-2.2,1-2.2c0.9,0.1,1.1,1.4,1.3,2.2c1.7,6.5,4.5,12.3,8.3,16.3
	c4.9,5.1,11.5,7,21.1,7.1c2.1-3.9,4.5-7.9,4.5-13.7c0-4.9-2.3-8.8-4.6-11.6c-4.7-5.7-12.4-10.3-23-8.6c-4.6,0.7-8.6,2.3-12,4.2
	c-6.5,3.8-12,10.2-14.3,18.1c-2.6,8.8-1.9,20.1,0.4,28.5c2-0.7,4.1-1.3,6.2-2c0.6-0.2,1.5-0.7,2.2-0.6c1.5,0.3,0.6,2.9,0.4,4
	c-0.6,3.4-1.1,7.1-1.7,10.1c5-0.8,10-1.6,14.8-2.7c0.2-3.3,0.4-6.5,0.6-9.8C293.8,158.9,288,155.6,286,148.8z M263.2,212.2
	c0.4,0.9,2.4,4.4-0.1,4.2c-1-0.1-1.9-3-2.4-4.1c-4.4-10-8.7-19.6-12.9-29.6c-0.4-0.8-0.9-1.6-1-2.3c-0.2-1.1-0.1-2.5-0.2-3.7
	c-1.1-12-4.1-22-8.9-30.1c-1.7-2.9-3.6-5.8-6.4-7.8c-0.7,2.3,0.5,4.9,1.5,6.7c0.5,0.9,1,1.7,1.7,2.5c0.7,0.9,1.5,1.6,1.9,2.3
	c0.5,1,0.7,2,1.2,3.4c0.4,1.2,1.6,4.1-0.4,4c-1.1,0-0.9-1.1-1.4-1.8c-1.8,0.5-5.4,0.9-5.8,2.8c-0.3,1.5,0.9,2.6,1.5,3.6
	c0.7-0.7,1.8-1,2.6-1.7c-0.5-1.2-0.1-2.5,1-2.4c0.9,0.1,0.9,1,1.2,1.8c1.8-0.3,3.1,0,4.5,0.7c0.7,0.3,3,1.5,2.9,2.7
	c0,0.3-0.3,0.8-0.9,0.9c-0.9,0.2-1.4-0.6-2.1-1.1c-0.6-0.4-1.5-0.8-2.2-1c-1.9-0.5-3.5,0.3-5,1.2c-1.9,1.2-3.7,2.9-5,4.7
	c-0.3,0.4-1.2,1.4-0.9,2.2c0.5,1.3,2.8,0.4,3-0.5c0.2-1.2-0.9-2.8,0.3-3.5c2.1-1.2,1.9,2.8,2.2,4c0.6,2.8,2,4.6,4,5.9
	c0.9,0.6,2.8,0.9,2.8,2.2c0,2-2.6,0.6-3.5,0.1c-2.4-1.5-4.2-3.3-5.1-6c-0.4,0.1-1.2,0.5-1.8,0.8c0.8,3,2.1,5.8,4.2,7.3
	c0.7,0.5,2,0.8,2.4,1.4c0.3,0.4,0.5,2.2,0.7,3c2.2,11.1,4.4,21.3,7.1,31.7c2,7.7,3.5,15.2,8.8,19.4c2.6,2.1,6.8,3.2,11,1.9
	c3.5-1.1,5.7-3.4,8.1-6c1.4-1.6,3.4-3.8,5-5.6c0.5-0.5,1.5-1.3,1.5-1.9c0-0.5-0.2-0.7-0.3-1.2c-4.6-2.9-9.8-7.7-8.4-15.8
	c1.2-6.8,6.1-10.5,11.1-13.5c0.5-1.4-0.2-5.6,1.4-5.8c1.9-0.2,1.2,2.2,1,3.8c-0.1,1.3-0.1,2.6-0.4,3.2c-0.2,0.5-1.2,0.9-1.7,1.2
	c-4.2,2.4-8.1,5.8-9.2,11.1c-0.8,3.9,0.4,7.1,1.9,9.3c1.1,1.5,2.9,3,4.5,4.1c0.5,0.3,1.5,0.7,1.7,1.2c0.3,0.6,0.3,1.5,0.5,2.2
	c1.1,4.4,2.2,8.7,3.3,13.1c0.2,0.8,0.6,1.6,0.5,2.2c-0.1,0.5-0.7,1.2-1.2,1.8c-6.6,8.8-12.9,18.1-18.4,27.7
	c-5.9,10.2-11.1,21.9-15.5,33.6c-9.1,24-15.4,50.4-18.9,79.3c47.2,0.1,95.2,0.2,141.8,0.2c-3.8-24.6-8.2-49.1-14.2-71.7
	c-3-11.5-6.3-22.2-10.8-32.1c-4.1-9.2-9.6-17.4-15.3-25c-0.4-0.5-0.7-1.1-1.2-1.4c-2.1,7-4.3,14.1-6.6,20.9c-0.7,0-1.6,0.1-2.2-0.1
	c6.1-19.5,12.5-38.9,17.4-59.8c1.2-5,2.4-10.5,3.1-16.2c0.2-1.8,0.7-4.5,0.2-6.1c-0.3-1-1.5-2-2.2-2.7c-2.7-2.6-6.1-3.7-10.9-4
	c-5.9-0.3-12.6,0.2-18.8,0.4c-9.8,0.3-19.8,0.3-27.7-1.7c-2.6-0.7-5-1.6-6.2-3.7c-3.1,4.4-5.4,9.5-7.8,14.5c-2.5,5-4.7,10.2-7,15.3
	C262,209.8,262.7,210.9,263.2,212.2z M319.2,149.9c-0.6,0.8-1,1.5-1.7,2.4c-0.3,0.4-2,1.6-2.1,2c-0.3,0.9,0,2.7-0.1,3.7
	c-0.2,4,0.1,8,0,11.9c5.6,1.4,11.1,3.4,15.8,5.6c0.3,0.1,0.5,0.4,0.9,0.3c-1.1-10.1-2.3-20.2-3.4-30.4c-1.1,0-2.1,0-3.1-0.1
	C324.3,147.6,322.8,149.8,319.2,149.9z M228.8,164.6c0.2-0.3,0.6-0.4,0.8-0.8c-0.6-0.6-1-1.6-1.5-2.3
	C226.8,162.4,228,164,228.8,164.6z M226.2,167.8c0.3-0.5,0.6-1,1.1-1.4c-0.2-0.4-0.4-0.6-0.8-0.8C226.2,166.1,225.8,167,226.2,167.8
	z M273,384.7c4.1,35.1,7.8,70.6,11.9,105.9c0.3,2.7,0.9,5.9,0.8,9c-0.1,3.1-0.2,6.2-1.1,8.8c-1.5,4.6-4.3,7.9-7.6,10.7
	c-0.2,0.2-0.7,0.4-0.4,0.5c0.3,0.1,1.1-0.1,1.9-0.1c3.5,0,6.1,0.3,9.1,0.6c1.2,0.2,2.5,0.5,3.7,0.4c1.3-0.2,3.1-1.3,3.9-2
	c0.8-0.8,1.3-2,1.9-3c1.4-2.1,2.5-3.8,3.9-6c0.6-1,1.6-2.1,1.9-3.1c0.3-1,0.3-2.3,0.4-3.5c0.3-3.6,0.4-7.6,0.4-11.2
	c0-15.5,0.6-30.6,0.6-46c0-20.5,0.8-41.1,0.9-61.3c-10.8,0-21.7,0-32.1-0.1C273,384.5,273,384.6,273,384.7z M307.4,384.8
	c-0.2,11.4-0.3,23-0.5,34.6c-0.2,11.5-0.1,23.2-0.4,34.7c-0.2,5.6-0.3,11.4-0.3,17.3c0,5.9-0.2,11.7-0.2,17.3
	c0,5.7-0.2,11.4-0.8,16.8c-0.5,4.5-0.9,9.5-2.4,13c-0.2,0.5-0.6,0.9-0.5,1.4c4.6,0.2,9,0.5,13.3,1c3.8-6.5,7-14.6,10.8-21.2
	c0.6-1,1.3-2,1.7-3c0.3-1,0.5-2.2,0.7-3.3c0.7-3.4,1.4-6.8,2-10.1c4.6-22.7,9.3-44.9,11.9-69c1.1-9.8,2-19.7,2.8-29.6
	c-13.2,0-25.5,0-38-0.1C307.4,384.6,307.4,384.7,307.4,384.8z M325.5,506c-1,1.9-1.8,3.9-2.7,6c-1.3,2.8-2.9,5.7-4.5,8.5
	c-0.5,0.8-1.2,2.4-1.9,2.5c-0.9,0.2-2.5-0.2-3.5-0.3c-1.2-0.1-2.3-0.3-3.5-0.4c-2.7-0.2-5.1,0-7.3-0.4c-0.6-0.1-0.8-0.4-1-0.4
	c-2.6,4.1-6.7,6.7-7.3,12.7c1.3,1.1,3.4,0.9,5.4,1c2.1,0.1,4.3,0,6.3,0c3.7-0.1,8.7-0.3,11.1-1.7c1.7-1,3.1-3.2,4-5
	c0.5-0.9,1-2,1.4-3.1c0.3-0.8,0.8-2.7,1.3-3.3c0.3-0.4,1.1-0.6,1.7-0.9c1.6-0.9,3.4-2,4.3-3.5c1.3-2.2,1.3-5.8,0.9-8.9
	c-0.3-3-1-5.8-1.6-8.6C327.7,502,326.6,503.9,325.5,506z M299.4,515.7c-1,1.5-1.7,3.2-2.8,4.2c-1,1-3.3,2.4-5,2.6
	c-1.5,0.2-3.1-0.1-4.5-0.3c-1.4-0.2-2.8-0.4-4.2-0.6c-3.1-0.3-6,0-9.1,0.1c-1.7,1.2-3.4,2.7-5,4.3c-1.8,2-4.2,3.8-4.5,7.1
	c5.4,0.6,12,0.4,18,0.4c1.8,0,4.5,0.1,5.8-0.4c1.2-0.5,1.9-2,2.7-3c1-1.1,2.4-1.9,3.5-3c0.4-0.5,0.9-1.1,1.3-1.6
	c0.5-0.6,0.9-1.1,1.4-1.7c2.7-3.3,5.2-7,5.4-12.5C301.5,512.6,300.5,514.1,299.4,515.7z M325.1,523.7c-0.5,1.6-1.3,3.1-2,4.6
	c-0.2,0.5-0.7,1.1-0.7,1.5c-0.1,1,0.6,1.8,0.6,3c1.2-0.1,2.4-0.1,3.5-0.2c0.5-3.6,1.2-7.3,1.6-10.7
	C327.2,522.6,326.1,523.2,325.1,523.7z"/>
<g>
	<path class="st6" d="M296.2,142.8c0.6-0.1,1.2,0.2,1.3,0.7c0.2,1-0.9,2-1.7,2.7c-1,0.9-2,1.3-3.1,1.4c-1.3,0.1-2.5,0-2.5-1.1
		c0-1.6,2-0.9,3.2-1.4c0.4-0.1,0.7-0.4,0.9-0.6C295.1,144,295.5,142.9,296.2,142.8z"/>
</g>
<g>
	<path class="st5" d="M305.7,273.1c-0.7,0-1.6,0.1-2.2-0.1c4.3-20.6,9.4-42.3,14.3-62.9c0.3-1.4,0.6-3.8,1.6-4
		c0.7-0.1,1.2,0.3,1.3,0.6c0.3,0.8-0.5,3.1-0.8,4.2C314.9,231.3,310.1,252.6,305.7,273.1z"/>
</g>
<g>
	<path class="st5" d="M298.4,131.1c0.9,0,1.7,0.8,1.7,1.7v2c0,0.9-0.8,1.7-1.7,1.7c-0.9,0-1.7-0.8-1.7-1.7v-2
		C296.8,131.9,297.5,131.1,298.4,131.1z"/>
</g>
<g>
	<path class="st5" d="M289.6,132.5c0.9,0,1.7,0.8,1.7,1.7v2c0,0.9-0.8,1.7-1.7,1.7c-0.9,0-1.7-0.8-1.7-1.7v-2
		C287.9,133.2,288.7,132.5,289.6,132.5z"/>
</g>
<g>
	<g>
		<path class="st3" d="M341,277.7l-60.7-4.4c-2-0.1-3.7,1.3-3.9,3.3l-2.9,37.9c-0.2,2,1.3,3.7,3.3,3.9l60.7,4.4
			c2,0.2,3.7-1.3,3.9-3.3l2.9-37.9C344.4,279.5,342.9,277.8,341,277.7z"/>
	</g>
</g>
<g>
	<g>
		<g>
			<path class="st7" d="M341,277.7l-60.7-4.4c-2-0.1-3.7,1.3-3.9,3.3l-2.9,37.9c-0.2,2,1.3,3.7,3.3,3.9l60.7,4.4
				c2,0.2,3.7-1.3,3.9-3.3l2.9-37.9C344.4,279.5,342.9,277.8,341,277.7z"/>
		</g>
	</g>
</g>
<g>
	<g>
		<path class="st2" d="M337.8,323.9c-0.1,0-0.2,0-0.4,0l-60.7-4.4c-1.2-0.1-2.4-0.7-3.2-1.6c-0.8-0.9-1.2-2.2-1.1-3.4l2.9-37.9
			c0.1-1.2,0.7-2.4,1.6-3.2c1-0.8,2.2-1.2,3.4-1.1l60.7,4.4c2.6,0.2,4.5,2.4,4.3,5l-2.9,37.9c-0.1,1.2-0.7,2.4-1.6,3.2
			C340,323.5,338.9,323.9,337.8,323.9z M280,274.4c-0.6,0-1.2,0.2-1.6,0.6c-0.5,0.4-0.8,1-0.9,1.7l-2.9,37.9c0,0.7,0.2,1.3,0.6,1.8
			c0.4,0.5,1,0.8,1.7,0.9l60.7,4.4c0.7,0.1,1.3-0.2,1.8-0.6c0.5-0.4,0.8-1,0.9-1.7l2.9-37.9c0.1-1.4-0.9-2.6-2.3-2.7l-60.7-4.4
			C280.1,274.4,280,274.4,280,274.4z"/>
	</g>
</g>
<g>
	<path class="st3" d="M304.2,273.5l-4.7,23.3c0,0-5.7,2.8-7.8,8.1c-2.1,5.2-2.4,9.2-4.1,10.7c-1.7,1.5-3.8,3.4-3.2,4.2
		c0.6,0.9,2.1,2,3.7,1.7c1.6-0.4,4-2,4-2s-1.3,10.3,0.1,11.3c1.4,1,4.6,1.5,6,0.4c1.4-1.1,3-4.1,3-4.1s14.3,2.1,15.5-0.3
		c1.2-2.3,1.3-4.7,1.3-4.7l-4-0.4L314,301l8.6-26.7L304.2,273.5z"/>
</g>
<g>
	<path class="st5" d="M303.4,272.9c0.7,0,1.5,0,2.2,0c-0.1,1-0.4,2-0.6,3c-1.4,6.3-2.6,12.3-4,18.5c-0.2,1-0.3,2.3-0.6,3.1
		c-0.2,0.5-1.3,1.2-1.9,1.7c-1.9,1.7-4.1,3.6-5.4,5.6c-1.8,2.9-2,7.1-3.5,10.3c-0.9,1.9-2.7,3.2-3.8,5c0.8,0.3,1.9,0.7,2.9,0.5
		c0.7-0.1,1.9-0.7,2.2-1.3c0.6-1.5-0.5-6.2,1.6-6.2c1.3,0,1.1,1.5,0.9,2.8c-0.4,4.7-0.8,9.9-0.4,14.5c1.1,0.6,3,1,4.2,0.4
		c0.5-0.2,0.9-0.9,1.2-1.3c0.3-0.5,0.7-1.1,0.6-1.5c-0.4,0.1-0.9-0.5-1.2-0.1c-0.8,0.7-1.8,0.3-2-0.6c-0.2-0.7,0.4-1.2,0.6-1.9
		c-0.6-1.1-1.3-3.7,0.4-3.7c1.8,0,1,3.3,2.3,4c0.9,0.1,1.8,0.3,2.7,0.4c-0.6-0.7-1.9-3.6,0.3-3.5c0.9,0,1.2,1.2,1.6,1.8
		c0.5,0.8,0.9,1.4,1.4,2c1.1,0,2.3,0,3.4,0.1c-0.1-0.9-2.1-2.4-2-3.6c0-0.7,0.7-1.2,1.3-1.2c1,0,1.6,1.5,2,2.2
		c0.7,1,1.1,1.8,1.8,2.5c1.4,0,2.8,0,4-0.3c1.3-0.8,0.1-5.2,2.2-5.2c1.7,0,0.9,2.9,0.7,3.8c-0.3,1.5-0.9,2.9-1.9,3.4
		c-1.8,0.9-5.1,0.5-7.7,0.5c-2.7,0-5.1-0.2-7.7-0.5c0.1,0.4,0,0.9-0.2,1.3c-0.5,1.2-1.4,2.6-2.5,3.2c-2.2,1.1-6.5,0.5-7.4-1.4
		c-0.6-1.1-0.5-2.9-0.4-4.5c0-1.6,0.1-3.2,0.2-4.7c-2,1.1-6.9,0.7-7.3-1.8c-0.2-1.5,1.1-2.6,1.9-3.5c0.8-0.9,1.6-1.8,2.1-2.7
		c0.9-1.7,1.2-4,1.8-6c1.4-4.7,4-7.5,7.3-10.4c0.6-0.5,1.6-1.2,1.8-1.7c0.3-0.7,0.4-1.9,0.6-2.9C300.5,286.6,302,279.4,303.4,272.9z
		"/>
</g>
<g>
	<path class="st6" d="M321.9,272.9c0.7,0,1.4,0,2.2,0c-0.6,2.4-1.4,4.7-2.2,7.1c-2,5.8-4,11.7-5.9,17.5c-0.4,1.2-1,2.5-1.2,3.6
		c-0.2,1.5-0.1,3.2-0.1,4.8c0,5-0.4,10-0.5,14.7c0.1,0.8,1.3,1.2,1.2,2.2c0,0.6-0.5,1.1-1.3,1.1c-0.9,0-1.8-1.3-1.9-2.2
		c-0.1-0.4,0.2-0.7,0.1-1c0-0.1-0.2-0.2-0.2-0.4c-0.4-1.2,0-3.3,0.1-4.8c0.1-1.5,0-3,0.1-4.5c0.1-2.9,0.4-6,0.3-8.7
		c0-0.4-0.2-0.9-0.1-1.2c0.1-1,0.9-2.3,1.2-3.5C316.4,289.3,319.3,280.8,321.9,272.9z"/>
</g>
<g>
	<path class="st2" d="M320.4,266.9c-1.6,0-3.3-0.2-4.9-0.5c-4.3-0.8-7.8-2.5-9-4.3c-0.5-0.8-0.5-1.5-0.4-1.9
		c0.1-0.6,0.7-0.9,1.3-0.8c0.6,0.1,0.9,0.7,0.8,1.3c0,0,0,0.1,0.1,0.3c0.7,1.1,3.5,2.5,7.6,3.3c5.4,1,8.6,0.1,8.8-0.5
		c0.1-0.6,0.7-0.9,1.3-0.8c0.6,0.1,0.9,0.7,0.8,1.3C326.3,266.1,323.6,266.9,320.4,266.9z"/>
</g>
<g>
	<path class="st2" d="M244.4,214.3c-0.8,0-1.6-0.1-2.1-0.3c-0.9-0.4-1.3-0.9-1.5-1.3c-0.2-0.5,0-1.2,0.6-1.4c0.5-0.2,1.2,0,1.4,0.6
		c0,0,0.1,0.1,0.3,0.2c1.2,0.5,4.2,0.1,7.9-1.5c4.8-2.1,6.9-4.7,6.6-5.3c-0.2-0.5,0-1.2,0.6-1.4c0.6-0.2,1.2,0,1.4,0.6
		c1.1,2.7-3.2,6.1-7.7,8.1C249.1,213.6,246.4,214.3,244.4,214.3z"/>
</g>
<g>
	<path d="M474.2,253.4c0,0,0.2,0.1,0.5,0.2C474.5,253.2,474.2,253.4,474.2,253.4z"/>
</g>
<g>
	<path class="st8" d="M532.2,359.2c-3-39-14.5-96.2-14.5-96.2s-4.8,3.7-9.4,3c-4.2-0.6-29.7-10.8-33.6-12.4c0.2,0.5,0.2,1.8-0.4,5
		c-1.3,6.4-9,18.8-9,18.8l-3.5-2.2l2.7,238.8l26.8-9.1l0.1,4.2l13-0.3c0,0,20.4-54.3,25.3-76.3C534.7,410.5,535.2,398.2,532.2,359.2
		z M494.6,434.8l2.4-59.8l5.2,29.9L494.6,434.8z"/>
</g>
<g>
	<path class="st3" d="M464.2,513.4l0.1,4.8l0.4,16.8H475h42.2l-0.7-6.8l-3.4-6.8l-8.8-13.2l-12.7,2l-1.4-2.4l-11.7,1.7L464.2,513.4z
		"/>
</g>
<g>
	<g>
		<path class="st7" d="M446,196.9c0,0,11.8,21.5,12.6,23.5c0.8,2,1.7,5.7,1.9,9.3c0.2,3.6,0.6,18.2,0.6,18.2s39.7,17.6,46.2,18.3
			c6.5,0.7,10.1-3.9,10.1-3.9l-4.5-58.8c0,0,11.6,12.9,14.9,14.6c3.3,1.7,16.4,3.8,20.4-7.9c4-11.7,8.2-42.7,8.2-42.7s-2.6,1-6-1.3
			c-3.4-2.3-7.7-8.1-7.7-8.1l-9.8,25.7c0,0-17.4-23.6-23-28.3c-5.6-4.7-18.6-8.5-18.6-8.5l-0.4,1.6c0,0,2.2,1.8,2,5.6
			c-0.1,3.8,0.4,9.3-3.7,9.3c-4.1,0-16.7-4.3-23.7-11.3c-7.1-7-10.6-10.4-10.6-10.4s-14.1,1.5-19.2,6.8c-5.1,5.3-8.9,10.1-13.4,34.5
			c-4.5,24.3-10.7,48.3-5.3,56.1c5.5,7.8,39.3,32,39.3,32s2.7-0.5,6.2-4.7c3.5-4.2,5.5-9.9,5.5-9.9l-28-28.2L446,196.9z"/>
	</g>
</g>
<path class="st3" d="M498,113.3l0.7-5.3l0-2.2l2.6-1l2.8-4.4l-1.1-2.3v-3.7l0.9-5.7l-2-2l-4.6-0.6l-4.8,1.1l-4.2-1.1l-6.3-0.4h-9.3
	h-4.5l-6,2.2l-3.1,2.8l-2.2,3.7L456,99l-0.6,7.1l0.6,6.2l1.7,4.7l2.8,3.8c0,0,5.6,4.1,6.3,4.5c0.7,0.3,2.4,2.5,2.4,2.5l0.2,2.5h-1.9
	l-1.9,1.7l-1.7,3.2l-1,2.2l-3,1.7l-4.5,2.1l9.1,10.3l8.3,5.9c0,0,4.5,2.6,4.6,2.5c0.1,0,5.3,1.8,5.3,1.8l5.7,1.3l4.2-3.2l1-4.3
	l-1.1-5l-1.8-1.9l-1.2-2.3l-0.7-1.9l-2.1-1.7l-2.4-0.9l-0.7-2.2l-0.5-1.9l3.7,1.3c0,0,3.4,0.2,3.9,0.2c0.6,0,6.5-0.3,6.5-0.3
	s4.8-1.9,5.1-2.4c0.3-0.4,2.8-2.8,2.8-2.8l1.2-3.8l-2.7-2.7c0,0-2.3-2-2.5-2.4c-0.2-0.3-1.6-2.2-1.6-2.2l0.2-2.6l-1-3.7L498,113.3z"
	/>
<g>
	<path class="st3" d="M480,122.4l3.5-0.3c0,0,1.4-2.9,6.1-3.7s9.2-1.7,9.9-0.1c0.7,1.6,0.4,4.7,0.4,4.7s8,5.5,5.5,9.8
		c-2.6,4.3-12.6,10.5-24,4c-7-4-7.8-17.6-7.8-17.6l-2.8-6.1c0,0-6.2-4.6-7.9-0.9c-1.7,3.7,0.1,5.2,2.5,7c2.5,1.8,5.3,2.7,5.3,2.7
		l-1,6.5l-2.6-4c0,0-7.7-1.8-9.9-7.5c-2.2-5.7-3.1-22,2-26.7c10.2-9.4,34.3-3.5,34.3-3.5s9.6-2.6,10.5,0.1
		c0.9,2.7-1.4,10.1-1.4,10.1s2.2,2.8,1.6,4.5c-0.6,1.7-5.3,4.4-5.3,4.4s0.3-2.9-0.8-5.5c-1.1-2.7-2.5-4.4-2.5-4.4s-1.3,3-7.8,2.9
		c-6.5-0.1-12.7-3.5-13.4-1.9c-0.8,1.5,0.1,5,0.1,5s-1.7,7.4,0.8,11.3c2.5,3.9,4.9,4.6,4.9,4.6L480,122.4z"/>
</g>
<g>
	<path class="st5" d="M577.4,140.3c0,0.1,0,0.2,0,0.4c-0.7,2.5-2.7,3.7-4.6,4.9c0.6,2.7-2,3.3-4.2,2.9c-0.7,3-1.3,5.8-2.8,7.9
		c-1.5,2.2-4.2,2.8-7.2,3.5c-1.7,13-3.4,26.4-5.5,38.8c-0.7,4.2-1.8,8.1-3.2,11.7c-1.4,3.6-3.4,6.2-6.7,8.1
		c-3.1,1.8-7.6,2.7-12.2,1.7c-3.8-0.9-6.5-3.4-9.1-5.8c-2.1-1.9-4.4-4.2-6.5-6.4c-0.5-0.6-0.7-1-0.8-0.7c-0.1,0.3,0.1,1.7,0.1,2.6
		c0.2,2.6,0.4,5.4,0.6,7.7c1.3,17.2,2.1,34.6,4.3,50.7c0.9,6.5,2,12.8,2.9,19.1c1.8,12.8,4.1,25.3,6,38c2,12.8,3.7,25.6,5,39.1
		c1.3,13.7,2.3,27.9,1.2,41.9c-1,13.5-3.9,25.6-7,37c-3.1,11.5-6.4,22.7-10.3,33.7c-3.5,10-7.5,20.1-11.3,30
		c-0.3,0.7-0.7,1.8-0.7,2.1c0,0.4,0.7,1,1,1.4c1.9,2.6,3.4,4.9,5.2,7.3c0.7,1,1.4,2,2,3c2,2.9,4.4,5.5,4.6,10.4
		c0.1,1.4,0.3,3.9-0.4,4.7c-0.5,0.7-2.2,0.4-3.7,0.3c-3.1-0.2-6.4-0.2-9.5-0.3c-8.6-0.2-17.6-0.1-26.2-0.1c-4.4,0-8.9,0.2-13.2-0.1
		c-2.1-0.1-1.6-2.2-1.7-4.6c-0.4-9.1-0.6-18.6-0.7-27.8c-0.2-16.2-0.5-32.4-0.5-48.3c0-16.2-0.5-32.5-0.5-48.5
		c0-22-0.6-43.1-0.7-64.4c-0.1-18.9-0.6-37.6-0.6-56.5c0-2.8-0.4-5.8-0.1-8.1c0.1-0.7,0.3-0.8,1.2-1.1
		c-11.3-8.3-22.2-16.2-33.1-24.6c-5.3-4.1-10.8-8.8-13.4-15.5c-0.7-1.8-1.2-3.8-1.2-6c0-2.1,0.3-4.4,0.6-6.6c1.4-13,4-24.8,6.3-37
		c1.5-8.1,3.1-16.2,4.9-23.9c1.7-7.4,5.7-13.9,11.8-17c3.1-1.6,6.7-2.8,10.4-4c3.6-1.2,7.4-2.2,11.2-3.2c1.4-1.5,3.1-2.7,4.5-4.3
		c0.2-1,0.7-2,1.2-3.1c0.8-1.4,1.3-3.6,3.4-2.7c-0.9-1.1-1.2-2.4-2.3-3.1c-1.3-0.8-2.7-1.3-3.9-2c-3.7-2.4-6.3-5.5-7.4-10.4
		c-1.6-6.8-0.5-15.7,1.9-20.6c2.7-5.5,8.4-7.6,15.6-8.2c7-0.6,13.2,0.4,19,1.5c0.8,0.2,1.8,0.5,2.5,0.5c0.7,0,1.6-0.5,2.5-0.6
		c2.8-0.5,6.2-0.7,7.8,1.1c2.1,2.4,0.5,7.5-0.6,10.2c1.3,1.6,1.9,4.2,0.8,6.1c-1,1.7-3,3-4.7,3.8c0,1.3,0.1,2.3-0.8,2.6
		c-2,0.6-1.4-1.9-1.3-3.5c0.3-3.8-1.2-6.9-2.7-8.4c-2.8,1.3-5.9,2.4-9.7,2.1c-3.7-0.3-6.7-1.6-10.1-1.7c-0.6,1.5,0.1,2.8,0.3,4
		c0.1,0.7-0.1,1.6-0.2,2.4c-0.3,2.6-0.4,5.4,0.3,7.7c0.7,2.3,2,3.5,3.8,4.4c0.6,0.3,1.5,0.5,1.7,1.1c0.4,1.2-0.4,3.1-0.2,4.2
		c0.6-0.1,1.5,0,2-0.2c0.4-0.2,0.7-0.8,1.1-1.2c0.4-0.4,0.8-0.8,1.2-1.1c2.7-2.1,6.9-2,11.5-2.4c-0.3-0.2-0.7-0.6-0.7-1.1
		c0-0.9,1.4-1.4,1.2-2c-2.8-1.4-4.6-3-5.2-6.3c-0.3-1.7,0-3.4,1.1-4.4c0.7-0.7,3.7-1.8,4-0.3c0.3,1.7-1.8,1.1-2.6,1.8
		c-0.8,0.8-0.5,2.7-0.1,3.5c0.7,1.9,1.8,2.9,3.6,3.7c0.8,0.3,2.1,0.6,2.3,1.4c0.2,1-0.9,1.1-0.9,1.9c0,0.4-0.1,1.6,0,2
		c0.1,0.6,0.5,0.6,0.9,1.1c0.5,0.8,0.7,1.9,0.7,3.1c0,0.6-0.2,1.4-0.1,1.9c0.1,0.4,1,1,1.5,1.4c1.6,1.4,2.9,2.9,3.8,4.8
		c1.6,3.6-0.6,6.2-2.7,7.6c-3.8,2.6-12,4.7-18.7,2.4c0.5,0.6,1.1,2.4,1.9,2.9c1.3,0.7,2.5,1.3,3.5,2.3c0.4,0.4,0.8,0.8,1.1,0.9
		c0.6,0.2,1.3,0.3,1.9,0.4c2.2,0.5,3.7,1,5.5,1.8c6.6,3.1,12.5,6.7,17.3,11.9c5.9,6.5,11.2,14.1,16.3,21.2c0.1,0.2,0.3,0.7,0.4,0.5
		c2.6-6.8,5.2-13.7,7.8-20.9c0.6-1.7,1.4-3.4,1.9-5.2c0.6-1.8,0.9-3.8,1.4-5.8c1.9-7.9,4-14.8,6.8-21.9c1.3-3.3,2.7-7.1,4.7-9.6
		c1-1.2,2.5-2.2,4.2-2.9c1.7-0.7,3.4-1.5,4.9-2.3c1.4-0.7,3.2-1.9,5-2.2c2.6-0.5,4.9,1.1,4.6,3.6c-0.3,3-3.1,4.2-5.3,5.5
		c-2.5,1.4-4.7,2.7-6.9,3.9c-0.5,0.7-0.5,1.8-0.8,2.7c2.7,0,4.9,0.2,6.8,0.9c1.9,0.7,3,1.9,4.2,3.4
		C573.9,132.9,576.5,136.7,577.4,140.3z M502.9,101c0.1-0.9-0.3-1.6-0.6-2.2c-0.3-0.6-1-1.2-1-1.8c0-0.4,0.3-1,0.6-1.7
		c0.6-1.6,2-5.7,0.8-7.3c-1.1-1.4-4.9-0.7-6.5-0.4c-0.9,0.2-1.7,0.6-2.4,0.6c-0.7,0-1.5-0.3-2.3-0.4c-9.7-1.9-24.1-3.4-30.5,2.3
		c-3,2.7-4,7-4.5,12c-0.5,5.2,0,10.7,1.9,14.2c1.7,3.2,4.5,5.2,7.8,6.7c1,0.5,1.5,0.7,2.1,1.5c0.2,0.3,0.4,0.8,0.6,0.7
		c0.2-0.8,0.2-1.8,0.4-2.6c-3.1-1.3-6.3-3-7.5-5.7c-1.1-2.5,0-5.5,2.1-6.4c1.6-0.7,3.8-0.2,5.3,0.6c0.9,0.4,2.2,1.1,2.7,1.7
		c0.7,0.9,1.1,2.2,1.5,3.2c0.5,1,1.3,2.3,1.4,3.4c0.2,1.1,0.1,2.2,0.2,3.2c1.2,9,5.6,15,15.1,15.5c4.6,0.3,8.5-0.9,11.2-2.4
		c1.8-1.1,4.2-2.9,2.9-5.8c-0.8-1.8-2.6-3.4-4-4.6c-0.6-0.5-1.3-0.9-1.5-1.4c-0.3-1.2,0.7-4.1-0.5-4.9c-0.6-0.4-2.1-0.1-2.7-0.1
		c-0.9,0.1-1.8,0.1-2.8,0.2c-3.4,0.2-5.6,0.7-7.2,2.4c-0.5,0.5-1,1.7-1.6,1.9c-0.6,0.2-1.6,0.2-2.4,0.3c-0.7,0.1-2,0.2-2.4-0.1
		c-1-0.9,0.1-3.5-0.1-5.2c-2.5-1.2-4.5-2.9-5.4-6c-0.9-2.9-0.7-7-0.1-10.4c-0.9-2.5-1-6.4,2.2-6.5c3.2-0.1,6.4,1.9,11,1.9
		c2.8,0,5.8-1,7.6-2c0.4-0.2,1.5-1.1,2.3-0.8c0.8,0.3,0.6,1.3,0.4,1.9c1.4,2.1,2.6,4.4,2.7,7.8C500.6,103.7,502.7,102.7,502.9,101z
		 M470.1,114.1c-1.5-0.6-2.8-2.1-5-1.8c-1.1,0.2-1.8,1.6-1.7,2.8c0.1,2.8,3.6,4.3,5.8,5.2c0.8,0.4,2,0.7,2.2,1.3
		c0.2,0.6-0.1,1.7-0.2,2.6c-0.2,1.7-0.5,3.2-0.7,4.9c-0.1,0.8-0.5,1.9-0.4,2.4c0.1,0.4,0.7,1.1,1.1,1.5c2.7,3.5,5.9,6.6,9.8,8.5
		c-0.3-1.5,0.3-2.6,0.5-3.8c-5-2.9-7.6-8.2-8.5-15c-0.1-1,0-2.1-0.2-3.2c-0.2-0.8-0.8-1.5-1-2.4c-1.1-0.1-2-0.2-3.2-0.4
		c-1.1-0.2-2.4-0.2-2.5-1.1c-0.2-2.1,3.3-0.6,4.7-0.6C470.4,114.7,470.2,114.5,470.1,114.1z M569.5,112.7c-1.7,0.6-3.5,1.6-5.1,2.4
		c-1.7,0.9-3.5,1.6-5.2,2.4c-3.3,1.6-4.5,5.3-6,9.1c-1.4,3.5-2.8,7.2-4,11.1c-1.2,3.8-2.2,7.9-3.2,11.9c-0.5,2.1-0.9,4.2-1.4,6.1
		c-0.6,1.9-1.4,3.7-2.1,5.5c-3.8,10.1-7.5,20.4-11.2,30.4c-0.4,1-0.6,2.2-1.5,2.3c-0.5,0-1-0.4-1.2-0.8c-0.2-0.7,0.2-1.4,0.6-2.4
		c0.9-2.3,1.9-5.1,2.5-6.8c-5.2-7.4-10.5-14.8-16.3-21.6c-2.9-3.5-6.4-6.2-10.4-8.6c-3.9-2.4-8.1-4.9-13.2-5.8
		c1.1,2.5,2.8,5,2.4,8.7c-0.3,3.3-1.4,6.6-4.1,7.3c-2,0.6-4.4-0.1-6.3-0.5c-6-1.4-10.6-3.7-14.7-7c-4.4-3.6-9-8-13.1-12.2
		c-0.6-0.6-1.4-1.7-1.9-1.8c-0.5-0.1-1.9,0.6-2.6,0.8c-3,0.9-5.3,1.5-7.8,2.5c-3.5,1.4-6.7,2.6-8.9,4.8c-2.4,2.4-4,5.2-5.4,8.3
		c-1.4,3.2-2.1,7-2.9,10.9c-1.6,7.6-3.1,15.2-4.5,22.9c-1.5,7.7-3,15.5-4.2,23.4c-0.6,4-1.2,8-1.4,12.3c-0.3,4.7,0.9,7.9,2.7,10.9
		c3.5,5.4,9,9.5,14.2,13.4c9.8,7.4,19.6,14.7,29.6,22c0.4,0.3,1.7,1.5,1.9,1.5c0.2,0,1-1.2,1.3-1.5c3.1-3.7,5.8-7.6,6.5-13.5
		c-10.5-10-20.7-20.5-31.4-30.6c-0.7-0.6-1.8-1.5-1.9-2.2c-0.1-0.8,0.3-2,0.5-3c2.6-14.3,5-27.8,7.5-41.9c0.2-1.2,0.3-2.3,1.4-2.2
		c1.8,0,0.8,2.9,0.6,4.2c-0.6,3.5-1.4,7.6-1.9,10.6c4.1,8.3,8.6,16.3,12.7,24.7c0.5,0.9,0.7,2.1,0.9,3.2c1.5,6.9,1.5,15,1.5,23.4
		c12.9,5.2,26.5,11.3,40.1,16c1.7,0.6,4.4,1.9,6.3,1.8c3.2-0.1,5.3-2,7.8-3c-2.5-26.2-4.2-53.6-6-80.5c-0.1-1.7,0.1-3.6,0.3-5.8
		c0.1-1.5-0.1-4.8,1.4-4.7c1.4,0,1,2.1,0.9,3.2c-0.1,1.5-0.2,2.8-0.3,4.1c-0.2,3,0,5.8,0.2,8.3c0.2,2.9,0.4,5.5,0.6,8.2
		c0.2,2.8,0.2,5.5,0.6,8.2c0.1,0.6,1.2,1.4,1.7,2c1.8,1.9,3.6,3.8,5.3,5.5c2.4,2.2,4.9,4.8,7.9,6.5c3.3,1.8,8.8,1.3,11.9-0.2
		c3.4-1.6,5.3-4,6.7-7.8c0.6-1.7,1.3-3.5,1.9-5.3c0.5-1.9,0.8-3.9,1.2-6c1.8-10.2,3.2-20.9,4.6-31.4c0.3-2.2,0.8-4.4,0.9-6.4
		c0-0.5-0.3-1,0-1.6c0.4-0.8,2.7-0.9,3.9-1.2c1.2-0.4,2.8-1.1,3.5-1.7c0.8-0.8,1.4-2.5,1.7-3.5c0.4-1.2,0.7-2.4,1-4
		c-0.1-0.4-1.1-0.7-1.4-1.3c-0.2,0-0.3-0.7-0.4-0.4c-0.8,4.3-3.2,6-7.7,6.8c-1.2,0.2-3.3,0.8-3.4-0.7c0-1.4,2.1-1.2,3.2-1.4
		c1.2-0.2,2.7-0.6,3.5-1.1c1.6-0.9,2-3.1,2.5-5.2c0.3-1.2,0.2-4.2,1.6-4.2c1.3,0,1.1,1.4,1.4,2.6c0.6,2.4,1.6,3.7,4.8,3.3
		c-0.9-3.5-2.7-5.9-3.4-9.4c-0.3-1.2-0.8-2.2-1.5-2.8c-1.2-1.1-4.5-0.8-6.5-0.6c-0.8,0.1-1.9,0.2-2.9,0.4c-1.3,0.2-3.4,0.9-3.3-0.9
		c0.1-0.9,1.2-1,2.5-1.2c3-0.5,7.6-1.2,10.3-0.3c1.6,0.5,2.3,1.8,3.1,3.1c0.3-0.4,0.5-0.7,0.9-1.2c0.2-0.3,1-1,0.9-1.2
		c0-0.2-1.1-1.3-1.2-1.4c-1.8-1.9-5.5-2.5-9-2.3c-0.5,1.1-0.2,3-1.7,2.9c-1.7-0.2-0.4-3.5-0.2-4.3c0.2-0.8,0.4-1.6,0.6-2.4
		c0.2-0.8,0.3-1.9,0.7-2.4c0.2-0.3,1-0.7,1.6-1c3-1.7,5.7-3.1,8.3-4.7c1.1-0.7,2.2-1.5,2.1-3.2C571.2,112.7,570.2,112.4,569.5,112.7
		z M466,133.8c-0.1,0.5-0.1,1-0.3,1.5c-0.3,0.7-1.3,1.4-1.9,1.9c-0.7,0.7-1.4,1.3-2,1.9c5.9,6.3,12.9,11.5,20.6,15.9
		c-0.6-3.6-1.2-7.2-1.8-10.9c-5.8-2.9-10-7.3-13.5-12.5C466.8,132.4,466.3,133.1,466,133.8z M569.6,137.2c-0.1,0.8,0.7,1.4,0.7,2.4
		c1.2-0.9,2.2-1.9,3.2-2.9c-0.6-0.9-1.1-1.9-1.7-2.7C571.6,134.7,569.7,136.5,569.6,137.2z M571.3,141.9c0.3,0.4,0.5,1,0.7,1.5
		c1.4-0.9,4.2-2.5,2.5-4.6C573.5,139.9,572.3,140.7,571.3,141.9z M484.5,153.9c0.2,1.5,1.3,4.4-0.4,4.5c-0.9,0.1-2.6-1.2-3.5-1.7
		c-3.4-2-6.5-4.1-9.5-6.3c-3.2-2.3-5.7-4.7-8.5-7.2c-0.9-0.8-1.8-2-2.7-2.5c-0.8-0.1-2.3,0.9-3,0.8c0.8,1.2,2.1,2.2,3.2,3.3
		c3.4,3.4,6.7,6.6,10.4,9.6c3.5,2.9,8.1,5.2,13.4,6.5c1.4,0.4,4.4,1.2,5.8,0.6c2-0.8,2.8-6.3,1.9-8.7c-0.6,1.5,0.2,4.9-1.7,4.9
		c-0.8,0-1.3-0.9-1.8-1.6c-1.2-1.8-2.3-3.4-3.5-5c-0.2-0.3-0.4-0.9-0.6-0.8C484.2,151.5,484.3,152.6,484.5,153.9z M483.2,145.1
		c2,2.8,4,5.7,6,8.6c0.1-1.6,0.4-3.3,0.4-4.9c0-2.3-0.9-2.9-2.3-3.8c-0.8-0.5-2-0.8-2.6-1.4c-0.8-0.7-1.1-2.2-1.8-2.8
		C482.9,142.3,483.1,143.6,483.2,145.1z M446.6,200c-1.2,7.8-2.8,16.2-4.3,24.2c-0.2,1-0.8,2.8-0.6,3.5c0.1,0.6,1.6,1.7,2.2,2.3
		c2.4,2.3,4.7,4.7,7,6.8c3,2.8,5.9,5.7,8.8,8.4c0.1,0.1,0.2,0.5,0.5,0.4c-0.2-6.5,0.1-12.8-0.9-18.3c-0.4-1.9-0.5-3.8-1.1-5.4
		c-0.3-0.9-1-1.8-1.4-2.7c-3.2-6.5-6.8-13-10-19.3C446.6,199.8,446.6,199.9,446.6,200z M475.7,255.5c-0.6,5.4-1.1,10.3-3.5,14.5
		c-1.5,2.7-3.7,5.4-5.8,7.7c-0.9,1-1.8,2.7-3.2,2.3c-0.3-0.1-0.4-0.4-0.5-0.1c-0.2,0.5,0,2.5,0,3.7c0.1,13.4,0.4,26.7,0.4,39.9
		c0,9.8,0.1,19.4,0.4,29.1c0.1,4.9,0.1,9.8,0.1,14.6c0,29.2,0.9,58.3,0.9,87.3c0,19.5,0.6,38.9,0.6,58.3c8.2-2.6,16.3-5.3,24.5-7.8
		c1.1-20.7,1.5-41.4,2.7-61.9c0-0.5-0.1-1-0.1-1.6c0-0.5,0.2-1.1,0.2-1.6c0.1-1.2,0.1-2.3,0.1-3.5c2.3-49.3,4.3-98.7,6.5-148.1
		c0.1-1.2-0.1-2.5,0.1-3.4c0.2-1,1-2.1,1.7-3.2c0.4-0.8,1.1-2.8,2.3-2.7c1.7,0.2,0.5,2.4,0,3.3c-0.6,1.1-1.5,2.2-1.7,3.2
		c-0.3,1.6-0.1,3.6-0.2,5.4c-1.1,25.4-2.2,50.7-3.3,75.9c-0.1,1.9-0.3,3.7-0.2,5.5c0.1,1.3,0.4,2.6,0.7,4c1.1,7,2,13.8,3.1,20.7
		c0.4,2.8,1.1,5.6,1.2,8.3c0.1,0.9-0.4,2.1-0.6,3c-2,8.7-4.1,17.5-6.1,26c-0.5,2-1.1,3.9-1.1,6c-1.1,22.7-2,45.2-3,68.3
		c3.7-0.2,7.8-0.7,11.7-0.9c6.8-17.2,13.2-34.5,18.8-53.2c5.5-18.6,10.5-37.6,10.5-61.5c0-11.6-1-22.9-2.2-33.8
		c-2.3-21.8-5.9-42.2-9.2-62.8c-1.7-10.4-3.1-20.9-4.6-31.4c-1.5,0.6-3.1,1.4-4.8,2c-2,0.7-3.7,0.8-5.8,0.2c-3.5-1-7.2-2.5-10.4-3.7
		c-6.8-2.6-13.6-5.4-20.1-8C475.7,255.2,475.6,255.3,475.7,255.5z M462.9,278.2c0.1-0.2,0.4-0.3,0.4-0.6c-0.3,0-0.5-0.5-0.7-0.4
		C462.8,277.5,462.7,278,462.9,278.2z M495.5,426.5c1.4-6.2,2.9-12.5,4.4-18.6c0.2-0.9,0.6-1.9,0.6-2.7c0-0.8-0.2-1.8-0.4-2.7
		c-0.9-6.2-1.9-12.4-2.9-18.5C496.8,398.2,495.9,412.4,495.5,426.5z M489.3,509.4c-2.3,0.3-4.7,0.5-6.8,0.8
		c-2.4,0.3-4.2,0.6-6.1,1.2c-3.8,1.2-7.3,2.5-11.1,3.6c0,0.9,0,1.7,0,2.6c1.1,0.7,1.6,1.8,2.4,3c1.6,2.5,3,5.3,3.6,8.7
		c2.2-0.2,4.5-0.3,6.8-0.4c2-8.2,9-11.3,18-12.4c-1.3-1.4-3.2-3-4.8-4.5c-0.5-0.5-1.5-1-1.7-1.5
		C489.5,510.1,489.7,509.6,489.3,509.4C489.4,509.4,489.4,509.4,489.3,509.4z M504.3,511.5c-0.4-0.5-1.1-1.8-1.6-1.7
		c-2.9,0.3-6.3,0.5-9.5,0.9c1.6,1.7,3.7,3.3,5.5,5.1c0.5,0.4,1.4,1.6,1.9,1.7c0.5,0.1,1.4-0.3,2.1-0.4c1.9-0.3,3.6-0.3,5.5,0
		C507,515.2,505.7,513.4,504.3,511.5z M504.4,524.8c-1.2-1.7-3.1-3.3-4.6-4.9c-0.5-0.5-1.2-1.4-1.9-1.3c-0.1,0-0.2,0.1-0.3,0.1
		c-3.3,0.5-6.6,0.7-9.3,1.9c-2.4,1.1-5.1,2.6-6.5,4.8c-0.5,0.7-0.9,1.9-1.2,2.9c-0.3,0.8-0.4,2.3-1.1,2.6c-0.5,0.3-1.6,0.2-2.4,0.2
		c-0.9,0.1-1.8,0.1-2.5,0.1c-1.2,0.1-4.1,0.5-4.9,0c-0.5-0.3-0.7-2-0.9-2.8c-0.7-2.8-1.6-4.9-2.9-6.8c0-0.1-0.2-0.3-0.4-0.3
		c0.2,4,0.4,8,0.5,12.1c14,0.1,28.1,0.2,42.1,0.3C507,530.7,506.4,527.5,504.4,524.8z M502.7,519.5c3.7,3.3,6.4,8.3,7.6,14.2
		c1.9,0.1,3.7,0.3,5.6,0.4c-0.1-2.5,0.1-4.6-0.6-6.3c-0.6-1.5-1.7-2.8-2.6-4.1c-0.9-1.3-1.7-2.7-2.7-4
		C507.9,519.3,505,518.9,502.7,519.5z"/>
</g>
<g>
	<path class="st5" d="M482.7,103c1.6-0.2,3,0.3,4.2,1c0.8,0.4,2,1.1,2,1.9c0,0.6-0.5,1-0.9,1.1c-0.7,0.1-1.5-0.8-2.2-1.1
		c-1-0.6-2.3-1.1-3.7-0.6c-0.6,0.2-1.3,0.8-1.9,1.3c-0.6,0.5-1.1,1.4-1.8,1.4c-0.5,0-1-0.3-1.1-0.9c-0.1-1,1.5-2.1,2.1-2.5
		C480.5,103.8,481.4,103.2,482.7,103z"/>
</g>
<g>
	<path class="st6" d="M487.7,121.2c1-0.2,2.1,0.8,3.2,0.9c0.5,0.1,1,0,1.5-0.1c0.3,0,1-0.2,1.5-0.1c0.7,0.2,0.9,1.2,0.6,1.8
		c-0.3,0.6-2,0.6-3,0.6c-0.7,0-1.9-0.2-2.8-0.6c-0.7-0.3-1.8-0.7-1.9-1.5C486.8,121.7,487.3,121.3,487.7,121.2z"/>
</g>
<g>
	<path class="st6" d="M492.4,439.8c0.2,0.3,0,0.9-0.1,1.2C491.9,440.7,492.4,440.3,492.4,439.8z"/>
</g>
<g>
	<path class="st5" d="M494.9,106.4c0.8,0,1.5,0.7,1.5,1.6l0.1,1.5c0.1,0.9-0.5,1.6-1.3,1.6c-0.8,0-1.5-0.7-1.5-1.6l-0.1-1.5
		C493.5,107.1,494.1,106.4,494.9,106.4z"/>
</g>
<g>
	<path class="st5" d="M484.9,107.3c0.8,0,1.5,0.7,1.5,1.6l0.1,1.5c0.1,0.9-0.5,1.6-1.3,1.6c-0.8,0-1.5-0.7-1.5-1.6l-0.1-1.5
		C483.6,108,484.2,107.3,484.9,107.3z"/>
</g>
<g>
	<path class="st2" d="M456.6,272.3c-0.1,0-0.3,0-0.4,0c-0.8-0.1-1.4-0.7-1.7-1.5c-0.2-0.6,0.1-1.2,0.7-1.4c0.5-0.2,1.2,0.1,1.4,0.7
		c0.5,0.3,3.3-1,6.7-5.4c3.5-4.5,4.3-8.3,3.9-8.9c-0.5-0.3-0.7-0.9-0.4-1.5c0.3-0.5,1-0.7,1.5-0.4c0.4,0.2,0.9,0.7,1,1.6
		c0.4,2.3-1.4,6.6-4.4,10.4C462.6,269,459.1,272.3,456.6,272.3z"/>
</g>
<g>
	<path d="M554.9,168.9c-1.8,0-4.2-0.9-6.7-2.6c-3.8-2.5-6.5-5.8-6.4-7.9c0-0.6,0.4-1.1,1.1-1c0.6,0,1.1,0.5,1,1.1c0,1,1.8,3.7,5.4,6
		c3.8,2.5,5.9,2.4,6.2,2.1c0.3-0.5,1-0.7,1.5-0.3c0.5,0.3,0.7,1,0.3,1.5c-0.2,0.4-0.7,0.8-1.6,1
		C555.6,168.9,555.3,168.9,554.9,168.9z"/>
</g>
<path class="st3" d="M455,525.9c-3.3-5.8-11.5-8.2-11.5-8.2s-9.8-171.3-11.2-191.8c-1.4-20.5-1.4-43.6-2.6-57
	c-1.1-13.4-6.1-38.1-6.1-38.1s8.3,0.8,13.7,1.3c5.3,0.5,13.3-6.9,17.3-17.8c4.1-11,0.8-50.4-0.4-59.9c-1.3-9.5-5.5-13-11.3-15.9
	c-5.7-3-25.1-5.5-25.1-5.5l-5.6-4.7l-2-4c-0.3,0-0.5-0.1-0.8-0.1c-0.9,0.2-1.9,0.3-2.8,0.4c-1.5,1.2-3.2,2-4.9,2.8
	c-1.8,0.8-3.5,1.2-5.5,0.7c-0.8-0.2-1.6-0.6-2.3-1.1c-0.2,0-0.3-0.1-0.5-0.1l-2.5,4.4l-5.8,1.8c0,0-6.6,0-19.6,4.7
	c-11.3,4.1-14.9,19-14.9,19s-4.7,11.7-8.6,20.7c-3.9,9-10,27.8-8.7,36c1.3,8.2,9.4,10.1,14.2,10.5c4.8,0.4,17.2-3.1,17.2-3.1
	s-1.4,11.4-1.9,30.5c-1.8,76-5.6,265.4-5.6,265.4s-5.4,1.8-9.6,5c-4.2,3.2-8,13.6-8,13.6l46.5-1.1l-0.1-31.9l2.4,0.3l7.7-163.8
	l15.1,163.3l2,0.4l2.3,32.3l43.7-0.1C459.1,534.7,458.3,531.8,455,525.9z"/>
<g>
	<path class="st8" d="M452.7,148.9c-2.7-12.8-29.5-14.6-29.5-14.6s-1.6,3.2-5.1,6.4c-3.5,3.2-6.7,4-6.7,4l-9,5.6l-1.4-3.7
		c0,0-3.7,0.6-6.9,0.3c-3.2-0.3-4-0.3-4-0.3l-1.9,1.9c0,0-2.1-4.5-2.9-7.5c-0.8-2.9,0.3-7.2,0.3-7.2s-14.9-1-26.1,8.3
		c-6.8,5.7-20.8,41.2-24.8,57.4c-4,16.2,1.4,20.8,8.3,22.9c1.6,0.5,3.7,0.7,6,0.8c-1.1-1.1-3.6-4.5-4.2-12.9
		c-0.7-10.9,5.9-15.3,5.9-15.3l7.1,1.3c0,0,0.2,0,1.8-4.8c1.5-4.9,7.8-4.8,15.4-3.6c7.6,1.3,31.2,9.4,31.2,9.4s11.3-15.1,14.8-19.6
		c3.5-4.5,11.6-2.5,15.3-0.7c3.8,1.8,7.9,7.4,8.8,9.6c1,2.2-1.1,3-2.9,2.9c-1.7,0-8.5-6.7-8.5-6.7h-6.7c0,0,11.9,3.9,11.5,15.4
		c-0.1,4.5-2.3,9.3-6.9,10.1c-4.6,0.8-10.2-7.2-10.2-7.2h-7.2c0,0-2.4,2.9-4.2,10.4c-1.7,7.4,1.8,15.9,1.7,15.9c0,0-4.3-0.2-9.7-2.7
		c-5.4-2.5-17.8-7.6-17.8-7.6s-8.3,2.4-16.2,3.9c-5.5,1.1-10.9,1.8-14.5,2.3c6.1-0.3,11.9-1.2,11.9-1.2s-2.4,13-2.4,19.1
		c0,5.7-0.2,20.7-0.5,21.8c1.9-0.7,66.2,0,66.2,0l-5.6-32.7c0,0,16.2,5.2,23.1-1.2c6.9-6.4,10.2-21.4,10.2-32.6
		C456.7,188.8,455.4,161.7,452.7,148.9z"/>
</g>
<g>
	<g>
		<path class="st9" d="M386.3,513.9l0.3,7.5c0,0-1.7,0.5-3.4,3.4c-1.7,2.9-3.3,5.3-3.3,5.3l-19.7,0.4c0,0-2.5-4.1-4.7-5.8
			c-2.2-1.7-5.5-3.7-5.5-3.7l6.1-3.1l0.4-3.8L386.3,513.9z"/>
	</g>
	<g>
		<path class="st9" d="M413.8,512l0.5,6.1c0,0,2.3,2.4,3.9,4.9c1.7,2.5,3.7,5.9,3.7,5.9l3.7,0.3c0,0,3.5-7.4,7.2-8.3
			c3.8-0.9,12.5-1.5,12.5-1.5l-2-1.9l-0.4-6.7L413.8,512z"/>
	</g>
</g>
<g>
	<g>
		<path class="st4" d="M386.3,513.9l0.3,7.5c0,0-1.7,0.5-3.4,3.4c-1.7,2.9-3.3,5.3-3.3,5.3l-19.7,0.4c0,0-2.5-4.1-4.7-5.8
			c-2.2-1.7-5.5-3.7-5.5-3.7l6.1-3.1l0.4-3.8L386.3,513.9z"/>
	</g>
	<g>
		<path class="st4" d="M413.8,512l0.5,6.1c0,0,2.3,2.4,3.9,4.9c1.7,2.5,3.7,5.9,3.7,5.9l3.7,0.3c0,0,3.5-7.4,7.2-8.3
			c3.8-0.9,12.5-1.5,12.5-1.5l-2-1.9l-0.4-6.7L413.8,512z"/>
	</g>
</g>
<g>
	<g>
		<path d="M360.3,531.6c-0.4,0-0.7-0.2-0.9-0.5c0,0-2.4-4-4.4-5.5c-2.1-1.7-5.3-3.6-5.4-3.6c-0.3-0.2-0.5-0.6-0.5-1
			c0-0.4,0.2-0.7,0.6-0.9l5.6-2.8l0.4-3.2c0.1-0.5,0.5-1,1.1-1l29.7-0.2c0.6,0.1,1.1,0.5,1.1,1l0.3,7.5c0,0.5-0.3,0.9-0.8,1.1
			c0,0-1.3,0.5-2.7,2.9c-1.7,2.9-3.3,5.2-3.3,5.3c-0.2,0.3-0.5,0.5-0.9,0.5L360.3,531.6C360.3,531.6,360.3,531.6,360.3,531.6z
			 M352.3,521.1c1.1,0.7,2.7,1.7,3.9,2.7c1.9,1.5,3.8,4.4,4.6,5.6l18.6-0.4c0.5-0.8,1.7-2.6,2.9-4.7c1.2-2.1,2.4-3.1,3.2-3.5
			l-0.2-5.7l-27.7,0.2l-0.3,2.9c0,0.4-0.3,0.7-0.6,0.8L352.3,521.1z"/>
	</g>
	<g>
		<path d="M425.7,530.3c-0.1,0-3.8-0.3-3.8-0.3c-0.3,0-0.7-0.2-0.8-0.5c0,0-2-3.4-3.7-5.9c-1.6-2.4-3.8-4.7-3.8-4.7
			c-0.2-0.2-0.3-0.4-0.3-0.7l-0.5-6.1c0-0.3,0.1-0.6,0.3-0.8c0.2-0.2,0.5-0.4,0.8-0.4l29.2-1.2c0.7,0,1.1,0.4,1.1,1l0.4,6.2l1.7,1.6
			c0.3,0.3,0.4,0.7,0.3,1.1c-0.1,0.4-0.5,0.7-0.9,0.7c-0.1,0-8.7,0.6-12.3,1.5c-2.7,0.7-5.6,5.8-6.5,7.7
			C426.5,530.1,426.1,530.3,425.7,530.3z M422.6,527.9l2.4,0.2c1-2,4.1-7.4,7.6-8.2c2.6-0.6,7.4-1.1,10.3-1.4l-0.2-0.2
			c-0.2-0.2-0.3-0.4-0.3-0.7l-0.4-5.6l-27.1,1.1l0.4,4.6c0.7,0.7,2.4,2.7,3.8,4.8C420.4,524.4,422,526.9,422.6,527.9z"/>
	</g>
</g>
<g>
	<g>
		<path class="st3" d="M410.7,262.5c0,0,7.4,8.1,9.9,11.3c5.7,7.1,10.2,15.8,10.2,15.8s-0.3-8.7-0.4-14.5
			c-0.2-6.4-2.1-12.6-2.1-12.6L410.7,262.5z"/>
	</g>
	<g>
		<path class="st3" d="M366.1,261.3c0,0,0.3,10.8-1.1,14.7c-1.4,3.8-2,8.1-2,8.1l-0.1-22.1L366.1,261.3z"/>
	</g>
</g>
<g>
	<g>
		<path d="M430.8,290.4c-0.3,0-0.6-0.2-0.8-0.5c0-0.1-4.6-8.7-10.1-15.6c-2.5-3.1-9.8-11.1-9.9-11.2c-0.2-0.3-0.3-0.6-0.2-1
			c0.1-0.3,0.5-0.5,0.8-0.5l17.6-0.1c0.4,0,0.8,0.3,0.9,0.6c0.1,0.3,1.9,6.4,2.2,12.9c0.2,5.8,0.4,14.5,0.4,14.5
			c0,0.4-0.3,0.8-0.7,0.9C431,290.4,430.9,290.4,430.8,290.4z M412.7,263.4c2.3,2.5,6.7,7.4,8.6,9.8c3.5,4.4,6.7,9.5,8.5,12.7
			c-0.1-3.1-0.2-7.4-0.3-10.8c-0.2-5-1.4-10-1.9-11.8L412.7,263.4z"/>
	</g>
	<g>
		<path class="st2" d="M363,285c-0.5,0-0.9-0.4-0.9-0.9l-0.1-22.1c0-0.4,0.3-0.8,0.7-0.9l3.2-0.7c0.3-0.1,0.5,0,0.7,0.2
			c0.2,0.2,0.3,0.4,0.3,0.7c0,0.4,0.3,11.1-1.1,15c-1.3,3.7-1.9,7.9-1.9,7.9C363.8,284.6,363.5,285,363,285z M363.8,262.7l0.1,13.8
			c0.1-0.3,0.2-0.5,0.3-0.8c1.1-3,1.1-10.5,1.1-13.3L363.8,262.7z"/>
	</g>
</g>
<g>
	<path class="st5" d="M459.2,531.8c-2.7-7.5-7.9-12-15.1-14.9c-1.9-36.1-4.4-72-6.3-108.1c-1.2-24.3-2.7-47.9-4-72.3
		c-0.8-15.3-1.7-30.4-2-45.6c-0.1-3.2,0-6.3-0.1-9.4c-0.3-5.9-1-11.6-1.8-17.3c-1.5-11.3-3.3-22.1-5.3-32.8c3.1,0.5,6.1,1.1,9.5,1.2
		c10.8,0.3,15.8-5.8,19-13.3c2.1-5.1,3.4-11,3.9-17.6c0.5-6.7,0.2-13.9-0.2-20.9c-0.4-6.6-1-13.3-1.4-20.1c-0.2-3.5-0.5-6.7-1.2-9.5
		c-3.7-14.5-19.1-16.7-35-18.8c-0.7-0.7-1.6-1.2-2.4-1.8c-0.8-0.6-1.7-1.2-2.5-1.7c-1.7-1.2-2.7-2.9-3.9-4.6c0,0,0,0,0-0.1
		c-0.4,0-0.8-0.1-1.2-0.2c-0.7,0.1-1.4,0.3-2.1,0.4c-3,2.3-6.5,4.2-10.5,5.5c-0.5-0.7-1.1-1.4-1.6-2.2c-0.4-0.2-0.9-0.4-1.2-0.7
		c-0.5-0.1-1-0.3-1.4-0.6c-0.3,0.6-0.8,1.2-1.1,1.7c-0.4,0.8-0.8,1.6-1.1,2.2c-1.4,0.4-2.7,1.3-4.1,1.7c-0.8,0.2-1.8,0.1-2.7,0.2
		c-0.9,0.1-1.7,0.2-2.6,0.4c-13.5,2-24,7-28.7,17.6c-1.2,2.6-2,5.5-3.2,8.4c-2.1,5.6-4.5,11.1-6.7,16.5c-3.2,8-6.8,16.7-8.7,26
		c-0.7,3.3-1.3,6.8-1.2,10.4c0.2,7.2,4.7,10.9,10.8,12.4c6.6,1.6,14-0.3,20.6-1.4c-0.4,8.7-1.9,17.5-1.9,26.5c0,3.1,0,6.2-0.1,9.4
		c-0.3,6.1-0.2,12.3-0.4,18.5c-0.1,3.1-0.1,6.2-0.1,9.4c-0.1,9.3-0.5,18.4-0.6,27.7c0,6.2-0.2,12.4-0.4,18.6
		c-0.2,6.2-0.1,12.4-0.4,18.6c-0.2,6.2-0.4,12.4-0.4,18.6c-0.1,12.3-0.9,24.6-0.9,37c0,6.2-0.4,12.3-0.4,18.5
		c0,6.2-0.2,12.4-0.4,18.6c-0.8,24.7-1.2,49.3-2.2,73.6c-7.3,3-12.6,7.8-15.7,15c-0.4,0.9-1.3,2.5-0.9,3.4c0.4,1.1,2.1,0.7,3.5,0.7
		c1-0.1,2.1-0.1,2.9-0.1c12.1-0.1,23.8-0.6,35.5-0.6c1.2,0,5.1,0.3,5.8-0.4c0.5-0.5,0.4-2.6,0.4-3.9c0-1.5,0.1-2.8,0.1-3.9
		c0.3-6.8,0.2-12.9,0.5-19.6c0-0.8-0.1-3.3,0.1-3.9c0.2-0.5,1-0.4,1.2-1c0.4-1,0.2-3.2,0.3-4.7c2.6-48.7,4.5-98.7,7.1-146.9
		c4.4,48.1,8.7,97.9,13.3,146.3c0.2,2.5-0.3,5.8,2.2,5.8c0.6,9.7,1.4,18.1,2.1,27.4c0.1,1.2-0.1,2.9,0.4,3.9
		c0.6,1.3,4.4,0.7,6.4,0.7c10.9,0.4,22.1,0.1,33.4,0.1c1.6,0,4.5,0.3,5.3-0.1C460.6,535.2,459.7,533,459.2,531.8z M427.4,261.9
		c-21,0.2-42.6,0-63.5,0.1c0.3-6.9,0.1-13.8,0.6-20.4c0.5-6.6,1.1-13,1.5-19.5c6.3-1.4,12.5-3,18.3-4.9
		c11.4,5.8,23.7,10.7,37.9,13.7C424.2,241.1,425.8,251.5,427.4,261.9z M424.9,182.8c7,2.2,12.3,7,12.2,15.7
		c-3.4-5.2-7.6-10.3-14.5-12.5c-1-0.3-3.7-1.5-3.7,0.3c0,0.9,1.6,1.1,2.7,1.4c6.7,2.2,10.6,6.6,14,12.3c0.2,0.4,0.7,1,0.7,1.3
		c0,0.5-0.5,1.2-0.7,1.7c-0.3,0.5-0.6,0.9-0.9,1.4c-3.6-5.4-8.2-10.3-15.2-12.8c-0.9-0.3-3.6-1.6-3.7,0.1c-0.1,1.1,1.5,1.3,2.4,1.6
		c6.9,2.3,11.5,7,15,12.7c-1.1,0.7-2.3,1.4-4,0.9c-1.6-0.5-3.2-1.9-4.3-3c-0.5-0.5-1.2-1.2-1.7-1.9c-0.6-0.8-1.1-1.8-1.7-2
		c-0.8-0.3-2.1-0.1-3-0.1c-1,0-2.1,0.1-3.1-0.1c-0.7-0.1-1.6-0.6-2.4-0.9c-1.9-0.7-3.5-1.6-5.7-2.2c2.3-3.8,5.5-7.7,8.6-11.8
		c1.6-2.1,2.8-4.2,4.5-5.8c1.6-1.6,4.5-2.8,7.5-3c6.6-0.5,10.5,3.2,13.3,6.8c0.9,1.2,2.1,2.6,2.2,4.4c-1.3,1.3-2.7-0.1-3.7-0.9
		c-1.4-1.2-2.5-2.2-4-3.4c-0.6-0.5-1.5-1.5-2.1-1.6c-0.8-0.2-2,0.1-3,0.2c-0.9,0.1-1.9,0.2-2.8,0.4c-0.9-0.4-1.8-0.7-2.8-1
		c-0.8-0.2-2.5-0.8-2.5,0.6C422.3,182.2,424,182.5,424.9,182.8z M407.5,199.3c1-0.3,1.9,0.2,3,0.6c0.7,0.3,1.6,0.5,1.9,0.9
		c0.2,0.4-0.7,1.7-1.1,2.4c-1.3,2.6-2.1,5.7-2.5,8.9c-0.6,4.9-0.3,9.8,1.4,13.2c-1.3-0.3-2.4-0.7-3.4-1.1c-1.1-0.4-2.4-0.6-3.5-1.2
		c-2.3-1.2-3.6-4.8-3.8-8.1C398.9,208.1,402.1,200.6,407.5,199.3z M399.2,221.6c-15.7-6.4-30.2-14.6-40.7-26.5
		c0.6-2.9,1.3-5.5,3.5-6.7c1.5-0.8,3.9-0.7,6-0.5c6.2,0.5,11.8,2,16.8,3.5c7.3,2.1,14,4.3,20.4,6.6
		C398.8,201,394.9,213.1,399.2,221.6z M408.9,126c1.2,1.2,1.8,2.9,3,4c1.5,1.3,3.6,2,5,3.5c-3.1,6.8-7.9,12.1-14.5,15.4
		c-1.6-5.7-3.4-11.3-5-16.9C401.9,130.6,405.6,128.4,408.9,126z M386.4,134.2c0.9-0.3,1.7-0.7,2.7-1.1c0.9-0.4,2-0.6,2.7-1.1
		c0.9-0.7,0.9-2,1.7-3c0.6,1,1.3,1.9,2.1,2.7c-2.5,4.9-5.1,9.7-7.6,14.7C386.2,143.5,385.8,138.6,386.4,134.2z M346.4,222.2
		c-5.3-0.5-10.1-2.8-11.4-7.4c-0.7-2.6-0.5-5.8-0.1-8.6c0.4-2.8,0.9-5.3,1.5-7.8c3.9-15,10-26.9,15.1-40.8c1.7-4.7,3.2-9,6.2-12.4
		c5.8-6.7,15.3-9.6,26.4-10.9c-0.8,4.5,0.1,9.4,1.6,12.7c0.4,0.9,1,2.8,2.1,2.8c1.1,0,2.1-2.6,2.4-3.3c2-3.9,3.9-7.6,5.8-11.4
		c1.4,4,2.4,8.2,3.7,12.5c0.3,1,0.8,3.5,1.7,3.7c0.8,0.1,2.2-0.9,3-1.3c6.5-3.6,11.1-8.9,14.3-15.6c13.1,1.9,26.3,3.4,31.6,13
		c2.7,5,2.6,12.2,3.1,19.2c0.5,7.1,1.1,13.8,1.4,20.9c0.5,14.9-0.7,28.6-7.3,37c-1.7,2.1-3.8,3.8-6.3,4.8c-2.7,1.1-6.3,1.2-9.9,0.9
		c-6.5-0.7-12.5-2.4-18.4-3.9c-2.6-2.8-3-8.1-2.5-13c0.5-4.8,1.8-9.1,4-11.9c0.9,0,1.8,0,2.9,0.1c1,0,2.2-0.2,3,0.1
		c0.4,0.2,0.7,0.8,1,1.2c0.9,1.2,2.2,2.4,3.2,3.4c1.5,1.3,4.3,3.2,7.3,2.3c4.4-1.3,7.6-7.2,6.8-13.2c-0.7-5.7-4.2-9.7-7.8-12.2
		c0.6,0.1,1.1-0.3,1.7-0.1c0.5,0.1,1.2,0.9,1.8,1.4c0.7,0.6,1.2,1,1.8,1.4c1.6,1.4,2.8,3.1,4.9,3.5c1.9,0.4,3.6-0.4,4-2
		c0.5-2.1-1.2-4-2.1-5.3c-3.2-4.3-6.8-8.1-13.8-8.4c-0.1-0.3,0.4-0.4,0.6-0.6c1.3-1.1,2.5-2.1,4-3.2c0.6-0.4,1.3-0.7,1.3-1.5
		c-0.1-2-2.6,0.1-3.2,0.5c-2.2,1.6-4.5,3.6-6.4,5.1c-5.9,0.9-8.6,5.5-11.5,9.4c-3,4-6,8.1-8.8,12.1c-6.4-2.2-12.5-4.4-19.1-6.3
		c-6.5-1.9-13.3-3.7-21.5-3.8c-1.1-4.6-1.7-9.4-1.4-15.3c0.2-4.1,0.7-7.5,0.9-11.7c0.1-1.3,0.4-2.9-1.1-2.8c-1.2,0.1-1,1.6-1.1,3.1
		c-0.3,4.1-0.8,7.6-0.9,11.8c-0.2,5.8,0.4,10.8,1.5,15.2c-3.8,1-5.5,4.1-6.1,8.3c-2.3,0-4.2-1-6.2-0.7c-2.4,0.5-3.7,2.8-4.7,5
		C342.6,204.7,342.3,217,346.4,222.2C346.5,222.1,346.5,222.5,346.4,222.2z M353,222.1c-1.2,0.1-2.7,0.4-3.7,0.1
		c-1.6-0.6-2.7-3.3-3.2-5.3c-1.7-6.7-0.8-16.7,2.9-20.5c0.2-0.2,0.9-0.8,1.2-0.8c0.8,0.1,2,0.2,3.2,0.4c1.1,0.1,2.4,0.1,3.1,0.4
		c0.8,0.3,1.4,1.6,2,2.2c-2.2,7.3-1,18.2,3.2,22.2C358.7,221.3,356,221.8,353,222.1z M361.2,216.7c-1.9-4.2-2.4-11.3-1.1-16.5
		c6.3,6.1,13.6,11.2,21.6,15.6c-4,1.4-8.3,2.5-12.9,3.5c-1.4,0.3-3.2,1.1-4.5,0.8C363,219.7,361.8,218,361.2,216.7z M384.6,533.3
		c-13.7,0.1-28.8,0.5-43.1,0.6c2-4.8,5.1-9,9.2-11.5c1.7,1.1,3.5,2.3,5.1,4c0.6,0.7,1.3,1.6,2,2.5c0.7,0.9,1.4,2.1,2.1,2.4
		c1.1,0.4,3.5,0.1,5,0.1H375c1.5,0,3.7,0.3,5-0.1c0.7-0.2,0.9-1.1,1.3-1.9c1-2,2.2-4.2,3.6-5.5C384.7,527.1,384.7,530.2,384.6,533.3
		z M385,519.9c-0.2,0.7-1.1,1.5-1.7,2.2c-1.7,2.2-3.2,4.4-4.4,7.1c-6.1,0.1-11.9-0.1-18-0.1c-2.2-3.1-4.7-6-8.1-8
		c0.7-0.5,1.5-0.9,2.4-1.3c0.7-0.3,2-0.7,2.4-1.4c0.5-1,0-2.4,0.2-3.9c8.8-0.1,18.2-0.1,27.3-0.1C384.8,516.4,385.4,518.3,385,519.9
		z M385.2,512.1c-9.1,0.1-18.2,0.1-27.3,0.1c0.1-2.8,0.2-5.6,0.3-8.4c0-0.1,0-0.2,0.1-0.2c9,0.1,18.2,0.1,27.2,0.3
		C385.4,506.6,385.2,509.3,385.2,512.1z M412.4,501.3c-1.1-8.6-1.6-17.3-2.4-26c-2.5-26-4.7-51.9-7.1-78.1
		c-2.8-30.3-5.4-60.6-8.3-91.1c-0.2-2.2-0.4-4.4-0.6-6.5c-0.2-2.2-0.2-4.5-0.6-6.5c-0.1-0.7-0.9-1.6-1.5-2.2c-1.1-1.3-2-2.3-3.2-3.7
		c-0.5-0.6-1.4-2-2.4-0.9c-0.7,0.7,0.2,1.8,0.6,2.2c1.2,1.4,1.8,2.1,3,3.5c0.4,0.6,1.3,1.4,1.4,2c0.1,4.2,0.8,8.4,1.1,12.6
		c0.8,8.3,1.5,16.7,2.2,25.2c0.2,2.2,0.2,4.2,0.1,6.4c-2.6,53.6-5.4,109.8-7.8,163.4c-9.5-0.2-19-0.2-28.5-0.3
		c2.5-78.3,3.9-157.9,5.6-236.8c0-0.1,0-0.2,0.1-0.2c21.2,0.2,42.6,0,63.7,0.1c0.7,4.5,1.2,9.2,1.6,14c0.4,5,0.2,10.1,0.4,15.2
		c0.4,10,0.8,20.1,1.2,29.9c0.9,19.8,2.1,39.6,3.2,59.1c2.2,39.4,4.5,78.7,6.8,117.7C431.4,500.6,421.9,500.9,412.4,501.3z
		 M414.1,503.6c8.8-0.4,18.2-0.6,27-0.9c0.1,2.3,0.3,4.4,0.4,6.7c-9,0.1-17.9,0.2-26.8,0.4C414.4,507.7,414.4,505.5,414.1,503.6z
		 M414.8,512.1c8.8-0.2,18.1-0.3,26.7-0.4c0.2,1.7,0.2,4.1,0.4,6c-2.9,0.2-5.4,0.3-7.6,1c-4.6,1.5-6.7,5.2-8.7,9.2
		c-1,0.1-2,0.1-3.1,0.1c-1.1-1.8-1.8-3.7-2.9-5.4c-0.5-0.8-1.2-1.6-1.8-2.4c-0.9-1.1-1.5-2.3-2.8-2.9
		C415.1,515.6,414.9,514,414.8,512.1z M416.4,533.5c-0.3-4.2-0.6-8.3-0.9-12.5c0.2-0.1,0.4,0.2,0.4,0.3c1.6,1.9,2.8,3.9,4,6.5
		c0.4,0.9,0.7,2.3,1.4,2.6c0.5,0.2,5.2,0.1,5.8-0.2c0.6-0.3,0.9-1.3,1.2-2c0.9-1.9,2.4-4.4,3.9-5.6c1.9-1.5,4.9-2.1,7.8-2.3
		c2.5-0.2,5,0,7,0.7c1.3,0.4,2.4,1.4,3.5,2.3c3.2,2.5,5.8,6,7,10.4C443.6,533.5,430.2,533.5,416.4,533.5z"/>
</g>
<g>
	<path class="st6" d="M415.6,206.2c0.2-0.1,0.3,0.1,0.3,0.3C415.7,206.5,415.6,206.4,415.6,206.2z"/>
</g>
<path class="st10" d="M410.1,124.2l-0.1-12.3c0,0,8.3,2.2,10-1.8c1.7-4,0.4-8-1.6-9.1c-2.1-1.1-8.3-2.6-10.8,2.8l1,9.6
	c0,0,1.6,10.8-6.7,12.1c-8.3,1.3-10.1,0.8-10.1,0.8l1.6,0.4l2.6,3.4L410.1,124.2z"/>
<path class="st10" d="M400.2,86c0,0-7.8,6.6-18.9,5l0.3,3c0,0-2,2.8-2,8.2c0,5.5,2,7.8,2,7.8s2.4,1.9,5,0.1c0,0,2,2,4.7,1.3
	c2.7-0.7,3.3-1.9,4.5-2.1c0,0,1.1,2,3.5,1.4c2.4-0.5,2.9-2.3,2.9-2.3s2.5,1.2,3.7-0.9c1.2-2.1,0.2-8,0.2-8S400.5,93.6,400.2,86z"/>
<path class="st8" d="M419.1,101.1c0,0,3.6-5.4,3.2-12.2c-0.3-6.8-3.4-8.6-5.8-9.2c-2.4-0.6-10.9-0.9-10.9-0.9s-3-6.2-7.5-8.4
	c-4.5-2.2-10.3-3.2-15,0.3c-4.6,3.6-7.1,9.7-3.5,15.2l-0.1,0.7c0,0-3.1,0.4-3.3,5c-0.2,4.6,3.3,6.5,3.3,6.5l2-4l0.3-3.1
	c0,0,11.1,1.3,17.9-5.2c0,0,1.8,9.4,6.2,12.8l-0.2,8.7c0,0-1.7,0.8-3.3,0.9c0,0-1.7,2.7-3.6,2.4c-1.9-0.3-3.2-1.5-3.2-1.5
	s-3.1,1.7-4,2c-1,0.2-4.2-0.5-4.7-1.2l-0.6-0.1c0,0-2.1,1.7-4.7-0.2l-0.4,0.2c0,0,0.2,7.2,0.3,8.9c0,1.6,2.1,7.6,9.1,7.5
	c7-0.1,12.7-0.7,15.2-2.7c2.4-2,3-7.1,2.8-10c-0.2-2.9-0.2-10.4-0.2-10.4S411.7,97.2,419.1,101.1z"/>
<path class="st2" d="M411,112.4c0-0.5-0.4-0.8-0.9-0.8c0,0,0,0,0,0c-0.2,0-0.5,0.1-0.6,0.3c-0.2,0.2-0.2,0.4-0.2,0.6l0.8,16.7
	c0,0.5,0.4,0.8,0.9,0.8l0,0c0.2,0,0.5-0.1,0.6-0.3c0.2-0.2,0.2-0.4,0.2-0.6L411,112.4z"/>
<path class="st2" d="M381.7,90.8c-0.3,0-0.5,0.1-0.6,0.2c-0.2,0.2-0.3,0.4-0.3,0.6l-0.1,2.6c0,0.5,0.4,0.9,0.9,0.9h0
	c0.5,0,0.9-0.4,0.9-0.9l0.1-2.6C382.5,91.2,382.1,90.8,381.7,90.8z"/>
<g>
	<path class="st2" d="M416.8,78.9c-4.2-1.3-9.2-1.1-10.9-0.9c-3.5-6.6-8-9-11.1-10c-3.8-1.1-7.7-0.6-11.1,1.4
		c-3.5,2.1-5.7,4.7-6.5,8c-0.9,3.5,0.1,6.8,0.9,8.6c-0.6,0.2-1.1,0.7-1.5,1.4c-1.6,2.5-1.7,7.9,2.4,11.4c0.2,0.2,0.4,0.2,0.6,0.2
		c0.2,0,0.4-0.1,0.6-0.3c0.3-0.4,0.3-0.9-0.1-1.2c-3.3-2.9-3.3-7.2-2-9.2c0.3-0.4,0.7-0.9,1.1-0.7c0.4,0.2,0.8,0.1,1-0.2
		c0.3-0.3,0.3-0.7,0.1-1c-0.1-0.2-2.5-4.2-1.4-8.5c0.7-2.7,2.6-5,5.7-6.9c3-1.7,6.4-2.2,9.7-1.2c2.9,0.9,7.1,3.2,10.3,9.6
		c0.2,0.3,0.5,0.5,0.9,0.5c0.6-0.1,6.3-0.6,10.8,0.8c2.4,0.7,5.7,3.9,5.1,9.5c-0.8,7.3-2.1,9.5-2.5,10.1c-1.1-0.9-2.5-1.4-4-1.6
		c-2.1-0.2-4.2,0.4-5.8,1.8c-1.3,1.1-1.6,3.3-1.7,3.4c0,0.1,0.3,10.9,0.3,12.2c-0.1,2-0.4,4.4-1.6,6.3c-1.1,1.6-3.1,2.1-5,2.5
		c-2.1,0.5-4.4,0.7-7.3,0.7c-0.4,0-0.8,0-1.3,0c-3.3,0.1-6.7,0.2-8.6-2.7c-1.8-2.8-1.8-6.4-1.8-10c0-0.8,0-1.6,0-2.3
		c0-0.2,0-0.6,0-1.1V109l-1.7-0.1l0,0.3c0,0-0.1,0.9,0,1.2c0,0.7,0,1.4,0,2.1l0,0.2c0,3.6,0,7.7,2.1,10.9c2,3.1,5.3,3.6,8.6,3.6
		c0.5,0,1,0,1.5,0c0.4,0,0.8,0,1.3,0c3,0,5.4-0.3,7.7-0.8c2.1-0.5,4.6-1,6.1-3.2c1.5-2.2,1.8-5,1.9-7.2c0-0.4,0-1.7,0-3.3
		c2.9,2.1,6.8,2,9.6-0.3c1.6-1.3,2.6-3.2,2.8-5.3c0.2-2.1-0.4-4.1-1.8-5.8c0,0-0.1-0.1-0.1-0.1c0.9-1,2.2-3.8,3-11.1
		C423.8,84.3,420.4,80,416.8,78.9z M410.2,101.7c1.3-1,2.8-1.5,4.5-1.4c1.6,0.2,3.1,0.9,4.1,2.2c1,1.3,1.5,2.9,1.4,4.5
		c-0.2,1.6-0.9,3.1-2.2,4.1c-2.2,1.8-5.3,1.9-7.6,0.1c-0.2-0.1-0.3-0.2-0.5-0.2c-0.2,0-0.3,0-0.4,0.1c-0.1-3.2-0.2-6.9-0.2-7.3
		C409.3,103.4,409.7,102.2,410.2,101.7z"/>
	<path class="st2" d="M410.5,108.2l5.4,2.7c0.1,0.1,0.3,0.1,0.4,0.1c0.3,0,0.6-0.2,0.8-0.5c0.2-0.4,0-1-0.4-1.2l-4.3-2.1l4.1-4.2
		c0.2-0.2,0.3-0.4,0.3-0.6c0-0.2-0.1-0.5-0.3-0.6c-0.2-0.2-0.4-0.3-0.6-0.3c0,0,0,0,0,0c-0.2,0-0.5,0.1-0.6,0.3l-4.9,5
		c-0.2,0.2-0.3,0.5-0.2,0.8C410.1,107.8,410.3,108.1,410.5,108.2z"/>
</g>
<path class="st2" d="M405.9,78.2c-0.4-0.3-0.9-0.2-1.2,0.1l-2.8,3.5c-0.1,0.2-0.2,0.4-0.2,0.6c0,0.2,0.1,0.4,0.3,0.6
	c0.2,0.1,0.3,0.2,0.6,0.2c0.3,0,0.5-0.1,0.7-0.3l2.8-3.5c0.1-0.2,0.2-0.4,0.2-0.6C406.2,78.5,406.1,78.3,405.9,78.2z"/>
<g>
	<path class="st2" d="M391.3,110.5c-1.5,0-3.4-0.3-3.8-0.8c0-0.5,0.3-1.2,0.8-2.1c0.9-2,2.2-4.9,2.7-9.6c0-0.2,0-0.5-0.2-0.6
		s-0.4-0.3-0.6-0.3c-0.5-0.1-0.9,0.3-1,0.8c-0.4,4.4-1.7,7.2-2.5,9.1c-0.5,1.1-0.9,1.9-0.9,2.7c0,0.5,0.1,1,0.5,1.4
		c1.2,1.3,4.5,1.3,5.1,1.3c0.5,0,0.9-0.4,0.9-0.9C392.2,110.9,391.8,110.5,391.3,110.5z"/>
	<path class="st2" d="M396.6,109.3c-0.1-0.2-0.2-0.4-0.4-0.5c-0.2-0.1-0.4-0.1-0.7-0.1c-0.9,0.3-1.4,0.5-2.1,1.1
		c-0.4,0.3-0.4,0.9-0.1,1.2c0.2,0.2,0.4,0.3,0.6,0.3c0.2,0,0.4-0.1,0.6-0.2c0.4-0.4,0.7-0.5,1.4-0.7c0.2-0.1,0.4-0.2,0.5-0.4
		C396.7,109.7,396.7,109.5,396.6,109.3z"/>
</g>
<path class="st2" d="M406.5,98.6c-5.1-5.4-5.4-12.6-5.4-12.6c0-0.3-0.2-0.6-0.5-0.8c-0.3-0.1-0.7-0.1-0.9,0.2
	c-0.1,0.1-8.2,7.2-19.8,4.5c-0.5-0.1-0.9,0.2-1.1,0.7c-0.1,0.5,0.2,0.9,0.7,1.1c9.7,2.3,17-1.7,20.1-3.9c0.4,2.5,1.6,7.6,5.5,11.9
	l-0.3,7.5c-0.9,0.2-2.4,0.4-2.6,0.4c-0.5,0.1-0.8,0.5-0.8,1c0.1,0.4,0.4,0.8,0.9,0.8l0.1,0c0.4-0.1,3.3-0.6,3.4-0.6
	c0.4-0.1,0.7-0.4,0.7-0.8l0.3-8.6C406.7,99,406.7,98.7,406.5,98.6z"/>
<path class="st2" d="M403.1,95.3c-1-2-2.5-3.2-4.3-3.2c-1.6,0-3.1,1-4.2,2.9c-1,1.7-1.6,3.9-1.7,6.2c-0.9-0.4-1.8-0.5-2.6-0.3
	c-0.1,0-0.1,0-0.2,0.1c-0.2-5-2.6-8.8-5.7-8.9c-1.6,0-3.1,1-4.2,2.9c-1.1,1.8-1.7,4.2-1.8,6.7c-0.1,2.5,0.4,4.9,1.3,6.8
	c1,2,2.5,3.2,4.2,3.2h0.1c1.1,0,2-0.4,2.9-1.2c0.2-0.2,0.3-0.4,0.3-0.6c0-0.2-0.1-0.5-0.2-0.6c-0.3-0.4-0.9-0.4-1.2,0
	c-0.6,0.6-1.1,0.8-1.7,0.7c-1,0-1.9-0.8-2.6-2.2c-0.8-1.6-1.2-3.7-1.1-5.9c0.1-2.2,0.6-4.3,1.5-5.9c0.8-1.4,1.8-2.1,2.8-2.1
	c0,0,0,0,0,0c2.2,0.1,4,3.8,3.9,8c0,0.1,0,0.2,0.1,0.3c0,0-0.1,0.1-0.1,0.1c-0.3,0.4-0.1,0.9,0.3,1.2c0.1,0.1,0.3,0.1,0.5,0.1
	c0.3,0,0.6-0.2,0.7-0.4c0,0,0.3-0.4,0.8-0.5c0.6-0.1,1.3,0.1,2.2,0.6c0.1,2,0.6,3.8,1.3,5.3c1,2,2.5,3.2,4.3,3.2h0
	c3.2,0,5.8-4.1,6-9.6C404.6,99.5,404.1,97.1,403.1,95.3z M402.7,102c-0.1,4.3-2.1,7.9-4.3,7.9c0,0,0,0,0,0c-1,0-1.9-0.8-2.6-2.2
	c-0.8-1.6-1.2-3.7-1.1-5.9c0.1-2.2,0.6-4.3,1.5-5.9c0.8-1.3,1.8-2.1,2.7-2.1v-0.3l0.1,0.3c1,0,1.9,0.8,2.6,2.2
	C402.4,97.7,402.8,99.8,402.7,102z"/>
<g>
	<path class="st5" d="M400.4,113.6c0.5-0.1,1,0.1,1,0.8c0,1-1.8,2.4-2.4,2.8c-0.9,0.5-1.7,0.8-2.8,0.9c-1.1,0.1-2.7,0.3-2.8-0.9
		c0-1.2,0.8-1,1.6-1c1.4,0,2.2-0.2,3-0.7c0.9-0.5,1.4-1.4,2.2-1.9C400.3,113.7,400.3,113.6,400.4,113.6z"/>
</g>
<path class="st2" d="M413.6,34.1c-0.3-0.9-1-1.5-1.9-1.6L401.1,31l-4.7-9.6c-0.4-0.8-1.2-1.3-2.1-1.3c-0.9,0-1.7,0.5-2.1,1.3
	l-4.7,9.6l-10.6,1.5c-0.9,0.1-1.6,0.7-1.9,1.6c-0.3,0.9-0.1,1.8,0.6,2.4l7.6,7.5l-1.8,10.5c-0.2,0.9,0.2,1.8,0.9,2.3
	c0.4,0.3,0.9,0.5,1.4,0.5c0.4,0,0.7-0.1,1.1-0.3l9.4-5l9.4,5c0.3,0.2,0.7,0.3,1.1,0.3c0.5,0,1-0.2,1.4-0.4c0.7-0.5,1.1-1.4,0.9-2.3
	l-0.7-4.2c-0.1-0.6-0.7-1-1.3-0.9c-0.6,0.1-1,0.7-0.9,1.3l0.7,4.2c0,0.1,0,0.1-0.1,0.2c-0.1,0.1-0.1,0-0.2,0l-10-5.2
	c-0.3-0.2-0.7-0.2-1,0l-10,5.2c-0.1,0-0.1,0-0.2,0c0,0-0.1-0.1-0.1-0.2l1.9-11.1c0.1-0.4-0.1-0.7-0.3-1l-8.1-7.9c0,0-0.1-0.1,0-0.2
	c0-0.1,0.1-0.1,0.1-0.1l11.1-1.6c0.4-0.1,0.7-0.3,0.8-0.6l5-10.1c0.1-0.1,0.2-0.1,0.3,0l5,10.1c0.2,0.3,0.5,0.5,0.8,0.6l11.1,1.6
	c0.1,0,0.1,0.1,0.1,0.1c0,0.1,0,0.1,0,0.2l-8.1,7.9c-0.3,0.3-0.4,0.6-0.3,1l0.6,3.5c0.1,0.6,0.7,1,1.3,0.9c0.6-0.1,1-0.7,0.9-1.3
	l-0.5-2.9l7.6-7.5C413.6,35.9,413.8,35,413.6,34.1z"/>
<path class="st11" d="M362.6,37.5h-5.8c-0.7,0-1.2,0.5-1.2,1.2s0.5,1.2,1.2,1.2h5.8c0.7,0,1.2-0.5,1.2-1.2
	C363.8,38,363.3,37.5,362.6,37.5z"/>
<path class="st11" d="M431.7,37.5h-5.8c-0.7,0-1.2,0.5-1.2,1.2c0,0.7,0.5,1.2,1.2,1.2h5.8c0.7,0,1.2-0.5,1.2-1.2
	C433,38,432.4,37.5,431.7,37.5z"/>
<path class="st11" d="M371,60.2l-4.1,4.1c-0.5,0.5-0.5,1.3,0,1.7c0.2,0.2,0.6,0.4,0.9,0.4c0.3,0,0.6-0.1,0.9-0.4l4.1-4.1
	c0.5-0.5,0.5-1.3,0-1.7C372.3,59.7,371.5,59.7,371,60.2z"/>
<path class="st11" d="M419.9,11.3l-4.1,4.1c-0.5,0.5-0.5,1.3,0,1.7c0.2,0.2,0.6,0.4,0.9,0.4s0.6-0.1,0.9-0.4l4.1-4.1
	c0.5-0.5,0.5-1.3,0-1.7C421.1,10.9,420.4,10.9,419.9,11.3z"/>
<path class="st11" d="M394.3,8.2c0.7,0,1.2-0.5,1.2-1.2V1.2c0-0.7-0.5-1.2-1.2-1.2c-0.7,0-1.2,0.5-1.2,1.2V7
	C393,7.7,393.6,8.2,394.3,8.2z"/>
<path class="st11" d="M417.5,60.2c-0.5-0.5-1.3-0.5-1.7,0c-0.5,0.5-0.5,1.3,0,1.7l4.1,4.1c0.2,0.2,0.6,0.4,0.9,0.4s0.6-0.1,0.9-0.4
	c0.5-0.5,0.5-1.3,0-1.7L417.5,60.2z"/>
<path class="st11" d="M371,17.2c0.2,0.2,0.6,0.4,0.9,0.4c0.3,0,0.6-0.1,0.9-0.4c0.5-0.5,0.5-1.3,0-1.7l-4.1-4.1
	c-0.5-0.5-1.3-0.5-1.7,0c-0.5,0.5-0.5,1.3,0,1.7L371,17.2z"/>
<path class="st1" d="M188,55.2c0,0,57.4-0.8,61.1-0.8c0,0-3.2,60.3,0.8,70.3h-62.3C187.6,124.7,182.8,80.9,188,55.2z"/>
<path class="st2" d="M231.3,78.6h-13.5V65.1c0-0.7-0.6-1.3-1.3-1.3s-1.3,0.6-1.3,1.3v13.5h-13.5c-0.7,0-1.3,0.6-1.3,1.3
	c0,0.7,0.6,1.3,1.3,1.3h13.5v13.5c0,0.7,0.6,1.3,1.3,1.3s1.3-0.6,1.3-1.3V81.3h13.5c0.7,0,1.3-0.6,1.3-1.3
	C232.6,79.2,232,78.6,231.3,78.6z"/>
<g>
	<path class="st2" d="M230.6,85.2c-0.2,0-3.9-0.2-6.6,2.5c-3.2,2.8-2.6,6.9-2.6,7.1c0.1,0.5,0.5,0.9,1,0.9c0.1,0,0.1,0,0.2,0
		c0.6-0.1,0.9-0.6,0.9-1.2c0-0.1-0.4-3.2,2-5.2c0,0,0,0,0,0c2.1-2,5.1-1.9,5.1-1.9c0.6,0,1-0.4,1.1-1
		C231.6,85.7,231.2,85.2,230.6,85.2z"/>
	<path class="st2" d="M210.1,64.3c-0.6,0.1-0.9,0.6-0.9,1.2c0,0.1,0.4,3.2-2,5.2c0,0,0,0,0,0c-2.1,2-5,1.9-5.1,1.9
		c-0.6,0-1,0.4-1.1,1c0,0.6,0.4,1,1,1.1c0,0,0.1,0,0.3,0c0.9,0,4-0.2,6.3-2.5c3.2-2.8,2.6-6.9,2.6-7.1
		C211.2,64.6,210.6,64.2,210.1,64.3z"/>
</g>
<path class="st2" d="M231.1,104.5C231.1,104.5,231.1,104.5,231.1,104.5l-30.4,0.3c-0.7,0-1.2,0.5-1.2,1.2c0,0.7,0.5,1.2,1.2,1.2
	c0,0,0,0,0,0l30.4-0.3c0.7,0,1.2-0.5,1.2-1.2C232.3,105.1,231.8,104.5,231.1,104.5z"/>
<path class="st2" d="M231.1,111.8C231.1,111.8,231.1,111.8,231.1,111.8l-30.4,0.3c-0.7,0-1.2,0.5-1.2,1.2c0,0.7,0.5,1.2,1.2,1.2
	c0,0,0,0,0,0l30.4-0.3c0.7,0,1.2-0.5,1.2-1.2C232.3,112.3,231.8,111.8,231.1,111.8z"/>
</svg>
