<?xml version="1.0" encoding="utf-8"?>
<!-- Generator: Adobe Illustrator 22.0.1, SVG Export Plug-In . SVG Version: 6.00 Build 0)  -->
<svg version="1.0" xmlns="http://www.w3.org/2000/svg" xmlns:xlink="http://www.w3.org/1999/xlink" x="0px" y="0px" width="624.1px"
	 height="425.6px" viewBox="0 0 624.1 425.6" style="enable-background:new 0 0 624.1 425.6;" xml:space="preserve">
<style type="text/css">
	.st0{fill:#EDA58A;}
	.st1{fill:#FFFFFF;}
	.st2{fill:#9898EA;}
	.st3{fill:#272728;}
	.st4{fill:#48484B;}
	.st5{fill:#FFFFFF;stroke:#7F71E9;stroke-width:2.25;stroke-miterlimit:10;}
</style>
<g id="Слой_7">
	<path class="st0" d="M190.3,402.5c230.2,60.7,410.9-2.6,397.1-139.5C573.1,122.3,538.9,4.1,456.7,10.1
		c-71.9,5.3-118.8,70.8-188,112.7c-55.5,33.6-70.9,17.1-141.4,13.3C-49.3,126.4-2.3,351.7,190.3,402.5z"/>
</g>
<g id="Слой_3">
	<path class="st1" d="M427.3,344.6c-0.4-3.7-1.7-6.2-3.5-6.4c-1.8-0.2-49.8,0-49.8,0s-0.1,0.2-0.4,0.4c3.3-4,4.6-9.2,2.6-14.4
		l-25.6-66.6c-2.6-6.9-10.4-11.5-19.1-11.5h-97.1c-13.5,0-23.2,10.9-19.1,21.6l7.6,19.7l10.9,28.3l7.2,18.7c1.7,4.5,5.6,8,10.5,9.9
		c-0.1,0,1.4,6,4.5,5.7h168.6C424.7,349.8,427.8,348.3,427.3,344.6z"/>
	<path class="st2" d="M436.7,178.4c0,0-17.4,2.5-28.5,12.8s-17.7,18.9-24,36.4c-6.4,17.5-2.9,18.4-9.7,32.8
		c-6.8,14.4-8.6,17.8-8.6,17.8l16.4,44.4c0,0,1.7,12.4-4,15.4l4.4,0.4c0,0,12.1-10.5,16.3-19c4.2-8.5,7.6-17.9,7.6-17.9
		s0.1,10.7-0.8,19.1s-3.2,14.9-7.6,17.5l23.8,0.3c0,0,4.5-0.6,5.4,3.7c0.9,4.3-2.6,7.2-2.6,7.2l12,0.5c0,0,17.9,6,36.2,7.2
		c18.3,1.2,25.1-4.9,25.1-4.9l5,29.3c0,0,18.6,2.3,32.5-0.8c13.9-3,24.9-7.4,24.9-7.4s-15.8-75.9-17.4-82.5
		c-1.5-6.7-9.6-40.3-11.4-46.9s-5.4-19.9-13.6-34.4c-8.3-14.6-14.6-20.9-20.7-23.9c-6-3-20.7-10.7-36.2-9.7
		C445.6,176.7,436.7,178.4,436.7,178.4z"/>
	<path class="st1" d="M461.1,175.7l-4.7-21.8c0,0,9.2-3.3,11.2-8c2-4.7-0.7-12.4-4.2-12.9c-3.5-0.5-8,2.5-8,2.5l-4.1-6.8h-0.6
		l-0.5,3.1c0,0-31.9-36-31.7,1c-2.5,3.9,2.2,22,2.2,22s2.3,17.5,9.3,17.4c7-0.1,6.6-0.5,6.6-0.5l1.9,9c0,0-3.8,20.4,5.6,19.8
		c9.4-0.6,14.3-13.4,15.2-16.6C460.2,180.5,461.1,175.7,461.1,175.7z"/>
	<path class="st1" d="M521.4,382.3v3.2c0,0-8.6,13.3-10.4,16c-1.7,2.6-1.1,7.5,2.7,8.5c3.7,1,7.7-3.9,9.9-6.7c2.2-2.7,5.3-6.2,8.5-6
		c3.2,0.3,12.1,0.7,21.7,4.6c9.7,3.9,11.1,5.8,15.3,5.9c4.3,0.1,6-2.3,6.6-3.1c0,0,2.9,1.2,6.5-1.6c3.6-2.8,0.9-5.4,0.9-5.4
		s1.9-0.9,1-3.6c-0.9-2.7-4.7-4.3-9-6.5s-10.4-2.8-14.3-5.4c-3.9-2.6-7.6-5.8-7.6-5.8s-6.6,2.1-15.9,3.8
		C528,382,521.4,382.3,521.4,382.3z"/>
	<path class="st3" d="M539.3,274.6c0,0-17.8,4.7-14.5,23.8c3.3,19.1,18.4,22.4,24.4,20.2L539.3,274.6z"/>
	<path class="st2" d="M292.7,295.4c3,5.3,2.7,11.1-0.8,13.1c-3.5,2-8.7-0.6-11.8-5.9c-3-5.3-2.7-11.1,0.8-13.1
		C284.4,287.5,289.6,290.2,292.7,295.4z"/>
	<path class="st4" d="M276.7,349.8c0,0-22.9,13.8-23.4,46h151.1c0,0,15.3,4.1,34.6,4.4c19.3,0.2,31.9-1.3,41.4-4.2
		c9.5-2.8,14.6-5.9,17.8-12.6c3.2-6.7,3.1-12.9,3.1-12.9l-3.1-18.4c0,0-11.4,6.8-30,4.3c-18.6-2.5-30.2-7-30.2-7L276.7,349.8z"/>
	<path class="st4" d="M104,349c0,0-16-5.6-14.5-19.9c1.5-14.3,9.7-26.1,18.7-35.1c8.9-9,27.8-27.1,46.4-33.5c0,0-2.5,21-6.6,35.5
		c-4.1,14.6-9.3,35.5-20.8,46.9C115.8,354.3,104,349,104,349z"/>
	<path class="st4" d="M88.6,278.8l-25.3-115c0,0-20.2,30-21.2,60.3C41.1,254.5,63.3,275.8,88.6,278.8z"/>
	<path class="st2" d="M63.4,345.6c0,0,10.1-5.5,9.2-18.9c-0.9-13.4-9.4-21.8-25.7-34.2c-16.3-12.4-46.9-22-46.9-22
		s5.1,16.7,7.5,23.6c2.4,6.9,14.2,36.4,25.4,46.9C44.2,351.4,54.5,353,63.4,345.6z"/>
	<path class="st3" d="M439.2,138.9c-0.6,0-1,0.3-0.9,2.4c0.1,2.4,0.7,2.8,1.3,2.7c0.5-0.1,1-0.9,0.8-2.6
		C440.1,139.7,440,138.9,439.2,138.9z"/>
	<path class="st3" d="M423.3,140.2c-0.6,0-1,0.2-1,2.4c0,2.4,0.7,2.8,1.2,2.7s1-0.8,0.9-2.6C424.2,141,424.1,140.2,423.3,140.2z"/>
	<g>
		<path class="st3" d="M419.5,137.2c-0.2,0-0.4-0.1-0.5-0.2c-0.3-0.3-0.3-0.8,0-1.1c1-1.1,2.3-2,5.4-1.6c0.4,0.1,0.7,0.4,0.6,0.8
			c-0.1,0.4-0.4,0.7-0.8,0.6c-2.5-0.4-3.4,0.3-4.1,1.1C419.9,137.1,419.7,137.2,419.5,137.2z"/>
	</g>
	<g>
		<path class="st3" d="M434.7,160.2c-0.5,0-0.9,0-1.4-0.1c-0.4-0.1-0.7-0.4-0.6-0.9c0.1-0.4,0.5-0.7,0.9-0.6c1.7,0.3,3.1,0,4-0.8
			c1.6-1.4,1.5-3.8,1.5-3.9c0-0.4,0.3-0.8,0.7-0.8c0.4,0,0.7,0.3,0.7,0.7c0,0.1,0,3.2-2.1,5C437.5,159.8,436.2,160.2,434.7,160.2z"
			/>
	</g>
	<g>
		<path class="st3" d="M461.1,176.4c-0.3,0-0.7-0.2-0.7-0.6l-4.7-21.2c-0.1-0.4,0.2-0.8,0.6-0.9c0.4-0.1,0.8,0.2,0.9,0.6l4.7,21.2
			c0.1,0.4-0.2,0.8-0.6,0.9C461.2,176.4,461.2,176.4,461.1,176.4z"/>
	</g>
	<g>
		<path class="st3" d="M427.1,155.5c-0.3,0-0.5-0.1-0.7-0.4c-0.8-1.6-2.6-5.5-1.4-6.9c0.7-0.9,2.7-0.7,4.3-0.4l-0.6-9.5
			c0-0.4,0.3-0.8,0.7-0.8c0.4,0,0.8,0.3,0.8,0.7l0.6,10.5c0,0.2-0.1,0.5-0.3,0.6c-0.2,0.2-0.4,0.2-0.7,0.2c-1.6-0.4-3.4-0.5-3.8-0.3
			c-0.3,0.4,0.4,3,1.6,5.3c0.2,0.4,0,0.8-0.3,1C427.3,155.5,427.2,155.5,427.1,155.5z"/>
	</g>
	<g>
		<path class="st3" d="M444.6,137.9c-0.2,0-0.4-0.1-0.6-0.3c-3.8-4.9-8-2.2-8.2-2.1c-0.4,0.2-0.8,0.1-1-0.2c-0.2-0.3-0.1-0.8,0.2-1
			c0.1,0,5.5-3.6,10.2,2.4c0.3,0.3,0.2,0.8-0.1,1.1C444.9,137.8,444.7,137.9,444.6,137.9z"/>
	</g>
	<path class="st4" d="M548.2,319.1c-10.5,2.2-20.7-6-23.3-18.2c-2.5-12.2,2.9-23.9,13.5-26L548.2,319.1z"/>
	<path class="st3" d="M623.3,395.6h-38.1c0-0.1,0-0.3,0-0.4c-0.5-2.8-3.6-5.6-9.5-8.3c-3-1.4-5.9-2.3-8.7-3.2
		c-5.3-1.7-9.6-3.1-12.4-7c2.1-0.8,4.2-1.6,6.3-2.6c0.4-0.2,0.6-0.6,0.5-1c-0.1-0.7-10.6-54.2-21.1-98.5c0,0,0,0,0-0.1
		c0,0,0,0,0-0.1c-4.1-17.3-8.1-33.3-11.6-44.1c-1.4-4.4-14-35.4-29.1-44.6c-4.2-2.5-19.3-10.9-38.4-10.9c0,0,0,0,0,0
		c-0.1,0-0.2,0-0.3,0.1c0,0,0,0,0,0c0,0-0.1,0-0.1,0.1c0,0-0.1,0.1-0.1,0.1c0,0-0.1,0.1-0.1,0.1c0,0.1-0.1,0.1-0.1,0.2
		c0,0.1,0,0.1-0.1,0.2c0,0,0,0.1,0,0.1c-1.4,9-5,20.3-13.8,23.5c-1.5,0.5-3.1,0.5-4.2-0.1c-2.4-1.3-3.2-4.9-3.3-6
		c-0.3-2-0.2-3.9,0-5.9c0-0.6,0.1-1.3,0.1-2c0,0,0.2-3.6,0.2-3.8l-1.6-9.8c0-0.2-0.2-0.5-0.4-0.6c-0.2-0.1-0.4-0.2-0.6-0.1
		c-0.2,0-0.4,0.2-0.6,0.4c-0.1,0.2-0.2,0.4-0.2,0.7l1,5.8c-6.5,0.7-44,7.2-57.2,62.7c-3.7,15.6-8.1,26.8-14.1,36.3l-8.5-22.1
		c-2.8-7.2-10.8-12.1-19.9-12.1H240c-4.7,0-12.4,3-15.9,5.1c-3.2,1.5-5.8,3.7-7.7,6.5c-2.9,4.3-3.6,9.3-1.8,14l7.6,19.7
		c0.1,0.2,0.3,0.4,0.5,0.5c0.2,0.1,0.4,0.1,0.7,0c0.2-0.1,0.4-0.2,0.5-0.5c0.1-0.2,0.1-0.5,0-0.7l-7.6-19.7c-1.6-4.2-1-8.6,1.6-12.3
		c1.7-2.5,4.1-4.5,6.9-5.8c0,0,0.1,0,0.1-0.1c0,0,0.1,0,0.1-0.1c2.8-1.3,6.1-2.1,9.5-2.1h97.1c8.4,0,15.7,4.4,18.2,11l25.6,66.6
		c1.6,4.2,1,8.6-1.6,12.3c-3.4,5-9.7,8-16.7,8h-97.1c-8.4,0-15.7-4.4-18.2-11l-7.2-18.7c-0.1-0.2-0.3-0.4-0.5-0.5
		c-0.2-0.1-0.4-0.1-0.7,0c-0.2,0.1-0.4,0.2-0.5,0.5c-0.1,0.2-0.1,0.5,0,0.7l7.2,18.7c1.8,4.7,5.8,8.4,10.8,10.4
		c0.1,2.8,2.5,5.8,5.7,5.8H275c-6.2,4.7-22.4,19.5-22.6,44.9h-139c-2.4-15-2.4-28.5-1.1-40.3c2.3,0.8,4.6,1.2,6.8,1.2
		c3.2,0,6.2-0.8,9.2-2.4c25.9-14.1,34.3-85.5,34.6-88.5c0-0.3-0.1-0.6-0.3-0.8c-0.2-0.2-0.5-0.3-0.8-0.2
		c-18.4,5.8-47.5,29.5-59.9,51.5l-0.9-29.7c0,0,0,0,0,0c0,0,0-0.1,0-0.1l-25.3-115c-0.1-0.4-0.4-0.6-0.7-0.7
		c-0.4-0.1-0.7,0.1-0.9,0.4c-21,36-26.6,65-16.4,86.3c6.2,13,17.3,20.4,25.6,24.4c7.4,3.6,13.8,5,16.1,5.5l0.9,31.2
		c0,0.2,0.1,0.4,0.2,0.5c-2.4,4.9-4,9.6-4.3,14.1c-0.5,6,1.2,11,4.9,15.1l-1.8,47.5h-7.9c-6-21.3-13.6-39.5-21.3-54.8
		c7.9-6.1,10.8-13.7,8.6-22.5c-6-24-49.7-50.5-72.9-53.8c-0.3,0-0.6,0.1-0.8,0.3c-0.2,0.2-0.3,0.5-0.2,0.8c0,0.1,3.4,13,9.3,28.4
		c0.1,0.2,0.3,0.4,0.5,0.5c0.2,0.1,0.5,0.1,0.7,0c0.2-0.1,0.4-0.2,0.5-0.5c0.1-0.2,0.1-0.5,0-0.7c-4.7-12.2-7.8-22.7-8.9-26.9
		c23.1,4,64.5,29.4,70.1,52.3c2,7.9-0.6,14.8-7.7,20.5c-18.6-36-37.9-54.4-38.1-54.7c-0.2-0.2-0.4-0.2-0.6-0.2
		c-0.2,0-0.5,0.1-0.6,0.3c-0.2,0.2-0.2,0.4-0.2,0.6c0,0.2,0.1,0.5,0.3,0.6c0.3,0.3,19.4,18.6,37.9,54.5c-11,7.9-22.3,4.2-33.5-10.9
		c-0.1-0.2-0.4-0.3-0.6-0.3c-0.2,0-0.5,0-0.6,0.2c-0.2,0.1-0.3,0.4-0.3,0.6c0,0.2,0,0.5,0.2,0.6c7.7,10.4,15.6,15.7,23.5,15.7
		c4.1,0,8.2-1.4,12.3-4.3c7.6,14.9,15,32.9,20.9,53.7h-73c-0.5,0-0.9,0.4-0.9,0.9s0.4,0.9,0.9,0.9h290.2h0h98.7
		c8.7,2.1,20.3,3.7,35.6,3.7c1.4,0,2.7,0,3.9,0c15-0.3,25.9-1.6,34-3.7h33.7c-0.2,0.3-0.4,0.6-0.6,0.9c-0.2,0.4-0.5,0.8-0.8,1.3
		c-1.3,2-2.8,4.3-2.1,7c0.7,2.6,3.3,4.6,6.2,4.6c0.5,0,0.9-0.1,1.4-0.2c1.5-0.3,2.9-1.2,4.3-2.7c1.1-1.1,2-2.4,2.8-3.6l0-0.1
		c0.6-0.9,1.3-1.8,2-2.7c1.8-2.1,3.8-4,6.8-3.7c7.7,0.7,14.1,2,19.5,4c1.7,0.6,3.5,1.5,5.4,2.5c5.2,2.7,11,5.7,16.8,3.1
		c1-0.4,1.6-1,2-1.6c0.1-0.2,0.2-0.4,0.3-0.6c0.4,0.1,0.8,0.1,1.2,0.1c1.4,0,4.9-0.4,6.7-3.9c0.6-1.2,0.6-2.4,0-3.7c0,0,0,0,0-0.1
		c0.1-0.2,0.3-0.5,0.4-0.8h38.4c0.5,0,0.9-0.4,0.9-0.9S623.7,395.6,623.3,395.6z M556.5,383.6c-0.2-0.1-0.5,0-0.7,0.1
		c-0.2,0.1-0.4,0.3-0.4,0.6c-0.1,0.2,0,0.5,0.1,0.7c0.1,0.2,0.3,0.3,0.5,0.4c13.9,3.7,24.9,9.3,26.9,13.6c0.4,0.8,0.4,1.5,0,2.2
		c-1.6,3.2-5,3-6.2,2.8c-0.1-0.7-0.4-1.3-0.7-1.9c-1.6-2.6-4.3-4.5-6.7-6.1l-0.6-0.4c-2.4-1.6-5.1-3.1-8.3-4.6
		c-3-1.4-6.6-2.9-10.2-3.7c-0.2-0.1-0.5,0-0.7,0.1c-0.2,0.1-0.4,0.3-0.4,0.6c-0.1,0.2,0,0.5,0.1,0.7c0.1,0.2,0.3,0.3,0.5,0.4
		c3.5,0.8,7,2.3,9.9,3.6c3.1,1.4,5.8,2.9,8.1,4.5l0.6,0.4c2.3,1.6,4.8,3.3,6.2,5.6c0.4,0.6,0.7,1.7,0.3,2.4
		c-0.2,0.3-0.6,0.6-1.2,0.9c-5,2.3-10.2-0.4-15.2-3l0,0c-1.8-0.9-3.7-1.9-5.6-2.6c-5.6-2.1-12.1-3.4-20-4.1c-3.8-0.3-6.3,2-8.3,4.3
		c-0.8,0.9-1.5,1.9-2.2,2.8c-0.8,1.2-1.7,2.4-2.7,3.4c-1.2,1.2-2.3,2-3.4,2.2c-2.3,0.5-4.9-1-5.4-3.1c-0.5-1.9,0.7-3.8,1.9-5.6
		l0.1-0.1c0.3-0.4,0.5-0.8,0.8-1.2c0.6-1.1,1.8-2.6,2.9-4c2.3-3,4.9-6.5,5.9-9.7l0.2-2.4c8.5-0.4,19.2-1.9,30.2-5.7
		c3.1,4.7,8,6.3,13.6,8.1c2.7,0.9,5.5,1.8,8.5,3.2c6.5,3,8.2,5.5,8.5,7c0.1,0.4,0,0.7,0,1C579.1,391.4,567.3,386.5,556.5,383.6z
		 M383.2,385.1c-0.2-0.2-0.4-0.3-0.6-0.3c-0.2,0-0.5,0.1-0.6,0.2c-0.2,0.2-0.3,0.4-0.3,0.6c0,0.2,0.1,0.5,0.2,0.6
		c0.3,0.3,4.8,5.2,17.3,9.3h-91.6c0.4-12.4,1.9-24.8,9.8-32.1c7.7-7.1,16.2-11.1,26.8-12.7c0.1,0,0.3-0.1,0.4-0.2h78
		c0.2,0,0.4,0,0.6,0h14.1c2.1,0.6,19.7,5.7,33.9,7.1c1.6,0.1,3.1,0.2,4.7,0.2c10.6,0,18.7-3.3,21.6-4.6c1,5.8,1.9,11.6,2.9,17.2
		c-1.9,16.3-7,27.9-55.3,28.7c-1.2,0-2.4,0-3.6,0C396.5,399.3,383.3,385.3,383.2,385.1z M256.8,348.9c-1.9,0-3.4-1.7-3.8-3.3
		c2.2,0.7,4.7,1.1,7.1,1.1h97.1c6.8,0,13-2.7,16.9-7.2h48.4c2.2,0,3.9,1.6,3.9,3.6v2.4c0,2-1.8,3.6-3.9,3.6H256.8z M437.4,181.3
		c0,0-0.2,3.5-0.2,3.6c0,0.6-0.1,1.2-0.1,1.9c-0.1,2.1-0.3,4.2,0.1,6.3c0.2,1.3,1.1,5.6,4.2,7.3c0.8,0.5,1.8,0.7,2.9,0.7
		c0.9,0,1.8-0.2,2.7-0.5c7.5-2.7,12.6-11,14.8-24.1c18.3,0.2,32.8,8.1,36.8,10.6c14.7,8.9,27,39.3,28.3,43.6
		c3.4,10.7,7.3,26.2,11.3,43.2c-5.2,1.3-9.4,4.7-12,9.6c-2.7,5-3.5,11.2-2.2,17.4c2.3,11.2,11.1,19.1,21.3,19.1c1,0,2.1-0.1,3.2-0.3
		c5.5,25.9,9.9,47.8,10.9,52.8c-25.4,11.2-50.6,8.6-55.7,7.9c-11.2-65.3-25.8-157.6-26-158.5c0-0.3-0.2-0.5-0.4-0.6
		c-0.2-0.1-0.4-0.2-0.6-0.1c-0.2,0-0.4,0.2-0.6,0.3c-0.1,0.2-0.2,0.4-0.2,0.7l0.1,0.5c2.1,13.5,11.8,74.3,21,128.8
		c-2.5,1.2-12.9,5.7-25.7,4.4c-11.7-1.1-25.9-4.8-33.3-6.9c-0.3-0.1-0.5-0.1-0.6-0.2h-10.6c0.9-1,1.5-2.2,1.5-3.6v-2.4
		c0-3-2.6-5.4-5.7-5.4h-22.1c7-6.8,7.4-27.5,7.2-36.6c0,0,0,0,0,0c0-0.1,0-0.3,0-0.4c0-1.7-0.1-3-0.1-3.6
		c-2.5-48.3-2.2-60.6,0.2-75.4c0-0.2,0-0.5-0.2-0.7c-0.1-0.2-0.3-0.3-0.6-0.3c-0.2-0.1-0.4,0-0.6,0.1c-0.2,0.1-0.4,0.4-0.4,0.6
		c-2.3,15-2.7,27.4-0.2,75.8c0.1,1.1,0.1,2.4,0.1,3.7c-0.7,2.4-7.5,25.7-23.8,36.7c-0.1,0-0.1,0.1-0.1,0.1h-2.1
		c3.6-4.5,4.6-12,2.9-16.5l-16.4-42.6c0.1-0.1,0.2-0.2,0.3-0.3c6.4-9.8,10.9-21.4,14.8-37.6c7.3-30.6,22.2-45.6,33.4-52.9
		c10.4-6.7,19.7-8.2,22.4-8.5L437.4,181.3z M525.8,300.7c-1.2-5.8-0.5-11.6,2-16.2c2.4-4.5,6.2-7.5,10.9-8.7
		c3.3,13.9,6.5,28.7,9.5,42.4C537.9,319.8,528.2,312.3,525.8,300.7z M384.8,337.6c11.6-8.8,18.2-23.3,21-31.2
		c-0.2,12.7-2.2,28.4-8.5,31.2H384.8z M377.3,337.6h-1.8c2.8-4.2,3.3-9.1,1.6-13.7l-25.6-66.6c-2.8-7.2-10.8-12.1-19.9-12.1h-97.1
		c-0.1,0-0.3,0-0.4,0c2.1-0.6,4.2-1,5.9-1h97.1c8.4,0,15.7,4.4,18.2,11l25.6,66.6C382.6,326,381.3,333.9,377.3,337.6z M336.4,350.7
		c-7.6,2.2-14.2,5.9-20.2,11.5c-8.3,7.7-9.9,20.5-10.3,33.4h-51.7c0.1-15.6,6.6-27,12-33.8c5.4-6.7,10.7-10.3,11.9-11.1H336.4z
		 M501.2,376.1c0.3,1.8,0.6,3.6,0.9,5.4c0.1,0.4,0.4,0.7,0.7,0.7c0.2,0,5.4,0.9,13.6,0.9c1.4,0,2.8,0,4.4-0.1l-0.1,2
		c-0.8,2.8-3.4,6.1-5.6,9c-0.5,0.6-0.9,1.2-1.3,1.8c-0.2-0.1-0.4-0.2-0.6-0.2h-28.7C495.8,391.2,499.5,384.4,501.2,376.1z
		 M125.6,310.8c10-19,21.6-28.6,21.8-28.7c0.4-0.3,0.4-0.9,0.1-1.2c-0.1-0.2-0.4-0.3-0.6-0.3c-0.2,0-0.5,0-0.6,0.2
		c-0.4,0.3-29.3,24.2-35.5,72c-0.3-0.1-0.6-0.3-0.9-0.4c-8.6-4.2-12.6-10.7-12-19.2c1.8-24.2,40.5-58.4,63.1-66.4
		c-0.7,5.4-3.3,23.2-8.5,41.6c-6.8,24-15.3,38.9-25.1,44.2c-4.7,2.5-9.7,2.9-14.9,0.9C114.8,335.3,120.3,321,125.6,310.8z
		 M109.1,353.9c0.5,0.2,1,0.5,1.5,0.7c-1.4,12.2-1.3,25.8,1,41H101l1.7-45.8C104.5,351.3,106.6,352.7,109.1,353.9z M99,285.3
		c-5.3-1.1-29.5-7.4-39.8-28.8c-9.7-20.3-4.6-48.1,15.2-82.7L99,285.3z"/>
	<path class="st3" d="M288.9,304.7c1.3,0.7,2.6,1,3.8,1c1.1,0,2.1-0.3,3-0.8c1.9-1.1,3.1-3.3,3.3-6.1c0.2-2.6-0.6-5.6-2.2-8.3
		c-1.6-2.7-3.7-4.8-6.1-6c-2.5-1.3-4.9-1.3-6.9-0.2c-1.9,1.1-3.1,3.3-3.3,6.1c-0.2,2.6,0.6,5.6,2.2,8.3
		C284.3,301.4,286.5,303.6,288.9,304.7z M284.3,297.8c-1.4-2.4-2.1-5-1.9-7.3c0.1-2.2,1-3.8,2.4-4.6c0.6-0.4,1.4-0.5,2.1-0.5
		c1,0,2,0.3,3,0.8c2.1,1,4,2.9,5.3,5.3c1.4,2.4,2.1,5,1.9,7.3c-0.1,2.2-1,3.8-2.4,4.6c-1.4,0.8-3.3,0.7-5.2-0.3
		C287.6,302.1,285.7,300.2,284.3,297.8z"/>
	<path class="st3" d="M309.9,27.3h167.7c9.6,0,17.5,7.7,17.5,17.1V165c0,0.5,0.4,0.9,0.9,0.9c0.5,0,0.9-0.4,0.9-0.9V44.4
		c0-10.4-8.6-18.8-19.3-18.8H309.9c-0.5,0-0.9,0.4-0.9,0.9C309,26.9,309.4,27.3,309.9,27.3z"/>
	<path class="st3" d="M72.6,153.4c0.5,0,0.9-0.4,0.9-0.9V40.4c0-0.5-0.4-0.9-0.9-0.9c-0.5,0-0.9,0.4-0.9,0.9v112.1
		C71.7,153,72.1,153.4,72.6,153.4z"/>
	<path class="st3" d="M146,338.5c0,0.5,0.4,0.9,0.9,0.9h91.8c0.5,0,0.9-0.4,0.9-0.9c0-0.5-0.4-0.9-0.9-0.9h-91.8
		C146.4,337.6,146,338,146,338.5z"/>
</g>
<g id="Слой_5">
	<path class="st5" d="M276.7,205.4c-34.8,9.9-156.3,6-166.5,3.6c5.8-46.3-2.7-207.9-2.7-207.9L275.8,2
		C275.8,2,283,145.4,276.7,205.4z"/>
	<g>
		<path class="st3" d="M134.9,34.2c-0.6,0-1.1-0.5-1.1-1.1c0-0.6,0.5-1.1,1.1-1.1l111.6-0.4c0,0,0,0,0,0c0.6,0,1.1,0.5,1.1,1.1
			c0,0.6-0.5,1.1-1.1,1.1L134.9,34.2C135,34.2,135,34.2,134.9,34.2z"/>
	</g>
	<g>
		<path class="st3" d="M134.9,54.9c-0.6,0-1.1-0.5-1.1-1.1c0-0.6,0.5-1.1,1.1-1.1l111.6-0.5c0,0,0,0,0,0c0.6,0,1.1,0.5,1.1,1.1
			c0,0.6-0.5,1.1-1.1,1.1L134.9,54.9C135,54.9,135,54.9,134.9,54.9z"/>
	</g>
	<g>
		<path class="st3" d="M134.9,75.6c-0.6,0-1.1-0.5-1.1-1.1c0-0.6,0.5-1.1,1.1-1.1l111.6-0.4c0,0,0,0,0,0c0.6,0,1.1,0.5,1.1,1.1
			c0,0.6-0.5,1.1-1.1,1.1L134.9,75.6C135,75.6,135,75.6,134.9,75.6z"/>
	</g>
	<g>
		<path class="st3" d="M134.9,96.3c-0.6,0-1.1-0.5-1.1-1.1c0-0.6,0.5-1.1,1.1-1.1l111.6-0.4c0,0,0,0,0,0c0.6,0,1.1,0.5,1.1,1.1
			c0,0.6-0.5,1.1-1.1,1.1L134.9,96.3C135,96.3,135,96.3,134.9,96.3z"/>
	</g>
	<g>
		<path class="st3" d="M134.9,117c-0.6,0-1.1-0.5-1.1-1.1c0-0.6,0.5-1.1,1.1-1.1l111.6-0.5c0,0,0,0,0,0c0.6,0,1.1,0.5,1.1,1.1
			c0,0.6-0.5,1.1-1.1,1.1L134.9,117C135,117,135,117,134.9,117z"/>
	</g>
	<g>
		<path class="st3" d="M134.9,137.7c-0.6,0-1.1-0.5-1.1-1.1c0-0.6,0.5-1.1,1.1-1.1l111.6-0.4c0,0,0,0,0,0c0.6,0,1.1,0.5,1.1,1.1
			c0,0.6-0.5,1.1-1.1,1.1L134.9,137.7C135,137.7,135,137.7,134.9,137.7z"/>
	</g>
	<g>
		<path class="st3" d="M134.9,158.4c-0.6,0-1.1-0.5-1.1-1.1c0-0.6,0.5-1.1,1.1-1.1l57.6-0.4c0,0,0,0,0,0c0.6,0,1.1,0.5,1.1,1.1
			c0,0.6-0.5,1.1-1.1,1.1L134.9,158.4C135,158.4,135,158.4,134.9,158.4z"/>
	</g>
</g>
<g id="Слой_6">
	<circle class="st2" cx="274.4" cy="125.7" r="47.8"/>
	<path class="st1" d="M259.1,126.7c-2-2-5.2-2-7.2,0l-1.9,2c-2,2-2,5.2,0,7.2l14.3,14.3c2,2,5.2,2,7.2,0l29.3-28.6c2-2,2-5.2,0-7.2
		l-2-2c-2-2-5.2-2-7.2,0l-23.8,23.1L259.1,126.7z"/>
	<g>
		<path class="st3" d="M274.8,82.7c-15.4,0-29.4,7.9-37.4,21.1c-0.2,0.2-0.2,0.5-0.1,0.8c0.1,0.3,0.2,0.5,0.5,0.7
			c0.3,0.2,0.5,0.2,0.8,0.1c0.3-0.1,0.5-0.2,0.7-0.5c7.6-12.6,20.9-20.1,35.6-20.1c22.9,0,41.5,18.6,41.5,41.5
			c0,22.9-18.6,41.5-41.5,41.5c-19.2,0-36.3-13.6-40.5-32.4c-0.1-0.6-0.7-0.9-1.3-0.8c-0.3,0.1-0.5,0.2-0.7,0.5
			c-0.2,0.2-0.2,0.5-0.1,0.8c4.4,19.7,22.4,34,42.6,34c24.1,0,43.7-19.6,43.7-43.7C318.5,102.3,298.9,82.7,274.8,82.7z"/>
		<path class="st3" d="M266.9,147.2c1.6,0,3.2-0.6,4.3-1.8l29.4-28.6c2.4-2.4,2.4-6.3,0-8.7l-2-2c-1.2-1.2-2.7-1.8-4.3-1.8
			c-1.6,0-3.2,0.6-4.3,1.8l-23,22.4l-8-8c-1.2-1.2-2.7-1.8-4.3-1.8c-1.6,0-3.2,0.6-4.3,1.8l-1.9,2c-1.2,1.2-1.8,2.7-1.8,4.4
			c0,1.6,0.6,3.2,1.8,4.3l14.3,14.3C263.7,146.5,265.2,147.2,266.9,147.2z M254.6,120.8c1.1,0,2.1,0.4,2.8,1.2l8.7,8.7
			c0.4,0.4,1.1,0.4,1.5,0l23.8-23.1c1.5-1.5,4.1-1.5,5.6,0l2,2c1.5,1.5,1.5,4.1,0,5.6l-29.4,28.6c-1.5,1.5-4.1,1.5-5.6,0l-14.3-14.3
			c-0.7-0.7-1.2-1.7-1.2-2.8c0-1.1,0.4-2.1,1.2-2.8l1.9-2C252.5,121.3,253.5,120.8,254.6,120.8z"/>
	</g>
</g>
<g id="Слой_4">
	<path class="st1" d="M429.1,114.9l-4.1,2.9c0,0,11.1,16.7,21.2,17.7s7.5-0.6,7.5-0.6S430.3,119.7,429.1,114.9z"/>
	<path class="st1" d="M429.7,110.5c0,0-11,11.9-11.5,21.8c0,0-5-11.5,5.8-20.6C427.8,108.4,429.7,110.5,429.7,110.5z"/>
	<path class="st1" d="M422.3,162.8l1.9,2.9c0,0-4.8,5.7-2.6,12.5c2.1,6.8,8.5,7.5,8.5,7.5s-12.6,2.5-13.3-9.8
		C416.3,168.4,422.3,162.8,422.3,162.8z"/>
	<path class="st1" d="M458.4,149.1l4.7,1.7c0,0-9.7,15.6-5.7,24.5s11,11,11,11s-16.4,1.3-18-17.9
		C448.8,149.1,458.4,149.1,458.4,149.1z"/>
	<path class="st4" d="M453.6,136.2c-4.4-0.6-15.1-3.4-22.8-16.9c-1.1-2-3.7-2.6-5.6-1.3c-3,2.1-6.8,6.8-7.4,17.1c0,0-0.9-9.4,7-20.9
		c0.8-1.2,2.5-3.3,3.7-4c5.6-3.1,11.6-3.4,24.6-3c10.9,0.3,20.1,5.9,22.7,16.3c0.1,0.4,0.1,0.8,0.1,1.2l-2.8,36.7
		c-0.1,1.2,0.3,2.3,1.2,3.1c0.9,0.9,2.6,2.1,5.4,3.7c5.6,3.2,9.7,7.4,8,14.2c-0.6,2.3-2.5,6.5-4.7,5.6l-2.8-1c-1-0.4-2.2-3.4-3.2-3
		c-3.6,1.8-13.3,5-19.8-7c0,0-4.1-6.2-1.3-15.3c1.7-5.6,3.6-8.8,4.8-10.4c0.6-0.8,1.4-1.3,2.4-1.5c0.9-0.2,2.2-0.7,3.2-1.9
		c1.3-1.6,2.1-3.4,1.6-7.9c-0.6-5.5-4-6.9-6.4-6.8c-1.9,0.1-3.4,0.6-4.8,2C455.9,136,454.8,136.4,453.6,136.2z"/>
	<path class="st4" d="M424,165c0,0,1.9,5.5,12,6.7l1.7,10.5c0,0-2.3,2.5-6.6,3.5c0,0-5.2,0.8-8.3-3.7
		C420.2,178.1,419.7,170.1,424,165z"/>
	<g>
		<path class="st3" d="M463.2,137.7c0-0.2-0.1-0.5-0.3-0.6c-0.2-0.1-0.4-0.2-0.6-0.2c-0.2,0-0.5,0.1-0.6,0.3l-3.7,4.6
			c-0.2,0.2-0.2,0.5-0.2,0.7c0,0.3,0.2,0.5,0.4,0.6l4.2,2.4c0.2,0.1,0.3,0.1,0.5,0.1c0,0,0,0,0.1,0c0.3,0,0.5-0.2,0.6-0.4
			c0.2-0.4,0.1-1-0.3-1.2l-3.3-1.9l3.1-3.7C463.2,138.2,463.3,137.9,463.2,137.7z"/>
		<path class="st3" d="M478.6,166.5c-2.1-1.3-4.5-2.7-4.5-3.7c0.8-22.3,2.6-36.4,2.8-37.9c0-0.1,0-0.2,0-0.3
			c-1-6.5-4.5-11.3-10.5-14.4c-13.4-7-36.7-3-43.3,0.2c-0.4,0.3-10.3,7-6.2,26.9c0,0.3,0,0.5,0,0.8c0.3,7,0.7,16.7,4,24
			c-1,1.2-6.7,8.2-4.6,16.7c2.2,9,11.2,8.8,13.9,8.6c0.5,0,0.8-0.1,0.8-0.1c0,0,0,0,0,0c0.2,0,0.4-0.2,0.6-0.4
			c0.1-0.2,0.2-0.4,0.1-0.7c0-0.2-0.2-0.5-0.4-0.6c-0.2-0.1-0.4-0.2-0.6-0.1c-0.4,0.1-10.5,1.9-12.7-7.1c-1.7-6.7,2.2-12.6,3.7-14.5
			c1.1,1.9,2.4,3.6,4,5c3.4,2.9,7.9,4.1,13.4,3.5c0.4,0,0.7-0.1,1.1-0.1c0,0,0,0,0,0c0.5-0.1,0.8-0.5,0.7-1c0-0.3-0.2-0.5-0.4-0.6
			c-0.2-0.1-0.4-0.2-0.6-0.1c-5.4,0.8-9.8-0.2-13.1-3c-7.4-6.2-7.9-20.2-8.3-29.4c0,0,0-0.1,0-0.1c0-0.1,0.1-0.3,0-0.5
			c0-0.1,0-0.2-0.1-0.3c0-1-0.1-2-0.1-2.9c0.2-1.6,2-13.7,7.2-15.1c1.7,3.6,9.9,18.1,28.6,18.2c0,0.1-0.1,0.1-0.1,0.2
			c-0.2,0.5,0.1,1,0.5,1.1c0.5,0.2,1-0.1,1.1-0.5c0.9-2.4,2.5-3.7,4.8-3.8c3.3-0.2,6.1,3,6.4,7.1c0.1,2-0.4,4-1.5,5.5
			c-1,1.5-2.4,2.3-4,2.4c-1.3,0.1-2.5-0.4-3.6-1.3c-0.4-0.3-0.9-0.3-1.2,0.1c-0.2,0.2-0.2,0.4-0.2,0.6c0,0.2,0.1,0.5,0.3,0.6
			c0,0,0.1,0,0.1,0.1c-2,2.7-14.3,20.1-1.6,33.1c3.4,3.5,8,4.9,13.7,4.4c0.7-0.1,1.4-0.2,2.1-0.3c4.3-0.8,7.4-2.4,7.6-2.4
			c0.4-0.2,0.6-0.8,0.4-1.2c-0.2-0.4-0.8-0.6-1.2-0.4c-0.1,0.1-13.4,6.7-21.3-1.3c-12.1-12.3,0.3-28.9,1.8-30.9
			c1,0.5,2.1,0.7,3.3,0.7c0.1,0,0.2,0,0.3,0c0.2,0,0.3,0,0.5-0.1c1.8-0.3,3.4-1.4,4.6-3c1.3-1.8,2-4.2,1.8-6.6c-0.3-5.1-4-9-8.2-8.8
			c-2.3,0.1-4.1,1.2-5.4,3c-20.5,0.4-28.1-17.6-28.2-17.8c-0.1-0.4-0.5-0.6-0.9-0.5c-4.8,0.5-7.3,7.1-8.5,11.9
			c-0.3-12.3,6-16.9,6.3-17.1c6.3-3.1,28.7-7,41.6-0.2c5.4,2.8,8.6,7.2,9.5,13c-0.2,1.7-2,15.7-2.8,38c-0.1,2,2.3,3.5,5.3,5.3
			c5.5,3.3,13.1,7.9,7.6,18.1c-0.1,0.2-0.1,0.4-0.1,0.7c0.1,0.2,0.2,0.4,0.4,0.5c0.2,0.1,0.3,0.1,0.5,0.1c0,0,0,0,0.1,0
			c0.3,0,0.5-0.2,0.6-0.5C493.2,175.3,484.4,170,478.6,166.5z M476.7,124.6C476.7,124.6,476.7,124.6,476.7,124.6L476.7,124.6
			L476.7,124.6z"/>
	</g>
	<g>
		<path class="st3" d="M483.6,189.4c-0.5,0.1-0.9,0.1-1.4,0c-2.3-0.4-4-2.6-4.6-5.9c-0.1-0.5,0.2-1,0.7-1c0,0,0,0,0,0
			c0.5-0.1,1,0.2,1,0.7c0.4,2.5,1.6,4.2,3.1,4.5c1.1,0.2,2.1-0.4,2.8-1.6c0.2-0.4,0.8-0.6,1.2-0.3c0.4,0.2,0.6,0.8,0.3,1.2
			C486.1,188.3,485,189.2,483.6,189.4z"/>
	</g>
</g>
<g id="Слой_8">
</g>
</svg>
