<?xml version="1.0" encoding="utf-8"?>
<!-- Generator: Adobe Illustrator 22.0.1, SVG Export Plug-In . SVG Version: 6.00 Build 0)  -->
<svg version="1.0" xmlns="http://www.w3.org/2000/svg" xmlns:xlink="http://www.w3.org/1999/xlink" x="0px" y="0px" width="459.3px"
	 height="365.7px" viewBox="0 0 459.3 365.7" style="enable-background:new 0 0 459.3 365.7;" xml:space="preserve">
<style type="text/css">
	.st0{fill:#EDA58A;}
	.st1{fill:#FFFFFF;}
	.st2{fill:#9898EA;}
	.st3{display:none;fill:#48484B;}
	.st4{fill:#272728;}
	.st5{fill:#48484B;}
	.st6{display:none;}
	.st7{display:inline;fill:#272728;}
</style>
<g id="Layer_1">
	<path class="st0" d="M250.3,365.2c175.5-11.7,224.1-127.8,205.2-227.7C436.6,37.7,342.1-7.4,280,30.4
		c-51.9,31.6-18.2,81.1-53.1,132.3c-27,39.6-51.4,9.5-101.7,23.4C-0.8,220.9,103.5,375,250.3,365.2z"/>
	<path class="st1" d="M363.8,64.3v117c0,0-26.5-19.9-65.7-31.6s-55.9-12.5-55.9-12.5V20.6c0,0,30.1,3.2,64,15S363.8,64.3,363.8,64.3
		z"/>
	<path class="st2" d="M162.9,186.7c0,0,26.6-2.9,42.1-18.5l18.2,39.4c0,0,5.5-25.7,6.9-31.9c1.4-6.2,1.6-18.6,35.5-18.4l26.8,0
		c0,0,31.9-1.2,42.8,16.8c10.9,17.9,11.3,27,11.3,27l26.7,105.3l7.4,36.1H214.3l1.8-50.2c0,0-13.6,1.3-23.7-12.4
		c-10.1-13.7-17-30.2-19.9-39.5c-2.9-9.3-9.2-32.8-9.2-32.8L162.9,186.7z"/>
	<path class="st1" d="M291.4,157.2l0.3-22.5c0,0,6.9,2.2,10-6.5c3.1-8.7-11.5-10.3-13-9.5c0,0-9.2-4.3-13-6.7
		c-7.1-4.4-12.6-16.6-12.6-16.6l-4.3,6.1l-3.8,22.5c0,0-1.3,14.9,2.1,18.5c3.4,3.6,7.8,4.4,10,4.1l-0.8,10.5c0,0-2.7,8.6-3.1,10.1
		c-0.4,1.5-2.4,8.5,4,10.4c6.4,1.9,11.7-2,14.8-5.8C285.1,168.2,291.4,157.2,291.4,157.2z"/>
	<path class="st1" d="M197.9,173.5l-5.4-9.1c0,0-3.1-16.4-4.4-17.6c-1.3-1.2-2.7-4.7-9.8-4.6c0,0-1.3-0.8-1.5-1
		c-0.2-0.2-12.7-14.4-12.7-14.4s-2.8-1.1-5,0.7s-1.6,5.3-0.5,7.2c1.1,2,7.5,10.5,7.5,10.5s-6.5,0.1-7.2,3l2.7,2.8l0.8,25.7
		c0,0,6.3,7.7,9.5,8.3C172,184.8,192.3,178.9,197.9,173.5z"/>
	<path class="st3" d="M262.6,92.5c0,0-2.6-9,4.7-17.6c7.3-8.6,30.1-0.3,30.1-0.3s-3.2-10,1.6-18c4.8-7.9,15.2-11,24.7-6.3
		c9.4,4.7,12.9,16.9,11.1,25.2c-1.9,8.3-7.6,13.4-12.9,13.6c0,0,2.6,10.3-0.5,22.2c-3.1,11.9-10.6,21.3-22.8,22.2l0.1-4.1
		c0,0,9.2,1.4,10.7-6.5c1.5-7.9-4.8-11.2-6.6-11.6c-1.8-0.3-6,0.3-6,0.3s-5.7-1.4-10.8-4.3c-5.2-2.9-10.9-8.5-12.4-10.5
		c-1.5-2-6.6-10.6-6.6-10.6S263.1,90.1,262.6,92.5z"/>
	<path class="st1" d="M161.7,150.8l3.2,118.9c0,0-45.8-28-52.6-68.2V86.4c0,0-3.5-16,6.6-32.1C129.1,38.2,152.4,29,152.4,29
		l0.5,114.8L161.7,150.8z"/>
	<path class="st1" d="M240.7,187.6l1.5,117.1c0,0,45,13,82.5,10.4c37.5-2.6,63.1-11.9,77-25.5c13.9-13.6,15-29.1,15-29.1l0.3-121.4
		c0,0,3.1,32.6-38.5,48.5c-41.6,15.9-88.2,9.8-92.5,9.4C277.8,196.1,240.7,187.6,240.7,187.6z"/>
	<path class="st2" d="M281.1,249.7c0,0-54.9-4.9-71.5-16v40.5c0,0,29.4,14,71.5,15.9V249.7z"/>
	<path class="st4" d="M197.9,173.5l-3.2-5.4c0,0,9.1-2.3,10-0.5C205.5,169.3,197.9,173.5,197.9,173.5z"/>
	<path class="st4" d="M162.9,177c0,0,5.9,7.3,8.4,7.8c0,0-5.8,1.7-8.4,1.6V177z"/>
	<polygon class="st2" points="363.4,116.3 363.4,151.2 382.8,160.7 382.8,125.7 	"/>
	<path class="st5" d="M152.9,40.4V70c0,0,11.2-5.6,21.7-7c10.5-1.5,18.1-2.1,18.1-2.1V31.3c0,0-12.2-0.3-23.2,3.1
		C158.3,37.8,152.9,40.4,152.9,40.4z"/>
	<path class="st2" d="M152.4,29l0.5,114.8c0,0-17.8-12.4-26.7-26.6c-8.9-14.1-13.4-26.7-13.9-30.9c-0.5-4.2-1.7-20.3,5.2-29.7
		C124.5,47.3,127.4,41.3,152.4,29z"/>
	<path class="st1" d="M297.8,74.5c-2.3,11.4-0.6,11.8-0.6,11.8h-4.7l-1.9-1c-0.3-1-2.6-9.4,1.4-16.1c4.3-7.1,13.7-9.9,22.2-5.6
		c0.8,0.4,1.5,0.9,2.2,1.3C313.4,64.7,299.8,64.5,297.8,74.5z"/>
	<path class="st1" d="M283.8,83.5c-3.5,0.3-17,1.8-16.5,9.8c0.5,9.1,16.8,23.6,16.9,23.6c-1.3-0.5-2.7-1.2-4-1.9
		c-4.6-2.6-9.8-7.7-11.1-9.5c-1.3-1.8-6-9.6-6-9.6s-3.3,3.4-3.7,5.6c0,0-2.3-8.1,4.2-15.8C267.7,80.8,277.2,81.9,283.8,83.5z"/>
	<g>
		<g>
			<path class="st4" d="M197.9,175c0.1,0,0.3,0,0.4-0.1c0.4-0.2,0.5-0.7,0.3-1.1c-1.4-2.4-5.5-10-5.5-10.1l-2.7-10.4
				c-0.1-0.5-0.2-1-0.4-1.5c-0.9-3.5-2.1-7.3-5.1-9.3c-1.7-1.1-3.6-1.1-5.5-1.1c-2.4,0-4.8,0.3-7.2,0.8c-1,0.2-2.3,0.5-3.4,1.1
				c-2.4,1.2-4.2,4.2-2.9,7.1c0.7,1.6,2.1,2.8,4.1,3.5c2.2,0.8,4.7,0.9,6.4,1c3.3,0.1,6.6-0.6,9.4-2.1c0.4-0.2,0.5-0.7,0.3-1.1
				c-0.2-0.4-0.7-0.5-1.1-0.3c-2.4,1.3-5.2,1.9-8.1,1.9c-0.1,0-0.3,0-0.4,0c-1.6,0-3.9-0.2-5.9-0.9c-1.5-0.6-2.6-1.5-3.1-2.7
				c-0.9-2.1,0.4-4.2,2.2-5.1c0.9-0.5,2-0.8,3-1c2.3-0.5,4.6-0.7,6.9-0.8c1.8-0.1,3.3,0,4.6,0.9c2.6,1.6,3.6,5.1,4.4,8.3
				c0.1,0.5,0.2,1,0.4,1.5l2.7,10.6c0.2,0.5,4.2,7.9,5.6,10.3C197.4,174.8,197.6,175,197.9,175z"/>
		</g>
		<g>
			<path class="st4" d="M162.2,172.4c2.2-0.2,3.6-1.6,4.4-4c0.5-1.6,0.3-3.5-0.5-5.4c-0.9-2.1-2.1-3.7-3.6-5.5
				c-0.3-0.3-0.8-0.4-1.1-0.1c-0.3,0.3-0.4,0.8-0.1,1.1c1.4,1.7,2.5,3.1,3.4,5c0.7,1.5,0.8,3.1,0.4,4.3c-0.6,1.9-1.5,2.8-3,2.9
				c-0.4,0-0.8,0.4-0.7,0.9C161.5,172.1,161.8,172.4,162.2,172.4z"/>
		</g>
		<g>
			<path class="st4" d="M166.7,146.3c0.2,0,0.3-0.1,0.5-0.2c0.3-0.3,0.4-0.8,0.1-1.1c-1.5-1.9-3-3.9-4.5-5.8l-0.5-0.6
				c-2.3-2.8-4.4-5.5-3.5-9.1c0.4-1.5,1.5-3,3.3-2.6c0.9,0.2,1.8,0.8,2.7,1.6c4.8,4.1,8.7,9.3,11.9,13.9c0.3,0.4,0.8,0.4,1.1,0.2
				c0.4-0.3,0.4-0.8,0.2-1.1c-3.3-4.7-7.3-10-12.2-14.2c-1-0.8-2.1-1.7-3.4-2c-2.7-0.7-4.6,1.4-5.2,3.8c-1.1,4.3,1.5,7.6,3.8,10.5
				l0.5,0.6c1.5,1.9,3,3.8,4.5,5.8C166.2,146.2,166.5,146.3,166.7,146.3z"/>
		</g>
		<g>
			<path class="st4" d="M158.9,149.2c0.3,0,0.7-0.2,0.8-0.6c0.5-1.5,1.3-2.3,2.9-2.6c1-0.2,2.7-0.4,3.7,0.9c0.3,0.4,0.8,0.4,1.1,0.2
				c0.4-0.3,0.4-0.8,0.2-1.1c-1.1-1.6-3.1-2.2-5.4-1.6c-2.1,0.5-3.4,1.7-4,3.7c-0.1,0.4,0.1,0.9,0.5,1
				C158.7,149.2,158.8,149.2,158.9,149.2z"/>
		</g>
		<g>
			<path class="st4" d="M169.9,164.4c2.2,0,4.9-1,6.2-3.3c0.8-1.5,1.3-3.9-0.9-7.5c-0.2-0.4-0.7-0.5-1.1-0.2
				c-0.4,0.2-0.5,0.7-0.2,1.1c1.4,2.3,1.8,4.3,0.9,5.8c-1,1.7-3.1,2.5-4.8,2.5c-1.7,0-3.1-1.1-4.1-2c-0.8-0.8-1.4-1.6-2.1-2.3
				c-0.4-0.5-0.8-1-1.3-1.5c-0.3-0.3-0.8-0.4-1.1-0.1c-0.3,0.3-0.4,0.8-0.1,1.1c0.5,0.5,0.9,1,1.3,1.5c0.7,0.8,1.3,1.6,2.2,2.5
				C165.8,163,167.6,164.4,169.9,164.4C169.8,164.4,169.9,164.4,169.9,164.4z"/>
		</g>
		<g>
			<path class="st4" d="M176.5,173c0.2,0,0.4-0.1,0.5-0.2c0.3-0.3,0.4-0.8,0.1-1.1c-3.3-4.2-2.9-8.9-2.9-9c0-0.4-0.3-0.8-0.7-0.9
				c-0.5-0.1-0.8,0.3-0.9,0.7c0,0.2-0.5,5.4,3.3,10.1C176,172.9,176.3,173,176.5,173z"/>
		</g>
	</g>
	<g>
		<path class="st4" d="M162.9,187.5c4.4,0,12.2-2.1,21.2-5.8c8.1-3.2,22.9-10.5,21.3-14.6c-0.7-1.8-2.8-1.7-4.1-1.6
			c-2.5,0.1-4.7,0.6-6.7,1.4c-0.4,0.2-0.6,0.6-0.4,1c0.2,0.4,0.6,0.6,1,0.4c1.8-0.7,3.8-1.2,6-1.2c1.3-0.1,2.3,0,2.6,0.6
			c0.5,1.2-6.2,6.8-20.4,12.5c-8.8,3.5-16.5,5.6-20.6,5.6c-0.4,0-0.8,0.4-0.8,0.8S162.5,187.5,162.9,187.5z"/>
	</g>
	<g class="st6">
		<path class="st7" d="M276.6,143.6c1.7,0,3.5,0,5.3-0.2c0.5,0,0.9-0.5,0.8-0.9c0-0.5-0.4-0.9-0.9-0.8c-2.9,0.2-5.7,0.2-8.1,0.1
			l-0.9,0c-4-0.1-7.8-0.1-10.7-2.9c-0.9-0.9-1.7-1.9-2.2-3.1c-0.7-1.6-1-3.5-1.2-5.2c-0.3-2-0.4-4.2-0.3-6.6
			c0.1-4.1,0.7-8.3,1.3-12.3l0.1-1c0.7-4.9,3.4-16.3,3.4-16.4c0.1-0.5-0.2-1-0.7-1.1c-0.5-0.1-1,0.2-1.1,0.7
			c-0.1,0.5-2.7,11.5-3.4,16.5l-0.1,1c-0.6,4.1-1.2,8.3-1.3,12.5c-0.1,2.5,0,4.8,0.3,6.9c0.3,1.8,0.5,3.9,1.4,5.7
			c0.6,1.4,1.5,2.6,2.6,3.7c3.4,3.2,7.7,3.3,11.9,3.4l0.9,0C274.6,143.6,275.6,143.6,276.6,143.6z"/>
	</g>
	<path class="st4" d="M277.5,114.2c-0.6-0.2-1.1,0-1.6,2.3c-0.5,2.5,0.1,3,0.6,3.1c0.6,0.1,1.2-0.7,1.5-2.5
		C278.2,115.3,278.3,114.4,277.5,114.2z"/>
	<path class="st4" d="M261.2,110.8c-0.6-0.2-1.1,0-1.6,2.2c-0.6,2.5,0,3.1,0.5,3.1c0.6,0.1,1.3-0.6,1.5-2.4
		C261.9,111.9,262,111,261.2,110.8z"/>
	<g>
		<path class="st4" d="M258.3,106.7c0.2,0,0.3,0,0.4-0.1c0.9-0.6,2-1.1,4.5-0.1c0.4,0.2,0.9,0,1-0.4c0.2-0.4,0-0.9-0.4-1
			c-3.1-1.2-4.7-0.6-6,0.2c-0.4,0.2-0.5,0.7-0.2,1.1C257.8,106.6,258,106.7,258.3,106.7z"/>
	</g>
	<g class="st6">
		<path class="st7" d="M300.4,130.5c4.7,0,8.9-3.2,9.9-8c0.6-2.6,0.1-5.4-1.4-7.6c-1.5-2.3-3.7-3.9-6.4-4.4
			c-1.9-0.4-3.9-0.3-5.8,0.4c-0.5,0.1-1.9,0.4-3.4,2.3c-0.3,0.4-0.3,0.9,0.1,1.3c0.4,0.3,0.9,0.3,1.3-0.1c1.3-1.6,2.2-1.7,2.2-1.7
			c0.1,0,0.2,0,0.3-0.1c1.6-0.6,3.2-0.8,4.9-0.4c2.2,0.5,4.1,1.8,5.3,3.7c1.2,1.9,1.6,4.1,1.1,6.3c-1,4.5-5.5,7.4-10,6.4
			c-1.5-0.3-2.8-1-4-2.1c-0.3-0.3-0.9-0.3-1.3,0c-0.3,0.4-0.3,0.9,0,1.3c1.3,1.3,3,2.1,4.8,2.5C299,130.4,299.7,130.5,300.4,130.5z"
			/>
	</g>
	<g class="st6">
		<path class="st7" d="M302.1,126c0.2,0,0.5-0.1,0.6-0.3c0.3-0.4,0.3-0.9,0-1.3l-4.9-4.6l6.4-3.8c0.4-0.2,0.6-0.8,0.3-1.2
			c-0.3-0.4-0.8-0.6-1.2-0.3l-7.4,4.4c-0.2,0.1-0.4,0.4-0.4,0.7c0,0.3,0.1,0.6,0.3,0.7l5.7,5.4C301.6,125.9,301.9,126,302.1,126z"/>
	</g>
	<g>
		<path class="st4" d="M269.8,179.6c1.1,0,2.2-0.2,3.3-0.5c4.3-1.4,7.9-4.7,10.1-7.1c3.4-3.7,6.3-8.3,8.6-13.6l0.4-0.8
			c0.2-0.4,0-0.9-0.4-1c-0.4-0.2-0.9,0-1.1,0.4l-0.4,0.8c-2.3,5.1-5.1,9.6-8.4,13.2c-2.1,2.3-5.4,5.3-9.4,6.7
			c-2.2,0.7-4.4,0.6-5.9-0.3c-5.2-3-3.3-8-1.4-13.3c0.9-2.3,1.7-4.6,1.8-6.6c0,0,0-0.4,0.8-10.6c0-0.4-0.3-0.8-0.7-0.9
			c-0.4-0.1-0.8,0.3-0.9,0.7c0,0-0.8,10.3-0.8,10.5c-0.1,1.8-0.9,3.9-1.7,6.2c-1.9,5.2-4.3,11.6,2,15.3
			C266.9,179.3,268.3,179.6,269.8,179.6z"/>
	</g>
	<g>
		<path class="st4" d="M291.4,158c0.4,0,0.8-0.4,0.8-0.8l0.2-22.5c0-0.4-0.3-0.8-0.8-0.8c-0.4,0-0.8,0.4-0.8,0.8l-0.2,22.5
			C290.6,157.7,290.9,158,291.4,158L291.4,158z"/>
	</g>
	<g>
		<path class="st4" d="M214.3,343.3c0.4,0,0.8-0.3,0.8-0.8c0.4-9.7,0.8-19.4,1.1-28.8c0.4-13.6,0.9-27.6,1.8-41.8
			c0-0.4-0.3-0.8-0.7-0.8c-0.4-0.1-0.8,0.3-0.8,0.7c-0.9,14.2-1.3,28.3-1.8,41.9c-0.3,9.4-0.6,19-1.1,28.8
			C213.5,342.9,213.9,343.3,214.3,343.3C214.3,343.3,214.3,343.3,214.3,343.3z"/>
	</g>
	<g>
		<path class="st4" d="M220.1,233.3c0.4,0,0.8-0.3,0.8-0.7c1.9-19.4,4.8-36.8,9-53.1c1-4,2.1-7.8,4.1-11.2c5.8-10,18-10,28.7-10.1
			c1.2,0,2.5,0,3.6,0c0.4,0,0.8-0.4,0.8-0.8c0-0.4-0.4-0.8-0.8-0.8c-1.2,0-2.4,0-3.6,0c-11.1,0-23.8,0.1-30.1,10.9
			c-2.1,3.6-3.2,7.5-4.3,11.6c-4.2,16.4-7.2,33.8-9.1,53.4C219.2,232.8,219.5,233.2,220.1,233.3C220,233.3,220,233.3,220.1,233.3z"
			/>
	</g>
	<g>
		<path class="st4" d="M261.4,127.6c0.6-0.1,0.9-0.6,0.8-1c-0.6-2.7-0.8-5.6-0.3-6c0.4-0.2,2.2,0.5,3.8,1.3c0.2,0.1,0.5,0.1,0.7,0
			c0.2-0.1,0.4-0.3,0.4-0.6l2-11c0.1-0.4-0.2-0.9-0.6-0.9c-0.4-0.1-0.8,0.2-0.9,0.6l-1.8,10c-1.6-0.7-3.6-1.4-4.6-0.7
			c-1.6,1.2-0.7,5.7-0.3,7.6C260.7,127.3,261,127.6,261.4,127.6z"/>
	</g>
	<g>
		<path class="st4" d="M345.4,196.8c0.7-0.2,0.9-0.6,0.8-1.1c-5.3-16-11.7-26.3-19-30.8c-8.6-5.2-17.4-8.5-34.8-8.5
			c-0.4,0-0.8,0.4-0.8,0.8c0,0.4,0.4,0.8,0.8,0.8c17,0,25.6,3.2,34,8.3c7,4.3,13.1,14.3,18.3,29.9
			C344.7,196.6,345,196.8,345.4,196.8z"/>
	</g>
	<g>
		<path class="st4" d="M380.5,343.3c0.6-0.1,0.9-0.5,0.8-1c-2.5-12.4-5-24.3-7.4-35.4c-0.1-0.4-0.5-0.7-0.9-0.6
			c-0.4,0.1-0.7,0.5-0.6,0.9c2.4,11.1,4.9,23,7.4,35.4C379.8,343,380.2,343.3,380.5,343.3z"/>
	</g>
	<g>
		<path class="st4" d="M315.7,343.3c0.6-0.1,0.9-0.5,0.8-1c-1.8-8.7-3.4-17.4-4.9-27.1c-0.1-0.4-0.4-0.8-0.9-0.7
			c-0.4,0.1-0.7,0.5-0.7,0.9c1.5,9.8,3.1,18.4,4.9,27.2C315,343,315.4,343.3,315.7,343.3z"/>
	</g>
	<g class="st6">
		<path class="st7" d="M299.3,134.4c15-1.4,25.2-17.4,24.5-38c-0.3-7.5-2.7-13.2-7.1-17c-6.7-5.7-15.6-5.2-17.2-5
			c-2.7-1.1-26.2-10.6-34.2,1.6c-6.2,9.5-4,18-3.9,18.3c0.1,0.4,0.4,0.6,0.9,0.7c0.4,0,0.8-0.3,0.8-0.7c0.7-3.4,2.4-5.8,3.5-6.9
			c2,4.5,10.1,20,29,25.2c0.5,0.1,1-0.1,1.1-0.6c0.1-0.5-0.1-1-0.6-1.1c-21.3-5.9-28.3-25.2-28.4-25.3c-0.1-0.3-0.3-0.5-0.6-0.6
			c-0.3-0.1-0.6,0-0.8,0.2c-0.1,0.1-2.1,1.7-3.6,4.8c0-3.2,0.8-7.9,4-12.9c7.5-11.5,32-1,32.2-0.9c0.2,0.1,0.3,0.1,0.5,0.1
			c0.1,0,9.5-1,16.1,4.6c4,3.5,6.2,8.7,6.5,15.7c0.7,19.6-8.8,34.8-22.8,36.2c-0.5,0-0.8,0.5-0.8,1
			C298.5,134.1,298.9,134.4,299.3,134.4z"/>
	</g>
	<g>
		<path class="st4" d="M266.6,135.6c0.9,0,1.7-0.2,2.5-0.6c2.6-1.4,3.4-4.5,3.4-4.7c0.1-0.4-0.2-0.9-0.6-1c-0.4-0.1-0.9,0.2-1,0.6
			c0,0-0.6,2.6-2.6,3.6c-1.2,0.6-2.6,0.5-4.4-0.2c-0.4-0.2-0.9,0-1,0.4c-0.2,0.4,0,0.9,0.4,1C264.5,135.3,265.6,135.6,266.6,135.6z"
			/>
	</g>
	<g>
		<path class="st4" d="M92.3,343.3h339.9c0.4,0,0.8-0.4,0.8-0.8s-0.4-0.8-0.8-0.8H92.3c-0.4,0-0.8,0.4-0.8,0.8
			S91.9,343.3,92.3,343.3z"/>
	</g>
	<g class="st6">
		<path class="st7" d="M322.9,90.1c10.4-2.7,14-13.5,13-22.5c-1-9-7-19.6-20.5-19.9c-6.8-0.2-12,1.8-15.3,5.8
			c-6.6,7.9-4,20.7-3.9,21.3c0.1,0.5,0.6,0.8,1,0.7c0.5-0.1,0.8-0.6,0.7-1.1c0-0.1-2.5-12.6,3.5-19.8c3-3.6,7.6-5.4,13.9-5.2
			c12.4,0.3,17.8,10.1,18.8,18.4c0.9,8.3-2.3,18.2-11.4,20.6c-0.5,0.1-0.8,0.6-0.6,1.1C322.2,89.8,322.5,90.1,322.9,90.1z"/>
	</g>
	<g>
		<path class="st4" d="M364.2,182.1c0.3,0,0.5-0.1,0.7-0.3c0.2-0.4,0.2-0.9-0.2-1.1c-20.9-14.2-45.4-25.6-72.7-33.7
			c-0.4-0.1-0.9,0.1-1,0.5c-0.1,0.4,0.1,0.9,0.5,1c27.2,8.1,51.5,19.4,72.3,33.5C363.9,182,364.1,182.1,364.2,182.1z"/>
	</g>
	<g>
		<path class="st4" d="M255,139.8c0.4,0,0.7-0.3,0.8-0.7c0.1-0.4-0.2-0.8-0.7-0.9c-4.5-0.8-8.4-1.3-12.9-1.9
			c-0.4-0.1-0.8,0.3-0.9,0.7c-0.1,0.4,0.3,0.8,0.7,0.9c4.4,0.5,8.3,1.1,12.8,1.9C254.9,139.8,255,139.8,255,139.8z"/>
	</g>
	<g>
		<path class="st4" d="M363.8,65.1c0.3,0,0.5-0.1,0.7-0.3c0.2-0.4,0.2-0.9-0.2-1.1c-21.9-14.9-47.9-26.7-77.4-35
			c-1-0.3-2-0.6-3.1-0.8c-0.4-0.1-0.9,0.1-1,0.6c-0.1,0.4,0.1,0.9,0.6,1c1,0.3,2,0.6,3,0.8c29.3,8.2,55.2,19.9,76.9,34.7
			C363.5,65.1,363.7,65.1,363.8,65.1z"/>
	</g>
	<g>
		<path class="st4" d="M259.4,23.9c0.4,0,0.7-0.3,0.8-0.7c0.1-0.4-0.2-0.8-0.6-0.9c-5.7-1-11.5-1.9-17.2-2.5c-0.5,0-0.8,0.3-0.9,0.7
			c-0.1,0.4,0.3,0.8,0.7,0.9c5.7,0.7,11.4,1.5,17.1,2.5C259.3,23.9,259.3,23.9,259.4,23.9z"/>
	</g>
	<g>
		<path class="st4" d="M161.7,181.4l-0.8-30.1c-2.9-2-5.6-4.1-8.3-6.2c-0.1-0.1-0.2-0.1-0.3-0.3c-31.7-25.2-46.4-54.1-39.5-78.6
			c4.1-14.8,15.3-26.8,32.2-34.7c1.8-0.8,7.1-3.2,7.1-3.2c0.2-0.1,0.5-0.1,0.8,0.1c0.2,0.1,0.4,0.4,0.4,0.7l0.5,114.9
			c2.7,2.1,5.5,4.2,8.4,6.3c0.2,0.1,0.3,0.4,0.3,0.6l0.8,30.5c0,0.4-0.3,0.8-0.8,0.8C162.1,182.1,161.7,181.8,161.7,181.4z
			 M145.7,32.9c-16.5,7.7-27.3,19.4-31.3,33.7c-6.6,23.6,7.4,51.4,37.8,76l-0.5-112.4C150,31,146.9,32.3,145.7,32.9z"/>
	</g>
	<g>
		<path class="st4" d="M164.9,270.6c0.5,0,0.8-0.4,0.8-0.8l-2.4-88.4c0-0.4-0.4-0.8-0.8-0.8c-0.5,0-0.8,0.4-0.8,0.8l2.4,88.4
			C164.1,270.2,164.5,270.6,164.9,270.6z"/>
	</g>
	<g>
		<path class="st4" d="M164.9,270.6c0.3,0,0.5-0.1,0.7-0.4c0.2-0.4,0.2-0.9-0.2-1.1c-32-21.6-51.1-47.5-52.5-71l0-1l0-31.8
			c0-0.4-0.4-0.8-0.8-0.8c-0.4,0-0.8,0.4-0.8,0.8l0,31.8l0,1.1c1.5,24,20.9,50.3,53.2,72.2C164.6,270.5,164.7,270.6,164.9,270.6z"/>
	</g>
	<g>
		<path class="st4" d="M112,147.5c0.4,0,0.8-0.4,0.8-0.8l0-71c0-0.4-0.4-0.8-0.8-0.8c-0.4,0-0.8,0.4-0.8,0.8l0,71
			C111.2,147.2,111.5,147.5,112,147.5z"/>
	</g>
	<g>
		<path class="st4" d="M242.2,305.5c0.5,0,0.8-0.4,0.8-0.8l-0.3-25.4c0-0.4-0.3-0.9-0.8-0.8c-0.4,0-0.8,0.4-0.8,0.8l0.3,25.4
			C241.4,305.2,241.8,305.5,242.2,305.5z"/>
	</g>
	<g>
		<path class="st4" d="M241.3,238.5c0.5,0,0.8-0.4,0.8-0.8l-0.6-50.1c0-0.4-0.4-0.8-0.8-0.8c-0.4,0-0.8,0.4-0.8,0.8l0.6,50.1
			C240.6,238.1,240.9,238.5,241.3,238.5z"/>
	</g>
	<g>
		<path class="st4" d="M315.8,199.3c26,0,49.5-4.3,67.4-13c0.4-0.2,0.6-0.7,0.4-1.1c-0.2-0.4-0.7-0.6-1.1-0.4
			c-33.7,16.2-87.3,17.1-140,2.3l-1.5-0.4c-0.4-0.1-0.9,0.1-1,0.5c-0.1,0.4,0.1,0.9,0.5,1l1.5,0.4
			C267.1,195.8,292.5,199.3,315.8,199.3z"/>
	</g>
	<g>
		<path class="st4" d="M405,170.3c0.2,0,0.4-0.1,0.6-0.3c5-5.6,8.6-12,10.5-18.8c1.1-3.9,1.7-8,1.7-12.2c0-0.4-0.4-0.8-0.8-0.8
			c-0.4,0-0.8,0.4-0.8,0.8c0,4-0.6,7.9-1.6,11.7c-1.8,6.6-5.3,12.7-10.1,18.2c-0.3,0.3-0.3,0.8,0.1,1.1
			C404.6,170.3,404.8,170.3,405,170.3z"/>
	</g>
	<g>
		<path class="st4" d="M315.8,233.1c9.5,0,18.7-0.6,27.5-1.8c0.4-0.1,0.7-0.5,0.7-0.9c-0.1-0.4-0.4-0.8-0.9-0.7
			c-17.4,2.4-36.4,2.4-56.5,0c-0.4-0.1-0.8,0.3-0.9,0.7c-0.1,0.4,0.3,0.8,0.7,0.9C296.4,232.5,306.3,233.1,315.8,233.1z"/>
	</g>
	<g>
		<path class="st4" d="M315.8,246.7c10,0,19.7-0.7,28.9-2c0.4-0.1,0.7-0.5,0.7-0.9c-0.1-0.4-0.5-0.7-0.9-0.7
			c-17.8,2.6-37.3,2.6-57.9,0.2c-0.4,0-0.8,0.3-0.9,0.7c-0.1,0.4,0.3,0.8,0.7,0.9C296.5,246.1,306.3,246.7,315.8,246.7z"/>
	</g>
	<g>
		<path class="st4" d="M315.7,316.1c14.1,0,27.5-1.3,39.8-3.9c33-7,54.5-22.8,60.5-44.2c1-3.6,1.6-7.2,1.7-11l0-1.6V177
			c0-0.4-0.4-0.8-0.8-0.8c-0.4,0-0.8,0.4-0.8,0.8l0,80c-0.1,3.6-0.6,7.2-1.6,10.6c-5.9,20.9-26.9,36.2-59.3,43.1
			c-32.6,7-72.6,4.6-112.8-6.7c-0.4-0.1-0.9,0.1-1,0.6c-0.1,0.4,0.1,0.9,0.6,1C267.2,312.5,292.4,316.1,315.7,316.1z"/>
	</g>
	<g>
		<path class="st4" d="M417,177.8c0.4,0,0.8-0.4,0.8-0.8v-36.4c0-0.4-0.4-0.8-0.8-0.8c-0.4,0-0.8,0.4-0.8,0.8V177
			C416.2,177.4,416.5,177.8,417,177.8z"/>
	</g>
	<g>
		<path class="st4" d="M363.8,182.1c0.4,0,0.8-0.4,0.8-0.8v-117c0-0.4-0.4-0.8-0.8-0.8s-0.8,0.4-0.8,0.8v117
			C363,181.7,363.4,182.1,363.8,182.1z"/>
	</g>
	<g>
		<path class="st4" d="M242.2,138c0.4,0,0.8-0.4,0.8-0.8V20.6c0-0.4-0.4-0.8-0.8-0.8s-0.8,0.4-0.8,0.8v116.6
			C241.4,137.6,241.8,138,242.2,138z"/>
	</g>
	<g>
		<path class="st4" d="M150.2,197.3c0.2,0,0.5-0.1,0.6-0.3c0.3-0.3,0.2-0.9-0.1-1.1c-6.6-5.1-16.3-13.3-24.8-22.9
			c-0.3-0.3-0.8-0.4-1.1-0.1c-0.3,0.3-0.4,0.8-0.1,1.1c8.6,9.7,18.3,18,25,23.1C149.9,197.2,150.1,197.3,150.2,197.3z"/>
	</g>
	<g>
		<path class="st4" d="M214.9,293.1c0.3,0,0.6,0,0.8,0c0.4,0,0.8-0.4,0.8-0.8c0-0.4-0.4-0.7-0.8-0.8c-0.3,0-0.5,0-0.8,0
			c-28.5,0-44.1-53.7-51-85.9c-0.1-0.4-0.5-0.7-0.9-0.6c-0.4,0.1-0.7,0.5-0.6,0.9C169.3,238.6,185.3,293.1,214.9,293.1z"/>
	</g>
	<g>
		<path class="st4" d="M223.2,208.4c0.1,0,0.2,0,0.3-0.1c0.4-0.2,0.6-0.7,0.4-1.1l-18.5-39.9c-0.2-0.4-0.7-0.6-1.1-0.4
			c-0.4,0.2-0.6,0.7-0.4,1.1l18.5,39.9C222.6,208.2,222.9,208.4,223.2,208.4z"/>
	</g>
	<g>
		<path class="st4" d="M171.3,185.6c0.3,0,0.5-0.1,0.7-0.4c0.2-0.4,0.1-0.9-0.3-1.1c-3.7-2.2-6.6-5.2-8.5-8.8
			c-0.2-0.4-0.7-0.5-1.1-0.3c-0.4,0.2-0.5,0.7-0.3,1.1c2.1,3.9,5.2,7.1,9.1,9.4C171,185.6,171.1,185.6,171.3,185.6z"/>
	</g>
	<g>
		<path class="st4" d="M281.1,244.7c0.4,0,0.8-0.3,0.8-0.7c0-0.4-0.3-0.8-0.7-0.9c-0.5,0-50.1-4.2-71.2-15.9
			c-0.4-0.2-0.9-0.1-1.1,0.3c-0.2,0.4-0.1,0.9,0.3,1.1C230.6,240.5,280.5,244.7,281.1,244.7C281,244.7,281.1,244.7,281.1,244.7z"/>
	</g>
	<g>
		<path class="st4" d="M281.1,285.2c0.4,0,0.8-0.3,0.8-0.7c0-0.4-0.3-0.8-0.7-0.9c-0.5,0-50.1-4.2-71.2-15.9
			c-0.4-0.2-0.9-0.1-1.1,0.3c-0.2,0.4-0.1,0.9,0.3,1.1C230.6,280.9,280.5,285.1,281.1,285.2C281,285.2,281.1,285.2,281.1,285.2z"/>
	</g>
	<g>
		<path class="st4" d="M281.1,285.3c0.4,0,0.8-0.4,0.8-0.8v-40.6c0-0.4-0.4-0.8-0.8-0.8s-0.8,0.4-0.8,0.8v40.6
			C280.3,285,280.6,285.3,281.1,285.3z"/>
	</g>
	<g>
		<path class="st4" d="M209.6,269.3c0.4,0,0.8-0.4,0.8-0.8v-40.6c0-0.4-0.4-0.8-0.8-0.8s-0.8,0.4-0.8,0.8v40.6
			C208.8,268.9,209.2,269.3,209.6,269.3z"/>
	</g>
	<g>
		<path class="st4" d="M383.7,154c0.1,0,0.3,0,0.4-0.1c0.3-0.1,0.4-0.4,0.4-0.7v-35c0-0.3-0.1-0.5-0.4-0.7c-6.1-3.9-19-9.3-19.6-9.5
			c-0.4-0.2-0.9,0-1,0.4c-0.2,0.4,0,0.9,0.4,1c0.1,0.1,12.9,5.4,19,9.1v33.1c-6.4-3.8-17.8-8.5-18.3-8.7c-0.4-0.2-0.9,0-1,0.4
			c-0.2,0.4,0,0.9,0.4,1c0.1,0.1,13.4,5.6,19.3,9.4C383.4,154,383.5,154,383.7,154z"/>
	</g>
	<g>
		<path class="st4" d="M192.7,69.6c0.4,0,0.8-0.4,0.8-0.8V39.2c0-0.2-0.1-0.4-0.2-0.6c-0.2-0.1-0.4-0.3-0.6-0.2
			c-27.7,1.4-39.7,8.9-40.2,9.2c-0.4,0.2-0.5,0.7-0.2,1.1c0.2,0.4,0.7,0.5,1.1,0.2c0.1-0.1,12-7.4,38.6-8.9v28.8
			C191.9,69.2,192.2,69.6,192.7,69.6z"/>
	</g>
	<g>
		<path class="st4" d="M152.9,78.7c0.1,0,0.3,0,0.4-0.1c0.1-0.1,12.2-7.6,39.4-9c0.4,0,0.8-0.4,0.8-0.8c0-0.4-0.4-0.8-0.8-0.8
			c-27.7,1.4-39.7,8.9-40.2,9.2c-0.4,0.2-0.5,0.7-0.2,1.1C152.4,78.5,152.6,78.7,152.9,78.7z"/>
	</g>
	<g>
		<path class="st4" d="M82.1,33.5c-1.7-0.3-3.5-0.6-5.3-0.9c-0.5-0.1-1,0.3-1,0.8c-0.1,0.5,0.3,1,0.8,1c1.7,0.2,3.5,0.5,5.2,0.8
			l0.2,0c0.4,0,0.8-0.3,0.9-0.7C82.9,34.1,82.6,33.6,82.1,33.5z"/>
		<path class="st4" d="M71.4,32.2c-1.8-0.1-3.6-0.1-5.4-0.1c-0.5,0-0.9,0.4-0.9,0.9c0,0.5,0.4,0.9,0.9,0.9c1.7,0,3.5,0,5.2,0.1
			l0.1,0c0.5,0,0.9-0.4,0.9-0.9c0-0.2-0.1-0.5-0.2-0.7C71.9,32.3,71.6,32.2,71.4,32.2z"/>
		<path class="st4" d="M92.5,36.3c-1.7-0.6-3.5-1.1-5.2-1.6c-0.5-0.1-1,0.2-1.1,0.6c-0.1,0.2,0,0.5,0.1,0.7s0.3,0.4,0.6,0.4
			c1.7,0.5,3.4,1,5,1.5c0.1,0,0.2,0,0.3,0c0.4,0,0.7-0.3,0.9-0.6c0.1-0.2,0.1-0.5,0-0.7C92.9,36.5,92.7,36.4,92.5,36.3z"/>
		<path class="st4" d="M60.6,32.4c-1.8,0.2-3.6,0.4-5.3,0.7c-0.5,0.1-0.8,0.6-0.7,1.1c0.1,0.4,0.4,0.8,1,0.8c0,0,0,0,0,0
			c1.8-0.3,3.5-0.5,5.3-0.7c0.2,0,0.5-0.1,0.6-0.3c0.2-0.2,0.2-0.4,0.2-0.7C61.6,32.7,61.2,32.4,60.6,32.4z"/>
		<path class="st4" d="M102.4,40.4c-1.6-0.8-3.3-1.5-4.9-2.2c-0.2-0.1-0.5-0.1-0.7,0c-0.2,0.1-0.4,0.3-0.5,0.5
			c-0.1,0.2-0.1,0.5,0,0.7c0.1,0.2,0.3,0.4,0.5,0.5c1.6,0.7,3.2,1.4,4.8,2.2c0.1,0.1,0.3,0.1,0.4,0.1c0.3,0,0.7-0.2,0.8-0.5
			C103,41.1,102.9,40.6,102.4,40.4z"/>
		<path class="st4" d="M50,34.2c-1.7,0.4-3.5,0.9-5.2,1.5c-0.5,0.2-0.7,0.7-0.6,1.1c0.1,0.4,0.5,0.6,0.9,0.6h0.1l0.1,0
			c1.9-0.6,3.6-1.1,5.2-1.5c0.2-0.1,0.4-0.2,0.6-0.4c0.1-0.2,0.2-0.5,0.1-0.7C51,34.4,50.5,34.1,50,34.2z"/>
		<path class="st4" d="M124.5,55.6c-0.4-0.4-0.9-0.3-1.3,0c-0.3,0.4-0.3,0.9,0,1.3c1.2,1.2,2.4,2.5,3.6,3.8h0c0,0,0,0,0,0
			c0.2,0.2,0.4,0.3,0.7,0.3c0.2,0,0.4-0.1,0.6-0.2c0.4-0.3,0.4-0.9,0.1-1.3C127,58.2,125.8,56.8,124.5,55.6z"/>
		<path class="st4" d="M138.4,79c0.1-0.2,0.1-0.4,0.1-0.7c-0.5-1.7-1.1-3.4-1.8-5.1c-0.2-0.5-0.7-0.7-1.2-0.5
			c-0.5,0.2-0.7,0.7-0.5,1.2c0.7,1.6,1.3,3.2,1.8,4.9c0.1,0.4,0.5,0.6,0.9,0.6h0.1l0.1,0C138.1,79.4,138.3,79.3,138.4,79z"/>
		<path class="st4" d="M111.8,45.6c-1.5-0.9-3-1.9-4.6-2.7c-0.2-0.1-0.5-0.1-0.7-0.1c-0.2,0.1-0.4,0.2-0.5,0.4
			c-0.1,0.2-0.1,0.5-0.1,0.7c0.1,0.2,0.2,0.4,0.4,0.5c1.5,0.9,3.1,1.8,4.5,2.7l0,0c0.1,0.1,0.3,0.1,0.5,0.1c0.3,0,0.6-0.2,0.8-0.4
			C112.3,46.4,112.2,45.9,111.8,45.6z"/>
		<path class="st4" d="M139.6,90C139.6,90,139.6,90,139.6,90c0.3,0,0.5-0.1,0.7-0.3c0.2-0.2,0.2-0.4,0.2-0.7
			c-0.1-1.8-0.4-3.6-0.7-5.4c-0.1-0.5-0.6-0.8-1.1-0.7c-0.2,0-0.4,0.2-0.6,0.4c-0.1,0.2-0.2,0.4-0.1,0.7c0.3,1.7,0.5,3.4,0.7,5.2
			C138.7,89.6,139.1,90,139.6,90z"/>
		<path class="st4" d="M131.4,63.8c-0.3-0.4-0.9-0.5-1.3-0.2c-0.4,0.3-0.5,0.9-0.2,1.3c1,1.4,1.9,2.9,2.8,4.4
			c0.2,0.3,0.5,0.5,0.8,0.5c0.2,0,0.3,0,0.4-0.1c0.4-0.2,0.6-0.8,0.4-1.2C133.4,66.8,132.5,65.3,131.4,63.8z"/>
		<path class="st4" d="M139.6,93.5c-0.5,0-0.9,0.4-0.9,0.9c-0.2,3.2-0.6,5.1-0.6,5.1c-0.1,0.2,0,0.5,0.1,0.7
			c0.1,0.2,0.3,0.4,0.6,0.4l0,0c0.1,0,0.1,0,0.2,0c0.4,0,0.8-0.3,0.9-0.7c0,0,0.5-2,0.7-5.5C140.6,93.9,140.2,93.5,139.6,93.5z
			 M138.8,100.1L138.8,100.1L138.8,100.1L138.8,100.1z"/>
		<path class="st4" d="M116.2,48.6c-0.2-0.1-0.4-0.2-0.7-0.2c-0.2,0-0.5,0.2-0.6,0.4c-0.3,0.4-0.2,1,0.2,1.3c1.4,1,2.8,2.1,4.1,3.2
			l0,0c0.2,0.1,0.4,0.2,0.6,0.2c0.3,0,0.5-0.1,0.7-0.3c0.3-0.4,0.3-1-0.1-1.3C119.1,50.8,117.7,49.7,116.2,48.6z"/>
	</g>
	<path class="st5" d="M354.8,222.3v26.5c0,0,16.8,0.2,28-9.1v-27.4C382.8,212.2,374.8,220.1,354.8,222.3z"/>
	<g>
		<path class="st4" d="M149.7,213.4c0.2,0,0.5-0.1,0.6-0.3c0.3-0.4,0.2-0.9-0.2-1.1c-5.4-4-10.5-8.1-15.1-12.2
			c-0.3-0.3-0.8-0.3-1.1,0.1c-0.3,0.3-0.3,0.8,0.1,1.1c4.6,4.2,9.8,8.3,15.2,12.3C149.3,213.4,149.5,213.4,149.7,213.4z"/>
	</g>
	<circle class="st0" cx="34.5" cy="34.5" r="34.5"/>
	<path class="st1" d="M23.4,35.1c-1.4-1.4-3.7-1.4-5.2,0l-1.4,1.4c-1.4,1.4-1.4,3.7,0,5.2L27.1,52c1.4,1.4,3.7,1.4,5.2,0l21.2-20.6
		c1.4-1.4,1.4-3.7,0-5.2l-1.4-1.4c-1.4-1.4-3.7-1.4-5.2,0L29.7,41.4L23.4,35.1z"/>
	<g>
		<path class="st4" d="M34.8,3.4c-11.1,0-21.2,5.7-27,15.2c-0.1,0.2-0.1,0.4-0.1,0.6c0.1,0.2,0.2,0.4,0.4,0.5
			c0.2,0.1,0.4,0.1,0.6,0.1c0.2-0.1,0.4-0.2,0.5-0.4C14.6,10.4,24.2,5,34.8,5c16.5,0,29.9,13.4,29.9,29.9
			c0,16.5-13.4,29.9-29.9,29.9C20.9,64.9,8.6,55,5.6,41.5c-0.1-0.4-0.5-0.7-0.9-0.6c-0.2,0-0.4,0.2-0.5,0.3
			c-0.1,0.2-0.1,0.4-0.1,0.6c3.2,14.2,16.1,24.5,30.7,24.5c17.4,0,31.5-14.1,31.5-31.5C66.3,17.6,52.2,3.4,34.8,3.4z"/>
		<path class="st4" d="M29,49.9c1.2,0,2.3-0.5,3.1-1.3L53.3,28c1.7-1.7,1.7-4.5,0-6.3l-1.4-1.4c-0.8-0.8-2-1.3-3.1-1.3
			c-1.2,0-2.3,0.5-3.1,1.3L29,36.4l-5.7-5.7c-0.8-0.8-1.9-1.3-3.1-1.3c-1.2,0-2.3,0.5-3.1,1.3l-1.4,1.4c-0.8,0.8-1.3,2-1.3,3.1
			c0,1.2,0.5,2.3,1.3,3.1l10.3,10.3C26.7,49.5,27.8,49.9,29,49.9z M20.2,30.9c0.8,0,1.5,0.3,2,0.8l6.3,6.3c0.3,0.3,0.8,0.3,1.1,0
			l17.2-16.7c1.1-1.1,3-1.1,4.1,0l1.4,1.4c1.1,1.1,1.1,2.9,0,4L31.1,47.5c-1.1,1.1-3,1.1-4.1,0L16.7,37.2c-0.5-0.5-0.8-1.3-0.8-2
			c0-0.8,0.3-1.5,0.8-2l1.4-1.4C18.7,31.2,19.4,30.9,20.2,30.9z"/>
	</g>
</g>
<g id="Слой_2">
	<path class="st1" d="M269.8,87.4l-4.5,2.1c0,0,8,18.4,17.7,21.2c9.7,2.7,7.5,0.8,7.5,0.8S270.1,92.4,269.8,87.4z"/>
	<path class="st1" d="M271.1,83.2c0,0-13,9.7-15.2,19.4c0,0-2.9-12.2,9.3-19.3C269.6,80.8,271.1,83.2,271.1,83.2z"/>
	<path class="st1" d="M254.6,133.4l1.4,3.2c0,0-5.7,4.8-4.8,11.8c0.9,7.1,7.1,8.9,7.1,8.9s-12.9,0.3-11.4-12
		C247.7,137.8,254.6,133.4,254.6,133.4z"/>
	<path class="st1" d="M292.6,126.4l4.4,2.5c0,0-12.3,13.6-9.9,23.1c2.4,9.4,8.9,12.8,8.9,12.8s-16.4-1.7-14.5-20.9
		C283.1,124.6,292.6,126.4,292.6,126.4z"/>
	<path class="st5" d="M290.1,112.8c-4.3-1.4-14.3-6-19.4-20.7c-0.8-2.1-3.2-3.2-5.3-2.2c-3.3,1.5-7.9,5.5-10.3,15.5
		c0,0,0.8-9.4,10.5-19.3c1-1,3-2.8,4.4-3.3c6.1-2,12-1.3,24.8,1.4c10.7,2.2,18.8,9.3,19.4,20c0,0.4,0,0.8-0.1,1.2l-9.3,35.6
		c-0.3,1.1-0.1,2.4,0.6,3.3c0.8,1,2.2,2.5,4.7,4.6c4.9,4.1,8.3,9,5.4,15.4c-1,2.1-3.6,6-5.6,4.7l-2.6-1.5c-0.9-0.6-1.5-3.8-2.6-3.5
		c-3.9,1.1-13.9,2.5-18.2-10.4c0,0-3-6.8,1.4-15.3c2.7-5.3,5.1-8,6.5-9.4c0.7-0.7,1.7-1,2.6-1.1c0.9,0,2.3-0.3,3.5-1.3
		c1.6-1.3,2.7-3,3-7.5c0.4-5.5-2.8-7.5-5.1-7.8c-1.9-0.3-3.4,0-5.1,1.1C292.4,113,291.2,113.2,290.1,112.8z"/>
	<path class="st5" d="M255.9,135.9c0,0,0.9,5.7,10.6,8.7l-1,12.7c0,0-1.9,0-6.3,0.2c0,0-5.2-0.1-7.5-5.1
		C249.9,148.2,250.8,140.2,255.9,135.9z"/>
	<g>
		<path class="st4" d="M299.3,116c0-0.2-0.1-0.5-0.2-0.6c-0.2-0.2-0.4-0.3-0.6-0.3c-0.2,0-0.5,0.1-0.7,0.2l-4.5,3.8
			c-0.2,0.2-0.3,0.4-0.3,0.7c0,0.3,0.1,0.5,0.3,0.7l3.7,3.1c0.1,0.1,0.3,0.2,0.5,0.2c0,0,0,0,0.1,0c0.3,0,0.5-0.1,0.7-0.3
			c0.3-0.4,0.3-0.9-0.1-1.2l-2.9-2.4l3.7-3.1C299.2,116.4,299.3,116.2,299.3,116z"/>
		<path class="st4" d="M309.4,147c-1.8-1.6-3.9-3.5-3.7-4.4c4.7-21.9,9-35.3,9.5-36.8c0-0.1,0-0.2,0-0.3c0.2-6.5-2.5-11.9-7.8-16.1
			c-12-9.3-35.6-9.4-42.6-7.4c-0.5,0.2-11.4,5.1-10.8,25.3c0,0.3-0.1,0.5-0.1,0.8c-1,7-2.3,16.5-0.3,24.3c-1.2,1-8,6.9-7.4,15.6
			c0.6,9.2,9.5,10.7,12.2,10.9c0.5,0,0.8,0,0.8,0c0,0,0,0,0,0c0.2,0,0.5-0.1,0.6-0.3c0.2-0.2,0.3-0.4,0.3-0.6c0-0.2-0.1-0.5-0.3-0.7
			c-0.2-0.2-0.4-0.2-0.6-0.2c-0.5,0-10.6,0-11.2-9.3c-0.4-6.9,4.4-12,6.2-13.7c0.7,2.1,1.7,4,3.1,5.6c2.9,3.4,7.1,5.4,12.5,5.8
			c0.4,0,0.7,0.1,1.1,0.1c0,0,0,0,0,0c0.5,0,0.9-0.4,0.9-0.8c0-0.3-0.1-0.5-0.3-0.7c-0.2-0.2-0.4-0.2-0.6-0.2
			c-5.5-0.2-9.6-2-12.3-5.3c-6.2-7.4-4.2-21.3-3-30.4c0,0,0-0.1,0-0.1c0.1-0.1,0.1-0.3,0.1-0.4c0-0.1,0-0.2,0-0.3
			c0.1-1,0.3-2,0.4-2.9c0.5-1.6,4.4-13.2,9.8-13.6c1.1,3.8,6.6,19.6,25,23c0,0.1-0.1,0.1-0.1,0.2c-0.2,0.4-0.1,1,0.3,1.2
			c0.4,0.2,1,0.1,1.2-0.3c1.3-2.2,3.1-3.2,5.4-2.9c3.2,0.4,5.5,4,5,8.1c-0.2,2-1.1,3.8-2.4,5.1c-1.3,1.3-2.8,1.8-4.3,1.6
			c-1.3-0.2-2.4-0.8-3.3-1.9c-0.3-0.4-0.9-0.4-1.2-0.1c-0.2,0.2-0.3,0.4-0.3,0.6c0,0.2,0.1,0.5,0.2,0.6c0,0,0.1,0.1,0.1,0.1
			c-2.5,2.3-17.7,17.3-7.4,32.3c2.7,4,7,6.3,12.7,6.7c0.7,0.1,1.4,0.1,2.1,0.1c4.3,0,7.7-1,7.9-1c0.5-0.1,0.7-0.6,0.6-1.1
			c-0.2-0.5-0.6-0.7-1.1-0.6c-0.1,0-14.4,4.2-20.7-5.1c-9.7-14.2,5.4-28.4,7.2-30.1c0.9,0.7,2,1.1,3.1,1.2c0.1,0,0.2,0,0.3,0
			c0.2,0,0.3,0,0.5,0c1.8,0,3.6-0.8,5-2.2c1.6-1.6,2.7-3.8,2.9-6.2c0.6-5.1-2.3-9.6-6.5-10.1c-2.2-0.3-4.3,0.4-5.8,2
			c-20.3-3.3-24.6-22.3-24.6-22.5c-0.1-0.4-0.4-0.7-0.8-0.7c-4.8-0.4-8.4,5.7-10.4,10.2c1.9-12.1,8.9-15.6,9.2-15.8
			c6.8-1.9,29.5-1.8,41,7.1c4.8,3.7,7.2,8.6,7.1,14.5c-0.5,1.7-4.8,15.1-9.5,36.9c-0.4,2,1.7,3.8,4.3,6.1
			c4.9,4.3,11.5,10.1,4.3,19.2c-0.1,0.2-0.2,0.4-0.2,0.7c0,0.2,0.1,0.4,0.3,0.6c0.1,0.1,0.3,0.2,0.5,0.2c0,0,0,0,0.1,0
			c0.3,0,0.5-0.1,0.7-0.3C322.2,158.2,314.5,151.5,309.4,147z M314.9,105.5C314.9,105.5,314.9,105.5,314.9,105.5L314.9,105.5
			L314.9,105.5z"/>
	</g>
	<g>
		<path class="st4" d="M310.3,170.5c-0.5,0-0.9-0.1-1.4-0.2c-2.2-0.8-3.4-3.3-3.4-6.6c0-0.5,0.4-0.9,0.9-0.9c0,0,0,0,0,0
			c0.5,0,0.9,0.4,0.9,0.9c0,2.6,0.8,4.4,2.2,4.9c1,0.4,2.2-0.1,3-1.1c0.3-0.4,0.9-0.4,1.3-0.1c0.4,0.3,0.4,0.9,0.1,1.3
			C312.9,169.8,311.6,170.5,310.3,170.5z"/>
	</g>
</g>
</svg>
