<?xml version="1.0" encoding="utf-8"?>
<!-- Generator: Adobe Illustrator 22.0.1, SVG Export Plug-In . SVG Version: 6.00 Build 0)  -->
<svg version="1.0" xmlns="http://www.w3.org/2000/svg" xmlns:xlink="http://www.w3.org/1999/xlink" x="0px" y="0px" width="478.8px"
	 height="404.5px" viewBox="0 0 478.8 404.5" style="enable-background:new 0 0 478.8 404.5;" xml:space="preserve">
<style type="text/css">
	.st0{fill:#EDA58A;}
	.st1{fill:#FFFFFF;}
	.st2{fill:#48484B;}
	.st3{fill:#9898EA;}
	.st4{fill:#272728;}
	.st5{fill:#FFFFFF;stroke:#9898EA;stroke-width:2;stroke-miterlimit:10;}
</style>
<g id="Слой_6">
	<path class="st0" d="M157.5,403.2c175.5,11.8,238.1-62.8,266.8-136.1c40.7-104-11.5-221-80-179.3c-38.7,23.6-5.3,56.7-50,82.7
		c-51.6,30-112.7-74-138.7-12c-10.7,25.4,31.2,68.3-45.3,64.7C-8.4,217.5-11.7,391.8,157.5,403.2z"/>
</g>
<g id="Слой_3">
	<path class="st1" d="M439.5,217.2h-55.1l-25,15.8v-58.6c0-7.7,6.3-14,14-14h66.2c7.7,0,14,6.3,14,14v28.7
		C453.5,210.9,447.3,217.2,439.5,217.2z"/>
	<path class="st2" d="M161.6,260.2c0,0-35.9,2.2-58.5,11.4c-22.5,9.2-42.5,13.5-58.9,27.9c-16.4,14.4-18.7,27.2-20,35.3
		c-1.4,8.1,1.2,22,18.8,25.9c17.6,3.9,27.3,4.3,46.1,3.3c18.8-1,38.2-2.5,38.2-2.5s2.3-16.7,0.5-26.8l39.6,2.8l50.6,1.7
		c0,0,8.2,22.6,14.6,22.5c6.4-0.1,39.6-0.8,39.6-0.8l41-39.4l-21.3-22.7c0,0-15.8-11.7-48.8-22c-33-10.4-49.5-11.8-49.5-11.8
		L161.6,260.2z"/>
	<path class="st1" d="M238.1,354.5c0,0-13.6,2.3-19.8-6.2l-1.8,3.1l-7.4,13.8c0,0-2.8,3.8-7.4,2.4c-4.6-1.3-2.1-8.9-2.1-8.9l2.4-7.3
		l-7.1,8.9c0,0-4.5,6.4-8.9,4c-4.3-2.4,0.6-9.8,0.6-9.8s-6.9,4.1-9.6,2.2c-2.7-1.9,0.2-9,2.4-11.6c2.2-2.7,10.6-14.1,15.3-16.5
		c4.7-2.4,19.9-1,22.9-0.7c3,0.3,18.5,2,18.5,2S240.7,350.3,238.1,354.5z"/>
	<path class="st1" d="M171.6,339.3c0,0-2.5-12.2-5.8-15.1s-6.6-4.5-6.6-4.5l5.8,17.1l-12.5-7.5l-5.7-12.4c0,0-6.9,0.1-11.3,0.6
		c-4.4,0.5-11.6,4-11.6,4s3.7,11.3,4.1,16c0.4,4.7,0.3,13.3,0.3,13.3s10.2,3.3,13.8,4.1c3.7,0.8,13.7,3,17.1,1c0,0,6.1-0.6,8.4-2.1
		c2.9-1.8,3.6-4,3.6-4s1.3,0.3,2.7-2.4C175.5,344.3,171.6,339.3,171.6,339.3z"/>
	<polygon class="st3" points="153.9,331.3 145,309.8 153,306.5 165.5,336.8 	"/>
	<g>
		<path class="st4" d="M293,300.2c-0.2,0-0.4-0.1-0.5-0.2c-3.1-2.3-5.9-4.2-9.7-6.3c-17.6-9.9-37.8-16.4-55.2-21.4
			c-7.9-2.3-19.9-5.4-31.8-6.4c-0.5,0-0.8-0.4-0.8-0.9c0-0.4,0.4-0.8,0.8-0.8c12.2,1,24.2,4.2,32.2,6.5c17.5,5,37.8,11.5,55.5,21.5
			c3.9,2.2,6.7,4.1,9.9,6.5c0.4,0.3,0.4,0.8,0.2,1.2C293.5,300.1,293.3,300.2,293,300.2z"/>
	</g>
	<polygon class="st1" points="152.5,305.8 151.1,302.5 143.4,305.4 144.9,308.9 	"/>
	<path class="st1" d="M268.8,375.4L263,368c0,0-1.3-3.9-0.6-8.5c0.6-4.6,34.1-98.8,34.1-98.8s4.4-9.3,14.5-11.2h142.1l4.1,0.9
		l7.4,4.7l0.9,1.8l-146.9-1.7l-9.5,3.6l-6,6.5l-34.4,98.5l-0.2,5.4L268.8,375.4z"/>
	<path class="st3" d="M289.1,387.9H425c9,0,16.9-5.5,19.7-13.6l32.2-93c4.5-12.9-5.6-26.1-19.7-26.1H321.3c-9,0-16.9,5.5-19.7,13.6
		l-32.2,93C264.9,374.7,274.9,387.9,289.1,387.9z"/>
	<path class="st1" d="M374.5,321.5c-4.1,7.2-3.7,15.2,1,17.9c4.7,2.7,11.9-0.9,16-8c4.1-7.2,3.7-15.2-1-17.9
		C385.8,310.7,378.6,314.3,374.5,321.5z"/>
	<g>
		<path class="st4" d="M77.7,365.4c-21.5,0-42.6-2.7-49.9-13.2c-4.3-6.1-5.3-15-3-24.5c4-16,16.9-30.5,35.3-39.8
			c10.4-5.3,21.9-10.1,34-14.4c10.3-3.6,22.4-7.7,34.9-10.2c11-2.3,19.8-3,30.1-3.8c0.5,0,0.9,0.3,0.9,0.8c0,0.5-0.3,0.9-0.8,0.9
			c-10.3,0.8-19,1.5-29.9,3.8c-12.4,2.5-24.5,6.6-34.7,10.2c-12.1,4.3-23.5,9.1-33.8,14.3c-18,9.1-30.6,23.2-34.5,38.7
			c-2.3,9-1.3,17.5,2.7,23.1c12,17.2,66.8,12.2,90.2,10.1c3.1-0.3,5.8-0.5,7.8-0.7c0.4,0,0.9,0.3,0.9,0.8c0,0.5-0.3,0.9-0.8,0.9
			c-2.1,0.1-4.7,0.4-7.8,0.7C108.8,364,93.1,365.4,77.7,365.4z"/>
	</g>
	<g>
		<path class="st4" d="M242.2,362.6c-3.3,0-6.4-0.1-9.2-0.2c-0.3,0-0.6-0.4-0.6-0.9c0-0.5,0.3-0.8,0.6-0.8
			c8.1,0.4,18.9,0.2,28.9-0.5c0.3,0,0.6,0.3,0.6,0.8c0,0.5-0.2,0.8-0.6,0.9C255.5,362.3,248.5,362.6,242.2,362.6z"/>
	</g>
	<g>
		<g>
			<path class="st4" d="M165.5,337.6c-0.3,0-0.6-0.2-0.8-0.5l-12.2-30l-6.9,2.8l8.2,20.3c0.2,0.4,0,0.9-0.5,1.1
				c-0.4,0.2-0.9,0-1.1-0.5l-8.6-21.1c-0.1-0.2-0.1-0.4,0-0.6c0.1-0.2,0.2-0.4,0.5-0.4l8.4-3.4c0.4-0.2,0.9,0,1.1,0.5l12.5,30.7
				c0.2,0.4,0,0.9-0.5,1.1C165.7,337.6,165.6,337.6,165.5,337.6z"/>
		</g>
		<g>
			<path class="st4" d="M144.6,310.3c-0.3,0-0.6-0.2-0.8-0.5l-1.7-4.1c-0.2-0.4,0-0.9,0.5-1.1l8.4-3.4c0.2-0.1,0.4-0.1,0.6,0
				c0.2,0.1,0.4,0.3,0.4,0.5l1.7,4.1c0.2,0.4,0,0.9-0.5,1.1c-0.4,0.2-0.9,0-1.1-0.5l-1.4-3.3l-6.9,2.8l1.4,3.3
				c0.2,0.4,0,0.9-0.5,1.1C144.8,310.3,144.7,310.3,144.6,310.3z"/>
		</g>
		<g>
			<path class="st4" d="M171.1,363.6c-0.2,0-0.4-0.1-0.6-0.2l-8-7.5c-0.3-0.3-0.3-0.8,0-1.2c0.3-0.3,0.8-0.3,1.2,0l6.6,6.3l0.4-10.2
				c0-0.5,0.4-0.8,0.9-0.8c0.5,0,0.8,0.4,0.8,0.9l-0.5,12c0,0.3-0.2,0.6-0.5,0.7C171.3,363.6,171.2,363.6,171.1,363.6z"/>
		</g>
	</g>
	<g>
		<g>
			<path class="st4" d="M203.9,368.9c-0.9,0-1.7-0.2-2.6-0.6c-1.2-0.6-2.1-1.4-2.7-2.3c-0.6-1-0.9-2.3-0.8-3.6
				c0.1-1.5,0.6-2.9,1.1-4.2c0.6-1.4,1.2-3,2.1-4.8c2-4.1,4.2-8.2,6.7-12.4c0.2-0.4,0.7-0.5,1.1-0.3c0.4,0.2,0.5,0.7,0.3,1.1
				c-2.5,4.1-4.7,8.2-6.6,12.2c-0.9,1.8-1.5,3.3-2.1,4.7c-0.5,1.3-0.9,2.5-1,3.7c0,0.7,0,1.7,0.6,2.6c0.4,0.7,1.1,1.3,2,1.7
				c1.9,0.9,3.9,0.4,5.5-1.4c0.9-1,1.6-2.3,2.3-3.5c0.2-0.4,0.4-0.8,0.6-1.1c0.9-1.6,1.8-3.2,2.7-4.8l0.5-0.9
				c0.3-0.6,0.6-1.2,0.9-1.8c1.3-2.5,2.7-5.1,4.4-7.4c0.3-0.4,0.8-0.4,1.2-0.1c0.4,0.3,0.4,0.8,0.1,1.2c-1.7,2.2-3,4.7-4.3,7.1
				c-0.3,0.6-0.6,1.2-0.9,1.8l-0.5,0.9c-0.9,1.6-1.8,3.3-2.7,4.9c-0.2,0.4-0.4,0.7-0.6,1.1c-0.7,1.3-1.5,2.6-2.5,3.8
				C207.3,368.1,205.6,368.9,203.9,368.9z"/>
		</g>
		<g>
			<path class="st4" d="M188.5,365.9c-0.7,0-1.2-0.1-1.7-0.3c-2.1-0.7-3.6-2.6-3.7-4c-0.9-6.9,13.4-22.9,14-23.6
				c0.3-0.3,0.8-0.4,1.2-0.1c0.3,0.3,0.4,0.8,0.1,1.2c-4,4.5-14.2,17.2-13.6,22.3c0.1,0.8,1.1,2.2,2.6,2.7c1.6,0.6,3.4-0.1,5.1-1.8
				c6.6-6.8,15.2-21.2,15.3-21.3c0.2-0.4,0.7-0.5,1.1-0.3c0.4,0.2,0.5,0.7,0.3,1.1c-0.4,0.6-8.7,14.7-15.5,21.6
				C191.7,365.4,189.9,365.9,188.5,365.9z"/>
		</g>
		<g>
			<path class="st4" d="M179.7,358.4c-1.4,0-2.7-0.5-3.9-1.6c-4.1-3.7,4.5-13.5,5.5-14.6c3.1-4.4,11-15,16.9-15.8
				c8.6-1.3,37,2.6,38.2,2.7c0.5,0.1,0.8,0.5,0.7,0.9c-0.1,0.5-0.5,0.8-0.9,0.7c-0.3,0-29.3-4-37.7-2.7c-3.6,0.5-9.5,6.2-15.8,15.2
				c-3.4,3.8-7.9,10.4-5.7,12.4c1,0.9,2.1,1.3,3.2,1.2c3.2-0.3,6.2-4.2,6.2-4.3c0.3-0.4,0.8-0.4,1.2-0.2c0.4,0.3,0.4,0.8,0.2,1.2
				c-0.1,0.2-3.4,4.5-7.4,4.9C180.1,358.4,179.9,358.4,179.7,358.4z"/>
		</g>
		<g>
			<path class="st4" d="M234.1,356c-10.7,0-16.1-6.3-16.4-6.6c-0.3-0.3-0.3-0.9,0.1-1.2c0.3-0.3,0.9-0.3,1.2,0.1
				c0.1,0.1,6.5,7.4,18.9,5.7c0.4-0.1,0.9,0.3,0.9,0.7c0.1,0.4-0.3,0.9-0.7,0.9C236.7,355.9,235.3,356,234.1,356z"/>
		</g>
	</g>
	<g>
		<path class="st4" d="M170.5,382.2c-0.2,0-0.4-0.1-0.6-0.2l-29.7-26.9c-0.3-0.3-0.4-0.8-0.1-1.2c0.3-0.3,0.8-0.4,1.2-0.1l29.5,26.7
			l72.2-6.4l-29.8-16.6c-0.4-0.2-0.5-0.7-0.3-1.1c0.2-0.4,0.7-0.5,1.1-0.3l32.1,17.9c0.3,0.2,0.5,0.5,0.4,0.9
			c-0.1,0.4-0.4,0.6-0.7,0.7L170.5,382.2C170.5,382.2,170.5,382.2,170.5,382.2z"/>
	</g>
	<g>
		<path class="st4" d="M261,318.3c-13.9,0-31-1.1-32.1-1.2c-0.4,0-0.8-0.4-0.7-0.9c0-0.4,0.4-0.8,0.8-0.8c0.5,0,40.9,2.6,48,0
			c0.4-0.2,0.8,0.1,1,0.5c0.1,0.4-0.1,0.9-0.5,1C274.9,318,268.4,318.3,261,318.3z"/>
	</g>
	<g>
		<path class="st4" d="M168.4,351.1c-4.2,0-11.8-1.9-23.9-11.3c-0.4-0.3-0.4-0.8-0.1-1.2c0.3-0.4,0.8-0.4,1.2-0.1
			c14.3,11.1,21.9,11.3,24.5,10.8c1.6-0.3,2.7-0.9,3.4-1.9c2-3.1-2.4-6.6-3.1-7.1c-1.7-0.7-18.8-7.5-23.5-13.7
			c-0.3-0.4-0.2-0.9,0.1-1.2c0.4-0.3,0.9-0.2,1.2,0.1c4.6,6,22.8,13.1,23,13.2c0.4,0.3,6.7,4.9,3.7,9.5c-0.9,1.4-2.4,2.3-4.5,2.7
			C169.8,351,169.1,351.1,168.4,351.1z"/>
	</g>
	<g>
		<path class="st4" d="M161.6,356c-10,0-22.5-7.5-23.1-7.9c-0.4-0.2-0.5-0.7-0.3-1.1c0.2-0.4,0.7-0.5,1.1-0.3
			c0.2,0.1,16.5,9.9,26.1,7.1c2.5-0.7,4.3-2.2,5.4-4.5c0.2-0.4,0.7-0.6,1.1-0.4c0.4,0.2,0.6,0.7,0.4,1.1c-1.4,2.7-3.5,4.5-6.5,5.4
			C164.6,355.9,163.1,356,161.6,356z"/>
	</g>
	<g>
		<path d="M171.9,341.3c-0.4,0-0.8-0.3-0.8-0.7c0-0.1-1.5-9.3-4.2-13.6c-2.6-4.2-8.8-7-8.9-7.1c-0.4-0.2-0.6-0.7-0.4-1.1
			c0.2-0.4,0.7-0.6,1.1-0.4c0.3,0.1,6.8,3,9.6,7.7c2.8,4.6,4.3,13.8,4.4,14.2c0.1,0.4-0.2,0.9-0.7,0.9
			C171.9,341.3,171.9,341.3,171.9,341.3z"/>
	</g>
	<g>
		<path class="st4" d="M123.5,321.5c-0.4,0-0.8-0.3-0.8-0.8c0-0.5,0.3-0.8,0.8-0.9c0,0,2.3-0.2,6.7-2c8.3-3.4,17.3-1.6,17.7-1.5
			c0.4,0.1,0.7,0.5,0.6,1c-0.1,0.4-0.5,0.7-1,0.6c-0.1,0-8.9-1.8-16.7,1.4C126.1,321.3,123.7,321.5,123.5,321.5
			C123.5,321.5,123.5,321.5,123.5,321.5z"/>
	</g>
	<g>
		<path class="st4" d="M153.7,357.8c-6.6,0-14.3-2.9-17.5-4c-0.5-0.2-0.9-0.3-1.1-0.4c-2.3-0.7-7.1-1.7-7.1-1.7
			c-0.4-0.1-0.7-0.5-0.6-1c0.1-0.4,0.5-0.7,1-0.6c0.2,0,5,1,7.3,1.7c0.3,0.1,0.7,0.2,1.2,0.4c4.3,1.6,17.5,6.5,23.3,2.3
			c0.4-0.3,0.9-0.2,1.2,0.2c0.3,0.4,0.2,0.9-0.2,1.2C159.1,357.3,156.5,357.8,153.7,357.8z"/>
	</g>
	<g>
		<path class="st4" d="M60.5,322.6c-0.4,0-0.8-0.3-0.8-0.8c0-0.5,0.3-0.8,0.8-0.9c44.2-2.6,59.8-4.3,59.9-4.3
			c0.6-0.1,0.9,0.3,0.9,0.7c0.1,0.5-0.3,0.9-0.7,0.9C120.4,318.3,104.8,320,60.5,322.6C60.6,322.6,60.6,322.6,60.5,322.6z"/>
	</g>
	<g>
		<path class="st4" d="M127.3,362.4c-0.6-0.1-0.9-0.5-0.8-0.9c3.8-30.1-6.5-43.4-6.6-43.5c-0.3-0.4-0.2-0.9,0.1-1.2
			c0.4-0.3,0.9-0.2,1.2,0.1c0.4,0.5,10.8,13.8,6.9,44.7C128,362.1,127.7,362.4,127.3,362.4z"/>
	</g>
	<g>
		<path class="st4" d="M232.9,362.4c-2.2,0-4.4-1.9-6.3-5.3l-1.7-3c-0.2-0.4-0.1-0.9,0.3-1.1c0.4-0.2,0.9-0.1,1.1,0.3l1.7,3
			c1.7,3,3.5,4.6,5.1,4.4c3.3-0.4,6-8.9,4.6-20.4c-0.7-5.8-2-11.8-3.6-16.2c-1.7-4.6-3.5-7.1-5-7c-1.3,0.1-3.4,5.2-4.7,10.9
			c-0.1,0.4-0.5,0.7-1,0.6c-0.4-0.1-0.7-0.5-0.6-1c0.4-2,2.8-11.8,6.1-12.2c2.4-0.3,4.7,2.4,6.8,8.1c1.7,4.6,3,10.6,3.7,16.6
			c1.4,11.9-1.3,21.7-6.1,22.2C233.2,362.4,233,362.4,232.9,362.4z"/>
	</g>
	<g>
		<path class="st4" d="M181.2,343.4H174c-0.5,0-0.8-0.4-0.8-0.8c0-0.5,0.4-0.8,0.8-0.8h7.3c0.5,0,0.8,0.4,0.8,0.8
			C182,343,181.7,343.4,181.2,343.4z"/>
	</g>
	<g>
		<path class="st4" d="M161.9,364.3c-0.4,0-0.8-0.3-0.8-0.8c0-0.5,0.3-0.8,0.8-0.9l14.1-0.8c0.5,0,0.8,0.3,0.9,0.8
			c0,0.5-0.3,0.8-0.8,0.9L161.9,364.3C161.9,364.3,161.9,364.3,161.9,364.3z"/>
	</g>
	<g>
		<path class="st4" d="M209.1,366.6c-0.4,0-0.8-0.4-0.8-0.8c0-0.5,0.4-0.8,0.8-0.8l7.1-0.1c0.5-0.1,0.8,0.4,0.8,0.8
			c0,0.5-0.4,0.8-0.8,0.8L209.1,366.6C209.1,366.6,209.1,366.6,209.1,366.6z"/>
	</g>
	<g>
		<path class="st4" d="M173.3,373.5c-0.4,0-0.8-0.3-0.8-0.8c0-0.5,0.3-0.9,0.8-0.9l14.4-1.1c0.5,0,0.8,0.3,0.9,0.8
			c0,0.5-0.3,0.9-0.8,0.9L173.3,373.5C173.4,373.5,173.4,373.5,173.3,373.5z"/>
	</g>
	<g>
		<g>
			<path class="st4" d="M359.6,233.8c-0.1,0-0.3,0-0.4-0.1c-0.3-0.1-0.4-0.4-0.4-0.7v-28.5c0-0.1,0-0.2,0-0.3c0-0.4,0-0.8,0-1.2
				v-27.6c0-8.5,6.9-15.5,15.5-15.5h64.6c8.5,0,15.5,6.9,15.5,15.5v3.5c0,0.5-0.4,0.8-0.8,0.8s-0.8-0.4-0.8-0.8v-3.5
				c0-7.6-6.2-13.8-13.8-13.8h-64.6c-7.6,0-13.8,6.2-13.8,13.8V203c0,0.5,0,1,0.1,1.5c0,0.2,0,0.3-0.1,0.5v26.6l22.7-14.6
				c0.1-0.1,0.3-0.1,0.4-0.1h55.3c7.6,0,13.8-6.2,13.8-13.8v-11.6c0-0.5,0.4-0.8,0.8-0.8s0.8,0.4,0.8,0.8V203
				c0,8.5-6.9,15.5-15.5,15.5h-55l-23.8,15.3C359.9,233.8,359.8,233.8,359.6,233.8z"/>
		</g>
		<g>
			<path class="st4" d="M435.2,182.2h-15.1c-0.5,0-0.8-0.4-0.8-0.8c0-0.5,0.4-0.8,0.8-0.8h15.1c0.5,0,0.8,0.4,0.8,0.8
				C436,181.8,435.6,182.2,435.2,182.2z"/>
		</g>
		<g>
			<path class="st4" d="M401.9,182.2h-24.4c-0.5,0-0.8-0.4-0.8-0.8c0-0.5,0.4-0.8,0.8-0.8h24.4c0.5,0,0.8,0.4,0.8,0.8
				C402.8,181.8,402.4,182.2,401.9,182.2z"/>
		</g>
		<g>
			<path class="st4" d="M435.2,197.7h-57.6c-0.5,0-0.8-0.4-0.8-0.8c0-0.5,0.4-0.8,0.8-0.8h57.6c0.5,0,0.8,0.4,0.8,0.8
				C436,197.3,435.6,197.7,435.2,197.7z"/>
		</g>
	</g>
	<g>
		<path class="st4" d="M274,382.5c-0.2,0-0.5-0.1-0.6-0.3L262.6,369c-0.1-0.1-0.1-0.2-0.1-0.3c-1.4-4.2-1.4-8.6,0.1-12.8l32.2-93
			c2.9-8.5,11.2-14.2,20.5-14.2h135.9c2.4,0,4.7,0.4,6.9,1.1c0.2,0.1,12.6,9.1,12.6,9.1c0.4,0.3,0.5,0.8,0.2,1.2
			c-0.3,0.4-0.8,0.5-1.2,0.2l-12.3-8.9c-2-0.6-4.2-1-6.3-1H315.2c-8.6,0-16.2,5.3-18.9,13.1l-32.2,93c-1.3,3.8-1.4,7.8-0.1,11.6
			l10.7,13.1c0.3,0.4,0.2,0.9-0.1,1.2C274.4,382.5,274.2,382.5,274,382.5z"/>
	</g>
	<g>
		<path class="st4" d="M425,388.8H289.1c-7.1,0-13.8-3.4-17.8-9c-3.8-5.4-4.8-12-2.7-18.2l32.2-93c2.9-8.5,11.2-14.2,20.5-14.2
			h135.8c7.1,0,13.8,3.4,17.8,9c3.8,5.4,4.8,12,2.7,18.2l-32.2,93C442.5,383.1,434.3,388.8,425,388.8z M321.3,256
			c-8.6,0-16.2,5.3-18.9,13.1l-32.2,93c-2,5.7-1.1,11.8,2.4,16.7c3.7,5.2,9.9,8.3,16.5,8.3H425c8.6,0,16.2-5.3,18.9-13.1l32.2-93
			c2-5.7,1.1-11.7-2.4-16.7c-3.7-5.2-9.9-8.3-16.5-8.3H321.3z"/>
	</g>
	<g>
		<path class="st4" d="M24.1,338.3H0.8c-0.5,0-0.8-0.4-0.8-0.8c0-0.5,0.4-0.8,0.8-0.8h23.3c0.5,0,0.8,0.4,0.8,0.8
			C25,338,24.6,338.3,24.1,338.3z"/>
	</g>
	<g>
		<path class="st4" d="M185.8,338.3h-14.5c-0.5,0-0.8-0.4-0.8-0.8c0-0.5,0.4-0.8,0.8-0.8h14.5c0.5,0,0.8,0.4,0.8,0.8
			C186.6,338,186.2,338.3,185.8,338.3z"/>
	</g>
	<g>
		<g>
			<path class="st4" d="M63.5,163.1c1.4,0,2.5-1.1,2.5-2.5c0-1.4-1.1-2.5-2.5-2.5c-1.4,0-2.5,1.1-2.5,2.5
				C61,162,62.1,163.1,63.5,163.1z"/>
			<path class="st4" d="M82.9,163.3c1.5,0,2.6-1.2,2.6-2.6c0-1.5-1.2-2.6-2.6-2.6s-2.6,1.2-2.6,2.6
				C80.3,162.1,81.5,163.3,82.9,163.3z"/>
			<path class="st4" d="M102.4,163.1c1.3,0,2.4-1.1,2.4-2.4c0-1.3-1.1-2.4-2.4-2.4c-1.3,0-2.4,1.1-2.4,2.4
				C100,162,101.1,163.1,102.4,163.1z"/>
			<path class="st4" d="M63.5,182.7c1.5,0,2.6-1.2,2.6-2.6c0-1.5-1.2-2.6-2.6-2.6c-1.5,0-2.6,1.2-2.6,2.6
				C60.8,181.6,62,182.7,63.5,182.7z"/>
			<path class="st4" d="M82.9,182.9c1.5,0,2.8-1.2,2.8-2.8c0-1.5-1.2-2.8-2.8-2.8c-1.5,0-2.8,1.2-2.8,2.8
				C80.2,181.6,81.4,182.9,82.9,182.9z"/>
			<path class="st4" d="M102.4,182.7c1.4,0,2.6-1.2,2.6-2.6c0-1.4-1.2-2.6-2.6-2.6c-1.4,0-2.6,1.2-2.6,2.6
				C99.9,181.5,101,182.7,102.4,182.7z"/>
			<path class="st4" d="M63.5,202c1.3,0,2.4-1.1,2.4-2.4s-1.1-2.4-2.4-2.4c-1.3,0-2.4,1.1-2.4,2.4S62.1,202,63.5,202z"/>
			<path class="st4" d="M82.9,202.2c1.4,0,2.6-1.2,2.6-2.6c0-1.4-1.2-2.6-2.6-2.6c-1.4,0-2.6,1.2-2.6,2.6
				C80.4,201,81.5,202.2,82.9,202.2z"/>
			<path class="st4" d="M102.4,202c1.3,0,2.4-1.1,2.4-2.4s-1.1-2.4-2.4-2.4s-2.4,1.1-2.4,2.4S101.1,202,102.4,202z"/>
		</g>
	</g>
	<g>
		<path class="st4" d="M375.9,335c-1.4,0-2.7-0.3-3.9-1c-5.1-2.9-5.7-11.5-1.3-19c2.1-3.6,5-6.5,8.1-8.1c3.3-1.6,6.5-1.8,9-0.3
			c2.5,1.5,4,4.3,4.3,8c0.2,3.5-0.8,7.5-2.9,11.1C385.8,331.4,380.5,335,375.9,335z M372.1,315.8c-3.9,6.8-3.6,14.3,0.8,16.8
			c4.3,2.5,11-1,14.9-7.7c1.9-3.3,2.9-6.9,2.7-10.2c-0.2-3.1-1.4-5.4-3.4-6.6c-2-1.2-4.7-1.1-7.4,0.3
			C376.7,309.8,374,312.4,372.1,315.8z"/>
	</g>
	<g>
		<path class="st4" d="M277.1,48.9c-0.1-0.4,0.1-0.8,0.5-0.9c0.1-0.1,3.5-1.5,9.1-3c0.4-0.1,0.9,0.1,1,0.6c0.1,0.4-0.1,0.9-0.6,1
			c-5.5,1.5-8.9,3-8.9,3c-0.4,0.2-0.9,0-1.1-0.4C277.2,49,277.1,48.9,277.1,48.9z M295.4,43.7c-0.1-0.4,0.2-0.9,0.7-1l1.4-0.3
			c2.7-0.5,5.4-0.9,8.1-1.1c0.5,0,0.8,0.3,0.9,0.7c0,0.5-0.3,0.9-0.7,0.9c-2.6,0.3-5.3,0.7-8,1.1l-1.3,0.2
			C295.9,44.4,295.5,44.1,295.4,43.7C295.4,43.7,295.4,43.7,295.4,43.7z M314.3,41.7c0-0.6,0.3-1,0.8-1c3.2,0,6.4,0.1,9.6,0.3
			c0.4,0,0.8,0.4,0.8,0.9c0,0.5-0.4,0.8-0.9,0.8c-3.1-0.3-6.2-0.4-9.4-0.3C314.7,42.4,314.4,42.1,314.3,41.7z M333.2,43.3
			c0-0.1,0-0.2,0-0.3c0.1-0.4,0.5-0.7,1-0.7c3.2,0.6,6.3,1.4,9.3,2.3c0.4,0.1,0.7,0.6,0.5,1c-0.1,0.4-0.6,0.7-1,0.5
			c-2.9-0.9-6-1.7-9.1-2.3C333.5,43.9,333.3,43.7,333.2,43.3z M351.3,49c0-0.2,0-0.3,0.1-0.5c0.2-0.4,0.7-0.6,1.1-0.4
			c2.9,1.3,5.8,2.8,8.5,4.5c0.4,0.2,0.5,0.7,0.3,1.1c-0.2,0.4-0.7,0.5-1.1,0.3c-2.7-1.6-5.5-3.1-8.3-4.4
			C351.5,49.5,351.4,49.3,351.3,49z M367.5,58.9c0-0.2,0-0.5,0.2-0.7c0.3-0.4,0.8-0.4,1.2-0.1c1.2,0.9,2.4,1.9,3.5,2.9
			c1.3,1.1,2.5,2.3,3.7,3.4c0.3,0.3,0.3,0.8,0,1.2c-0.3,0.3-0.8,0.3-1.2,0c-1.2-1.1-2.4-2.2-3.6-3.4c-1.1-1-2.3-2-3.4-2.9
			C367.7,59.3,367.6,59.1,367.5,58.9z M381.1,72.1c0-0.3,0-0.6,0.3-0.8c0.3-0.3,0.9-0.3,1.2,0.1c2.1,2.4,4,5,5.8,7.6
			c0.2,0.4,0.2,0.9-0.2,1.1c-0.4,0.3-0.9,0.2-1.1-0.2c-1.7-2.6-3.7-5.1-5.7-7.5C381.2,72.4,381.2,72.2,381.1,72.1z M401.3,152.5
			c0-0.1,0-0.2,0-0.3c0.4-2,0.9-5.2,1.2-9.3c0-0.5,0.4-0.8,0.9-0.8c0.4,0,0.8,0.4,0.8,0.9c-0.4,4.2-0.9,7.5-1.3,9.5
			c-0.1,0.4-0.5,0.7-1,0.7C401.6,153.1,401.4,152.8,401.3,152.5z M391.8,87.8c-0.1-0.3,0.1-0.7,0.4-0.9c0.4-0.2,0.9-0.1,1.1,0.3
			c1.5,2.8,2.9,5.7,4.1,8.7c0.2,0.4,0,0.9-0.5,1.1c-0.4,0.2-0.9,0-1.1-0.5c-1.2-2.9-2.5-5.8-4-8.5C391.8,88,391.8,87.9,391.8,87.8z
			 M402.9,133.5c0-3.3-0.2-6.4-0.5-9.6c0-0.5,0.3-0.9,0.7-0.9c0.4,0,0.8,0.3,0.9,0.7c0.3,3.2,0.5,6.5,0.5,9.6c0,0.5-0.4,0.8-0.8,0.8
			C403.3,134.2,403,133.9,402.9,133.5z M398.9,105.4c-0.1-0.4,0.2-0.8,0.6-0.9c0.4-0.1,0.9,0.1,1,0.6c0.9,3.1,1.6,6.2,2.2,9.3
			c0.1,0.5-0.2,0.9-0.7,1c-0.4,0.1-0.9-0.2-1-0.7C400.6,111.6,399.8,108.5,398.9,105.4C398.9,105.4,398.9,105.4,398.9,105.4z"/>
	</g>
</g>
<g id="Слой_4">
	<path class="st5" d="M295.3,133c-21.5,6.1-96.7,3.7-103,2.2C195.9,106.6,190.6,1,190.6,1l104.2,0.6C294.8,1.6,299.2,95.9,295.3,133
		z"/>
	<g>
		<path class="st4" d="M210.9,24.2L210.9,24.2l69.1-0.3c0.3,0,0.6-0.1,0.8-0.4c0.2-0.2,0.3-0.5,0.3-0.8c0-0.7-0.5-1.2-1.2-1.2
			l-69.1,0.3c-0.7,0-1.2,0.5-1.2,1.2C209.7,23.7,210.2,24.2,210.9,24.2z"/>
		<path class="st4" d="M279.9,34.4l-69.1,0.3c-0.3,0-0.6,0.1-0.8,0.4c-0.2,0.2-0.3,0.5-0.3,0.8c0,0.7,0.5,1.2,1.2,1.2h0l69.1-0.3
			c0.3,0,0.6-0.1,0.8-0.4c0.2-0.2,0.3-0.5,0.3-0.8C281.1,34.9,280.6,34.4,279.9,34.4z"/>
		<path class="st4" d="M279.9,47.2l-69.1,0.3c-0.3,0-0.6,0.1-0.8,0.4c-0.2,0.2-0.3,0.5-0.3,0.8c0,0.7,0.5,1.2,1.2,1.2h0l69.1-0.3
			c0.3,0,0.6-0.1,0.8-0.4c0.2-0.2,0.3-0.5,0.3-0.8C281.1,47.7,280.6,47.2,279.9,47.2z"/>
		<path class="st4" d="M279.9,60l-69.1,0.3c-0.3,0-0.6,0.1-0.8,0.4c-0.2,0.2-0.3,0.5-0.3,0.8c0,0.7,0.5,1.2,1.2,1.2h0l69.1-0.3
			c0.3,0,0.6-0.1,0.8-0.4c0.2-0.2,0.3-0.5,0.3-0.8C281.1,60.5,280.6,60,279.9,60z"/>
		<path class="st4" d="M279.9,72.8l-69.1,0.3c-0.3,0-0.6,0.1-0.8,0.4c-0.2,0.2-0.3,0.5-0.3,0.8c0,0.7,0.5,1.2,1.2,1.2h0l69.1-0.3
			c0.3,0,0.6-0.1,0.8-0.4c0.2-0.2,0.3-0.5,0.3-0.8C281.1,73.3,280.6,72.8,279.9,72.8z"/>
		<path class="st4" d="M279.9,85.6l-69.1,0.3c-0.3,0-0.6,0.1-0.8,0.4c-0.2,0.2-0.3,0.5-0.3,0.8c0,0.7,0.5,1.2,1.2,1.2h0l69.1-0.3
			c0.7,0,1.2-0.5,1.2-1.2C281.1,86.1,280.6,85.6,279.9,85.6z"/>
		<path class="st4" d="M246.5,98.4l-35.6,0.3c-0.7,0-1.2,0.5-1.2,1.2c0,0.7,0.5,1.2,1.2,1.2h0l35.7-0.3c0.7,0,1.2-0.5,1.2-1.2
			C247.7,99,247.2,98.4,246.5,98.4z"/>
	</g>
</g>
<g id="Слой_5">
	<path class="st1" d="M218.5,233.5c0,0,0.7,6.8-5.7,5.8c0,0-1.7-2.3-4.8-2.9c-3.1-0.7-5.7-1.1-8.4-0.4c-2.7,0.7-9.7,3.7-13.4,6.7
		l-0.6,0.4l-4.2-4.6c0,0-0.9-6.8-0.1-12.6c0.8-5.8,4.5-17.9,5.2-19.4c1-2,1-3.1,3.1-3.2s21.8,0.6,25,1.3c3.2,0.7,11.5,1.7,11.5,1.7
		l-0.8,6c0,0,9.5,0,6.9,14c-2.9,15.4-11.6,10.7-11.6,10.7l-1.9-0.7L218.5,233.5z"/>
	<path class="st1" d="M173.9,231.5c0,0,3.9-4.9,4.6-10.5c0.7-5.6-0.8-9.7-4.3-10.4c-3.5-0.7-12.3-1.3-13.8,7.6
		c-1.5,9,9.8,13.4,9.8,13.4s-0.4,7.9-3.2,9.8l-5.7,16.1c0,0-2.2,4,15.3,10c1.8,0.6,7.9,4,9.6,3.1c6.6-3.4,7.5-2,7.5-2
		s-5.4-0.6-9.2-2.7c-3.8-2.1-9.5-6.8-10.8-11.4C172.4,249.8,173.9,231.5,173.9,231.5z"/>
	<g id="Слой_7">
		<g>
			<path class="st4" d="M161.2,258.9c-0.6-0.2-0.8-0.7-0.7-1.1l5.8-16.9c0.2-0.4,0.6-0.7,1.1-0.5c0.4,0.2,0.7,0.6,0.5,1.1l-5.8,16.9
				C162,258.7,161.6,259,161.2,258.9z"/>
		</g>
		<path class="st1" d="M138.3,263.1c0,0,21.3,30.5,47.3,26.8c24-3.4,17.5-21.3,17.5-21.3S153.1,259.5,138.3,263.1z"/>
		<g>
			<path class="st1" d="M162.2,255.5l-5.1,5.2l-11,0.9c0,0,19.5,31,26.9,38.4l13.5-22l15.7,18.8c0,0,5.4-20.2,3.4-24.2
				c-1.1-2.2-13,6.5-24.6,2.6c-7-2.4-13-12.8-17.4-17.5L162.2,255.5"/>
			<path class="st4" d="M172.9,301c-0.3,0-0.5-0.1-0.7-0.3c-7.3-7.3-26.2-37.3-27-38.5c-0.2-0.3-0.2-0.7,0-1
				c0.2-0.3,0.5-0.5,0.8-0.5l10.6-0.8l4.9-5c0.2-0.2,0.5-0.3,0.8-0.3c0.3,0,0.6,0.2,0.7,0.5l1.3,2.1c1.2,1.3,2.6,3.1,4,5
				c3.6,4.7,8.1,10.6,12.9,12.2c7,2.3,13.3,0.5,17.6-0.7c3-0.9,6.8-3.9,7.6-2.3c2.1,4.2-2.9,23.7-3.3,25.7c-0.1,0.4-0.4,0.7-0.7,0.8
				c-0.4,0.1-0.8,0-1-0.3l-14.8-17.8l-12.8,20.8c-0.2,0.3-0.4,0.4-0.7,0.5C173,301,173,301,172.9,301z M147.8,262.5
				c3.7,5.9,18.2,28.4,25,35.9l12.8-20.9c0-0.1,0.1-0.1,0.1-0.2c-1.7-0.2-3.4-0.5-5.1-1.1c-5.4-1.8-10.1-8-13.9-12.9
				c-1.4-1.9-2.8-3.6-3.9-4.9c0,0-0.1-0.1-0.1-0.1l-0.7-1.1l-4.2,4.3c-0.2,0.2-0.4,0.3-0.6,0.3L147.8,262.5z M187.2,277.4l14.3,17.1
				c1.3-7.2,4.9-19.3,3.7-21.9c-0.5-0.1-1.9,1.7-5.9,3C196.5,276.5,192.1,277.6,187.2,277.4z"/>
		</g>
		<g>
			<path class="st4" d="M203.7,272.7c-0.6-0.1-1-0.5-0.9-0.9l1.8-17.7c0-0.5,0.5-0.8,0.9-0.8c0.5,0.1,0.8,0.5,0.8,0.9l-1.8,17.7
				C204.4,272.3,204.1,272.6,203.7,272.7z"/>
		</g>
	</g>
	<path class="st2" d="M225.1,212.2c0,0,9.5,0.6,10.1-12.2c-0.1-9-4.9-19.7-10.8-24.2c-5.8-4.4-14.5-7.5-24.5-5.9
		c-7.8,1.2-7.7,7.4-10.9,9.9c-3.2,2.5-10.2,4.6-19.8,4.7c-9.6,0.1-10.6,4.2-14.4,12.9c-3.7,8.7-4.7,12.9-5,14.5
		c-0.4,1.6,17.2,29.5,17.2,29.5s3.6-3.6,3-9.6c0,0-10.6-1.7-9.1-12.8c0.6-4.8,4-9.5,9.1-9.1c5.7,0.5,8.7,3.9,8.6,8.5
		c-0.1,4.6-1.6,9.8-4.9,13.6c0,0-0.2,22-0.2,22.7c0,0.7,7.1,11.1,13.8,12.4c6.7,1.3,30.2,3.1,31.6-0.6c0,0,1.3-4,2.7-14
		c1.3-14-1.9-18.2-1.9-18.2s-2.5,5.9-6.7,5.1c-0.2-0.1-0.3-1.6-4.1-2.9c-3.2-1.1-1.6-0.9-7.6-0.6c-6,0.3-15.5,7.4-15.5,7.4
		s-3.5-2.7-4-4.4c-0.8-2.7-0.2-9.8-0.2-9.8s2.2-12.6,3.1-16.2c1.7-6.8,5-9.9,5-9.9l30.7,2.1l5.9,1.3L225.1,212.2z"/>
	<g>
		<g>
			<path class="st4" d="M223.4,238.6c-2-0.3-3.5-1.5-4.5-3.5l-0.6-1.4l-0.1-0.6c-0.5-2.7-1.1-5.7-0.6-9.2c1.2-7.4,5.6-12.7,10-12.1
				c0.9,0.1,1.6,0.4,2.2,0.9c1.1,0.8,2,2,2.7,3.5c1.2,2.8,1.5,6.6,0.9,10.3c-0.6,3.8-2.1,7.2-4.2,9.5
				C227.5,237.9,225.4,238.8,223.4,238.6z M227.4,213.4c-3.4-0.5-7.1,4.4-8.2,10.7c-0.5,3.2,0,6,0.5,8.6l0.1,0.4l0.6,1.2
				c0.8,1.5,1.8,2.4,3.1,2.6l0,0.9l0.1-0.8c1.4,0.2,2.9-0.6,4.3-2.1c1.8-2,3.2-5.2,3.7-8.6c0.6-3.5,0.3-6.9-0.8-9.4
				c-0.5-1.3-1.3-2.2-2.1-2.8C228.4,213.7,227.9,213.5,227.4,213.4L227.4,213.4z"/>
		</g>
		<g>
			<path class="st4" d="M202.4,236.6c-2.4-0.4-4.3-2.2-5.4-5.1c-1.1-2.7-1.3-6.2-0.7-9.7c1.2-7.4,5.7-12.7,10.3-12.1
				c4.8,0.8,7.4,7.3,6.2,14.8C211.4,232,206.9,237.3,202.4,236.6z M206.4,211.5c-3.7-0.5-7.4,4.3-8.5,10.6c-0.5,3.2-0.3,6.3,0.6,8.8
				c0.9,2.3,2.3,3.7,4,4l0,0.9l0.1-0.8c3.6,0.5,7.3-4.3,8.4-10.7C212,217.9,209.9,212.1,206.4,211.5L206.4,211.5z"/>
		</g>
		<g>
			<path class="st4" d="M211.7,225.3c-0.1,0-0.2,0-0.3-0.1c-0.4-0.2-0.6-0.7-0.3-1.2c0.1-0.1,1.8-3.4,5.1-2.8
				c2.6,0.4,2.9,3.8,2.9,3.9c0,0.5-0.3,0.9-0.8,0.9c-0.5,0-0.9-0.3-0.9-0.8c0,0-0.2-2.1-1.5-2.4c-2.1-0.3-3.3,1.9-3.3,1.9
				C212.4,225.2,212.1,225.3,211.7,225.3z"/>
		</g>
		<g>
			<path class="st4" d="M196.9,222.8c0,0-18.5-3-18.5-3c-0.5-0.1-0.8-0.5-0.7-1c0.1-0.5,0.5-0.9,1-0.7l18.4,3c0.5,0.1,0.8,0.5,0.7,1
				C197.8,222.6,197.4,222.9,196.9,222.8z"/>
		</g>
		<g>
			<path class="st4" d="M210.9,249.9c-9.7-1.9-9-9.5-9-9.6c0-0.5,0.5-0.8,0.9-0.8c0.5,0.1,0.8,0.5,0.8,0.9c0,0.2-0.5,6.1,7.6,7.7
				c0.5,0.1,0.8,0.5,0.7,1C211.8,249.7,211.4,250,210.9,249.9z"/>
		</g>
		<g>
			<path class="st4" d="M217.9,238.4c-0.2,0-0.4-0.1-0.6-0.3c-0.3-0.4-0.2-0.9,0.2-1.2c1.6-1.2,3.5-0.7,4.4,0
				c0.4,0.3,0.4,0.8,0.1,1.2c-0.3,0.4-0.8,0.4-1.2,0.1c-0.3-0.2-1.4-0.6-2.3,0C218.3,238.4,218.1,238.5,217.9,238.4z"/>
		</g>
		<g>
			<path class="st4" d="M185.9,244.1c-1.3-0.2-5.1-4.9-5.2-5.7c-0.2-2.1-0.7-9.2,0.3-14l0.1-0.3c3.3-14.7,5.6-21,8.1-21.6
				c3.6-0.9,13.4-0.6,23.3,0.7c11.1,1.5,14.1,2.3,14.2,2.3c0.4,0.1,0.7,0.5,0.6,1l-1.2,6.5c-0.1,0.4-0.5,0.7-0.9,0.7
				c-0.5-0.1-0.8-0.5-0.7-1l1.1-5.7c-1.4-0.3-5.2-1.1-13.2-2.1c-11.1-1.5-19.8-1.5-22.7-0.7c-0.9,0.2-3,3.2-6.8,20.3l-0.1,0.3
				c-1,4.6-0.5,11.4-0.3,13.4c0.2,0.6,2.5,3.2,3.5,4c0.1-0.1,0.2-0.2,0.4-0.3c2.6-1.9,9.4-7.1,16.1-7c0.5,0,0.8,0.4,0.8,0.9
				c0,0.5-0.4,0.8-0.9,0.8c-6.1-0.1-12.8,5-15,6.7c-0.8,0.6-1,0.8-1.3,0.8C186,244.1,185.9,244.1,185.9,244.1z"/>
		</g>
		<g>
			<path class="st4" d="M191.9,268.9c-1.8-0.2-3.4-0.5-4.7-0.8c-7.8-1.9-14.8-11.1-14.9-15.5c-0.1-3.9,0.7-20,0.7-20.7
				c0-0.2,0.1-0.4,0.3-0.6c0,0,4.6-4.4,4.4-12.2c-0.1-5.2-2.5-7.8-7.1-8c-2.7-0.1-4.7,0.5-6.2,1.9c-1.8,1.7-2.7,4.7-2.7,8.7
				c0.1,8.1,8.2,9.4,8.6,9.5c0.4,0.1,0.8,0.5,0.7,0.9c0,0.3-0.6,7.4-3.5,10.3c-0.2,0.2-0.5,0.3-0.7,0.2c-0.3,0-0.5-0.2-0.6-0.4
				c-0.1-0.2-14.1-24.8-16.4-28.3c-1.1-1.7-0.3-4.5,0.3-6.3l0.2-0.6c0.9-2.9,2.1-5.9,3.9-9.7l0.3-0.6c1.6-3.4,3.4-7.2,6-10.1
				c1.8-2,5.5-2.5,8.5-2.8c0.7-0.1,1.3-0.2,1.8-0.2c1.2-0.2,2.4-0.4,3.5-0.5c2.9-0.4,5.9-0.9,8.7-1.5c1.4-0.3,3-0.7,4.3-1.6
				c1.5-1,2.5-2.5,3.5-4c0.8-1.3,1.7-2.6,2.8-3.7c4.5-4.2,12.7-4.2,18.3-3.1c7.5,1.6,14.6,6.2,19.1,12.5c1.8,2.5,6.4,12.4,4.6,21.1
				c-1,4.6-3.6,8.2-7.8,10.6c-0.4,0.2-0.9,0.1-1.2-0.3c-0.2-0.4-0.1-0.9,0.3-1.2c3.8-2.2,6.1-5.4,7-9.5c1.7-8.2-2.8-17.7-4.3-19.7
				c-4.3-5.9-11.1-10.3-18.1-11.8c-5.6-1.2-13-0.8-16.8,2.7c-1,0.9-1.8,2.1-2.6,3.3c-1.1,1.6-2.2,3.4-4,4.5c-1.5,1-3.3,1.5-4.9,1.8
				c-2.9,0.7-5.9,1.1-8.9,1.5c-1.2,0.2-2.3,0.3-3.5,0.5c-0.6,0.1-1.2,0.2-1.9,0.2c-2.7,0.3-6,0.7-7.4,2.3c-2.4,2.7-4.1,6.3-5.8,9.7
				l-0.3,0.6c-1.8,3.7-2.9,6.6-3.8,9.4l-0.2,0.6c-0.4,1.4-1.2,3.8-0.5,4.8c2,3.1,13,22.4,15.8,27.3c1.3-2.1,2-5.6,2.2-7.6
				c-2.4-0.6-9.1-3-9.2-11c0-4.5,1-7.8,3.2-9.9c1.8-1.7,4.3-2.6,7.4-2.4c5.5,0.2,8.5,3.6,8.7,9.7c0.2,7.7-3.6,12.2-4.7,13.3
				c-0.1,2.4-0.8,16.7-0.7,20.2c0.1,3.6,6.2,12.1,13.6,13.9c8.1,2,26.8,2.5,30,0.2c2.4-1.7,2.6-16.2,2.7-23.9c0-2.3,0.1-4.4,0.1-5.8
				c0-0.5,0.4-0.8,0.9-0.8c0.5,0.1,0.8,0.4,0.8,0.9c-0.1,1.5-0.1,3.5-0.1,5.8c-0.2,12.7-0.6,23.3-3.4,25.3
				C215.2,270.4,200.9,270.1,191.9,268.9z"/>
		</g>
		<g>
			<path class="st4" d="M213.1,240.3c-0.4-0.1-0.8-0.4-0.7-0.9c0-0.5,0.4-0.8,0.9-0.8c1.8,0.1,3-0.2,3.8-1c1.4-1.5,0.9-4.4,0.7-6.5
				c-0.5-3.5-2.5-13.1-2.5-13.2c-0.1-0.5,0.2-0.9,0.7-1c0.5-0.1,0.9,0.2,1,0.7c0.1,0.4,2,9.7,2.5,13.2c0.4,2.6,0.8,6-1.1,8
				C217.1,239.9,215.4,240.4,213.1,240.3C213.1,240.3,213.1,240.3,213.1,240.3z"/>
		</g>
		<g>
			<path class="st4" d="M168.5,225.9c-0.3,0-0.5-0.2-0.6-0.4c-0.2-0.4-0.1-0.9,0.3-1.2l5.3-3l-5.9-7c-0.3-0.4-0.3-0.9,0.1-1.2
				c0.4-0.3,0.9-0.3,1.2,0.1l6.6,7.8c0.2,0.2,0.2,0.4,0.2,0.7c0,0.2-0.2,0.5-0.4,0.6l-6.2,3.5C168.9,225.9,168.7,226,168.5,225.9z"
				/>
		</g>
	</g>
</g>
</svg>
