<?xml version="1.0" encoding="utf-8"?>
<!-- Generator: Adobe Illustrator 22.0.1, SVG Export Plug-In . SVG Version: 6.00 Build 0)  -->
<svg version="1.0" xmlns="http://www.w3.org/2000/svg" xmlns:xlink="http://www.w3.org/1999/xlink" x="0px" y="0px" width="460.5px"
	 height="455.3px" viewBox="0 0 460.5 455.3" style="enable-background:new 0 0 460.5 455.3;" xml:space="preserve">
<style type="text/css">
	.st0{fill:#EDA58A;}
	.st1{fill:#272727;}
	.st2{fill:#FFFFFF;stroke:#9898EA;stroke-width:2;stroke-miterlimit:10;}
	.st3{fill:#272728;}
	.st4{fill:#FFFFFF;}
	.st5{fill:#48484B;}
	.st6{fill:#9898EA;}
</style>
<g id="Слой_12">
	<path class="st0" d="M116.9,376.5c165.9,108.4,289,22.9,329.6-84.2s-11.6-169.5-91.1-150c-48.5,11.9-40.2,39.4-103.9,68.1
		c-49.2,22.2-69.5-54.5-126-70.7C-16.2,99.1-46.8,269.6,116.9,376.5z"/>
</g>
<g id="Слой_9">
	<g>
		<path class="st1" d="M270,54.4c-0.1,0-0.2,0-0.3-0.1c0,0-0.6-0.3-1.7-0.9c-0.3-0.2-0.4-0.6-0.3-0.9c0.2-0.3,0.6-0.4,0.9-0.3
			c1.1,0.6,1.7,0.9,1.7,0.9c0.3,0.2,0.4,0.6,0.2,0.9C270.5,54.3,270.2,54.4,270,54.4z M261.8,50.2c-0.1,0-0.2,0-0.3-0.1
			c-2.1-1-4.4-2-6.7-3c-0.3-0.1-0.5-0.5-0.3-0.8c0.1-0.3,0.5-0.5,0.8-0.3c2.3,1,4.6,2,6.7,3c0.3,0.2,0.5,0.5,0.3,0.8
			C262.3,50.1,262,50.2,261.8,50.2z M128.4,49.7c-0.2,0-0.4-0.1-0.5-0.3c-0.2-0.3-0.1-0.7,0.2-0.9c2.1-1.3,4.2-2.5,6.4-3.6
			c0.3-0.2,0.7,0,0.9,0.3c0.2,0.3,0,0.7-0.3,0.9c-2.1,1.1-4.3,2.3-6.3,3.6C128.6,49.6,128.5,49.7,128.4,49.7z M248.3,44.5
			c-0.1,0-0.2,0-0.2,0c-2.3-0.9-4.6-1.7-6.9-2.5c-0.3-0.1-0.5-0.5-0.4-0.8c0.1-0.3,0.5-0.5,0.8-0.4c2.3,0.8,4.6,1.6,6.9,2.5
			c0.3,0.1,0.5,0.5,0.4,0.8C248.8,44.3,248.6,44.5,248.3,44.5z M141.3,42.9c-0.2,0-0.5-0.1-0.6-0.4c-0.1-0.3,0-0.7,0.3-0.8
			c2.2-1,4.5-1.9,6.8-2.8c0.3-0.1,0.7,0,0.8,0.4c0.1,0.3,0,0.7-0.4,0.8c-2.3,0.8-4.5,1.7-6.7,2.7C141.5,42.9,141.4,42.9,141.3,42.9z
			 M234.4,39.8c-0.1,0-0.1,0-0.2,0c-2.3-0.7-4.7-1.3-7-1.9c-0.3-0.1-0.5-0.4-0.5-0.8c0.1-0.3,0.4-0.5,0.8-0.5
			c2.4,0.6,4.7,1.2,7.1,1.9c0.3,0.1,0.5,0.5,0.4,0.8C235,39.6,234.7,39.8,234.4,39.8z M155.1,37.8c-0.3,0-0.5-0.2-0.6-0.5
			c-0.1-0.3,0.1-0.7,0.4-0.8c2.3-0.7,4.7-1.3,7.1-1.8c0.4-0.1,0.7,0.1,0.8,0.5c0.1,0.3-0.1,0.7-0.5,0.8c-2.4,0.5-4.7,1.1-7,1.8
			C155.2,37.8,155.1,37.8,155.1,37.8z M220.2,36.3c0,0-0.1,0-0.1,0c-2.4-0.5-4.8-0.9-7.2-1.3c-0.3-0.1-0.6-0.4-0.5-0.7
			c0.1-0.3,0.4-0.6,0.7-0.5c2.4,0.4,4.8,0.8,7.2,1.3c0.3,0.1,0.6,0.4,0.5,0.8C220.8,36.1,220.5,36.3,220.2,36.3z M169.3,34.6
			c-0.3,0-0.6-0.2-0.6-0.5c-0.1-0.3,0.2-0.7,0.5-0.7c2.4-0.4,4.8-0.7,7.3-1c0.3,0,0.7,0.2,0.7,0.6c0,0.3-0.2,0.7-0.6,0.7
			c-2.4,0.2-4.8,0.6-7.2,0.9C169.4,34.6,169.4,34.6,169.3,34.6z M205.8,34c-2.5-0.3-4.9-0.5-7.3-0.6c-0.4,0-0.6-0.3-0.6-0.7
			c0-0.4,0.3-0.6,0.7-0.6c2.4,0.2,4.9,0.4,7.3,0.6c0.4,0,0.6,0.4,0.6,0.7C206.4,33.7,206.1,34,205.8,34z M183.9,33.2
			c-0.3,0-0.6-0.3-0.6-0.6c0-0.3,0.3-0.6,0.6-0.7c2.4-0.1,4.9-0.1,7.4-0.1c0.3,0,0.6,0.3,0.6,0.6c0,0.4-0.2,0.6-0.6,0.6
			C188.8,33,186.3,33,183.9,33.2C183.9,33.2,183.9,33.2,183.9,33.2z"/>
	</g>
	<path class="st2" d="M377.9,185.5c-30.1,8.6-135.2,5.2-144,3.1C239,148.5,231.6,1,231.6,1l145.5,0.8
		C377.2,1.8,383.4,133.6,377.9,185.5z"/>
	<path class="st3" d="M257.8,36.8L257.8,36.8l93.4-0.3c0.4,0,0.7-0.1,1-0.4c0.3-0.3,0.4-0.6,0.4-1c0-0.8-0.6-1.4-1.4-1.4L257.8,34
		c-0.8,0-1.4,0.6-1.4,1.4C256.4,36.2,257.1,36.8,257.8,36.8z"/>
	<path class="st3" d="M257.8,57.8L257.8,57.8l93.4-0.3c0.4,0,0.7-0.1,1-0.4c0.3-0.3,0.4-0.6,0.4-1c0-0.8-0.6-1.4-1.4-1.4L257.8,55
		c-0.8,0-1.4,0.6-1.4,1.4C256.4,57.2,257.1,57.8,257.8,57.8z"/>
	<path class="st3" d="M257.8,80.8L257.8,80.8l93.4-0.3c0.4,0,0.7-0.1,1-0.4c0.3-0.3,0.4-0.6,0.4-1c0-0.8-0.6-1.4-1.4-1.4L257.8,78
		c-0.8,0-1.4,0.6-1.4,1.4C256.4,80.2,257.1,80.8,257.8,80.8z"/>
	<path class="st3" d="M257.8,101.8L257.8,101.8l93.4-0.3c0.4,0,0.7-0.1,1-0.4c0.3-0.3,0.4-0.6,0.4-1c0-0.8-0.6-1.4-1.4-1.4L257.8,99
		c-0.8,0-1.4,0.6-1.4,1.4C256.4,101.2,257.1,101.8,257.8,101.8z"/>
	<path class="st3" d="M257.8,124.8L257.8,124.8l93.4-0.3c0.4,0,0.7-0.1,1-0.4c0.3-0.3,0.4-0.6,0.4-1c0-0.8-0.6-1.4-1.4-1.4
		l-93.4,0.3c-0.8,0-1.4,0.6-1.4,1.4C256.4,124.2,257.1,124.8,257.8,124.8z"/>
	<path class="st3" d="M257.8,147.8L257.8,147.8l63.4-0.3c0.4,0,0.7-0.1,1-0.4c0.3-0.3,0.4-0.6,0.4-1c0-0.8-0.6-1.4-1.4-1.4
		l-63.4,0.3c-0.8,0-1.4,0.6-1.4,1.4C256.4,147.2,257.1,147.8,257.8,147.8z"/>
</g>
<g id="Слой_8">
	<path class="st4" d="M298.3,287.8c0,0-20.7-3.3-40.3,21c0,0-11.9,12-16.9,33.1c-5,21.1-5.6,34.9-22.7,45.8l-0.6,1.1l8.6,24.2
		l157.9,0c0,0,10.1-15.5,5.1-44.6c-5-29.1-14.3-44.4-18.7-50.8c-4.4-6.5-12.8-22.3-31.7-26.6C320,286.5,298.3,287.8,298.3,287.8z"/>
	<path class="st1" d="M266.3,326.2c0,0-14.3,51.4-9.3,86.2l19,0.5c0,0-9-0.8-12.3-26.2C260.4,361.3,262.5,332.6,266.3,326.2z"/>
	<circle class="st3" cx="246.2" cy="162.7" r="63.6"/>
	<path class="st5" d="M100.4,250.9c0,0-28.4-4.3-40.9,14.7C47,284.7,44,288,37.1,304.5c-6.9,16.4-11.7,33.6-10.9,46.3
		c0.7,12.7,3.5,26.6,18.7,33.4l-0.7,28.7l107.3-0.6l43.2-64.5c0,0-0.8-32.6-3.5-50c-2.7-17.3-5.6-24.2-5.6-24.2l-31.2-0.5
		c0,0-14.1-23.3-37.4-25.2L100.4,250.9z"/>
	<circle class="st4" cx="240.8" cy="162.7" r="52.7"/>
	<path class="st4" d="M310.9,413.2c0,0,6.3-5.9,7.3-12.6c1-6.7-2.5-13.7-5.3-15.9c-2.7-2.2-7.2-6.5-15.9-5.5l-12.9,11.9l-12.3,1.7
		l12.9-13c0,0-11.8-0.5-18.1,11.7l-0.9,1.3c0,0-4.3,1.6-4.6,4.5c-0.3,2.9,1.4,3.9,1.4,3.9s0,6.4,8.5,8.1c0,0,4.9,7,19.9,6.9
		C306.1,416,310.9,413.2,310.9,413.2z"/>
	<path class="st4" d="M318.5,288.3v-22.5c0,0,7.4,0.3,7.5-6.3c0.1-6.6-5.4-6.8-9-6.5c0,0-3.5-1.2-4.2-3.2c-0.7-2-1.2-6-0.8-8.2
		c0,0-7.6,3.9-14.9,3.3c-7.3-0.6-9.7-2.7-9.7-2.7l0.3,25.4c0,0-0.4,12.6,10.3,12l0.4,11.2c0,0-4.4,13.4,1,13.4
		C304.8,304.2,313,298.9,318.5,288.3z"/>
	<path class="st4" d="M186.3,270.9c0,0,5.8,7.4,4.5,14.5c-1.3,7-7.2,16.5-14.5,18.3c-7.4,1.8-12,0.7-14.4-1.7
		c-2.4-2.4-5.9-4.7-6.5-7c-0.7-2.2-1.5-7,4.1-7.2c0,0-1-3.8,1.6-6.2c2.6-2.4,4.7-1.6,4.7-1.6s-0.6-4.3,3.7-5.7
		c4.2-1.4,6,1.1,8.4,2.9c2.4,1.7,2.7,2,2.7,2L186.3,270.9z"/>
	<path class="st4" d="M136,300.6c0,0-3.3,4.5-3.7,6.3c-0.4,1.9-0.3,8.2,5.1,11.5c5.5,3.3,7.8,4.8,10.7,4c2.9-0.8,4.2-2.5,4.2-2.5
		s1-0.5,1.5,1.8c0.5,2.5,1,6.8-2.5,8.4c0,0-0.6,6.8-5.1,7.2c0,0-3.7,5.4-8.4,4.5s-5.6-3.1-8.8-3.5c-3.2-0.4-5.6,0.4-7.9,2.1
		c0,0-4.4-7.7-7.4-11c-3-3.2-5-6.8-5-6.8s6.2-4.2,7.8-8.4C118.1,310.1,122.3,297.7,136,300.6z"/>
	<path class="st4" d="M99.6,251.3l14.4,10.9l2.8-14.1l0.6-10.9c0,0,5.8,0.4,8-3.7c2.2-4.1,2.6-9.5,2.6-13.8c0-4.3-0.5-16.8-0.5-16.8
		s-6.6-9.7-10.8-11.2c0,0-3.4,9.5-6.9,12.9c-3.5,3.5-9.2,7.3-9.2,7.3s-8.8-2.2-9.6,5.9c-0.9,8.1,9,6.3,9,6.3s7.5,4.4,8.9,11.7
		C110.1,243.3,103.9,251.6,99.6,251.3z"/>
	<path class="st5" d="M127.7,202.5c0,0,1.1-10.9-2.4-13.9c-3.4-3-8.2-5.8-18.9-4.9c0,0-27.3-1.3-28,16.6c0,0,3.8,19.7,4.6,26.1
		c0.8,6.4,3.9,11.6-8.6,15.4s-17.1,17.7-14.8,23c0,0,7.3-7.3,13.1-9.6c5.8-2.2,12.1-3.5,23.3-3.7c11.2-0.2,12.4-7.1,12.5-10.7
		c0.1-3.6,0.6-8.3-3.2-11.6c-3.8-3.4-6.2-4.9-6.2-4.9s-8.7,1-8.3-6.8c0.4-7.9,9.6-5.4,9.6-5.4s7.7-4.2,10.4-8.6
		c2.6-4.4,5.7-11.6,5.7-11.6S124.3,197.5,127.7,202.5z"/>
	<path class="st1" d="M117.3,237.7l-0.4,10.4l6.9,1.2c0,0,2.8-3.9,1.6-7.8c-1.2-3.9-2.7-5.2-2.7-5.2S119.1,238,117.3,237.7z"/>
	<path class="st5" d="M337.3,289.9c0,0,9.3,0,10.3-10.5c1-10.5-8.9-15.3-17.4-15.3c0,0,3-14.5,3.2-17.1c0.2-2.6,2.1-13-9.6-14
		l-0.9-0.5c0,0-9-8.7-20.5-7.8c-11.6,0.9-16.1,6.9-17.9,10.6c-1.8,3.8-0.6,11.5,3,14.9l0.4-8.3c0,0,3.8,3.5,10.6,3.2
		c6.8-0.3,13.5-4.1,13.5-4.1s-1.7,9.5,4.4,11.9c0,0,2.4-0.6,4.4-0.3c1.9,0.3,5.4,3.3,5.3,7.3c-0.2,4-4.3,6.3-7.1,5.9l-0.4,21.9
		C318.5,287.7,329.2,287.7,337.3,289.9z"/>
	<path class="st5" d="M288.1,270.9c0,0-7.6,0.8-9.4,8.5c-1.8,7.8,5.4,10.2,5.4,10.2l14.2-1.8l-0.3-8.2
		C298,279.6,288.8,280.7,288.1,270.9z"/>
	<polygon class="st6" points="271.3,392.4 292.3,372 297.1,377.3 283.7,391.7 	"/>
	<polygon class="st4" points="262.6,400.6 258.6,411 267.4,407.9 	"/>
	<polygon class="st4" points="292.3,372 294.7,369.4 300.2,374.7 297.7,377.6 	"/>
	<path class="st4" d="M228.3,418.3l1.3-0.6h61.1L247.8,443H233c0,0,1.1-3.9,0.4-6.7C232.6,433.6,228.3,418.3,228.3,418.3z"/>
	<g>
		<path d="M213,455c-0.4,0-0.6-0.3-0.6-0.6s0.3-0.6,0.6-0.6c7.4,0,13.6-2.7,17.1-7.5c2.7-3.7,3.3-8.1,1.9-12.4L207.2,359
			c-2.1-6.3-7.9-10.5-14.6-10.5H88c-1.2,0-2.3,0.1-3.4,0.4c-0.3,0.1-0.7-0.1-0.8-0.5c-0.1-0.3,0.1-0.7,0.5-0.8
			c1.2-0.3,2.4-0.4,3.7-0.4h104.6c7.2,0,13.5,4.6,15.8,11.4l24.8,74.8c1.6,4.7,0.8,9.6-2.1,13.6C227.4,452.1,220.8,455,213,455z"/>
	</g>
	<g>
		<path d="M75.3,354c-0.2,0-0.4-0.1-0.6-0.3c-0.2-0.3-0.1-0.7,0.2-0.9l9.2-5.2c0.3-0.2,0.7-0.1,0.9,0.2c0.2,0.3,0.1,0.7-0.2,0.9
			l-9.2,5.2C75.5,354,75.4,354,75.3,354z"/>
	</g>
	<path class="st4" d="M77,352.4l8.4-4.6h109.1c0,0,9.7-0.7,14.2,13l24.5,75.6c0,0,1.4,14.7-15.8,17.7c0,0,9.6-5.7,8.8-16.2l-25.6-75
		c0,0-2.8-9.3-13.4-10.3L77,352.4z"/>
	<path class="st6" d="M181.4,247.6l24.3-35.7l8.7,6l-24.8,35.5C189.6,253.3,183.7,253.2,181.4,247.6z"/>
	<path class="st3" d="M151.4,321.5l12.6-18l-8.1-7.4c0,0-4.1-6.6,3.6-8.2c0,0-1.7-6.7,6.3-7.8c0,0-0.2-3.2,2.6-5.4
		c2.8-2.2,6.4,0,6.4,0l5.7,4.6l14.2-21c0,0-7.7-2-13.2-6.6c-5.5-4.6-6.1-7.8-6.1-7.8l-41.8,60.6c0,0-5,8.5,4,14
		C146.4,323.9,151.4,321.5,151.4,321.5z"/>
	<g>
		<path class="st1" d="M44.2,384.2l-0.2,7.4c21.3,2.3,27.3-2.1,27.3-2.1l-1.2-3.6c0,0-5.5,1.3-13.3,1.6
			C49,387.9,44.2,384.2,44.2,384.2z"/>
		<path class="st6" d="M225.5,434.5l-24.8-71.6c-2.2-6.3-8.3-10.5-15.2-10.5H80.9c-10.9,0-18.6,10.2-15.2,20.1l3.7,10.7l21.1,60.9
			c2.2,6.3,8.3,10.5,15.2,10.5h104.6C221.2,454.6,228.9,444.4,225.5,434.5z"/>
	</g>
	<path class="st4" d="M145.2,402.5c3.2,5.5,2.8,11.7-0.8,13.8c-3.6,2.1-9.2-0.7-12.3-6.2c-3.2-5.5-2.8-11.7,0.8-13.8
		C136.5,394.2,142.1,397,145.2,402.5z"/>
	<path class="st4" d="M106.4,183.7c0,0-2.1-0.1-5.2,0.1c3.9,1.7,8.4,5,6.5,11c-3.1,10.1-9.8,16.5-9.8,16.5l1.4,0.5
		c0.6,0.1,1.1,0.2,1.1,0.2s7.7-4.2,10.4-8.6c2.6-4.4,5.7-11.6,5.7-11.6s7.7,5.7,11.1,10.7c0,0,1.1-10.9-2.4-13.9
		C121.9,185.6,117.1,182.8,106.4,183.7z"/>
	<path class="st4" d="M108.6,240.8c0.1-3.6,0.6-8.3-3.2-11.6c-3.8-3.4-6.2-4.9-6.2-4.9s-1.3,0.2-2.9-0.1c-0.2,0.1-0.3,0.2-0.3,0.2
		s8.9,5.4,8.3,13.1c-0.9,10.8-8.8,14.2-12.8,14.1c-0.3,0-0.5,0-0.6,0c1.6-0.1,3.4-0.2,5.3-0.2C107.3,251.2,108.5,244.4,108.6,240.8z
		"/>
	<path class="st4" d="M122.8,236.2c0,0-1.3,0.6-2.7,1.1c1.4,2,3.6,6.4,0.6,11.5l3.1,0.5c0,0,2.8-3.9,1.6-7.8
		C124.2,237.5,122.8,236.2,122.8,236.2z"/>
	<path class="st4" d="M292.3,233.2c1.3-4.4,6.7-7,11.5-8.6c-0.5,0-1,0-1.5,0c-11.6,0.9-16.1,6.9-17.9,10.6c-1.8,3.8-0.6,11.5,3,14.9
		l0.4-8.3c0,0,3.8,3.5,10.6,3.2c6.8-0.3,13.5-4.1,13.5-4.1C307.7,243.2,289.7,241.4,292.3,233.2z"/>
	<path class="st4" d="M284.7,280.5c0.6-3.8,2.4-5.7,4-6.6c-0.3-0.9-0.5-1.8-0.5-2.9c0,0-7.6,0.8-9.4,8.5c-1.8,7.8,5.4,10.2,5.4,10.2
		l4.4-0.6C286.3,287.2,284.1,284.3,284.7,280.5z"/>
	<g>
		<path class="st1" d="M59.9,265.9c-0.2,0-0.5-0.1-0.6-0.4c-1.4-3.3-1.2-7.2,0.8-11.1c3.1-6.3,10.5-12.6,16.8-14.2
			c2.6-0.7,4.4-1.9,5.5-3.7c1.6-2.7,0.7-5.9,0.7-5.9c-2.6-19.4-5.2-29.8-5.3-29.9c0-0.1,0-0.1,0-0.2c0.3-5.3,2.7-9.5,7.2-12.5
			c10.4-7,30-5.6,35.7-3.5c0.3,0,9.5,1.5,7.5,18.6c0,0.3-0.3,0.6-0.7,0.6c-0.3,0-0.6-0.4-0.6-0.7c1.8-15.8-6.2-17.2-6.6-17.2
			c-4.6-1.7-24-3.9-34.7,3.3c-4.1,2.8-6.3,6.6-6.6,11.4c0.3,1.1,2.8,11.4,5.2,29.8c0,0.1,1,3.6-0.8,6.8c-1.2,2.1-3.3,3.5-6.2,4.3
			c-5.3,1.4-12.7,6.8-16,13.5c-1.8,3.6-2,7.1-0.7,10.1c0.1,0.3,0,0.7-0.3,0.8C60.1,265.9,60,265.9,59.9,265.9z"/>
	</g>
	<g>
		<path class="st1" d="M120.4,348.5c-0.2,0-0.4-0.1-0.5-0.2c-0.2-0.3-0.2-0.7,0.1-0.9c0,0,1.5-1.3,2.6-2.3c-0.8-1.7-4.3-8.4-9-14.6
			c-6.1-8.2-10.7-11.4-11.9-12.1c-3,1.9-26.7,16.5-40.1,29.7c-0.3,0.2-0.7,0.2-0.9,0c-0.2-0.3-0.2-0.7,0-0.9
			c14.4-14.1,40.4-29.9,40.6-30c0.2-0.1,0.4-0.1,0.6,0c0.2,0.1,5.3,2.8,12.6,12.7c5.5,7.3,9.3,15.2,9.3,15.3
			c0.1,0.2,0.1,0.5-0.1,0.7c-1.1,1.2-2.9,2.7-3,2.7C120.7,348.4,120.6,348.5,120.4,348.5z"/>
	</g>
	<g>
		<path class="st1" d="M58.9,388.2c-5.9,0-11.7-1.6-16.8-4.7c-7.9-4.8-13-12.1-15.3-21.6c-6.3-26.6,11.3-64.5,22.6-82.7
			c0.5-0.8,1.1-1.7,1.6-2.5c2.8-4.5,5.7-9.2,9.4-13c12.4-12.5,22-13.2,35.1-12.8c0.4,0,0.6,0.3,0.6,0.7c0,0.3-0.3,0.6-0.6,0.6
			c-13.2-0.4-22.1,0.2-34.2,12.4c-3.7,3.7-6.5,8.3-9.3,12.8c-0.5,0.9-1.1,1.7-1.6,2.6c-11.3,18-28.7,55.5-22.5,81.7
			c2.2,9.2,7.1,16.2,14.7,20.8c8.2,5,18.1,5.9,27.2,2.5c0.3-0.1,0.7,0,0.8,0.4c0.1,0.3,0,0.7-0.4,0.8
			C66.7,387.5,62.8,388.2,58.9,388.2z"/>
	</g>
	<g>
		<path class="st1" d="M154.6,274.3c-0.2,0-0.4-0.1-0.5-0.3c-8.9-14-24-24.5-36.8-25.3c-0.4,0-0.6-0.3-0.6-0.7
			c0-0.3,0.4-0.6,0.7-0.6c13.2,0.9,28.7,11.6,37.8,25.9c0.2,0.3,0.1,0.7-0.2,0.9C154.8,274.3,154.7,274.3,154.6,274.3z"/>
	</g>
	<g>
		<path d="M117.7,238c-0.6,0-1.2,0-1.9-0.1c-2-0.2-5.1-0.5-7.4-1c-0.3-0.1-0.6-0.4-0.5-0.7c0.1-0.3,0.4-0.6,0.7-0.5
			c2.1,0.4,5.2,0.8,7.3,1c2.1,0.2,3.7,0.1,5.1-0.4c2.3-0.7,3.8-2.4,4.7-5.2c1.5-4.7,1.5-9.8,1.4-14.7l0-0.7c0-2.7-0.1-5.3-0.2-8
			l-0.1-4.1c-0.1-0.3,0.1-0.7,0.4-0.8c0.3-0.1,0.7,0.1,0.8,0.4c0,0.1,0.1,0.2,0.1,0.3l0.1,4c0.1,2.7,0.2,5.3,0.2,8l0,0.7
			c0.1,5,0.2,10.2-1.4,15.1c-1.1,3.2-2.9,5.2-5.6,6C120.4,237.8,119.1,238,117.7,238z"/>
	</g>
	<g>
		<path class="st1" d="M100.4,212.7c-0.2,0-0.4-0.1-0.6-0.3c-0.2-0.3,0-0.7,0.3-0.9c13.3-6.9,15.5-19.8,15.6-19.9
			c0-0.2,0.2-0.4,0.4-0.5c0.2-0.1,0.4-0.1,0.6,0.1c0.4,0.3,9.6,7.1,11.4,12.1c0.1,0.3-0.1,0.7-0.4,0.8c-0.3,0.1-0.7-0.1-0.8-0.4
			c-1.3-3.8-7.9-9.1-10.1-10.9c-0.8,3.3-4.4,13.8-16,19.8C100.6,212.6,100.5,212.7,100.4,212.7z"/>
	</g>
	<path class="st1" d="M110.9,210.2c0.5-0.1,0.8,0.1,1,2c0.2,2-0.4,2.4-0.8,2.4c-0.5,0-0.9-0.6-0.9-2.1
		C110.2,211,110.3,210.3,110.9,210.2z"/>
	<path class="st1" d="M125.6,209.7c0.5-0.1,0.9,0.1,1.1,1.9c0.2,2-0.3,2.4-0.7,2.4c-0.5,0-0.9-0.6-1-2.1
		C124.9,210.5,124.9,209.8,125.6,209.7z"/>
	<g>
		<path class="st1" d="M127.4,206c-0.1,0-0.3-0.1-0.4-0.2c-0.7-0.6-1.6-1.1-3.7-0.5c-0.3,0.1-0.7-0.1-0.8-0.5
			c-0.1-0.3,0.1-0.7,0.5-0.8c2.7-0.7,4.1,0.1,4.9,0.8c0.3,0.2,0.3,0.6,0.1,0.9C127.8,205.9,127.6,206,127.4,206z"/>
	</g>
	<g>
		<path class="st1" d="M108.7,206.4c-0.2,0-0.4-0.1-0.5-0.2c-0.2-0.3-0.2-0.7,0.1-0.9c2.6-2.2,6.1-1.2,6.2-1.2
			c0.3,0.1,0.5,0.5,0.4,0.8c-0.1,0.3-0.5,0.5-0.8,0.4c0,0-2.9-0.8-5,0.9C109,206.4,108.9,206.4,108.7,206.4z"/>
	</g>
	<g>
		<path class="st1" d="M97.4,225.2c-0.2,0-0.3,0-0.5,0c-1.9-0.1-3.7-1-5-2.4c-1.3-1.5-1.9-3.3-1.8-5.3c0.1-1.9,1-3.7,2.4-5
			c1.5-1.3,3.3-1.9,5.3-1.8c1.5,0.1,2.8,0.6,4,1.5c0.3,0.2,0.3,0.6,0.1,0.9c-0.2,0.3-0.6,0.3-0.9,0.1c-0.9-0.7-2.1-1.2-3.3-1.2
			c-1.6-0.1-3.1,0.4-4.3,1.5c-1.2,1.1-1.9,2.5-2,4.1c-0.1,1.6,0.4,3.1,1.5,4.3c1.1,1.2,2.5,1.9,4.1,2c1.1,0.1,2.2-0.2,3.1-0.7
			c0.3-0.2,0.7,0,0.9,0.3c0.2,0.3,0,0.7-0.3,0.9C99.7,224.9,98.6,225.2,97.4,225.2z"/>
	</g>
	<g>
		<path class="st1" d="M95.9,221.9c-0.2,0-0.4-0.1-0.5-0.2c-0.2-0.3-0.2-0.7,0.1-0.9l3.8-2.9l-4.3-3.2c-0.3-0.2-0.3-0.6-0.1-0.9
			c0.2-0.3,0.6-0.3,0.9-0.1l4.9,3.7c0.2,0.1,0.3,0.3,0.3,0.5c0,0.2-0.1,0.4-0.2,0.5l-4.5,3.5C96.2,221.9,96.1,221.9,95.9,221.9z"/>
	</g>
	<g>
		<path class="st1" d="M114.2,263.1c-0.1,0-0.3,0-0.4-0.1l-14.2-11c-0.3-0.2-0.3-0.6-0.1-0.9c0.2-0.3,0.6-0.3,0.9-0.1l13.3,10.3
			l2.3-13.3l0.6-10.6c0-0.3,0.3-0.6,0.6-0.6c0.4,0,0.7,0.3,0.6,0.7l-0.6,10.7l-2.5,14.4c0,0.2-0.2,0.4-0.4,0.5
			C114.4,263.1,114.3,263.1,114.2,263.1z"/>
	</g>
	<g>
		<path class="st1" d="M124.1,249.6c-0.1,0-0.3,0-0.4-0.1c-0.3-0.2-0.4-0.6-0.2-0.9c4.2-5.9-1.2-11.6-1.4-11.9
			c-0.2-0.3-0.2-0.7,0-0.9c0.3-0.2,0.7-0.2,0.9,0c0.1,0.1,6.4,6.7,1.5,13.5C124.5,249.5,124.3,249.6,124.1,249.6z"/>
	</g>
	<g>
		<path class="st1" d="M96.6,252.2c-1,0-1.6-0.1-1.6-0.1c-0.3-0.1-0.6-0.4-0.5-0.7c0.1-0.3,0.4-0.6,0.7-0.5
			c0.4,0.1,10.1,1.6,12.6-9.1c2.4-10.8-8.7-16.9-8.8-16.9c-0.3-0.2-0.4-0.6-0.3-0.9c0.2-0.3,0.6-0.4,0.9-0.3
			c0.1,0.1,12.1,6.6,9.4,18.3C107,251.2,99.9,252.2,96.6,252.2z"/>
	</g>
	<g>
		<path class="st1" d="M44.2,413.6c-0.3,0-0.6-0.3-0.6-0.6c-0.4-8.8,0-28.5,0-28.7c0-0.4,0.3-0.6,0.6-0.6c0.4,0,0.6,0.3,0.6,0.7
			c0,0.2-0.4,19.9,0,28.6C44.8,413.2,44.5,413.5,44.2,413.6C44.2,413.6,44.2,413.6,44.2,413.6z"/>
	</g>
	<g>
		<path class="st1" d="M69.6,340.6c-0.1,0-0.2,0-0.3-0.1c-0.3-0.2-0.4-0.5-0.3-0.9c10.4-20.7,11.8-54.1,11.8-54.4
			c0-0.3,0.3-0.6,0.6-0.6c0.4,0,0.6,0.3,0.6,0.7c0,0.3-1.4,34-11.9,55C70,340.5,69.8,340.6,69.6,340.6z"/>
	</g>
	<g>
		<path class="st1" d="M122.7,223c-0.2,0-0.4-0.1-0.5-0.3c-0.2-0.3-0.1-0.7,0.2-0.9c0.8-0.6,2.4-2.4,2.6-3.6c0-0.3-0.1-0.4-0.1-0.5
			c-0.3-0.4-1.6,0.1-2.2,0.4c-0.7,0.3-1.2,0.5-1.6,0.3c-0.2-0.1-0.4-0.3-0.4-0.5c-0.2-0.6-1-6.6-1.1-7.8c0-0.3,0.2-0.7,0.5-0.7
			c0.3,0,0.7,0.2,0.7,0.5c0.3,2.3,0.8,5.8,1,7.1c0.1-0.1,0.3-0.1,0.4-0.2c1.1-0.5,2.7-1.2,3.7-0.1c0.2,0.3,0.5,0.7,0.4,1.5
			c-0.2,1.7-2.1,3.8-3.1,4.5C122.9,223,122.8,223,122.7,223z"/>
	</g>
	<g>
		<path class="st1" d="M117.2,227.7c-1,0-1.9-0.3-2.6-0.8c-1.9-1.3-2.2-3.9-2.2-4c0-0.4,0.2-0.7,0.6-0.7c0.3,0,0.7,0.2,0.7,0.6
			c0,0,0.2,2.1,1.7,3.1c0.9,0.6,2,0.7,3.5,0.3c0.3-0.1,0.7,0.1,0.8,0.4c0.1,0.3-0.1,0.7-0.4,0.8
			C118.4,227.6,117.8,227.7,117.2,227.7z"/>
	</g>
	<g>
		<path class="st1" d="M297.2,271.5c-0.6,0-1.2-0.1-1.9-0.3c-0.3-0.1-0.5-0.4-0.4-0.8c0.1-0.3,0.4-0.5,0.8-0.4
			c1.4,0.4,2.6,0.3,3.5-0.3c1.5-1,1.7-3.1,1.7-3.1c0-0.3,0.3-0.6,0.7-0.6c0.3,0,0.6,0.3,0.6,0.7c0,0.1-0.3,2.7-2.2,4
			C299.1,271.3,298.2,271.5,297.2,271.5z"/>
	</g>
	<g>
		<path d="M111.3,187.4c-0.1,0-0.2,0-0.3-0.1c0,0-4.4-2.5-6.9-3.1c-0.3-0.1-0.6-0.4-0.5-0.8c0.1-0.3,0.4-0.6,0.8-0.5
			c2.6,0.6,7,3.1,7.2,3.2c0.3,0.2,0.4,0.6,0.2,0.9C111.7,187.3,111.5,187.4,111.3,187.4z"/>
	</g>
	<g>
		<g>
			<g>
				<path class="st1" d="M271.9,393c-0.2,0-0.3-0.1-0.4-0.2c-0.2-0.2-0.2-0.6,0-0.9l20.3-20.3c0.1-0.1,0.3-0.2,0.5-0.2
					c0.2,0,0.3,0.1,0.4,0.2l5.6,5.5c0.1,0.1,0.2,0.3,0.2,0.5c0,0.2-0.1,0.3-0.2,0.4L284.3,392c-0.2,0.2-0.6,0.2-0.9,0
					c-0.2-0.2-0.2-0.7,0-0.9l13.5-13.5l-4.7-4.7l-19.8,19.8C272.2,392.9,272,393,271.9,393z"/>
			</g>
			<g>
				<path d="M297.7,378.3c-0.2,0-0.3-0.1-0.4-0.2c-0.2-0.2-0.2-0.7,0-0.9l2.3-2.3l-4.7-4.7l-2.3,2.3c-0.2,0.2-0.7,0.2-0.9,0
					c-0.2-0.2-0.2-0.7,0-0.9l2.7-2.7c0.1-0.1,0.3-0.2,0.5-0.2c0.2,0,0.3,0.1,0.4,0.2l5.6,5.6c0.1,0.1,0.2,0.3,0.2,0.4
					c0,0.2-0.1,0.3-0.2,0.4l-2.7,2.7C298,378.2,297.9,378.3,297.7,378.3z"/>
			</g>
			<g>
				<path d="M258.6,411.8c-0.2,0-0.3-0.1-0.4-0.2c-0.2-0.2-0.2-0.4-0.1-0.7l3.6-9.7c0.1-0.3,0.5-0.5,0.8-0.4
					c0.3,0.1,0.5,0.5,0.4,0.8l-3.1,8.4l7.6-2.8c0.3-0.1,0.7,0,0.8,0.4c0.1,0.3,0,0.7-0.4,0.8l-8.9,3.3
					C258.8,411.8,258.7,411.8,258.6,411.8z"/>
			</g>
		</g>
		<g>
			<path class="st1" d="M272.7,404.1c-5.1,0-7.9-1.1-9.4-2.1c-1.5-1-2.4-2.2-2.6-3.6c-0.8-4.6,5.7-6.1,5.9-6.2c0.1,0,0.1,0,0.2,0
				c0.2,0,17.1,0.4,22.8-2.8c0.3-0.2,0.7-0.1,0.9,0.2c0.2,0.3,0.1,0.7-0.2,0.9c-5.8,3.3-21.8,3-23.3,3c-0.7,0.2-5.4,1.6-4.9,4.7
				c0.2,1,0.9,2,2.1,2.7c1.9,1.2,8.1,3.7,23.2-0.3c0.4-0.1,0.7,0.1,0.8,0.4c0.1,0.3-0.1,0.7-0.4,0.8
				C281.2,403.5,276.4,404.1,272.7,404.1z"/>
		</g>
		<g>
			<path d="M281.2,411c-5.4,0-12-0.7-16-3.9c-2-1.6-3.1-3.8-3.3-6.4c0-0.3,0.2-0.7,0.6-0.7c0.4,0,0.7,0.2,0.7,0.6
				c0.1,2.2,1.1,4.1,2.8,5.5c6.8,5.5,23.1,3.1,23.2,3.1c0.4-0.1,0.7,0.2,0.7,0.5c0.1,0.3-0.2,0.7-0.5,0.7
				C289.2,410.5,285.7,411,281.2,411z"/>
		</g>
		<g>
			<path d="M265.5,393.8c-0.1,0-0.2,0-0.3-0.1c-0.3-0.2-0.4-0.6-0.2-0.9c0.2-0.3,4.5-7.1,8.2-9.8c3.8-2.7,10.6-4.3,10.8-4.3
				c0.4-0.1,0.7,0.1,0.8,0.5c0.1,0.3-0.1,0.7-0.5,0.8c-0.1,0-6.8,1.5-10.4,4.1c-3.5,2.6-7.9,9.4-7.9,9.5
				C266,393.7,265.8,393.8,265.5,393.8z"/>
		</g>
		<g>
			<path d="M292.3,416.7c-7.7,0-16.4-1.7-23.1-7.5c-0.3-0.2-0.3-0.6-0.1-0.9c0.2-0.3,0.6-0.3,0.9-0.1c14.9,13.1,40.4,4.5,40.7,4.4
				c0.3-0.1,0.7,0.1,0.8,0.4c0.1,0.3-0.1,0.7-0.4,0.8C310.9,413.8,302.4,416.7,292.3,416.7z"/>
		</g>
	</g>
	<path class="st1" d="M305.4,252.5c-0.5-0.1-0.8,0.2-1,2c-0.1,2,0.4,2.4,0.9,2.4c0.5,0,0.9-0.7,0.8-2.1
		C306.2,253.3,306.1,252.6,305.4,252.5z"/>
	<g>
		<path class="st1" d="M319.4,266.5c-1.2,0-2.5-0.3-3.5-0.9c-0.3-0.2-0.4-0.6-0.2-0.9c0.2-0.3,0.6-0.4,0.9-0.2
			c0.9,0.5,2,0.8,3.1,0.7c3.3-0.1,5.9-2.9,5.8-6.2c-0.1-1.6-0.7-3.1-1.9-4.2c-1.2-1.1-2.7-1.6-4.3-1.6c-1.2,0-2.3,0.4-3.3,1.1
			c-0.3,0.2-0.7,0.1-0.9-0.1c-0.2-0.3-0.1-0.7,0.1-0.9c1.2-0.9,2.6-1.3,4-1.4c1.9-0.1,3.8,0.6,5.2,2c1.4,1.3,2.2,3.1,2.3,5.1
			c0.1,4-3,7.4-7,7.5C319.5,266.5,319.4,266.5,319.4,266.5z"/>
	</g>
	<g>
		<path class="st1" d="M320.7,263.3c-0.1,0-0.3,0-0.4-0.1l-4.4-3.6c-0.2-0.1-0.2-0.3-0.2-0.5c0-0.2,0.1-0.4,0.3-0.5l5-3.5
			c0.3-0.2,0.7-0.1,0.9,0.2c0.2,0.3,0.1,0.7-0.2,0.9l-4.4,3l3.7,3.1c0.3,0.2,0.3,0.6,0.1,0.9C321.1,263.2,320.9,263.3,320.7,263.3z"
			/>
	</g>
	<g>
		<path d="M299.8,304.8c-0.5,0-0.9,0-1.4-0.2c-1.7-0.5-2.7-1.9-2.7-3.7c0-3.2,0.9-6.4,1.8-9.5l0.3-1.2l-0.6-10.6
			c0-0.3,0.2-0.6,0.6-0.7c0.4-0.1,0.7,0.2,0.7,0.6l0.6,10.7c0,0.1,0,0.1,0,0.2l-0.4,1.3c-0.9,3-1.8,6.1-1.7,9.2
			c0,1.3,0.7,2.2,1.8,2.5c0.8,0.2,1.7,0.2,3-0.2c4.6-1.3,8.7-4.5,12.9-10.1c0.2-0.3,0.5-0.6,0.7-0.9c1.1-1.4,2.4-3,2.4-4.5v-21.9
			c0-0.4,0.3-0.6,0.6-0.6s0.6,0.3,0.6,0.6v21.9c0,1.9-1.5,3.8-2.7,5.3c-0.2,0.3-0.5,0.6-0.7,0.9c-4.4,5.8-8.7,9.2-13.6,10.5
			C301.5,304.7,300.7,304.8,299.8,304.8z"/>
	</g>
	<g>
		<g>
			<path class="st1" d="M170.8,305.3c-0.2,0-0.5,0-0.7,0c-4.7-0.2-9.3-2.6-12.8-6.6c-1.3-1.5-3.5-4-3.3-6.8c0.1-1.3,0.9-2.7,2.2-3.7
				c1.2-0.9,2.7-1.4,4-1.1c0.3,0.1,0.6,0.4,0.5,0.7c-0.1,0.3-0.4,0.6-0.7,0.5c-1-0.2-2,0.2-3,0.9c-1,0.7-1.6,1.8-1.7,2.8
				c-0.2,2.1,1.4,4,2.9,5.9c3.3,3.8,7.5,6,11.9,6.2c4.4,0.2,8.5-1.5,12.1-4.9c7.2-6.9,9.7-14.1,7.2-20.8c-2.2-5.9-3.4-6.9-3.4-6.9
				c-0.3-0.2-0.3-0.6-0.1-0.9c0.2-0.3,0.6-0.4,0.9-0.2c0.3,0.2,1.6,1.3,3.9,7.5c1.8,5,2,13-7.5,22.1
				C179.4,303.5,175.2,305.3,170.8,305.3z"/>
		</g>
		<g>
			<path class="st1" d="M179.1,291.1c-0.1,0-0.2,0-0.3-0.1c-3.6-2.2-9.4-6.1-10.9-7.6l-0.3-0.3c-1-1-2.5-2.6-2.3-4.4
				c0.2-2,1.3-3.8,2.9-4.8c1.3-0.8,2.9-1.1,4.8-0.7c1.6,0.3,2.7,1.3,3.8,2.3c0.2,0.2,0.5,0.4,0.7,0.7c3.4,2.9,5.6,4.3,5.6,4.3
				c0.3,0.2,0.4,0.6,0.2,0.9c-0.2,0.3-0.6,0.4-0.9,0.2c-0.1-0.1-2.3-1.5-5.7-4.4c-0.3-0.2-0.5-0.5-0.8-0.7c-1-0.9-1.9-1.7-3.2-2
				c-1.6-0.3-2.9-0.1-3.9,0.6c-1.3,0.8-2.1,2.2-2.3,3.8c-0.1,1.2,1.1,2.5,1.9,3.3l0.3,0.3c1.3,1.4,7.1,5.3,10.6,7.4
				c0.3,0.2,0.4,0.6,0.2,0.9C179.6,291,179.4,291.1,179.1,291.1z"/>
		</g>
		<g>
			<path class="st1" d="M173,299.2c-0.1,0-0.2,0-0.3-0.1c-3.4-2.2-8.1-5.5-11.5-8.8c-2.3-2.3-3.6-6-0.8-8.9c1.3-1.4,3.6-2.2,5.8-2
				c0.3,0,0.6,0.3,0.6,0.7c0,0.4-0.4,0.6-0.7,0.6c-1.8-0.1-3.7,0.5-4.8,1.6c-2.2,2.3-1.1,5.3,0.8,7.2c3.3,3.2,7.9,6.5,11.3,8.6
				c0.3,0.2,0.4,0.6,0.2,0.9C173.4,299.1,173.2,299.2,173,299.2z"/>
		</g>
	</g>
	<g>
		<path class="st1" d="M217.5,388.8c-0.2,0-0.4-0.1-0.6-0.3c-0.2-0.3-0.1-0.7,0.3-0.9c14.9-8.2,18-22,21.1-36.7
			c1.4-6.4,2.8-13,5.3-19.1c11.1-27.5,31.6-40.9,42-42.9c4.4-0.8,8.7-1.6,12.8-1.7c0.4,0,0.6,0.3,0.7,0.6c0,0.4-0.3,0.6-0.6,0.7
			c-4.1,0.1-8.3,0.9-12.6,1.7c-10.1,1.9-30.1,15.1-41,42.1c-2.4,6.1-3.9,12.6-5.2,18.9c-3.2,15-6.3,29.1-21.8,37.5
			C217.7,388.7,217.6,388.8,217.5,388.8z"/>
	</g>
	<g>
		<path class="st1" d="M264.8,393.8c-0.3,0-0.6-0.2-0.6-0.5c-7.7-40.5,2.6-71.3,2.7-71.6c0.1-0.3,0.5-0.5,0.8-0.4
			c0.3,0.1,0.5,0.5,0.4,0.8c-0.1,0.3-10.4,30.8-2.7,70.9c0.1,0.3-0.2,0.7-0.5,0.7C264.9,393.8,264.8,393.8,264.8,393.8z"/>
	</g>
	<g>
		<path class="st1" d="M370,400.6c-0.1,0-0.3-0.1-0.4-0.2c-20.3-17.8-68.7-20.7-69.2-20.7c-0.4,0-0.6-0.3-0.6-0.7
			c0-0.4,0.3-0.6,0.7-0.6c0.5,0,49.3,3,69.9,21c0.3,0.2,0.3,0.6,0.1,0.9C370.3,400.5,370.1,400.6,370,400.6z"/>
	</g>
	<g>
		<path class="st1" d="M384.7,413.1c-0.1,0-0.2,0-0.3-0.1c-0.3-0.2-0.4-0.5-0.3-0.9c13.3-25.7,1.5-69.4-12-91.2
			c-3.2-5.1-6.7-10.5-10.9-15.4c-9.1-10.6-23.7-16.6-42.5-17.4c-0.4,0-0.6-0.3-0.6-0.7c0-0.3,0.3-0.6,0.6-0.6
			c19.1,0.8,34.1,6.9,43.4,17.8c4.2,4.9,7.7,10.4,11,15.5c13.7,22,25.6,66.3,12.1,92.4C385.2,412.9,384.9,413.1,384.7,413.1z"/>
	</g>
	<g>
		<path class="st1" d="M297.6,280.1c-1.4,0-2.6-0.2-3.7-0.5c-2.7-0.8-4.5-2.8-5.6-6c-1.6-4.9-1.5-10.1-1.4-15.1l0-0.7
			c0-0.9,0.3-15.4,0.4-15.6c0.1-0.3,0.4-0.6,0.8-0.5c0.3,0.1,0.6,0.4,0.5,0.8c0,0.3-0.3,11.7-0.4,15.4l0,0.7
			c-0.1,4.9-0.2,10,1.4,14.7c0.9,2.8,2.5,4.5,4.7,5.2c1.4,0.4,3,0.6,5.1,0.4c2.1-0.2,5.2-0.5,7.3-1c0.4-0.1,0.7,0.2,0.7,0.5
			c0.1,0.3-0.2,0.7-0.5,0.7c-2.2,0.4-5.3,0.8-7.4,1C298.8,280,298.2,280.1,297.6,280.1z"/>
	</g>
	<path class="st1" d="M290.6,251.9c-0.5-0.1-0.9,0.1-1,1.9c-0.2,2,0.3,2.4,0.8,2.4c0.5,0,0.9-0.6,0.9-2.1
		C291.3,252.7,291.2,252,290.6,251.9z"/>
	<g>
		<path class="st1" d="M287.9,248.1c-0.2,0-0.4-0.1-0.5-0.2c-0.2-0.3-0.2-0.7,0.1-0.9c0.8-0.7,2.2-1.5,4.9-0.8
			c0.3,0.1,0.5,0.4,0.5,0.8c-0.1,0.3-0.4,0.5-0.8,0.5c-2.1-0.5-3.1,0-3.7,0.5C288.1,248.1,288,248.1,287.9,248.1z"/>
	</g>
	<g>
		<path class="st1" d="M344.1,387.3c-0.4,0-0.7-0.4-0.6-0.7c2.2-22.1-7.5-58.7-7.6-59.1c-0.1-0.3,0.1-0.7,0.5-0.8
			c0.4-0.1,0.7,0.1,0.8,0.5c0.1,0.4,9.8,37.2,7.6,59.5C344.7,387.1,344.5,387.3,344.1,387.3z"/>
	</g>
	<g>
		<path class="st1" d="M310.9,413.8c-0.4,0-0.6-0.3-0.6-0.6c0-0.4,0.3-0.6,0.6-0.6l133.2-0.3c0.4,0,0.6,0.3,0.6,0.6
			c0,0.4-0.3,0.6-0.6,0.6L310.9,413.8C310.9,413.8,310.9,413.8,310.9,413.8z"/>
	</g>
	<g>
		<path class="st1" d="M275.8,413.6h-49.5c-0.4,0-0.6-0.3-0.6-0.6c0-0.4,0.3-0.6,0.6-0.6h49.5c0.3,0,0.6,0.3,0.6,0.6
			C276.4,413.3,276.1,413.6,275.8,413.6z"/>
	</g>
	<g>
		<path class="st1" d="M79.9,413.6H0.6c-0.4,0-0.6-0.3-0.6-0.6c0-0.4,0.3-0.6,0.6-0.6h79.3c0.4,0,0.6,0.3,0.6,0.6
			C80.5,413.3,80.3,413.6,79.9,413.6z"/>
	</g>
	<g>
		<path class="st1" d="M310.4,414c-0.2,0-0.4-0.1-0.5-0.3c-0.2-0.3-0.1-0.7,0.2-0.9c5.6-3.7,8.6-11,7.5-18.2
			c-1.5-9.4-11.3-16.2-21-14.7c-0.3,0.1-0.7-0.2-0.7-0.5c-0.1-0.3,0.2-0.7,0.5-0.7c10.4-1.6,20.8,5.7,22.4,15.7
			c1.2,7.6-2,15.4-8.1,19.4C310.7,413.9,310.5,414,310.4,414z"/>
	</g>
	<g>
		<g>
			<g>
				<path class="st1" d="M141.9,412.5c-1.2,0-2.6-0.3-3.9-1c-2.4-1.2-4.7-3.4-6.3-6.2c-1.6-2.8-2.4-5.8-2.2-8.5
					c0.2-2.8,1.3-5,3.3-6.1c1.9-1.1,4.4-1,6.9,0.2c2.4,1.2,4.7,3.4,6.3,6.2c1.6,2.8,2.4,5.8,2.2,8.5c-0.2,2.8-1.3,5-3.3,6.1
					C144,412.3,142.9,412.5,141.9,412.5z M135.7,391.2c-0.9,0-1.7,0.2-2.4,0.6c-1.6,0.9-2.5,2.7-2.6,5.1c-0.1,2.5,0.6,5.3,2.1,7.8
					c1.5,2.6,3.5,4.6,5.7,5.7c2.1,1.1,4.2,1.2,5.7,0.3c1.6-0.9,2.5-2.7,2.6-5.1c0.1-2.5-0.6-5.3-2.1-7.8c-1.5-2.6-3.5-4.6-5.7-5.7
					C137.9,391.5,136.8,391.2,135.7,391.2z"/>
			</g>
			<g>
				<path class="st1" d="M213,455c-0.4,0-0.6-0.3-0.6-0.6s0.3-0.6,0.6-0.6c7.4,0,13.6-2.7,17.1-7.5c2.7-3.7,3.3-8.1,1.9-12.4
					L207.2,359c-2.1-6.3-7.9-10.5-14.6-10.5H88c-1.2,0-2.3,0.1-3.4,0.4c-0.3,0.1-0.7-0.1-0.8-0.5c-0.1-0.3,0.1-0.7,0.5-0.8
					c1.2-0.3,2.4-0.4,3.7-0.4h104.6c7.2,0,13.5,4.6,15.8,11.4l24.8,74.8c1.6,4.7,0.8,9.6-2.1,13.6C227.4,452.1,220.8,455,213,455z"
					/>
			</g>
			<g>
				<path class="st1" d="M210.3,455.3H105.7c-7.2,0-13.5-4.4-15.8-10.9l-24.8-71.6c-1.6-4.8-0.9-9.9,2-14c3.1-4.4,8.2-7,13.7-7
					h104.6c7.2,0,13.5,4.4,15.8,10.9l24.8,71.6c1.6,4.8,0.9,9.9-2,14C220.9,452.7,215.8,455.3,210.3,455.3z M70.1,383l21.1,60.9
					c2.1,6,7.9,10.1,14.6,10.1h104.6c5.1,0,9.8-2.4,12.7-6.4c2.7-3.8,3.4-8.5,1.9-12.8l-24.8-71.6c-2.1-6-7.9-10.1-14.6-10.1H80.9
					c-5.1,0-9.8,2.4-12.7,6.4c-2.7,3.8-3.4,8.5-1.9,12.8L70.1,383z"/>
			</g>
		</g>
		<g>
			<path class="st1" d="M75.3,354c-0.2,0-0.4-0.1-0.6-0.3c-0.2-0.3-0.1-0.7,0.2-0.9l9.2-5.2c0.3-0.2,0.7-0.1,0.9,0.2
				c0.2,0.3,0.1,0.7-0.2,0.9l-9.2,5.2C75.5,354,75.4,354,75.3,354z"/>
		</g>
	</g>
	<g>
		<path class="st1" d="M76,182.2c-0.2,0-0.5-0.1-0.6-0.4c0-0.1-1.2-2.6-2.6-7c-0.1-0.3,0.1-0.7,0.4-0.8c0.3-0.1,0.7,0.1,0.8,0.4
			c1.3,4.3,2.5,6.8,2.5,6.8c0.1,0.3,0,0.7-0.3,0.8C76.2,182.2,76.1,182.2,76,182.2z M71.6,168.3c-0.3,0-0.6-0.2-0.6-0.5
			c-0.5-2.4-1-4.8-1.3-7.2c0-0.3,0.2-0.7,0.5-0.7c0.3,0,0.7,0.2,0.7,0.5c0.3,2.4,0.8,4.8,1.3,7.2c0.1,0.3-0.1,0.7-0.5,0.8
			C71.7,168.3,71.6,168.3,71.6,168.3z M69.5,153.8c-0.3,0-0.6-0.3-0.6-0.6c-0.2-2.3-0.2-4.6-0.2-6.9l0-0.4c0-0.4,0.3-0.6,0.6-0.6
			c0.4,0,0.6,0.3,0.6,0.6l0,0.4c0,2.3,0.1,4.6,0.2,6.8C70.2,153.5,69.9,153.8,69.5,153.8C69.5,153.8,69.5,153.8,69.5,153.8z
			 M69.6,139.2c-0.4,0-0.7-0.3-0.6-0.7c0.2-2.4,0.5-4.9,0.8-7.3c0.1-0.3,0.4-0.6,0.7-0.5c0.3,0.1,0.6,0.4,0.5,0.7
			c-0.4,2.4-0.6,4.8-0.8,7.2C70.2,138.9,69.9,139.2,69.6,139.2z M71.8,124.7c0,0-0.1,0-0.1,0c-0.3-0.1-0.6-0.4-0.5-0.8
			c0.5-2.4,1.2-4.8,1.9-7.1c0.1-0.3,0.5-0.5,0.8-0.4c0.3,0.1,0.5,0.5,0.4,0.8c-0.7,2.3-1.3,4.7-1.9,7
			C72.3,124.5,72.1,124.7,71.8,124.7z M76.1,110.7c-0.1,0-0.2,0-0.2,0c-0.3-0.1-0.5-0.5-0.4-0.8c0.9-2.3,1.9-4.5,2.9-6.8
			c0.1-0.3,0.5-0.5,0.8-0.3c0.3,0.2,0.5,0.5,0.3,0.8c-1,2.2-2,4.4-2.9,6.7C76.6,110.6,76.3,110.7,76.1,110.7z M82.3,97.5
			c-0.1,0-0.2,0-0.3-0.1c-0.3-0.2-0.4-0.6-0.2-0.9c1.2-2.1,2.4-4.2,3.8-6.3c0.2-0.3,0.6-0.4,0.9-0.2c0.3,0.2,0.4,0.6,0.2,0.9
			c-1.3,2-2.6,4.1-3.7,6.2C82.8,97.4,82.5,97.5,82.3,97.5z M90.2,85.2c-0.1,0-0.3,0-0.4-0.1c-0.3-0.2-0.3-0.6-0.1-0.9
			c1.4-2,2.9-3.9,4.5-5.8c0.2-0.3,0.6-0.3,0.9-0.1c0.3,0.2,0.3,0.6,0.1,0.9c-1.5,1.9-3,3.8-4.5,5.8C90.6,85.1,90.4,85.2,90.2,85.2z
			 M99.5,73.9c-0.2,0-0.3-0.1-0.4-0.2c-0.3-0.2-0.3-0.6,0-0.9c1.6-1.8,3.3-3.6,5.1-5.3c0.2-0.2,0.7-0.2,0.9,0c0.2,0.3,0.2,0.7,0,0.9
			c-1.7,1.7-3.4,3.5-5,5.2C99.8,73.8,99.7,73.9,99.5,73.9z"/>
	</g>
	<g>
		<path d="M247.8,443.7H233c-0.4,0-0.6-0.3-0.6-0.6c0-0.3,0.3-0.6,0.6-0.6h14.7l40.7-24h-58.7l-1.1,0.5c-0.3,0.1-0.7,0-0.8-0.3
			c-0.1-0.3,0-0.7,0.3-0.8l1.3-0.6c0.1,0,0.2-0.1,0.3-0.1h61.1c0.3,0,0.5,0.2,0.6,0.5c0.1,0.3,0,0.6-0.3,0.7l-42.9,25.3
			C248.1,443.6,247.9,443.7,247.8,443.7z"/>
	</g>
	<g>
		<path class="st1" d="M309.8,250.8c-0.2,0-0.4-0.1-0.5-0.3c-2.7-4.5-7.5-2.9-7.7-2.9c-0.3,0.1-0.7-0.1-0.8-0.4
			c-0.1-0.3,0.1-0.7,0.4-0.8c0.1,0,5.9-1.9,9.2,3.4c0.2,0.3,0.1,0.7-0.2,0.9C310,250.8,309.9,250.8,309.8,250.8z"/>
	</g>
	<g>
		<path class="st1" d="M194.6,348.5c-0.3,0-0.6-0.3-0.6-0.6c0-0.1-0.2-6.3-0.2-13.5c0-15-4.4-45-4.4-45.3c0-0.3,0.2-0.7,0.5-0.7
			c0.3-0.1,0.7,0.2,0.7,0.5c0,0.3,4.4,30.4,4.4,45.5c0,7.2,0.2,13.4,0.2,13.4C195.2,348.1,195,348.4,194.6,348.5
			C194.6,348.5,194.6,348.5,194.6,348.5z"/>
	</g>
	<g>
		<g>
			<path class="st1" d="M246.1,216c-10.7,0-21.2-3.2-30.2-9.5c-11.7-8.1-19.6-20.3-22.1-34.3c-2.6-14,0.5-28.2,8.6-39.9
				c16.7-24.2,50-30.2,74.2-13.5c24.2,16.7,30.2,50,13.5,74.2c-8.1,11.7-20.3,19.6-34.3,22.1C252.5,215.7,249.3,216,246.1,216z
				 M246.2,110.7c-16.5,0-32.8,7.8-42.9,22.4c-7.9,11.4-10.9,25.3-8.4,38.9c2.5,13.7,10.2,25.6,21.6,33.5
				c11.4,7.9,25.3,10.9,38.9,8.4c13.7-2.5,25.6-10.2,33.5-21.6c16.3-23.6,10.4-56.1-13.2-72.4C266.8,113.7,256.5,110.7,246.2,110.7z
				"/>
		</g>
		<g>
			<path class="st1" d="M246.1,226.9c-12.6,0-25.3-3.7-36.4-11.4c-14.1-9.8-23.6-24.4-26.6-41.3c-3.1-16.9,0.6-33.9,10.4-48
				c9.8-14.1,24.4-23.6,41.3-26.6c16.9-3.1,33.9,0.6,48,10.4c29.1,20.1,36.4,60.2,16.3,89.3C286.5,217.2,266.5,226.9,246.1,226.9z
				 M210.4,214.4c28.5,19.7,67.8,12.6,87.5-16c19.7-28.5,12.6-67.8-16-87.5c-13.8-9.6-30.5-13.2-47.1-10.1
				c-16.5,3-30.9,12.3-40.5,26.1c-9.6,13.8-13.2,30.5-10.2,47.1C187.3,190.5,196.6,204.9,210.4,214.4L210.4,214.4z"/>
		</g>
		<g>
			<path class="st1" d="M194.2,258.8c-2.5,0-7.1-2.3-11-5.1c-2.7-1.9-5.1-3.9-6.7-5.8c-1.8-2.1-2.4-3.6-1.8-4.6
				c1.3-1.8,5.7,0.2,8.2,1.6c0.3,0.2,0.4,0.6,0.3,0.9c-0.2,0.3-0.6,0.4-0.9,0.3c-4.4-2.4-6.3-2.4-6.6-2c-0.1,0.2,0,1.1,1.7,3
				c1.5,1.8,3.8,3.7,6.5,5.6c6.2,4.3,10.4,5.3,10.9,4.7c0.3-0.4-0.5-2.3-4.3-5.6c-0.3-0.2-0.3-0.6-0.1-0.9c0.2-0.3,0.6-0.3,0.9-0.1
				c2.2,1.9,5.8,5.4,4.5,7.3C195.6,258.6,195,258.8,194.2,258.8z"/>
		</g>
		<g>
			<path class="st1" d="M189.1,254.1c-1.2,0-3.2-1.1-4.7-2.1c-0.8-0.5-4.6-3.3-3.6-4.8c0.2-0.3,0.6-0.4,0.9-0.2
				c0.3,0.2,0.3,0.5,0.2,0.8c0.1,0.4,1.1,1.7,3.2,3.1c2.1,1.4,3.6,1.9,4,1.9c0.2-0.2,0.6-0.2,0.8-0.1c0.3,0.2,0.4,0.6,0.2,0.9
				c-0.1,0.2-0.3,0.4-0.7,0.4C189.3,254.1,189.2,254.1,189.1,254.1z"/>
		</g>
		<g>
			<path class="st1" d="M181.4,248.2c-0.1,0-0.3,0-0.4-0.1c-0.3-0.2-0.4-0.6-0.2-0.9l24.8-35.5c0.2-0.3,0.6-0.4,0.9-0.2
				c0.3,0.2,0.4,0.6,0.2,0.9l-24.8,35.5C181.8,248.1,181.6,248.2,181.4,248.2z"/>
		</g>
		<g>
			<path class="st1" d="M189.6,253.9c-0.1,0-0.3,0-0.4-0.1c-0.3-0.2-0.4-0.6-0.2-0.9l24.8-35.6c0.2-0.3,0.6-0.4,0.9-0.2
				c0.3,0.2,0.4,0.6,0.2,0.9l-24.8,35.6C190,253.9,189.8,253.9,189.6,253.9z"/>
		</g>
		<g>
			<path class="st1" d="M133.4,304.9c-0.1,0-0.3,0-0.4-0.1c-0.3-0.2-0.4-0.6-0.2-0.9l41.8-60.4c0.2-0.3,0.6-0.4,0.9-0.2
				c0.3,0.2,0.4,0.6,0.2,0.9L134,304.6C133.8,304.8,133.6,304.9,133.4,304.9z"/>
		</g>
		<g>
			<path class="st1" d="M180.8,279.4c-0.1,0-0.3,0-0.4-0.1c-0.3-0.2-0.4-0.6-0.2-0.9l14.5-21c0.2-0.3,0.6-0.4,0.9-0.2
				c0.3,0.2,0.4,0.6,0.2,0.9l-14.5,21C181.2,279.3,181,279.4,180.8,279.4z"/>
		</g>
		<g>
			<path class="st1" d="M151.4,322c-0.1,0-0.3,0-0.4-0.1c-0.3-0.2-0.4-0.6-0.2-0.9l12.6-18.2c0.2-0.3,0.6-0.4,0.9-0.2
				c0.3,0.2,0.4,0.6,0.2,0.9l-12.6,18.2C151.8,321.9,151.6,322,151.4,322z"/>
		</g>
	</g>
	<g>
		<path class="st1" d="M336.7,290.6c-0.4,0-0.8,0-1.3,0c-0.3,0-0.6-0.3-0.6-0.7c0-0.3,0.3-0.6,0.7-0.6c1.8,0.1,3.5,0,4.9-0.4
			c1.7-0.5,3.1-1.3,4.1-2.4c1.2-1.3,1.9-3.1,2.3-5.3c0.4-2.6,0.1-5.2-0.8-7.5c-1.3-3.2-4-5.7-7.7-7.2c-2.1-0.8-8.1-1.6-8.2-1.6
			c-0.2,0-0.3-0.1-0.4-0.2c-0.1-0.1-0.1-0.3-0.1-0.5c0-0.2,0.6-3.9,0.8-4.9c0.2-1.3,0.5-2.6,0.8-3.9c1.5-6.5,3.1-13.9,0.1-18
			c-1.6-2.1-4.2-3.3-8.1-3.6c-0.2,0-0.3-0.1-0.4-0.2c-0.1-0.1-9.2-10.9-24.8-7.9c-5.9,1.1-11.3,5.5-13.1,10.6
			c-1.6,4.6-0.5,9.4,3.3,14c0.2,0.3,0.2,0.7-0.1,0.9c-0.3,0.2-0.7,0.2-0.9-0.1c-5.2-6.2-4.8-11.7-3.6-15.2c2-5.5,7.8-10.2,14.1-11.4
			c15.2-2.9,24.5,6.6,25.9,8.1c4.1,0.4,7,1.7,8.7,4.1c3.4,4.6,1.7,12.3,0.2,19.1c-0.3,1.3-0.6,2.6-0.8,3.9c-0.2,0.8-0.5,3.1-0.7,4.3
			c1.6,0.2,6,0.9,7.8,1.6c4.1,1.6,7,4.3,8.5,7.9c1,2.5,1.3,5.3,0.8,8.2c-0.4,2.5-1.3,4.5-2.6,6c-1.2,1.3-2.8,2.3-4.7,2.8
			C339.5,290.4,338.2,290.6,336.7,290.6z"/>
	</g>
	<g>
		<path class="st1" d="M284.1,290.4c-0.1,0-0.1,0-0.2,0c-2.3-0.6-4-2.1-5-4.4c-1.4-2.9-1.3-6.8,0.2-9.9c1.6-3.4,5.5-5.8,9.1-5.6
			c0.4,0,0.6,0.3,0.6,0.7c0,0.4-0.3,0.7-0.7,0.6c-0.1,0-0.2,0-0.3,0c-3,0-6.2,2.1-7.6,4.9c-1.3,2.7-1.3,6.2-0.2,8.8
			c0.6,1.3,1.8,3,4.2,3.7c0.3,0.1,0.5,0.4,0.4,0.8C284.6,290.2,284.4,290.4,284.1,290.4z"/>
	</g>
	<g>
		<path class="st1" d="M317,253.7c0,0-0.1,0-0.1,0c-1.8-0.3-3.2-1.3-4.1-2.7c-1.8-2.7-1.7-6.6-1.4-8.8c-2.2,1.4-7.1,3.9-14.2,3.5
			c-6.7-0.4-10.9-4.3-11.1-4.4c-0.3-0.2-0.3-0.6,0-0.9c0.2-0.3,0.6-0.3,0.9,0c0,0,4.1,3.7,10.3,4.1c9.3,0.5,14.6-4.1,14.6-4.1
			c0.2-0.2,0.5-0.2,0.7-0.1c0.2,0.1,0.4,0.4,0.3,0.7c0,0.1-1.2,6,1,9.4c0.8,1.2,1.9,1.9,3.3,2.2c0.3,0.1,0.6,0.4,0.5,0.7
			C317.5,253.5,317.3,253.7,317,253.7z"/>
	</g>
	<g>
		<path class="st1" d="M146.9,323c-4.7,0-9.4-2.8-13.9-8.3c-4-4.9-0.1-10.6,0-10.7c0.2-0.3,0.6-0.4,0.9-0.2c0.3,0.2,0.4,0.6,0.2,0.9
			c-0.1,0.2-3.4,5,0,9.1c5.7,7,11.5,9.3,17.2,6.9c0.3-0.1,0.7,0,0.8,0.3c0.1,0.3,0,0.7-0.3,0.8C150.1,322.7,148.5,323,146.9,323z"/>
	</g>
	<g>
		<path class="st1" d="M108.4,323.5c-0.2,0-0.4-0.1-0.5-0.3c-0.2-0.3-0.1-0.7,0.2-0.9c0.1,0,5.4-3.3,8.7-10.8
			c6.9-16,19.3-11.5,19.5-11.4c0.3,0.1,0.5,0.5,0.4,0.8c-0.1,0.3-0.5,0.5-0.8,0.4c-0.5-0.2-11.4-4.1-17.8,10.8
			c-3.4,7.9-8.9,11.3-9.2,11.4C108.6,323.4,108.5,323.5,108.4,323.5z"/>
	</g>
	<g>
		<path class="st1" d="M145.1,332.4c-3.7,0-7.8-1.5-11.6-4.4c-0.3-0.2-0.3-0.6-0.1-0.9c0.2-0.3,0.6-0.3,0.9-0.1
			c5.9,4.6,12.8,5.4,17.1,2.1c4.2-3.3,1-9.8,0.9-9.8c-0.2-0.3,0-0.7,0.3-0.9c0.3-0.2,0.7,0,0.9,0.3c0,0.1,3.7,7.5-1.3,11.4
			C150.3,331.7,147.8,332.4,145.1,332.4z"/>
	</g>
	<g>
		<path class="st1" d="M142.8,338.3c-6.2,0-12.9-4.3-13.2-4.5c-0.3-0.2-0.4-0.6-0.2-0.9c0.2-0.3,0.6-0.4,0.9-0.2
			c0.1,0.1,7.9,5.1,14.1,4.2c6.7-1,6.3-6.2,6.3-6.4c0-0.3,0.2-0.7,0.6-0.7c0.4,0,0.7,0.2,0.7,0.6c0,0.1,0.4,6.6-7.4,7.8
			C144,338.3,143.4,338.3,142.8,338.3z"/>
	</g>
	<g>
		<path class="st1" d="M138.6,342.4c-0.1,0-0.2,0-0.3,0c-2.2-0.1-4.9-1.1-7.3-2.8c-2.9-2.1-7.6,0.7-9.4,2c-0.3,0.2-0.7,0.1-0.9-0.2
			c-0.2-0.3-0.1-0.7,0.2-0.9c2.6-1.8,7.5-4.4,10.9-2c2.2,1.6,4.6,2.5,6.6,2.6c4.8,0.2,7-3.5,7.1-3.7c0.2-0.3,0.6-0.4,0.9-0.2
			c0.3,0.2,0.4,0.6,0.2,0.9C146.4,338.2,144,342.4,138.6,342.4z"/>
	</g>
	<g>
		<path class="st1" d="M150.5,347.7c-0.3,0-0.6-0.3-0.6-0.6c-0.3-3.4-0.7-8-1.1-11.6c0-0.4,0.2-0.7,0.6-0.7c0.3,0,0.7,0.2,0.7,0.6
			c0.4,3.6,0.8,8.2,1.1,11.6C151.2,347.3,150.9,347.6,150.5,347.7C150.6,347.7,150.5,347.7,150.5,347.7z"/>
	</g>
	<g>
		<path class="st1" d="M141.4,292.6c-0.4,0-0.6-0.3-0.6-0.6c0.2-11.8-0.8-16.8-0.8-16.9c-0.1-0.3,0.1-0.7,0.5-0.8
			c0.4-0.1,0.7,0.2,0.8,0.5c0,0.2,1.1,5.2,0.9,17.2C142,292.4,141.7,292.6,141.4,292.6z"/>
	</g>
	<g>
		<path class="st1" d="M293.5,267.3c-0.1,0-0.2,0-0.3-0.1c-0.5-0.3-4.6-2.6-3.9-5.2c0.3-1.2,1.2-1.7,2-2.2c0.8-0.5,1.5-0.9,1.9-1.9
			c0.9-1.9,0.7-6.9,0.5-8.6c0-0.3,0.2-0.7,0.6-0.7c0.3,0,0.7,0.2,0.7,0.6c0,0.3,0.6,6.6-0.6,9.2c-0.6,1.3-1.6,1.9-2.5,2.4
			c-0.8,0.5-1.3,0.8-1.5,1.4c-0.4,1.4,2.3,3.2,3.3,3.7c0.3,0.2,0.4,0.6,0.2,0.9C294,267.2,293.8,267.3,293.5,267.3z"/>
	</g>
	<g>
		<path class="st1" d="M317,235.9c-0.3,0-0.5-0.2-0.6-0.5c-0.1-0.3,0.1-0.7,0.4-0.8l5.1-1.6c0.3-0.1,0.7,0.1,0.8,0.4
			c0.1,0.3-0.1,0.7-0.4,0.8l-5.1,1.6C317.1,235.9,317,235.9,317,235.9z"/>
	</g>
	<g>
		<path d="M261.2,424.9H230c-0.4,0-0.6-0.3-0.6-0.6s0.3-0.6,0.6-0.6h31.2c0.4,0,0.6,0.3,0.6,0.6S261.5,424.9,261.2,424.9z"/>
	</g>
	<g>
		<path d="M247.9,433H232c-0.4,0-0.6-0.3-0.6-0.6s0.3-0.6,0.6-0.6h15.8c0.4,0,0.6,0.3,0.6,0.6S248.2,433,247.9,433z"/>
	</g>
	<g>
		<path class="st1" d="M117.7,67.4c-5.7,0-10.4-4.7-10.4-10.4c0-5.7,4.7-10.4,10.4-10.4c5.7,0,10.4,4.7,10.4,10.4
			C128.1,62.7,123.4,67.4,117.7,67.4z M117.7,47.9c-5,0-9.1,4.1-9.1,9.1c0,5,4.1,9.1,9.1,9.1c5,0,9.1-4.1,9.1-9.1
			C126.8,51.9,122.7,47.9,117.7,47.9z"/>
	</g>
</g>
<g id="Слой_11">
	<path class="st6" d="M236.6,183.3c1.3,0,2.5-0.5,3.4-1.4l22.7-22.2c1.8-1.9,1.8-4.9,0-6.7l-1.5-1.5c-0.9-0.9-2.1-1.4-3.4-1.4
		c-1.3,0-2.5,0.5-3.4,1.4l-17.8,17.3l-6.2-6.2c-0.9-0.9-2.1-1.4-3.4-1.4c-1.3,0-2.5,0.5-3.4,1.4l-1.5,1.5c-0.9,0.9-1.4,2.1-1.4,3.4
		c0,1.3,0.5,2.5,1.4,3.4l11,11C234.1,182.8,235.3,183.3,236.6,183.3z"/>
	<path class="st3" d="M236.6,178.3c1.3,0,2.5-0.5,3.4-1.4l22.7-22.2c1.8-1.9,1.8-4.9,0-6.7l-1.5-1.5c-0.9-0.9-2.1-1.4-3.4-1.4
		c-1.3,0-2.5,0.5-3.4,1.4l-17.8,17.3l-6.2-6.2c-0.9-0.9-2.1-1.4-3.4-1.4c-1.3,0-2.5,0.5-3.4,1.4l-1.5,1.5c-0.9,0.9-1.4,2.1-1.4,3.4
		c0,1.3,0.5,2.5,1.4,3.4l11,11C234.1,177.8,235.3,178.3,236.6,178.3z M227.1,157.9c0.8,0,1.6,0.3,2.2,0.9l6.7,6.7
		c0.3,0.3,0.8,0.3,1.2,0l18.4-17.9c1.2-1.2,3.2-1.2,4.3,0l1.5,1.5c1.2,1.2,1.2,3.1,0,4.3l-22.7,22.2c-1.2,1.2-3.2,1.2-4.3,0l-11-11
		c-0.6-0.6-0.9-1.3-0.9-2.2c0-0.8,0.3-1.6,0.9-2.2l1.5-1.5C225.5,158.2,226.2,157.9,227.1,157.9z"/>
</g>
</svg>
