<?xml version="1.0" encoding="utf-8"?>
<!-- Generator: Adobe Illustrator 22.0.1, SVG Export Plug-In . SVG Version: 6.00 Build 0)  -->
<svg version="1.0" xmlns="http://www.w3.org/2000/svg" xmlns:xlink="http://www.w3.org/1999/xlink" x="0px" y="0px" width="572.3px"
	 height="460.6px" viewBox="0 0 572.3 460.6" style="enable-background:new 0 0 572.3 460.6;" xml:space="preserve">
<style type="text/css">
	.st0{fill:#D8D3F4;}
	.st1{fill:#FFFFFF;}
	.st2{fill:#48484B;}
	.st3{fill:#9898EA;}
	.st4{fill:#EDA58A;}
	.st5{fill:#272728;}
	.st6{display:none;}
	.st7{display:inline;fill:#272728;}
</style>
<g id="Слой_17">
	<path class="st0" d="M129.2,422.1c195,93,375.1,4.8,425.3-126.8S542,87.9,445.2,112.6c-59.1,15-49.2,48.6-126.8,84.3
		c-60,27.6-84-66.1-152.5-85.4C-5.8,63.1-84.2,320.3,129.2,422.1z"/>
</g>
<g id="Слой_16">
	<path class="st1" d="M234.2,323.4c0,0,17.9-28.9,13.3-57.7c-4.6-28.7-21.3-45.8-24.3-49.2c-2.9-3.4-39-40.1-42.2-57.6
		c-3.1-17.5,2.9-34.1,8.3-49.3c5.4-15.2,29.3-47.8,29.3-47.8h176.6c0,0-31.8,21.8-37.7,51.8c-6,30-1.2,44.2,18.3,60.6
		c19.5,16.4,43.3,27.8,50.1,48.8c6.8,20.9-40.4,100.5-40.4,100.5H234.2z"/>
	<polygon class="st1" points="171,348 180.7,284 167.1,235.6 133.8,231.7 	"/>
	<path class="st2" d="M182,205.9c0,0,1.8,14,1.8,18.2c0,4.3,1.8,7.6-4.5,9c-6.3,1.5-17.5,2.7-21.6,2c-4.1-0.7-13-4-14.1-10.1
		c-1.1-6-1.4-9.2-1.4-9.2l-5.4-0.1c0,0-13-16.2-14.8-19.1c-1.9-2.9-3.2-3.5-2.8-5.7c0.5-2.2,2.4-10.9,3.6-14
		c1.3-3.1,1.9-6.2,4.5-7.4c2.6-1.2,16-5,18.7-6.4c2.7-1.4,3.9-5.6,5.5-7.6c1.6-2.1,5.2-4.5,9.2-4.7c4-0.3,12.8-0.2,18.4,4.3
		c5.7,4.5,9.4,11.6,10.3,17.7c0.8,6.1-4.6,11.5-4.6,11.5l-2.2,0.7L182,205.9z"/>
	<path class="st1" d="M179.2,203.2c0,0,1.3,5.7-4.1,5.5c0,0-1.7-1.7-4.4-1.9c-2.7-0.2-4.9-0.3-7.1,0.6c-2.2,0.9-7.7,4.2-10.5,7.1
		l-0.5,0.4l-4.1-3.4c0,0-1.5-5.6-1.5-10.6c0-5,1.8-15.6,2.2-16.9c0.6-1.8,0.5-2.7,2.2-3c1.8-0.3,18.4-2,21.2-1.8
		c2.8,0.2,9.8,0.1,9.8,0.1v5.1c0,0,8-1.1,7.4,11c-0.7,13.2-8.5,10.3-8.5,10.3l-1.7-0.4L179.2,203.2z"/>
	<path class="st1" d="M141.5,206.6c0,0,2.7-4.6,2.6-9.4c-0.1-4.8-1.8-8.1-4.8-8.3c-3-0.2-10.5,0.3-10.7,8
		c-0.3,7.7,9.8,10.1,9.8,10.1s0.6,6.7-1.6,8.6l-3,14.1c0,0,15.5,14.5,23.5,13c8-1.5,8.1-8,8.1-8s-7.6,0.7-11.1-0.6
		c-3.4-1.3-8.7-4.7-10.4-8.4C142.3,222.2,141.5,206.6,141.5,206.6z"/>
	<path class="st1" d="M287.8,362.3l4.8,2.7c0,0,8.3-3.9,12.2-4.9c3.8-1,6.4,0.6,7.7,1.5c1.3,0.9,2.5,1,2.5,1s3.7-2.4,6.5-2.9
		c2.8-0.5,8.6,2.3,8.6,2.3l2.8-1.1c0,0,8.5,21.7,10.3,23.8l-10.7,5.4c0,0-2.2,6.3-9,9.1c-6.8,2.8-10.9,2.9-10.9,2.9
		s-7.6,1.8-9.7,0.8c-2.1-1-8.5-6.2-10.3-8.9c-1.8-2.7-3.1-6.1-3.1-6.1l-2.6-2.7l-7.4-3.2L287.8,362.3z"/>
	<path class="st1" d="M427.9,232.9c0,0-4.8,1.7-7.7,1.5c-2.8-0.2-3.4-4.3-3.4-4.3l-1.3-8.1c0,0-8.1,1.2-12.1,0
		c-4-1.2-7.3-4.1-8.2-12c-0.9-7.9-1.6-33.5-1.6-33.5l5-10.8c0,0,27.2,11.9,29.3,9.8c0,0,20.1,6.6,19.4,13c-0.7,6.4-5.2,11.4-5.8,13
		c-0.6,1.6,1.2,12.2,1.5,18.5C443.5,226.2,434.2,231.2,427.9,232.9z"/>
	<path class="st2" d="M165.4,235.2c0,0,3.9,20.7,4.9,37.4c1,16.7,1.8,58.2-0.6,72.3c0,0-6.8-32.2-9.3-44
		c-3-14.2-11.2-36.4-17.7-51.1c-6.5-14.6-8.9-19.7-8.9-19.7l-8.2,9.8c0,0-16.2,1.9-29.4,10.5c-13.1,8.6-23,21-25.3,37.9
		c-2.3,16.9,1.3,103.3,1.3,103.3H214l-1.5-28.2c0,0,14.1,16.5,61.3,31.4l17.7-41.9c0,0-37.6-17.2-49.3-26.5
		c-11.8-9.2-18.5-24.7-24.2-34.5c-5.6-9.7-14.1-27.4-28.9-41c-3.4-3.1-8.7-8.5-15-10.3l-6-5.6L165.4,235.2z"/>
	<path class="st3" d="M347,391.1c0,0-12.8-22.2-15.1-33.9l26.7-9.3c0,0-0.5-10.9,0-20.5c2.3-43.7,9.1-52.8,12.3-59.8
		c3.2-7,11.7-15.3,20-24.9c2.9-3.3,9.9-6.4,9.9-6.4s2,0.9,2.8,1.2c1,0.4,2.9-1.4,2.9-1.4s5.6-6.8,9.8-8c1.3,9.7,10.1,6,11.3,5.1
		c0,0,2.5-2.8,11-2.6c0,0-2.3,4.6,5.5,2c8.4-2.9,22.9,15.2,22.9,15.2s12.3,11.8,12.7,27.4c0.4,15.6-3.5,25-3.5,25l-7.3,55.7
		l6.2,35.3L371,391.6l0.7-6.2L347,391.1z"/>
	<path class="st3" d="M156.3,246.1l-4.2,9.5l3.7,8.2l1.5,24.6c0,0,3.6,12.9,6.2,24.3c2.5,11.4,4,18.5,4,18.5s0.8-7.2,0.9-22.7
		c0.1-15.2-0.6-22.1-0.6-22.1l-8.5-23.9l1.7-9.2L156.3,246.1z"/>
	<g>
		<path class="st4" d="M344.6,170.1c-0.2,25.5,32.7,26.3,32.7,26.3c-18.6-8.2-11.2-26.3-11.2-26.3H344.6z"/>
		<path class="st4" d="M365.8,171.1c9.3,0,16.8-7.5,16.8-16.8v-43.7c0-9.3-7.5-16.8-16.8-16.8h-80.5c-9.3,0-16.8,7.5-16.8,16.8v43.7
			c0,9.3,7.5,16.8,16.8,16.8h53.5h5.6H365.8z"/>
	</g>
	<path class="st4" d="M289.1,145.6h-58.8c-6.8,0-12.3,5.5-12.3,12.3v31.9c0,6.8,5.5,12.3,12.3,12.3c-0.2,0,5.2,13.2-8.4,19.2
		c0,0,24-0.6,23.9-19.2c0.2,0,4.3,0,4.3,0h39c6.8,0,12.3-5.5,12.3-12.3v-31.9C301.4,151.1,295.9,145.6,289.1,145.6z"/>
	<g>
		<g>
			<path class="st5" d="M142.4,64.8c-1.1,0-2.1-0.9-2.1-2.1c0-1.1,0.9-2.1,2.1-2.1c1.1,0,2.1,0.9,2.1,2.1
				C144.5,63.9,143.6,64.8,142.4,64.8z"/>
			<path class="st5" d="M126.4,64.9c-1.2,0-2.2-1-2.2-2.2c0-1.2,1-2.2,2.2-2.2c1.2,0,2.2,1,2.2,2.2
				C128.5,63.9,127.6,64.9,126.4,64.9z"/>
			<path class="st5" d="M110.3,64.7c-1.1,0-2-0.9-2-2c0-1.1,0.9-2,2-2c1.1,0,2,0.9,2,2C112.3,63.8,111.4,64.7,110.3,64.7z"/>
			<path class="st5" d="M142.4,80.9c-1.2,0-2.2-1-2.2-2.2c0-1.2,1-2.2,2.2-2.2c1.2,0,2.2,1,2.2,2.2C144.6,80,143.6,80.9,142.4,80.9z
				"/>
			<path class="st5" d="M126.4,81c-1.3,0-2.3-1-2.3-2.3c0-1.3,1-2.3,2.3-2.3c1.3,0,2.3,1,2.3,2.3C128.7,80,127.6,81,126.4,81z"/>
			<path class="st5" d="M110.3,80.9c-1.2,0-2.1-0.9-2.1-2.1c0-1.2,0.9-2.1,2.1-2.1s2.1,0.9,2.1,2.1
				C112.4,79.9,111.5,80.9,110.3,80.9z"/>
			<path class="st5" d="M142.4,96.8c-1.1,0-2-0.9-2-2c0-1.1,0.9-2,2-2c1.1,0,2,0.9,2,2C144.4,95.9,143.5,96.8,142.4,96.8z"/>
			<path class="st5" d="M126.4,96.9c-1.2,0-2.1-1-2.1-2.1c0-1.2,0.9-2.1,2.1-2.1c1.2,0,2.1,0.9,2.1,2.1
				C128.5,96,127.5,96.9,126.4,96.9z"/>
			<path class="st5" d="M110.3,96.8c-1.1,0-2-0.9-2-2c0-1.1,0.9-2,2-2c1.1,0,2,0.9,2,2C112.3,95.9,111.4,96.8,110.3,96.8z"/>
		</g>
	</g>
	<g>
		<g>
			<path class="st5" d="M411.6,213.7c-3.1,0-5.8-2.1-6.1-3.9c-0.1-0.8,0.1-1.6,0.6-2.2c0.8-0.9,2.4-1.3,3.8-0.8
				c0.9,0.3,1.4,0.4,1.7,0.4c0.2,0,0.2,0,0.5-0.1c0.4-0.2,0.5-0.3,1.2-1.8c0.6-1.5,1.8-2.5,3.1-2.5c0.7,0,1.4,0.3,2,0.9
				c0.7,0.8,0.9,2.2,0.6,3.9c-0.5,2.4-2,4.4-4,5.4C413.8,213.5,412.7,213.7,411.6,213.7z M408.5,208.1c-0.6,0-1.1,0.2-1.3,0.5
				c-0.2,0.3-0.3,0.6-0.2,1c0.2,1,2,2.7,4.7,2.7c0.9,0,1.8-0.2,2.6-0.6c1.6-0.8,2.8-2.4,3.2-4.4c0.3-1.3,0.1-2.3-0.3-2.6
				c-0.8-0.9-2.1-0.3-2.6,1.1c-0.7,1.8-1.1,2.2-1.9,2.6c-0.6,0.3-1.2,0.5-3.2-0.2C409.1,208.1,408.8,208.1,408.5,208.1z"/>
		</g>
	</g>
	<g>
		<path class="st5" d="M408,223.1c-1.9,0-3.5-0.2-4.9-0.7c-3.5-1.1-5.8-3.7-7.2-7.8c-2.1-6.4-2-13.2-1.9-19.7l0-0.9
			c0-2.5,0.1-5.2,0.1-7.2c0-3.3,0-3.3,0.1-3.4c0.1-0.4,0.5-0.6,0.9-0.5c0.4,0.1,0.6,0.5,0.5,0.9c0,0,0,1.3,0,3.1
			c0,2.1-0.1,4.8-0.1,7.3l0,0.9c-0.1,6.5-0.2,13.1,1.8,19.3c1.2,3.7,3.3,6,6.3,6.9c1.8,0.6,4,0.7,6.7,0.5c3.3-0.3,6-0.6,8.4-1.1
			c0.4-0.1,0.8,0.2,0.8,0.6c0.1,0.4-0.2,0.8-0.6,0.8c-2.4,0.5-5.2,0.9-8.6,1.1C409.6,223.1,408.8,223.1,408,223.1z"/>
	</g>
	<g class="st6">
		<path class="st7" d="M405.7,205.3c-1.9-0.4-6.2-1.6-6.8-3.2c-0.2-0.4-0.1-0.9,0.2-1.3c5.7-8.1,6.7-13.4,6.7-13.4
			c0.1-0.4,0.4-0.6,0.8-0.6c0.4,0.1,0.6,0.4,0.6,0.8c0,0.2-1.1,5.6-6.9,14c0.2,0.5,2.9,1.6,5.6,2.2c0.4,0.1,0.6,0.5,0.5,0.9
			C406.4,205,406.1,205.3,405.7,205.3z"/>
	</g>
	<g>
		<path class="st5" d="M395,187.6c-0.2,0-0.3,0-0.4-0.1c-0.3-0.2-0.4-0.7-0.1-1c0.1-0.1,2.1-2.7,7.2-1.3c0.4,0.1,0.6,0.5,0.5,0.9
			c-0.1,0.4-0.5,0.6-0.9,0.5c-4.1-1.2-5.6,0.7-5.6,0.7C395.4,187.5,395.2,187.6,395,187.6z"/>
	</g>
	<g>
		<path class="st5" d="M419.3,189.7c-0.3,0-0.5-0.1-0.6-0.4c-0.1-0.1-2-3.4-7.6-2.8c-0.4,0-0.7-0.3-0.8-0.7c0-0.4,0.3-0.7,0.7-0.8
			c6.6-0.6,8.9,3.4,9,3.6c0.2,0.3,0.1,0.8-0.3,1C419.5,189.7,419.4,189.7,419.3,189.7z"/>
	</g>
	<path class="st5" d="M414.3,195.5c0.5,0,0.9-0.4,0.9-0.9V192c0-0.5-0.4-0.9-0.9-0.9c-0.5,0-0.9,0.4-0.9,0.9v2.6
		C413.4,195.1,413.8,195.5,414.3,195.5z"/>
	<path class="st5" d="M398.7,195c0.5,0,0.9-0.4,0.9-0.9v-2.6c0-0.5-0.4-0.9-0.9-0.9c-0.5,0-0.9,0.4-0.9,0.9v2.6
		C397.8,194.6,398.2,195,398.7,195z"/>
	<g>
		<path class="st5" d="M377.2,343.4c-0.4,0-0.7-0.3-0.7-0.7l-0.2-19.5c-1-1.9-9.1-18.5-5.3-33.9c2.4-9.9,8.4-23.9,14.8-35
			c0.2-0.3,0.6-0.5,1-0.3c0.3,0.2,0.5,0.6,0.3,1c-6.4,11-12.3,24.9-14.7,34.7c-3.8,15.5,5.2,32.9,5.3,33.1c0.1,0.1,0.1,0.2,0.1,0.3
			l0.2,19.7C377.9,343,377.6,343.4,377.2,343.4C377.2,343.4,377.2,343.4,377.2,343.4z"/>
	</g>
	<g>
		<path class="st5" d="M358.3,349.4c-0.4,0-0.7-0.3-0.7-0.7c0-0.4-0.1-39.5,4.8-60.3c8.8-37.3,37.9-52.6,38.2-52.8
			c0.4-0.2,0.8,0,1,0.3c0.2,0.4,0,0.8-0.3,1c-0.3,0.1-28.8,15.2-37.4,51.8c-4.9,20.7-4.8,59.6-4.8,60
			C359,349.1,358.7,349.4,358.3,349.4L358.3,349.4z"/>
	</g>
	<g>
		<path class="st5" d="M465.5,245.4c-2.3-2.3-5.1-5.8-7-5.9c0,0.5-0.1,1-0.2,1.4c1.7,0.1,4.2,3.6,6.3,5.6
			c21.3,17.2,13.2,45.2,11.4,50.7c-6.5,19.1-31,57.7-39.2,65.2c-10.2,9.4-28,13.6-50.6,19c-0.4,0.1-0.6,0.5-0.5,0.9
			c0.1,0.3,0.4,0.6,0.7,0.6c0.1,0,0.1,0,0.2,0c22.8-5.5,40.7-9.8,51.2-19.4c8.5-7.8,32.9-46.1,39.6-65.8
			C479.3,292,487.6,263.2,465.5,245.4z"/>
	</g>
	<g>
		<path class="st5" d="M419.3,105c-0.2,0-0.4-0.1-0.5-0.2l-41.2-38.1c-0.3-0.3-0.3-0.7,0-1c0.3-0.3,0.7-0.3,1,0l41.2,38.1
			c0.3,0.3,0.3,0.7,0,1C419.7,104.9,419.5,105,419.3,105z"/>
	</g>
	<g>
		<path class="st5" d="M388.9,41c-0.3,0-0.5-0.1-0.6-0.4c-0.2-0.4,0-0.8,0.3-1l46.1-23.8c0.4-0.2,0.8,0,1,0.3c0.2,0.4,0,0.8-0.3,1
			l-46.1,23.8C389.1,41,389,41,388.9,41z"/>
	</g>
	<g>
		<path class="st5" d="M356.8,27.3c-0.4,0-0.7-0.3-0.7-0.6l-3-25.8c0-0.4,0.2-0.8,0.6-0.8c0.4,0,0.8,0.2,0.8,0.6l3,25.8
			C357.5,26.8,357.3,27.2,356.8,27.3C356.8,27.3,356.8,27.3,356.8,27.3z"/>
	</g>
	<g>
		<path class="st5" d="M157.4,290c-0.4,0-0.7-0.3-0.7-0.7l-1.9-25.4l-3.3-7.9c-0.2-0.4,0-0.8,0.4-0.9c0.4-0.2,0.8,0,0.9,0.4l3.4,8
			c0,0.1,0,0.2,0.1,0.2l1.9,25.5C158.2,289.6,157.9,290,157.4,290C157.5,290,157.5,290,157.4,290z"/>
	</g>
	<g>
		<path class="st5" d="M155.6,264.4c-0.3,0-0.6-0.2-0.7-0.6c-0.1-0.4,0.2-0.8,0.6-0.8l6.6-1.3c0.4-0.1,0.8,0.2,0.8,0.6
			c0.1,0.4-0.2,0.8-0.6,0.8l-6.6,1.3C155.7,264.4,155.6,264.4,155.6,264.4z"/>
	</g>
	<g>
		<path class="st5" d="M171.3,287.1c-0.3,0-0.6-0.2-0.7-0.5l-9.1-24c0-0.1-0.1-0.3,0-0.4l1.8-9.1c0.1-0.4,0.4-0.6,0.8-0.6
			c0.4,0.1,0.6,0.5,0.6,0.8l-1.8,8.9l9,23.8c0.1,0.4,0,0.8-0.4,0.9C171.5,287.1,171.4,287.1,171.3,287.1z"/>
	</g>
	<g>
		<path class="st5" d="M148.6,264.7c-0.1,0-0.2,0-0.3-0.1c-0.4-0.2-0.5-0.6-0.4-0.9l8.8-20.4c0.1-0.2,0.3-0.4,0.6-0.4
			c0.2,0,0.5,0.1,0.7,0.3l12,17.7c0.2,0.3,0.1,0.8-0.2,1c-0.3,0.2-0.8,0.1-1-0.2l-11.2-16.6l-8.3,19.2
			C149.2,264.6,148.9,264.7,148.6,264.7z"/>
	</g>
	<g>
		<path class="st5" d="M169.8,347c-0.2,0-0.5-0.1-0.6-0.3l-41.6-67c-0.1-0.2-0.1-0.4-0.1-0.6l4.5-12.4l-11.2-3.7
			c-0.3-0.1-0.6-0.5-0.5-0.8l4.6-22.2c0-0.1,0.1-0.2,0.2-0.3l8.3-9.6c0.2-0.2,0.4-0.3,0.6-0.2c0.2,0,0.4,0.2,0.6,0.4
			c0,0,1.5,2.8,4.1,8.6c4,8.8,9.8,22.4,15.2,37.2c9.8,27.3,16.1,66.8,16.6,70.1c0,0.1,0.1,0.2,0.1,0.3
			C170.6,346.7,170.3,347,169.8,347C169.9,347,169.8,347,169.8,347z M129,279.2l39.5,63.7c-1.8-10.7-7.6-43.2-16-66.5
			c-5.3-14.7-11.2-28.3-15.1-37.1c-1.7-3.8-3-6.3-3.6-7.6l-7.5,8.6l-4.4,21.4l11.3,3.8c0.2,0.1,0.3,0.2,0.4,0.4
			c0.1,0.2,0.1,0.4,0,0.6L129,279.2z"/>
	</g>
	<g>
		<path class="st5" d="M169.8,347c-0.5-0.1-0.7-0.4-0.7-0.8c0-0.4,2.7-35.3,1.5-59.8c-0.5-8.8-1.1-17.3-1.9-25.1
			c-1.8-17-3.9-26-3.9-26.1c-0.1-0.4,0.1-0.8,0.5-0.9c0.4-0.1,0.8,0.1,0.9,0.5c0,0.1,2.1,9.1,3.9,26.3c0.8,7.8,1.5,16.3,1.9,25.1
			c0.9,17.6-0.2,40.7-1,52.4l16-60.9l-6.4-12c-0.2-0.3-0.1-0.6,0.1-0.9l6-5.7l-14.2-19.1c-0.2-0.3-0.2-0.8,0.1-1
			c0.3-0.2,0.8-0.2,1,0.1l14.5,19.6c0.2,0.3,0.2,0.7-0.1,0.9l-6.1,5.8l6.2,11.7c0.1,0.2,0.1,0.3,0.1,0.5l-18,68.5
			C170.4,346.8,170.1,347,169.8,347z"/>
	</g>
	<g>
		<path class="st5" d="M242.3,392.4H40.6c-0.4,0-0.7-0.3-0.7-0.7c0-0.4,0.3-0.7,0.7-0.7h201.6c0.4,0,0.7,0.3,0.7,0.7
			C243,392,242.7,392.4,242.3,392.4z"/>
	</g>
	<g>
		<path class="st5" d="M509.1,392.4H363.2c-0.4,0-0.7-0.3-0.7-0.7c0-0.4,0.3-0.7,0.7-0.7h145.9c0.4,0,0.7,0.3,0.7,0.7
			C509.8,392,509.5,392.4,509.1,392.4z"/>
	</g>
	<g>
		<g>
			<path class="st5" d="M183.9,206.9c-1.7-0.1-3.1-0.9-4.2-2.5l-0.7-1.1l-0.2-0.5c-0.8-2.2-1.6-4.6-1.5-7.7c0.2-6.3,3.3-11.3,7-11.3
				c0.7,0,1.4,0.2,1.9,0.5c1,0.5,1.9,1.4,2.7,2.7c1.3,2.2,2,5.3,1.9,8.6c-0.1,3.2-1,6.3-2.4,8.4
				C187.2,205.9,185.6,206.9,183.9,206.9z M184.4,185.4c-2.9,0-5.5,4.5-5.6,9.9c-0.1,2.8,0.7,5,1.4,7.2l0.1,0.3l0.6,0.9
				c0.8,1.2,1.8,1.8,2.9,1.8l0.1,0.7v-0.7c1.2,0,2.4-0.8,3.4-2.3c1.3-1.9,2.1-4.7,2.2-7.7c0.1-3-0.5-5.8-1.7-7.8
				c-0.6-1-1.3-1.7-2.1-2.1C185.3,185.5,184.8,185.4,184.4,185.4L184.4,185.4z"/>
		</g>
		<g>
			<path class="st5" d="M166,207.7c-2.1-0.1-3.9-1.4-5.1-3.7c-1.2-2.2-1.8-5-1.7-8.1c0.2-6.3,3.4-11.3,7.3-11.3
				c4.1,0.1,7,5.3,6.9,11.7C173.1,202.7,169.9,207.7,166,207.7z M166.5,186.1c-3.1,0-5.8,4.4-5.9,9.9c-0.1,2.8,0.5,5.4,1.5,7.3
				c1,1.8,2.4,2.9,3.8,2.9l0.1,0.7v-0.7c3.1,0,5.7-4.4,5.8-9.9C172,190.9,169.6,186.2,166.5,186.1L166.5,186.1z"/>
		</g>
		<g>
			<path class="st5" d="M172.6,197.1c-0.1,0-0.2,0-0.3,0c-0.4-0.1-0.6-0.6-0.4-0.9c0-0.1,1.2-3.1,4-2.9c2.3,0.1,2.9,2.8,2.9,3
				c0.1,0.4-0.2,0.8-0.6,0.9c-0.4,0.1-0.8-0.2-0.9-0.6c0,0-0.4-1.8-1.5-1.8c-1.8,0-2.6,2-2.6,2C173.1,196.9,172.9,197.1,172.6,197.1
				z"/>
		</g>
		<g>
			<path class="st5" d="M159.9,196.7c0,0-15.9-0.4-15.9-0.4c-0.4,0-0.7-0.3-0.7-0.7c0-0.4,0.3-0.8,0.7-0.7l15.8,0.4
				c0.4,0,0.7,0.3,0.7,0.7C160.6,196.4,160.3,196.7,159.9,196.7z"/>
		</g>
		<g>
			<path class="st5" d="M174.7,217.9c-8.4-0.5-8.7-6.9-8.7-7c0-0.4,0.3-0.7,0.7-0.7c0.4,0,0.7,0.3,0.7,0.7c0,0.2,0.3,5.2,7.3,5.6
				c0.4,0,0.7,0.4,0.7,0.8C175.4,217.6,175.1,217.9,174.7,217.9z"/>
		</g>
		<g>
			<path class="st5" d="M179.3,207.5c-0.2,0-0.4-0.1-0.5-0.2c-0.3-0.3-0.3-0.7,0-1c1.2-1.2,2.9-1,3.7-0.5c0.3,0.2,0.4,0.7,0.2,1
				c-0.2,0.3-0.6,0.4-1,0.2c-0.3-0.2-1.2-0.4-1.9,0.3C179.6,207.4,179.5,207.5,179.3,207.5z"/>
		</g>
		<g>
			<path class="st5" d="M153,215.8c-1.1,0-4.8-3.5-5-4.2c-0.4-1.7-1.6-7.6-1.3-11.8l0-0.2c1.1-12.7,2.3-18.3,4.3-19.1
				c2.9-1.2,11.2-2,19.7-2.1c9.5,0,12.1,0.3,12.2,0.4c0.4,0.1,0.6,0.4,0.6,0.7l-0.3,5.6c0,0.4-0.3,0.7-0.7,0.7
				c-0.4,0-0.7-0.4-0.7-0.8l0.3-4.9c-1.2-0.1-4.5-0.3-11.3-0.3c-9.5,0-16.8,1-19.2,2c-0.7,0.3-2.2,3-3.4,17.9l0,0.2
				c-0.3,4,0.9,9.7,1.3,11.3c0.3,0.5,2.5,2.4,3.4,3c0.1-0.1,0.2-0.2,0.3-0.3c1.9-1.9,7.1-7.1,12.7-7.7c0.4,0,0.8,0.2,0.8,0.6
				c0,0.4-0.2,0.8-0.6,0.8c-5.1,0.6-10.2,5.7-11.9,7.3C153.5,215.7,153.4,215.8,153,215.8C153.1,215.8,153.1,215.8,153,215.8z"/>
		</g>
		<g>
			<path class="st5" d="M160.9,236c-1.6,0-3-0.1-4-0.2c-6.8-0.7-13.7-7.6-14.2-11.4c-0.5-3.2-1.7-16.9-1.7-17.5c0-0.2,0-0.4,0.2-0.5
				c0,0,3.3-4.2,2.3-10.8c-0.7-4.3-3-6.3-6.9-5.9c-2.2,0.2-3.9,1-5,2.3c-1.3,1.7-1.7,4.2-1.3,7.6c1,6.8,8,7,8.3,7
				c0.4,0,0.7,0.3,0.7,0.7c0,0.3,0.4,6.3-1.8,9.1c-0.1,0.2-0.3,0.3-0.6,0.3c-0.2,0-0.4-0.1-0.6-0.3c-0.1-0.2-14.7-19.2-17-21.9
				c-1.1-1.3-0.7-3.7-0.5-5.3l0.1-0.5c0.4-2.5,1.1-5.2,2.1-8.6l0.2-0.5c1-3,2.1-6.5,3.9-9.2c1.3-1.9,4.4-2.7,6.8-3.3
				c0.5-0.1,1-0.3,1.5-0.4c1-0.3,1.9-0.6,2.9-0.9c2.4-0.7,4.8-1.4,7.2-2.3c1.1-0.4,2.5-1,3.5-1.8c1.2-1,1.8-2.3,2.5-3.8
				c0.5-1.2,1.1-2.4,2-3.4c3.3-4,10.2-5,15-4.7c6.4,0.5,13,3.6,17.5,8.3c1.8,1.9,6.8,9.7,6.2,17.2c-0.3,4-2.1,7.3-5.3,9.8
				c-0.3,0.2-0.8,0.2-1-0.1c-0.2-0.3-0.2-0.8,0.1-1c2.9-2.3,4.5-5.2,4.8-8.8c0.5-7.1-4.4-14.6-5.8-16.1c-4.3-4.5-10.5-7.4-16.6-7.9
				c-4.8-0.3-11,0.8-13.8,4.1c-0.8,0.9-1.3,2-1.8,3.1c-0.7,1.5-1.4,3.1-2.8,4.3c-1.2,1-2.6,1.6-3.9,2.1c-2.4,0.9-4.9,1.6-7.3,2.3
				c-1,0.3-1.9,0.6-2.9,0.9c-0.5,0.1-1,0.3-1.5,0.4c-2.2,0.6-5,1.3-6,2.8c-1.7,2.5-2.8,5.7-3.7,8.8l-0.2,0.5
				c-1.1,3.3-1.7,5.9-2.1,8.3l-0.1,0.5c-0.2,1.2-0.6,3.3,0.1,4.1c2,2.4,13.5,17.3,16.4,21.1c0.9-1.9,1-5,1-6.6c-2.1-0.2-8-1.5-9-8.2
				c-0.5-3.8,0-6.7,1.5-8.7c1.3-1.7,3.3-2.6,6-2.9c4.6-0.4,7.6,2,8.4,7.1c1,6.4-1.6,10.6-2.4,11.7c0.2,2,1.3,14.1,1.7,17.1
				c0.5,3,6.6,9.5,13,10.2c7.1,0.8,22.8-1,25.2-3.2c1.8-1.7,0.3-13.9-0.4-20.4c-0.2-2-0.4-3.7-0.5-4.9c0-0.4,0.3-0.7,0.7-0.8
				c0.4,0,0.7,0.3,0.8,0.7c0.1,1.2,0.3,2.9,0.5,4.9c1.3,10.7,2.1,19.6,0,21.7C180.7,234.6,168.6,236,160.9,236z"/>
		</g>
		<g>
			<path class="st5" d="M133.9,231.1c-0.5-0.1-0.8-0.5-0.7-0.9l2.9-14.8c0.1-0.4,0.4-0.6,0.8-0.6c0.4,0.1,0.6,0.5,0.6,0.8l-2.9,14.8
				C134.6,230.9,134.3,231.1,133.9,231.1z"/>
		</g>
		<g>
			<path class="st5" d="M175.4,209.6c-0.4,0-0.7-0.3-0.7-0.7c0-0.4,0.3-0.7,0.7-0.8c1.5-0.1,2.5-0.5,3-1.3c1-1.4,0.3-3.8-0.2-5.6
				c-0.8-2.9-3.6-10.8-3.6-10.8c-0.1-0.4,0.1-0.8,0.4-0.9c0.4-0.1,0.8,0.1,0.9,0.4c0.1,0.3,2.8,8,3.6,10.8c0.6,2.1,1.4,4.9,0,6.9
				C178.8,208.8,177.4,209.4,175.4,209.6C175.4,209.6,175.4,209.6,175.4,209.6z"/>
		</g>
		<g>
			<path class="st5" d="M136.4,202.6c-0.2,0-0.4-0.1-0.6-0.3c-0.2-0.3-0.2-0.8,0.1-1l4.1-3.2l-5.8-5.2c-0.3-0.3-0.3-0.7,0-1
				c0.3-0.3,0.7-0.3,1-0.1l6.4,5.8c0.2,0.1,0.2,0.3,0.2,0.6c0,0.2-0.1,0.4-0.3,0.5l-4.8,3.7C136.7,202.5,136.5,202.6,136.4,202.6z"
				/>
		</g>
	</g>
	<g>
		<path class="st5" d="M173.2,240.6c-0.2,0-0.3-0.1-0.5-0.2l-5.7-4.8c-0.3-0.3-0.3-0.7-0.1-1c0.3-0.3,0.7-0.3,1-0.1l5.7,4.8
			c0.3,0.3,0.3,0.7,0.1,1C173.6,240.5,173.4,240.6,173.2,240.6z"/>
	</g>
	<g>
		<path class="st5" d="M156.9,243.9c-8.4,0-22.8-12.4-23.4-13c-0.3-0.3-0.3-0.7-0.1-1c0.3-0.3,0.7-0.3,1-0.1
			c0.2,0.1,15.2,13.1,23,12.6c7.3-0.6,7.4-7,7.4-7.3c0-0.4,0.3-0.7,0.7-0.7c0.4,0,0.7,0.3,0.7,0.7c0,0.1-0.1,8-8.7,8.7
			C157.3,243.9,157.1,243.9,156.9,243.9z"/>
	</g>
	<g>
		<path class="st5" d="M171.8,207.9c-0.1,0-0.2,0-0.3,0c0,0-1.3-0.4-4.2-0.3c-0.4,0-0.7-0.3-0.7-0.7c0-0.4,0.3-0.7,0.7-0.7
			c3.3-0.1,4.7,0.4,4.8,0.4c0.4,0.1,0.6,0.6,0.4,0.9C172.4,207.7,172.1,207.9,171.8,207.9z"/>
	</g>
	<g>
		<path class="st5" d="M332.5,391c-0.2,0-0.5-0.1-0.6-0.3c-0.2-0.3-0.1-0.8,0.2-1c2.7-1.7,5.7-3.5,5.8-3.5l5.2-2.1
			c0.4-0.1,0.8,0,0.9,0.4c0.1,0.4,0,0.8-0.4,0.9l-5.1,2c0,0-2.9,1.7-5.6,3.4C332.8,390.9,332.6,391,332.5,391z"/>
	</g>
	<g>
		<path class="st5" d="M314.5,363.6c-0.2,0-0.4-0.1-0.5-0.2c-0.3-0.3-0.3-0.7,0-1c0.1-0.1,0.2-0.2,0.3-0.2c1.5-1,3.5-2.3,4.8-2.9
			c2.1-0.9,5.7-0.3,11.1,1.9l2.6-1c0.4-0.2,0.8,0,0.9,0.4c0.1,0.4,0,0.8-0.4,0.9l-2.9,1.1c-0.2,0.1-0.4,0.1-0.5,0
			c-6.3-2.6-9.1-2.5-10.3-2c-1,0.4-2.6,1.4-4.7,2.8c-0.1,0.1-0.2,0.1-0.4,0.1C314.6,363.6,314.6,363.6,314.5,363.6z"/>
	</g>
	<g>
		<g>
			<path class="st5" d="M315.4,403.9c-2.2,0-3.7-1.3-4.1-1.7c-2.9-2.8-4.4-5.1-5.3-8.2c-0.8-2.3,0.3-4.5,1.7-5.5
				c1.2-0.8,2.9-0.6,3.9-0.1c0.1-1.1,0.5-2.6,1.8-3.5c1-0.7,2.5-1.4,4.5-0.6c0-0.9,0.3-2.1,1.5-3c1.6-1.4,3.1-1.5,5-0.6
				c2.8,1.3,7.8,5.8,8.7,9c0.2,0.8,0.8,2.7-0.8,4.6c-1.4,1.7-3,2.3-3.8,2.4c-0.2,0.8-0.9,2.2-2.9,3.6c-3.1,2.2-5,1.9-5.8,1.7
				c-0.4,0.5-1.3,1.2-2.6,1.6C316.6,403.8,316,403.9,315.4,403.9z M309.6,389.3c-0.4,0-0.8,0.1-1.1,0.4c-1,0.7-1.7,2.3-1.2,3.9
				c0.9,2.8,2.3,4.9,5,7.6c0.3,0.3,1.4,1.3,3.1,1.3c0.4,0,0.9-0.1,1.3-0.2c1.6-0.6,2.2-1.5,2.2-1.5c0.2-0.3,0.6-0.4,1-0.2
				c0,0,1.6,0.9,4.9-1.4c2.3-1.6,2.4-3.1,2.4-3.1c0-0.4,0.3-0.7,0.7-0.7c0.1,0,1.7-0.1,3.3-2c1-1.2,0.8-2.3,0.5-3.2
				c-0.8-2.7-5.5-6.9-8-8.1c-1.4-0.7-2.2-0.6-3.4,0.5c-1.4,1.1-0.9,2.8-0.9,2.9c0.1,0.3,0,0.6-0.2,0.8c-0.2,0.2-0.5,0.2-0.8,0.1
				c-1.9-1-2.7-1.1-4.2,0c-1.4,1-1.1,3.5-1.1,3.5c0,0.3-0.1,0.6-0.4,0.7c-0.3,0.1-0.6,0.1-0.8-0.1
				C311.9,390.3,310.8,389.3,309.6,389.3z"/>
		</g>
	</g>
	<g>
		<path class="st5" d="M289.5,388.8c-0.1,0-0.2,0-0.3-0.1c-0.1,0-2.1-1.2-3-2.9l-7.1-3.1c-0.4-0.2-0.5-0.6-0.4-0.9
			c0.2-0.4,0.6-0.5,0.9-0.4l7.4,3.2c0.2,0.1,0.3,0.2,0.4,0.4c0.6,1.4,2.5,2.4,2.5,2.4c0.3,0.2,0.5,0.6,0.3,1
			C290,388.7,289.7,388.8,289.5,388.8z"/>
	</g>
	<g>
		<path class="st5" d="M324.2,378.1c-3.3,0-8.1-1.6-12.4-6.1c-1.2,1.2-4.3,3.8-7.5,3.4c-0.4-0.1-0.7-0.4-0.6-0.8
			c0.1-0.4,0.4-0.7,0.8-0.6c3.3,0.5,6.7-3.4,6.7-3.5c0.1-0.2,0.3-0.2,0.5-0.3c0.2,0,0.4,0.1,0.5,0.2c4.3,4.9,9.4,6.4,12.4,6.2
			c1.5-0.1,2.7-0.7,3.2-1.5c-0.2-1.7-13.9-12.3-18.8-14.4c-3.3-1.4-13,3.1-16.5,4.9c-0.2,0.1-0.5,0.1-0.7,0l-4.8-2.7
			c-0.3-0.2-0.5-0.6-0.3-1c0.2-0.3,0.6-0.5,1-0.3l4.4,2.5c2.4-1.2,13.1-6.6,17.4-4.8c3.9,1.6,18.5,12.1,19.5,15.4
			c0.2,0.5,0,0.9-0.1,1.1c-0.8,1.3-2.3,2-4.3,2.2C324.7,378.1,324.4,378.1,324.2,378.1z"/>
	</g>
	<g>
		<g>
			<path class="st5" d="M161.7,107.4c-0.1,0-0.1,0-0.2,0c-0.4-0.1-0.6-0.5-0.5-0.9c10.5-33.1,32.1-61.8,32.3-62.1
				c0.1-0.2,0.3-0.3,0.6-0.3H374c0.3,0,0.6,0.2,0.7,0.5c0.1,0.3,0,0.6-0.3,0.8c-0.2,0.2-22.4,15.7-33.6,45c-0.1,0.4-0.6,0.6-0.9,0.4
				c-0.4-0.1-0.6-0.6-0.4-0.9c9.5-24.9,26.8-40,32.4-44.3H194.2c-2.3,3.1-22.1,30.3-31.9,61.4C162.2,107.2,162,107.4,161.7,107.4z"
				/>
		</g>
		<g>
			<path class="st5" d="M351.4,338.5h-77.6c-0.4,0-0.7-0.3-0.7-0.7c0-0.4,0.3-0.7,0.7-0.7h77.6c0.4,0,0.7,0.3,0.7,0.7
				C352.1,338.1,351.8,338.5,351.4,338.5z"/>
		</g>
		<g>
			<path class="st5" d="M226.2,294.1c-0.5,0-0.8-0.4-0.7-0.8c3.9-36.9-13.3-61.8-32.9-86.1c-0.2-0.3-0.2-0.8,0.1-1
				c0.3-0.2,0.8-0.2,1,0.1c19.7,24.6,37.1,49.7,33.2,87.2C226.9,293.8,226.6,294.1,226.2,294.1z"/>
		</g>
		<g>
			<g>
				<path class="st5" d="M279.4,87.4h-76.3c-0.4,0-0.7-0.3-0.7-0.7c0-0.4,0.3-0.7,0.7-0.7h76.3c0.4,0,0.7,0.3,0.7,0.7
					C280.1,87.1,279.8,87.4,279.4,87.4z"/>
			</g>
			<g>
				<path class="st5" d="M254.5,121.5h-63.2c-0.4,0-0.7-0.3-0.7-0.7c0-0.4,0.3-0.7,0.7-0.7h63.2c0.4,0,0.7,0.3,0.7,0.7
					C255.2,121.1,254.9,121.5,254.5,121.5z"/>
			</g>
			<g>
				<path class="st5" d="M212.7,153.2h-22.2c-0.4,0-0.7-0.3-0.7-0.7c0-0.4,0.3-0.7,0.7-0.7h22.2c0.4,0,0.7,0.3,0.7,0.7
					C213.4,152.8,213.1,153.2,212.7,153.2z"/>
			</g>
			<g>
				<path class="st5" d="M382.7,223H265c-0.4,0-0.7-0.3-0.7-0.7c0-0.4,0.3-0.7,0.7-0.7h117.7c0.4,0,0.7,0.3,0.7,0.7
					C383.5,222.7,383.1,223,382.7,223z"/>
			</g>
			<g>
				<path class="st5" d="M370.6,257h-87.8c-0.4,0-0.7-0.3-0.7-0.7c0-0.4,0.3-0.7,0.7-0.7h87.8c0.4,0,0.7,0.3,0.7,0.7
					C371.4,256.7,371,257,370.6,257z"/>
			</g>
		</g>
	</g>
	<g>
		<path class="st5" d="M273.8,395.5c-0.6-0.1-43.5-12.4-61.8-31.8c-0.3-0.3-0.3-0.7,0-1c0.3-0.3,0.7-0.3,1,0
			c16.8,17.9,55,29.6,60.3,31.2l17.2-41c-5.3-2.4-39-17.6-51.2-27.7c-6.5-5.4-12.7-16.5-19.8-29.3c-11.4-20.6-25.6-46.1-46.6-55.5
			c-0.4-0.2-0.5-0.6-0.4-1c0.2-0.4,0.6-0.5,1-0.4c21.5,9.5,35.8,35.3,47.3,56.1c7.1,12.7,13.2,23.7,19.5,28.9
			c12.8,10.5,51.2,27.6,51.6,27.7c0.4,0.2,0.5,0.6,0.4,0.9l-17.7,42.2C274.4,395.3,274.1,395.5,273.8,395.5z"/>
	</g>
	<g>
		<path class="st5" d="M214,392.4c-0.4,0-0.7-0.3-0.7-0.7c-0.4-10-1-20.3-1.7-31.6c-1.8-29.6-12.1-73.1-12.2-73.5
			c-0.1-0.4,0.1-0.8,0.5-0.9c0.4-0.1,0.8,0.1,0.9,0.5c0.1,0.4,10.5,44,12.3,73.8c0.7,11.3,1.2,21.6,1.7,31.6
			C214.8,392,214.5,392.4,214,392.4C214.1,392.4,214,392.4,214,392.4z"/>
	</g>
	<g>
		<path class="st5" d="M72.3,392.4c-0.4,0-0.7-0.3-0.7-0.7c-1.1-34.4-2.2-79.9-1.4-101c0.7-19.5,15.6-44.7,55.4-51.5
			c0.4-0.1,0.8,0.2,0.8,0.6c0.1,0.4-0.2,0.8-0.6,0.8c-38.9,6.6-53.5,31.1-54.2,50.1c-0.8,21.1,0.4,66.5,1.4,100.9
			C73.1,392,72.7,392.4,72.3,392.4C72.3,392.4,72.3,392.4,72.3,392.4z"/>
	</g>
	<g>
		<path class="st5" d="M116.7,392.4c-0.4,0-0.7-0.3-0.7-0.7c-1.7-35.2-3.4-82-3.4-99.5c0-0.4,0.3-0.7,0.7-0.7s0.7,0.3,0.7,0.7
			c0,17.4,1.8,64.2,3.4,99.4C117.4,392,117.1,392.4,116.7,392.4C116.7,392.4,116.7,392.4,116.7,392.4z"/>
	</g>
	<g>
		<path class="st5" d="M327.9,396.8c-0.2,0-0.4-0.1-0.5-0.2l-9.2-10.5c-0.3-0.3-0.2-0.8,0.1-1c0.3-0.3,0.8-0.2,1,0.1l9.2,10.5
			c0.3,0.3,0.2,0.8-0.1,1C328.3,396.7,328.1,396.8,327.9,396.8z"/>
	</g>
	<g>
		<path class="st5" d="M319.5,401.9c-0.2,0-0.5-0.1-0.6-0.3l-7.2-11.4c-0.2-0.3-0.1-0.8,0.2-1c0.3-0.2,0.8-0.1,1,0.2l7.2,11.4
			c0.2,0.3,0.1,0.8-0.2,1C319.8,401.8,319.7,401.9,319.5,401.9z"/>
	</g>
	<g>
		<g>
			<path class="st5" d="M302.1,404.4c-2.1,0-3.7-0.8-4.4-1.7c-0.9-1.2-1-2.3-1-3.1c-1-0.1-2.7-0.5-3.6-1.8c-1.1-1.5-1.3-3.2-0.6-4.9
				c-0.8-0.2-2-0.7-2.8-1.6c-1-1.1-1.5-3.4-0.6-4.7c2-3.4,12.3-11.3,15-12.7c0.3-0.2,0.8-0.1,1,0.3c0.2,0.4,0.1,0.8-0.3,1
				c-2.8,1.5-12.6,9.2-14.4,12.2c-0.5,0.7-0.1,2.3,0.5,3c1,1.1,2.8,1.3,2.8,1.3c0.2,0,0.5,0.2,0.6,0.4c0.1,0.2,0.1,0.5,0,0.7
				c-0.9,1.6-0.9,2.9,0,4.2c0.9,1.3,3.3,1.2,3.3,1.2c0.3,0,0.5,0.1,0.6,0.3c0.1,0.2,0.2,0.5,0.1,0.7c0,0-0.5,1.3,0.5,2.6
				c0.5,0.7,2,1.3,3.9,1.1c1.9-0.2,3.7-0.7,8.1-2.6c0.4-0.1,0.8,0,0.9,0.4c0.2,0.4,0,0.8-0.4,0.9c-4.6,1.9-6.4,2.5-8.5,2.7
				C302.6,404.4,302.4,404.4,302.1,404.4z"/>
		</g>
	</g>
	<g>
		<path class="st5" d="M293.7,393.2c-0.2,0-0.4-0.1-0.6-0.3c-0.2-0.3-0.2-0.8,0.1-1l17.5-13.6c0.3-0.2,0.8-0.2,1,0.1
			c0.2,0.3,0.2,0.8-0.1,1L294.1,393C294,393.1,293.9,393.2,293.7,393.2z"/>
	</g>
	<g>
		<path class="st5" d="M297.7,399.7c-0.2,0-0.5-0.1-0.6-0.4c-0.2-0.3-0.1-0.8,0.3-1l9-5.1c0.3-0.2,0.8-0.1,1,0.3
			c0.2,0.3,0.1,0.8-0.3,1l-9,5.1C297.9,399.6,297.8,399.7,297.7,399.7z"/>
	</g>
	<g>
		<path class="st5" d="M382.4,392.4c-0.1,0-0.2,0-0.3-0.1c-0.3-0.2-0.5-0.6-0.3-1c1.3-2.4,1.5-3,2.9-6.6l1-2.8
			c0.1-0.4,0.6-0.5,0.9-0.4c0.4,0.1,0.6,0.6,0.4,0.9l-1,2.8c-1.4,3.7-1.6,4.4-3,6.8C382.9,392.2,382.6,392.4,382.4,392.4z"/>
	</g>
	<g>
		<path class="st5" d="M475.3,392.4c-0.3,0-0.6-0.2-0.7-0.6l-6.3-35.3c0-0.1,0-0.1,0-0.2c0.3-2.3,7.4-57.1,7.7-58.9
			c0.1-0.4,0.4-0.7,0.8-0.6c0.4,0.1,0.7,0.4,0.6,0.8c-0.3,1.7-7.3,56-7.6,58.8l6.3,35.2c0.1,0.4-0.2,0.8-0.6,0.8
			C475.4,392.4,475.4,392.4,475.3,392.4z"/>
	</g>
	<g>
		<path class="st5" d="M347,391.8c-0.2,0-0.5-0.1-0.6-0.3c-9.8-14.5-15.1-33.9-15.2-34.1c-0.1-0.4,0.1-0.8,0.5-0.9l22-7.1
			c11.4-3.7,23.2-7.5,34.9-11.1c5.5-1.7,11.8-4.2,16.4-9.8c3.2-3.9,5.6-8.5,7.9-12.9c0.5-1,1-1.9,1.5-2.9
			c4.1-7.7,21.9-38.4,26.9-45.6c0.2-0.3,0.7-0.4,1-0.2c0.3,0.2,0.4,0.7,0.2,1c-5,7.2-22.7,37.7-26.8,45.4c-0.5,1-1,1.9-1.5,2.9
			c-2.3,4.5-4.7,9.2-8,13.2c-4.9,5.9-11.4,8.5-17.1,10.2c-11.7,3.6-23.5,7.4-34.9,11.1l-21.3,6.9c1,3.5,6,19.9,14.5,32.6
			c3-0.6,20.3-4.3,38.8-8.8c0.4-0.1,0.8,0.1,0.9,0.5c0.1,0.4-0.1,0.8-0.5,0.9c-20.4,4.9-39.2,8.9-39.4,8.9
			C347.1,391.8,347.1,391.8,347,391.8z"/>
	</g>
	<g>
		<g>
			<path class="st5" d="M377.3,198.1c-0.4,0-33.6-1.1-33.4-27c0-0.4,0.3-0.7,0.7-0.7c0.4,0,0.7,0.3,0.7,0.7
				c-0.2,19.4,20,24.1,28.4,25.2c-14.8-8.9-8.3-25.3-8.3-25.5c0.1-0.4,0.6-0.5,0.9-0.4c0.4,0.1,0.5,0.6,0.4,0.9
				c-0.3,0.7-6.9,17.6,10.9,25.4c0.3,0.1,0.5,0.5,0.4,0.8C378,197.8,377.7,198.1,377.3,198.1z"/>
		</g>
		<g>
			<path class="st5" d="M344.4,171.8h-43c-0.4,0-0.7-0.3-0.7-0.7c0-0.4,0.3-0.7,0.7-0.7h43c0.4,0,0.7,0.3,0.7,0.7
				C345.1,171.5,344.8,171.8,344.4,171.8z"/>
		</g>
		<g>
			<path class="st5" d="M365.8,171.8c-0.4,0-0.7-0.3-0.7-0.7c0-0.4,0.3-0.7,0.7-0.7c8.9,0,16.1-7.2,16.1-16.1v-43.7
				c0-8.9-7.2-16.1-16.1-16.1h-80.5c-8.9,0-16.1,7.2-16.1,16.1v35c0,0.4-0.3,0.7-0.7,0.7c-0.4,0-0.7-0.3-0.7-0.7v-35
				c0-9.6,7.9-17.5,17.5-17.5h80.5c9.7,0,17.5,7.9,17.5,17.5v43.7C383.3,163.9,375.5,171.8,365.8,171.8z"/>
		</g>
	</g>
	<g>
		<g>
			<path class="st5" d="M221.9,221.9c-0.3,0-0.6-0.2-0.7-0.6c-0.1-0.3,0.1-0.7,0.4-0.8c12.8-5.6,8-17.8,7.8-18.3
				c-0.2-0.4,0-0.8,0.4-0.9c0.4-0.1,0.8,0,0.9,0.4c0.1,0.1,4.6,11.7-5.4,18.4c6.5-0.9,19.8-4.5,19.7-18.2c0-0.4,0.3-0.7,0.7-0.7
				c0.4,0,0.7,0.3,0.7,0.7C246.7,221.1,222.2,221.9,221.9,221.9C221.9,221.9,221.9,221.9,221.9,221.9z"/>
		</g>
		<g>
			<path class="st5" d="M289.1,202.7H246c-0.4,0-0.7-0.3-0.7-0.7c0-0.4,0.3-0.7,0.7-0.7h43.1c6.4,0,11.5-5.2,11.5-11.5v-31.9
				c0-6.4-5.2-11.5-11.5-11.5h-58.8c-6.4,0-11.5,5.2-11.5,11.5v31.9c0,6.4,5.2,11.5,11.5,11.5c0.4,0,0.7,0.3,0.7,0.7
				c0,0.4-0.3,0.7-0.7,0.7c-7.2,0-13-5.8-13-13v-31.9c0-7.2,5.8-13,13-13h58.8c7.2,0,13,5.8,13,13v31.9
				C302.1,196.9,296.3,202.7,289.1,202.7z"/>
		</g>
	</g>
	<g>
		<path class="st5" d="M421.7,235.3c-0.4,0-0.7,0-1.1,0c-4.6-0.4-4.3-7.5-4.3-7.8l-1.1-5.5c-0.1-0.4,0.2-0.8,0.6-0.8
			c0.4-0.1,0.8,0.2,0.8,0.6l1.1,5.7c0,0.2-0.3,6.2,3,6.5c3.7,0.4,7.2-1.4,7.2-1.4c0.4-0.2,0.8,0,1,0.3c0.2,0.4,0,0.8-0.3,1
			C428.5,233.7,425.3,235.3,421.7,235.3z"/>
	</g>
	<g>
		<path class="st5" d="M371.4,392.3c-0.5-0.1-0.8-0.4-0.7-0.8l0.7-6.1c0-0.4,0.4-0.7,0.8-0.6c0.4,0,0.7,0.4,0.6,0.8l-0.7,6.1
			C372.1,392.1,371.8,392.3,371.4,392.3z"/>
	</g>
	<g>
		<path class="st5" d="M157.9,145.3c-0.4,0-0.7-0.3-0.7-0.7c-0.9-10.4,1.2-19.3,1.2-19.4c0.1-0.4,0.5-0.6,0.9-0.5
			c0.4,0.1,0.6,0.5,0.5,0.9c0,0.1-2,8.8-1.2,19C158.6,144.9,158.4,145.3,157.9,145.3C157.9,145.3,157.9,145.3,157.9,145.3z"/>
	</g>
	<g>
		<path class="st5" d="M365.2,122h-79.4c-0.4,0-0.7-0.3-0.7-0.7c0-0.4,0.3-0.7,0.7-0.7h79.4c0.4,0,0.7,0.3,0.7,0.7
			C365.9,121.7,365.6,122,365.2,122z"/>
	</g>
	<g>
		<path class="st5" d="M365.2,143.9h-58.4c-0.4,0-0.7-0.3-0.7-0.7c0-0.4,0.3-0.7,0.7-0.7h58.4c0.4,0,0.7,0.3,0.7,0.7
			C365.9,143.6,365.6,143.9,365.2,143.9z"/>
	</g>
	<g>
		<g>
			<path class="st5" d="M288.6,165.7h-54.1c-0.4,0-0.7-0.3-0.7-0.7c0-0.4,0.3-0.7,0.7-0.7h54.1c0.4,0,0.7,0.3,0.7,0.7
				C289.4,165.4,289,165.7,288.6,165.7z"/>
		</g>
		<g>
			<path class="st5" d="M288.6,182.4h-54.1c-0.4,0-0.7-0.3-0.7-0.7c0-0.4,0.3-0.7,0.7-0.7h54.1c0.4,0,0.7,0.3,0.7,0.7
				C289.4,182.1,289,182.4,288.6,182.4z"/>
		</g>
	</g>
</g>
<g id="Слой_4">
	<g>
		<path class="st5" d="M403.7,205.2c-0.2,0-0.3,0-0.4-0.2c-1.6-1.3-3.6-4.4-3.7-4.5c-0.1-0.2-0.1-0.4-0.1-0.6
			c0.1-0.2,0.2-0.3,0.5-0.4l4.2-0.9c0.4-1.4,1.8-7.1,1.5-15c0-0.4,0.3-0.6,0.6-0.7c0.4,0,0.6,0.3,0.7,0.6c0.4,9.4-1.6,15.6-1.7,15.8
			c-0.1,0.2-0.2,0.4-0.5,0.4l-3.7,0.8c0.7,1,1.9,2.6,2.9,3.5c0.3,0.2,0.3,0.6,0.1,0.9C404,205.1,403.9,205.2,403.7,205.2z"/>
	</g>
</g>
<g id="Слой_3">
	<path class="st1" d="M404.6,165.8l-4.1,2.9c0,0,11.1,16.7,21.2,17.7c10,1,7.5-0.6,7.5-0.6S405.8,170.7,404.6,165.8z"/>
	<path class="st1" d="M405.2,161.5c0,0-11,11.9-11.5,21.8c0,0-5-11.5,5.8-20.6C403.3,159.4,405.2,161.5,405.2,161.5z"/>
	<path class="st1" d="M397.8,213.8l1.9,2.9c0,0-4.8,5.7-2.6,12.5s8.5,7.5,8.5,7.5s-12.6,2.5-13.3-9.8
		C391.8,219.3,397.8,213.8,397.8,213.8z"/>
	<path class="st1" d="M433.9,200.1l4.7,1.7c0,0-9.7,15.6-5.7,24.5c4,8.9,11,11,11,11s-16.4,1.3-18-17.9
		C424.3,200.1,433.9,200.1,433.9,200.1z"/>
	<path class="st2" d="M429.1,187.2c-4.4-0.6-15.1-3.4-22.8-16.9c-1.1-2-3.7-2.6-5.6-1.3c-3,2.1-6.8,6.8-7.4,17.1c0,0-0.9-9.4,7-20.9
		c0.8-1.2,2.5-3.3,3.7-4c5.6-3.1,11.6-3.4,24.6-3c10.9,0.3,20.1,5.9,22.7,16.3c0.1,0.4,0.1,0.8,0.1,1.2l-2.8,36.7
		c-0.1,1.2,0.3,2.3,1.2,3.1c0.9,0.9,2.6,2.1,5.4,3.7c5.6,3.2,9.7,7.4,8,14.2c-0.6,2.3-2.5,6.5-4.7,5.6l-2.8-1c-1-0.4-2.2-3.4-3.2-3
		c-3.6,1.8-13.3,5-19.8-7c0,0-4.1-6.2-1.3-15.3c1.7-5.6,3.6-8.8,4.8-10.4c0.6-0.8,1.4-1.3,2.4-1.5c0.9-0.2,2.2-0.7,3.2-1.9
		c1.3-1.6,2.1-3.4,1.6-7.9c-0.6-5.5-4-6.9-6.4-6.8c-1.9,0.1-3.4,0.6-4.8,2C431.4,187,430.3,187.4,429.1,187.2z"/>
	<path class="st2" d="M399.5,215.9c0,0,4.5,9.7,15.9,6.2l1.6,9.8c0,0-6,3.7-10.3,4.7c0,0-5.2,0.8-8.3-3.7
		C395.8,229.1,395.2,221.1,399.5,215.9z"/>
	<g>
		<path class="st5" d="M438.7,188.7c0-0.2-0.1-0.5-0.3-0.6c-0.2-0.1-0.4-0.2-0.6-0.2c-0.2,0-0.5,0.1-0.6,0.3l-3.7,4.6
			c-0.2,0.2-0.2,0.5-0.2,0.7c0,0.3,0.2,0.5,0.4,0.6l4.2,2.4c0.2,0.1,0.3,0.1,0.5,0.1c0,0,0,0,0.1,0c0.3,0,0.5-0.2,0.6-0.4
			c0.2-0.4,0.1-1-0.3-1.2l-3.3-1.9l3.1-3.7C438.7,189.1,438.8,188.9,438.7,188.7z"/>
		<path class="st5" d="M454.1,217.4c-2.1-1.3-4.5-2.7-4.5-3.7c0.8-22.3,2.6-36.4,2.8-37.9c0-0.1,0-0.2,0-0.3
			c-1-6.5-4.5-11.3-10.5-14.4c-13.4-7-36.7-3-43.3,0.2c-0.4,0.3-10.3,7-6.2,26.9c0,0.3,0,0.5,0,0.8c0.3,7,0.7,16.7,4,24
			c-1,1.2-6.7,8.2-4.6,16.7c2.2,9,11.2,8.8,13.9,8.6c0.5,0,0.8-0.1,0.8-0.1c0,0,0,0,0,0c0.2,0,0.4-0.2,0.6-0.4
			c0.1-0.2,0.2-0.4,0.1-0.7c0-0.2-0.2-0.5-0.4-0.6c-0.2-0.1-0.4-0.2-0.6-0.1c-0.4,0.1-10.5,1.9-12.7-7.1c-1.7-6.7,2.2-12.6,3.7-14.5
			c1.1,1.9,2.4,3.6,4,5c3.4,2.9,7.9,4.1,13.4,3.5c0.4,0,0.7-0.1,1.1-0.1c0,0,0,0,0,0c0.5-0.1,0.8-0.5,0.7-1c0-0.3-0.2-0.5-0.4-0.6
			c-0.2-0.1-0.4-0.2-0.6-0.1c-5.4,0.8-9.8-0.2-13.1-3c-7.4-6.2-7.9-20.2-8.3-29.4c0,0,0-0.1,0-0.1c0-0.1,0.1-0.3,0-0.5
			c0-0.1,0-0.2-0.1-0.3c0-1-0.1-2-0.1-2.9c0.2-1.6,2-13.7,7.2-15.1c1.7,3.6,9.9,18.1,28.6,18.2c0,0.1-0.1,0.1-0.1,0.2
			c-0.2,0.5,0.1,1,0.5,1.1c0.5,0.2,1-0.1,1.1-0.5c0.9-2.4,2.5-3.7,4.8-3.8c3.3-0.2,6.1,3,6.4,7.1c0.1,2-0.4,4-1.5,5.5
			c-1,1.5-2.4,2.3-4,2.4c-1.3,0.1-2.5-0.4-3.6-1.3c-0.4-0.3-0.9-0.3-1.2,0.1c-0.2,0.2-0.2,0.4-0.2,0.6c0,0.2,0.1,0.5,0.3,0.6
			c0,0,0.1,0,0.1,0.1c-2,2.7-14.3,20.1-1.6,33.1c3.4,3.5,8,4.9,13.7,4.4c0.7-0.1,1.4-0.2,2.1-0.3c4.3-0.8,7.4-2.4,7.6-2.4
			c0.4-0.2,0.6-0.8,0.4-1.2c-0.2-0.4-0.8-0.6-1.2-0.4c-0.1,0.1-13.4,6.7-21.3-1.3c-12.1-12.3,0.3-28.9,1.8-30.9
			c1,0.5,2.1,0.7,3.3,0.7c0.1,0,0.2,0,0.3,0c0.2,0,0.3,0,0.5-0.1c1.8-0.3,3.4-1.4,4.6-3c1.3-1.8,2-4.2,1.8-6.6c-0.3-5.1-4-9-8.2-8.8
			c-2.3,0.1-4.1,1.2-5.4,3c-20.5,0.4-28.1-17.6-28.2-17.8c-0.1-0.4-0.5-0.6-0.9-0.5c-4.8,0.5-7.3,7.1-8.5,11.9
			c-0.3-12.3,6-16.9,6.3-17.1c6.3-3.1,28.7-7,41.6-0.2c5.4,2.8,8.6,7.2,9.5,13c-0.2,1.7-2,15.7-2.8,38c-0.1,2,2.3,3.5,5.3,5.3
			c5.5,3.3,13.1,7.9,7.6,18.1c-0.1,0.2-0.1,0.4-0.1,0.7c0.1,0.2,0.2,0.4,0.4,0.5c0.2,0.1,0.3,0.1,0.5,0.1c0,0,0,0,0.1,0
			c0.3,0,0.5-0.2,0.6-0.5C468.7,226.2,459.9,220.9,454.1,217.4z M452.2,175.6C452.2,175.6,452.2,175.6,452.2,175.6L452.2,175.6
			L452.2,175.6z"/>
	</g>
	<g>
		<path class="st5" d="M459.2,240.4c-0.5,0.1-0.9,0.1-1.4,0c-2.3-0.4-4-2.6-4.6-5.9c-0.1-0.5,0.2-1,0.7-1c0,0,0,0,0,0
			c0.5-0.1,1,0.2,1,0.7c0.4,2.5,1.6,4.2,3.1,4.5c1.1,0.2,2.1-0.4,2.8-1.6c0.2-0.4,0.8-0.6,1.2-0.3c0.4,0.2,0.6,0.8,0.3,1.2
			C461.7,239.3,460.5,240.2,459.2,240.4z"/>
	</g>
</g>
</svg>
