<?xml version="1.0" encoding="utf-8"?>
<!-- Generator: Adobe Illustrator 22.0.1, SVG Export Plug-In . SVG Version: 6.00 Build 0)  -->
<svg version="1.0" id="Слой_1" xmlns="http://www.w3.org/2000/svg" xmlns:xlink="http://www.w3.org/1999/xlink" x="0px" y="0px"
	 width="45.6px" height="28.8px" viewBox="0 0 45.6 28.8" style="enable-background:new 0 0 45.6 28.8;" xml:space="preserve">
<style type="text/css">
	.st0m{opacity:7.000000e-02;fill:#FFFFFF;enable-background:new    ;}
	.st1m{fill:#BEBFBE;}
	.st2m{fill:#CAD0CD;}
	.st3m{fill:#ACAFAD;}
</style>
<path class="st0m" d="M42,0H3.6C1.6,0,0,1.6,0,3.6v21.6c0,2,1.7,3.6,3.6,3.6H42c2,0,3.6-1.6,3.6-3.6V3.6C45.6,1.6,43.9,0,42,0z
	 M44.4,25.2c0,1.3-1.1,2.4-2.4,2.4H3.6c-1.3,0-2.4-1.1-2.4-2.4V3.6c0-1.3,1.1-2.4,2.4-2.4H42c1.3,0,2.4,1.1,2.4,2.4V25.2z"/>
<circle class="st1m" cx="18" cy="14.4" r="8.4"/>
<circle class="st2m" cx="27.6" cy="14.4" r="8.4"/>
<path class="st3m" d="M26.4,14.4c0-2.9-1.4-5.4-3.6-6.8c-2.2,1.6-3.6,4.1-3.6,6.8s1.4,5.4,3.6,6.8C25,19.8,26.4,17.3,26.4,14.4z"/>
</svg>
