<?xml version="1.0" encoding="utf-8"?>
<!-- Generator: Adobe Illustrator 22.0.1, SVG Export Plug-In . SVG Version: 6.00 Build 0)  -->
<svg version="1.0" id="Слой_1" xmlns="http://www.w3.org/2000/svg" xmlns:xlink="http://www.w3.org/1999/xlink" x="0px" y="0px"
	 width="45.6px" height="28.8px" viewBox="0 0 45.6 28.8" style="enable-background:new 0 0 45.6 28.8;" xml:space="preserve">
<style type="text/css">
	.st0{opacity:7.000000e-02;fill:#FFFFFF;enable-background:new    ;}
	.st1{fill:#BEBFBE;}
	.st2{fill:#CAD0CD;}
	.st3{fill:#ACAFAD;}
</style>
<path class="st0" d="M42,0H3.6C1.6,0,0,1.6,0,3.6v21.6c0,2,1.7,3.6,3.6,3.6H42c2,0,3.6-1.6,3.6-3.6V3.6C45.6,1.6,43.9,0,42,0z
	 M44.4,25.2c0,1.3-1.1,2.4-2.4,2.4H3.6c-1.3,0-2.4-1.1-2.4-2.4V3.6c0-1.3,1.1-2.4,2.4-2.4H42c1.3,0,2.4,1.1,2.4,2.4V25.2z"/>
<path class="st1" d="M28.7,10c0.2-1.2,0-2-0.7-2.8c-0.7-0.8-2-1.2-3.7-1.2h-4.9c-0.4,0-0.6,0.2-0.7,0.6l-1.8,12.1
	c0,0.2,0.1,0.5,0.4,0.5h3.2l0.5-4.1l2.2-2.6L28.7,10z"/>
<path class="st2" d="M28.7,10l-0.2,0.2c-0.6,3.4-2.6,4.6-5.5,4.6h-1.3c-0.4,0-0.6,0.2-0.7,0.6L20.2,20l-0.2,1.2
	c0,0.2,0.1,0.5,0.4,0.5h2.5c0.4,0,0.6-0.2,0.6-0.5v-0.1l0.5-2.9v-0.1c0-0.2,0.4-0.5,0.6-0.5h0.4c2.5,0,4.4-1,4.9-3.8
	c0.2-1.2,0.1-2.2-0.5-2.9C29.2,10.3,28.9,10.1,28.7,10z"/>
<path class="st3" d="M28,9.7c-0.1-0.1-0.2-0.1-0.4-0.1c-0.1,0-0.2,0-0.4-0.1c-0.4-0.1-0.8-0.1-1.3-0.1h-3.6c-0.1,0-0.2,0-0.2,0.1
	c-0.2,0.1-0.4,0.2-0.4,0.5l-0.8,5.3v0.1c0-0.4,0.4-0.6,0.7-0.6h1.6c3,0,4.9-1.2,5.5-4.6V10c-0.1-0.1-0.4-0.2-0.6-0.2L28,9.7z"/>
</svg>
