<svg 
 xmlns="http://www.w3.org/2000/svg"
 xmlns:xlink="http://www.w3.org/1999/xlink"
 width="25px" height="35px">
<path fill-rule="evenodd"  fill="rgb(152, 152, 234)"
 d="M23.944,1.097 C23.680,0.671 23.175,0.546 22.876,0.534 C22.215,0.478 14.538,-0.081 12.047,4.621 C9.952,8.577 8.516,12.413 7.656,16.355 C7.245,18.238 8.035,20.114 9.503,21.142 C9.263,21.969 9.038,22.799 8.830,23.634 L4.730,23.634 C3.867,23.634 3.166,24.344 3.166,25.216 L3.166,25.802 C1.849,26.303 0.910,27.595 0.910,29.107 L0.910,29.173 C0.910,29.178 0.910,29.181 0.910,29.185 L0.910,31.103 C0.910,31.106 0.910,31.111 0.910,31.115 L0.910,31.181 C0.910,33.127 2.467,34.709 4.381,34.709 L14.785,34.709 C16.761,34.709 18.367,33.092 18.367,31.103 L18.367,29.185 C18.367,27.668 17.432,26.366 16.111,25.835 L16.111,25.216 C16.111,24.344 15.410,23.634 14.546,23.634 L10.513,23.634 C10.668,23.026 10.831,22.422 11.002,21.820 C11.018,21.823 11.032,21.828 11.047,21.832 C11.384,21.909 11.724,21.948 12.061,21.948 C12.724,21.948 13.379,21.799 13.994,21.504 L14.009,21.496 C14.325,21.343 14.623,21.153 14.895,20.932 L14.921,20.911 C14.980,20.861 15.039,20.811 15.101,20.754 L15.120,20.738 C15.250,20.617 15.373,20.489 15.487,20.354 L15.495,20.346 C15.544,20.287 15.594,20.225 15.644,20.159 C15.655,20.145 15.664,20.132 15.674,20.118 L15.678,20.113 C15.718,20.059 15.757,20.004 15.795,19.947 L15.831,19.893 C15.869,19.835 15.907,19.775 15.943,19.712 C15.952,19.698 15.960,19.685 15.967,19.674 C16.011,19.596 16.053,19.517 16.090,19.443 C16.095,19.434 16.100,19.422 16.105,19.412 C16.137,19.346 16.169,19.278 16.200,19.205 C16.207,19.187 16.215,19.169 16.223,19.150 L16.228,19.135 C16.253,19.078 16.275,19.021 16.296,18.962 C16.306,18.934 16.315,18.906 16.325,18.880 C16.345,18.820 16.364,18.760 16.382,18.697 L16.386,18.683 C16.392,18.665 16.398,18.646 16.404,18.624 C16.430,18.532 16.451,18.447 16.468,18.365 C17.218,14.899 22.176,4.267 23.706,2.430 C23.748,2.378 23.778,2.348 23.791,2.335 C23.830,2.297 23.867,2.255 23.899,2.209 C23.928,2.172 23.953,2.132 23.974,2.093 C24.144,1.781 24.131,1.399 23.944,1.097 ZM14.546,27.449 L14.785,27.449 C15.736,27.449 16.509,28.228 16.509,29.185 L16.509,31.103 C16.509,32.061 15.736,32.840 14.785,32.840 L4.381,32.840 C3.491,32.840 2.767,32.096 2.767,31.181 L2.767,31.105 C2.767,31.102 2.767,31.099 2.767,31.095 L2.767,29.193 C2.767,29.190 2.767,29.185 2.767,29.182 L2.767,29.107 C2.767,28.192 3.491,27.449 4.381,27.449 L4.730,27.449 C5.244,27.449 5.659,27.030 5.659,26.514 C5.659,26.101 5.392,25.750 5.023,25.627 L5.023,25.504 L14.253,25.504 L14.253,25.627 C13.885,25.750 13.618,26.101 13.618,26.514 C13.618,27.030 14.033,27.449 14.546,27.449 ZM14.653,17.969 C14.643,18.014 14.632,18.064 14.616,18.120 L14.602,18.166 C14.592,18.200 14.581,18.236 14.568,18.273 C14.564,18.289 14.557,18.304 14.552,18.322 C14.539,18.354 14.526,18.388 14.512,18.421 L14.495,18.463 C14.476,18.508 14.457,18.551 14.436,18.591 C14.434,18.597 14.431,18.604 14.427,18.610 C14.408,18.649 14.385,18.692 14.359,18.736 L14.345,18.761 C14.324,18.797 14.301,18.832 14.280,18.865 L14.257,18.899 C14.236,18.932 14.213,18.964 14.188,18.997 L14.169,19.023 C14.139,19.063 14.109,19.100 14.080,19.134 L14.074,19.141 C14.009,19.218 13.938,19.291 13.861,19.362 L13.847,19.376 C13.813,19.405 13.778,19.436 13.742,19.466 L13.728,19.478 C13.568,19.609 13.391,19.721 13.202,19.812 L13.196,19.816 C12.676,20.064 12.106,20.136 11.545,20.026 C12.967,15.548 14.878,11.242 17.281,7.004 C17.510,6.602 17.370,6.088 16.970,5.858 C16.569,5.627 16.059,5.767 15.830,6.170 C13.465,10.337 11.553,14.690 10.099,19.196 C9.536,18.562 9.272,17.661 9.470,16.756 C10.293,12.984 11.672,9.302 13.686,5.501 C15.145,2.747 19.385,2.368 21.502,2.359 C19.293,5.955 15.329,14.846 14.653,17.969 Z"/>
</svg>