<svg 
 xmlns="http://www.w3.org/2000/svg"
 xmlns:xlink="http://www.w3.org/1999/xlink"
 width="14px" height="15px">
<path fill-rule="evenodd"  fill="rgb(138, 124, 249)"
 d="M12.126,10.348 C11.267,9.602 10.396,9.150 9.548,9.894 L9.042,10.345 C8.673,10.671 7.984,12.198 5.321,9.087 C2.659,5.979 4.243,5.496 4.613,5.172 L5.123,4.721 C5.966,3.974 5.648,3.035 5.040,2.068 L4.673,1.481 C4.061,0.518 3.396,-0.117 2.550,0.629 L2.094,1.033 C1.720,1.311 0.675,2.210 0.422,3.918 C0.118,5.966 1.079,8.313 3.283,10.888 C5.484,13.464 7.639,14.758 9.681,14.736 C11.377,14.716 12.402,13.792 12.723,13.456 L13.182,13.049 C14.025,12.305 13.501,11.546 12.641,10.798 L12.126,10.348 Z"/>
</svg>