<svg 
 xmlns="http://www.w3.org/2000/svg"
 xmlns:xlink="http://www.w3.org/1999/xlink"
 width="52.5px" height="47.5px">
<path fill-rule="evenodd"  stroke="rgb(41, 41, 41)" stroke-width="1px" stroke-linecap="butt" stroke-linejoin="miter" fill="rgb(226, 160, 128)"
 d="M49.849,9.603 C46.882,10.898 44.686,12.566 43.222,14.609 C41.434,17.154 40.458,20.533 40.376,24.746 L48.061,24.746 C49.403,24.746 50.500,25.871 50.500,27.248 L50.500,43.642 C50.500,45.019 49.403,46.145 48.061,46.145 L32.082,46.145 C30.741,46.145 29.643,45.019 29.643,43.642 L29.643,30.836 C29.643,24.578 30.171,19.699 31.228,16.194 C32.286,12.649 34.277,9.437 37.164,6.600 C39.563,4.265 42.490,2.303 45.905,0.802 C47.126,0.260 48.508,0.802 49.077,2.012 L51.070,6.267 C51.638,7.518 51.110,9.061 49.849,9.603 ZM21.144,9.603 C18.178,10.898 15.982,12.566 14.518,14.608 C12.729,17.153 11.752,20.533 11.671,24.746 L19.316,24.746 C20.657,24.746 21.755,25.871 21.755,27.248 L21.755,43.642 C21.755,45.018 20.657,46.145 19.316,46.145 L3.337,46.145 C1.995,46.145 0.897,45.018 0.897,43.642 L0.897,30.835 C0.897,24.620 1.466,19.741 2.523,16.152 C3.581,12.606 5.532,9.395 8.419,6.600 C10.777,4.223 13.746,2.262 17.201,0.761 C18.421,0.218 19.804,0.761 20.373,1.970 L22.365,6.267 C22.934,7.518 22.405,9.061 21.144,9.603 Z"/>
</svg>