<?xml version="1.0" encoding="utf-8"?>
<!-- Generator: Adobe Illustrator 22.0.1, SVG Export Plug-In . SVG Version: 6.00 Build 0)  -->
<svg version="1.0" id="Слой_1" xmlns="http://www.w3.org/2000/svg" xmlns:xlink="http://www.w3.org/1999/xlink" x="0px" y="0px"
	 width="40px" height="40px" viewBox="0 0 40 40" style="enable-background:new 0 0 40 40;" xml:space="preserve">
<style type="text/css">
	.stt2{fill:#E2A080;}
	.stt3{fill:#292929;}
</style>
<g>
	<path class="stt2" d="M40,31.8c0,3.5-2.7,6.4-6.1,6.4s-6.1-2.8-6.1-6.4c0-3.5,2.7-6.4,6.1-6.4S40,28.3,40,31.8z"/>
	<path class="stt2" d="M26.1,6.4c0,3.5-2.7,6.4-6.1,6.4c-3.4,0-6.1-2.8-6.1-6.4S16.6,0,20,0C23.4,0,26.1,2.8,26.1,6.4z"/>
	<path class="stt2" d="M12.2,31.8c0,3.5-2.7,6.4-6.1,6.4c-3.4,0-6.1-2.8-6.1-6.4c0-3.5,2.7-6.4,6.1-6.4C9.4,25.5,12.2,28.3,12.2,31.8
		z"/>
</g>
<path class="stt3" d="M33.9,38.2c-3.4,0-6.1-2.9-6.1-6.4c0-3.5,2.7-6.4,6.1-6.4s6.1,2.9,6.1,6.4C40,35.3,37.3,38.2,33.9,38.2z
	 M33.9,27.3c-2.4,0-4.3,2-4.3,4.5c0,2.5,1.9,4.5,4.3,4.5s4.3-2,4.3-4.5C38.3,29.3,36.3,27.3,33.9,27.3z"/>
<path class="stt3" d="M20,12.7c-3.4,0-6.1-2.9-6.1-6.4S16.6,0,20,0c3.4,0,6.1,2.9,6.1,6.4S23.4,12.7,20,12.7z M20,1.8
	c-2.4,0-4.3,2-4.3,4.5s1.9,4.5,4.3,4.5c2.4,0,4.3-2,4.3-4.5S22.4,1.8,20,1.8z"/>
<path class="stt3" d="M6.1,38.2c-3.4,0-6.1-2.9-6.1-6.4c0-3.5,2.7-6.4,6.1-6.4c3.4,0,6.1,2.9,6.1,6.4C12.2,35.3,9.4,38.2,6.1,38.2z
	 M6.1,27.3c-2.4,0-4.3,2-4.3,4.5c0,2.5,1.9,4.5,4.3,4.5c2.4,0,4.3-2,4.3-4.5C10.4,29.3,8.5,27.3,6.1,27.3z"/>
<path class="stt3" d="M20,40c-3.8,0-7.6-1.4-10.5-3.9c-0.4-0.3-0.4-0.9-0.1-1.3c0.3-0.4,0.9-0.4,1.2-0.1c2.6,2.3,6,3.5,9.4,3.5
	c3.4,0,6.8-1.3,9.4-3.5c0.4-0.3,0.9-0.3,1.2,0.1c0.3,0.4,0.3,1-0.1,1.3C27.6,38.6,23.8,40,20,40z"/>
<path class="stt3" d="M35.2,27.5c-0.1,0-0.1,0-0.2,0c-0.5-0.1-0.8-0.6-0.6-1.1c0.3-1.2,0.4-2.4,0.4-3.6c0-6.5-4-12.4-9.8-14.6
	C24.5,8,24.2,7.5,24.4,7c0.2-0.5,0.7-0.7,1.1-0.6c6.6,2.4,11,9,11,16.3c0,1.4-0.2,2.7-0.5,4C36,27.2,35.6,27.5,35.2,27.5z"/>
<path class="stt3" d="M4.8,27.4c-0.4,0-0.8-0.3-0.8-0.7c-0.3-1.3-0.5-2.7-0.5-4c0-7.3,4.5-13.9,11.1-16.3C15,6.2,15.5,6.5,15.7,7
	c0.2,0.5-0.1,1-0.5,1.2c-5.9,2.2-9.9,8-9.9,14.6c0,1.2,0.1,2.4,0.4,3.6c0.1,0.5-0.2,1-0.6,1.1C4.9,27.4,4.8,27.4,4.8,27.4z"/>
</svg>
