<?xml version="1.0" encoding="utf-8"?>
<!-- Generator: Adobe Illustrator 22.0.1, SVG Export Plug-In . SVG Version: 6.00 Build 0)  -->
<svg version="1.0" id="Слой_1" xmlns="http://www.w3.org/2000/svg" xmlns:xlink="http://www.w3.org/1999/xlink" x="0px" y="0px"
	 width="45.6px" height="28.8px" viewBox="0 0 45.6 28.8" style="enable-background:new 0 0 45.6 28.8;" xml:space="preserve">
<style type="text/css">
	.st0{opacity:7.000000e-02;fill:#FFFFFF;enable-background:new    ;}
	.st1{fill:#ACAFAD;}
</style>
<path class="st0" d="M42,0H3.6C1.6,0,0,1.6,0,3.6v21.6c0,2,1.7,3.6,3.6,3.6H42c2,0,3.6-1.6,3.6-3.6V3.6C45.6,1.6,43.9,0,42,0z
	 M44.4,25.2c0,1.3-1.1,2.4-2.4,2.4H3.6c-1.3,0-2.4-1.1-2.4-2.4V3.6c0-1.3,1.1-2.4,2.4-2.4H42c1.3,0,2.4,1.1,2.4,2.4V25.2z"/>
<path class="st1" d="M34,12.1h-0.4c-0.5,1.2-0.8,1.8-1.2,3.6h2.3C34.3,13.9,34.3,13.1,34,12.1z M37.4,19.2h-2c-0.1,0-0.1,0-0.2-0.1
	L34.9,18l-0.1-0.2h-2.9c-0.1,0-0.2,0-0.2,0.2l-0.4,1.1c0,0.1-0.1,0.1-0.1,0.1h-2.5l0.2-0.6l3.5-8.2c0-0.6,0.4-0.8,1-0.8h1.8
	c0.1,0,0.2,0,0.2,0.2l1.7,7.8c0.1,0.5,0.2,0.8,0.2,1.3C37.4,19.1,37.4,19.1,37.4,19.2z M21.4,18.8l0.5-2.2c0.1,0,0.2,0.1,0.2,0.1
	c0.8,0.4,1.7,0.6,2.5,0.5c0.2,0,0.6-0.1,0.8-0.2c0.6-0.2,0.6-0.8,0.1-1.3c-0.2-0.2-0.6-0.4-1-0.6c-0.5-0.2-1-0.5-1.3-0.8
	c-1.4-1.2-1-2.9-0.1-3.7c0.7-0.5,1.1-1,2-1c1.4,0,3,0,3.7,0.2H29c-0.1,0.7-0.2,1.3-0.5,2c-0.6-0.2-1.2-0.5-1.8-0.5
	c-0.4,0-0.7,0-1.1,0.1c-0.2,0-0.4,0.1-0.5,0.2c-0.2,0.2-0.2,0.6,0,0.8l0.6,0.5c0.5,0.2,1,0.5,1.3,0.7c0.6,0.4,1.2,1,1.3,1.7
	c0.2,1.1-0.1,2-1.1,2.8c-0.6,0.5-0.8,0.7-1.7,0.7c-1.7,0-3,0.1-4.1-0.2C21.5,19,21.5,19,21.4,18.8z M17.2,19.2
	c0.1-0.8,0.1-0.8,0.2-1.2c0.6-2.6,1.2-5.4,1.7-8c0.1-0.2,0.1-0.4,0.4-0.4h2.2c-0.2,1.4-0.5,2.5-0.8,3.8c-0.4,1.8-0.7,3.6-1.2,5.4
	c0,0.2-0.1,0.2-0.4,0.2 M6,9.8c0-0.1,0.2-0.2,0.4-0.2h4.1c0.6,0,1.1,0.4,1.2,1l1.1,5.3c0,0.1,0,0.1,0.1,0.2C12.8,16,13,16,13,16
	l2.5-6.1c-0.1-0.1,0-0.2,0.1-0.2h2.5c0,0.1,0,0.1-0.1,0.2l-3.7,8.8c-0.1,0.2-0.1,0.4-0.2,0.5s-0.4,0-0.6,0h-1.8
	c-0.1,0-0.2,0-0.2-0.2l-1.9-7.4c-0.2-0.2-0.6-0.6-1.1-0.7c-0.7-0.4-2-0.6-2.3-0.6L6,9.8z"/>
</svg>
